<svg width="77.284" height="77.284" xmlns="http://www.w3.org/2000/svg">
    <g transform="matrix(1 0 0 1 -325.481 -12.24)">
        <g transform="matrix(1.333333 0 0 -1.333333 364.12384 83.50203)">
            <path id="path50" fill="#70cc8b" stroke="none" d="M 0 0 C -13.491 0 -24.464 10.975 -24.464 24.464 C -24.464 24.52 -24.457 24.574001 -24.457 24.628002 L 0.164 0.007 C 0.109 0.007 0.055 0 0 0 M 1.308 0.066 L 1.308 17.102 L 19.549 17.102 L 5.195 31.457 L 5.195 25.324 L 9.081 21.438 L -3.027 21.438 L -3.027 15.306 L -3.027 13.053001 L -3.027 9.33 L -23.786 30.092 L -27.434 33.737 C -28.422 30.822 -28.982 27.709997 -28.982 24.464 C -28.982 8.484 -15.981 -4.517 0 -4.517 C 10.844999 -4.517 20.265 1.498 25.225 10.346 L 21.881 13.688 C 18.078 5.977 10.362 0.548 1.308 0.066"/>
        </g>
        <g transform="matrix(1.333333 0 0 -1.333333 396.73315 51.1003)">
            <path id="path54" fill="#70cc8b" stroke="none" d="M 0 0 L -24.621 24.621 C -24.564 24.621 -24.511 24.628002 -24.457 24.628002 C -10.968 24.628002 0.007 13.654 0.007 0.163 C 0.007 0.109 0 0.056 0 0 M -24.457 29.145 C -35.302 29.145 -44.722 23.13 -49.681 14.283 L -46.339 10.94 C -42.535 18.65 -34.819 24.08 -25.766998 24.562 L -25.766998 7.5269995 L -44.006 7.5269995 L -29.653 -6.826 L -29.653 -0.695 L -33.536 3.191 L -21.43 3.191 L -21.43 10.831 L -21.43 15.299001 L -0.668 -5.4609995 L 2.978 -9.108 C 3.966 -6.193 4.524 -3.082 4.524 0.163 C 4.524 16.145 -8.476 29.145 -24.457 29.145"/>
        </g>
    </g>
</svg>
