<svg width="2500" height="2500" xmlns="http://www.w3.org/2000/svg">
    <g transform="matrix(78.125 0 0 78.125 0 0)">
        <g>
            <path fill="#627eea" fill-rule="evenodd" stroke="none" d="M 32 16 C 32 24.836554 24.836554 32 16 32 C 7.163444 32 0 24.836554 0 16 C 0 7.163444 7.163444 0 16 0 C 24.836554 0 32 7.163444 32 16 Z"/>
            <g>
                <path fill="#ffffff" fill-opacity="0.602" stroke="none" d="M 16.498 4 L 16.498 12.869999 L 23.995 16.22 Z"/>
                <path fill="#ffffff" stroke="none" d="M 16.498 4 L 9 16.22 L 16.498 12.869999 Z"/>
                <path fill="#ffffff" fill-opacity="0.602" stroke="none" d="M 16.498 21.968 L 16.498 27.995 L 24 17.616 Z"/>
                <path fill="#ffffff" stroke="none" d="M 16.498 27.995 L 16.498 21.967 L 9 17.616 Z"/>
                <path fill="#ffffff" fill-opacity="0.2" stroke="none" d="M 16.498 20.573 L 23.995 16.22 L 16.498 12.872 Z"/>
                <path fill="#ffffff" fill-opacity="0.602" stroke="none" d="M 9 16.22 L 16.498 20.573 L 16.498 12.872 Z"/>
            </g>
        </g>
    </g>
</svg>
