<svg width="137.5" height="137.5" xmlns="http://www.w3.org/2000/svg">
    <path fill="#2b2b2b" stroke="none" d="M 137.5 68.75 C 137.5 106.71957 106.71957 137.5 68.75 137.5 C 30.780424 137.5 0 106.71957 0 68.75 C 0 30.780424 30.780424 0 68.75 0 C 106.71957 0 137.5 30.780424 137.5 68.75 Z"/>
    <path fill="none" stroke="#ffffff" stroke-miterlimit="10" stroke-width="5" d="M 68.42 96.25 L 45.350002 96.25 L 56.89 76.27 L 68.42 56.28 L 79.96 76.27 L 91.5 96.25 L 68.42 96.25 Z"/>
    <path fill="none" stroke="#ffffff" stroke-miterlimit="10" stroke-width="5" d="M 68.24 42.22 L 91.32 42.22 L 79.78 62.2 L 68.24 82.19 L 56.7 62.2 L 45.17 42.22 L 68.24 42.22 Z"/>
    <path fill="#ffffff" stroke="none" d="M 57.36 69.53 L 68.64 51.24 L 79.89 69.72 L 68.61 87.77 L 57.36 69.53 Z"/>
    <g transform="matrix(1 0 0 1 -181.12 -181.17)">
        <path fill="#2b2b2b" stroke="none" d="M 249.75 237.2 L 258.08 250.88 L 249.75 264.2 L 241.42 250.7 L 249.75 237.2 M 249.75 227.63 L 245.46 234.57 L 237.14001 248.07 L 235.52 250.7 L 237.14001 253.32 L 245.46 266.82 L 249.69 273.68 L 253.96 266.85 L 262.29 253.52998 L 263.92 250.91 L 262.32 248.28 L 254 234.59999 L 249.76 227.60002 Z"/>
    </g>
    <path fill="#2b2b2b" stroke="none" d="M 68.66 75.05 L 65.27 69.55 L 68.66 64.06 L 72.05 69.63 L 68.66 75.05 Z"/>
</svg>
