<svg width="256" height="256" xmlns="http://www.w3.org/2000/svg">
    <defs>
        <filter id="filter0_d_24_59" x="51.4561" y="60.8" width="153.055" height="113" filterUnits="userSpaceOnUse">
            <feFlood color-interpolation-filters="sRGB" flood-color="#000000" flood-opacity="0" result="BackgroundImageFix"/>
            <feColorMatrix color-interpolation-filters="sRGB" in="SourceAlpha" result="hardAlpha" type="matrix" values="0 0 0 0 0 0 0 0 0 0 0 0 0 0 0 0 0 0 127 0"/>
            <feOffset color-interpolation-filters="sRGB" in="hardAlpha" dx="0" dy="4" result="result3"/>
            <feGaussianBlur color-interpolation-filters="sRGB" in="result3" stdDeviation="2 2" result="result4"/>
            <feComposite color-interpolation-filters="sRGB" in="result4" in2="hardAlpha" operator="out" result="result5"/>
            <feColorMatrix color-interpolation-filters="sRGB" in="result5" result="result6" type="matrix" values="0 0 0 0 0 0 0 0 0 0 0 0 0 0 0 0 0 0 0.25 0"/>
            <feBlend color-interpolation-filters="sRGB" in="result6" in2="BackgroundImageFix" mode="normal" result="effect1_dropShadow_24_59"/>
            <feBlend color-interpolation-filters="sRGB" in="SourceGraphic" in2="effect1_dropShadow_24_59" mode="normal" result="shape"/>
        </filter>
    </defs>
    <path fill="#344afb" stroke="none" d="M 0 0 L 256 0 L 256 256 L 0 256 Z"/>
    <g filter="url(#filter0_d_24_59)">
        <path fill="#ffffff" stroke="none" d="M 55.4563 164 L 55.4563 60.8 L 84.8563 60.8 L 84.8563 109.62499 C 85.4063 108.325 86.55629 107 88.3063 105.65 C 90.10629 104.25 92.4063 103.075 95.2063 102.12501 C 98.0063 101.125 101.15599 100.625 104.656 100.625 C 110.80599 100.625 116.056 102.175 120.406 105.275 C 124.806 108.375 128.156 112.4 130.456 117.35 C 132.756 122.3 133.906 127.6 133.906 133.25 C 133.906 138.9 132.756 144.2 130.456 149.15 C 128.156 154.1 124.806 158.125 120.406 161.225 C 116.056 164.275 110.80599 165.8 104.656 165.8 C 102.006 165.8 99.3813 165.35 96.7813 164.45 C 94.23129 163.55 91.9063 162.325 89.8063 160.775 C 87.7063 159.175 85.9813 157.375 84.6313 155.375 L 84.6313 164 L 55.4563 164 Z M 105.03099 133.25 C 105.03099 131.55 104.606 129.95 103.756004 128.45 C 102.906 126.95 101.706 125.74999 100.156 124.85 C 98.6563 123.90001 96.9063 123.425 94.9063 123.425 C 92.9063 123.425 91.1563 123.90001 89.656296 124.85 C 88.1563 125.74999 86.98131 126.95 86.1313 128.45 C 85.2813 129.95 84.8563 131.55 84.8563 133.25 C 84.8563 134.95 85.2813 136.55 86.1313 138.05 C 86.98131 139.55 88.1563 140.75 89.656296 141.65 C 91.1563 142.55 92.9063 143 94.9063 143 C 96.9063 143 98.6563 142.55 100.156 141.65 C 101.706 140.75 102.906 139.55 103.756004 138.05 C 104.606 136.55 105.03099 134.95 105.03099 133.25 Z M 173.96098 100.625 C 178.51099 100.625 182.661 100.975 186.41098 101.67501 C 190.161 102.37501 193.261 103.15 195.711 104 C 198.161 104.8 199.661 105.4 200.211 105.80001 L 191.21101 122.825005 C 190.31102 122.225 188.586 121.4 186.036 120.350006 C 183.486 119.3 180.661 118.775 177.561 118.775 C 175.86101 118.775 174.46098 118.925 173.361 119.225 C 172.261 119.475 171.711 120 171.711 120.8 C 171.711 121.6 172.386 122.275 173.736 122.825005 C 175.086 123.325 177.211 123.8 180.111 124.25 C 182.86098 124.75 185.811 125.65 188.961 126.95 C 192.161 128.2 194.886 130.125 197.136 132.725 C 199.38602 135.325 200.511 138.825 200.511 143.225 C 200.511 148.025 199.436 151.925 197.286 154.925 C 195.186 157.875 192.436 160.15 189.036 161.75 C 185.68599 163.3 182.086 164.35 178.236 164.9 C 174.38599 165.5 170.761 165.8 167.361 165.8 C 162.061 165.8 157.511 165.35 153.711 164.45 C 149.961 163.55 146.986 162.55 144.786 161.45 C 142.586 160.35 141.111 159.525 140.361 158.975 L 149.136 140 C 150.436 141 152.536 142.175 155.436 143.525 C 158.386 144.875 161.361 145.55 164.361 145.55 C 166.861 145.55 168.686 145.375 169.836 145.025 C 170.986 144.625 171.561 144.075 171.561 143.375 C 171.561 142.825 171.286 142.35 170.736 141.95 C 170.186 141.55 169.311 141.175 168.111 140.825 C 166.911 140.475 165.336 140.125 163.386 139.775 C 161.636 139.425 159.636 138.85 157.386 138.05 C 155.186 137.25 153.036 136.1 150.936 134.6 C 148.886 133.1 147.186 131.15 145.836 128.75 C 144.486 126.35 143.811 123.425 143.811 119.97499 C 143.811 115.524994 145.261 111.875 148.161 109.025 C 151.061 106.175 154.811 104.075 159.411 102.725 C 164.011 101.325 168.861 100.625 173.96098 100.625 Z"/>
    </g>
</svg>
