<svg width="257" height="256" xmlns="http://www.w3.org/2000/svg">
    <path fill="#0988f0" stroke="none" d="M 256.738 128 C 256.738 198.69243 199.43045 256 128.738 256 C 58.04556 256 0.73800653 198.69243 0.73800653 128 C 0.73800653 57.307552 58.04556 0 128.738 0 C 199.43045 0 256.738 57.307552 256.738 128 Z"/>
    <path fill="#ffffff" stroke="none" d="M 173.815 112.568 L 190.87602 95.5068 C 152.315 56.9457 104.401 56.9457 65.8398 95.5068 L 82.901 112.568 C 112.228 83.2409 144.508 83.2409 173.83499 112.568 L 173.815 112.568 Z"/>
    <path fill="#ffffff" stroke="none" d="M 168.129 152.319 L 128.339 112.529 L 88.5498 152.319 L 48.7601 112.529 L 31.7188 129.571 L 88.5498 186.42201 L 128.339 146.632 L 168.129 186.42201 L 224.96 129.571 L 207.919 112.529 L 168.129 152.319 Z"/>
</svg>
