<svg width="256" height="256" xmlns="http://www.w3.org/2000/svg">
    <g>
        <path fill="#fffefe" fill-rule="evenodd" stroke="none" d="M -0.5 -0.5 C 84.8333 -0.5 170.167 -0.5 255.5 -0.5 C 255.5 84.8333 255.5 170.167 255.5 255.5 C 170.167 255.5 84.8333 255.5 -0.5 255.5 C -0.5 170.167 -0.5 84.8333 -0.5 -0.5 Z"/>
    </g>
    <g>
        <path fill="#ff4440" fill-rule="evenodd" stroke="none" d="M 170.5 16.5 C 179.436 22.2684 186.93602 29.6017 193 38.5 C 213.417 74.0985 214.91702 110.598 197.5 148 C 203.76399 153.361 207.264 160.194 208 168.5 C 217.667 190.16699 227.333 211.833 237 233.5 C 238.569 238.625 237.069 242.459 232.5 245 C 205.08 245.98201 177.74698 245.649 150.5 244 C 147.735 241.00502 146.902 237.505 148 233.5 C 154.674 218.50401 161.007 203.504 167 188.50002 C 136.222 214.986 101.056 223.486 61.5 214 C 50.840004 210.67902 41.5067 205.346 33.5 198 C 53.5897 170.488 73.923 143.155 94.50001 116 C 89.641 110.886 84.3076 106.22 78.5 102 C 77.3914 101.362 76.2247 100.862 75 100.5 C 63.978397 102.33 57.4784 97.6632 55.5 86.50001 C 57.398304 75.7607 63.7317 70.9274 74.5 72 C 82.0757 75.3009 86.0757 81.1343 86.50001 89.49999 C 91.690094 93.8575 97.0234 98.0242 102.50001 102 C 103.5 102.667 104.5 102.667 105.49999 102 C 127.297 73.56 148.964 45.060005 170.5 16.5 Z"/>
    </g>
    <g>
        <path fill="#fffefe" fill-rule="evenodd" stroke="none" d="M 170.5 21.500002 C 180.19798 27.367302 187.698 35.3673 193 45.5 C 206.10498 70.9598 209.105 97.6265 202 125.49999 C 187.646 172.19 156.812 201.35701 109.49999 213 C 84.1997 217.807 60.8663 213.14001 39.5 199 C 38.4829 197.951 38.3162 196.78401 39 195.49998 C 83.0942 137.62 126.928 79.6197 170.5 21.500002 Z"/>
    </g>
    <g>
        <path fill="#ff4440" fill-rule="evenodd" stroke="none" d="M 48.5 35.5 C 50.288 35.2148 51.954697 35.5481 53.5 36.5 C 43.3959 41.4799 34.8959 48.479904 28 57.5 C 22.8981 66.139 20.2314 75.4723 20 85.5 C 17.1057 86.61481 15.939 85.4481 16.5 82 C 18.6492 60.5053 29.3159 45.005295 48.5 35.5 Z"/>
    </g>
    <g>
        <path fill="#ff4642" fill-rule="evenodd" stroke="none" d="M 53.5 51.5 C 54.5 51.5 55.5 51.5 56.5 51.5 C 56.67 52.8221 56.336597 53.9887 55.5 55 C 43.1188 60.395603 36.6188 69.8956 36 83.5 C 33.355 84.7084 32.1884 83.7084 32.5 80.5 C 33.9141 66.6323 40.9141 56.965603 53.5 51.5 Z"/>
    </g>
    <g>
        <path fill="#ff4843" fill-rule="evenodd" stroke="none" d="M 56.5 66.5 C 58.288 66.2148 59.954697 66.5481 61.5 67.5 C 59.1687 69.6596 56.6687 71.6596 54 73.5 C 52.153904 76.5687 51.1539 79.9021 51 83.5 C 50 84.8333 49 84.8333 48 83.5 C 47.639397 76.2212 50.4727 70.5546 56.5 66.5 Z"/>
    </g>
    <g>
        <path fill="#fff8f8" fill-rule="evenodd" stroke="none" d="M 66.5 75.5 C 77.3472 75.1789 82.8472 80.5123 83 91.5 C 89 96.16671 95 100.833 101 105.49999 C 101.079 108.308 99.9119 110.641 97.49999 112.5 C 91.83329 108 86.1667 103.5 80.5 99 C 75.9491 97.7852 71.2824 97.1186 66.5 97 C 60.6735 93.8672 58.5068 89.033905 60 82.5 C 61.6941 79.6424 63.8607 77.309 66.5 75.5 Z"/>
    </g>
    <g>
        <path fill="#fffafa" fill-rule="evenodd" stroke="none" d="M 194.5 152.5 C 200.88202 155.398 203.882 160.564 203.49998 168 C 201.57301 182.483 193.239 189.15001 178.5 188 C 176.38501 187.443 174.385 186.609 172.50002 185.5 C 171.479 184.99802 171.312 184.332 172 183.5 C 181.477 174.524 188.977 164.19 194.5 152.5 Z"/>
    </g>
    <g>
        <path fill="#fffdfd" fill-rule="evenodd" stroke="none" d="M 206.5 175.5 C 215.558 194.624 224.391 213.957 233 233.5 C 233.667 235.833 233.667 238.16699 233 240.5 C 206.23901 241.661 179.405 241.828 152.5 241 C 150.675 239.534 150.175 237.701 151 235.49998 C 157.398 219.71 164.564 204.377 172.50002 189.5 C 188.047 194.71898 199.38 190.052 206.5 175.5 Z"/>
    </g>
</svg>
