<svg width="256" height="256" xmlns="http://www.w3.org/2000/svg">
    <g id="黄色-透明">
        <g id="编组-2" transform="matrix(1 0 0 1 48 55)">
            <g opacity="0.5">
                <path id="路径备份-2" fill="#f7a600" fill-rule="evenodd" stroke="none" d="M 111.67456 6.7056184 L 85.88702 40.425293 L 59.98926 6.7056184 L 5.364495 6.7056184 L 58.556583 76.16646 L 5.695112 145.29095 L 53.983814 145.29095 L 160 6.7056184 Z"/>
            </g>
            <path id="路径" fill="#f7a600" fill-rule="evenodd" stroke="none" d="M 106.31006 0 L 80.52252 33.719677 L 54.624775 0 L 0 0 L 53.192093 69.46084 L 0.33061785 138.58533 L 48.61932 138.58533 L 154.6355 0 Z"/>
            <path id="形状结合" fill="#f7a600" fill-rule="evenodd" stroke="none" d="M 132.24252 109.27942 L 135.28851 113.25642 L 110.84752 145.41641 L 105.292274 145.41725 L 105.09952 145.16641 L 132.24252 109.27942 Z M 156.24052 140.61641 L 159.91704 145.41725 L 152.67752 145.41641 L 156.24052 140.61641 Z M 138.38252 117.29642 L 141.59552 121.49242 L 123.48452 145.41641 L 117.01252 145.41641 L 138.38252 117.29642 Z M 144.70752 125.55541 L 147.57152 129.29642 L 135.26051 145.41641 L 129.67152 145.41641 L 144.70752 125.55541 Z M 150.68951 133.36742 L 153.48653 137.02042 L 147.25153 145.41641 L 141.48653 145.41641 L 150.68951 133.36742 Z M 126.06052 101.205414 L 129.14851 105.23842 L 102.00052 141.13141 L 98.85851 137.04042 L 126.06052 101.205414 Z M 119.83251 93.07342 L 122.95951 97.15641 L 95.75351 132.99742 L 92.53652 128.80942 L 119.83251 93.07342 Z M 113.64352 84.99142 L 116.73252 89.02441 L 89.43152 124.766426 L 86.45552 120.891426 L 113.64352 84.99142 Z"/>
        </g>
    </g>
</svg>
