<svg width="200" height="200" xmlns="http://www.w3.org/2000/svg">
    <defs>
        <linearGradient id="_Безымянный_градиент_12" x1="147.98483" y1="19.56043" x2="75.92644" y2="140.3558" gradientUnits="userSpaceOnUse">
            <stop offset="0" stop-color="#fac20d"/>
            <stop offset="1" stop-color="#fda803"/>
        </linearGradient>
        <linearGradient id="_Безымянный_градиент_12-2" x1="176.28886" y1="847.17224" x2="104.15796" y2="726.2553" gradientUnits="userSpaceOnUse" gradientTransform="matrix(1 0 0 -1 0 883.4503)">
            <stop offset="0" stop-color="#fac20d"/>
            <stop offset="1" stop-color="#fda803"/>
        </linearGradient>
        <linearGradient id="_Безымянный_градиент_11" x1="82.79566" y1="884.8386" x2="16.29758" y2="773.7006" gradientUnits="userSpaceOnUse" gradientTransform="matrix(1 0 0 -1 0 883.4503)">
            <stop offset="0" stop-color="#fd7b03"/>
            <stop offset="1" stop-color="#fda803"/>
        </linearGradient>
    </defs>
    <g id="_Слой_1-2">
        <g>
            <path fill="url(#_Безымянный_градиент_12)" stroke="none" d="M 200 100 C 200 155.22847 155.22847 200 100 200 C 44.771526 200 0 155.22847 0 100 C -0 44.771526 44.771526 0 100 0 C 155.22847 0 200 44.771526 200 100 Z"/>
            <g>
                <path fill="url(#_Безымянный_градиент_12-2)" stroke="none" d="M 119.54173 1.71062 C 165.41989 10.8339 200 51.3243 200 99.89367 C 200 155.18053 155.19118 200.00002 99.91633 200.00002 C 68.66956 200.00002 40.76753 185.67729 22.41381 163.23788 L 119.54173 1.71062 Z"/>
                <path fill="url(#_Безымянный_градиент_11)" stroke="none" d="M 22.415543 163.24788 C 8.40123 146.02248 0 124.045746 0 100.10633 C 0 44.81921 44.80895 0 100.083664 0 C 106.71702 0 113.28904 0.51162 119.56173 1.74321 L 22.415543 163.24788 Z"/>
            </g>
            <path fill="#ffffff" stroke="none" d="M 99.32496 164.999 C 97.21368 164.999 95.10306 164.44315 93.22199 163.33011 L 42.7682 133.50053 C 39.99304 131.85968 38.03022 129.23393 37.24169 126.1077 C 36.45316 122.98215 36.93454 119.73914 38.59801 116.97792 L 89.050125 33.24444 C 91.241486 29.60921 95.08171 27.43927 99.32495 27.43927 L 99.3283 27.43927 C 103.57154 27.440199 107.411095 29.61088 109.59978 33.24624 L 118.07629 47.31098 C 120.21026 50.854317 119.06919 55.457855 115.52658 57.593555 C 111.98665 59.72793 107.383064 58.58861 105.24642 55.04466 L 99.32495 45.21684 L 52.97922 122.13469 L 99.32495 149.53535 L 152.17247 118.28981 C 155.7331 116.18452 160.326 117.36561 162.42995 120.92625 C 164.53523 124.488205 163.35548 129.08179 159.79417 131.18706 L 105.42992 163.32945 C 103.54685 164.44247 101.43557 164.999 99.32495 164.999 Z"/>
            <path fill="#ffffff" stroke="none" d="M 105.62211 128.22833 C 103.8398 128.22833 102.0715 127.593735 100.6702 126.35793 C 98.23795 124.21528 97.4599 120.75075 98.74308 117.77399 L 109.98481 91.67052 L 95.78034 99.96685 C 92.21104 102.052795 87.62345 100.84834 85.5362 97.27505 C 83.45094 93.70241 84.65539 89.11483 88.227356 87.0289 L 122.09534 67.24928 C 124.88725 65.61744 128.4125 65.96389 130.83542 68.10874 C 133.257 70.25273 134.02971 73.70992 132.74919 76.68134 L 121.57753 102.62199 L 139.39867 92.1036 C 142.9573 90.00099 147.55154 91.18409 149.65549 94.74804 C 151.7561 98.31134 150.57301 102.90425 147.01039 105.00618 L 109.4263 127.1887 C 108.24587 127.88601 106.93066 128.22833 105.62211 128.22833 Z"/>
        </g>
    </g>
</svg>
