<svg width="247" height="180" xmlns="http://www.w3.org/2000/svg">
    <defs>
        <linearGradient id="paint0_linear_379_999" x1="185.331" y1="12.297" x2="210.247" y2="180.592" gradientUnits="userSpaceOnUse">
            <stop offset="0" stop-color="#fc2ecf"/>
            <stop offset="1" stop-color="#8300eb"/>
        </linearGradient>
        <linearGradient id="paint1_linear_379_999" x1="62.0898" y1="17.0514" x2="33.1323" y2="180.794" gradientUnits="userSpaceOnUse">
            <stop offset="0" stop-color="#fc2ecf"/>
            <stop offset="1" stop-color="#8300eb"/>
        </linearGradient>
    </defs>
    <path fill="url(#paint0_linear_379_999)" fill-rule="evenodd" stroke="none" d="M 214.867 6.12006 C 191.484 -6.4786296 161.584 0.997979 148.084 22.819698 L 123.639 62.3311 L 148.884 75.9328 L 168.685 151.708 C 173.502 170.141 192.456 182.20502 212.604 179.66 C 233.44002 177.028 248.47 159.699 246.885 140.133 L 239.311 46.5832 C 239.653 30.498098 230.853 14.7328 214.867 6.12006 Z"/>
    <path fill="url(#paint1_linear_379_999)" fill-rule="evenodd" stroke="none" d="M 32.1323 6.12202 C 55.5156 -6.47668 85.4155 0.99995 98.91571 22.8215 L 123.36 62.333096 L 98.11531 75.9348 L 78.3143 151.71 C 73.4972 170.143 54.543003 182.207 34.3954 179.662 C 13.559299 177.03 -1.4697301 159.701 0.114504 140.135 L 7.68931 46.5819 C 7.34657 30.4979 16.148 14.734199 32.1323 6.12202 Z"/>
    <path fill="#070b10" stroke="none" d="M 56.4883 58.3935 C 64.0822 58.3935 70.2383 52.6485 70.2383 45.5617 C 70.2383 38.4749 64.0822 32.73 56.4883 32.73 C 48.8944 32.73 42.7383 38.4749 42.7383 45.5617 C 42.7383 52.6485 48.8944 58.3935 56.4883 58.3935 Z"/>
    <path fill="#070b10" stroke="none" d="M 189.91402 58.3935 C 197.508 58.3935 203.664 52.6485 203.664 45.5617 C 203.664 38.4749 197.508 32.73 189.91402 32.73 C 182.32 32.73 176.164 38.4749 176.164 45.5617 C 176.164 52.6485 182.32 58.3935 189.91402 58.3935 Z"/>
</svg>
