<svg width="341.33334" height="341.33334" xmlns="http://www.w3.org/2000/svg">
    <g transform="matrix(1.3333334 0 0 1.3333334 0 0)">
        <g transform="matrix(0.1 0 0 -0.1 0 256)">
            <path fill="#000000" stroke="none" d="M 1129 2250 L 1004 2181 L 849 2161 C 764 2149 679 2138 659 2135 L 623 2129 L 637 2059 L 652 1989 L 613 1942 C 592 1916 529 1839 472 1770 L 368 1645 L 454 1642 C 513 1640 540 1635 540 1627 C 540 1620 500 1457 451 1263 C 402 1069 364 909 366 907 C 369 905 414 913 468 926 C 521 939 572 950 581 950 C 593 950 629 878 710 698 C 772 559 826 441 831 435 C 837 429 868 439 915 463 C 957 483 994 500 998 500 C 1003 500 1065 437 1135 359 L 1264 219 L 1344 307 C 1389 355 1448 420 1477 450 L 1529 505 L 1609 465 C 1660 441 1693 430 1699 435 C 1705 441 1758 558 1819 695 C 1880 833 1935 946 1943 948 C 1950 950 2002 940 2058 927 C 2114 914 2161 905 2164 907 C 2166 909 2128 1069 2079 1263 C 2030 1457 1990 1620 1990 1627 C 1990 1635 2017 1640 2076 1642 L 2162 1645 L 2021 1817 L 1880 1988 L 1894 2056 C 1902 2094 1907 2126 1905 2128 C 1903 2130 1817 2143 1713 2156 L 1525 2181 L 1397 2250 C 1326 2289 1265 2320 1262 2319 C 1258 2319 1198 2288 1129 2250 Z M 1640 1674 C 1701 1599 1749 1533 1747 1527 C 1744 1520 1695 1448 1637 1365 L 1532 1215 L 1550 1180 L 1568 1145 L 1511 1047 C 1448 937 1463 943 1337 981 L 1260 1004 L 1177 977 C 1131 962 1089 950 1083 950 C 1078 950 1047 994 1016 1048 C 959 1143 958 1145 974 1173 C 983 1189 990 1206 990 1212 C 990 1217 944 1287 888 1368 C 832 1448 786 1522 786 1531 C 785 1541 832 1607 890 1679 L 995 1809 L 1262 1810 L 1528 1810 L 1640 1674 Z"/>
            <path fill="#000000" stroke="none" d="M 928 1543 C 945 1521 965 1498 972 1493 C 986 1481 1120 1449 1120 1457 C 1120 1460 1108 1484 1093 1510 C 1064 1562 1064 1562 950 1576 L 896 1583 L 928 1543 Z"/>
            <path fill="#000000" stroke="none" d="M 1550 1575 C 1542 1573 1518 1569 1498 1565 C 1467 1560 1457 1552 1436 1513 C 1422 1488 1410 1464 1410 1460 C 1410 1456 1440 1459 1478 1467 C 1536 1480 1550 1487 1582 1523 C 1603 1546 1620 1568 1620 1573 C 1620 1580 1580 1581 1550 1575 Z"/>
            <path fill="#000000" stroke="none" d="M 1146 1202 C 1151 1197 1179 1176 1208 1155 L 1261 1117 L 1325 1161 C 1360 1185 1388 1206 1386 1208 C 1384 1210 1355 1206 1323 1201 C 1282 1193 1247 1193 1211 1200 C 1145 1212 1133 1213 1146 1202 Z"/>
        </g>
    </g>
</svg>
