<svg width="648.8" height="648.8" xmlns="http://www.w3.org/2000/svg">
    <g id="Layer_2">
        <g id="Layer_1-2">
            <path fill="#000000" stroke="none" d="M 648.8 324.4 C 648.8 503.5612 503.5612 648.8 324.4 648.8 C 145.23883 648.8 0 503.5612 0 324.4 C -0 145.23883 145.23883 0 324.4 0 C 503.5612 0 648.8 145.23883 648.8 324.4 Z"/>
            <path fill="#ffffff" stroke="none" d="M 216.30002 297.22 L 270.62 297.22 L 270.62 351.54 L 216.30002 351.54 Z"/>
            <path fill="#ffffff" stroke="none" d="M 161.98 242.9 L 216.29999 242.9 L 216.29999 297.22 L 161.98 297.22 Z"/>
            <path fill="#ffffff" stroke="none" d="M 107.649994 297.22 L 161.97 297.22 L 161.97 351.54 L 107.649994 351.54 Z"/>
            <path fill="#ffffff" stroke="none" d="M 161.98 351.54 L 216.29999 351.54 L 216.29999 405.86002 L 161.98 405.86002 Z"/>
            <path fill="#ffffff" stroke="none" d="M 525.08 254.6 C 521.25 214.65 486.77 201.24 443.22 197.41 L 443.22 171.82 L 409.50003 171.82 L 409.50003 195.95 C 400.64 195.95 391.58 196.12 382.57 196.29 L 382.57 171.8 L 348.87 171.8 L 348.87 197.38002 C 341.57 197.51999 296.72 197.48 296.72 197.48 L 296.62 227.21002 L 324.76 227.37001 L 324.76 422.21997 L 296.63 422.21997 L 296.38 451.53003 C 304.55 451.53003 340.91 451.69 348.79 451.74 L 348.79 477 L 382.49002 477 L 382.49002 452.34 C 391.73 452.54 400.69 452.62 409.42996 452.60995 L 409.42996 477.01 L 443.16 477.01 L 443.16 451.86 C 499.87 448.63 539.58 434.36 544.51 381.11996 C 548.51 338.24 528.35 319.12 496.16 311.34 C 515.72 301.34 527.95 283.83 525.1 254.59 Z M 477.83 374.43 C 477.83 416.32 406.12 411.53 383.24 411.53998 L 383.24 337.28 C 406.11002 337.28 477.79 330.75 477.8 374.43 Z M 462.18 269.65 C 462.18 307.76 402.34 303.29 383.29 303.29 L 383.29 235.93 C 402.37 235.94 462.2 229.9 462.18 269.65 Z"/>
        </g>
    </g>
</svg>
