<svg width="256" height="256" xmlns="http://www.w3.org/2000/svg">
    <defs>
        <linearGradient id="paint0_linear_9079_35" x1="58.6667" y1="128" x2="197.333" y2="128" gradientUnits="userSpaceOnUse">
            <stop offset="0" stop-color="#4400e2"/>
            <stop offset="0.421875" stop-color="#f94e6c"/>
            <stop offset="1" stop-color="#ffcb00"/>
        </linearGradient>
    </defs>
    <path fill="#ffffff" stroke="none" d="M 256 128 C 256 198.69243 198.69243 256 128 256 C 57.307552 256 0 198.69243 0 128 C 0 57.307552 57.307552 0 128 0 C 198.69243 0 256 57.307552 256 128 Z"/>
    <path fill="url(#paint0_linear_9079_35)" fill-rule="evenodd" stroke="none" d="M 179.868 84.6382 C 179.868 79.8716 183.773 75.9998 188.601 75.9998 C 193.42899 75.9998 197.343 79.8624 197.333 84.6382 L 197.333 171.361 C 197.333 176.128 193.42899 180 188.601 180 C 183.782 180 179.868 176.137 179.868 171.361 L 179.868 84.6382 Z M 58.666702 84.6385 C 58.666702 79.8627 62.580605 76 67.3991 76 C 72.2268 76 76.1407 79.8627 76.1315 84.6385 L 76.1315 171.361 C 76.1315 176.128 72.2268 180 67.3991 180 C 62.580605 180 58.666702 176.137 58.666702 171.361 L 58.666702 84.6385 Z M 107.802 94.0258 C 102.97401 94.0258 99.06919 97.8976 99.06919 102.663994 L 99.06919 153.335 C 99.06919 158.111 102.983 161.974 107.802 161.974 C 112.629005 161.974 116.534 158.102 116.534 153.335 L 116.534 102.663994 C 116.534 97.8884 112.629005 94.0258 107.802 94.0258 Z M 139.473 117.211006 C 139.473 112.44399 143.378 108.572 148.206 108.572 C 153.024 108.572 156.938 112.44399 156.938 117.211006 L 156.938 138.588 C 156.938 143.354 153.024 147.226 148.206 147.226 C 143.387 147.226 139.473 143.364 139.473 138.588 L 139.473 117.211006 Z"/>
</svg>
