<svg width="217.33" height="217.3" xmlns="http://www.w3.org/2000/svg">
    <path fill="#38a6fa" stroke="none" d="M 188.2 180.46 C 188.05 184.74 184.51 188.17 180.17 188.17 L 62.98 188.17 C 62.98 188.17 62.89 188.17 62.79 188.14998 L 62.71 188.14998 C 62.56 188.14998 62.42 188.14998 62.28 188.14998 C 57.86 188.14998 54.269997 184.56 54.269997 180.12999 L 54.269997 177.31 C 54.29 177.02 54.64 171.75 58.2 165.23 C 63.96 154.68 74.67 146.75 90.02 141.66 L 137.17 126.03 C 138.22 125.68001 147.69 122.4 157.12 114.3 C 170.06 103.2 177 88.39 177.24 71.43 L 180.58 73.63 C 188.07 78.56 188.21 87.42 188.21 87.79 L 188.21 180.45 L 188.21 180.45 Z M 148.1 70.53 C 148.1 79.09 145.04 86.01 138.73 91.68 C 133.73 96.18 128.53 98.189995 127.89 98.42 L 80.85 114.02 C 52.72 123.35 39.1 139.43 32.63 151.28 C 31.420002 153.5 30.33 155.8 29.390001 158.13 C 29.3 158.35 29.22 158.57 29.13 158.79 L 29.13 87.8 C 29.13 79.25 35.81 74.3 36.69 73.69 L 36.76 73.67 L 36.84 73.59 L 101.12 31.3 C 108.52 26.43 116.15001 31.25 116.23 31.3 L 148.11 52.28 L 148.11 70.53 L 148.1 70.53 Z M 217.32999 178.95 L 217.32999 87.8 C 217.32999 83.65 216.33 62.300003 196.58 49.3 L 177.36 36.66 L 177.36 8.15 C 177.36 3.65 173.71 0 169.21 0 L 156.59 0 C 152.09 0 148.44 3.65 148.44 8.15 L 148.44 17.63 L 132.24 6.96 C 120.51 -0.76 101.39 -3.75 85.11 6.96 L 20.75 49.3 L 20.68 49.350002 C 17.06 51.75 0 64.31 0 87.8 L 0 178.95 C 0 187.67 2.02 195.12001 6 201.1 C 9.19 205.89001 13.64 209.72998 19.22 212.52 C 28.659998 217.24 37.96 217.3 38.34 217.3 L 178.99 217.3 C 179.38 217.3 188.67 217.25 198.12 212.52 C 203.7 209.72998 208.14 205.89001 211.34 201.1 C 215.30998 195.13 217.32999 187.68 217.32999 178.95"/>
</svg>
