<svg width="2000" height="2000" xmlns="http://www.w3.org/2000/svg">
    <path fill="#5294ff" stroke="none" d="M 0 0 L 2000 0 L 2000 2000 L 0 2000 Z"/>
    <path fill="#ffffff" fill-rule="evenodd" stroke="none" d="M 733.5059 717.792 L 1265.98 717.792 C 1296.26 717.792 1313.75 752.14703 1295.95 776.638 L 1042.54 1125.13 C 1024.72 1149.62 1042.22 1183.98 1072.5 1183.98 L 1295.82 1183.98 C 1307.67 1183.98 1318.81 1178.3 1325.78 1168.71 L 1576.4 824.06 C 1585.85 811.061 1585.85 793.468 1576.4 780.46796 L 1356.68 478.325 C 1349.71 468.72803 1338.57 463.054 1326.72 463.054 L 672.766 463.054 C 660.908 463.054 649.779 468.72803 642.806 478.325 L 423.083 780.46796 C 413.63904 793.468 413.63904 811.069 423.083 824.06 L 969.772 1575.88 C 984.563 1596.2201 1014.92 1596.2201 1029.71 1575.88 L 1141.36 1422.33 C 1150.81 1409.3298 1150.81 1391.73 1141.36 1378.73 L 703.547 776.638 C 685.739 752.14703 703.2281 717.792 733.5059 717.792 Z"/>
</svg>
