<svg width="600" height="600" xmlns="http://www.w3.org/2000/svg">
    <path fill="#050404" stroke="none" d="M 300 100 L 160 100 C 137.90862 100 120 117.9086 120 140 L 120 460 C 120 482.09 127.91 500 150 500 L 300 500 C 410.46 500 500 410.46 500 300 C 500 189.53998 410.46 100 300 100 Z M 384.85 384.85 C 344.36746 425.32986 280.9276 431.5759 233.32793 399.76828 C 185.72823 367.9607 167.2259 306.95828 189.13628 254.06792 C 211.04669 201.17757 267.2674 171.12997 323.41595 182.30116 C 379.5645 193.47232 420.0027 242.75093 420 300 C 420.08817 331.8432 407.43066 362.39764 384.85 384.85 Z"/>
    <path fill="#ff7915" stroke="none" d="M 338.89 261.11 L 307.07 229.28998 C 303.165 225.38618 296.835 225.38618 292.93 229.28998 L 261.11 261.11 C 245.37958 276.8397 240.67358 300.49637 249.18639 321.04877 C 257.6992 341.60117 277.75436 355.00174 300 355.00174 C 322.24564 355.00174 342.3008 341.60117 350.8136 321.04877 C 359.32645 300.49637 354.62036 276.8397 338.89 261.11 Z"/>
</svg>
