<svg width="48" height="48" xmlns="http://www.w3.org/2000/svg">
    <path fill="#7d00ff" stroke="none" d="M 24 0 L 24 0 C 37.254833 0 48 10.745166 48 24 L 48 24 C 48 37.254833 37.254833 48 24 48 L 24 48 C 10.745166 48 0 37.254833 0 24 L 0 24 C -0 10.745166 10.745166 0 24 0 Z"/>
    <path fill="#ffffff" stroke="none" d="M 39 16 L 29.0013 16 L 29.0013 19.3327 L 39 19.3327 L 39 16 Z M 22.3336 19.3327 L 19.0007 19.3327 L 19.0007 22.6673 L 22.3336 22.6673 L 22.3336 19.3327 Z M 19.0007 36 L 22.3336 36 L 22.3336 26 L 19.0007 26 L 19.0007 36 Z M 25.6664 19.3327 L 25.6664 22.6673 L 29.0013 22.6673 L 29.0013 19.3327 L 25.6664 19.3327 Z M 25.6664 36 L 29.0013 36 L 29.0013 26 L 25.6664 26 L 25.6664 36 Z M 25.6664 16 L 22.3336 16 L 22.3336 19.3327 L 25.6664 19.3327 L 25.6664 16 Z M 9 16 L 9 19.3327 L 19.0007 19.3327 L 19.0007 16 L 9 16 Z M 39 26 L 39 22.6673 L 29.0013 22.6673 L 29.0013 26 L 39 26 Z M 22.3336 22.6673 L 22.3336 26 L 25.6664 26 L 25.6664 22.6673 L 22.3336 22.6673 Z M 9 22.6673 L 9 26 L 19.0007 26 L 19.0007 22.6673 L 9 22.6673 Z"/>
</svg>
