<svg width="69" height="69" xmlns="http://www.w3.org/2000/svg">
    <path fill="#0216dd" stroke="none" d="M 34.1 68.2 C 52.9329 68.2 68.2 52.9329 68.2 34.1 C 68.2 15.2671 52.9329 0 34.1 0 C 15.2671 0 0 15.2671 0 34.1 C 0 52.9329 15.2671 68.2 34.1 68.2 Z"/>
    <path fill="#ffffff" stroke="none" d="M 39.1262 41.4496 C 39.1262 41.5036 39.1802 41.5576 39.1802 41.6657 C 37.8292 42.9627 36.1539 43.7193 34.2624 43.7733 C 30.587603 43.935505 27.5073 41.5576 26.5346 37.9369 C 25.832 35.3429 23.508202 33.8838 20.8602 34.5863 C 18.9688 35.0727 17.6178 36.5859 18.1582 39.342 C 19.9956 48.529 29.5068 54.311405 38.4777 51.6093 C 45.1788 49.6098 50.5829 42.9627 49.9884 35.1267 C 49.8804 33.3434 48.8536 32.3166 47.0702 32.3166 C 45.2328 32.3166 43.4495 32.3166 41.612 32.3166 C 40.0449 32.3166 38.5317 32.3166 36.9645 32.3166 C 34.7488 32.3706 33.1816 33.9919 33.1276 36.2076 C 33.1276 36.6939 33.1276 37.1803 33.1276 37.6667 C 33.1276 39.8824 34.8029 41.5036 37.0185 41.5036 C 37.7211 41.4496 38.4236 41.4496 39.1262 41.4496 Z M 36.6943 22.8053 C 36.6943 23.67 36.6943 24.5887 36.6943 25.4534 C 36.6943 26.318 37.0726 26.9665 37.7211 27.5069 C 38.91 28.4256 40.261 28.2095 41.558 28.0473 C 42.855 27.885199 43.8277 26.7504 43.881798 25.399298 C 43.9358 23.616 43.9358 21.8326 43.881798 20.1033 C 43.881798 18.8603 43.017105 17.7255 41.7742 17.5093 C 40.9095 17.3472 39.9368 17.3472 39.0721 17.4553 C 37.613 17.6174 36.6943 18.6982 36.6943 20.2114 C 36.6943 21.076 36.6943 21.9407 36.6943 22.8053 Z M 34.1003 21.2382 C 34.1003 20.8058 34.1003 20.5356 34.1003 20.2654 C 34.1003 18.8063 33.1816 17.6714 31.722502 17.4553 C 30.9659 17.3472 30.1553 17.4012 29.398699 17.5093 C 28.1558 17.7255 27.2911 18.8603 27.237099 20.1573 C 27.237099 20.6437 27.237099 21.1301 27.237099 21.6164 C 27.237099 23.507902 28.1558 24.5887 29.9932 24.696802 C 30.8578 24.7508 31.830599 24.642801 32.6412 24.3185 C 33.9922 23.724102 34.2084 22.4271 34.1003 21.2382 Z M 24.805199 21.994698 C 24.805199 21.6705 24.8593 21.2922 24.805199 20.9679 C 24.6972 19.5629 23.4002 18.8063 22.3734 19.5629 C 21.2926 20.3735 20.3198 21.2922 19.4552 22.2649 C 18.7526 23.0756 19.293 24.426598 20.3739 24.5887 C 21.3466 24.696802 22.3734 24.642801 23.3461 24.5887 C 23.6704 24.5887 24.1567 24.372501 24.3189 24.0483 C 24.5891 23.4538 24.8593 22.0488 24.805199 21.994698 Z"/>
</svg>
