<svg width="256" height="256" xmlns="http://www.w3.org/2000/svg">
    <path id="circle" fill="#000000" stroke="none" d="M 256 128 C 256 198.69243 198.69243 256 128 256 C 57.307552 256 0 198.69243 0 128 C 0 57.307552 57.307552 0 128 0 C 198.69243 0 256 57.307552 256 128 Z"/>
    <path id="body" fill="#ffffff" stroke="none" d="M 184.497 130.439 C 179.70201 143.52 170.176 150.924 166.05 153.632 C 165.558 148.448 162.535 143.998 158.232 141.536 C 155.943 140.222 153.289 139.468 150.458 139.468 C 150.138 139.468 149.818 139.478 149.503 139.498 C 145.594 139.734 142.064 141.403 139.445 143.998 C 136.575 146.834 134.793 150.777 134.793 155.134 C 134.793 160.126 137.127 164.576 140.77 167.437 C 140.883 167.531 141.001 167.619 141.12 167.708 C 141.007 167.89 140.859 168.122 140.692 168.402 C 138.984 171.208 134.701 178.859 132.707 187.937 C 130.634 197.375 129.443 208.136 128.778 216.235 C 128.172 223.561 128 228.7 128 228.7 C 128 228.7 127.827995 223.56001 127.22199 216.235 C 126.557 208.137 125.366 197.375 123.293 187.937 C 121.299 178.859 117.016 171.208 115.308 168.402 C 115.141 168.121 114.993 167.89 114.88 167.708 C 114.99801 167.619 115.116005 167.531 115.23 167.437 C 118.87301 164.577 121.207 160.126 121.207 155.134 C 121.207 150.777 119.425 146.834 116.555 143.998 C 113.936 141.404 110.406 139.735 106.497 139.498 C 106.182 139.478 105.862 139.468 105.542 139.468 C 102.711 139.468 100.058 140.221 97.768 141.536 C 93.465 143.998 90.442 148.448 89.94999 153.632 C 85.824 150.924 76.298 143.52 71.503 130.439 C 69.401 125.186 69.529 119.687 70.947 114.10399 C 75.388 114.276 79.725 114.877 83.909 115.86199 C 80.241 113.524 76.332 111.52999 72.231 109.92501 C 75.175 101.684 80.408 93.359 84.967 85.497 C 87.557 87.141 90.028 88.958 92.366 90.932 C 90.741005 87.885 88.89 84.975 86.837006 82.228 C 86.935 82.051 87.034 81.869 87.132 81.691 C 95.71299 66.193 101.832 50.198 101.832 50.198 C 101.832 50.198 111.334 68.226 110.575005 86.895004 C 110.235 95.19 105.957 98.169 103.377 102.713 C 102.993 103.378 102.653 104.082 102.36301 104.84 C 99.05 113.539 102.077 119.811 107.124 123.69 C 109.517 125.27 111.95799 125.827 114.277 125.443 C 116.123 125.143 117.891 124.24199 119.491 122.78 C 124.547 118.177 131.449 118.177 136.505 122.78 C 138.105 124.24199 139.872 125.143 141.719 125.443 C 144.038 125.827 146.48 125.270996 148.872 123.69 C 153.918 119.811 156.946 113.539 153.633 104.84 C 153.343 104.082 153.003 103.378 152.619 102.713 C 150.039 98.169 145.761 95.191 145.421 86.895004 C 144.663 68.227 154.164 50.198 154.164 50.198 C 154.164 50.198 160.283 66.193 168.864 81.691 C 168.962 81.868 169.061 82.05 169.159 82.228 C 167.106 84.975 165.255 87.885 163.63 90.932 C 165.968 88.958 168.44 87.141 171.029 85.497 C 175.588 93.359 180.821 101.684 183.765 109.92501 C 179.664 111.52999 175.755 113.524 172.087 115.86199 C 176.27199 114.877 180.60901 114.277 185.04901 114.10399 C 186.467 119.687 186.595 125.186 184.493 130.439 Z"/>
    <path id="laurel" fill="#ffffff" stroke="none" d="M 167.387 189.411 C 166.683 189.411 166.001 189.032 165.647 188.368 C 165.135 187.40799 165.499 186.216 166.459 185.704 C 193.246 171.426 209.886 143.718 209.886 113.394005 C 209.886 68.242 173.152 31.508 128 31.508 C 82.848 31.508 46.114 68.241 46.114 113.393 C 46.114 143.718 62.754 171.425 89.541 185.70299 C 90.501 186.215 90.864 187.407 90.353 188.367 C 89.840996 189.326 88.64801 189.69 87.689 189.179 C 59.615 174.21501 42.176 145.175 42.176 113.393 C 42.176 66.069 80.676 27.569 128 27.569 C 175.32399 27.569 213.824 66.069 213.824 113.393 C 213.824 145.175 196.385 174.21501 168.311 189.179 C 168.016 189.336 167.698 189.411 167.386 189.411 Z"/>
</svg>
