<svg width="256" height="256" xmlns="http://www.w3.org/2000/svg">
    <defs>
        <mask id="mask0_1648_225467" maskUnits="userSpaceOnUse" x="51" y="61" width="154" height="134">
            <path fill="#ffffff" stroke="none" d="M 204.8 61.4399 L 51.2 61.4399 L 51.2 194.56 L 204.8 194.56 L 204.8 61.4399 Z"/>
        </mask>
    </defs>
    <path fill="#ffffff" stroke="none" d="M 253.44 128 C 253.44 58.7215 197.279 2.56006 128 2.56006 C 58.7215 2.56006 2.56006 58.7215 2.56006 128 C 2.56006 197.279 58.7215 253.44 128 253.44 C 197.279 253.44 253.44 197.279 253.44 128 Z"/>
    <g mask="url(#mask0_1648_225467)">
        <path fill="#5f5f5f" stroke="none" d="M 192.40602 147.844 C 192.911 148.245 193.242 148.591 193.739 149.001 C 194.04 149.249 194.04199 149.249 194.33702 148.979 C 194.54199 148.789 194.742 148.591 194.95302 148.406 C 195.80098 147.649 196.943 147.686 197.734 148.509 C 198.049 148.839 198.346 149.188 198.62201 149.553 C 199.306 150.45 199.238 151.622 198.466 152.438 C 198.24901 152.667 198.019 152.883 197.786 153.092 C 197.59 153.266 197.583 153.434 197.72202 153.652 C 198.007 154.101 198.284 154.555 198.551 155.015 C 198.892 155.597 199.19402 156.203 199.481 156.815 C 199.754 157.398 199.754 157.393 200.32 157.206 C 200.595 157.107 200.87398 157.024 201.158 156.958 C 202.08002 156.771 202.954 157.241 203.348 158.146 C 203.587 158.704 203.765 159.289 203.881 159.889 C 204.05 160.744 203.554 161.693 202.76102 162.115 C 202.454 162.276 202.116 162.347 201.79498 162.468 C 201.406 162.615 201.372 162.644 201.43599 163.045 C 201.642 164.304 201.786 165.57 201.79498 166.85 C 201.798 167.13 201.89801 167.289 202.175 167.313 C 202.413 167.333 202.65 167.38 202.886 167.406 C 203.831 167.509 204.474 168.005 204.753 168.981 C 204.77701 169.065 204.83902 170.826 204.75598 171.303 C 204.57501 172.357 203.796 173.108 202.772 173.15001 C 202.55 173.161 202.328 173.146 202.111 173.10602 C 201.707 173.028 201.43898 173.207 201.341 173.618 C 201.101 174.628 200.777 175.609 200.43 176.582 C 200.328 176.863 200.387 177.11 200.61 177.308 C 200.725 177.411 201.17302 177.91899 201.246 178.088 C 201.41199 178.476 200.69301 177.872 200.527 177.77202 C 200.148 177.542 195.494 174.83502 193.76099 173.864 C 193.885 172.90001 194.332 171.665 194.513 170.714 C 195.431 165.867 194.481 161.446 191.822 157.409 C 189.61 154.052 186.582 151.905 182.86201 150.84 C 179.588 149.902 176.343 150.093 173.16 151.317 C 170.527 152.329 167.643 153.99 166.061 156.606 C 165.88 156.819 165.794 156.794 165.508 156.66 C 164.517 156.14 160.637 153.479 159.059 152.511 C 158.361 151.773 157.898 150.563 158.423 149.671 C 158.798 149.034 159.301 148.518 159.842 148.053 C 160.601 147.402 161.701 147.42 162.507 148.033 C 163.508 148.793 163.506 148.789 164.478 147.973 C 164.985 147.547 165.526 147.169 166.059 146.778 C 166.555 146.417 166.591 146.271 166.359 145.703 C 165.726 144.153 166.131 142.977 167.56 142.211 C 167.938 141.999 168.333 141.823 168.74 141.684 C 169.83 141.335 170.835 141.744 171.428 142.767 C 172.046 143.835 172.043 143.833 173.207 143.551 C 173.822 143.402 174.44502 143.296 175.06699 143.177 C 175.688 143.057 175.782 142.954 175.818 142.307 C 175.832 141.984 175.878 141.662 175.956 141.35 C 176.12 140.724 176.417 140.175 177.033 139.929 C 178.20601 139.458 179.39099 139.368 180.542 139.987 C 181.221 140.351 181.538 140.979 181.54698 141.793 C 181.56 143.012 181.568 143.022 182.698 143.215 C 183.442 143.342 184.169 143.531 184.89902 143.712 C 185.454 143.851 185.59702 143.796 185.814 143.234 C 186.359 141.81 187.71901 141.083 189.32202 141.912 C 189.777 142.147 190.254 142.319 190.651 142.699 C 191.452 143.464 191.508 144.593 191.179 145.417 C 191.132 145.532 191.076 145.643 191.03 145.76 C 190.81102 146.332 190.78702 146.666 190.78702 146.666 C 190.78702 146.666 191.91 147.45 192.40602 147.844 Z"/>
        <path fill="#414141" stroke="none" d="M 193.506 173.39702 C 193.971 173.866 200.19699 177.45299 200.73401 177.792 C 200.893 177.814 201.016 177.925 201.161 177.98698 C 201.27202 178.091 201.37 178.198 201.471 178.315 C 201.964 179.04202 201.955 179.80902 201.67 180.612 C 201.48802 181.038 201.27202 181.446 201.02 181.83 C 200.434 182.76 199.35202 183.052 198.401 182.54701 C 198.11198 182.394 197.83098 182.224 197.557 182.039 C 197.357 181.909 197.22 181.94398 197.08 182.139 C 196.31801 183.2 195.47 184.191 194.548 185.099 C 194.363 185.28201 194.341 185.441 194.49701 185.654 C 194.677 185.892 194.844 186.143 195.006 186.396 C 195.663 187.422 195.48598 188.60599 194.557 189.367 C 194.234 189.63002 193.904 189.887 193.561 190.123 C 192.638 190.754 191.556 190.576 190.853 189.683 C 190.658 189.433 190.477 189.172 190.307 188.901 C 190.158 188.665 190.008 188.612 189.757 188.762 C 188.702 189.394 187.587 189.89299 186.45 190.33499 C 186.037 190.497 186.041 190.50302 186.12102 190.958 C 186.15 191.117 186.173 191.278 186.201 191.436 C 186.467 192.771 186.164 193.49399 185.055 194.17902 C 184.769 194.34598 184.43999 194.32002 184.133 194.40501 C 183.597 194.541 183.056 194.529 182.51 194.50099 C 182.332 194.409 182.15402 194.308 181.98 194.207 C 181.45502 193.74698 181.221 193.14 181.085 192.445 C 180.901 191.503 181.01299 191.65599 180.189 191.696 C 179.098 191.75 178.00398 191.74501 176.913 191.681 C 176.489 191.65599 176.489 191.655 176.391 192.068 C 176.346 192.261 176.294 192.452 176.267 192.647 C 176.09 193.88101 175.147 194.807 173.642 194.506 C 173.274 194.432 172.91 194.331 172.55101 194.219 C 171.522 193.901 170.927 192.85698 171.134 191.746 C 171.184 191.465 171.247 191.18402 171.299 190.902 C 171.37 190.51898 171.365 190.498 170.999 190.354 C 170.296 190.075 169.595 189.791 168.919 189.447 C 168.519 189.245 168.124 189.032 167.729 188.817 C 167.319 188.595 167.323 188.59201 167.035 188.997 C 166.881 189.213 166.738 189.436 166.579 189.644 C 165.877 190.57101 164.771 190.765 163.836 190.117 C 163.481 189.87 163.133 189.60602 162.798 189.327 C 161.946 188.615 161.762 187.444 162.349 186.478 C 162.522 186.19 162.716 185.916 162.912 185.644 C 163.048 185.45598 163.057 185.304 162.882 185.13098 C 161.947 184.209 161.09 183.20401 160.319 182.12599 C 160.172 181.922 160.028 181.923 159.839 182.048 C 159.608 182.20099 159.368 182.34 159.128 182.48 C 158.051 183.097 156.93 182.792 156.298 181.683 C 156.072 181.285 155.795 180.92 155.64 180.475 C 155.255 179.37001 155.579 178.34598 156.542 177.73102 C 156.746 177.6 156.956 177.479 157.157 177.348 C 157.512 177.12 157.522 177.113 157.365 176.712 C 157.039 175.881 156.76 175.031 156.526 174.168 C 156.423 173.789 156.326 173.405 156.241 173.01999 C 156.18 172.73898 156.04 172.62999 155.766 172.69098 C 155.547 172.734 155.327 172.76402 155.106 172.782 C 153.803 172.927 152.839 172.10599 152.702 170.738 C 152.665 170.36 152.625 169.986 152.6 169.61 C 152.566 169.065 152.73 168.527 153.061 168.107 C 153.392 167.687 153.863 167.417 154.378 167.351 C 154.665 167.314 154.954 167.291 155.24 167.244 C 155.614 167.179 155.627 167.17 155.632 166.759 C 155.648 165.862 155.715 164.965 155.827 164.073 C 155.874 163.682 155.998 163.301 155.971 162.9 C 155.943 162.625 155.832 162.455 155.623 162.369 C 155.48 162.326 155.446 162.307 155.233 162.251 C 154.811 162.143 154.429 161.951 154.124 161.625"/>
        <path fill="#414141" stroke="none" d="M 155.989 163.145 C 156.038 162.869 155.925 162.456 155.657 162.376 C 155.427 162.309 155.06 162.164 154.831 162.091 C 153.922 161.802 153.351 161.047 153.252 160.031 C 153.136 159.6 153.497 158.202 153.661 157.748 C 154.029 156.75 154.928 156.169 155.942 156.33 C 156.161 156.364 156.376 156.422 156.583 156.504 C 156.966 156.661 157.261 156.538 157.43 156.154 C 157.847 155.211 158.471 154.276 158.873 153.325 C 159.262 152.407 158.986 152.483 159.123 152.515 C 159.455 152.816 164.302 155.3 165.83 156.598 C 164.836 157.732 162.623 162.868 162.532 164.586"/>
        <path fill="#414141" stroke="none" d="M 165.887 156.516 C 168.982 152.992 171.197 151.48 174.25198 150.566 C 176.11 150.004 178.051 149.8 179.979 149.963 C 183.222 150.239 186.151 151.432 188.731 153.54 C 191.004 155.401 192.661 157.757 193.791 160.537 C 194.482 162.237 194.848 164.014 195.01802 165.856 C 195.262 168.494 194.72702 171.441 193.867 173.899 C 193.693 174.062 190.528 171.779 190.189 171.334 C 190.11198 171.094 190.208 170.874 190.266 170.652 C 190.57698 169.451 190.779 168.231 190.743 166.983 C 190.572 160.984 186.693 156.036 181.327 154.827 C 177.368 153.935 173.169 154.836 169.325 158.951 C 169.228 159.008 169.199 158.884 168.547 158.41 C 167.451 157.708 166.912 157.268 166.163 156.79 C 165.733 156.526 165.755 156.669 165.887 156.516 Z"/>
        <path fill="#5f5f5f" stroke="none" d="M 193.93 173.726 C 193.826 173.899 193.734 174.07799 193.651 174.26302 C 192.70702 176.66 191.196 178.62698 189.354 180.293 C 186.945 182.474 184.15 183.83401 180.977 184.271 C 180.19902 184.379 179.421 184.497 178.635 184.47 C 176.363 184.395 174.16699 183.954 172.07 182.99199 C 170.739 182.377 169.493 181.576 168.367 180.61 C 166.613 179.116 165.188 177.31999 164.142 175.192 C 163.181 173.23198 162.627 171.158 162.393 168.973 C 162.188 167.092 162.349 165.246 162.723 163.404 C 163.15 161.305 163.947 159.369 165.061 157.576 C 165.22 157.321 165.68 156.741 165.83 156.596 C 166.64 157.038 168.848 158.575 169.202 158.909 C 169.425 159.216 169.013 159.62 168.885 159.817 C 168.206 160.862 167.647 161.966 167.288 163.179 C 166.035 167.403 166.609 171.334 169.134 174.86798 C 171.24 177.817 174.103 179.433 177.605 179.803 C 182.594 180.33199 187.714 177.34698 189.822 172.081 C 189.93802 171.79 189.908 171.331 190.382 171.308 C 190.68698 171.676 193.572 173.519 193.93 173.726 Z"/>
        <path fill="#edae50" stroke="none" d="M 190.384 171.308 C 189.987 172.382 189.543 173.428 188.92 174.383 C 186.947 177.407 184.25499 179.28398 180.827 179.931 C 177.355 180.585 174.176 179.768 171.35 177.569 C 168.865 175.63199 167.278 173.027 166.667 169.837 C 165.943 166.067 166.703 162.597 168.822 159.462 C 168.901 159.344 168.976 159.226 169.055 159.109 C 169.135 159.008 170.188 157.783 170.701 157.331 C 172.97302 155.326 175.571 154.298 178.54199 154.239 C 184.10802 154.127 189.128 158.096 190.576 163.863 C 191.156 166.171 191.14 168.486 190.51 170.787 C 190.463 170.958 190.425 171.135 190.384 171.308 Z"/>
        <path fill="#414141" stroke="none" d="M 181.993 167.191 C 182.087 169.164 180.367 170.693 178.73598 170.672 C 176.873 170.649 175.345 169.11 175.363 167.157 C 175.378 165.249 176.794 163.672 178.759 163.666 C 180.396 163.662 182.083 165.205 181.993 167.191 Z"/>
        <path fill="#fcd38c" stroke="none" d="M 182.182 160.629 C 182.562 160.588 182.878 160.73 183.14 161.026 C 183.372 161.288 183.621 161.535 183.84799 161.804 C 184.37502 162.424 184.054 163.56 183.372 163.783 C 183.075 163.881 182.802 163.887 182.539 163.705 C 181.97798 163.318 181.5 162.826 181.074 162.287 C 180.624 161.715 180.853 160.982 181.524 160.733 C 181.735 160.652 181.95801 160.616 182.182 160.629 Z"/>
        <path fill="#414141" stroke="none" d="M 92.8405 194.30199 C 91.918 193.79 91.37011 192.995 91.2058 191.903 C 91.1495 191.532 91.05219 191.168 90.97959 190.79701 C 90.92839 190.538 90.8046 190.45099 90.5477 190.472 C 88.9149 190.617 87.2737 190.63602 85.6385 190.527 C 85.417 190.51302 85.1949 190.5 84.9753 190.472 C 84.7653 190.448 84.656 190.539 84.6131 190.75198 C 84.5354 191.138 84.4307 191.52 84.3702 191.91 C 84.1831 193.113 83.5575 193.94 82.493 194.40501 C 81.8116 194.59999 81.1306 194.531 80.4501 194.399 C 79.8194 194.275 79.172 194.218 78.6004 193.869 C 78.3807 193.699 78.1452 193.552 77.9548 193.34001 C 77.2757 192.58401 76.9946 191.70102 77.17 190.672 C 77.2361 190.283 77.3236 189.899 77.3981 189.512 C 77.5238 188.84901 77.5229 188.845 76.9369 188.628 C 75.6024 188.12701 74.301 187.536 73.0405 186.856 C 72.7371 186.693 72.4294 186.532 72.1394 186.34702 C 71.9179 186.20302 71.7708 186.233 71.627 186.455 C 71.4059 186.79501 71.1606 187.118 70.9413 187.462 C 70.0067 188.92398 68.1728 189.352 66.7313 188.18098 C 66.3538 187.874 65.9549 187.595 65.576 187.289 C 64.2383 186.21301 63.9944 184.497 64.9691 183.042 C 65.2242 182.661 65.4853 182.282 65.752 181.908 C 65.8786 181.73201 65.8763 181.58798 65.7161 181.443 C 65.6379 181.374 65.5681 181.29399 65.4941 181.22 C 64.2453 179.96901 63.0919 178.61699 62.0442 177.175 C 61.7472 176.76498 61.7444 176.767 61.3078 177.03201 C 61.0118 177.211 60.717606 177.392 60.4216 177.572 C 58.866497 178.509 57.3212 178.09702 56.360004 176.492 C 56.228294 176.287 56.178505 176.212 56.0407 175.965 C 55.8708 175.61798 55.666 175.29298 55.512 174.93399 C 54.8566 173.40402 55.3132 171.83899 56.6859 170.974 C 57.0075 170.772 57.3347 170.577 57.659595 170.375 C 58.0925 170.106 58.0971 170.103 57.9109 169.633 C 57.312805 168.123 56.8194 166.57 56.434505 164.985 C 56.370705 164.724 56.300896 164.464 56.2497 164.201 C 56.1985 163.937 56.0528 163.851 55.8085 163.884 C 55.351902 163.945 54.8943 164.016 54.4349 164.043 C 53.2559 164.115 52.346 163.621 51.7302 162.555 C 51.4742 162.116 51.377804 161.625 51.334496 161.117 C 51.3029 160.739 51.2321 160.4 51.2079 159.993 C 51.1083 158.462 51.941 156.537 53.7712 156.4 C 54.1622 156.37 54.5513 156.308 54.9418 156.262 C 55.3928 156.209 55.4086 156.205 55.4189 155.753 C 55.448204 154.423 55.551105 153.096 55.7266 151.778 C 55.7982 151.244 55.880196 150.713 55.9695 150.182 C 56.0552 149.675 56.0556 149.664 55.5762 149.499 C 55.2173 149.375 54.8585 149.26 54.5052 149.133 C 52.9706 148.588 52.1779 147.048 52.6085 145.41 C 52.767696 144.804 52.9627 144.208 53.172596 143.62 C 53.7102 142.102 55.182396 141.337 56.6584 141.795 C 57.1006 141.933 57.543205 142.07 57.9728 142.243 C 58.2475 142.351 58.3699 142.261 58.4853 142.006 C 58.757603 141.405 59.0536 140.817 59.3403 140.225 C 59.4427 140.022 59.5368 139.858 59.6299 139.671 C 59.9375 139.077 60.2638 138.492 60.6553 137.95 C 61.0071 137.626 120.26599 174.34 120.09999 174.76198 C 119.985 174.979 119.894 175.18701 119.785 175.397 C 119.57599 175.788 119.378 176.186 119.156 176.568 C 118.311 178.017 116.771 178.457 115.33501 177.668 C 114.958 177.45999 114.595 177.221 114.225 176.99802 C 113.839005 176.767 113.835 176.76498 113.573 177.122 C 112.988 177.918 112.376 178.691 111.737 179.439 C 111.166 180.107 110.561 180.741 109.946 181.364 C 109.66301 181.65001 109.664 181.659 109.881996 181.984 C 110.127 182.351 110.38701 182.708 110.63 183.07698 C 111.575 184.507 111.321 186.23001 110.009 187.283 C 109.58899 187.621 109.162 187.94902 108.727 188.26701 C 107.365 189.262 105.744995 188.991 104.73701 187.598 C 104.481 187.241 104.23699 186.86998 103.981 186.51 C 103.749 186.187 103.741 186.181 103.401 186.376 C 102.009 187.18 100.565 187.876 99.0781 188.46 C 98.87 188.542 98.6601 188.618 98.453 188.701 C 98.0783 188.851 98.0713 188.857 98.145805 189.295 C 98.2119 189.684 98.2672 190.07799 98.3734 190.455 C 98.769 191.867 97.94231 193.57301 96.108 194.17201 C 95.3149 194.432 93.5969 194.62102 92.8405 194.30199 Z"/>
        <path fill="#666059" stroke="none" d="M 119.983 174.867 C 118.739 174.106 107.661995 166.917 106.886 166.466 C 106.465 166.241 106.602 166.214 106.858 165.709 C 107.76301 163.67 108.373 161.499 108.666 159.269 C 108.87699 157.644 108.866 156.013 108.739 154.376 C 108.62 152.835 108.34501 151.311 107.919 149.831 C 107.37599 147.945 106.59 146.181 105.619995 144.494 C 104.538 142.612 103.16 141.006 101.63699 139.525 C 100.465 138.386 99.1422 137.461 97.74441 136.658 C 95.6448 135.442 93.360306 134.622 90.993 134.234 C 89.50639 133.991 88.00571 133.871 86.5051 133.975 C 83.3121 134.196 80.289 135.081 77.4772 136.709 C 75.2588 138.027 73.2736 139.738 71.6087 141.769 C 71.1842 142.287 70.58 143.318 70.1639 143.841 C 69.9252 144.141 65.9502 141.424 60.5425 138.054 C 60.7422 137.684 60.9344 137.381 61.1476 137.059 C 61.280304 136.857 61.2696 136.703 61.0964 136.544 C 60.7645 136.234 60.4341 135.922 60.1083 135.605 C 59.0731 134.593 58.831 133.25 59.479397 131.932 C 59.627396 131.63 59.8951 130.92 60.3033 130.405 C 60.5006 130.155 60.718 129.928 60.9312 129.696 C 61.975197 128.558 64.0041 128.538 65.0933 129.587 C 66.4119 130.854 66.2388 130.56 67.3489 129.662 C 68.2979 128.897 69.2582 128.15 70.2621 127.464 C 70.8021 127.096 70.837 126.917 70.5638 126.299 C 70.2594 125.61001 69.9852 124.917 70.0438 124.13 C 70.1169 123.157005 70.4916 122.326 71.2456 121.786 C 72.3222 121.015 73.4654 120.381 74.839 120.41999 C 75.9733 120.454 76.7678 121.04799 77.344 122.022 C 77.5493 122.372 77.7089 122.754 77.8747 123.128006 C 78.0287 123.48 78.2777 123.594 78.6268 123.498 C 80.0977 123.091995 81.5876 122.785 83.0868 122.52901 C 83.6319 122.436 83.7417 122.268 83.7626 121.698 C 83.7724 121.499 83.7724 121.301 83.7626 121.103004 C 83.6463 119.291 84.9789 117.769 86.5544 117.664 C 87.423 117.606 88.29291 117.537 89.1549 117.718 C 90.42279 117.98801 91.6707 119.212 91.5451 120.89101 C 91.5278 121.123 91.5404 121.358 91.5451 121.593 C 91.5562 122.283 91.6796 122.453 92.327 122.55 C 93.7299 122.757 95.1193 123.05599 96.4868 123.445 C 97.211006 123.653 97.32319 123.578 97.624405 122.865 C 97.8608 122.306 98.0977 121.747 98.5152 121.29799 C 99.3591 120.395 100.409 120.25 101.503 120.504005 C 102.37001 120.70599 103.184 121.121 103.93 121.633 C 105.145 122.468 105.588 123.96701 105.09301 125.426 C 104.991 125.73 104.867 126.027 104.73701 126.321 C 104.481 126.896996 104.525 127.108 105.034 127.447 C 106.105 128.155 107.13501 128.925 108.122 129.757 C 109.202 130.676 109.008995 130.815 110.201 129.679 C 111.244 128.683 112.856 128.565 113.808 129.246 C 114.773 129.936 115.612 130.806 116.169 131.893 C 116.66499 132.862 116.599 134.643 115.611 135.538 C 115.315 135.809 115.052 136.118 114.77699 136.413 C 114.539 136.671 114.506 136.951 114.69501 137.243 C 115.578 138.613 116.368 140.045 117.059 141.531 C 117.229 141.896 117.52 141.989 117.879 141.869 C 118.301 141.726 118.733 141.611 119.16901 141.529 C 120.338005 141.313 121.624 141.853 122.22399 142.933 C 122.805 143.979 123.16401 145.128 123.201 146.356 C 123.24 147.706 122.601 148.64 121.508 149.262 C 121.145 149.464 120.763 149.623 120.367004 149.739 C 119.949 149.864 119.77 150.132 119.855 150.581 C 120.15001 152.19 120.248 153.821 120.34501 155.454 C 120.37 155.887 120.568 156.125 120.979996 156.137 C 121.289 156.147 121.590996 156.207 121.895 156.249 C 123.462 156.465 124.534 157.75 124.539 159.42 C 124.543 159.744 124.527 160.066 124.496 160.389 C 124.445 160.896 124.272 161.624 124.137 162.099 C 123.745 163.482 122.419 164.239 121.054 164.148 C 120.61201 164.118 120.172005 164.044 119.729 163.997 C 119.323006 163.956 119.302 163.961 119.202 164.385 C 118.899 165.659 118.567 166.924 118.133 168.157 C 117.932 168.73 117.724 169.3 117.495 169.862 C 117.393 170.111 117.43499 170.264 117.654 170.394 C 118.086 170.651 118.51999 170.901 118.93599 171.186 C 120.046 171.94202 120.504005 173.318 120.09999 174.631 C 120.067 174.712 120.029 174.792 119.983 174.867 Z"/>
        <path fill="#edae50" stroke="none" d="M 74.8009 146.481 C 75.3133 145.834 75.7997 145.161 76.3611 144.553 C 79.009 141.686 82.2086 140.004 85.9862 139.556 C 89.32721 139.159 92.497 139.772 95.4247 141.508 C 99.9317 144.179 102.62 148.252 103.468 153.62 C 103.961 156.737 103.587 159.782 102.412 162.704 C 102.346 162.869 102.299 163.042 102.243004 163.212 C 102.371 163.493 102.246 163.735 102.135 163.979 C 101.564 165.222 100.815 166.335 99.9466 167.355 C 97.45079 170.288 94.3956 172.232 90.6882 172.90399 C 85.767 173.79698 81.3265 172.597 77.4665 169.245 C 74.3359 166.525 72.4494 163.004 71.8415 158.783 C 71.3691 155.497 71.7624 152.295 73.0545 149.238 C 73.3677 148.497 73.748 147.796 74.1311 147.094 C 74.2875 146.8 74.4913 146.582 74.8009 146.481 Z"/>
        <path fill="#45423d" stroke="none" d="M 77.661 156.163 C 77.5763 150.107 82.4934 145.493 87.70881 145.464 C 92.8241 145.437 97.92881 149.729 97.9376 156.216 C 97.946396 162.239 93.3059 166.817 87.88979 166.876 C 81.9893 166.94 77.5526 161.811 77.661 156.163 Z"/>
        <path fill="#fcd38c" stroke="none" d="M 97.7617 146.288 C 97.8464 147.183 96.782394 147.884 96.0428 147.368 C 95.541 147.016 95.0672 146.659 94.6697 146.192 C 94.0971 145.521 94.22749 144.823 94.9862 144.384 C 95.548 144.059 96.0716 144.036 96.5906 144.502 C 96.9555 144.829 97.3093 145.159 97.5713 145.586 C 97.703995 145.793 97.77101 146.039 97.7617 146.288 Z"/>
        <path fill="#edae50" stroke="none" d="M 79.6988 156.235 C 79.5732 151.861 82.9384 147.594 87.82241 147.614 C 92.384796 147.632 95.9465 151.487 95.9004 156.309 C 95.8557 161.062 92.1153 164.788 87.6693 164.73 C 83.0599 164.671 79.5741 160.583 79.6988 156.235 Z"/>
        <path fill="#414141" stroke="none" d="M 87.7745 159.664 C 85.95729 159.664 84.4423 158.072 84.4558 156.154 C 84.4674 154.263 85.8577 152.681 87.7959 152.66 C 89.563194 152.642 91.10669 154.18 91.0969 156.183 C 91.088 158.135 89.6321 159.666 87.7745 159.664 Z"/>
        <path fill="#fcd38c" stroke="none" d="M 91.6126 150.374 C 91.8039 150.374 91.99049 150.396 92.15299 150.508 C 92.85911 151.001 93.237 151.688 93.21189 152.59 C 93.198395 153.054 92.56721 153.541 92.1371 153.438 C 91.4092 153.264 90.81621 152.885 90.4112 152.201 C 90.0608 151.611 90.1301 151.116 90.6551 150.698 C 90.9391 150.475 91.2635 150.383 91.6126 150.374 Z"/>
        <path fill="#666059" stroke="none" d="M 74.8023 146.48 C 74.2731 147.363 73.7611 148.252 73.3519 149.206 C 72.6644 150.816 72.2185 152.529 72.0286 154.283 C 71.7773 156.494 71.9509 158.737 72.5392 160.877 C 73.128 163.017 74.1195 165.009 75.4548 166.737 C 77.4847 169.362 80.0428 171.172 83.1078 172.18 C 84.884 172.76402 86.7133 173.03401 88.5658 172.90399 C 93.4125 172.567 97.36471 170.393 100.385994 166.369 C 101.01899 165.52 101.566 164.604 102.01699 163.634 C 102.085 163.49 102.168 163.354 102.24501 163.213 C 102.66601 163.421 105.944 165.652 106.50299 166.064 C 106.725 166.226 106.624 166.442 106.519 166.64 C 105.943 167.724 105.335 168.785 104.602 169.761 C 103.001 171.895 101.133995 173.71501 98.9245 175.141 C 96.78061 176.527 94.4249 177.51099 91.96269 178.051 C 90.0576 178.474 88.12779 178.536 86.20401 178.41 C 83.645 178.245 81.1925 177.561 78.8578 176.421 C 77.2585 175.648 75.7597 174.66301 74.3978 173.48901 C 71.7191 171.164 69.6413 168.355 68.2971 164.962 C 67.4383 162.784 66.9007 160.48 66.7043 158.131 C 66.3966 154.627 66.924 151.256 68.0946 147.978 C 68.5238 146.777 69.0898 145.652 69.6948 144.544 C 69.754 144.437 69.821 144.329 69.8894 144.227 C 70.2571 143.677 70.3269 143.66 70.8734 143.988 C 71.7908 144.539 73.5558 145.693 74.4546 146.271 C 74.5747 146.333 74.691 146.402 74.8023 146.48 Z"/>
        <path fill="#45423d" stroke="none" d="M 103.297 159.729 C 103.761 157.556 103.80399 155.306 103.425 153.115 C 103.046 150.923 102.251 148.834 101.089 146.973 C 99.1474 144.335 96.7079 142.112 94.0004 140.74 C 92.3103 139.973 90.49971 139.546 88.6607 139.48 C 83.8065 139.298 79.6448 140.992 76.2544 144.675 C 75.7215 145.264 75.2207 145.886 74.7552 146.535 C 74.3563 146.284 70.6844 144.31 70.1677 143.84 C 69.9629 143.654 71.5641 141.743 72.3865 140.85 C 74.185 138.897 76.2177 137.284 78.5533 136.103 C 80.7391 134.915 83.2381 134.237 85.759 133.954 C 87.6921 133.734 89.64459 133.789 91.5637 134.117 C 94.0935 134.555 96.4263 135.592 98.63821 136.978 C 100.15501 137.919 101.552 139.058 102.79399 140.371 C 105.23501 142.971 107.031 145.988 108.043 149.506 C 108.688 151.766 109 154.116 108.969 156.474 C 108.936 159.993 108.098 163.225 106.88 165.828 C 106.639 166.345 106.858 166.332 106.158 165.828 C 105.29799 165.181 103.153 163.827 102.248 163.215 C 102.191 163.169 102.93099 161.462 103.297 159.729 Z"/>
        <path fill="#edae50" stroke="none" d="M 80.7559 68.0283 C 80.3826 66.7776 80.0964 65.5018 79.7817 64.2343 C 79.6989 63.9006 79.792 63.810802 80.1299 63.7247 C 98.8239 58.9351 121.556 62.594505 133.232 66.3205 C 135.083 67.0201 136.884 67.8328 138.55 68.9447 C 139.272 69.4279 139.958 69.9599 140.498 70.673 C 140.647 70.8685 140.783 71.076 140.901 71.2943 C 141.184 71.824 141.247 72.3584 140.982 72.9379 C 140.367 74.2821 139.698 75.5965 138.975 76.8803 C 138.508 77.7162 138.028 78.5443 137.554 79.3765 C 137.331 79.7805 137.081 80.1668 136.805 80.5331 C 136.563 80.7701 136.292 80.656 136.032 80.5946 C 134.888 80.3246 133.734 80.1133 132.597 79.8187 C 132.514 79.7968 132.428 79.8336 132.343 79.8368 C 131.153 79.4305 129.897 79.3844 128.687 79.0809 C 128.529 79.0409 128.391 79.1419 128.24 79.1149 C 126.254 78.7081 124.241 78.5028 122.24099 78.2133 C 121.539 78.1114 120.812004 78.1654 120.131 77.9005 C 119.87101 77.6106 119.823 77.2312 119.735 76.8658 C 119.23101 74.7089 118.576996 72.6153 117.378 70.7563 C 117.195 70.4737 116.996994 70.2042 116.789 69.9417 C 116.164 69.1528 115.42 68.6836 114.408 68.5435 C 111.77 68.1781 109.128 67.8621 106.478 67.6256 C 102.069 67.2295 97.6552 67.162 93.23851 67.2281 C 91.0587 67.2598 88.8809 67.4125 86.70529 67.6103 C 84.9036 67.7722 83.1065 67.9645 81.3145 68.2149 C 81.0924 68.2372 80.9007 68.2233 80.7559 68.0283 Z"/>
        <path fill="#45423d" stroke="none" d="M 142.744 105.688 C 141.503 105.679 140.261 105.652 139.02 105.671 C 138.624 105.676 138.536 105.433 138.449 105.133995 C 138.113 105.02599 138.123 104.702 138.071 104.43199 C 137.67 102.353 137.292 100.268 136.855 98.1969 C 135.781 93.1043 134.574 88.04811 133.106 83.0636 C 132.853 82.2048 132.581 81.3526 132.334 80.4915 C 132.259 80.2299 132.115 79.9441 132.358 79.6816 C 132.448 79.5736 132.568 79.5736 132.686 79.5955 C 134.068 79.8659 135.447 80.1359 136.805 80.5259 C 137.696 83.1678 138.445 85.8558 139.137 88.56199 C 140.077 92.24 140.883 95.952 141.635 99.677 C 141.915 101.068 142.741 105.654 142.744 105.688 Z"/>
        <path fill="#45423d" stroke="none" d="M 80.7587 68.0288 C 82.3915 67.7351 84.0397 67.5643 85.6869 67.4088 C 86.8748 67.2967 88.06861 67.2245 89.25931 67.1389 C 92.5682 66.8968 95.8799 66.9015 99.1902 66.9606 C 101.595 67.0034 103.998 67.1375 106.39901 67.3386 C 107.998 67.4726 109.594 67.6267 111.187 67.8184 C 112.525 67.9804 113.853 68.2141 115.191 68.3979 C 115.624 68.4566 115.95 68.68 116.259 68.9779 C 117.325 70.0038 118.077 71.2591 118.668 72.6289 C 119.372 74.2566 119.855 75.9588 120.175 77.7135 C 120.101 77.9598 119.91 77.963 119.718 77.9509 C 118.867 77.8969 118.015 77.8336 117.167 77.7503 C 116.41999 77.6777 115.67 77.6423 114.923 77.5981 C 113.732994 77.5288 112.542 77.3928 111.346 77.4627 C 110.884 77.4901 110.43 77.3677 109.969 77.3598 C 109.34599 77.3505 109.152 77.4924 108.936 78.1008 C 107.661 81.6908 106.612 85.3549 105.69 89.0609 C 104.265 94.7859 103.178 100.58599 102.264 106.422 C 102.019 107.983 101.819 109.549995 101.60099 111.11399 C 101.556 111.432 101.524 111.759 101.33101 112.032 C 101.181 112.19101 100.98999 112.202 100.806 112.152 C 99.9494 111.918 99.0981 111.658 98.243004 111.418 C 98.176 111.40201 98.1141 111.37 98.062 111.323006 C 98.0098 111.275 97.96981 111.216 97.9447 111.149 C 97.8069 110.758 97.8935 110.36099 97.94879 109.977 C 98.8202 103.663 99.887 97.3888 101.29 91.1815 C 102.283 86.7913 103.41401 82.4458 104.862 78.1958 C 105.082 77.5534 104.959 77.3663 104.318 77.3589 C 101.778 77.3291 99.24279 77.4222 96.70421 77.5502 C 95.428406 77.6149 94.1535 77.6698 92.881 77.7824 C 92.7963 77.7824 92.7106 77.7857 92.625 77.7862 C 91.29661 77.7955 91.26591 77.8262 90.8469 79.1281 C 88.40941 86.6991 86.70529 94.4601 85.389 102.324 C 84.9953 104.676 84.6499 107.036 84.2994 109.395 C 84.2677 109.611 84.2449 109.824 84.116 110.005005 C 83.9931 110.214 83.7897 110.242 83.5858 110.275 C 82.5269 110.437 81.4615 110.55 80.4073 110.747 C 80.1699 110.792 79.8785 110.845 79.8306 110.442 C 80.0074 109.199005 80.1843 107.956 80.3616 106.713 C 80.8211 103.479 81.3414 100.256 81.9223 97.0448 C 82.6843 92.8376 83.5556 88.6634 84.6322 84.5394 C 85.1447 82.5831 85.6743 80.631 86.319 78.7171 C 86.54429 78.0463 86.5434 78.0463 86.056 77.5832 C 84.8798 76.4615 83.7078 75.3351 82.5256 74.2203 C 82.3082 74.0197 82.1564 73.7521 82.0903 73.4556 C 81.6901 71.8209 81.2702 70.1913 80.8569 68.5599 C 80.7857 68.3933 80.7512 68.2118 80.7587 68.0288 Z"/>
        <path fill="#a9a9a9" stroke="none" d="M 80.7596 68.0254 C 80.8215 68.1967 80.8923 68.3656 80.8565 68.5569 C 80.7545 68.3954 80.6256 68.2367 80.7596 68.0254 Z"/>
        <path fill="#b9e1e1" stroke="none" d="M 107.898 114.96901 C 105.934 113.857 103.874 112.981 101.768 112.223 C 101.576 112.15299 101.375 112.102 101.228004 111.937 C 101.445 110.35399 101.645 108.768 101.881 107.187996 C 102.42801 103.52999 103.067 99.891 103.79699 96.2703 C 104.91001 90.7816 106.24 85.3563 107.99 80.0515 C 108.27 79.2025 108.56 78.3572 108.852 77.5129 C 108.999 77.0856 109.005 77.0842 109.439 77.0973 C 111.86199 77.1694 114.284004 77.2671 116.704 77.4268 C 117.861 77.5031 119.01501 77.6153 120.171 77.7117 C 122.08199 77.9053 123.985 78.1529 125.885 78.4364 C 126.692 78.5574 127.5 78.6686 128.302 78.826 C 128.763 79.0201 129.049 79.3915 129.327 79.8178 C 130.386 81.4418 131.228 83.1956 131.93 85.003 C 132.664 86.893196 133.335 88.82109 133.788 90.8189 C 133.967 91.60551 134.221 92.3716 134.404 93.1554 C 135.004 95.7345 135.669 98.2964 136.154 100.905 C 136.402 102.243004 136.667 103.58001 136.993 104.902 C 137.081 105.254 137.225 105.65101 136.795 105.905 C 136.749 105.95901 136.712 106.026 136.655 106.05799 C 135.894 106.482 135.381 107.172 134.881 107.87601 C 134.046 109.051 133.22 110.232 132.39 111.411 C 132.157 111.519 131.963 111.429 131.773 111.285 C 130.774 110.531 129.765 109.79 128.747 109.063 C 128.23 108.691 128.191 108.506 128.538 107.95799 C 129.03 107.18101 129.559 106.43 130.067 105.66301 C 130.263 105.36799 130.472 105.082 130.632 104.763 C 130.919 104.185 130.814 103.60901 130.372 103.264 C 129.93 102.91899 129.379 102.98899 128.956 103.489006 C 128.421 104.122 127.99899 104.846 127.543 105.542 C 126.093 107.743 124.64101 109.94201 123.185 112.14 C 123.048 112.346 122.909 112.553 122.817 112.788 C 122.603 113.323 122.751 113.874 123.183 114.17 C 123.628 114.477 124.142 114.41601 124.52 113.961 C 125.04799 113.324 125.467 112.597 125.927 111.908 C 126.218994 111.466 126.51201 111.023 126.814 110.588 C 127.025 110.285995 127.257996 110.24099 127.561005 110.446 C 128.667 111.196 129.724 112.02 130.802 112.81 C 130.983 112.942 131.161 113.099 131.155 113.37 C 130.817 113.949 130.48 114.53 130.14 115.107 C 129.97 115.39701 129.787 115.67899 129.619 115.972 C 128.917 117.179 128.895 118.429 129.5 119.669 C 131.129 123.008 132.822 126.312 134.732 129.485 C 134.97 129.881 135.225 130.262 135.464 130.654 C 136.137 131.759 137.143 132.203 138.327 132.241 C 139.468 132.276 140.606 132.144 141.743 132.04 C 141.716 137.039 140.359 141.613 137.816 145.822 C 137.46 146.41 137.075 146.662 136.38 146.641 C 134.54 146.583 132.697 146.631 130.856 146.636 C 130.484 146.581 130.497 146.235 130.445 145.974 C 130.227 144.902 129.94 143.85 129.636 142.802 C 128.471 138.757 126.783 134.901 124.617004 131.343 C 123.918 130.192 123.136 129.106 122.40401 127.981995 C 121.723 127.045 120.988 126.15399 120.23 125.289 C 118.879 123.747 117.477 122.258 115.943 120.914 C 113.725 118.98 111.348 117.257 108.842 115.764 C 108.495 115.54401 108.077995 115.407005 107.898 114.96901 Z"/>
        <path fill="#dcf9fb" stroke="none" d="M 136.688 106.032 C 136.83 105.707 136.817 105.26 136.744 104.955 C 136.096 102.295 131.523 83.7507 128.938 79.6696 C 128.625 79.1749 128.551 79.0441 128.304 78.8271 C 129.519 78.9268 130.709 79.1967 131.913 79.3736 C 132.006 79.3852 132.094 79.4187 132.172 79.4732 C 132.249 79.5267 132.312 79.5993 132.358 79.6845 C 133.974 84.8515 135.359 90.086 136.515 95.3876 C 137.223 98.61829 137.951 102.09 138.528 105.35 L 138.537 105.371 C 138.654 105.598 138.683 105.535 138.007 105.62499 C 137.588 105.682 137.023 105.878 136.688 106.032 Z"/>
        <path fill="#b9e1e1" stroke="none" d="M 98.061 111.083 C 97.0095 110.867 95.959 110.631 94.9052 110.441 C 93.64751 110.217 92.3796 110.062 91.1066 109.977 C 89.902 109.894 88.70771 109.869 87.500694 109.866 C 86.8226 109.866 86.13559 109.936 85.4532 109.883 C 85.1739 109.657 85.2242 109.35099 85.2647 109.044 C 85.8433 104.646 86.5163 100.268 87.3937 95.9199 C 88.009 92.8572 88.70161 89.8169 89.5539 86.8203 C 90.3679 83.9577 91.3165 81.1455 92.7864 78.5678 C 93.0075 78.1801 93.042404 77.8594 92.8083 77.4958 C 92.9703 77.427 93.142494 77.4279 93.3124 77.4195 C 97.1808 77.2347 101.049 77.0346 104.92299 77.0718 C 105.09 77.0718 105.263 77.0304 105.426 77.1179 C 105.491 77.3115 105.383 77.4698 105.327 77.6313 C 103.618 82.546 102.328 87.5925 101.216 92.6906 C 100.272995 97.0156 99.4908 101.373 98.815895 105.753 C 98.5441 107.527 98.3133 109.307 98.061 111.083 Z"/>
        <path fill="#dcf9fb" stroke="none" d="M 93.1453 77.4303 C 93.8379 77.3451 93.77221 77.3851 93.35709 78.1327 C 92.23581 80.1504 91.29139 82.2249 90.5704 84.414 C 90.15191 85.6823 89.74649 86.9628 89.4333 88.2716 C 89.0912 89.6997 88.6876 91.1109 88.3706 92.54641 C 88.04901 93.99911 87.7777 95.4629 87.4807 96.9212 C 87.17579 98.4144 86.865395 99.9061 86.6336 101.414 C 86.2747 103.754 85.9284 106.09601 85.5942 108.438995 C 85.5263 108.916 85.4401 109.395996 85.4541 109.885 C 85.2814 109.96601 84.0982 110.095 84.0079 109.885 C 84.0857 108.736 84.2905 107.605 84.459 106.47 C 84.876 103.666 85.3452 100.871 85.8656 98.0848 C 87.0799 91.6471 88.5764 85.2848 90.58201 79.0673 C 90.7086 78.6763 90.8585 78.2928 90.9707 77.8976 C 91.0363 77.6658 91.1671 77.5802 91.3766 77.5736 C 91.8569 77.548 93.0601 77.4266 93.1453 77.4303 Z"/>
        <path fill="#414141" stroke="none" d="M 157.102 156.622 C 155.908 156.525 154.579 155.536 153.629 158.09 C 152.685 160.622 154.073 161.597 153.864 161.512 C 153.761 161.498 153.657 161.495 153.553 161.503 C 152.772 161.512 151.964 161.376 151.184 161.375 C 150.908 161.241 150.973 161.003 151.019 160.772 C 151.411 158.782 152.013 156.844 152.813 154.994 C 153.871 152.567 155.166 150.295 156.789 148.232 C 159.046 145.366 161.688 142.993 164.762 141.149 C 167.96 139.229 171.394 138.042 175.032 137.525 C 176.78899 137.275 178.56198 137.183 180.33899 137.313 C 181.012 137.363 181.539 137.074 181.901 136.488 C 182.049 136.25 182.21202 136.069 182.465 135.974 C 182.758 135.971 183.024 136.101 183.30298 136.167 C 183.918 136.313 183.982 136.289 184.252 135.702 C 184.687 134.756 185.14 133.817 185.70299 132.942 C 185.841 132.849 185.95601 132.721 186.03902 132.572 C 186.769 131.395 187.70201 130.422 188.799 129.623 C 188.83 129.608 188.865 129.601 188.898 129.606 C 189.295 129.606 189.399 129.925 189.494 130.237 C 189.91402 131.606 190.38599 132.952 190.97 134.257 C 191.938 136.416 193.13202 138.415 194.66501 140.178 C 194.893 140.442 195.18199 140.676 195.048 141.105 C 194.25 142.581 193.451 144.057 192.653 145.533 C 192.535 145.75 192.40602 145.96 192.28198 146.174 C 192.06001 146.545 191.809 146.897 191.53299 147.226 C 191.46101 147.171 191.38498 147.123 191.305 147.081 C 191.25899 147.059 191.172 146.977 191.127 146.951 C 190.291 146.472 190.40999 146.441 190.82698 145.547 C 191.087 144.984 191.224 144.413 191.058 143.777 C 190.993 143.515 190.877 143.269 190.71799 143.057 C 190.558 142.844 190.359 142.669 190.132 142.542 C 189.597 142.236 189.042 141.947 188.43098 141.813 C 187.574 141.625 186.67902 142.044 186.266 142.86 C 186.13 143.13 186.034 143.42 185.908 143.694 C 185.726 144.096 185.62099 144.152 185.225 144.034 C 184.174 143.718 183.11201 143.459 182.02301 143.332 C 181.92102 143.319 181.824 143.277 181.72202 143.268 C 181.432 143.232 181.309 143.052 181.312 142.756 C 181.312 142.469 181.29399 142.18 181.312 141.892 C 181.37898 140.803 180.721 140.068 179.766 139.87 C 179.078 139.726 178.36699 139.736 177.683 139.898 C 176.807 140.105 176.28899 140.668 176.167 141.626 C 176.117 141.981 176.088 142.339 176.08 142.697 C 176.075 143.165 176.045 143.204 175.597 143.297 C 175.04402 143.411 174.488 143.497 173.93399 143.607 C 173.365 143.723 172.80101 143.866 172.24301 144.037 C 171.88 144.148 171.796 144.103 171.644 143.747 C 171.505 143.419 171.374 143.087 171.195 142.78 C 170.722 141.969 169.866 141.596 168.99 141.833 C 168.361 142.007 167.762 142.284 167.218 142.658 C 166.423 143.199 166.133 144.219 166.47 145.18 C 166.57 145.465 166.716 145.732 166.834 146.012 C 166.981 146.364 166.968 146.448 166.676 146.637 C 165.64 147.305 164.682 148.084 163.729 148.872 C 163.451 149.103 163.374 149.105 163.114 148.852 C 162.882 148.613 162.635 148.39 162.378 148.184 C 161.645 147.626 160.644 147.62 159.955 148.232 C 159.476 148.659 159.022 149.124 158.679 149.695 C 158.161 150.56 158.281 151.586 158.987 152.288 C 159.272 152.572 159.302 152.594 159.766 152.928 C 159.053 153.679 157.659 155.71 157.251 156.508"/>
        <path fill="#45423d" stroke="none" d="M 147.559 161.274 C 144.691 161.27 141.823 161.267 138.954 161.264 C 134.395 161.264 129.838 161.264 125.278 161.264 C 124.226 161.264 124.209 161.229 124.355 160.143 C 124.457 159.35 124.476 158.561 124.05401 157.84 C 123.6 157.063 122.95701 156.565 122.094 156.425 C 121.673004 156.354 121.248 156.308 120.823 156.29 C 120.31 156.274 120.216 156.14 120.197 155.595 C 120.135994 153.834 120 152.084 119.67899 150.349 C 119.55101 149.663 119.586 149.605 120.239 149.416 C 120.768 149.262 121.282 149.071 121.753 148.772 C 122.925995 148.03 123.269 146.76 122.98899 145.456 C 122.86 144.861 122.665 144.281 122.476 143.703 C 121.984 142.205 120.68199 141.426 119.204994 141.717 C 118.699 141.817 118.214 141.987 117.72599 142.15 C 117.326 142.285 117.275 142.271 117.09 141.86 C 116.314 140.138 115.399 138.488 114.355 136.93 C 114.158 136.64 114.168 136.548 114.467 136.312 C 114.878006 135.984 115.20999 135.569 115.590004 135.209 C 116.505 134.345 116.489 132.526 115.940994 131.658 C 115.42601 130.84 114.771996 130.145 114.061 129.535 C 113.166 128.764 111.598 128.736 110.603 129.678 C 110.261 130.003 109.872 130.273 109.569 130.642 C 109.388 130.865 109.22 130.869 109.005 130.678 C 108.498 130.225 107.986 129.777 107.46001 129.349 C 106.636 128.677 105.768 128.074 104.88899 127.48399 C 104.126 126.973 104.16201 127.087 104.549 126.242 C 104.71099 125.905 104.85299 125.558 104.975 125.202 C 105.41799 123.819 105.016 122.304 103.602005 121.548004 C 102.992 121.224 102.379 120.88899 101.72099 120.701 C 100.799 120.436 99.8981 120.485 99.0868 121.119 C 98.75769 121.38 98.4938 121.722 98.31791 122.114 C 98.0996 122.581 97.90779 123.062996 97.6988 123.535 C 97.54061 123.891 97.5057 123.913 97.1482 123.794 C 95.77739 123.341 94.37591 123.031 92.9582 122.79399 C 92.6216 122.74 92.2837 122.68599 91.946304 122.634995 C 91.4575 122.56 91.4198 122.51999 91.411 121.98 C 91.4045 121.53 91.4059 121.08101 91.411 120.63 C 91.4226 119.38099 90.7961 118.578 89.781906 118.056 C 89.4905 117.90101 89.1712 117.812 88.84539 117.795 C 88.0793 117.768 87.3117 117.715996 86.547 117.849 C 85.0887 118.106 84.183 119.179 84.1378 120.73201 C 84.1262 121.128 84.1378 121.523 84.1331 121.92 C 84.1257 122.52699 84.1024 122.545 83.5481 122.638 C 81.845 122.922 80.147 123.233 78.4923 123.76 C 78.0976 123.885 78.0506 123.858 77.87 123.448006 C 77.6982 123.05599 77.5307 122.662 77.3575 122.271 C 76.6756 120.715 75.0945 120.212 73.6376 120.772 C 73.0916 120.979996 72.5592 121.225 72.0425 121.503 C 71.1954 121.965 70.6364 122.67801 70.4534 123.69301 C 70.3594 124.227 70.4069 124.776 70.5907 125.283 C 70.7499 125.74 70.9608 126.17099 71.1595 126.609 C 71.328 126.98101 71.3089 127.066 70.9868 127.27201 C 69.6268 128.141 68.3561 129.141 67.1161 130.188 C 66.9569 130.323 66.8085 130.475 66.6549 130.613 C 66.3896 130.847 66.3081 130.847 66.0395 130.603 C 65.7426 130.333 65.4368 130.072 65.1589 129.781 C 64.1116 128.684 62.150703 128.69 61.1341 129.856 C 60.8344 130.2 60.5486 130.558 60.240894 130.894 C 59.869 131.298 59.8443 131.284 59.462704 130.913 C 59.1387 130.599 58.3749 129.891 58.3204 129.849 C 57.811695 129.25 57.832603 129.246 58.3479 128.634 C 62.7283 123.425 68.2812 119.46001 74.4964 117.102 C 77.6289 115.914 80.8531 115.14001 84.1657 114.839 C 86.18911 114.662 88.2222 114.642 90.24829 114.778 C 92.9921 114.95201 95.71179 115.42601 98.3621 116.194 C 100.537 116.821 102.65199 117.657 104.681 118.692 C 106.06701 119.38099 107.411 120.159 108.707 121.022 C 110.522 122.23301 112.239 123.59701 113.843 125.103004 C 115.378 126.554 116.818 128.113 118.156 129.767 C 118.33699 130.005 118.506 130.252 118.663994 130.508 C 119.915 131.996 120.919 133.668 121.857994 135.378 C 123.743 138.804 125.154 142.496 126.04599 146.341 C 126.359 147.687 126.56501 149.053 126.796 150.415 C 126.997 151.602 127.824 152.009 128.84 151.433 C 130.113 150.713 130.921 148.998 130.736 147.48 C 130.695 147.151 130.48 146.778 130.815 146.469 C 131.082 146.311 131.374 146.324 131.665 146.323 C 133.202 146.319 134.737 146.302 136.273 146.331 C 136.907 146.343 137.332 146.093 137.672 145.539 C 138.941 143.466 139.909 141.204 140.542 138.828 C 141.041 136.973 141.4 135.091 141.521 133.163 C 141.537 132.965 141.533 132.766 141.513 132.569 C 141.486 132.334 141.541 132.142 141.747 132.018 C 142.08 132.012 142.81 131.968 142.842 131.965 C 144.118 131.885 144.118 131.887 144.12 133.237 C 144.12 134.263 144.114 135.289 144.123 136.312 C 144.131 137.25 144.369 137.539 145.239 137.77 C 147.322 138.329 149.431 138.51 151.58 138.392 C 152.574 138.337 153.544 138.15 154.53 138.067 C 154.733 138.043 154.933 137.989 155.121 137.906 C 155.72 137.664 155.896 137.42 155.905 136.735 C 155.92 135.459 155.901 134.181 155.916 132.904 C 155.919 132.626 155.865 132.321 156.1 132.095 C 156.487 131.781 156.857 132.021 157.202 132.173 C 158.057 132.551 158.699 133.223 159.29 133.95 C 160.384 135.294 161.195 136.831 161.965 138.394 C 162.032 138.519 162.06 138.665 162.046 138.808 C 162.02 139.158 161.779 139.333 161.534 139.5 C 159.519 140.871 157.711 142.499 156.048 144.316 C 154.141 146.398 152.559 148.726 151.219 151.242 C 149.663 154.163 148.605 157.278 147.98 160.561 C 147.926 160.837 147.979 161.227 147.559 161.274 Z"/>
        <path fill="#a19d98" stroke="none" d="M 147.556 161.274 C 147.685 160.661 147.81 160.046 147.946 159.438 C 149.06 154.434 151.201 149.969 154.293 146.002 C 156.346 143.352 158.78 141.057 161.509 139.201 C 161.665 139.093 161.838 139.007 161.936 138.823 C 162.058 138.607 171.362 132.299 181.768 134.326 C 182.38599 134.8 182.46 135.711 182.123 136.537 C 181.79399 137.343 181.18102 137.596 180.2 137.572 C 179.294 137.548 178.39 137.497 177.489 137.549 C 175.972 137.63 174.465 137.831 172.977 138.153 C 168.903 139.053 165.193 140.796 161.865 143.428 C 157.975 146.502 155.04 150.39 153.026 155.048 C 152.208 156.949 151.593 158.941 151.19 160.985 C 151.165 161.107 150.832 163.083 150.729 163.956 C 150.636 164.765 150.267 165.331 149.525 165.598 C 148.434 165.99 147.269 165.152 147.246 163.938 C 147.233 163.327 147.359 162.727 147.446 162.124 C 147.481 161.884 147.518 161.313 147.556 161.274 Z"/>
        <path fill="#fcbe4f" stroke="none" d="M 138.679 157.067 C 136.819 157.067 134.959 157.072 133.099 157.063 C 132.228 157.059 131.597 156.611 131.237 155.789 C 130.877 154.967 130.988 154.169 131.51 153.455 C 131.925 152.891 132.518 152.674 133.175 152.652 C 133.619 152.638 134.063 152.647 134.509 152.647 C 137.649 152.649 140.789 152.651 143.929 152.653 C 144.524 152.653 145.078 152.761 145.55 153.187 C 146.202 153.776 146.466 154.73 146.195 155.58 C 146.063 156.011 145.805 156.387 145.458 156.655 C 145.11 156.922 144.692 157.068 144.262 157.07 C 142.402 157.08 140.54 157.067 138.679 157.067 Z"/>
        <path fill="#edae50" stroke="none" d="M 79.8301 110.437 C 79.9465 110.535 80.0796 110.537 80.2164 110.508 C 81.3805 110.269 82.5572 110.131 83.7353 110.002 C 83.8381 109.99 83.7865 109.992 84.0774 109.963 C 88.2143 109.63901 93.7291 109.877 98.0657 111.084 C 99.0217 111.363 99.9848 111.57 100.942 111.84701 C 101.04001 111.853 105.725 113.657 107.545 114.688 C 107.70799 114.81099 107.786995 114.876 107.904 114.97 C 107.978 115.854 107.71701 116.518 107.22699 117.121994 C 106.545 117.962 105.643 118.56501 104.634 118.947 C 103.336 118.353 102.045 117.744 100.705 117.257 C 98.3333 116.394 95.8902 115.769 93.40741 115.38799 C 91.24451 115.062996 89.0601 114.924 86.8752 114.97199 C 84.298 115.017 81.732 115.341995 79.2176 115.940994 C 71.4138 117.78801 64.3375 122.118004 58.9489 128.345 C 58.7767 128.545 58.6007 128.741 58.428 128.939 C 58.0692 129.354 57.9123 129.623 57.647896 129.952 C 57.208603 130.502 56.7808 131.062 56.352997 131.621 C 55.3533 132.925 53.596203 132.995 52.5019 131.628 C 51.760902 130.701 51.8865 129.305 52.4898 128.426 C 53.147 127.485 53.8498 126.579 54.595 125.713 C 55.357 124.815 56.098896 123.898 56.9339 123.07299 C 58.104595 121.919 59.2701 120.755 60.5426 119.724 C 64.8895 116.20801 69.6534 113.52601 74.9042 111.832 C 76.2917 111.382996 77.7007 111.013 79.1259 110.722 C 79.3768 110.672 79.6407 110.653 79.8301 110.437 Z"/>
        <path fill="#edae50" stroke="none" d="M 122.548 127.824 C 123.82 129.41 124.854996 131.166 125.854 132.945 C 127.03 135.037 128.007 137.232 128.835 139.502 C 129.595 141.585 130.251 143.702 130.688 145.889 C 130.74 146.135 130.802 146.375 130.859 146.622 C 130.973 147.293 131.104 147.958 130.964 148.649 C 130.68 150.068 130.008 151.178 128.727 151.796 C 127.654 152.314 126.723 151.773 126.547 150.541 C 126.086 147.301 125.332 144.137 124.184006 141.085 C 122.824 137.474 121.044 134.117 118.779 131.045 C 118.675 130.904 118.58 130.755 118.48 130.61 C 118.726 129.752 119.233 129.059 119.72201 128.347 C 119.99601 127.94599 120.41999 128.012 120.775 127.894 C 121.347 127.70501 121.94701 127.55 122.548 127.824 Z"/>
        <path fill="#fcd38c" stroke="none" d="M 122.255005 127.752 C 119.45 127.51299 118.569 130.427 118.47899 130.61 C 117.268 129.056 115.99 127.567 114.59899 126.187 C 111.772 123.372 108.565 121.016 105.08101 119.194 C 104.928 119.115 104.779 119.032005 104.629005 118.947 C 104.759 118.785 105.91301 118.547 106.875 117.16501 C 107.689 115.99601 107.881004 115.203 107.897 114.97 C 108.816 115.333 109.617 115.923996 110.450005 116.448 C 111.89 117.347 113.273 118.34101 114.593 119.425 C 115.785 120.41201 116.943 121.44 118.044 122.545 C 118.799 123.30101 119.507 124.102 120.221 124.895 C 121.051 125.818 121.889 126.745 122.545 127.82599"/>
        <path fill="#edae50" stroke="none" d="M 195.00401 141.094 C 194.70198 140.564 194.24399 140.176 193.876 139.702 C 191.894 137.155 190.474 134.289 189.473 131.18 C 189.358 130.822 189.254 130.462 189.138 130.104 C 189.09 129.952 189.05399 129.779 188.84901 129.785 C 186.323 127.50599 183.274 126.235 180.288 124.844 C 175.777 122.744 171.066 121.301 166.301 120.029 C 162.564 119.031 158.778 118.29101 154.98 117.607 C 154.635 117.545 154.265 117.515 154.026 117.174995 C 153.963 116.929 153.963 116.676994 153.963 116.426 C 153.958 113.45 153.959 110.47399 153.968 107.498 C 153.968 107.174 153.874 106.800995 154.206 106.562 C 154.954 106.756 155.727 106.756 156.488 106.867 C 157.922 107.076 159.366 107.232 160.8 107.461 C 162.656 107.754 164.518 108.014 166.359 108.40299 C 167.63 108.673 168.908 108.9 170.177 109.18499 C 171.664 109.519005 173.151 109.857994 174.618 110.252 C 177.06601 110.90699 179.513 111.572 181.898 112.45599 C 182.848 112.80701 183.789 113.187004 184.751 113.499 C 185.72998 113.81701 186.498 114.451 187.229 115.165 C 188.819 116.717 190.404 118.27401 191.938 119.88801 C 192.963 120.967995 193.993 122.04099 194.97002 123.171 C 195.39401 123.66 195.863 124.108 196.304 124.584 C 197.06502 125.408 197.774 126.283 198.555 127.08999 C 199.181 127.738 199.551 128.555 199.59799 129.488 C 199.663 130.801 199.622 132.104 199.306 133.395 C 198.723 135.771 197.65001 137.867 196.193 139.762 C 195.827 140.234 195.45 140.698 195.00401 141.094 Z"/>
        <path fill="#45423e" stroke="none" d="M 131.157 113.359 L 127.627 110.779 C 127.569 110.742 127.51299 110.700005 127.461 110.65401 C 127.24801 110.438 127.119 110.537 126.985 110.762 C 126.785 111.096 126.56 111.41401 126.343994 111.737 C 125.83401 112.501 125.33399 113.274 124.81 114.027 C 124.41999 114.586 123.926 114.758 123.38 114.578 C 122.564 114.30799 122.196 113.382 122.601 112.58 C 122.727 112.327 122.895004 112.097 123.052 111.861 C 124.847 109.15 126.644 106.439995 128.441 103.729 C 128.553 103.55 128.678 103.378 128.813 103.216 C 129.282 102.685 129.993 102.602 130.531 103 C 130.791 103.19299 130.976 103.481 131.05 103.808 C 131.123 104.135 131.078 104.48 130.924 104.774 C 130.765 105.09 130.56 105.382 130.365 105.676 C 129.808 106.51499 129.245 107.35 128.685 108.18699 C 128.461 108.521 128.456 108.52799 128.776 108.762 C 129.978 109.64601 131.184 110.52699 132.39 111.406 L 131.157 113.359 Z"/>
        <path fill="#edae50" stroke="none" d="M 145.709 105.894 C 145.874 106.01699 145.863 106.203 145.863 106.380005 C 145.867 109.534 145.867 112.68699 145.863 115.84 C 145.867 115.948 145.85 116.055 145.811 116.15501 C 145.6 116.425 145.298 116.414 145.013 116.41499 C 143.957 116.421 142.902 116.361 141.847 116.34 C 138.9 116.272995 135.952 116.313 133 116.319 C 132.796 116.319 132.59 116.331 132.4 116.426994 C 132.288 116.481 132.185 116.559 132.202 116.708 C 132.217 116.856 132.336 116.902 132.455 116.935 C 132.537 116.957 132.622 116.967995 132.708 116.965 C 134.155 116.933 135.601 116.996 137.051 116.9 C 138.443 116.808 139.842 116.83599 141.24 116.924 C 142.445 117.001 143.656 117.032 144.864 117.079 C 145.172 117.09 145.479 117.068 145.753 117.261 C 145.889 117.98301 146.104 118.698 145.957 119.45 C 145.954 119.519 145.936 119.586 145.903 119.646 C 145.678 119.92899 145.327 119.935 145.034 120.063 C 144.48 120.306 144.204 120.703 144.221 121.34801 C 144.301 124.293 144.081 127.235 144.119 130.179 C 144.123 130.52 144.13 130.861 144.166 131.201 C 144.243 131.937 144.051 132.179 143.346 132.254 C 143.159 132.274 142.971 132.279 142.782 132.285 C 142.454 132.289 142.127 132.291 141.8 132.264 C 140.841 132.422 139.871 132.433 138.905 132.503 C 137.114 132.629 135.8 131.862 134.866 130.234 C 133.571 127.976 132.264 125.72599 131.08 123.399994 C 130.548 122.355995 130.055 121.29299 129.494 120.264 C 128.594 118.61 128.586 116.994 129.636 115.411 C 130.095 114.721 130.43 113.94499 130.978 113.32 C 131.281 112.567 131.773 111.940994 132.215 111.27999 C 133.229 109.703995 134.3 108.172005 135.453 106.704 C 135.805 106.25701 136.294 105.981 136.745 105.66 C 137.344 105.489 139.515 105.444 140.065 105.424 C 140.69 105.403 141.317 105.416 141.942 105.424 C 142.24 105.427 145.134 105.592 145.709 105.894 Z"/>
        <path fill="#edae50" stroke="none" d="M 182.488 136.216 C 182.29402 136.103 182.174 135.946 182.18698 135.698 C 182.226 134.941 181.762 134.569 181.194 134.291 C 180.43799 134 174.673 133.429 168.942 135.527 C 166.926 136.214 164.982 137.072 163.154 138.207 C 162.817 138.417 162.444 138.559 162.129 138.81 C 162.084 138.845 162 138.822 161.934 138.826 C 161.484 138.149 161.187 137.383 160.782 136.679 C 160.155 135.591 159.491 134.534 158.643 133.616 C 157.978 132.895 157.223 132.342 156.269 132.14 C 156.007 132.162 155.967 131.959 155.936 131.763 C 155.907 131.531 155.897 131.296 155.906 131.063 C 155.906 129.43 155.878 127.795 155.912 126.162 C 155.944 124.616 155.776 123.079 155.797 121.534 C 155.805 120.947 155.54 120.548 155.028 120.32 C 154.823 120.229 154.625 120.12399 154.434 120.007 C 154.287 119.916 154.129 119.823 154.193 119.59201 L 154.213 118.424 C 154.382 118.176 154.613 118.211 154.86 118.25001 C 157.696 118.699 160.513 119.255 163.311 119.916 C 166.675 120.717995 170.019 121.597 173.293 122.744 C 175.918 123.661995 178.516 124.659996 181.03102 125.881996 C 182.223 126.461 183.44 126.994 184.52899 127.779 C 184.94002 128.074 185.269 128.467 185.581 128.876 C 186.324 129.848 186.135 130.977 186.06601 132.083 C 186.04498 132.428 185.889 132.75 185.862 133.098 C 185.219 134.126 184.671 135.216 184.22502 136.354 C 184.133 136.59 184.011 136.679 183.754 136.587 C 183.342 136.44 182.912 136.338 182.488 136.216 Z"/>
        <path fill="#fcd38c" stroke="none" d="M 185.869 133.099 C 185.726 132.81 185.749 132.497 185.80199 132.201 C 185.914 131.575 185.875 130.948 185.875 130.32 C 185.875 129.705 185.551 129.227 185.198 128.789 C 184.754 128.241 184.209 127.793 183.597 127.47201 C 180.735 125.939 177.77098 124.663 174.738 123.555 C 172.546 122.754 170.335 122.023 168.088 121.417 C 165.248 120.651 162.397 119.944 159.512 119.36399 C 157.854 119.032005 156.184 118.78199 154.525 118.458 C 154.425 118.438 154.321 118.434 154.22 118.423 C 154.22 118.027 154.22 117.632 154.22 117.238 C 155.239 117.34 156.242 117.553 157.248 117.744 C 158.556 117.992 159.862 118.255005 161.166 118.534004 C 162.533 118.829 163.903 119.116005 165.256 119.494 C 166.292 119.784 167.341 120.03001 168.381 120.315 C 170.923 121.013 173.435 121.815 175.91599 122.72 C 177.932 123.456 179.881 124.368 181.841 125.249 C 183.705 126.09101 185.514 127.066 187.253 128.166 C 187.76399 128.487 188.23302 128.882 188.714 129.252 C 188.885 129.383 189.039 129.541 188.854 129.785 C 188.204 130.392 187.533 130.974 186.956 131.666 C 186.572 132.127 186.233 132.621 185.869 133.099 Z"/>
        <path fill="#fcd38c" stroke="none" d="M 145.707 116.159 L 145.71 117.344 C 142.297 117.04799 135.934 117.04799 132.722 117.239 C 132.478 117.227 132.235 117.2 131.993 117.16001 C 131.814 117.117 131.538 116.87401 131.542 116.721 C 131.551 116.44101 131.704 116.306 131.902 116.20301 C 132.149 116.072 132.479 116.048 132.758 116.048 C 135.831 116.048 138.905 115.99899 141.976 116.077 C 143.218 116.108 144.464 116.128 145.707 116.159 Z"/>
        <path fill="#fefefe" stroke="none" d="M 198.382 130.525 C 198.399 131.686 198.178 132.756 197.86198 133.806 C 197.30399 135.664 196.39699 137.322 195.23999 138.835 C 195.006 139.143 194.99402 139.144 194.75 138.84 C 193.625 137.448 192.726 135.905 191.955 134.273 C 191.377 133.047 190.902 131.776 190.477 130.485 C 190.347 130.084 190.36201 130.013 190.743 129.807 C 192.073 129.088 193.46701 128.577 194.954 128.353 C 195.632 128.251 196.31499 128.253 196.993 128.165 C 197.061 128.159 197.129 128.157 197.19798 128.16 C 197.842 128.174 197.943 128.26 198.185 128.878 C 198.4 129.429 198.39598 130.001 198.382 130.525 Z"/>
        <path fill="#414141" stroke="none" d="M 154.146 106.82701 C 154.146 110.26 154.184 117.79099 154.264 119.903 C 154.074 120.15799 153.826 120.065 153.604 119.998 C 151.2 119.259 148.781 119.368 146.354 119.836 C 146.149 119.875 145.95 119.92899 145.777 119.752 L 145.764 119.769 C 145.652 119.607 145.764 102.83 145.75 101.756 C 145.743 101.295 145.817 100.876 146.034 100.471 C 146.302 99.9733 146.535 99.4557 146.784 98.945595 C 146.818 98.9088 146.864 98.8855 146.914 98.8809 C 149.712 100.14 152.023 101.60099 154.13 103.87101 C 154.099 104.691 154.13 105.789 154.146 106.82701 Z"/>
        <path fill="#a19d98" stroke="none" d="M 146.924 98.68531 L 146.883 98.68531 L 146.842 98.6769 C 147.044 98.1687 147.055 97.6362 147.053 97.0953 C 147.047 95.47931 147.072 93.86269 147.058 92.2471 C 147.052 91.657906 147.22 91.1808 147.57 90.72 C 149.292 88.4462 151.165 86.3028 153.171 84.3046 C 154.447 83.0344 155.801 81.8545 157.288 80.8584 C 157.571 80.9296 157.45 81.1237 157.386 81.2726 C 156.474 83.3919 156.603 85.6144 156.89 87.8202 C 157.015 88.7925 157.271 89.794205 158.039 90.50821 C 158.093 90.5534 158.13 90.618 158.142 90.6902 C 158.153 90.7623 158.139 90.8363 158.101 90.8978 C 156.368 91.74631 155.008 93.06401 153.859 94.6456 C 153.689 94.8793 153.564 95.12599 153.606 95.4336 C 153.53 97.3592 153.546 99.282906 153.61 102.451 C 153.607 102.485 153.603 102.519 153.597 102.55301 C 153.341 102.73601 153.174 102.52901 153.015 102.388 C 152.331 101.773994 151.666 101.137 150.928 100.59 C 150.122 99.9909 149.295 99.43189 148.401 98.98689 C 147.93 98.7537 147.451 98.5959 146.924 98.68531 Z"/>
        <path fill="#a19d98" stroke="none" d="M 158.403 80.6211 C 158.749 80.8036 158.926 81.1075 159.013 81.498 C 159.236 82.4908 159.384 83.5009 159.454 84.5188 C 159.574 86.2587 159.335 87.94271 158.921 89.6132 C 158.836 89.9609 158.737 90.303894 158.518 90.5911 C 158.3 90.6302 158.233 90.4641 158.145 90.3044 C 157.126 88.4617 156.941 86.45089 157.068 84.3796 C 157.084 84.0957 157.129 83.8118 157.146 83.5255 C 157.203 82.4252 157.653 81.3882 158.403 80.6211 Z"/>
        <path fill="#a19d98" stroke="none" d="M 155.263 120.11199 C 155.795 120.358 156.056 120.719 156.077 121.388 C 156.185 124.764 156.156 128.139 156.164 131.514 C 156.164 131.73 156.186 132.63 156.183 132.88 C 156.176 134.281 156.152 135.681 156.171 137.081 C 156.178 137.574 155.984 137.855 155.58 138.033 C 152.204 139.006 147.821 138.957 144.747 137.925 C 144.054 137.704 143.87 137.431 143.865 136.677 C 143.857 135.69 143.865 134.703 143.865 133.714 C 143.865 133.302 143.871 132.889 143.865 132.475 C 143.857 132.062 143.967 125.661 143.967 125.46399 C 143.967 123.956 143.978 122.447 143.963 120.938 C 143.958 120.464 144.124 120.17901 144.545 119.981 C 149.426 118.355995 151.989 118.829 155.263 120.11199 Z"/>
        <path fill="#45423d" stroke="none" d="M 144.877 129 L 144.877 121.72 C 144.877 121.594 144.874 121.46801 144.877 121.342 C 144.888 120.842 144.929 120.775 145.386 120.599 C 147.102 119.90501 152.121 119.249 154.8 121.111 C 155.223 121.34599 155.291 121.585 155.308 122.151 C 155.377 123.427 155.258 132.9 155.262 136.548 C 155.262 136.621 155.262 136.692 155.262 136.764 C 155.249 137.285 155.216 137.31 154.714 137.419 C 151.59 138.103 148.483 138.013 145.389 137.203 C 144.93 137.083 144.906 137.071 144.906 136.549 C 144.902 134.876 144.902 133.204 144.906 131.533 C 144.906 130.687 144.906 129.843 144.906 128.997 L 144.877 129 Z"/>
        <path fill="#dcf9fb" stroke="none" d="M 146.81 98.78721 C 146.87 98.3255 147.137 98.2771 147.653 98.404594 C 148.272 98.5992 148.865 98.878006 149.417 99.235 C 150.643 100.006004 151.818 100.854996 152.849 101.908 C 153.079 102.144 153.346 102.34101 153.596 102.55301 C 153.632 102.708 153.711 102.848 153.824 102.954 C 154.15 103.262 154.193 103.619 154.128 104.069 C 153.587 103.988 153.283 103.648 152.94 103.249 C 152.009 102.169 150.921 101.294 149.767 100.498 C 149.057 100.00801 147.969 99.4719 147.18 99.1405 C 146.91 99.0269 146.778 99.0339 146.81 98.78721 Z"/>
        <path fill="#dcf9fb" stroke="none" d="M 158.407 80.6211 C 158.59 80.7258 158.706 80.7737 158.238 81.2113 C 157.644 81.7717 157.251 83.1853 157.291 85.5032 C 157.329 87.0401 157.349 88.4081 158.522 90.5911 C 158.423 90.7531 158.293 90.8722 158.102 90.8969 C 156.115 88.8396 156.308 82.5089 157.289 80.8575 C 157.696 80.4139 157.933 80.3637 158.407 80.6211 Z"/>
    </g>
</svg>
