<svg width="400" height="400" xmlns="http://www.w3.org/2000/svg">
    <defs>
        <linearGradient id="paint0_linear_1_23641" x1="345.5" y1="319" x2="119.5" y2="92" gradientUnits="userSpaceOnUse">
            <stop offset="0" stop-color="#40017f"/>
            <stop offset="0.454398" stop-color="#480d91"/>
            <stop offset="1" stop-color="#2d1758"/>
        </linearGradient>
        <linearGradient id="paint1_linear_1_23641" x1="273.483" y1="279.729" x2="78.249" y2="210.647" gradientUnits="userSpaceOnUse">
            <stop offset="0" stop-color="#ffffff"/>
            <stop offset="0.612871" stop-color="#ad78ff"/>
            <stop offset="1" stop-color="#f4c5ff"/>
        </linearGradient>
        <linearGradient id="paint2_linear_1_23641" x1="216.98" y1="227.199" x2="252.356" y2="256.919" gradientUnits="userSpaceOnUse">
            <stop offset="0" stop-color="#5017a8"/>
            <stop offset="1" stop-color="#5017a8" stop-opacity="0"/>
        </linearGradient>
        <linearGradient id="paint3_linear_1_23641" x1="180.653" y1="170.331" x2="154.169" y2="132.458" gradientUnits="userSpaceOnUse">
            <stop offset="0" stop-color="#33057a"/>
            <stop offset="1" stop-color="#5017a8" stop-opacity="0"/>
        </linearGradient>
        <linearGradient id="paint5_linear_1_23641" x1="142.69" y1="275.673" x2="269.444" y2="126.002" gradientUnits="userSpaceOnUse">
            <stop offset="0" stop-color="#f3c5ff"/>
            <stop offset="1" stop-color="#ffffff"/>
        </linearGradient>
        <linearGradient id="paint6_linear_1_23641" x1="249.115" y1="118.64" x2="130.163" y2="183.68" gradientUnits="userSpaceOnUse">
            <stop offset="0" stop-color="#ffffff" stop-opacity="0"/>
            <stop offset="0.395491" stop-color="#ffffff" stop-opacity="0.427167"/>
            <stop offset="0.584281" stop-color="#ffffff"/>
            <stop offset="0.84779" stop-color="#ffffff" stop-opacity="0.241598"/>
            <stop offset="1" stop-color="#ffffff" stop-opacity="0"/>
        </linearGradient>
        <filter id="filter0_d_1_23641" x="82.9981" y="72" width="246.00198" height="266" filterUnits="userSpaceOnUse">
            <feFlood color-interpolation-filters="sRGB" flood-color="#000000" flood-opacity="0" result="BackgroundImageFix"/>
            <feColorMatrix color-interpolation-filters="sRGB" in="SourceAlpha" result="hardAlpha" type="matrix" values="0 0 0 0 0 0 0 0 0 0 0 0 0 0 0 0 0 0 127 0"/>
            <feOffset color-interpolation-filters="sRGB" in="hardAlpha" dx="0" dy="4" result="result3"/>
            <feGaussianBlur color-interpolation-filters="sRGB" in="result3" stdDeviation="19 19" result="result4"/>
            <feComposite color-interpolation-filters="sRGB" in="result4" in2="hardAlpha" operator="out" result="result5"/>
            <feColorMatrix color-interpolation-filters="sRGB" in="result5" result="result6" type="matrix" values="0 0 0 0 0 0 0 0 0 0 0 0 0 0 0 0 0 0 0.4 0"/>
            <feBlend color-interpolation-filters="sRGB" in="result6" in2="BackgroundImageFix" mode="normal" result="effect1_dropShadow_1_23641"/>
            <feBlend color-interpolation-filters="sRGB" in="SourceGraphic" in2="effect1_dropShadow_1_23641" mode="normal" result="shape"/>
        </filter>
    </defs>
    <path fill="url(#paint0_linear_1_23641)" stroke="none" d="M 0 0 L 400 0 L 400 400 L 0 400 Z"/>
    <g filter="url(#filter0_d_1_23641)">
        <path fill="url(#paint1_linear_1_23641)" stroke="none" d="M 125.395996 224.792 L 125.395996 278.656 C 125.395 286.711 134.072 295.544 146.284 295.544 C 161.546 295.544 161.548 295.542 175.20102 278.66 L 175.205 278.656 C 177.146 276.256 181.675 270.606 187.94 262.79 C 191.71399 258.082 196.118 252.588 200.965 246.546 L 257.149 291.537 C 275.626 305.202 297.689 274.649 287.677 262.588 C 274.351 246.54001 255.796 223.685 237.543 201.064 C 255.796 178.443 274.352 155.587 287.678 139.54 C 297.318 127.931 278.037 93.7177 257.149 110.591 C 246.342 119.321 221.983 138.824 200.99101 155.614 C 196.13298 149.559 191.72 144.054 187.939 139.337 C 181.67401 131.522 177.14499 125.871 175.20401 123.47201 L 175.20102 123.466995 C 161.547 106.585 161.546 106.583 146.283 106.583 C 134.072 106.583 125.395 117.840996 125.395 123.47201 L 125.395996 224.792 C 125.395996 224.792 125.395996 224.793 125.395996 224.792 Z"/>
        <path fill="url(#paint2_linear_1_23641)" fill-opacity="0.33" stroke="none" d="M 200.91199 246.498 L 237.868 201.466 L 248.311 215.137 L 239.073 240.869 L 241.884 278.663 L 200.91199 246.498 Z"/>
        <path fill="url(#paint3_linear_1_23641)" fill-opacity="0.5" stroke="none" d="M 201.164 155.853 L 152.709 202.276 L 125.394005 177.348 L 169.58 117.037994 L 201.164 155.853 Z"/>
        <path fill="#c20fef" stroke="none" d="M 125.395 278.656 L 125.395 177.334 C 140.82 192.129 158.066 188.32498 164.761 184.57298 C 164.761 184.57298 236.261 127.464 257.149 110.591 C 278.036 93.7177 297.317 127.931 287.677 139.54 C 253.399 180.819 184.514 267.144 175.20401 278.656 L 175.20102 278.66 C 161.547 295.542 161.546 295.544 146.283 295.544 C 134.072 295.544 125.394005 286.711 125.395 278.656 Z"/>
        <path fill="url(#paint5_linear_1_23641)" stroke="none" d="M 125.395 278.656 L 125.395 177.334 C 140.82 192.129 158.066 188.32498 164.761 184.57298 C 164.761 184.57298 236.261 127.464 257.149 110.591 C 278.036 93.7177 297.317 127.931 287.677 139.54 C 253.399 180.819 184.514 267.144 175.20401 278.656 L 175.20102 278.66 C 161.547 295.542 161.546 295.544 146.283 295.544 C 134.072 295.544 125.394005 286.711 125.395 278.656 Z"/>
        <path fill="url(#paint6_linear_1_23641)" fill-opacity="0.78" stroke="none" d="M 253.28699 114.81501 C 253.395 114.729004 253.413 114.572 253.32799 114.464 C 253.242 114.355995 253.084 114.338 252.976 114.424 L 253.28699 114.81501 Z M 163.957 185.383 L 164.055 185.61401 L 164.086 185.6 L 164.113 185.579 L 163.957 185.383 Z M 252.976 114.424 L 163.802 185.188 L 164.113 185.579 L 253.28699 114.81501 L 252.976 114.424 Z M 163.86 185.153 C 158.878 187.265 153.122 188.596 146.859 187.96602 C 140.599 187.33601 133.816 184.745 126.781 178.98299 L 126.464 179.37001 C 133.568 185.188 140.442 187.823 146.809 188.464 C 153.175 189.104 159.016 187.749 164.055 185.61401 L 163.86 185.153 Z"/>
    </g>
</svg>
