<svg width="2000" height="2000" xmlns="http://www.w3.org/2000/svg">
    <defs>
        <clipPath id="clip0_3043_2">
            <path fill="#000000" stroke="none" d="M 0 0 L 2000 0 L 2000 2000 L 0 2000 Z"/>
        </clipPath>
    </defs>
    <g clip-path="url(#clip0_3043_2)">
        <path fill="#ff1571" stroke="none" d="M 0 0 L 2000 0 L 2000 2000 L 0 2000 Z"/>
        <path fill="#ff1571" stroke="none" d="M 2000 1000 C 2000 1265.2164 1894.6432 1519.5704 1707.1068 1707.1068 C 1519.5704 1894.6432 1265.2164 2000 1000 2000 C 734.7835 2000 480.4296 1894.6432 292.89322 1707.1068 C 105.35684 1519.5704 0 1265.2164 0 1000 C 0 734.7835 105.35684 480.4296 292.89322 292.89322 C 480.4296 105.35684 734.7835 0 1000 0 C 1265.2164 0 1519.5704 105.35684 1707.1068 292.89322 C 1894.6432 480.4296 2000 734.7835 2000 1000 Z"/>
        <path fill="#ffffff" stroke="none" d="M 944.749 687.349 C 757.835 761.915 606.301 965.165 606.301 1141.29 L 936.95905 1009.36 L 983.189 945.55 L 984.30096 860.82697 L 984.30096 860.735 C 984.394 854.243 989.959 846.777 996.821 844.041 L 1017.59 835.74 L 1017.59 934.977 L 1059.05 960.667 L 1165.93 918.0511 C 1352.84 843.438 1504.42 640.188 1504.42 464.06604 L 944.795 687.349 L 944.749 687.349 Z"/>
        <path fill="#ffffff" stroke="none" d="M 1055.48 1313.38 C 1242.39 1238.81 1393.92 1035.56 1393.92 859.4379 L 1063.27 991.367 L 1017.04 1055.17 L 1015.92 1139.9 L 1015.92 1139.99 C 1015.83 1146.48 1010.27 1153.95 1003.39996 1156.68 L 982.63 1164.98 L 982.63 1065.75 L 941.176 1040.06 L 834.2961 1082.67 C 647.428 1157.29 495.848 1360.49 495.848 1536.6602 L 1055.48 1313.38 Z"/>
    </g>
</svg>
