<svg width="332" height="324" xmlns="http://www.w3.org/2000/svg">
    <defs>
        <linearGradient id="paint0_linear_103_204" x1="193.023" y1="231.049" x2="191.634" y2="266.921" gradientUnits="userSpaceOnUse">
            <stop offset="0.16" stop-color="#191919"/>
            <stop offset="0.97" stop-color="#191919" stop-opacity="0"/>
        </linearGradient>
    </defs>
    <path fill="#f1ece2" stroke="none" d="M 303.46 250.25 C 303.25 250.41 303.04 250.58 302.82 250.73001 C 302.61 250.89 302.39 251.04 302.17 251.2 C 301.76 251.48999 301.34 251.77 300.91 252.04 C 300.86 252.07 300.81 252.10002 300.76 252.13998 C 300.41 252.36 300.06 252.58 299.7 252.78998 C 299.17 253.11 298.65 253.41 298.11 253.71 C 294.45 255.75 290.6 257.39 286.67 258.84 C 282.96 260.2 279.2 261.39 275.41 262.45 C 269.98 263.97 264.48 265.23 258.93 266.33 C 253.53998 267.41 248.13 268.32 242.7 269.11 C 237.26999 269.9 231.82 270.56 226.35999 271.13 C 224.56999 271.32 222.78 271.49 220.99002 271.66 C 217.4 271.99 213.81 272.27 210.21999 272.51 C 208.42 272.63 206.62 272.74 204.83 272.84 C 200.8 273.07 196.77 273.24 192.74 273.37 C 192.01 273.39 191.28 273.42 190.54001 273.44 C 189.87 273.46 189.2 273.48 188.52 273.5 C 190.16998 271.46 191.82 269.43 193.32999 267.28 C 193.55 267.01 193.77 266.74 193.97998 266.46 C 197.39001 261.88 200.65 257.2 203.77 252.43 C 204.09 252.41 204.41 252.39998 204.72 252.37999 C 206.7 252.27 208.68 252.13998 210.66 252.01001 C 212.16 251.91 213.66 251.8 215.16002 251.68 C 225.65 250.86998 236.10002 249.70999 246.5 248.08 C 249.53 247.61 252.54 247.09 255.54 246.54001 C 262.56 245.24 269.52 243.68 276.38 241.71999 C 277.89 241.29 279.39 240.83998 280.89 240.37 C 281.64 240.13 282.39 239.89 283.14 239.64 C 284.27 239.84 285.3 240.31001 286.36 240.70001 C 287.29 241.04 288.22 241.4 289.15 241.77 C 291.78 242.81 294.36 243.96 296.86 245.28998 C 297.85 245.81 298.82 246.36 299.78 246.94 C 301.05 247.71 302.29 248.52 303.45 249.45 C 303.79 249.71999 303.89 249.83002 303.76 249.99 C 303.7 250.07002 303.6 250.15 303.44 250.27 L 303.46 250.25 Z"/>
    <path fill="#5e93ff" stroke="none" d="M 206.24 298.56 C 206.03001 298.69 205.8 298.69 205.58 298.61 C 205.64001 298.57 205.69 298.55 205.74 298.53 C 205.83 298.5 205.90999 298.5 206 298.5 C 206.08 298.5 206.16998 298.52 206.25 298.56 L 206.24 298.56 Z"/>
    <path fill="#5e93ff" stroke="none" d="M 205.35 298.61 C 205.08 298.73 204.81 298.74 204.52 298.66 C 204.78998 298.5 205.07 298.52 205.35 298.61 Z"/>
    <path fill="#5e93ff" stroke="none" d="M 204.29 298.66 C 204.02 298.78 203.74998 298.79 203.46 298.71 C 203.73 298.54 204 298.56 204.29 298.66 Z"/>
    <path fill="#5e93ff" stroke="none" d="M 203.23 298.71 C 202.96002 298.84 202.69 298.84 202.41 298.75 C 202.41 298.75 202.43 298.75 202.44 298.74 C 202.7 298.61 202.97002 298.61 203.23 298.71 L 203.23 298.71 Z"/>
    <path fill="#5e93ff" stroke="none" d="M 201.61 298.7 C 201.79 298.66 201.97998 298.68 202.17 298.75 C 201.9 298.88 201.62 298.88 201.34001 298.8 C 201.43 298.75 201.52 298.72 201.61 298.7 Z"/>
    <path fill="#5e93ff" stroke="none" d="M 200.68 298.72 C 200.81999 298.72 200.96 298.75 201.11 298.79 C 200.83998 298.91 200.56999 298.92 200.29 298.83 C 200.42 298.75 200.55002 298.72 200.68 298.71 L 200.68 298.72 Z"/>
    <path fill="#5e93ff" stroke="none" d="M 199.85 298.79 C 199.92 298.8 199.98 298.82 200.04 298.84 C 199.78 298.96 199.5 298.97 199.22 298.89 C 199.41002 298.77 199.61 298.75 199.81001 298.79 C 199.81001 298.79 199.82 298.79 199.83 298.79 L 199.84 298.79 L 199.85 298.79 Z"/>
    <path fill="#5e93ff" stroke="none" d="M 198.98 298.89 C 198.65999 299.03 198.33 299.02 198 298.93 C 198.32 298.78 198.65 298.79 198.98 298.89 Z"/>
    <path fill="#5e93ff" stroke="none" d="M 197.76 298.93 C 197.49 299.07 197.22 299.05 196.94 298.97 C 197.2 298.82 197.48 298.82 197.76 298.93 Z"/>
    <path fill="#5e93ff" stroke="none" d="M 267.92 235.09999 C 268.05 235.12001 268.2 235.12001 268.34 235.14 C 268.52 235.16 268.7 235.21002 268.84 235.36002 C 268.47 235.33 268.11 235.24998 267.79 235.07 C 267.81 235.07 267.84 235.07 267.86 235.08 C 267.88 235.08 267.9 235.08 267.93 235.09 L 267.92 235.09999 Z"/>
    <path fill="#3180f4" stroke="none" d="M 115.62 323.3 C 115.649994 323.36 115.68 323.42 115.7 323.47 L 110.12001 323.49 C 110.15 323.43 110.18 323.37 110.21 323.31 C 110.66 323.31 111.11 323.31 111.56 323.31 C 112.91001 323.31 114.26 323.31 115.61 323.31 L 115.62 323.3 Z"/>
    <path fill="#fdbf41" stroke="none" d="M 283.17 239.63 C 282.42 239.88 281.68 240.12 280.92 240.36 C 279.42 240.82999 277.92 241.28 276.41 241.70999 C 269.54 243.67 262.59 245.23 255.57 246.53001 C 252.57 247.09 249.55 247.6 246.53001 248.07 C 236.12999 249.7 225.68 250.85999 215.19 251.67 C 213.69 251.79 212.19 251.89998 210.69 252 C 208.71 252.12999 206.73 252.26001 204.75002 252.37 C 204.43 252.38998 204.12 252.39998 203.8 252.42 C 205.95 249.13 208.04 245.8 210.06 242.42 C 212.98 237.53998 215.77 232.58998 218.42 227.57 C 223.48 228.01001 228.53 228.52 233.58002 229.14001 C 233.95 229.18 234.32002 229.26 234.7 229.32 C 236.96 229.48 239.2 229.82 241.43 230.15 C 244.3 230.57 247.17001 231.03 250.03 231.51 C 253.89001 232.16 257.75 232.88 261.58 233.70999 C 263.65 234.16 265.71 234.61998 267.78 235.07 C 268.11 235.24998 268.46 235.32 268.83 235.36002 C 273.25 236.49002 277.66 237.67998 281.99 239.11 C 282.39 239.24 282.85 239.28 283.16 239.62 L 283.17 239.63 Z"/>
    <path fill="#f1ece2" stroke="none" d="M 136.13 272.19 C 137.91 272.33 139.7 272.47 141.48 272.59 C 139.69 272.47 137.91 272.33 136.13 272.19 Z"/>
    <path fill="#404a5a" stroke="none" d="M 79.0399 312.04 C 78.8999 312.04 78.7799 312 78.6899 311.89 C 78.6899 311.89 78.7099 311.89 78.7199 311.89 C 78.7399 311.89 78.7599 311.89 78.7799 311.89 C 78.7999 311.89 78.8099 311.9 78.8299 311.9 C 78.8399 311.9 78.8599 311.9 78.8699 311.91 C 78.8899 311.91 78.9099 311.93 78.9299 311.94 C 78.9299 311.94 78.9499 311.94 78.9599 311.95 C 78.9799 311.97 78.9999 311.99 79.0199 312.01 C 79.0199 312.01 79.0199 312.01 79.0299 312.01 L 79.0399 312.04 Z"/>
    <path fill="#404a5a" stroke="none" d="M 78.6898 311.89 C 78.5498 311.89 78.4198 311.86 78.3398 311.73 C 78.3398 311.73 78.4098 311.73 78.4398 311.73 L 78.4498 311.73 C 78.5398 311.75 78.6198 311.79 78.6798 311.88 C 78.6798 311.88 78.6798 311.88 78.6798 311.89 L 78.6898 311.89 Z"/>
    <path fill="#404a5a" stroke="none" d="M 78.3402 311.73 C 78.1902 311.73 78.0502 311.72 77.9902 311.56 C 77.9902 311.56 77.9902 311.56 77.9902 311.55 L 78.0002 311.55 C 78.1402 311.55 78.2702 311.58 78.3402 311.72 L 78.3402 311.73 Z"/>
    <path fill="#404a5a" stroke="none" d="M 77.9899 311.54 L 77.9899 311.56 C 77.8499 311.56 77.6999 311.58 77.6499 311.39 L 77.6499 311.37 C 77.7999 311.35 77.9299 311.38 77.9999 311.54 L 77.9899 311.54 Z"/>
    <path fill="#404a5a" stroke="none" d="M 76.6199 310.67 C 76.7199 310.74 76.8399 310.79 76.9499 310.84 C 77.0299 310.88 77.1099 310.91 77.1899 310.95 C 77.3299 311.02 77.4599 311.11 77.5499 311.24 C 77.5799 311.28 77.6099 311.34 77.6399 311.4 C 77.1699 311.36 76.7599 311.17 76.3999 310.87 L 76.6199 310.67 L 76.6199 310.67 Z"/>
    <path fill="#f1ece2" stroke="none" d="M 108.69 295.6 C 108.3 295.66 107.91 295.72 107.52999 295.78 C 106.03 295.98 104.53 296.1 103.020004 296.14 C 102.51999 296.15 102.01 296.16 101.51 296.15 C 101 296.15 100.5 296.13 99.9898 296.11 C 99.7698 296.1 99.5598 296.07 99.3398 296.05 C 99.12979 296.03 98.9098 296 98.68979 295.98 C 98.4098 295.96 98.1998 295.84 97.9898 295.66 C 97.3898 295.12 96.8198 294.56 96.259796 293.98 C 100.4 294.58 104.53999 295.12 108.69 295.61 L 108.69 295.6 Z"/>
    <path fill="#f1ece2" stroke="none" d="M 173.83 225.69 C 170.85 225.69 167.87 225.72998 164.89 225.78 C 159.93 233.46999 154.58 240.89 148.74 247.93999 C 147.51 249.42 146.27 250.88 145 252.32 C 141.8 255.97 138.46 259.49 134.96 262.85 C 131.89 265.79 128.72 268.6 125.41 271.24 C 122.83 273.31 120.16 275.28 117.39 277.11 C 112.28999 280.49 106.94001 283.4 101.17999 285.52 C 98.2602 286.59 95.2802 287.46 92.2002 287.97 C 92.0302 288 91.8702 288.07 91.7002 288.12 C 91.7102 288.17 91.73021 288.23 91.740204 288.28 C 91.7502 288.31 91.7602 288.34 91.7802 288.37 C 92.0002 288.71 92.2202 289.04 92.4502 289.36 C 92.9102 290.02 93.39019 290.66 93.88021 291.28 C 94.6202 292.21 95.41021 293.11 96.2402 293.97 C 100.38 294.57 104.52 295.11 108.670006 295.6 C 109.78 295.43 110.88 295.21 111.96999 294.95 C 114.50001 294.35 116.96 293.56 119.37 292.63 C 120.57 292.16 121.76 291.66 122.93 291.12 C 124.09999 290.58 125.26 290.01 126.41 289.4 C 126.91 289.14 127.399994 288.87 127.90001 288.6 C 131.34 286.71 134.64 284.59 137.8 282.31 C 140.97 280.02 144.01 277.56 146.96 274.98 C 147.38 274.61 147.8 274.24 148.22 273.86 C 148.53 273.58 148.83 273.3 149.15 273.01 C 151.04 271.28 152.9 269.5 154.71 267.68 C 155.41 266.97 156.1 266.26 156.79 265.53 C 159.06 263.15 161.27 260.72 163.42 258.23 C 164.71 256.74 165.97 255.22 167.21 253.69 C 167.36 253.51 167.51 253.32 167.66 253.13002 C 168.51 252.07 169.35 251 170.19 249.92 C 172.82 246.52002 175.35 243.05 177.79 239.51 C 179.10999 237.59 180.39998 235.66 181.66998 233.70999 C 182.38 232.61 183.08 231.51 183.77 230.40999 C 184.72 228.90001 185.65 227.37001 186.57 225.84001 C 182.32 225.74 178.08002 225.69 173.83 225.69 L 173.83 225.69 Z"/>
    <path fill="#c18b00" stroke="none" d="M 60.3898 303.72 C 60.249798 303.75 60.1398 303.71 60.089798 303.56 C 60.2398 303.53 60.3498 303.56 60.3898 303.72 Z"/>
    <path fill="#fdbf41" stroke="none" d="M 148.57 226.31 C 146.44 226.41 144.31 226.53 142.19 226.66 C 139.86 229.96 137.45 233.21 134.93 236.37999 C 132.46 239.5 129.93 242.56 127.270004 245.52998 C 125.76 247.21 124.24 248.88 122.68 250.52 C 121.58 251.68 120.46 252.83 119.31 253.95 C 114.74 258.42 109.94999 262.64 104.8 266.45 C 103.94 267.08 103.079994 267.7 102.19999 268.31 C 99.31 270.32 96.3201 272.18 93.2101 273.85 C 90.9601 275.07 88.64 276.15 86.29 277.14 C 86.31 277.25 86.29 277.37 86.34 277.48 C 86.67 278.39 87.020004 279.28 87.399994 280.17 C 87.77 281.06 88.16999 281.93 88.59 282.79 C 89.42999 284.51 90.37001 286.19 91.39 287.83 L 91.41 287.85 C 91.48 287.95 91.6 288.04 91.69 288.13 C 91.86 288.08 92.02 288.01 92.19 287.98 C 95.26001 287.47 98.24 286.6 101.17 285.53 C 106.93 283.42 112.28 280.5 117.38 277.12 C 120.15001 275.29 122.82001 273.32 125.4 271.25 C 128.71 268.6 131.88 265.79 134.95 262.86 C 138.46 259.5 141.79 255.98 144.99 252.33 C 146.26 250.89 147.5 249.43 148.73 247.94998 C 154.57 240.9 159.92 233.47998 164.88 225.79 C 159.44 225.89 153.99 226.05 148.56 226.32002 L 148.57 226.31 Z"/>
    <path fill="#e7aa24" stroke="none" d="M 256.12 144.22 C 256.12 144.22 256.05 144.21 256.02 144.21 C 256.05 144.21 256.08 144.21 256.12 144.22 Z"/>
    <path fill="#e7aa24" stroke="none" d="M 255.53 144.45 C 255.69998 144.45 255.89 144.45 255.78 144.18 C 255.86 144.18 255.93999 144.2 256.03 144.21 C 255.98 144.21 255.93999 144.22 255.91 144.24 C 255.84 144.29 255.84 144.4 255.86 144.53 C 255.75 144.53 255.64 144.52 255.53 144.51 C 255.47 144.51 255.4 144.5 255.34 144.49 C 255.21 144.48 255.07 144.46 254.94 144.45 C 254.64 144.41 254.33 144.35 254.04001 144.28 C 254.55 144.25 255.04 144.43 255.54 144.46 L 255.53 144.45 Z"/>
    <path fill="#f1ece2" stroke="none" d="M 100.38 247.53 C 100.600006 247.57 100.81 247.6 101.02 247.64 C 96.8499 251.67 92.4699 255.44998 87.799904 258.91 C 86.0999 260.17 84.3998 261.43 82.5598 262.5 C 82.2198 261.03 82.0698 259.53 81.8998 258.03 C 81.3198 253.25 81.0998 248.45001 81.0898 243.65 C 82.2498 243.93 83.4098 244.2 84.5798 244.47 C 87.9898 245.25 91.4098 245.94 94.8398 246.57 C 96.6898 246.91002 98.53981 247.23 100.39 247.54 L 100.38 247.53 Z"/>
    <path fill="#ff1100" stroke="none" d="M 119.47 228.6 C 118.98 228.66 118.48 228.7 117.98 228.75002 C 113.05999 235.00998 107.81 240.98 102.11 246.57 C 101.74999 246.93001 101.38 247.28 101.02 247.63 C 101.19 247.66002 101.36001 247.68999 101.52 247.72 C 101.35 247.68999 101.19 247.66002 101.02 247.64 C 96.8501 251.67 92.4701 255.44998 87.8001 258.91 C 86.1001 260.17 84.4001 261.43 82.5601 262.5 C 82.5801 262.7 82.5901 262.91 82.6101 263.11 C 82.6101 263.17 82.6101 263.22 82.6301 263.28 C 82.6701 263.51 82.7201 263.74 82.7601 263.97 C 82.7901 264.16 82.8201 264.34 82.8601 264.53 C 82.9501 264.99 83.0401 265.46 83.1301 265.93 C 83.6601 268.57 84.2901 271.18 85.0801 273.75 C 85.4401 274.9 85.7301 276.08 86.31009 277.16 C 88.6601 276.17 90.9801 275.09 93.2301 273.87 C 96.3401 272.19 99.3301 270.33 102.22 268.33 C 103.1 267.73 103.96 267.11 104.82 266.47 C 109.97 262.67 114.759995 258.44 119.329994 253.97 C 120.48 252.85 121.59 251.7 122.700005 250.54 C 124.26 248.9 125.78 247.23 127.29 245.55 C 129.94 242.58 132.48 239.52 134.95 236.39998 C 137.46 233.22 139.88 229.98 142.21 226.68 C 134.63 227.14 127.06 227.78 119.5 228.62 L 119.47 228.6 Z"/>
    <path fill="#f1ece2" stroke="none" d="M 101.52 247.72 C 101.35 247.68999 101.19 247.66002 101.02 247.64 C 101.19 247.67 101.36001 247.69998 101.52 247.72 Z"/>
    <path fill="#ff1100" stroke="none" d="M 101.02 247.63 C 100.81 247.6 100.59 247.56001 100.38 247.52 L 101.02 247.62 L 101.02 247.63 Z"/>
    <path fill="#ff1100" stroke="none" d="M 94.8301 246.55998 C 96.6801 246.9 98.5301 247.22 100.38 247.53 C 98.5301 247.22 96.6701 246.9 94.8301 246.55998 Z"/>
    <path fill="#fdbf41" stroke="none" d="M 114.73 229.22 C 115.8 228.99002 116.89 228.87 117.98 228.76001 C 113.05999 235.02 107.81 240.99 102.11 246.58 C 101.74999 246.94 101.38 247.29 101.02 247.64 L 100.38 247.54 C 98.5301 247.23 96.6801 246.91002 94.8301 246.57 C 91.4001 245.94 87.9701 245.25 84.5701 244.47 C 83.4101 244.2 82.2401 243.93 81.0801 243.65 C 81.0801 241.84001 81.1001 240.02 81.1501 238.2 C 81.1801 237.12 81.2301 236.05 81.2901 234.98001 C 85.2401 234.04 89.22009 233.21 93.2101 232.45001 C 100.03001 231.16002 106.89001 230.11 113.77 229.26 C 113.87999 229.25 113.99 229.23 114.1 229.22 C 114.23 229.2 114.36 229.19 114.49 229.2 C 114.57001 229.2 114.65 229.22 114.73 229.24 L 114.73 229.22 Z"/>
    <path fill="#007fff" stroke="none" d="M 236.37999 141.82 C 240.36 142.31 244.35 142.79 248.33 143.28 C 248.31001 143.32 248.28 143.36 248.24 143.4 C 245.76999 143.1 243.29 142.81 240.81999 142.49 C 240.1 142.4 239.38 142.34 238.65999 142.26 C 237.94 142.18 237.22 142.1 236.51001 141.96 C 236.47 141.91 236.43 141.87 236.37999 141.83 L 236.37999 141.82 Z"/>
    <path fill="#f1ece2" stroke="none" d="M 216.88 154.19 C 217.03 153.63 217.17 153.05 217.31999 152.49 C 217.18 153.06 217.03 153.63 216.88 154.19 Z"/>
    <path fill="#f1ece2" stroke="none" d="M 331.28 234.18 C 331.28 228.7 331.28 223.23 331.28 217.75 C 330.93 216.22 330.45 214.73 329.6 213.39001 C 328.23 211.23 326.6 209.3 324.56 207.72 C 322.43 206.07 320.25 204.52 317.9 203.2 C 314.67 201.39 311.31 199.86 307.94 198.35 C 307.34 198.08 306.72 197.95 306.12 197.71 C 298.5 194.73001 290.66 192.49 282.72 190.55998 C 277.64 189.32 272.52 188.26001 267.38 187.3 C 261.61 186.21999 255.81001 185.29 250 184.49 C 245.99 183.93999 241.97998 183.44 237.96 182.99 C 236.17 182.79 234.38 182.6 232.58998 182.41998 C 227.53 181.92998 222.46 181.47 217.39 181.11 C 214.4 180.89001 211.4 180.7 208.41 180.53 C 205.87 180.38998 203.32 180.26001 200.77 180.13998 C 196.76001 179.96 192.76 179.82 188.75002 179.73 C 188.46 179.73 188.17 179.71 187.88 179.71 C 181.55 179.57 175.21 179.53 168.88 179.59 C 168.78 179.59 168.68 179.59 168.57 179.59 C 162.05 179.65 155.53 179.8 149.02 180.07 C 148.63 180.08 148.24 180.11002 147.85 180.12 C 140.14 180.45 132.45 180.93 124.76 181.58 C 113.47 182.53001 102.22 183.82 91.0302 185.58002 C 90.7602 185.62 90.5002 185.67 90.2302 185.70999 C 89.8002 187.23 89.4102 188.77 88.87021 190.26 C 88.4902 191.78 88.11021 193.3 87.7202 194.81 C 86.6902 198.84 85.7602 202.89 84.9502 206.97 C 85.5202 206.87 86.0902 206.78 86.6602 206.68001 C 87.41021 206.55 88.1602 206.42998 88.9002 206.3 C 90.0102 206.12 91.1202 205.94 92.2302 205.76 C 96.2402 205.14001 100.27 204.58 104.28999 204.07 C 108.32 203.56 112.350006 203.10999 116.39 202.71002 C 119.079994 202.44 121.78 202.19 124.48 201.95999 C 128.56 201.62 132.65 201.32999 136.74 201.06999 C 140.59 200.82999 144.44 200.64 148.29 200.48 C 149.28 200.43999 150.27 200.39 151.26 200.35 C 152.73 200.29 154.21 200.25 155.68 200.19998 C 156.63 200.17 157.58 200.15 158.54 200.13 C 162.01 200.04 165.48 199.99 168.95 199.96 C 170.26 199.96 171.56 199.93999 172.87 199.93999 C 175.11 199.93999 177.35 199.93999 179.58 199.96 C 180.38998 199.96 181.2 199.97 182.01 199.99 C 182.88 200 183.75 200.01 184.62 200.02 C 186.99 200.06001 189.35 200.12 191.72 200.18999 C 194.09001 200.26 196.45 200.35 198.82 200.43999 C 199.21 200.45001 199.6 200.48 199.99 200.49 C 202.53 200.6 205.07 200.73 207.6 200.86 C 209.55 200.97 211.49998 201.08998 213.45 201.21 C 216.37 201.4 219.3 201.61 222.22 201.85 C 224.91 202.07002 227.60002 202.32002 230.3 202.59 C 230.39 202.59 230.49 202.60999 230.58 202.61998 C 232.51 202.81 234.44 203 236.37 203.2 C 239.46 203.50998 242.55 203.88 245.64001 204.29 C 248.72 204.7 251.8 205.14001 254.88 205.6 C 256.16 205.79001 257.44 205.99 258.71 206.19 C 262.54 206.80998 266.36 207.49 270.16 208.24 C 272.4 208.68 274.63 209.14 276.86 209.62 C 279.09 210.1 281.31 210.61998 283.53 211.16 C 286.9 211.98999 290.25 212.87999 293.56 213.85 C 297.98 215.15 302.36 216.61 306.65 218.32002 C 307.73 218.74 308.79 219.19 309.86 219.64 C 311.48 220.34 313.07 221.11 314.65 221.89001 C 315.04 222.08 315.43 222.27002 315.82 222.47 C 316.12 222.62 316.43 222.77002 316.73 222.92001 C 317.13 223.12 317.53 223.32 317.92 223.54 C 318.42 223.81001 318.91 224.1 319.37 224.42 C 321.15 225.65 322.98 226.81 324.63 228.21 C 325.01 228.54 325.38 228.87 325.74 229.22 C 326.17 229.58 326.58 229.97 326.97 230.36 C 327.62 231.01 328.22 231.71 328.75 232.43999 C 329.01 232.8 329.25 233.17 329.48 233.55 C 329.68 233.88 329.86 234.20999 330.03 234.55 C 330.2 234.89 330.36 235.23999 330.5 235.61002 C 330.65 235.97 330.78 236.34 330.9 236.71 C 330.98 236.97 331.07 237.24 331.15 237.5 C 331.15 237.5 331.15 237.51999 331.16 237.52998 L 331.16 237.5 C 331.37 236.38998 331.24 235.27 331.25 234.15 L 331.28 234.18 Z"/>
    <path fill="#fdbf41" stroke="none" d="M 331.35 215.58 C 331.36 211.43 331.36 207.29 331.35 203.14 C 331.35 201.22998 331.33 199.30998 331.32 197.40001 C 330.99 196.32 330.76 195.21002 330.27 194.18 C 329.02 191.59 327.15 189.51 324.99 187.65 C 322.63 185.61 320.02 183.92 317.28 182.42998 C 313.31 180.25002 309.19 178.39 304.94 176.81999 C 300.02 175 295.03 173.39001 289.97 172.01001 C 286.1 170.96 282.21 169.99 278.31 169.1 C 273.86 168.09 269.39 167.2 264.9 166.41 C 260.24 165.6 255.56001 164.82 250.86998 164.17 C 248.65 163.86 246.41998 163.57 244.19 163.29 C 239.21 162.65 234.21999 162.09 229.22 161.65 C 228.29 161.56 227.37001 161.43 226.44 161.36 C 222.65999 161.07 218.88 160.79 215.11 160.52 C 214.57 160.48 214.03001 160.44 213.49 160.4 C 210.97002 160.22 208.45001 160.04 205.92998 159.91 C 202.65 159.75 199.37 159.63 196.09 159.51 C 196.06 159.51 196.03 159.51 196 159.51 C 192.56999 159.39 189.15001 159.26 185.71999 159.2 C 182.7 159.15 179.68 159.12 176.65 159.11 C 175.32 159.11 173.99 159.1 172.64998 159.1 C 167.35 159.1 162.06 159.18 156.77 159.33 C 156.69 159.33 156.62 159.33 156.54 159.33 C 150.33 159.51 144.11 159.76 137.91 160.16 C 133.14 160.46 128.37 160.73 123.61 161.13 C 121.68001 161.29 119.76 161.53 117.84 161.72 C 111.13 162.39 104.44 163.17 97.77 164.11 C 97.69 164.12 97.6199 164.13 97.5399 164.14 C 94.8699 171.05 92.47001 178.05 90.36 185.16 C 90.31 185.34001 90.26 185.51 90.21 185.69 C 90.47 185.65 90.7399 185.6 91.0099 185.56 C 102.19999 183.80002 113.45 182.5 124.73999 181.56 C 132.43 180.92 140.12 180.43 147.83 180.10002 C 148.22 180.08 148.61 180.06 149 180.05 C 155.51 179.78 162.03 179.63 168.55 179.57 C 168.65 179.57 168.76 179.57 168.86 179.57 C 175.2 179.52 181.52998 179.56 187.86002 179.69 C 188.14998 179.69 188.44 179.71 188.73 179.71 C 192.74 179.8 196.74002 179.94 200.75 180.12 C 203.3 180.24002 205.84 180.37 208.39 180.51001 C 211.38 180.68 214.38 180.87 217.37 181.09 C 222.44 181.46 227.50998 181.90999 232.56999 182.4 C 234.35999 182.58 236.14998 182.77002 237.94 182.97 C 241.95999 183.42001 245.97 183.92 249.97998 184.47 C 255.79 185.27 261.59 186.2 267.36 187.28 C 272.5 188.24002 277.62 189.3 282.7 190.54001 C 290.64 192.47 298.48 194.71002 306.1 197.69 C 306.7 197.92998 307.32 198.06 307.92 198.33 C 311.29 199.85 314.65 201.37 317.88 203.18 C 320.23 204.50002 322.41 206.05 324.54 207.69998 C 326.58 209.28 328.21 211.21002 329.58 213.37 C 330.43 214.71 330.9 216.19998 331.26 217.72998 C 331.4 217.01 331.32 216.28 331.32 215.56001 L 331.35 215.58 Z"/>
    <path fill="#f1ece2" stroke="none" d="M 213.78001 58.8102 C 216.54 63.1202 218.54 67.7802 220.05 72.6602 C 220.52 74.1702 220.94 75.6902 221.32 77.2202 C 221.95 79.7702 222.44 82.3602 222.83 84.9602 C 222.94 85.7202 223.04999 86.4802 223.15 87.2502 C 223.34 88.7802 223.51 90.3102 223.65 91.8402 C 223.71 92.6102 223.77 93.3702 223.83 94.1402 C 224.11 98.3202 224.23 102.50001 224.12 106.69001 C 224 111.07 223.74 115.45 223.29999 119.82 C 222.86 124.16 222.26 128.48 221.53998 132.77 C 221.11 135.35 220.62999 137.92 220.11002 140.47 C 215.97 140.14 211.83 139.86 207.68 139.66 C 205.69 139.57 203.69 139.46 201.69 139.36 C 203.04 133.56 204.18 127.72 205.07 121.82 C 206.05 115.29 206.75 108.73999 207.01 102.15 C 207.22 96.55021 207.19 90.9402 206.74 85.3402 C 206.36 80.6702 205.73 76.0502 204.73 71.4702 C 203.60002 66.3202 202.01 61.3202 199.73 56.5502 C 198.83 54.6602 197.76999 52.8502 196.71 51.050198 C 197.58 50.770195 198.49 50.7402 199.38 50.6502 C 199.85 50.6002 200.32 50.5602 200.78 50.5302 C 201.18 50.510204 201.58002 50.4902 201.97998 50.480198 C 202.63 50.4702 203.28 50.4702 203.93 50.480198 C 204.37999 50.4902 204.84 50.510204 205.28998 50.5302 C 205.64001 50.5502 205.99 50.570206 206.34 50.6002 C 206.4 50.6002 206.46 50.610195 206.51 50.6202 C 206.62 50.6402 206.72 50.670204 206.82 50.7102 C 206.92001 50.7502 207.01 50.8002 207.1 50.860203 C 207.23 50.9402 207.36 51.050198 207.48 51.1602 C 207.79 51.4402 208.09 51.7302 208.38 52.0202 C 208.97 52.6002 209.54 53.210197 210.08002 53.8302 C 211.45 55.3802 212.68 57.0302 213.81 58.7902 L 213.78001 58.8102 Z"/>
    <path fill="#fdbf41" stroke="none" d="M 204.7 71.4698 C 205.7 76.0398 206.33 80.6698 206.71 85.3398 C 207.17001 90.93979 207.2 96.5498 206.98 102.15 C 206.73 108.73999 206.03001 115.29 205.03998 121.82 C 204.14998 127.72 203.00998 133.57 201.66 139.36 C 200.15 139.29 198.63 139.21 197.12 139.15 C 193.66 139.02 190.21 138.94 186.75 138.87 C 185.45999 138.84 184.17 138.82 182.89 138.8 C 184.15 134.05 185.26 129.26 186.20999 124.44 C 186.93 120.83 187.55 117.2 188.10002 113.560005 C 188.46 111.12 188.77998 108.68 189.06 106.23 C 189.35 103.67 189.58 101.1 189.74 98.5198 C 189.90999 95.7698 190.02002 93.0098 190.08 90.2598 C 190.15 86.5698 190.03001 82.8898 189.76 79.2098 C 189.58 76.7798 189.35 74.3598 189.03998 71.9398 C 188.62 68.6298 188.02 65.3598 187.23 62.119804 C 186.59999 59.5298 185.88 56.949802 184.92 54.4498 C 185.58002 54.029797 186.34 53.8198 187.07 53.549797 C 188.55 52.9998 190.04001 52.5198 191.56001 52.0998 C 193.07999 51.6898 194.60999 51.3398 196.17 51.0798 C 196.28 51.0598 196.37999 51.0298 196.49002 51.0298 C 196.56 51.0298 196.62 51.0298 196.68 51.0498 C 197.74 52.849804 198.79999 54.6498 199.69998 56.5498 C 201.97998 61.3198 203.57 66.3198 204.7 71.4698 L 204.7 71.4698 Z"/>
    <path fill="#3180f4" stroke="none" d="M 248.17 62.989902 C 248.17 62.989902 248.13 62.959896 248.13 62.9399 C 248.13 62.9299 248.13 62.9199 248.13 62.899895 L 248.18 62.9299 L 248.16 62.9799 L 248.17 62.989902 Z"/>
    <path fill="#007fff" stroke="none" d="M 331.26 257.24 C 331.27 256.98 331.29 256.72 331.29 256.46 C 331.29 252.18 331.3 247.89 331.3 243.61002 C 331.3 241.76 331.27 239.91 331.26 238.06 C 331.26 237.95 331.31 237.83 331.3 237.72 C 331.27 237.65001 331.23 237.6 331.2 237.53998 C 331.2 237.53998 331.2 237.55 331.2 237.56 C 331.2 237.55 331.2 237.53998 331.19 237.52998 C 331.11 237.26 331.02 237 330.94 236.73 C 330.82 236.35 330.68 235.98 330.54 235.63 C 330.4 235.27 330.24 234.92 330.07 234.57 C 329.9 234.23001 329.71 233.89 329.52 233.57002 C 329.29 233.19002 329.05 232.81999 328.79 232.46 C 328.26 231.72 327.67 231.03 327.01 230.38 C 326.62 229.99 326.21 229.61 325.78 229.24 C 325.42 228.87999 325.05 228.55 324.67 228.23 C 323.02 226.83 321.19 225.67 319.41 224.43999 C 318.94 224.12 318.45 223.83 317.96 223.56001 C 317.57 223.35 317.17 223.14 316.77 222.94 C 316.47 222.79 316.16 222.64 315.86 222.49 C 315.47 222.29001 315.08 222.1 314.69 221.90999 C 313.11 221.13002 311.52 220.36 309.9 219.66 C 308.83 219.21002 307.77 218.76 306.69 218.34 C 302.39 216.64 298.02 215.17001 293.6 213.87 C 290.28 212.89001 286.93 212 283.57 211.18 C 281.35 210.64 279.13 210.11998 276.9 209.64 C 274.67 209.16 272.44 208.70001 270.2 208.26 C 266.39 207.51 262.57 206.82 258.75 206.21 C 257.47 206.01 256.2 205.81 254.92001 205.62 C 251.84 205.16 248.77 204.72 245.67998 204.31 C 242.59999 203.89998 239.51 203.53 236.41 203.22002 C 234.48001 203.03 232.55002 202.83 230.62 202.64 C 230.53001 202.64 230.42998 202.61998 230.34 202.60999 C 227.65 202.34 224.96 202.09001 222.26 201.87 C 219.34 201.63 216.41 201.43 213.49 201.22998 C 211.54 201.1 209.59001 200.98 207.64 200.88 C 205.1 200.74 202.56 200.61 200.03 200.51 C 199.64 200.49 199.25 200.47 198.86 200.46 C 196.49002 200.36 194.13 200.28 191.76 200.21 C 189.39001 200.14 187.03 200.08 184.66 200.04 C 183.79 200.03 182.92001 200.02 182.05 200.01 C 181.24 200 180.43 199.99 179.62001 199.98 C 177.38 199.96 175.14 199.94998 172.91 199.96 C 171.6 199.96 170.29 199.97 168.99 199.98 C 165.52 200.01 162.05 200.06001 158.58 200.15 C 157.63 200.17 156.68 200.19998 155.72 200.22 C 154.25 200.26 152.77 200.31001 151.3 200.37 C 150.31 200.41 149.32 200.46 148.33 200.5 C 144.48 200.66 140.63 200.86 136.78 201.08998 C 132.69 201.35 128.6 201.63 124.52 201.97998 C 121.82 202.20999 119.12 202.46002 116.43 202.73001 C 112.39 203.13 108.36 203.58 104.33 204.09 C 100.3 204.6 96.2801 205.16 92.2701 205.78001 C 91.1601 205.95 90.0501 206.13 88.9401 206.32 C 88.19011 206.44 87.4501 206.57 86.7001 206.7 C 86.1301 206.79999 85.5602 206.89 84.9902 206.99 C 85.8002 202.91 86.73011 198.86 87.76009 194.83 C 88.1501 193.31 88.53009 191.80002 88.9101 190.28001 C 89.4501 188.78998 89.84011 187.24998 90.2701 185.72998 C 90.3201 185.55 90.3701 185.38 90.4201 185.20001 C 92.53009 178.09001 94.9302 171.08 97.6002 164.18 C 99.29021 159.8 101.09 155.46 103 151.16 C 104.28 148.28 105.61001 145.41 106.98 142.58 C 111.51 133.21 116.53999 124.09999 122.12001 115.29 C 127.329994 107.03 133 99.11 139.21 91.57 C 139.34 91.42 139.44 91.24 139.56 91.079994 C 141.43 88.94 143.27 86.78 145.18 84.67 C 151.4 77.78 158.1 71.4 165.52 65.81 C 167.35 64.43 169.24 63.13 171.11 61.8 C 171.28 61.68 171.49 61.66 171.69 61.65 C 171.78 61.379997 172.03 61.259995 172.24002 61.13 C 176.07 58.680004 180.05 56.5 184.24 54.740005 C 184.39 54.680004 184.53 54.6 184.69002 54.55 C 184.73 54.54 184.78 54.529995 184.82999 54.520004 C 184.88 54.520004 184.93 54.5 184.98 54.5 C 185.64 54.08 186.4 53.87 187.13 53.6 C 188.61 53.05 190.1 52.57 191.62 52.15 C 193.14 51.74 194.67 51.39 196.23 51.13 C 196.34 51.11 196.44 51.08 196.55 51.08 C 196.62 51.08 196.68 51.08 196.74002 51.099995 C 197.61 50.82 198.52002 50.79 199.41002 50.7 C 199.88 50.649998 200.35 50.61 200.81 50.580006 C 201.21 50.56 201.61 50.54 202.01 50.529995 C 202.66 50.520004 203.31 50.520004 203.96 50.529995 C 204.41 50.54 204.87 50.56 205.32 50.580006 C 205.66998 50.6 206.02002 50.620003 206.37 50.649998 C 206.42998 50.649998 206.49 50.66 206.54001 50.67 C 206.65 50.69 206.75 50.72 206.85 50.76 C 206.95 50.8 207.04 50.85 207.13 50.91 C 207.26 50.99 207.39 51.099995 207.51 51.21 C 207.82 51.49 208.12 51.78 208.41 52.07 C 209 52.649998 209.57002 53.259995 210.10999 53.88 C 211.48 55.43 212.71 57.08 213.84 58.840004 C 216.6 63.15 218.59999 67.81 220.11002 72.69 C 220.58 74.2 221 75.72 221.38002 77.25 C 222.01 79.8 222.5 82.39 222.89 84.99 C 223 85.75 223.11 86.509995 223.21 87.27999 C 223.4 88.81 223.57 90.34 223.71 91.87 C 223.77 92.64 223.83 93.4 223.89 94.17 C 224.17 98.35 224.29 102.53 224.18 106.72 C 224.06001 111.1 223.80002 115.48 223.36 119.84999 C 222.92001 124.19 222.32 128.51 221.6 132.8 C 221.17 135.38 220.69 137.95 220.17 140.5 C 220.84 140.55 221.51 140.6 222.17998 140.66 C 226.99 141.06 231.79 141.54 236.59 141.98 C 236.55 141.93 236.51001 141.89 236.46 141.85 C 240.43999 142.34 244.43 142.82 248.41 143.31 C 248.39 143.35 248.36 143.39 248.32 143.43 C 248.56 143.46 248.8 143.5 249.04 143.53 C 249.84001 139.59 250.56 135.65 251.17 131.68 C 251.71 128.12 252.19 124.55 252.56 120.97 C 252.91 117.619995 253.22 114.27 253.38002 110.9 C 253.46 109.28 253.55 107.649994 253.65001 106.03 C 253.66 105.82 253.55 105.54 253.88002 105.45 C 253.88002 102.43 253.86 99.399994 253.85 96.38 C 253.69 96.31 253.67998 96.16999 253.66 96.02 C 253.62 95.41 253.55 94.81 253.52998 94.19999 C 253.41 89.810005 253.01 85.45 252.42 81.11 C 251.77 76.3 250.81 71.56 249.47998 66.89 C 249.15 65.72 248.87 64.54 248.35 63.43 L 248.24 63.03 C 248.24 63.03 248.19998 63 248.19998 62.98 C 248.19998 62.97 248.19998 62.96 248.19998 62.939995 C 248.17 62.8 248.15 62.66 248.1 62.520004 C 246.16998 56.95 243.65 51.670002 240.18 46.87 C 236.84 42.24 232.81 38.37 227.84 35.49 C 225.97998 34.41 223.96 33.65 222.05 32.68 C 221.88002 32.59 221.66 32.61 221.46 32.57 C 221.28998 32.35 221.01999 32.29 220.78998 32.18 C 216.28 30.180002 211.78 28.180002 207.26 26.2 C 206.68001 25.94 206.15 25.56 205.5 25.48 C 205.39001 25.44 205.27998 25.41 205.17 25.370003 C 204.39998 25.12 203.61002 24.94 202.86998 24.59 C 202.8 24.57 202.74 24.549997 202.67 24.52 C 202.64 24.51 202.59999 24.499998 202.57 24.49 C 202.57 24.49 202.56 24.49 202.55 24.49 C 202.47002 24.54 202.42 24.499998 202.36998 24.43 C 200.92 24.06 199.47 23.78 198 23.579998 C 196.94 23.43 195.88 23.32 194.81 23.260002 C 194.45 23.24 194.1 23.230001 193.74 23.22 C 192.67 23.19 191.61 23.2 190.55 23.25 C 189.14001 23.310001 187.73999 23.44 186.34 23.629997 C 183.9 23.97 181.48 24.48 179.08 25.14 C 178.74 25.24 178.39 25.33 178.05 25.44 C 173.53998 26.78 169.24 28.59 165.09 30.73 C 163.71 31.44 162.34 32.19 160.98 32.98 C 159.74 33.69 158.52 34.42 157.31 35.19 C 156.91 35.44 156.51 35.7 156.11 35.96 C 155.71 36.22 155.31 36.48 154.92 36.75 C 154.13 37.28 153.35 37.82 152.58 38.38 C 152.2 38.66 151.81 38.94 151.43 39.22 C 151.43 39.25 151.43 39.27 151.43 39.3 C 151.43 39.32 151.41 39.34 151.4 39.36 C 151.37 39.39 151.33 39.4 151.27 39.4 L 151.26 39.4 C 151.26 39.4 151.26 39.44 151.26 39.45 C 151.26 39.49 151.24 39.51 151.22 39.52 C 151.2 39.53 151.18 39.53 151.14 39.52 C 151.13 39.52 151.11 39.52 151.1 39.5 C 149.4 40.69 147.75 41.93 146.14 43.219997 C 145.42 43.790005 144.71 44.38 144.01 44.97 C 143.9 45.060005 143.79 45.159996 143.68 45.250004 C 142.96 45.86 142.24 46.48 141.53 47.11 C 141.53 47.13 141.53 47.14 141.53 47.159996 C 141.53 47.21 141.51 47.24 141.48 47.27 C 141.48 47.27 141.46 47.28 141.45 47.29 C 141.43 47.3 141.4 47.31 141.37 47.31 C 141.35 47.350002 141.32 47.39 141.29 47.419994 C 141.25 47.46 141.22 47.5 141.17 47.53 C 141.11 47.570004 141.04 47.61 140.96 47.62 C 140.96 47.71 140.94 47.76 140.9 47.78 C 140.84 47.82 140.73 47.790005 140.65 47.8 C 140.38 48.08 140.1 48.360004 139.83 48.63 C 139.81 48.649998 139.8 48.67 139.78 48.680004 C 139.78 48.69 139.78 48.71 139.78 48.72 C 139.78 48.76 139.76 48.780003 139.74 48.809998 L 139.73 48.809998 C 139.73 48.809998 139.67 48.840004 139.61 48.840004 C 139.37 49.04 139.11 49.219997 138.88 49.43 C 138.86 49.45 138.84 49.46 138.82 49.479996 C 137.94 50.31 137.05 51.14 136.18 51.99 C 136.12 52.049995 136.06 52.1 136.01 52.15 C 135.74 52.42 135.46 52.67 135.18 52.93 C 134.48 53.58 133.76 54.209995 133.09 54.89 C 132.73 55.259995 132.36 55.630005 132 55.99 C 129.92 58.1 127.86 60.23 125.869995 62.429996 C 123.329994 65.24 120.85999 68.1 118.46 71.02 C 118.12001 71.44 117.77 71.85 117.42999 72.27 C 117.38 72.33 117.32 72.4 117.28 72.47 C 117.21 72.57 117.14 72.67 117.07 72.78 C 116.979996 72.92 116.89 73.06 116.8 73.19 C 116.729996 73.29 116.659996 73.38 116.58 73.48 C 116.55 73.51 116.53 73.54 116.51 73.56 C 116.4 73.68 116.28999 73.79 116.16 73.88 C 116.16 73.91 116.15001 73.92 116.14 73.94 C 116.14 73.96 116.14 73.98 116.12 74 C 116.12 74.01 116.09999 74.02 116.09 74.03 C 116.07 74.04 116.04 74.05 116.02 74.06 C 115.96 74.34 115.73 74.48 115.54 74.66 C 115.52999 74.66 115.52 74.68 115.51 74.69 C 115.45 74.74 115.41 74.8 115.37 74.86 C 115.35 74.89 115.329994 74.92 115.32 74.96 C 115.31 75 115.29 75.03 115.27999 75.07 C 115.27999 75.09 115.27999 75.1 115.27999 75.12 C 115.27999 75.17 115.26001 75.2 115.22 75.23 C 115.22 75.23 115.2 75.23 115.2 75.24 C 115.19 75.24 115.17 75.24 115.16 75.24 C 115.15 75.24 115.14001 75.24 115.12 75.24 C 114.68 75.79 114.23 76.34 113.79 76.89 C 113.77 76.92 113.74 76.95 113.72 76.98 C 113.73 77.05 113.73 77.11 113.72 77.17 C 113.72 77.22 113.69 77.25 113.67 77.29 C 113.67 77.3 113.65 77.32 113.65 77.33 C 113.619995 77.36 113.58 77.4 113.54 77.42 C 113.490005 77.45 113.42999 77.47 113.37 77.49 C 113.299995 77.57 113.23001 77.64 113.16001 77.72 C 113.13 77.75 113.10999 77.78 113.09 77.8 C 113.03 77.86 112.979996 77.93 112.93 77.99 C 111.8 79.51 110.67 81.04 109.54 82.56 C 109.54 82.61 109.52 82.64 109.490005 82.67 C 109.490005 82.67 109.48001 82.68 109.47 82.69 C 109.45 82.71 109.42 82.72 109.39 82.72 C 108.61 83.82 107.81 84.91 107.04 86.02 C 106.89001 86.24 106.74 86.46 106.59 86.68 C 105.44 88.37 104.36 90.11 103.2 91.79 C 102.62 92.63 102.06999 93.490005 101.52 94.34 C 100.96 95.19 100.4 96.04 99.7901 96.87 C 98.8201 98.19999 97.99009 99.649994 97.1401 101.05999 C 96.770096 101.67 96.4001 102.28 96.0401 102.89001 C 91.9301 109.71 87.94011 116.600006 84.5401 123.81 C 84.3401 124.23 84.1101 124.62 83.8801 125.02 C 83.6501 125.41 83.4102 125.810005 83.2102 126.21 C 82.0502 128.54 80.9202 130.88 79.8202 133.24 C 79.4102 134.12 79.0102 135 78.6002 135.89 C 78.0702 137.04 77.5501 138.2 77.0401 139.36 C 76.3901 140.83 75.7402 142.31 75.1002 143.8 C 74.8302 144.42 74.5701 145.05 74.3101 145.68 C 73.9801 146.46 73.6501 147.24 73.3301 148.03 C 72.1901 150.8 71.0901 153.6 70.0201 156.4 C 69.7101 157.22 69.4002 158.04 69.1002 158.87 C 68.3702 160.87 67.6601 162.87 66.9501 164.88 C 66.7801 165.36 66.6101 165.84 66.4401 166.32 C 66.3101 166.69 66.1801 167.07 66.0601 167.45 C 65.7301 168.4 65.4201 169.36 65.1201 170.32 C 64.7501 171.49 64.3901 172.66 64.0301 173.83 C 63.770103 174.67001 63.5102 175.5 63.240204 176.33998 C 62.6302 178.20999 61.9201 180.06 61.680096 182.03001 C 61.6701 182.13 61.5502 182.22 61.4902 182.31 C 61.1902 183.13 61.010098 183.97 60.8101 184.81 C 60.7101 185.21 60.5901 185.61 60.470097 186.01 C 60.3501 186.41 60.2301 186.81 60.1201 187.21002 C 59.6601 188.93 59.2101 190.65999 58.790096 192.39 C 58.4001 193.95 58.0301 195.53 57.6701 197.1 C 57.2701 198.87 56.890095 200.64 56.5201 202.41 C 56.2001 203.96 55.8902 205.51999 55.6002 207.08 C 55.370197 208.32 55.140102 209.55 54.9301 210.79 C 54.7401 211.88 54.570095 212.97 54.3901 214.06 C 54.1701 215.44998 53.9601 216.82999 53.770103 218.21999 C 53.6001 219.47 53.4401 220.71 53.2801 221.96 C 52.8601 225.39 52.5201 228.82 52.250095 232.27 C 52.1801 233.26 52.1101 234.24 52.060097 235.23 C 52.0001 236.22 51.9501 237.2 51.9101 238.19 C 51.830105 240.16 51.7702 242.14 51.7102 244.11002 C 51.7002 244.56 51.7001 245.01 51.6901 245.46 C 51.6901 245.6 51.6901 245.73 51.6901 245.87 C 51.680096 248.4 51.7801 250.92 51.8601 253.43 C 51.8601 253.53998 51.880196 253.66 51.880196 253.76999 C 51.9002 254.22 51.9201 254.67001 51.9501 255.12 C 52.0401 256.94 52.190205 258.76 52.3802 260.58 C 52.510204 261.81 52.6501 263.05 52.8101 264.28 C 52.8301 264.46 52.860203 264.63 52.8802 264.81 C 53.2202 267.31 53.6102 269.8 54.100197 272.27 C 55.0102 276.89 56.2202 281.43 57.880196 285.84 C 57.910202 285.91 57.9401 285.99 57.9701 286.07 C 59.2101 289.33 60.6501 292.5 62.4201 295.52 C 65.3301 300.49 68.8801 304.89 73.4101 308.4 C 73.9501 308.82 74.5001 309.22 75.0601 309.62 C 75.6001 309.99 76.1802 310.33 76.7402 310.67 C 76.8402 310.74 76.9602 310.79 77.0702 310.84 C 77.1502 310.88 77.2301 310.91 77.3101 310.95 C 77.4501 311.02 77.5801 311.11 77.6701 311.24 C 77.7001 311.28 77.7301 311.34 77.7601 311.4 L 77.7601 311.38 C 77.9101 311.36 78.0401 311.39 78.1101 311.55 L 78.1201 311.55 C 78.2601 311.55 78.3902 311.59 78.4602 311.72 C 78.5002 311.72 78.5301 311.72 78.5601 311.73 L 78.5702 311.73 C 78.6602 311.75 78.7401 311.79 78.8001 311.88 C 78.8001 311.88 78.8001 311.88 78.8001 311.89 C 78.8001 311.89 78.8201 311.89 78.8301 311.89 C 78.8501 311.89 78.8701 311.89 78.8901 311.89 C 78.9101 311.89 78.9201 311.9 78.9501 311.9 C 78.9601 311.9 78.9802 311.9 78.9902 311.91 C 79.0102 311.91 79.0301 311.93 79.0501 311.94 C 79.0501 311.94 79.0701 311.94 79.0801 311.95 C 79.1001 311.97 79.1201 311.99 79.1401 312.01 C 79.1401 312.01 79.1401 312.01 79.1501 312.01 C 79.3401 312.21 79.6001 312.26 79.8401 312.37 C 84.8301 314.58 89.83019 316.79 94.8202 319 C 97.2902 320.09 99.740204 321.24 102.35 321.96 C 104.96 322.68 107.61 323.17 110.31999 323.28 C 110.76999 323.28 111.22 323.28 111.67 323.28 C 113.02 323.28 114.37001 323.28 115.72 323.28 C 117.03 323.24 118.33 323.07 119.62 322.87 C 124.87 322.08 129.91 320.53 134.78 318.44 C 143.7 314.61 151.75 309.38 159.3 303.33 C 160.96 302 162.58 300.63 164.19 299.24 C 169.8 299.34 175.4 299.37 181.01 299.31 C 186.34999 299.25 191.69998 299.16 197.03998 298.95 C 197.3 298.8 197.58 298.8 197.86 298.91 C 197.94 298.91 198.02002 298.91 198.1 298.91 C 198.41998 298.76 198.75 298.77 199.08 298.87 L 199.32 298.87 C 199.51 298.75 199.71 298.73 199.91 298.77 C 199.91 298.77 199.92 298.77 199.93 298.77 L 199.93999 298.77 C 200.01 298.79 200.07 298.81 200.13 298.83 L 200.37 298.83 C 200.5 298.75 200.63 298.72 200.76 298.71 C 200.9 298.71 201.04 298.74 201.19002 298.78 C 201.27 298.78 201.35 298.78 201.43 298.78 C 201.52 298.73 201.61 298.7 201.7 298.68 C 201.88 298.64 202.07002 298.66 202.26 298.73 C 202.34 298.73 202.41 298.73 202.49 298.73 C 202.49 298.73 202.51 298.73 202.52 298.72 C 202.78 298.59 203.05 298.59 203.31 298.69 C 203.39 298.69 203.47 298.69 203.54 298.69 C 203.81 298.52 204.08 298.54 204.37 298.64 C 204.45 298.64 204.53 298.64 204.6 298.64 C 204.87 298.48 205.15001 298.5 205.43 298.59 C 205.51 298.59 205.59 298.59 205.66 298.59 C 205.72 298.55 205.76999 298.53 205.82 298.51 C 205.90999 298.48 205.99 298.48 206.08 298.48 C 206.15999 298.48 206.25 298.5 206.33 298.54 C 207.54999 298.48 208.76 298.44 209.97998 298.37 C 219.32 297.82 228.62999 297.08 237.92998 296.05 C 252.05 294.48 266.08 292.37 279.94 289.21 C 289.38 287.06 298.69 284.48 307.69 280.85 C 312.52 278.9 317.21 276.67 321.55 273.75 C 324.16 271.99 326.58 270.01 328.52 267.48 C 329.74 265.87 330.73 264.14 331.11 262.12 C 331.26 261.96 331.32 261.77 331.33 261.57 C 331.42 260.12 331.47 258.68 331.34 257.23 L 331.26 257.24 Z M 205.90999 226.65 C 203.31 226.49 200.72 226.34999 198.12 226.24 C 200.72 226.35999 203.31 226.5 205.90999 226.65 Z M 148.24 273.86 C 147.82 274.23 147.4 274.61 146.98 274.98 C 144.03 277.57 140.99 280.02 137.82 282.31 C 134.65 284.59 131.36 286.71 127.92 288.6 C 127.43 288.87 126.93 289.14 126.43 289.4 C 125.28 290 124.12 290.57 122.95 291.12 C 121.78 291.66 120.59 292.16 119.39 292.63 C 116.98999 293.57 114.53 294.35 111.99 294.95 C 110.89001 295.21 109.79 295.43 108.69 295.6 C 108.3 295.66 107.91 295.72 107.52999 295.78 C 106.03 295.98 104.53 296.1 103.020004 296.14 C 102.51999 296.15 102.01 296.16 101.51 296.15 C 101 296.15 100.5 296.13 99.990204 296.11 C 99.7702 296.1 99.5601 296.07 99.3401 296.05 C 99.13009 296.03 98.9101 296 98.6901 295.98 C 98.41011 295.96 98.20021 295.84 97.9902 295.66 C 97.39019 295.12 96.8201 294.56 96.26011 293.98 C 95.4301 293.12 94.6401 292.22 93.9001 291.29 C 93.4101 290.67 92.9301 290.03 92.4701 289.37 C 92.2401 289.04 92.0201 288.71 91.8001 288.38 C 91.7801 288.35 91.7701 288.32 91.76009 288.29 C 91.75011 288.24 91.7301 288.18 91.7201 288.13 C 91.630104 288.04 91.5101 287.95 91.440094 287.85 L 91.4201 287.83 C 90.3901 286.2 89.4601 284.52 88.6201 282.79 C 88.200096 281.92 87.8001 281.06 87.4301 280.17 C 87.05011 279.29 86.7001 278.39 86.3701 277.48 C 86.3301 277.37 86.340195 277.26 86.3202 277.14 C 85.7402 276.06 85.4501 274.88 85.0901 273.73 C 84.2901 271.16 83.6601 268.55 83.1401 265.91 C 83.0501 265.44 82.9601 264.98 82.8701 264.51 C 82.8301 264.32 82.8101 264.14 82.7701 263.95 C 82.7301 263.72 82.6801 263.49 82.6401 263.26 C 82.6401 263.2 82.6401 263.15 82.6201 263.09 C 82.6001 262.89 82.5902 262.68 82.5702 262.48 C 82.2302 261.01 82.0801 259.51 81.9101 258.01 C 81.3301 253.23 81.1102 248.43 81.1002 243.63 C 81.1002 241.82002 81.1201 240 81.1701 238.17998 C 81.2001 237.1 81.2501 236.03 81.3101 234.96002 C 85.2601 234.02 89.2401 233.19002 93.2301 232.43 C 100.05 231.14 106.91 230.09 113.79 229.24 C 113.9 229.23 114.01 229.21 114.12001 229.2 C 114.25001 229.18 114.380005 229.17 114.509995 229.18 C 114.59 229.18 114.67 229.2 114.75 229.22 C 115.82 228.99002 116.91001 228.87 118 228.76001 C 118.50001 228.71 119 228.66 119.49 228.61 C 127.05 227.77 134.62 227.13 142.2 226.67 C 144.33 226.54 146.46 226.42 148.58 226.32002 C 154.02 226.06 159.46 225.89 164.9 225.79 C 167.88 225.72998 170.86 225.7 173.84 225.7 C 178.09001 225.7 182.34 225.75 186.58 225.85 C 185.66 227.38 184.73 228.91 183.78 230.41998 C 183.09 231.53 182.39 232.63 181.67998 233.71999 C 180.41 235.67 179.12001 237.6 177.8 239.52 C 175.36 243.06 172.83 246.53001 170.2 249.93 C 169.37 251.00998 168.53 252.08 167.67 253.14001 C 167.52 253.33 167.37 253.51999 167.22 253.7 C 165.98 255.24 164.72 256.75 163.43 258.24 C 161.28 260.73 159.07 263.16 156.8 265.54 C 156.11 266.26 155.42 266.98 154.72 267.69 C 152.92 269.51 151.06 271.29 149.16 273.02 C 149.74 273.05 150.32 273.07 150.9 273.1 C 150.32 273.07 149.74 273.05 149.16 273.02 C 148.85 273.3 148.54 273.59 148.23 273.87 L 148.24 273.86 Z M 158.36 273.38 C 160.56 273.45 162.77 273.51 164.97 273.55 C 162.76 273.51 160.56 273.45 158.36 273.38 Z M 303.78 249.95999 C 303.72 250.04 303.62 250.11998 303.46 250.24 C 303.25 250.4 303.04 250.57 302.82 250.72002 C 302.61 250.88 302.39 251.03 302.17 251.19 C 301.76 251.48 301.34 251.75998 300.91 252.03 C 300.86 252.06 300.81 252.09 300.76 252.12999 C 300.41 252.35 300.06 252.57 299.7 252.77998 C 299.17 253.1 298.65 253.40001 298.11 253.7 C 294.45 255.74 290.6 257.38 286.67 258.83 C 282.96 260.19 279.2 261.38 275.41 262.44 C 269.98 263.96 264.48 265.22 258.93 266.32 C 253.53998 267.4 248.13 268.31 242.7 269.1 C 237.26999 269.89 231.82 270.55 226.35999 271.12 C 224.56999 271.31 222.78 271.48 220.99002 271.65 C 217.4 271.98 213.81 272.26 210.21999 272.5 C 208.42 272.62 206.62 272.73 204.83 272.83 C 200.8 273.06 196.77 273.23 192.74 273.36 C 192.01 273.38 191.28 273.41 190.54001 273.43 C 189.87 273.45 189.2 273.47 188.52 273.49 C 190.16998 271.45 191.82 269.42 193.32999 267.27 C 193.55 267 193.77 266.73 193.97998 266.45 C 197.21 262.1 200.31001 257.67 203.29 253.16 C 203.45 252.91 204.28 251.65 204.53 251.25998 C 206.41998 248.35 208.25 245.41 210.04 242.43 C 212.96 237.55 215.75 232.6 218.4 227.58 C 223.46 228.02 228.51001 228.53 233.56 229.15001 C 233.93 229.19 234.3 229.26999 234.68 229.33 C 236.94 229.49 239.18001 229.83 241.41 230.15999 C 244.28 230.58 247.15 231.04 250.01 231.52 C 253.87 232.17 257.73 232.89 261.56 233.71999 C 263.63 234.17 265.69 234.63 267.76 235.08 C 267.78 235.08 267.81 235.08 267.83 235.09 C 267.85 235.09 267.87 235.09 267.9 235.09999 C 268.03 235.12001 268.18 235.12001 268.32 235.14 C 268.5 235.16 268.68 235.21002 268.82 235.36002 C 273.24 236.49002 277.65 237.67998 281.98 239.11 C 282.38 239.24 282.84 239.28 283.15 239.62 C 284.28 239.82 285.31 240.29 286.37 240.68 C 287.3 241.02 288.23 241.38 289.15 241.75 C 291.78 242.79 294.36 243.94 296.86 245.26999 C 297.85 245.79001 298.82 246.34 299.78 246.92001 C 301.05 247.68999 302.29 248.5 303.45 249.43 C 303.79 249.7 303.89 249.81 303.76 249.96999 L 303.78 249.95999 Z"/>
    <path fill="#ff1100" stroke="none" d="M 331.35 177.89 C 331.23 175.5 330.32 173.39001 328.93 171.47 C 326.97 168.74 324.44 166.61 321.7 164.73 C 317.03 161.53 311.92 159.18 306.69 157.08 C 303.78 155.91 300.83 154.87 297.85 153.91 C 293.31 152.45 288.7 151.2 284.07 150.06 C 278.28 148.64 272.46 147.41 266.6 146.34 C 263.03 145.69 259.45 145.06 255.86 144.54 C 255.75 144.54 255.64 144.53 255.53 144.52 C 255.47 144.52 255.4 144.51 255.34 144.5 C 255.21 144.49 255.07 144.47 254.94 144.46 C 254.64 144.42 254.33 144.36 254.04001 144.29 C 252.97 144.12 251.91 143.95 250.84 143.77 C 250.21999 143.68 249.6 143.59 248.98 143.51 C 248.74 143.47 248.5 143.44 248.26 143.41 C 245.79001 143.11 243.31 142.82 240.83998 142.5 C 240.12 142.41 239.4 142.35 238.68001 142.27 C 237.96 142.2 237.24 142.11 236.53 141.97 C 231.73 141.52 226.93 141.04 222.12 140.65 C 221.45 140.6 220.77998 140.54 220.11002 140.49 C 215.97 140.16 211.83 139.88 207.68 139.68 C 205.69 139.59 203.69 139.48 201.69 139.38 C 200.18 139.31 198.65999 139.23 197.15001 139.17 C 193.69 139.04 190.24 138.96 186.78 138.89 C 185.49 138.86 184.19998 138.84 182.92001 138.82 C 180.75002 138.78 182.92001 138.82 182.92001 138.82 C 182.92001 138.82 185.29 129.28 186.24 124.46 C 186.96002 120.85 187.58 117.22 188.12999 113.58 C 188.49002 111.14001 188.81 108.7 189.09 106.25001 C 189.38002 103.69 189.61 101.12 189.76999 98.5402 C 189.94 95.7902 190.05 93.0302 190.11 90.280205 C 190.17998 86.590195 190.06 82.9102 189.79001 79.2302 C 189.61 76.8002 189.38002 74.3802 189.07 71.9602 C 188.64998 68.6502 188.05 65.3802 187.25998 62.1402 C 186.63 59.5502 185.91 56.9702 184.95001 54.4702 C 184.9 54.4702 184.85 54.4702 184.8 54.4902 C 184.75 54.4902 184.70001 54.510204 184.66 54.5202 C 184.5 54.570206 184.36 54.6502 184.21 54.7102 C 180.01001 56.4702 176.04 58.6602 172.21 61.1002 C 171.98999 61.240204 171.75 61.3502 171.66 61.620205 C 172.58 67.4302 173.01 73.2702 173.06 79.1502 C 173.14001 87.5602 172.52 95.9202 171.37 104.25 C 170.5 110.51999 169.35 116.73999 167.95 122.92 C 166.74 128.28 165.34 133.59 163.78 138.85 C 160.01 138.89 156.23 139.01 152.46 139.13 C 147.44 139.3 142.42 139.53 137.41 139.85 C 132.99 140.13 128.56 140.42 124.14 140.8 C 118.4 141.3 112.670006 141.86 106.95999 142.56 C 105.59 145.4 104.26 148.26 102.98 151.14 C 101.07 155.44 99.2701 159.78 97.5801 164.16 C 97.660095 164.15 97.7301 164.14 97.8101 164.13 C 104.48 163.19 111.18 162.41 117.87999 161.74 C 119.8 161.55 121.72 161.32 123.649994 161.15 C 128.41 160.75 133.18 160.48 137.95 160.18 C 144.15 159.78 150.36 159.53 156.58 159.35 C 156.66 159.35 156.73 159.35 156.81 159.35 C 162.1 159.2 167.39 159.13 172.69 159.12 C 174.02002 159.12 175.35 159.12 176.69002 159.13 C 179.71 159.14 182.74 159.17 185.76 159.22 C 189.19 159.28 192.61 159.41 196.04 159.53 C 196.07 159.53 196.10002 159.53 196.12999 159.53 C 199.41002 159.65 202.69 159.77 205.97 159.93 C 208.49 160.05 211.00998 160.23 213.52998 160.42 C 214.07 160.46 214.61 160.5 215.15 160.54 C 218.93 160.81 222.7 161.09 226.48001 161.38 C 227.41 161.45 228.33 161.58 229.26 161.67 C 234.26 162.11 239.25 162.67 244.23 163.31 C 246.46 163.59 248.68 163.89 250.91 164.19 C 255.6 164.84 260.28 165.62 264.94 166.43 C 269.43 167.22 273.91 168.11 278.35 169.12 C 282.26 170.01 286.15 170.98 290.01 172.03 C 295.08 173.41 300.06 175.02 304.98 176.83998 C 309.23 178.42 313.34 180.28 317.32 182.45 C 320.06 183.94998 322.66 185.63 325.03 187.67 C 327.18 189.51999 329.06 191.6 330.31 194.2 C 330.81 195.23 331.04 196.34 331.36 197.42 C 331.37 195.27 331.39 193.12 331.4 190.97 C 331.4 187.78 331.4 184.57999 331.4 181.39001 C 331.4 180.23 331.44 179.06 331.38 177.91 L 331.35 177.89 Z"/>
    <path fill="#404a5a" stroke="none" d="M 205.12 25.3398 C 204.35 25.0898 203.56 24.909798 202.82 24.559801 C 202.82 24.4598 202.83 24.3598 202.84 24.2598 C 203.75998 24.539803 204.62999 24.9298 205.44 25.4498 C 205.33 25.4098 205.22 25.3798 205.11 25.3398 L 205.12 25.3398 Z"/>
    <path fill="#404a5a" stroke="none" d="M 202.43 24.4002 C 202.43 24.4002 202.5 24.4302 202.52 24.460197 C 202.52 24.460197 202.51 24.460197 202.5 24.460197 C 202.42 24.5102 202.36998 24.4702 202.32002 24.4002 C 202.35999 24.3902 202.39 24.380198 202.43 24.4002 Z"/>
    <path fill="#404a5a" stroke="none" d="M 109.46 82.5701 C 109.46 82.5701 109.44 82.6501 109.41 82.6801 C 109.41 82.6801 109.4 82.6901 109.39 82.7001 C 109.37 82.7201 109.34 82.7301 109.30999 82.7301 C 109.30999 82.7201 109.30999 82.7101 109.30999 82.7001 L 109.30999 82.6701 C 109.30999 82.6701 109.37 82.6101 109.4 82.5901 C 109.42 82.5901 109.44 82.5701 109.46 82.5701 L 109.46 82.5701 Z"/>
    <path fill="#404a5a" stroke="none" d="M 113.58 77.32 C 113.58 77.32 113.51 77.39 113.47 77.41 C 113.42 77.44 113.37 77.4599 113.299995 77.4799 C 113.299995 77.4399 113.299995 77.41 113.299995 77.38 C 113.299995 77.35 113.299995 77.32 113.30999 77.3 C 113.33 77.25 113.35 77.2 113.38 77.16 C 113.41 77.12 113.46 77.09 113.49999 77.05 C 113.549995 77.02 113.6 76.99 113.65 76.96 C 113.66 77.03 113.66 77.0899 113.65 77.1499 C 113.65 77.1999 113.619995 77.23 113.6 77.27 C 113.6 77.28 113.58 77.3 113.58 77.31 L 113.58 77.32 Z"/>
    <path fill="#215cb5" stroke="none" d="M 115.15 75.21 C 115.15 75.21 115.13 75.21 115.13 75.22 C 115.12 75.22 115.1 75.22 115.08999 75.22 C 115.079994 75.22 115.07 75.22 115.05 75.22 C 115.1 75.16 115.15 75.09 115.2 75.03 C 115.2 75.05 115.2 75.06 115.2 75.08 C 115.2 75.13 115.18 75.16 115.14001 75.19 L 115.15 75.21 Z"/>
    <path fill="#215cb5" stroke="none" d="M 115.96 73.9801 C 115.96 73.9301 116 73.8901 116.04 73.8701 C 116.06 73.8701 116.08 73.8601 116.09999 73.8501 C 116.09999 73.8801 116.09 73.8901 116.08 73.9101 C 116.08 73.9301 116.08 73.9501 116.06 73.9701 C 116.06 73.9801 116.04 73.9901 116.03001 74.0001 C 116.01 74.0101 115.98 74.0201 115.96 74.0301 C 115.96 74.0101 115.96 74.0001 115.96 73.9801 L 115.96 73.9801 Z"/>
    <path fill="#fec35e" stroke="none" d="M 186.95 17.3299 C 187.14 17.2499 187.25998 17.3299 187.37001 17.4799 C 187.2 17.5199 187.02 17.5599 186.95 17.3399 L 186.95 17.3299 Z"/>
    <path fill="#fdbf41" stroke="none" d="M 186.94 17.3301 L 186.95 17.3301 L 186.94 17.3401 L 186.94 17.3301 Z"/>
    <path fill="#404a5a" stroke="none" d="M 139.56 48.8001 C 139.62 48.7501 139.67 48.7001 139.73 48.6401 C 139.73 48.6501 139.73 48.6701 139.73 48.6801 C 139.73 48.720104 139.71 48.7401 139.69 48.7701 L 139.68 48.7701 C 139.68 48.7701 139.62 48.8001 139.56 48.8001 Z"/>
    <path fill="#404a5a" stroke="none" d="M 140.73 47.6198 C 140.78 47.5898 140.84 47.5698 140.91 47.5698 C 140.91 47.6598 140.89 47.709797 140.85 47.7298 C 140.79 47.7698 140.68 47.739803 140.6 47.7498 C 140.64 47.6898 140.68 47.649796 140.73 47.6198 Z"/>
    <path fill="#404a5a" stroke="none" d="M 141.48 47.1201 C 141.48 47.1201 141.46 47.200104 141.43 47.2301 C 141.43 47.2301 141.41 47.2401 141.4 47.2501 C 141.38 47.260105 141.35 47.2701 141.32 47.2701 C 141.37 47.2101 141.43 47.140102 141.48 47.0801 C 141.48 47.100105 141.48 47.1101 141.48 47.1301 L 141.48 47.1201 Z"/>
    <path fill="#404a5a" stroke="none" d="M 151.39 39.2599 C 151.39 39.2599 151.37 39.2999 151.36 39.3199 C 151.33 39.3499 151.29 39.3599 151.23 39.3599 C 151.28 39.2999 151.34 39.2499 151.4 39.1899 C 151.4 39.2199 151.4 39.2399 151.4 39.2699 L 151.39 39.2599 Z"/>
    <path fill="#404a5a" stroke="none" d="M 151.21 39.3701 C 151.21 39.3701 151.21 39.4001 151.21 39.4101 C 151.21 39.4501 151.19 39.4701 151.17 39.4801 C 151.15 39.4901 151.13 39.4901 151.09 39.4801 C 151.08 39.4801 151.06 39.4801 151.05 39.4601 C 151.11 39.4301 151.16 39.4001 151.22 39.3701 L 151.21 39.3701 Z"/>
    <path fill="#f1ece2" stroke="none" d="M 202.77 24.2102 C 197.83 22.010202 192.88 19.8202 187.94 17.6102 C 187.73999 17.5202 187.54 17.5902 187.36002 17.4802 C 187.19 17.5202 187.00998 17.5602 186.94 17.3402 C 186.74 17.4302 186.55 17.3402 186.35999 17.2702 C 182.03001 15.970199 177.6 15.5702 173.09 15.800201 C 167.12 16.1102 161.4 17.5702 155.84 19.7202 C 154.09 20.3902 152.37 21.1302 150.69 21.9202 C 150.27 22.1202 149.85 22.3202 149.43 22.5302 C 148.94 22.7702 148.45 23.010202 147.97 23.2702 C 147.32 23.600199 146.68 23.9402 146.03 24.2902 C 142.66 26.1302 139.39 28.1802 136.22 30.380198 C 135.56 30.8402 134.9 31.300198 134.25 31.7702 L 133.86 32.0502 C 132.3 33.1902 130.77 34.3502 129.27 35.5502 C 125.51 38.5402 121.9 41.7202 118.41 45.050198 C 108.72001 54.3002 100.11 64.5102 92.2302 75.3302 C 92.0302 75.6102 91.8302 75.9002 91.6302 76.1802 C 91.6302 76.1802 91.61019 76.2502 91.5902 76.2702 C 91.5702 76.2902 91.54021 76.3002 91.5002 76.3102 C 90.79019 77.3202 90.0902 78.3202 89.380196 79.3302 C 88.2002 81.0102 87.04019 82.6902 85.90019 84.4002 C 84.8202 86.020195 83.7502 87.66021 82.7002 89.3002 C 81.8602 90.60019 81.0402 91.9102 80.2302 93.2302 C 79.5102 94.4102 78.7902 95.5802 78.0802 96.7602 C 77.0802 98.4302 76.0902 100.11 75.1102 101.810005 C 74.6202 102.66 74.1402 103.5 73.6602 104.36 C 73.6102 104.46 73.5402 104.55 73.4802 104.65 C 73.4802 104.76 73.4402 104.85 73.4002 104.94 C 73.3602 105 73.3202 105.07 73.2902 105.13 C 72.8402 105.93001 72.4002 106.74 71.9602 107.55 C 70.3002 110.58 68.6802 113.64 67.1202 116.72001 C 66.4602 118.02 65.8102 119.329994 65.1702 120.64 C 61.7102 127.72 58.5002 134.91 55.5502 142.2 C 53.9802 146.07 52.4902 149.97 51.0702 153.89 C 50.320198 155.97 49.5802 158.06 48.8702 160.16 C 47.560204 164.04 46.3602 167.95 45.1902 171.87001 C 44.7102 173.48 44.2402 175.1 43.7902 176.72 C 43.780197 176.76 43.7702 176.8 43.7602 176.83998 C 43.050198 179.38 42.3902 181.92998 41.7702 184.49 C 41.2002 186.79 40.6502 189.1 40.1402 191.42001 C 39.7002 193.4 39.3002 195.39 38.9002 197.38002 C 38.8102 197.85 38.7202 198.32 38.6302 198.79999 C 38.5902 198.99 38.5602 199.18001 38.5202 199.37 C 38.5102 199.44 38.4902 199.51 38.4802 199.59 C 38.4102 199.97 38.3302 200.33998 38.2602 200.72 C 37.6902 203.83 37.1802 206.95 36.7402 210.09001 C 36.3102 213.12 35.9302 216.14 35.6102 219.18 C 35.5402 219.86002 35.4802 220.54 35.4102 221.22 C 35.4102 221.26999 35.4002 221.32 35.4002 221.37 C 35.3502 221.89001 35.3202 222.26 35.2802 222.63 C 35.1402 224.32 35.0202 226.02 34.9202 227.71 C 34.8202 229.41 34.7402 231.11 34.6902 232.81 C 34.6902 233.03 34.6902 233.25 34.6702 233.46999 C 34.5702 236.74002 34.5502 240 34.6502 243.25998 C 34.7502 246.34 34.9202 249.41 35.2102 252.48 C 35.4902 255.54 35.8802 258.59 36.4102 261.64 C 36.6702 263.13 36.9502 264.61 37.2702 266.08 C 38.3302 271.04 39.7602 275.9 41.7202 280.6 C 41.8602 280.93 41.9902 281.25 42.1402 281.58 C 42.2802 281.9 42.4302 282.23 42.5702 282.55 C 42.9102 283.31 43.2702 284.06 43.6402 284.8 C 44.260197 286.04 44.9202 287.25 45.620205 288.43 C 47.5402 291.67 49.8002 294.68 52.480198 297.4 C 53.180202 298.12 53.910202 298.8 54.6602 299.45 C 56.0702 300.68 57.5702 301.81 59.1702 302.82 C 59.4702 303.01 59.8202 303.12 60.040195 303.41 C 60.0702 303.45 60.100197 303.5 60.1202 303.55 C 60.2702 303.52 60.3802 303.55 60.420197 303.71 C 61.0402 303.86 61.5402 304.28 62.1102 304.53 C 65.1502 305.88 68.1802 307.23 71.2202 308.58 C 72.9502 309.35 74.6902 310.1 76.4302 310.86 L 76.6502 310.66 C 76.0902 310.31 75.5102 309.98 74.9702 309.61 C 74.4002 309.22 73.8602 308.81 73.3202 308.39 C 68.7902 304.87 65.2402 300.48 62.3302 295.51 C 60.5602 292.49 59.1202 289.32 57.880196 286.06 C 57.8502 285.98 57.8202 285.91 57.7902 285.83 C 56.130203 281.42 54.9202 276.88 54.0102 272.26 C 53.5202 269.79 53.1302 267.3 52.7902 264.8 C 52.770195 264.62 52.7402 264.45 52.7202 264.27 C 52.5602 263.04 52.420197 261.8 52.290203 260.57 C 52.100197 258.75 51.9602 256.94 51.8602 255.11 C 51.8402 254.65999 51.8102 254.21 51.7902 253.76 C 51.7902 253.65001 51.780197 253.52998 51.7702 253.42 C 51.6802 250.9 51.5902 248.38 51.6002 245.86 C 51.6002 245.72 51.6002 245.58 51.6002 245.45 C 51.6002 245 51.6002 244.55 51.620205 244.10002 C 51.6802 242.11998 51.7402 240.15 51.8202 238.17998 C 51.8602 237.19 51.910202 236.21 51.970203 235.22002 C 52.030205 234.23001 52.0902 233.25 52.1602 232.26 C 52.420197 228.81 52.770195 225.38 53.1902 221.95 C 53.340202 220.7 53.500195 219.46 53.6802 218.20999 C 53.8702 216.81999 54.0802 215.43001 54.3002 214.05 C 54.4702 212.96 54.6502 211.87001 54.8402 210.78 C 55.050198 209.54 55.2802 208.31001 55.5102 207.07 C 55.8002 205.51 56.1102 203.96 56.4302 202.4 C 56.8002 200.63 57.180202 198.85 57.5802 197.09 C 57.940197 195.52 58.3102 193.95 58.7002 192.38 C 59.1302 190.65 59.5702 188.92 60.030205 187.2 C 60.1402 186.8 60.260197 186.4 60.3802 186 C 60.5002 185.6 60.6202 185.20001 60.7202 184.8 C 60.930195 183.96 61.1002 183.12 61.400204 182.3 C 61.4702 182.21 61.5802 182.12 61.5902 182.02002 C 61.8302 180.04 62.5402 178.19 63.150196 176.33 C 63.4202 175.5 63.6802 174.65999 63.940197 173.82 C 64.3002 172.64998 64.6602 171.48 65.0302 170.31 C 65.3302 169.35 65.6402 168.39 65.9702 167.44 C 66.1002 167.07 66.2202 166.69 66.3502 166.31 C 66.5202 165.83 66.6902 165.35 66.8602 164.87 C 67.5802 162.87 68.2802 160.86 69.0102 158.86 C 69.3102 158.04 69.6202 157.21 69.9302 156.39 C 71.0002 153.58 72.1002 150.79 73.2402 148.02 C 73.5602 147.23 73.8902 146.45 74.2202 145.67 C 74.4902 145.04 74.7502 144.42 75.0102 143.79 C 75.6502 142.31 76.3002 140.83 76.9502 139.35 C 77.4602 138.19 77.9802 137.04 78.5102 135.88 C 78.9102 134.99 79.3202 134.12 79.7302 133.23 C 80.8302 130.87 81.9502 128.53 83.1202 126.19999 C 83.3202 125.79 83.5602 125.4 83.7902 125.01 C 84.0202 124.62 84.2502 124.21999 84.4502 123.8 C 87.8502 116.59 91.8402 109.7 95.9502 102.88 C 96.3202 102.27 96.6802 101.66 97.0502 101.05 C 97.9102 99.6302 98.7302 98.1902 99.7002 96.8602 C 100.31 96.0302 100.87 95.1902 101.42999 94.33021 C 101.99 93.4802 102.54 92.62021 103.11 91.7802 C 104.27 90.1002 105.35 88.3602 106.50001 86.67019 C 106.65 86.4502 106.8 86.2302 106.95 86.0102 C 107.72 84.9002 108.52 83.8102 109.299995 82.7102 C 109.299995 82.7002 109.299995 82.6902 109.299995 82.6802 L 109.299995 82.6502 C 109.299995 82.6502 109.36001 82.5902 109.39 82.5702 C 109.41 82.5702 109.42999 82.5502 109.45 82.5502 C 110.58 81.0302 111.71001 79.5002 112.84 77.9802 C 112.89 77.9102 112.95 77.8502 113 77.7902 C 113.03 77.7602 113.05 77.7302 113.07 77.7102 C 113.14 77.6302 113.21 77.5602 113.28 77.4802 C 113.28 77.4402 113.28 77.4102 113.28 77.3802 C 113.28 77.3502 113.28 77.3202 113.29 77.3002 C 113.30999 77.2402 113.33 77.2002 113.36001 77.1602 C 113.39 77.1202 113.44 77.0902 113.48001 77.0502 C 113.53 77.0202 113.58 76.9902 113.62999 76.9602 C 113.66 76.9302 113.68001 76.9002 113.7 76.8702 C 114.14 76.3202 114.59 75.7702 115.03 75.2202 C 115.079994 75.1602 115.13 75.0902 115.18 75.0302 C 115.18 74.9902 115.2 74.9602 115.22 74.9202 C 115.23 74.8902 115.25 74.8502 115.270004 74.8202 C 115.31 74.7602 115.36 74.7002 115.41 74.6502 C 115.41 74.6402 115.43 74.6302 115.44 74.6202 C 115.63 74.4402 115.87 74.2902 115.92 74.0202 C 115.92 74.0002 115.92 73.9902 115.92 73.9702 C 115.92 73.9202 115.96 73.8802 116 73.8602 C 116.02 73.8602 116.04 73.8502 116.06 73.8402 C 116.19 73.7402 116.31 73.6402 116.409996 73.5202 C 116.44 73.4902 116.46 73.4602 116.48 73.4402 C 116.56 73.3502 116.63 73.2502 116.7 73.1502 C 116.79001 73.0202 116.88 72.8802 116.97 72.7402 C 117.04001 72.6402 117.10999 72.5302 117.17999 72.4302 C 117.23001 72.3602 117.28 72.2902 117.33 72.2302 C 117.67 71.8102 118.02 71.3902 118.36 70.9802 C 120.76 68.0502 123.23 65.1902 125.77 62.3902 C 127.76 60.190205 129.82 58.0602 131.9 55.9502 C 132.26 55.5802 132.63 55.210197 132.99 54.8502 C 133.67 54.1702 134.38 53.5402 135.08 52.890198 C 135.36 52.6302 135.64 52.3802 135.91 52.1102 C 135.97 52.0602 136.02 52.0002 136.08 51.9502 C 136.95 51.1102 137.84 50.2702 138.72 49.4402 C 138.74 49.4202 138.76 49.4102 138.78 49.3902 C 139.01 49.180202 139.27 48.990196 139.51 48.8002 C 139.57 48.7502 139.62 48.7002 139.68 48.6402 C 139.7 48.6202 139.71 48.610195 139.73 48.5902 C 140 48.3102 140.28 48.040195 140.55 47.7602 C 140.59 47.7002 140.63 47.660194 140.68 47.6302 C 140.73 47.6002 140.79 47.5802 140.86 47.5802 C 140.94 47.5702 141.01 47.530197 141.07 47.4902 C 141.11 47.460205 141.15 47.4202 141.19 47.3802 C 141.22 47.3502 141.24 47.310196 141.27 47.2702 C 141.32 47.210197 141.38 47.140205 141.43 47.080204 C 142.14 46.450203 142.85 45.8302 143.58 45.2202 C 143.69 45.1302 143.8 45.0402 143.91 44.9402 C 144.61 44.350204 145.32 43.7702 146.04 43.1902 C 147.65 41.9002 149.31 40.6502 151 39.4702 C 151.06 39.4402 151.11 39.4102 151.17 39.3802 L 151.18 39.3802 C 151.23 39.3102 151.29 39.2502 151.35 39.2002 C 151.73 38.9202 152.12 38.6302 152.5 38.3602 C 153.27 37.8002 154.06 37.2602 154.84 36.7302 C 155.23 36.4702 155.63 36.2002 156.03 35.9502 C 156.43 35.6902 156.83 35.4302 157.23 35.1802 C 158.44 34.4202 159.66 33.6802 160.9 32.9702 C 162.25 32.1902 163.63 31.440199 165.01 30.7202 C 169.17 28.5802 173.47 26.7702 177.96999 25.4302 C 178.31 25.330198 178.66 25.2302 179 25.1302 C 181.40001 24.460197 183.81001 23.950201 186.26 23.6202 C 187.65 23.4302 189.06 23.300198 190.47 23.2402 C 191.53 23.1902 192.58998 23.1802 193.66 23.2102 C 194.02 23.220198 194.36998 23.2302 194.73001 23.250198 C 195.8 23.3102 196.86 23.4202 197.91998 23.5702 C 199.39 23.7702 200.83998 24.0502 202.29 24.4202 C 202.33002 24.410198 202.35999 24.4002 202.4 24.4202 C 202.44 24.4202 202.47002 24.4502 202.49 24.4802 C 202.52 24.490198 202.56 24.5002 202.59 24.5102 C 202.66 24.5302 202.72002 24.5502 202.79 24.5802 C 202.79 24.4802 202.8 24.380198 202.81 24.2802 C 202.79 24.2602 202.77 24.2402 202.74 24.2302 L 202.77 24.2102 Z"/>
    <path fill="#fdbf41" stroke="none" d="M 186.95 17.3299 C 186.88 17.0199 186.58 16.9899 186.35999 16.8899 C 182.1 14.9999 177.84001 13.0999 173.56 11.2299 C 172.42 10.7299 171.32 10.1499 170.14 9.74986 C 170.01 9.82986 169.87 9.81985 169.73 9.76985 C 166.8 8.80985 163.76 8.32986 160.7 8.13986 C 157.89 7.96986 155.07 8.13986 152.28 8.50986 C 149.98 8.81986 147.72 9.29986 145.48 9.89986 C 141.13 11.0699 136.95 12.6599 132.92 14.6499 C 131.37 15.4199 129.87 16.2899 128.34 17.0999 C 127.83001 17.3699 127.3 17.6099 126.81 17.8999 C 122.43 20.5099 118.18 23.3199 114.15 26.4499 C 113.14 27.2299 112.11 27.9899 111.17 28.839901 C 110.56 29.3899 109.97 29.949902 109.30999 30.429897 C 109.19 30.5199 109.05999 30.6099 108.91001 30.6999 C 108.8 30.7999 108.69 30.8899 108.58 30.979902 L 108.58 30.9999 C 108.53 31.1299 108.48 31.249903 108.4 31.3199 C 108.350006 31.3599 108.3 31.379898 108.24 31.3899 C 108.21 31.3899 108.16999 31.3899 108.14 31.3899 L 108.12 31.3899 C 108.12 31.3899 108.06 31.3699 108.02 31.3599 C 107.99 31.379898 107.96 31.3999 107.94 31.4199 C 107.590004 31.6699 107.399994 32.0999 107.079994 32.3499 C 107.03 32.3899 106.98 32.4199 106.93 32.4499 C 106.09 32.8899 105.58 33.6799 104.83 34.2199 C 104.11 34.7399 103.51 35.4299 102.85 36.0399 C 99.5798 39.0499 96.4898 42.2399 93.4298 45.4599 C 92.4898 46.449898 91.6498 47.5098 90.7498 48.539795 C 90.2298 49.1298 89.64981 49.6499 89.1398 50.229897 C 87.74981 51.8199 86.3998 53.4499 85.0298 55.049904 C 84.0098 56.2399 83.0498 57.469894 82.1398 58.739895 C 81.4198 59.749905 80.5598 60.6499 79.7898 61.6199 C 77.4598 64.6099 75.2498 67.6898 73.0398 70.7598 C 70.8598 73.7898 68.8598 76.9399 66.7898 80.0499 C 64.9298 82.8399 63.2198 85.7299 61.4498 88.5899 C 60.7998 89.6499 60.219803 90.7499 59.5598 91.80989 C 58.4298 93.6299 57.3798 95.49981 56.3898 97.39981 C 55.7698 98.1398 55.3998 99.039894 54.9298 99.8699 C 53.9498 101.61001 53.009804 103.37 52.1598 105.17999 C 51.8898 105.76 51.4998 106.25001 51.2198 106.83 C 50.4298 108.44 49.6298 110.05001 48.7998 111.649994 C 46.7298 115.67 44.909805 119.8 43.0198 123.91 C 40.9698 128.35 39.1498 132.9 37.3498 137.45 C 36.1298 140.54 34.8998 143.63 33.9298 146.81 C 33.7698 147.33 33.4698 147.8 33.2898 148.31 C 32.3498 151.05 31.4098 153.78 30.5198 156.53 C 29.6898 159.06 28.909798 161.61 28.1598 164.16 C 27.4398 166.62 26.749802 169.08 26.0898 171.55 C 24.7998 176.33998 23.619802 181.16 22.6098 186.01 C 22.3498 187.3 22.0898 188.59 21.8398 189.88002 C 20.9798 194.27 20.2198 198.69 19.5998 203.13 C 19.0198 207.35 18.5398 211.58 18.1598 215.82 C 18.1298 216.21 18.0998 216.6 18.0698 216.99 C 18.0698 217.35 18.0698 217.70999 18.0698 218.07002 C 18.0698 217.70999 18.0698 217.35 18.0698 216.99 C 17.8898 219.31 17.7498 221.64001 17.6598 223.98 C 17.5498 226.65 17.5298 229.32 17.5098 231.99 C 17.5098 233.26 17.6398 234.54 17.6298 235.82 C 17.6098 237.76999 17.7798 239.71 17.8898 241.65 C 17.9298 242.35999 17.9598 243.08 18.0298 243.8 C 18.0398 243.92 18.0598 244.05 18.0698 244.17 C 18.2998 246.04001 18.4498 247.92 18.7098 249.78 C 18.9598 251.59 19.2098 253.40001 19.5398 255.19 C 20.0198 257.69 20.4698 260.19 21.2398 262.62 C 21.479801 263.38 21.6098 264.18 21.829798 264.96 C 22.289799 266.66 22.8398 268.34 23.4398 269.99 C 24.3098 272.36 25.3098 274.68 26.3898 276.96 C 28.0598 280.46 30.129799 283.72 32.5598 286.74 C 34.8598 289.61 37.4898 292.14 40.4998 294.26 C 40.6198 294.35 40.7498 294.43 40.8798 294.51 C 41.0998 294.65 41.3198 294.79 41.5398 294.93 C 41.6598 295.01 41.7898 295.09 41.9198 295.17 C 42.3398 295.43 42.7498 295.7 43.1498 295.99 C 43.1498 295.99 43.1598 295.99 43.169804 296 C 43.2898 296.09 43.4098 296.18 43.5298 296.28 C 43.5298 296.3 43.549797 296.32 43.5598 296.34 C 43.6298 296.44 43.7698 296.45 43.8798 296.5 C 49.0798 298.8 54.2698 301.1 59.4698 303.4 C 59.679802 303.49 59.8798 303.63 60.1298 303.57 C 60.0998 303.52 60.0798 303.48 60.0498 303.43 C 59.8298 303.14 59.4798 303.03 59.1798 302.84 C 57.5898 301.83 56.0798 300.7 54.6698 299.47 C 53.9198 298.82 53.1898 298.13 52.4898 297.42 C 49.809795 294.7 47.549797 291.68 45.6298 288.45 C 44.9298 287.27 44.2698 286.06 43.649796 284.82 C 43.2798 284.08 42.9198 283.33 42.5798 282.57 C 42.4298 282.24 42.2898 281.92 42.1498 281.59 C 42.0098 281.26 41.8698 280.94 41.7298 280.61 C 39.7698 275.91 38.3498 271.05 37.2798 266.09 C 36.9598 264.62 36.6798 263.14 36.4198 261.65 C 35.8998 258.61 35.5098 255.56001 35.2198 252.49002 C 34.9298 249.43 34.7598 246.35 34.6598 243.27 C 34.5598 240.01 34.5798 236.74002 34.6798 233.47998 C 34.6898 233.26 34.6898 233.04 34.6998 232.81999 C 34.7598 231.12 34.8398 229.42 34.9298 227.72 C 35.0298 226.03 35.1498 224.33 35.2898 222.64 C 35.3198 222.27002 35.3598 221.9 35.4098 221.38002 C 35.4098 221.33 35.4198 221.27998 35.4198 221.23 C 35.4798 220.55 35.5398 219.87001 35.6198 219.19 C 35.9298 216.15 36.3198 213.12 36.7498 210.1 C 37.1998 206.96 37.7098 203.84 38.2698 200.73 C 38.3398 200.35 38.4198 199.98 38.4898 199.6 C 38.4998 199.53 38.5198 199.46 38.5298 199.38 C 38.5698 199.19 38.5998 199 38.6398 198.80998 C 38.7298 198.33 38.8198 197.86 38.9098 197.39001 C 39.2998 195.4 39.7098 193.41 40.1498 191.43001 C 40.6598 189.11 41.2098 186.8 41.7798 184.5 C 42.4098 181.94 43.069805 179.39 43.7698 176.85 C 43.7698 176.81 43.7898 176.77 43.799805 176.73 C 44.249798 175.11 44.7198 173.49 45.1998 171.88 C 46.3698 167.96 47.579803 164.05 48.8798 160.17 C 49.5898 158.07 50.3298 155.98 51.0798 153.9 C 52.499805 149.97 53.9898 146.07 55.5598 142.21 C 58.5098 134.92 61.709797 127.73 65.1798 120.65 C 65.8198 119.340004 66.4698 118.03 67.1298 116.729996 C 68.6898 113.65 70.3098 110.59 71.9698 107.56 C 72.4098 106.75 72.8598 105.94 73.2998 105.14 C 73.3398 105.08 73.3798 105.01 73.4098 104.95 C 73.4598 104.85999 73.4998 104.77 73.4898 104.659996 C 73.5498 104.56 73.6198 104.46 73.6698 104.37 C 74.1498 103.52 74.6298 102.67 75.1198 101.82 C 76.0998 100.13 77.0798 98.4499 78.0898 96.7699 C 78.7998 95.5899 79.5198 94.40989 80.2398 93.2399 C 81.0498 91.9199 81.8698 90.6099 82.7098 89.3099 C 83.7598 87.66991 84.8298 86.02989 85.9098 84.4099 C 87.0498 82.6999 88.2098 81.0199 89.3898 79.3399 C 90.0898 78.3299 90.7998 77.3299 91.5098 76.3199 C 91.5098 76.2999 91.5098 76.2798 91.5098 76.2598 C 91.5098 76.2498 91.5198 76.2299 91.5298 76.2199 C 91.5498 76.1899 91.5898 76.1798 91.62981 76.1798 C 91.8298 75.8998 92.01979 75.6099 92.2298 75.3299 C 100.11 64.5099 108.72001 54.3099 118.41 45.049904 C 121.9 41.7199 125.49999 38.5399 129.27 35.5499 C 130.77 34.3499 132.3 33.1899 133.86 32.0499 L 134.25 31.7699 C 134.9 31.299898 135.56 30.839901 136.22 30.379898 C 139.4 28.1799 142.66 26.1299 146.03 24.2899 C 146.67 23.9399 147.32 23.5999 147.97 23.269897 C 148.46 23.0199 148.94 22.7699 149.43 22.5299 C 149.85 22.3199 150.27 22.1199 150.69 21.9199 C 152.38 21.1299 154.09 20.3899 155.84 19.7199 C 161.4 17.5799 167.12 16.1199 173.09 15.7999 C 177.59001 15.5599 182.02002 15.9599 186.35999 17.2699 C 186.55 17.3299 186.74 17.4199 186.94 17.3399 C 186.94 17.3399 186.94 17.3299 186.94 17.3399 L 186.95 17.3299 Z M 17.9998 238.32 C 17.9998 238.40999 17.9998 238.51 17.9998 238.6 C 17.9998 238.51 17.9998 238.40999 17.9998 238.32 Z"/>
    <path fill="#c18b00" stroke="none" d="M 91.52999 76.2099 C 91.52999 76.2099 91.590004 76.1699 91.63 76.1699 C 91.63 76.2099 91.61 76.2399 91.590004 76.2599 C 91.57 76.2799 91.54 76.2899 91.5 76.2999 C 91.5 76.2799 91.5 76.2599 91.5 76.2399 C 91.5 76.2299 91.51 76.2099 91.52 76.1999 L 91.52999 76.2099 Z"/>
    <path fill="#c18b00" stroke="none" d="M 108.11 31.08 C 108.16999 31.01 108.24 30.97 108.34 30.96 C 108.4 30.96 108.48 30.96 108.56 30.98 L 108.56 31 C 108.51 31.13 108.46 31.25 108.38 31.32 C 108.33 31.36 108.28 31.38 108.21999 31.390001 C 108.19 31.390001 108.15001 31.390001 108.12 31.390001 L 108.09999 31.390001 C 108.09999 31.390001 108.04 31.370003 108 31.36 C 108.02 31.24 108.06 31.14 108.12 31.08 L 108.11 31.08 Z"/>
    <path fill="#ff1100" stroke="none" d="M 169.2 9.34019 C 165.33 7.61019 161.45 5.9302 157.6 4.1802 C 153.19 2.1702 148.61 0.930195 143.76 0.700195 C 142.54 0.700195 141.31 0.700197 140.09 0.710197 C 139.61 0.710197 139.13 0.710197 138.66 0.710197 C 136.22 0.840197 133.81 1.2002 131.42 1.7102 C 124.37 3.2102 117.810005 5.9702005 111.52 9.4302 C 105.19 12.9102 99.3102 17.0702 93.7202 21.6302 C 93.01019 22.2102 92.2402 22.7402 91.6202 23.440199 C 91.5702 23.460197 91.5202 23.5002 91.49019 23.5502 L 91.49019 23.6102 C 91.49019 23.6102 91.4702 23.6102 91.4602 23.6102 C 91.4402 23.6102 91.4302 23.6102 91.4302 23.6102 C 91.2702 23.7402 91.1102 23.8602 90.9502 23.9902 C 84.7602 29.2902 79.0102 35.0402 73.5702 41.1102 C 67.1102 48.3302 61.150196 55.9502 55.5802 63.8702 C 47.2802 75.6702 39.9302 88.05019 33.3802 100.9 C 28.9602 109.560005 24.9402 118.41 21.3202 127.44 C 17.5502 136.86 14.0902 146.4 11.310201 156.17 C 11.000199 157.25 10.6202 158.32 10.3102 159.4 C 8.03019 167.45 6.06019 175.57 4.51019 183.79 C 3.19019 190.76 2.14019 197.76 1.45019 204.82 C 0.940186 209.94 0.59019 215.07 0.61019 220.22 C 0.61019 222.55998 0.620187 224.9 0.630187 227.23999 C 0.660187 227.56 0.67019 227.88 0.68019 228.2 C 0.69019 228.7 0.68019307 229.19 0.660193 229.69 C 0.68019307 232.54 0.920192 235.37001 1.19019 238.21 C 1.6401901 242.84 2.34019 247.42001 3.3701897 251.95 C 4.65019 257.63 6.40019 263.14 8.89019 268.41 C 11.5602 274.05 14.9502 279.18 19.5302 283.47 C 22.2002 285.97 25.140198 288.08 28.4502 289.63 C 31.3902 291.01 34.3702 292.3 37.3502 293.61 C 39.3902 294.51 41.4102 295.48 43.4902 296.28 C 43.370197 296.19 43.2502 296.09 43.1302 296 C 43.1302 296 43.1202 296 43.1102 295.99 C 42.7102 295.7 42.3002 295.43 41.8802 295.17 C 41.7502 295.09 41.6302 295.01 41.5002 294.93 C 41.2802 294.79 41.0602 294.66 40.8402 294.51 C 40.7102 294.43 40.5902 294.34 40.4602 294.26 C 37.4502 292.13 34.8302 289.61 32.5202 286.74 C 30.090202 283.72 28.0202 280.46 26.3502 276.96 C 25.2602 274.68 24.2602 272.36 23.4002 269.99 C 23.170202 269.78 22.950201 269.56 22.7302 269.34 C 22.950201 269.56 23.170202 269.78 23.4002 269.99 C 22.8002 268.34 22.250198 266.66 21.790201 264.96 C 21.5802 264.19 21.4402 263.39 21.2002 262.62 C 20.4302 260.19 19.9702 257.69 19.5002 255.19 C 19.1602 253.40001 18.9202 251.59 18.6702 249.78 C 18.4102 247.92 18.2502 246.04001 18.0302 244.17 C 18.0202 244.05 18.0002 243.92 17.9902 243.8 C 17.9902 246.19 17.9902 248.57999 17.9902 250.97002 C 17.9902 248.57999 17.9902 246.19 17.9902 243.8 C 17.9202 243.09 17.8902 242.36998 17.8502 241.65 C 17.7502 239.71 17.5802 237.76999 17.5902 235.82 C 17.5902 234.55 17.4602 233.27 17.4702 231.99 C 17.4902 229.32 17.5202 226.65 17.6202 223.98 C 17.7102 221.65001 17.8502 219.32 18.0302 216.99 C 18.0602 216.6 18.0902 216.21 18.1202 215.82 C 18.5002 211.58 18.9802 207.35 19.5602 203.13 C 20.1802 198.69 20.9402 194.27 21.8002 189.88002 C 22.0502 188.59 22.3102 187.3 22.5702 186.01 C 23.5702 181.15001 24.7602 176.33998 26.0502 171.55 C 26.710201 169.08 27.4002 166.61 28.1202 164.16 C 28.870201 161.6 29.6502 159.06 30.4802 156.53 C 31.380198 153.78 32.3202 151.04 33.2502 148.31 C 33.4202 147.79 33.7302 147.32 33.8902 146.81 C 34.8702 143.63 36.0902 140.54 37.3102 137.45 C 39.1102 132.9 40.9302 128.36 42.9802 123.91 C 44.8702 119.81 46.6902 115.67 48.7602 111.649994 C 49.5802 110.05001 50.3902 108.44 51.180202 106.83 C 51.460205 106.26 51.8602 105.76 52.1202 105.17999 C 52.9702 103.37 53.910202 101.61001 54.890198 99.8702 C 55.3602 99.04019 55.7302 98.1402 56.350204 97.4002 C 57.340202 95.5002 58.3902 93.63021 59.5202 91.8102 C 60.1802 90.7602 60.7602 89.6502 61.4102 88.5902 C 63.1702 85.7302 64.8802 82.8502 66.7502 80.0502 C 68.8202 76.9402 70.8202 73.7902 73.0002 70.7602 C 75.2102 67.6902 77.4202 64.6102 79.7502 61.620205 C 80.5102 60.6402 81.3702 59.750202 82.1002 58.7402 C 83.0102 57.4702 83.9702 56.2402 84.9902 55.050198 C 86.3602 53.4402 87.7102 51.8102 89.1002 50.2302 C 89.6102 49.6502 90.1902 49.1302 90.7102 48.5402 C 91.61019 47.5202 92.4502 46.450203 93.39019 45.460205 C 96.4502 42.2402 99.54021 39.0502 102.81 36.0402 C 103.47 35.4302 104.07 34.7402 104.79001 34.2202 C 105.54 33.6802 106.04 32.8902 106.89001 32.4502 C 106.94001 32.4202 107 32.3902 107.04 32.3502 C 107.36 32.1002 107.55 31.6702 107.90001 31.4202 C 107.93 31.4002 107.96 31.380198 107.98 31.360199 C 108 31.2402 108.04 31.140198 108.09999 31.0802 C 108.16 31.010202 108.23 30.9702 108.33 30.9602 C 108.39 30.9602 108.47001 30.9602 108.55 30.980202 C 108.659996 30.8902 108.77 30.790201 108.88 30.7002 C 109.03 30.600199 109.15 30.520199 109.28 30.4302 C 109.94 29.950201 110.53 29.4002 111.14001 28.8402 C 112.08 27.980202 113.12 27.2302 114.12001 26.4502 C 118.15 23.3202 122.4 20.5102 126.78 17.9002 C 127.27999 17.6102 127.8 17.3702 128.31 17.1002 C 129.84 16.2802 131.34 15.4102 132.89 14.6502 C 136.92 12.6602 141.11 11.0702 145.45 9.9002 C 147.69 9.3002 149.95 8.8302 152.25 8.5102 C 155.04 8.1302 157.86 7.9702005 160.67 8.1402 C 163.74 8.3302 166.77 8.8102 169.7 9.7702 C 169.85 9.8202 169.98 9.8302 170.11 9.7502 C 169.86 9.4802 169.48 9.48019 169.17 9.34019 L 169.2 9.34019 Z"/>
    <path fill="#ff1100" stroke="none" d="M 108.21999 29.9602 C 108.21999 29.9602 108.16999 29.9202 108.15001 29.9102 C 108.18 29.930202 108.2 29.9402 108.21999 29.9602 Z"/>
    <path fill="#ff1100" stroke="none" d="M 107.7 29.6401 C 107.81 29.6901 107.91 29.750097 108.01 29.810102 C 107.91 29.750097 107.81 29.6901 107.7 29.6401 Z"/>
    <path fill="#fec35e" stroke="none" d="M 143.76 0.689766 L 140.09 0.689766 C 139.61 0.709766 139.13 0.70976293 138.66 0.70976293 C 138.64 0.649763 138.61 0.589762 138.59 0.529762 C 140.33 0.529762 142.08 0.529766 143.82 0.509766 C 143.8 0.569766 143.78 0.629766 143.76 0.689766 Z"/>
    <path fill="#c18b00" stroke="none" d="M 91.4602 23.620102 L 91.4302 23.620102 L 91.4302 23.5601 L 91.5002 23.5601 L 91.5002 23.6301 C 91.5002 23.6301 91.480194 23.6301 91.4702 23.6301 L 91.4602 23.620102 Z"/>
    <g opacity="0.48">
        <path fill="url(#paint0_linear_103_204)" stroke="none" d="M 303.63 250.1 C 304.13 249.70999 304.13 249.67 303.63 249.28 C 302.47 248.35 301.23 247.54 299.96 246.77002 C 295.72 244.2 291.19 242.24 286.55 240.54 C 285.49 240.15 284.46 239.68 283.33 239.48 C 283.02 239.13 282.56 239.1 282.16 238.97 C 277.83 237.52998 273.42 236.35 269 235.22002 C 268.63 235.19 268.27 235.10999 267.95 234.93 C 265.88 234.48001 263.81 234.02 261.75 233.57002 C 257.92 232.74 254.07 232.02 250.20999 231.37 C 247.35 230.89 244.48 230.44 241.61 230.01 C 239.37 229.67998 237.13002 229.34 234.86998 229.18 C 234.5 229.12 234.13 229.05 233.75 229 C 225.84001 228.03 217.92 227.3 209.96999 226.75 C 204.77998 226.4 199.59 226.11998 194.39 225.92 C 187.60002 225.66 180.8 225.54 174 225.54 C 165.57 225.54 157.15 225.75 148.74 226.16 C 139.02 226.63 129.32 227.37001 119.649994 228.45 C 118.06999 228.62999 116.47001 228.73 114.91 229.07 C 114.59 228.98 114.28 229.07 113.96 229.1 C 107.07 229.95 100.21 231 93.39019 232.29 C 89.3602 233.05 85.3502 233.89 81.3702 234.84 L 81.2902 234.97002 C 81.2902 234.97002 80.2602 249.79 82.5402 264.26 C 86.47019 265.19 90.4202 266.02 94.3802 266.76 C 97.9202 267.42 101.47 268.05 105.04001 268.56 C 110.04 269.28 115.05 270.01 120.08 270.53 C 124.97 271.04 129.85 271.57 134.75 271.93 C 137.65 272.14 140.54 272.39 143.44 272.56 C 147.73 272.81 152.03 273.02 156.32 273.17 C 160.24 273.31 164.16 273.42 168.08 273.47 C 174.35 273.55 180.62999 273.52 186.9 273.39 C 192.94002 273.26 198.98 273.03 205.01 272.69 C 212.2 272.29 219.38 271.72 226.55 270.98 C 237.48 269.85 248.35 268.33 259.12 266.18 C 268.53 264.3 277.83 262 286.85 258.68 C 290.78 257.24 294.63 255.59 298.29 253.55 C 300.15 252.52 301.95 251.4 303.63 250.09001 L 303.63 250.1 Z"/>
    </g>
</svg>
