<svg width="256" height="256" xmlns="http://www.w3.org/2000/svg">
    <g>
        <path fill="#2aa8e0" fill-rule="evenodd" stroke="none" d="M -0.5 -0.5 C 84.8333 -0.5 170.167 -0.5 255.5 -0.5 C 255.5 84.8333 255.5 170.167 255.5 255.5 C 170.167 255.5 84.8333 255.5 -0.5 255.5 C -0.5 170.167 -0.5 84.8333 -0.5 -0.5 Z"/>
    </g>
    <g>
        <path fill="#0b0506" fill-rule="evenodd" stroke="none" d="M 97.49999 69.5 C 104.555 69.2703 111.555 69.7703 118.50001 71 C 122.954994 72.9789 127.45501 74.8122 132 76.5 C 135.812 75.8541 139.646 75.3541 143.5 75 C 167.074 64.5569 186.90799 69.3902 203 89.49999 C 213.364 107.507 212.697 125.17299 201 142.5 C 182.16699 161.333 163.333 180.167 144.5 199 C 136.404 203.085 129.071 202.085 122.50001 196 C 116.39 195.912 110.38999 195.245 104.5 194 C 86 175.5 67.5 157 49 138.5 C 39.4121 123.008 39.0788 107.341 48 91.5 C 57.2807 80.6234 69.114 75.1234 83.5 75 C 87.9833 72.4549 92.65 70.6215 97.49999 69.5 Z"/>
    </g>
    <g>
        <path fill="#e52f29" fill-rule="evenodd" stroke="none" d="M 70.5 79.5 C 85.9556 77.4289 98.955605 82.0956 109.49999 93.49999 C 124.495 77.7467 141.495 75.2467 160.5 86 C 175.42001 99.035805 178.587 114.53601 170 132.5 C 150.78 152.719 131.28 172.552 111.5 192 C 109.365005 192.63501 107.365 192.301 105.49999 191 C 88 173.5 70.5 156 53 138.5 C 41.1748 121.562 41.6748 105.062004 54.5 89 C 59.4665 85.0245 64.7998 81.8578 70.5 79.5 Z"/>
    </g>
    <g>
        <path fill="#67212c" fill-rule="evenodd" stroke="none" d="M 97.49999 80.5 C 102.65 79.3493 107.98401 79.1826 113.49999 80 C 115.245995 80.4709 116.913 81.1376 118.50001 82 C 115.329 84.3414 112.329 86.84139 109.49999 89.49999 C 106.047 85.706 102.047 82.706 97.49999 80.5 Z"/>
    </g>
    <g>
        <path fill="#6c232f" fill-rule="evenodd" stroke="none" d="M 156.5 80.5 C 178.259 76.7198 192.759 85.3865 200 106.50001 C 201.935 117.017 199.935 126.68301 194 135.5 C 175.16702 154.333 156.333 173.167 137.5 192 C 130.5 192.667 123.5 192.667 116.5 192 C 134 174.5 151.5 157 169 139.5 C 177.77098 127.23899 179.771 113.906 175 99.5 C 171.319 90.65371 165.153 84.3203 156.5 80.5 Z"/>
    </g>
    <g>
        <path fill="#ef8254" fill-rule="evenodd" stroke="none" d="M 72.5 113.49999 C 75.6492 113.211006 78.6492 113.711 81.5 115 C 90.1667 123.66699 98.8333 132.333 107.5 141 C 108.5 141.667 109.49999 141.667 110.50001 141 C 114.348 136.984 118.348 133.151 122.50001 129.5 C 133.971 127.468 137.471 131.802 133 142.5 C 126.167 149.333 119.333 156.167 112.5 163 C 110.50001 163.667 108.5 163.667 106.50001 163 C 94.3333 150.833 82.1667 138.667 70 126.50001 C 67.4582 121.438 68.2915 117.104996 72.5 113.49999 Z"/>
    </g>
    <g>
        <path fill="#ef8253" fill-rule="evenodd" stroke="none" d="M 138.5 113.49999 C 149.832 113.344 152.832 118.177 147.5 128 C 137.898 131.069 133.732 127.569 135 117.49999 C 135.69 115.649994 136.856 114.316 138.5 113.49999 Z"/>
    </g>
</svg>
