<svg width="200" height="200" xmlns="http://www.w3.org/2000/svg">
    <path fill="#d62825" stroke="none" d="M 200 100 C 200 155.22847 155.22847 200 100 200 C 44.771526 200 0 155.22847 0 100 C -0 44.771526 44.771526 0 100 0 C 155.22847 0 200 44.771526 200 100 Z"/>
    <path fill="#ffffff" stroke="none" d="M 84.774 126.953 L 75.417 130.847 L 165.199 64.487 L 61.866 64.487 C 53.455 64.487 46.637 71.305 46.637 79.716 C 46.637 83.432 48.013 86.051 48.013 86.051 C 66.93 71.161 95.13 71.504 110.563 71.504 L 119.92 67.608 L 30.137999 133.97 L 147.631 133.97 C 156.042 133.97 162.86 127.15201 162.86 118.741005 C 162.86 109.879 159.337 105.086006 159.337 105.086006 C 144.011 123.96999 113.751 126.95201 84.774 126.95201 Z"/>
</svg>
