<svg width="85.333336" height="85.333336" xmlns="http://www.w3.org/2000/svg">
    <g transform="matrix(1.3333334 0 0 1.3333334 0 0)">
        <g transform="matrix(0.1 0 0 -0.1 0 64)">
            <path fill="#000000" stroke="none" d="M 223 621 C 114 584 46 512 13 401 C -26 267 45 104 171 40 L 210 20 L 210 129 L 210 239 L 246 215 C 334 155 450 216 450 323 C 450 360 450 360 490 360 C 528 360 530 359 530 328 C 530 209 433 110 318 110 C 291 110 290 108 290 54 L 290 -2 L 345 2 C 421 8 524 62 566 117 C 609 173 640 259 640 320 C 640 426 573 542 483 592 L 430 622 L 430 511 L 430 401 L 394 425 C 305 485 190 424 190 317 C 190 279 190 279 153 282 C 120 285 115 289 112 312 C 100 416 204 529 313 530 L 350 530 L 350 585 L 350 640 L 313 640 C 292 639 252 631 223 621 Z"/>
        </g>
    </g>
</svg>
