<svg width="203.2" height="203.2" xmlns="http://www.w3.org/2000/svg">
    <path fill="#4e4e4e" stroke="none" d="M 196.6 101.6 L 159.6 101.6 C 159.6 80.3 152.2 62.8 137.3 49.4 L 137.1 49.4 C 122.19999 35.9 103.1 29 80.1 29 C 57.099995 29 37.8 35.9 22.499998 49.699997 C 9.1 61.9 1.6 76.8 0 94.3 C -0.4 98.19999 2.7 101.6 6.6 101.6 L 43.6 101.6 C 43.6 122.9 51 140.4 65.9 153.8 C 80.8 167.3 99.90001 174.2 122.9 174.2 C 145.9 174.2 165.2 167.3 180.50002 153.5 C 194 141.3 201.6 126.4 203.2 108.9 C 203.60002 105 200.5 101.6 196.6 101.6 Z M 158 108 C 158 124.5 155.2 137.4 149.7 146.6 C 144 156 136.4 160.6 126.700005 160.6 C 117 160.6 106.700005 154.6 99.6 142.4 C 96.4 137.1 93.9 130.9 92.2 124.2 C 88.8 111.1 77.1 101.7 63.699997 101.7 L 45.3 101.7 L 45.3 95.3 C 45.3 78.8 48.1 65.9 53.6 56.7 C 59.3 47.3 66.9 42.7 76.6 42.7 C 86.3 42.7 96.600006 48.7 103.7 60.900005 C 106.9 66.2 109.4 72.4 111.1 79.1 C 114.50001 92.2 126.19999 101.6 139.6 101.6 L 158 101.6 L 158 108 Z"/>
</svg>
