<svg width="480" height="480" xmlns="http://www.w3.org/2000/svg">
    <defs>
        <linearGradient id="paint0_linear-610315" x1="240" y1="0" x2="240" y2="701.818" gradientUnits="userSpaceOnUse">
            <stop offset="0" stop-color="#08021e"/>
            <stop offset="1" stop-color="#1f0777"/>
        </linearGradient>
        <mask id="mask0-113404" mask-type="alpha" maskUnits="userSpaceOnUse" x="0" y="0" width="480" height="480">
            <path fill="url(#paint0_linear-610315)" stroke="none" d="M 480 240 C 480 372.5483 372.5483 480 240 480 C 107.45166 480 0 372.5483 0 240 C -0 107.45166 107.45166 0 240 0 C 372.5483 0 480 107.45166 480 240 Z"/>
        </mask>
    </defs>
    <g mask="url(#mask0-113404)">
        <path fill="#31d8a4" stroke="none" d="M 480 240 C 480 372.5483 372.5483 480 240 480 C 107.45166 480 0 372.5483 0 240 C -0 107.45166 107.45166 0 240 0 C 372.5483 0 480 107.45166 480 240 Z"/>
        <path fill="#ffffff" stroke="none" d="M 448 240 C 448 354.8752 354.8752 448 240 448 C 125.12477 448 32 354.8752 32 240 C 32 125.12477 125.12477 32 240 32 C 354.8752 32 448 125.12477 448 240 Z"/>
    </g>
    <path fill="#0e052f" stroke="none" d="M 424 240 C 424 341.6204 341.6204 424 240 424 C 138.37961 424 56 341.6204 56 240 C 56 138.37961 138.37961 56 240 56 C 341.6204 56 424 138.37961 424 240 Z"/>
    <path fill="#627eea" stroke="none" d="M 240 424 C 341.62 424 424 341.62 424 240 C 424 138.38 341.62 56 240 56 C 138.38 56 56 138.38 56 240 C 56 341.62 138.38 424 240 424 Z"/>
    <path fill="#ffffff" fill-opacity="0.602" stroke="none" d="M 245.728 102 L 245.728 204.005 L 331.944 242.53 L 245.728 102 Z"/>
    <path fill="#ffffff" stroke="none" d="M 245.727 102 L 159.5 242.53 L 245.727 204.005 L 245.727 102 Z"/>
    <path fill="#ffffff" fill-opacity="0.602" stroke="none" d="M 245.728 308.631 L 245.728 377.942 L 332.001 258.583 L 245.728 308.631 Z"/>
    <path fill="#ffffff" stroke="none" d="M 245.727 377.942 L 245.727 308.62 L 159.5 258.583 L 245.727 377.942 Z"/>
    <path fill="#ffffff" fill-opacity="0.2" stroke="none" d="M 245.728 292.59 L 331.944 242.53 L 245.728 204.028 L 245.728 292.59 Z"/>
    <path fill="#ffffff" fill-opacity="0.602" stroke="none" d="M 159.5 242.53 L 245.727 292.59 L 245.727 204.028 L 159.5 242.53 Z"/>
</svg>
