<svg width="256" height="256" xmlns="http://www.w3.org/2000/svg">
    <path fill="#ffffff" stroke="none" d="M 253.44 128 C 253.44 58.7215 197.279 2.56006 128 2.56006 C 58.7215 2.56006 2.56006 58.7215 2.56006 128 C 2.56006 197.279 58.7215 253.44 128 253.44 C 197.279 253.44 253.44 197.279 253.44 128 Z"/>
    <path fill="#5f5f5f" stroke="none" d="M 192.40602 147.842 C 192.911 148.244 193.242 148.589 193.739 148.999 C 194.04 149.247 194.04199 149.247 194.33702 148.977 C 194.54199 148.787 194.742 148.589 194.95302 148.404 C 195.80098 147.647 196.943 147.685 197.734 148.508 C 198.049 148.838 198.346 149.186 198.62201 149.551 C 199.306 150.448 199.238 151.621 198.466 152.437 C 198.24901 152.665 198.019 152.881 197.786 153.09 C 197.59 153.264 197.583 153.433 197.72202 153.651 C 198.007 154.1 198.284 154.553 198.551 155.013 C 198.892 155.595 199.19402 156.202 199.481 156.813 C 199.754 157.396 199.754 157.392 200.32 157.204 C 200.595 157.105 200.87398 157.022 201.158 156.956 C 202.08002 156.769 202.954 157.239 203.348 158.144 C 203.587 158.702 203.765 159.287 203.881 159.887 C 204.05 160.742 203.554 161.692 202.76102 162.113 C 202.454 162.274 202.116 162.345 201.79498 162.466 C 201.406 162.613 201.372 162.642 201.43599 163.042 C 201.642 164.302 201.786 165.568 201.79498 166.848 C 201.798 167.128 201.89801 167.287 202.175 167.311 C 202.413 167.331 202.65 167.378 202.886 167.404 C 203.831 167.507 204.474 168.003 204.753 168.979 C 204.77701 169.063 204.83902 170.824 204.75598 171.301 C 204.57501 172.355 203.796 173.10602 202.772 173.148 C 202.55 173.159 202.328 173.144 202.111 173.104 C 201.707 173.026 201.43898 173.20499 201.342 173.61601 C 201.101 174.62602 200.777 175.606 200.43 176.57999 C 200.328 176.861 200.387 177.108 200.61 177.305 C 200.725 177.409 201.17302 177.917 201.246 178.085 C 201.41199 178.474 200.69301 177.87 200.527 177.769 C 200.148 177.53902 195.494 174.833 193.76099 173.86198 C 193.885 172.89699 194.332 171.663 194.513 170.712 C 195.431 165.865 194.481 161.444 191.822 157.408 C 189.61 154.051 186.582 151.903 182.86201 150.838 C 179.588 149.9 176.343 150.091 173.16 151.316 C 170.527 152.328 167.643 153.988 166.061 156.604 C 165.88 156.817 165.794 156.792 165.508 156.658 C 164.517 156.138 160.637 153.477 159.059 152.51 C 158.361 151.771 157.898 150.562 158.423 149.669 C 158.798 149.033 159.301 148.516 159.842 148.052 C 160.601 147.4 161.701 147.419 162.507 148.031 C 163.508 148.791 163.506 148.787 164.478 147.971 C 164.985 147.545 165.526 147.167 166.059 146.777 C 166.555 146.415 166.591 146.269 166.359 145.701 C 165.726 144.152 166.131 142.975 167.56 142.209 C 167.938 141.998 168.333 141.821 168.74 141.683 C 169.83 141.333 170.835 141.743 171.428 142.766 C 172.046 143.834 172.043 143.832 173.207 143.55 C 173.822 143.4 174.44502 143.294 175.06699 143.176 C 175.688 143.056 175.782 142.952 175.818 142.306 C 175.832 141.982 175.878 141.661 175.956 141.348 C 176.12 140.723 176.417 140.174 177.033 139.927 C 178.20601 139.456 179.39099 139.366 180.543 139.985 C 181.221 140.35 181.538 140.978 181.54698 141.792 C 181.56 143.01 181.568 143.021 182.698 143.213 C 183.442 143.34 184.169 143.53 184.89902 143.711 C 185.454 143.849 185.59702 143.794 185.814 143.232 C 186.359 141.808 187.71901 141.081 189.32202 141.911 C 189.777 142.146 190.254 142.318 190.651 142.697 C 191.452 143.462 191.508 144.591 191.179 145.415 C 191.132 145.531 191.076 145.641 191.03 145.758 C 190.81102 146.33 190.78702 146.665 190.78702 146.665 C 190.78702 146.665 191.91 147.448 192.40602 147.842 Z"/>
    <path fill="#414141" stroke="none" d="M 193.506 173.394 C 193.971 173.864 200.19699 177.45 200.73401 177.78902 C 200.893 177.811 201.016 177.92201 201.161 177.984 C 201.27202 178.088 201.37 178.19601 201.471 178.31198 C 201.964 179.039 201.955 179.806 201.67 180.60901 C 201.48802 181.035 201.27202 181.444 201.02 181.827 C 200.434 182.757 199.35202 183.049 198.401 182.54402 C 198.11198 182.391 197.832 182.22098 197.557 182.036 C 197.357 181.906 197.22 181.94101 197.08 182.13599 C 196.31801 183.197 195.47 184.187 194.548 185.096 C 194.363 185.27902 194.341 185.438 194.49701 185.651 C 194.677 185.889 194.844 186.14 195.006 186.393 C 195.663 187.419 195.48598 188.603 194.557 189.364 C 194.234 189.627 193.904 189.885 193.561 190.12 C 192.638 190.751 191.556 190.573 190.853 189.67998 C 190.659 189.43 190.477 189.169 190.307 188.898 C 190.158 188.662 190.008 188.608 189.757 188.759 C 188.702 189.391 187.588 189.89001 186.45 190.332 C 186.037 190.493 186.041 190.5 186.12102 190.956 C 186.15 191.113 186.173 191.275 186.201 191.43298 C 186.467 192.768 186.164 193.49101 185.055 194.176 C 184.769 194.34299 184.43999 194.317 184.133 194.402 C 183.597 194.537 183.056 194.526 182.51 194.498 C 182.332 194.40501 182.15402 194.30498 181.98 194.204 C 181.45502 193.74399 181.221 193.137 181.085 192.442 C 180.901 191.499 181.01299 191.653 180.189 191.69298 C 179.098 191.747 178.00398 191.74202 176.913 191.678 C 176.489 191.653 176.489 191.65198 176.391 192.065 C 176.346 192.25798 176.295 192.448 176.267 192.643 C 176.09 193.87802 175.147 194.804 173.642 194.502 C 173.274 194.42798 172.91 194.328 172.55101 194.216 C 171.522 193.89801 170.927 192.85399 171.134 191.744 C 171.184 191.462 171.247 191.181 171.299 190.899 C 171.37 190.515 171.365 190.49498 170.999 190.351 C 170.296 190.072 169.595 189.78699 168.919 189.444 C 168.52 189.241 168.124 189.029 167.729 188.814 C 167.319 188.59201 167.323 188.58899 167.035 188.994 C 166.881 189.21 166.738 189.433 166.579 189.642 C 165.877 190.568 164.771 190.761 163.836 190.114 C 163.481 189.867 163.133 189.603 162.798 189.324 C 161.946 188.611 161.762 187.441 162.349 186.475 C 162.522 186.187 162.716 185.91202 162.912 185.641 C 163.048 185.452 163.057 185.301 162.882 185.12799 C 161.947 184.206 161.09 183.202 160.319 182.124 C 160.172 181.919 160.028 181.91998 159.839 182.045 C 159.608 182.19801 159.368 182.337 159.128 182.477 C 158.051 183.09398 156.93 182.79 156.298 181.67998 C 156.072 181.282 155.795 180.918 155.64 180.47198 C 155.255 179.36702 155.579 178.344 156.542 177.728 C 156.746 177.59702 156.956 177.476 157.157 177.346 C 157.512 177.117 157.522 177.11 157.365 176.709 C 157.039 175.879 156.76 175.029 156.526 174.165 C 156.423 173.78699 156.326 173.402 156.241 173.01701 C 156.18 172.736 156.04 172.627 155.766 172.68799 C 155.547 172.731 155.327 172.761 155.106 172.77998 C 153.803 172.925 152.839 172.103 152.702 170.735 C 152.665 170.357 152.625 169.984 152.6 169.607 C 152.566 169.063 152.73 168.524 153.061 168.105 C 153.392 167.684 153.863 167.414 154.378 167.349 C 154.665 167.312 154.954 167.288 155.24 167.241 C 155.614 167.176 155.627 167.168 155.632 166.757 C 155.648 165.859 155.715 164.962 155.827 164.071 C 155.874 163.68 155.998 163.298 155.971 162.897 C 155.943 162.623 155.832 162.453 155.623 162.367 C 155.48 162.323 155.446 162.304 155.233 162.248 C 154.811 162.14 154.429 161.948 154.124 161.623"/>
    <path fill="#414141" stroke="none" d="M 155.989 163.143 C 156.038 162.867 155.925 162.454 155.657 162.374 C 155.427 162.307 155.06 162.162 154.831 162.089 C 153.922 161.801 153.351 161.045 153.252 160.029 C 153.136 159.598 153.497 158.2 153.661 157.747 C 154.029 156.748 154.928 156.167 155.942 156.328 C 156.161 156.362 156.376 156.421 156.583 156.502 C 156.966 156.659 157.261 156.536 157.43 156.153 C 157.847 155.209 158.471 154.274 158.873 153.324 C 159.262 152.405 158.986 152.481 159.123 152.513 C 159.455 152.815 164.302 155.298 165.83 156.596 C 164.836 157.731 162.623 162.866 162.532 164.584"/>
    <path fill="#414141" stroke="none" d="M 165.888 156.514 C 168.982 152.99 171.197 151.477 174.25198 150.563 C 176.11 150.002 178.051 149.798 179.979 149.961 C 183.222 150.236 186.151 151.429 188.731 153.538 C 191.004 155.398 192.661 157.755 193.792 160.535 C 194.482 162.235 194.848 164.012 195.01802 165.854 C 195.262 168.492 194.72702 171.438 193.867 173.89598 C 193.693 174.059 190.528 171.776 190.189 171.331 C 190.113 171.092 190.208 170.871 190.266 170.649 C 190.57802 169.449 190.779 168.228 190.743 166.98 C 190.572 160.982 186.693 156.034 181.32799 154.825 C 177.368 153.933 173.17 154.834 169.325 158.948 C 169.229 159.005 169.199 158.882 168.547 158.408 C 167.451 157.706 166.912 157.266 166.163 156.788 C 165.733 156.524 165.755 156.667 165.888 156.514 Z"/>
    <path fill="#5f5f5f" stroke="none" d="M 193.93 173.723 C 193.826 173.89702 193.734 174.075 193.651 174.261 C 192.708 176.657 191.196 178.624 189.354 180.29 C 186.945 182.47098 184.15 183.831 180.977 184.268 C 180.19902 184.376 179.421 184.494 178.635 184.46701 C 176.363 184.391 174.16699 183.95102 172.07 182.989 C 170.739 182.374 169.493 181.573 168.367 180.607 C 166.613 179.113 165.188 177.317 164.143 175.189 C 163.181 173.22899 162.628 171.155 162.393 168.97 C 162.189 167.089 162.349 165.244 162.723 163.402 C 163.15 161.302 163.948 159.367 165.061 157.574 C 165.22 157.318 165.68 156.739 165.83 156.594 C 166.64 157.036 168.848 158.572 169.202 158.906 C 169.426 159.213 169.013 159.617 168.885 159.815 C 168.206 160.86 167.647 161.964 167.288 163.176 C 166.035 167.4 166.609 171.331 169.134 174.865 C 171.24 177.814 174.103 179.43 177.605 179.8 C 182.59502 180.329 187.715 177.344 189.822 172.078 C 189.93802 171.787 189.909 171.328 190.383 171.305 C 190.68698 171.674 193.572 173.516 193.93 173.723 Z"/>
    <path fill="#ed5050" stroke="none" d="M 190.384 171.305 C 189.987 172.379 189.543 173.425 188.92 174.381 C 186.948 177.404 184.25499 179.281 180.827 179.92801 C 177.355 180.58202 174.176 179.766 171.35 177.56601 C 168.865 175.629 167.278 173.02402 166.667 169.835 C 165.943 166.064 166.703 162.594 168.822 159.46 C 168.901 159.342 168.976 159.224 169.055 159.107 C 169.136 159.005 170.188 157.78 170.701 157.328 C 172.97302 155.323 175.571 154.296 178.54199 154.237 C 184.10802 154.125 189.128 158.094 190.576 163.861 C 191.156 166.169 191.14 168.483 190.51 170.785 C 190.463 170.956 190.425 171.132 190.384 171.305 Z"/>
    <path fill="#414141" stroke="none" d="M 181.993 167.189 C 182.087 169.162 180.367 170.69 178.73598 170.669 C 176.873 170.646 175.345 169.108 175.363 167.155 C 175.378 165.247 176.794 163.669 178.759 163.664 C 180.396 163.659 182.084 165.202 181.993 167.189 Z"/>
    <path fill="#ed5050" stroke="none" d="M 182.182 160.626 C 182.562 160.586 182.878 160.728 183.14 161.024 C 183.372 161.286 183.621 161.533 183.84799 161.801 C 184.37502 162.421 184.054 163.557 183.372 163.78 C 183.075 163.879 182.802 163.884 182.539 163.703 C 181.97798 163.315 181.5 162.824 181.074 162.285 C 180.624 161.713 180.853 160.979 181.524 160.73 C 181.735 160.649 181.95801 160.613 182.182 160.626 Z"/>
    <path fill="#414141" stroke="none" d="M 92.8405 194.299 C 91.918 193.787 91.3706 192.993 91.2058 191.901 C 91.1495 191.529 91.05219 191.165 90.97959 190.795 C 90.92839 190.535 90.8046 190.448 90.5477 190.47 C 88.9149 190.615 87.2737 190.633 85.6385 190.524 C 85.417 190.51 85.1949 190.497 84.9753 190.47 C 84.7653 190.44502 84.6564 190.53598 84.6131 190.749 C 84.5354 191.13498 84.4307 191.517 84.3702 191.907 C 84.1831 193.11 83.5575 193.937 82.493 194.402 C 81.8116 194.597 81.1306 194.529 80.4501 194.396 C 79.8194 194.273 79.172 194.215 78.6004 193.866 C 78.3807 193.69598 78.1452 193.54901 77.9548 193.338 C 77.2757 192.582 76.9946 191.699 77.17 190.669 C 77.2361 190.28001 77.3236 189.89702 77.3981 189.509 C 77.5238 188.846 77.5229 188.843 76.9369 188.625 C 75.6024 188.125 74.301 187.533 73.0405 186.85298 C 72.7371 186.691 72.4294 186.53 72.1394 186.345 C 71.9179 186.201 71.7708 186.231 71.627 186.452 C 71.4059 186.79199 71.1606 187.116 70.9413 187.45898 C 70.0067 188.92099 68.1728 189.34901 66.7313 188.17801 C 66.3538 187.871 65.9549 187.59198 65.576 187.287 C 64.2383 186.20999 63.9944 184.494 64.9691 183.039 C 65.2242 182.658 65.4853 182.28001 65.752 181.906 C 65.8786 181.73 65.8763 181.586 65.7161 181.44101 C 65.6379 181.371 65.5681 181.292 65.4941 181.218 C 64.2453 179.96602 63.0919 178.614 62.0442 177.17302 C 61.7472 176.763 61.7444 176.76498 61.3078 177.03 C 61.0118 177.209 60.717606 177.389 60.422096 177.569 C 58.866497 178.506 57.3212 178.094 56.360004 176.489 C 56.228294 176.285 56.178505 176.209 56.0407 175.963 C 55.8708 175.61499 55.666 175.29 55.512 174.932 C 54.8566 173.402 55.3132 171.83601 56.6859 170.972 C 57.0075 170.769 57.3347 170.574 57.659595 170.373 C 58.0925 170.104 58.0971 170.101 57.9109 169.631 C 57.312805 168.121 56.8194 166.568 56.434505 164.983 C 56.370705 164.722 56.300896 164.463 56.2497 164.199 C 56.1985 163.935 56.0528 163.849 55.8085 163.882 C 55.351902 163.943 54.8943 164.013 54.4349 164.041 C 53.2559 164.113 52.346 163.619 51.7302 162.553 C 51.4742 162.114 51.377804 161.623 51.334496 161.115 C 51.3029 160.737 51.2321 160.398 51.2079 159.991 C 51.1083 158.46 51.941 156.535 53.7712 156.398 C 54.1622 156.368 54.5513 156.306 54.9418 156.26 C 55.3928 156.207 55.4086 156.203 55.4189 155.751 C 55.448204 154.421 55.551105 153.094 55.7266 151.777 C 55.7982 151.243 55.880196 150.711 55.9695 150.18 C 56.0552 149.674 56.0556 149.663 55.5762 149.497 C 55.2173 149.374 54.8585 149.258 54.5052 149.132 C 52.9706 148.586 52.1779 147.046 52.6085 145.408 C 52.767696 144.803 52.9627 144.206 53.172596 143.618 C 53.7102 142.1 55.182396 141.335 56.6584 141.794 C 57.1006 141.931 57.543205 142.069 57.9728 142.242 C 58.2475 142.35 58.3699 142.259 58.4853 142.004 C 58.757603 141.404 59.0536 140.816 59.3403 140.224 C 59.4427 140.02 59.5368 139.857 59.6299 139.669 C 59.9375 139.075 60.2638 138.49 60.6553 137.948 C 61.0071 137.625 120.26599 174.337 120.09999 174.76 C 119.985 174.977 119.894 175.185 119.785 175.394 C 119.57599 175.785 119.378 176.18298 119.156 176.56598 C 118.311 178.015 116.771 178.455 115.33501 177.66501 C 114.958 177.458 114.595 177.218 114.225 176.996 C 113.839005 176.76498 113.835 176.763 113.573 177.119 C 112.988 177.916 112.376 178.688 111.737 179.437 C 111.166 180.105 110.561 180.738 109.946 181.361 C 109.66301 181.648 109.664 181.656 109.881996 181.981 C 110.127 182.349 110.38701 182.706 110.63 183.07399 C 111.575 184.50499 111.321 186.228 110.009 187.281 C 109.58899 187.618 109.162 187.946 108.72799 188.265 C 107.365 189.259 105.744995 188.988 104.73701 187.595 C 104.481 187.238 104.23699 186.86699 103.981 186.508 C 103.749 186.184 103.741 186.17902 103.401 186.37401 C 102.009 187.177 100.565 187.87299 99.0781 188.457 C 98.87 188.539 98.6601 188.615 98.4534 188.69798 C 98.0783 188.848 98.0713 188.854 98.145805 189.292 C 98.2119 189.68102 98.2672 190.076 98.3734 190.453 C 98.769 191.86499 97.9428 193.57002 96.108 194.16902 C 95.3149 194.43 93.5969 194.618 92.8405 194.299 Z"/>
    <path fill="#666059" stroke="none" d="M 119.98401 174.864 C 118.739 174.104 107.661995 166.914 106.886 166.463 C 106.465 166.238 106.602 166.211 106.858 165.707 C 107.76301 163.668 108.373 161.496 108.666 159.267 C 108.87699 157.642 108.866 156.01 108.739 154.374 C 108.62 152.833 108.34501 151.309 107.919 149.829 C 107.37599 147.943 106.591 146.179 105.621 144.492 C 104.538 142.61 103.16 141.004 101.63699 139.523 C 100.466 138.384 99.14231 137.459 97.7446 136.656 C 95.6449 135.44 93.3604 134.621 90.9931 134.232 C 89.5065 133.989 88.0059 133.87 86.5052 133.973 C 83.3122 134.194 80.2891 135.079 77.4773 136.707 C 75.2589 138.026 73.2738 139.736 71.6088 141.767 C 71.1843 142.285 70.5802 143.316 70.1641 143.839 C 69.9253 144.139 65.9503 141.422 60.5426 138.052 C 60.7423 137.682 60.9346 137.379 61.147697 137.057 C 61.2804 136.855 61.2697 136.702 61.0965 136.542 C 60.7647 136.232 60.4342 135.921 60.108402 135.603 C 59.073196 134.591 58.8312 133.248 59.4795 131.93 C 59.6276 131.628 59.8952 130.919 60.303394 130.403 C 60.5008 130.154 60.7181 129.926 60.9313 129.694 C 61.9753 128.556 64.0042 128.537 65.0934 129.585 C 66.412 130.852 66.2389 130.558 67.349 129.66 C 68.298 128.895 69.2583 128.149 70.2623 127.462 C 70.8022 127.09401 70.8371 126.915 70.5639 126.297 C 70.2595 125.607994 69.9853 124.91501 70.044 124.128 C 70.117 123.156 70.4917 122.324 71.2458 121.78399 C 72.3224 121.01399 73.4655 120.38 74.8391 120.419 C 75.9734 120.45301 76.7679 121.047 77.3446 122.02 C 77.5494 122.37001 77.7091 122.752 77.8748 123.127 C 78.0288 123.478 78.2779 123.59201 78.6269 123.495995 C 80.0978 123.08999 81.5877 122.783 83.0869 122.528 C 83.632 122.435 83.7418 122.266 83.7628 121.696 C 83.7725 121.498 83.7725 121.299995 83.7628 121.102 C 83.6464 119.28901 84.979 117.768 86.5546 117.66301 C 87.423096 117.604 88.293 117.535 89.155106 117.717 C 90.423 117.987 91.67079 119.20999 91.545204 120.89 C 91.528 121.121994 91.5405 121.357 91.545204 121.590996 C 91.5563 122.282 91.6797 122.451 92.32711 122.549 C 93.73 122.756 95.1194 123.054 96.4874 123.44301 C 97.2112 123.652 97.3233 123.57599 97.6249 122.863 C 97.86091 122.305 98.09779 121.744995 98.5154 121.297 C 99.3592 120.394 100.409 120.248 101.504 120.503 C 102.37001 120.705 103.184 121.119 103.93 121.631 C 105.145 122.466 105.588 123.966 105.094 125.424995 C 104.991 125.728 104.867 126.026 104.738 126.31999 C 104.48201 126.896 104.525 127.10601 105.03501 127.446 C 106.105 128.153 107.136 128.923 108.122 129.756 C 109.202 130.674 109.008995 130.813 110.201 129.677 C 111.245 128.682 112.856 128.563 113.809 129.245 C 114.773 129.935 115.612 130.804 116.16999 131.892 C 116.66499 132.861 116.599 134.641 115.611 135.537 C 115.315 135.807 115.053 136.116 114.77699 136.412 C 114.539 136.669 114.50701 136.949 114.69501 137.241 C 115.578 138.611 116.368 140.044 117.059 141.529 C 117.229 141.894 117.52 141.986 117.879 141.867 C 118.301 141.724 118.733 141.609 119.16901 141.526 C 120.338005 141.311 121.624 141.851 122.22399 142.931 C 122.80599 143.978 123.16401 145.126 123.201 146.354 C 123.24 147.704 122.601 148.638 121.50901 149.26 C 121.145996 149.462 120.763 149.621 120.368 149.736 C 119.95 149.862 119.77 150.129 119.855 150.579 C 120.15001 152.188 120.248 153.819 120.34501 155.451 C 120.37 155.884 120.568 156.123 120.981 156.135 C 121.289 156.145 121.590996 156.205 121.895 156.247 C 123.462 156.463 124.534 157.748 124.539 159.418 C 124.543 159.742 124.527 160.064 124.497 160.387 C 124.445 160.894 124.272 161.622 124.137 162.096 C 123.745 163.479 122.42 164.236 121.054 164.145 C 120.61201 164.116 120.172005 164.041 119.729 163.995 C 119.324 163.953 119.303 163.959 119.202 164.383 C 118.899 165.657 118.568 166.922 118.133 168.154 C 117.932 168.727 117.724 169.297 117.495 169.859 C 117.393 170.108 117.436 170.261 117.655 170.391 C 118.086 170.648 118.521 170.899 118.93599 171.183 C 120.046 171.94 120.504005 173.31502 120.09999 174.628 C 120.067 174.71 120.029 174.789 119.98401 174.864 Z"/>
    <path fill="#ed5050" stroke="none" d="M 74.8009 146.48 C 75.3133 145.832 75.7997 145.159 76.3611 144.552 C 79.009 141.685 82.2086 140.002 85.9862 139.555 C 89.32721 139.158 92.497 139.77 95.4247 141.506 C 99.9317 144.178 102.62 148.25 103.468 153.618 C 103.961 156.735 103.587 159.78 102.412 162.702 C 102.346 162.867 102.299 163.04 102.243004 163.21 C 102.371 163.491 102.246 163.733 102.135 163.977 C 101.564 165.22 100.815 166.334 99.9466 167.353 C 97.45079 170.286 94.3956 172.229 90.6882 172.902 C 85.767 173.79399 81.3265 172.594 77.4665 169.243 C 74.3359 166.523 72.4494 163.002 71.8415 158.781 C 71.3691 155.495 71.7624 152.294 73.0545 149.236 C 73.3677 148.495 73.748 147.794 74.1311 147.092 C 74.2875 146.799 74.4913 146.581 74.8009 146.48 Z"/>
    <path fill="#45423d" stroke="none" d="M 77.6611 156.161 C 77.5764 150.106 82.4935 145.491 87.7089 145.463 C 92.82421 145.436 97.9289 149.727 97.9377 156.215 C 97.9466 162.238 93.306 166.815 87.89 166.874 C 81.9894 166.938 77.5527 161.809 77.6611 156.161 Z"/>
    <path fill="#ed5050" stroke="none" d="M 97.7618 146.286 C 97.8465 147.181 96.7825 147.882 96.04289 147.366 C 95.54111 147.014 95.0673 146.657 94.6698 146.19 C 94.0973 145.518 94.2276 144.821 94.986305 144.382 C 95.548096 144.057 96.0717 144.034 96.59069 144.5 C 96.9556 144.827 97.3094 145.157 97.571396 145.584 C 97.7041 145.791 97.7711 146.037 97.7618 146.286 Z"/>
    <path fill="#ed5050" stroke="none" d="M 79.6988 156.233 C 79.5732 151.859 82.9384 147.592 87.82241 147.611 C 92.384796 147.63 95.9465 151.485 95.9004 156.306 C 95.8562 161.059 92.1153 164.786 87.6697 164.728 C 83.0599 164.668 79.5741 160.581 79.6988 156.233 Z"/>
    <path fill="#414141" stroke="none" d="M 87.7745 159.662 C 85.95729 159.662 84.4423 158.069 84.4558 156.152 C 84.4674 154.261 85.8577 152.679 87.7959 152.658 C 89.563194 152.639 91.10669 154.178 91.0969 156.181 C 91.088 158.133 89.6321 159.663 87.7745 159.662 Z"/>
    <path fill="#ed5050" stroke="none" d="M 91.6126 150.372 C 91.8039 150.372 91.99049 150.393 92.15299 150.506 C 92.85911 150.999 93.237 151.686 93.21189 152.588 C 93.198395 153.052 92.56721 153.539 92.1371 153.436 C 91.4092 153.262 90.81621 152.882 90.4112 152.199 C 90.0608 151.608 90.1301 151.114 90.6551 150.696 C 90.9391 150.472 91.2635 150.38 91.6126 150.372 Z"/>
    <path fill="#666059" stroke="none" d="M 74.8023 146.478 C 74.2731 147.361 73.7611 148.25 73.3519 149.205 C 72.6644 150.814 72.2185 152.527 72.0286 154.282 C 71.7773 156.492 71.9509 158.735 72.5392 160.875 C 73.128 163.015 74.1195 165.007 75.4548 166.735 C 77.4847 169.36 80.0428 171.169 83.1078 172.17801 C 84.884 172.762 86.7133 173.03102 88.5658 172.902 C 93.4125 172.56502 97.3652 170.391 100.385994 166.367 C 101.01899 165.518 101.566 164.602 102.01699 163.632 C 102.085 163.488 102.169 163.352 102.24501 163.211 C 102.66601 163.419 105.944 165.65 106.50299 166.062 C 106.725 166.224 106.624 166.44 106.519 166.638 C 105.943 167.722 105.335 168.783 104.602 169.759 C 103.001 171.893 101.133995 173.71202 98.9245 175.139 C 96.78061 176.52498 94.4249 177.509 91.96269 178.049 C 90.0576 178.471 88.12779 178.53499 86.20401 178.408 C 83.645 178.242 81.1925 177.559 78.8578 176.418 C 77.2585 175.645 75.7597 174.661 74.3978 173.487 C 71.7191 171.162 69.6413 168.352 68.2971 164.961 C 67.4383 162.782 66.9007 160.479 66.7043 158.129 C 66.3966 154.626 66.924 151.254 68.0946 147.977 C 68.5238 146.776 69.0898 145.65 69.6948 144.543 C 69.754 144.435 69.821 144.327 69.8894 144.226 C 70.2571 143.676 70.3269 143.658 70.8734 143.986 C 71.7908 144.538 73.5563 145.692 74.4546 146.269 C 74.5747 146.331 74.691 146.401 74.8023 146.478 Z"/>
    <path fill="#45423d" stroke="none" d="M 103.297 159.727 C 103.761 157.554 103.80399 155.304 103.425 153.112 C 103.046 150.921 102.251 148.832 101.089 146.971 C 99.1474 144.333 96.7079 142.11 94.0004 140.738 C 92.3103 139.971 90.49971 139.544 88.6607 139.478 C 83.8065 139.296 79.6448 140.99 76.2544 144.673 C 75.7215 145.262 75.2207 145.883 74.7552 146.533 C 74.3563 146.282 70.6844 144.308 70.1677 143.838 C 69.9629 143.652 71.5641 141.741 72.3865 140.848 C 74.185 138.895 76.2177 137.283 78.5533 136.101 C 80.7391 134.914 83.2381 134.235 85.759 133.953 C 87.6921 133.733 89.64459 133.787 91.5637 134.115 C 94.0939 134.553 96.4263 135.59 98.63821 136.976 C 100.15501 137.917 101.552 139.056 102.79399 140.369 C 105.23501 142.97 107.031 145.986 108.043 149.505 C 108.688 151.763 109 154.114 108.969 156.472 C 108.936 159.99 108.098 163.222 106.88 165.826 C 106.639 166.342 106.858 166.329 106.158 165.826 C 105.29799 165.178 103.153 163.825 102.248 163.213 C 102.191 163.167 102.93099 161.46 103.297 159.727 Z"/>
    <path fill="#ed5050" stroke="none" d="M 80.7559 68.0284 C 80.3826 66.7777 80.0964 65.5019 79.7817 64.2345 C 79.6989 63.900696 79.792 63.8109 80.1299 63.724297 C 98.8239 58.935303 121.556 62.5947 133.232 66.3206 C 135.083 67.0202 136.884 67.8329 138.55 68.9449 C 139.272 69.4275 139.958 69.9595 140.498 70.6731 C 140.648 70.8686 140.783 71.0762 140.902 71.294 C 141.184 71.8242 141.247 72.358 140.982 72.9375 C 140.367 74.2822 139.698 75.5962 138.975 76.8804 C 138.508 77.7164 138.028 78.5439 137.554 79.3766 C 137.331 79.7802 137.081 80.1665 136.805 80.5328 C 136.564 80.7697 136.292 80.6557 136.032 80.5943 C 134.888 80.3243 133.734 80.113 132.598 79.8183 C 132.514 79.7965 132.428 79.8332 132.344 79.8365 C 131.153 79.4302 129.897 79.3841 128.687 79.0806 C 128.529 79.0406 128.391 79.1416 128.24 79.1146 C 126.254 78.7078 124.241 78.5025 122.24099 78.213 C 121.539 78.1111 120.812004 78.1651 120.132 77.9002 C 119.87101 77.6102 119.823 77.2313 119.735 76.8655 C 119.23101 74.7086 118.576996 72.6154 117.378 70.7564 C 117.195 70.4739 116.996994 70.2044 116.789 69.9419 C 116.165 69.1529 115.42 68.6833 114.408 68.5436 C 111.77 68.1778 109.128 67.8622 106.478 67.6253 C 102.06999 67.2297 97.6556 67.1622 93.23851 67.2278 C 91.0587 67.2599 88.8809 67.4126 86.70529 67.6104 C 84.9036 67.7724 83.1065 67.9646 81.3145 68.2146 C 81.0924 68.2374 80.9007 68.2234 80.7559 68.0284 Z"/>
    <path fill="#45423d" stroke="none" d="M 142.744 105.687 C 141.503 105.678 140.261 105.65101 139.02 105.669 C 138.624 105.67501 138.536 105.432 138.449 105.133 C 138.113 105.025 138.123 104.701 138.071 104.43 C 137.67 102.352 137.292 100.267 136.855 98.1959 C 135.781 93.1034 134.574 88.0472 133.106 83.0631 C 132.853 82.2043 132.581 81.3521 132.334 80.491 C 132.259 80.2294 132.115 79.9436 132.358 79.6811 C 132.448 79.5731 132.568 79.5731 132.686 79.595 C 134.068 79.8649 135.447 80.1349 136.805 80.525 C 137.696 83.1673 138.445 85.8549 139.137 88.5615 C 140.077 92.239 140.883 95.95099 141.635 99.6761 C 141.915 101.067 142.741 105.653 142.744 105.687 Z"/>
    <path fill="#45423d" stroke="none" d="M 80.7587 68.0288 C 82.3915 67.7351 84.0397 67.5643 85.6869 67.4088 C 86.8748 67.2967 88.06861 67.2245 89.25931 67.1389 C 92.5682 66.8968 95.8799 66.9015 99.1902 66.9606 C 101.595 67.0034 103.998 67.1375 106.39901 67.3386 C 107.998 67.4726 109.594 67.6267 111.187 67.818 C 112.525 67.9804 113.853 68.2141 115.191 68.3975 C 115.624 68.4566 115.95 68.68 116.259 68.9779 C 117.325 70.0038 118.077 71.2591 118.668 72.6285 C 119.372 74.2566 119.855 75.9588 120.175 77.7135 C 120.101 77.9598 119.91 77.963 119.718 77.9505 C 118.867 77.8965 118.015 77.8336 117.167 77.7503 C 116.41999 77.6772 115.67 77.6423 114.923 77.5981 C 113.732994 77.5288 112.542 77.3928 111.346 77.4622 C 110.884 77.4897 110.43 77.3672 109.969 77.3598 C 109.34599 77.35 109.152 77.492 108.936 78.1008 C 107.661 81.6904 106.612 85.3544 105.69 89.0604 C 104.265 94.785 103.178 100.585 102.264 106.421005 C 102.019 107.981995 101.819 109.549 101.60099 111.113 C 101.556 111.432 101.524 111.757 101.33101 112.032 C 101.181 112.19 100.98999 112.201004 100.806 112.151 C 99.9494 111.91701 99.0981 111.657 98.243004 111.41699 C 98.176 111.401 98.1141 111.369 98.062 111.321 C 98.0098 111.274 97.96981 111.21499 97.9447 111.14701 C 97.8069 110.757 97.8935 110.36 97.94879 109.975 C 98.8202 103.661995 99.887 97.38781 101.29 91.1805 C 102.283 86.7908 103.41401 82.4454 104.862 78.1958 C 105.082 77.553 104.959 77.3663 104.318 77.3589 C 101.778 77.3291 99.24279 77.4217 96.70421 77.5497 C 95.428406 77.6144 94.1535 77.6698 92.881 77.782 C 92.7963 77.782 92.7106 77.7852 92.625 77.7857 C 91.29661 77.795 91.26591 77.8257 90.8469 79.1281 C 88.40941 86.6987 86.70529 94.4597 85.389 102.324 C 84.9953 104.675 84.6499 107.035 84.2994 109.394005 C 84.2677 109.61001 84.2449 109.823 84.116 110.004 C 83.9931 110.213 83.7897 110.24099 83.5858 110.27401 C 82.5269 110.436 81.4615 110.549 80.4073 110.746 C 80.1699 110.791 79.8785 110.84401 79.8306 110.442 C 80.0074 109.198 80.1843 107.955 80.3616 106.712006 C 80.8211 103.478 81.3414 100.255 81.9223 97.0443 C 82.6843 92.8371 83.5556 88.66291 84.6322 84.539 C 85.1447 82.5827 85.6743 80.631 86.319 78.7171 C 86.54429 78.0463 86.5434 78.0463 86.056 77.5827 C 84.8798 76.461 83.7078 75.3351 82.5256 74.2203 C 82.3082 74.0192 82.1564 73.7521 82.0903 73.4556 C 81.6901 71.8209 81.2702 70.1913 80.8569 68.5599 C 80.7857 68.3933 80.7512 68.2118 80.7587 68.0288 Z"/>
    <path fill="#a9a9a9" stroke="none" d="M 80.7601 68.0259 C 80.8224 68.1962 80.8932 68.3647 80.8569 68.5551 C 80.7549 68.3941 80.6251 68.2363 80.7601 68.0259 Z"/>
    <path fill="#b9e1e1" stroke="none" d="M 107.898 114.968 C 105.934 113.856 103.874 112.979996 101.768 112.221 C 101.576 112.152 101.375 112.101 101.229 111.935 C 101.445 110.353 101.64601 108.767 101.881996 107.187 C 102.42801 103.529 103.067 99.8905 103.79699 96.2693 C 104.91001 90.781105 106.24099 85.3558 107.99 80.051 C 108.27 79.202 108.56 78.3567 108.852 77.5124 C 108.999 77.0856 109.005 77.0837 109.44 77.0967 C 111.86199 77.1689 114.285 77.2666 116.704 77.4267 C 117.862 77.5026 119.01501 77.6153 120.172005 77.7111 C 122.08199 77.9048 123.985 78.1524 125.885 78.4363 C 126.693 78.5569 127.5 78.6686 128.302 78.8254 C 128.763 79.0195 129.049 79.391 129.328 79.8178 C 130.386 81.4418 131.228 83.1951 131.93 85.0025 C 132.664 86.8927 133.336 88.8206 133.788 90.81829 C 133.967 91.605 134.221 92.3711 134.404 93.1549 C 135.004 95.73349 135.669 98.2959 136.154 100.904 C 136.402 102.242 136.667 103.579 136.994 104.90099 C 137.082 105.253 137.226 105.65101 136.795 105.90399 C 136.749 105.958 136.712 106.025 136.655 106.057 C 135.894 106.480995 135.381 107.171 134.881 107.875 C 134.046 109.05 133.22 110.231 132.39 111.41 C 132.157 111.51799 131.963 111.428 131.773 111.284 C 130.774 110.53 129.766 109.789 128.748 109.061 C 128.23 108.69 128.191 108.505 128.538 107.957 C 129.031 107.18 129.56 106.429 130.068 105.662 C 130.264 105.36799 130.473 105.08101 130.632 104.762 C 130.919 104.184006 130.814 103.608 130.372 103.26299 C 129.93 102.918 129.379 102.988 128.956 103.488 C 128.421 104.12101 128 104.845 127.543 105.541 C 126.093 107.742 124.64101 109.941 123.185 112.139 C 123.049 112.34501 122.909 112.551 122.817 112.787 C 122.603 113.32199 122.752 113.872 123.183 114.169 C 123.629 114.476 124.142 114.415 124.52 113.95901 C 125.04799 113.32199 125.467 112.596 125.927 111.907 C 126.218994 111.465004 126.51201 111.021996 126.81501 110.587006 C 127.025 110.285 127.257996 110.24 127.562 110.44501 C 128.668 111.194 129.724 112.019 130.803 112.809 C 130.983 112.941 131.161 113.097 131.155 113.369 C 130.817 113.948 130.48 114.52901 130.141 115.10601 C 129.97 115.396 129.787 115.678 129.619 115.96999 C 128.917 117.178 128.895 118.42801 129.5 119.668 C 131.129 123.007 132.822 126.31 134.732 129.484 C 134.97 129.879 135.225 130.26 135.464 130.653 C 136.138 131.758 137.143 132.201 138.327 132.239 C 139.468 132.274 140.606 132.142 141.743 132.038 C 141.717 137.037 140.359 141.611 137.816 145.82 C 137.46 146.409 137.075 146.66 136.381 146.639 C 134.54 146.581 132.697 146.629 130.856 146.634 C 130.484 146.579 130.497 146.233 130.445 145.972 C 130.227 144.9 129.94 143.849 129.637 142.8 C 128.472 138.756 126.783 134.899 124.618 131.341 C 123.918 130.191 123.137 129.104 122.40401 127.981 C 121.723 127.04399 120.988 126.152 120.23 125.287 C 118.879 123.74601 117.478 122.25701 115.943 120.912 C 113.725 118.979004 111.348 117.256 108.842 115.76301 C 108.495 115.543 108.079 115.406 107.898 114.968 Z"/>
    <path fill="#dcf9fb" stroke="none" d="M 136.688 106.03 C 136.83 105.706 136.818 105.258995 136.744 104.954 C 136.096 102.294 131.524 83.7502 128.938 79.6691 C 128.625 79.1748 128.551 79.0436 128.304 78.8267 C 129.519 78.9263 130.709 79.1962 131.913 79.3736 C 132.006 79.3847 132.094 79.4183 132.172 79.4727 C 132.249 79.5262 132.312 79.5989 132.359 79.684 C 133.974 84.851 135.359 90.0851 136.515 95.3866 C 137.224 98.6173 137.951 102.089005 138.529 105.349 L 138.537 105.37 C 138.654 105.597 138.684 105.534 138.007 105.624 C 137.588 105.68001 137.023 105.877 136.688 106.03 Z"/>
    <path fill="#b9e1e1" stroke="none" d="M 98.061 111.082 C 97.0095 110.866005 95.959 110.63 94.9052 110.439995 C 93.64751 110.215 92.3796 110.061 91.1066 109.976006 C 89.902 109.893 88.70771 109.868004 87.500694 109.865 C 86.8226 109.865 86.13559 109.935005 85.4532 109.881996 C 85.1739 109.656006 85.2242 109.35 85.2647 109.042 C 85.8433 104.645 86.5163 100.267 87.3937 95.919 C 88.009 92.8567 88.70161 89.8159 89.5539 86.8198 C 90.3679 83.9573 91.3165 81.145 92.7864 78.5673 C 93.0075 78.1796 93.042404 77.8589 92.8083 77.4954 C 92.9703 77.4269 93.142494 77.4274 93.3124 77.419 C 97.1808 77.2347 101.049 77.0341 104.92299 77.0713 C 105.09 77.0713 105.263 77.0299 105.426 77.1174 C 105.491 77.311 105.383 77.4693 105.327 77.6308 C 103.618 82.5455 102.328 87.59201 101.216 92.689606 C 100.272995 97.0147 99.4908 101.37201 98.815895 105.752 C 98.5441 107.526 98.3133 109.306 98.061 111.082 Z"/>
    <path fill="#dcf9fb" stroke="none" d="M 93.14541 77.43 C 93.838 77.3444 93.7724 77.3844 93.3572 78.1319 C 92.2359 80.1497 91.2915 82.2242 90.5705 84.4133 C 90.1521 85.6816 89.7466 86.9621 89.4334 88.2709 C 89.0913 89.699 88.6877 91.1102 88.370804 92.5457 C 88.0491 93.9984 87.7778 95.4618 87.480804 96.920006 C 87.1759 98.4132 86.8655 99.90501 86.6337 101.412994 C 86.2748 103.753 85.9285 106.095 85.5943 108.438 C 85.5264 108.91501 85.4403 109.395 85.4542 109.883 C 85.2815 109.965 84.0984 110.094 84.0081 109.883 C 84.0858 108.73499 84.2906 107.603 84.4591 106.468 C 84.8761 103.664 85.3453 100.87 85.8657 98.0841 C 87.0801 91.6464 88.5765 85.2841 90.5821 79.0666 C 90.7087 78.6761 90.8586 78.2925 90.970795 77.8969 C 91.03639 77.6656 91.1672 77.5795 91.3767 77.5729 C 91.856995 77.5478 93.06021 77.4263 93.14541 77.43 Z"/>
    <path fill="#414141" stroke="none" d="M 157.102 156.62 C 155.908 156.523 154.579 155.535 153.629 158.089 C 152.685 160.62 154.073 161.596 153.864 161.511 C 153.761 161.497 153.657 161.493 153.553 161.501 C 152.772 161.511 151.964 161.374 151.184 161.373 C 150.908 161.239 150.973 161.002 151.019 160.77 C 151.411 158.78 152.013 156.842 152.813 154.992 C 153.871 152.565 155.166 150.294 156.789 148.231 C 159.046 145.365 161.688 142.991 164.762 141.148 C 167.96 139.228 171.394 138.041 175.032 137.523 C 176.78899 137.274 178.56198 137.181 180.33899 137.312 C 181.012 137.362 181.539 137.072 181.901 136.487 C 182.049 136.248 182.21202 136.068 182.465 135.973 C 182.758 135.97 183.024 136.1 183.30298 136.166 C 183.918 136.312 183.982 136.288 184.252 135.702 C 184.687 134.755 185.14 133.816 185.70299 132.941 C 185.841 132.848 185.95601 132.72 186.03902 132.571 C 186.769 131.394 187.70201 130.421 188.799 129.622 C 188.83 129.607 188.865 129.6 188.898 129.605 C 189.295 129.605 189.399 129.924 189.494 130.236 C 189.91402 131.606 190.38599 132.951 190.97 134.255 C 191.938 136.415 193.13202 138.414 194.66501 140.177 C 194.893 140.44 195.18199 140.675 195.048 141.103 C 194.25 142.58 193.451 144.056 192.653 145.531 C 192.535 145.748 192.40602 145.959 192.28198 146.172 C 192.06001 146.544 191.809 146.896 191.53299 147.225 C 191.46101 147.169 191.38498 147.121 191.305 147.08 C 191.25899 147.057 191.172 146.975 191.127 146.949 C 190.291 146.471 190.40999 146.439 190.82698 145.545 C 191.087 144.982 191.224 144.411 191.058 143.776 C 190.993 143.513 190.877 143.268 190.71799 143.056 C 190.558 142.843 190.359 142.668 190.132 142.54 C 189.598 142.234 189.042 141.945 188.43098 141.812 C 187.574 141.624 186.67902 142.042 186.266 142.858 C 186.13 143.129 186.034 143.419 185.908 143.693 C 185.726 144.095 185.62099 144.151 185.225 144.032 C 184.174 143.716 183.11201 143.458 182.02301 143.33 C 181.92102 143.317 181.824 143.276 181.72202 143.266 C 181.432 143.23 181.309 143.05 181.312 142.755 C 181.312 142.467 181.29399 142.178 181.312 141.891 C 181.37898 140.802 180.721 140.067 179.766 139.868 C 179.078 139.724 178.36699 139.734 177.683 139.897 C 176.807 140.104 176.28899 140.667 176.167 141.625 C 176.117 141.979 176.088 142.338 176.08 142.696 C 176.075 143.164 176.045 143.203 175.597 143.295 C 175.04402 143.41 174.488 143.496 173.93399 143.606 C 173.365 143.721 172.80101 143.864 172.24301 144.035 C 171.88 144.147 171.796 144.102 171.644 143.745 C 171.505 143.417 171.374 143.086 171.195 142.779 C 170.722 141.968 169.866 141.595 168.99 141.832 C 168.361 142.005 167.762 142.283 167.218 142.657 C 166.423 143.197 166.133 144.217 166.47 145.179 C 166.57 145.464 166.716 145.731 166.834 146.011 C 166.981 146.363 166.968 146.447 166.676 146.636 C 165.64 147.303 164.682 148.083 163.729 148.87 C 163.451 149.101 163.374 149.103 163.114 148.851 C 162.882 148.612 162.635 148.388 162.378 148.183 C 161.645 147.625 160.644 147.618 159.955 148.231 C 159.476 148.658 159.022 149.123 158.68 149.694 C 158.161 150.558 158.281 151.585 158.987 152.287 C 159.272 152.571 159.302 152.592 159.766 152.927 C 159.053 153.678 157.659 155.708 157.251 156.507"/>
    <path fill="#45423d" stroke="none" d="M 147.559 161.272 C 144.691 161.268 141.823 161.265 138.955 161.262 C 134.395 161.262 129.838 161.262 125.279 161.262 C 124.227 161.262 124.209 161.227 124.356 160.141 C 124.45801 159.348 124.477 158.558 124.05401 157.838 C 123.6 157.061 122.95701 156.563 122.094 156.424 C 121.673004 156.352 121.249 156.306 120.823 156.288 C 120.31 156.272 120.217 156.138 120.198 155.594 C 120.135994 153.833 120 152.083 119.67899 150.348 C 119.55101 149.661 119.586 149.604 120.24 149.414 C 120.768 149.26 121.283 149.07 121.754 148.771 C 122.925995 148.028 123.270004 146.758 122.98899 145.454 C 122.86 144.859 122.665 144.279 122.476 143.702 C 121.984 142.203 120.68199 141.424 119.204994 141.716 C 118.699 141.816 118.214 141.985 117.727 142.148 C 117.326 142.283 117.27599 142.269 117.09 141.859 C 116.314 140.136 115.399 138.487 114.355 136.928 C 114.158 136.638 114.169 136.547 114.468 136.311 C 114.878006 135.983 115.20999 135.567 115.591 135.208 C 116.505 134.344 116.489 132.525 115.940994 131.657 C 115.42601 130.839 114.771996 130.144 114.061 129.534 C 113.166 128.762 111.598 128.735 110.603 129.677 C 110.261 130.001 109.872 130.271 109.569 130.641 C 109.388 130.863 109.22 130.868 109.005 130.677 C 108.498 130.223 107.986 129.776 107.46001 129.347 C 106.636 128.676 105.769 128.073 104.88899 127.483 C 104.126 126.97199 104.16201 127.086 104.549 126.24099 C 104.71099 125.90399 104.85299 125.557 104.975 125.201 C 105.419 123.818 105.016 122.30299 103.602005 121.547 C 102.992 121.222 102.380005 120.888 101.722 120.7 C 100.799 120.435 99.8982 120.484 99.0874 121.119 C 98.7583 121.379 98.4944 121.72099 98.318 122.11301 C 98.0997 122.58 97.9079 123.06099 97.6989 123.533 C 97.5407 123.89 97.505806 123.91201 97.1483 123.793 C 95.7775 123.340004 94.3761 123.03 92.9583 122.792 C 92.6218 122.739 92.2838 122.684 91.9464 122.634 C 91.4577 122.559 91.42 122.519 91.411095 121.979 C 91.4046 121.53 91.406 121.08 91.411095 120.629005 C 91.4227 119.38 90.796295 118.576 89.782 118.05501 C 89.4907 117.9 89.1713 117.811 88.8455 117.794 C 88.0794 117.76699 87.31189 117.715 86.5471 117.848 C 85.0889 118.105 84.1831 119.178 84.1379 120.731 C 84.1268 121.12699 84.1379 121.522 84.1333 121.919 C 84.1258 122.526 84.1026 122.54399 83.5482 122.637 C 81.8451 122.921 80.1471 123.23101 78.4924 123.759 C 78.0977 123.884 78.0507 123.856995 77.8701 123.447 C 77.6984 123.055 77.5308 122.662 77.3576 122.27 C 76.6758 120.714 75.0946 120.211 73.6377 120.771 C 73.0918 120.979 72.5593 121.22301 72.0426 121.503 C 71.1955 121.964005 70.6365 122.677 70.4536 123.692 C 70.3595 124.226 70.407 124.775 70.5909 125.282 C 70.7501 125.739 70.9609 126.17 71.1597 126.608 C 71.3281 126.98 71.3091 127.064 70.987 127.271 C 69.6269 128.14 68.3562 129.14 67.1163 130.187 C 66.9571 130.322 66.8086 130.473 66.655 130.612 C 66.3897 130.846 66.3082 130.846 66.0397 130.602 C 65.7427 130.331 65.4369 130.071 65.159 129.78 C 64.1117 128.683 62.1508 128.689 61.1342 129.855 C 60.8345 130.198 60.5487 130.557 60.241005 130.893 C 59.8691 131.297 59.8445 131.283 59.4628 130.912 C 59.1388 130.597 58.375 129.89 58.3206 129.848 C 57.8118 129.249 57.8328 129.245 58.348 128.633 C 62.7284 123.424 68.2813 119.458 74.4965 117.101 C 77.629 115.913 80.8532 115.139 84.1659 114.838 C 86.1892 114.66101 88.2223 114.63999 90.2484 114.77699 C 92.9927 114.951 95.7119 115.425 98.36219 116.193 C 100.537 116.82 102.65199 117.656006 104.681 118.691 C 106.06701 119.38 107.411995 120.15799 108.707 121.020996 C 110.522 122.232 112.239 123.596 113.843 125.102 C 115.378 126.55301 116.818 128.112 118.156 129.766 C 118.33699 130.003 118.50701 130.251 118.663994 130.507 C 119.915 131.995 120.920006 133.667 121.857994 135.376 C 123.744 138.803 125.154 142.494 126.047 146.34 C 126.359 147.685 126.566 149.051 126.797 150.413 C 126.997 151.601 127.824 152.007 128.84 151.432 C 130.113 150.712 130.921 148.997 130.736 147.479 C 130.695 147.15 130.48 146.777 130.816 146.467 C 131.082 146.31 131.375 146.323 131.665 146.321 C 133.202 146.317 134.738 146.301 136.273 146.329 C 136.907 146.341 137.332 146.091 137.672 145.538 C 138.941 143.464 139.91 141.202 140.542 138.826 C 141.042 136.972 141.4 135.09 141.521 133.161 C 141.537 132.964 141.534 132.765 141.513 132.567 C 141.486 132.333 141.541 132.14 141.747 132.017 C 142.08 132.011 142.81 131.967 142.843 131.964 C 144.118 131.884 144.118 131.885 144.12 133.235 C 144.12 134.262 144.115 135.287 144.123 136.311 C 144.131 137.249 144.369 137.538 145.239 137.768 C 147.323 138.327 149.432 138.509 151.58 138.391 C 152.574 138.336 153.544 138.149 154.53 138.066 C 154.733 138.042 154.933 137.988 155.122 137.905 C 155.72 137.663 155.897 137.419 155.905 136.733 C 155.921 135.457 155.901 134.18 155.916 132.903 C 155.919 132.625 155.865 132.319 156.1 132.094 C 156.487 131.779 156.857 132.019 157.202 132.172 C 158.057 132.55 158.7 133.221 159.29 133.948 C 160.384 135.293 161.195 136.829 161.965 138.393 C 162.032 138.518 162.061 138.663 162.046 138.807 C 162.02 139.157 161.779 139.331 161.534 139.499 C 159.519 140.87 157.712 142.497 156.048 144.314 C 154.141 146.397 152.56 148.724 151.22 151.24 C 149.663 154.162 148.606 157.276 147.981 160.559 C 147.927 160.835 147.98 161.225 147.559 161.272 Z"/>
    <path fill="#a19d98" stroke="none" d="M 147.558 161.272 C 147.686 160.659 147.811 160.044 147.947 159.436 C 149.062 154.432 151.203 149.967 154.294 146 C 156.347 143.35 158.782 141.055 161.51 139.199 C 161.666 139.091 161.839 139.006 161.937 138.821 C 162.059 138.605 171.364 132.298 181.769 134.324 C 182.387 134.798 182.46098 135.709 182.124 136.535 C 181.795 137.342 181.182 137.594 180.201 137.57 C 179.296 137.546 178.392 137.495 177.49 137.547 C 175.973 137.628 174.466 137.829 172.97899 138.151 C 168.905 139.051 165.195 140.795 161.866 143.426 C 157.977 146.5 155.041 150.388 153.027 155.046 C 152.209 156.947 151.594 158.939 151.192 160.983 C 151.167 161.105 150.833 163.081 150.73 163.954 C 150.637 164.763 150.269 165.329 149.526 165.596 C 148.436 165.988 147.271 165.15 147.248 163.936 C 147.234 163.325 147.36 162.724 147.447 162.122 C 147.482 161.882 147.519 161.311 147.558 161.272 Z"/>
    <path fill="#fc4f4f" stroke="none" d="M 138.679 157.065 C 136.819 157.065 134.959 157.07 133.099 157.061 C 132.228 157.057 131.597 156.609 131.237 155.788 C 130.877 154.965 130.988 154.167 131.51 153.453 C 131.925 152.889 132.518 152.672 133.175 152.65 C 133.619 152.636 134.063 152.645 134.509 152.645 C 137.649 152.647 140.789 152.649 143.929 152.651 C 144.524 152.651 145.078 152.759 145.55 153.185 C 146.202 153.773 146.466 154.728 146.195 155.578 C 146.063 156.009 145.805 156.385 145.458 156.653 C 145.11 156.919 144.692 157.066 144.262 157.068 C 142.402 157.078 140.54 157.065 138.679 157.065 Z"/>
    <path fill="#ed5050" stroke="none" d="M 79.8301 110.436 C 79.9465 110.534004 80.0796 110.53601 80.2164 110.508 C 81.3805 110.268 82.5572 110.130005 83.7353 110.001 C 83.8381 109.989 83.7869 109.991 84.0774 109.962 C 88.2143 109.638 93.7291 109.876 98.0657 111.083 C 99.0217 111.362 99.9848 111.569 100.942 111.84499 C 101.04001 111.851 105.725 113.656006 107.545 114.687 C 107.70799 114.809 107.786995 114.875 107.904 114.968 C 107.978 115.853 107.71701 116.517 107.22699 117.12 C 106.545 117.961 105.643 118.564 104.634 118.946 C 103.336 118.351 102.045 117.74299 100.705 117.256 C 98.3333 116.393 95.8902 115.767 93.4079 115.386 C 91.24451 115.062 89.0601 114.923 86.8757 114.971 C 84.298 115.016 81.732 115.341 79.2176 115.94 C 71.4138 117.787 64.3375 122.117 58.9489 128.344 C 58.7767 128.543 58.6007 128.739 58.428 128.938 C 58.0692 129.353 57.9123 129.622 57.647896 129.951 C 57.208603 130.5 56.7808 131.06 56.352997 131.619 C 55.3533 132.924 53.596203 132.993 52.5019 131.626 C 51.760902 130.699 51.8865 129.304 52.4898 128.424 C 53.147 127.483 53.8498 126.576996 54.595 125.712 C 55.357 124.813995 56.098896 123.897 56.9339 123.072 C 58.104595 121.917 59.2701 120.754005 60.5426 119.724 C 64.8895 116.207 69.6534 113.525 74.9042 111.831 C 76.2917 111.382 77.7007 111.011 79.1259 110.72 C 79.3772 110.671005 79.6407 110.65199 79.8301 110.436 Z"/>
    <path fill="#ed5050" stroke="none" d="M 122.549 127.823 C 123.82099 129.408 124.856 131.164 125.855 132.944 C 127.031 135.035 128.008 137.23 128.837 139.5 C 129.596 141.583 130.253 143.7 130.689 145.887 C 130.741 146.133 130.803 146.372 130.86 146.62 C 130.974 147.291 131.105 147.956 130.965 148.647 C 130.681 150.065 130.009 151.176 128.729 151.794 C 127.65499 152.313 126.72401 151.771 126.548 150.54 C 126.08699 147.299 125.33399 144.135 124.185 141.083 C 122.826 137.472 121.045006 134.116 118.78 131.043 C 118.676 130.903 118.581 130.753 118.482 130.608 C 118.727 129.751 119.235 129.058 119.723 128.345 C 119.998 127.945 120.421 128.01 120.776 127.893005 C 121.34801 127.702995 121.949 127.548996 122.549 127.823 Z"/>
    <path fill="#ed5050" stroke="none" d="M 122.255005 127.75 C 119.45 127.511 118.569 130.426 118.47899 130.608 C 117.268 129.054 115.99 127.566 114.59899 126.185 C 111.773 123.370995 108.565 121.015 105.08101 119.19299 C 104.928 119.11399 104.779 119.031 104.629005 118.946 C 104.759 118.784 105.91301 118.546005 106.875 117.164 C 107.689 115.995 107.881004 115.201 107.897 114.96901 C 108.816 115.332 109.617 115.922005 110.450005 116.447 C 111.89 117.34599 113.273 118.34 114.593 119.424 C 115.785 120.411 116.943 121.439 118.044 122.54399 C 118.799 123.3 119.507 124.101 120.221 124.89399 C 121.051 125.816 121.889 126.744 122.545 127.824"/>
    <path fill="#ed5050" stroke="none" d="M 195.00401 141.092 C 194.70198 140.562 194.24399 140.174 193.876 139.7 C 191.894 137.154 190.474 134.287 189.473 131.178 C 189.358 130.821 189.254 130.46 189.138 130.103 C 189.09 129.951 189.05399 129.778 188.84901 129.783 C 186.323 127.505 183.274 126.234 180.288 124.842 C 175.777 122.743 171.066 121.299 166.301 120.027 C 162.564 119.03 158.778 118.29 154.98 117.606 C 154.635 117.54301 154.265 117.513 154.026 117.17299 C 153.963 116.92701 153.963 116.676 153.963 116.42401 C 153.958 113.449 153.959 110.473 153.968 107.497 C 153.968 107.173 153.874 106.8 154.206 106.561 C 154.954 106.755 155.727 106.755 156.488 106.866005 C 157.922 107.075 159.366 107.23101 160.8 107.46001 C 162.656 107.753 164.518 108.01301 166.359 108.402 C 167.63 108.672 168.908 108.899 170.177 109.184 C 171.664 109.519005 173.151 109.857 174.618 110.25001 C 177.06601 110.906 179.513 111.57 181.898 112.455 C 182.848 112.806 183.789 113.186 184.751 113.498 C 185.72998 113.816 186.498 114.450005 187.229 115.16401 C 188.819 116.716 190.404 118.273 191.938 119.887 C 192.963 120.967 193.993 122.04 194.97002 123.16901 C 195.39401 123.659 195.863 124.106 196.304 124.582 C 197.06502 125.406006 197.774 126.282 198.555 127.088 C 199.181 127.737 199.552 128.553 199.59799 129.487 C 199.663 130.8 199.622 132.102 199.306 133.394 C 198.723 135.769 197.65001 137.866 196.193 139.76 C 195.828 140.232 195.45 140.697 195.00401 141.092 Z"/>
    <path fill="#45423e" stroke="none" d="M 131.157 113.358 L 127.627 110.778 C 127.569 110.742 127.51299 110.700005 127.461 110.653 C 127.24801 110.437 127.119 110.53601 126.985 110.761 C 126.785 111.095 126.56 111.413 126.343994 111.737 C 125.83401 112.5 125.33399 113.273 124.81 114.026 C 124.41999 114.585 123.926 114.757 123.38 114.576996 C 122.564 114.307 122.196 113.381 122.601 112.579 C 122.727 112.326004 122.895004 112.096 123.052 111.86 C 124.847 109.15 126.644 106.439 128.441 103.729 C 128.553 103.548996 128.678 103.378 128.813 103.216 C 129.282 102.684 129.993 102.601 130.531 103 C 130.791 103.192 130.976 103.48 131.05 103.807 C 131.123 104.135 131.078 104.479 130.924 104.774 C 130.765 105.09 130.56 105.381 130.365 105.67501 C 129.808 106.51499 129.245 107.349 128.685 108.186 C 128.461 108.52 128.456 108.527 128.776 108.762 C 129.978 109.645 131.184 110.526 132.39 111.40499 L 131.157 113.358 Z"/>
    <path fill="#ed5050" stroke="none" d="M 145.709 105.893 C 145.874 106.016 145.863 106.203 145.863 106.379 C 145.867 109.533 145.867 112.686 145.863 115.839 C 145.867 115.947 145.85 116.05401 145.811 116.154 C 145.6 116.42401 145.298 116.413 145.013 116.414 C 143.957 116.41999 142.902 116.36 141.847 116.339 C 138.9 116.272 135.952 116.31199 133 116.318 C 132.796 116.318 132.59 116.33 132.4 116.426 C 132.288 116.48 132.185 116.558 132.202 116.70599 C 132.217 116.854996 132.336 116.90099 132.455 116.934 C 132.537 116.95601 132.622 116.967 132.708 116.964 C 134.155 116.93201 135.601 116.995 137.051 116.899 C 138.443 116.80701 139.842 116.835 141.24 116.92299 C 142.446 117 143.656 117.03099 144.864 117.077 C 145.172 117.089 145.479 117.067 145.753 117.258995 C 145.889 117.982 146.104 118.697 145.957 119.449 C 145.954 119.51799 145.936 119.58501 145.903 119.645 C 145.678 119.928 145.327 119.934006 145.034 120.062 C 144.48 120.305 144.204 120.702 144.221 121.347 C 144.301 124.291 144.081 127.23399 144.119 130.178 C 144.123 130.519 144.13 130.859 144.166 131.2 C 144.243 131.936 144.051 132.178 143.346 132.253 C 143.16 132.272 142.971 132.278 142.782 132.283 C 142.454 132.288 142.127 132.29 141.8 132.262 C 140.841 132.421 139.871 132.431 138.905 132.501 C 137.114 132.628 135.8 131.86 134.866 130.233 C 133.571 127.97499 132.264 125.725 131.08 123.398 C 130.548 122.355 130.055 121.292 129.494 120.263 C 128.594 118.609 128.586 116.993 129.636 115.41 C 130.095 114.72 130.43 113.944 130.978 113.318 C 131.281 112.56601 131.773 111.94 132.215 111.279 C 133.229 109.703 134.3 108.16999 135.453 106.704 C 135.805 106.256 136.294 105.98 136.745 105.658 C 137.344 105.48799 139.515 105.44199 140.065 105.424 C 140.69 105.40101 141.317 105.415 141.942 105.424 C 142.24 105.426 145.134 105.590996 145.709 105.893 Z"/>
    <path fill="#ed5050" stroke="none" d="M 182.488 136.215 C 182.29402 136.101 182.174 135.944 182.18698 135.696 C 182.226 134.939 181.762 134.567 181.194 134.289 C 180.43799 133.998 174.673 133.427 168.942 135.525 C 166.926 136.212 164.982 137.07 163.154 138.205 C 162.817 138.414 162.444 138.557 162.129 138.808 C 162.084 138.843 162 138.82 161.934 138.824 C 161.484 138.148 161.187 137.382 160.782 136.678 C 160.155 135.589 159.491 134.532 158.643 133.615 C 157.978 132.893 157.223 132.341 156.269 132.138 C 156.007 132.16 155.967 131.957 155.936 131.761 C 155.907 131.529 155.897 131.294 155.906 131.062 C 155.906 129.428 155.878 127.794 155.912 126.16 C 155.944 124.61499 155.776 123.07701 155.797 121.533 C 155.805 120.945 155.54 120.547 155.028 120.318 C 154.823 120.227 154.625 120.123 154.434 120.005 C 154.287 119.914 154.129 119.82099 154.193 119.590004 L 154.213 118.422 C 154.382 118.174 154.613 118.20901 154.86 118.248 C 157.696 118.698 160.513 119.253006 163.311 119.914 C 166.675 120.716 170.019 121.59599 173.293 122.742 C 175.918 123.66 178.516 124.658005 181.03102 125.87999 C 182.223 126.46 183.44 126.993 184.52899 127.777 C 184.94002 128.072 185.269 128.466 185.581 128.874 C 186.324 129.846 186.135 130.975 186.06601 132.081 C 186.04498 132.427 185.889 132.748 185.862 133.096 C 185.219 134.124 184.671 135.214 184.22502 136.352 C 184.133 136.588 184.011 136.676 183.755 136.585 C 183.342 136.438 182.912 136.337 182.488 136.215 Z"/>
    <path fill="#ed5050" stroke="none" d="M 185.869 133.097 C 185.726 132.809 185.749 132.496 185.80199 132.199 C 185.914 131.574 185.875 130.946 185.875 130.318 C 185.875 129.703 185.551 129.226 185.198 128.788 C 184.754 128.239 184.209 127.791 183.59799 127.47 C 180.735 125.938 177.77098 124.662 174.738 123.55399 C 172.546 122.752 170.335 122.021 168.088 121.415 C 165.248 120.65 162.397 119.943 159.512 119.363 C 157.854 119.03 156.184 118.781 154.525 118.456 C 154.425 118.437 154.321 118.43301 154.22 118.421005 C 154.22 118.026 154.22 117.631 154.22 117.237 C 155.239 117.33899 156.242 117.552 157.248 117.74299 C 158.556 117.99 159.862 118.254 161.166 118.53199 C 162.533 118.828 163.903 119.11399 165.256 119.493 C 166.292 119.783 167.341 120.029 168.381 120.314 C 170.923 121.012 173.435 121.814 175.91599 122.71901 C 177.932 123.45501 179.881 124.366 181.841 125.248 C 183.705 126.09 185.514 127.065 187.253 128.164 C 187.76399 128.485 188.23302 128.88 188.714 129.251 C 188.885 129.381 189.039 129.539 188.854 129.784 C 188.204 130.391 187.533 130.972 186.956 131.664 C 186.572 132.125 186.233 132.619 185.869 133.097 Z"/>
    <path fill="#ed5050" stroke="none" d="M 145.707 116.159 L 145.71 117.34301 C 142.297 117.04799 135.934 117.04799 132.723 117.238 C 132.478 117.226 132.235 117.199005 131.993 117.159 C 131.814 117.116 131.538 116.873 131.542 116.72001 C 131.551 116.44101 131.704 116.305 131.902 116.202 C 132.15 116.07101 132.48 116.047005 132.758 116.047005 C 135.831 116.047005 138.905 115.998 141.976 116.076004 C 143.219 116.106995 144.464 116.127 145.707 116.159 Z"/>
    <path fill="#fefefe" stroke="none" d="M 198.382 130.523 C 198.399 131.685 198.178 132.754 197.86198 133.804 C 197.30399 135.662 196.39699 137.319 195.241 138.833 C 195.006 139.14 194.99402 139.142 194.75 138.838 C 193.625 137.446 192.727 135.903 191.955 134.271 C 191.377 133.045 190.90302 131.774 190.47798 130.483 C 190.347 130.082 190.36201 130.011 190.743 129.805 C 192.073 129.086 193.46701 128.575 194.954 128.352 C 195.632 128.249 196.31499 128.251 196.993 128.163 C 197.061 128.157 197.129 128.156 197.19798 128.159 C 197.842 128.172 197.943 128.258 198.185 128.877 C 198.4 129.427 198.39598 129.999 198.382 130.523 Z"/>
    <path fill="#414141" stroke="none" d="M 154.147 106.82701 C 154.147 110.26 154.185 117.79 154.265 119.902 C 154.075 120.157 153.827 120.064 153.605 119.997 C 151.201 119.257996 148.782 119.368 146.355 119.835 C 146.15 119.874 145.951 119.928 145.778 119.75101 L 145.765 119.768005 C 145.653 119.606 145.765 102.829 145.751 101.75499 C 145.745 101.294 145.818 100.876 146.036 100.471 C 146.303 99.9728 146.536 99.4552 146.785 98.9451 C 146.819 98.9083 146.865 98.884995 146.915 98.8804 C 149.713 100.139 152.024 101.6 154.131 103.87 C 154.1 104.691 154.131 105.789 154.147 106.82701 Z"/>
    <path fill="#a19d98" stroke="none" d="M 146.924 98.68391 L 146.883 98.68391 L 146.842 98.676 C 147.044 98.16771 147.055 97.63521 147.053 97.0944 C 147.047 95.4783 147.072 93.86181 147.058 92.2462 C 147.052 91.6574 147.22 91.17981 147.57 90.71901 C 149.292 88.4458 151.165 86.3023 153.171 84.3041 C 154.447 83.0339 155.801 81.854 157.288 80.8579 C 157.571 80.9291 157.45 81.1232 157.386 81.2722 C 156.474 83.3914 156.603 85.6139 156.89 87.8197 C 157.015 88.7916 157.271 89.7932 158.039 90.5073 C 158.093 90.5524 158.13 90.6176 158.142 90.6897 C 158.153 90.7614 158.139 90.8354 158.101 90.8968 C 156.368 91.7454 155.008 93.06311 153.859 94.64469 C 153.689 94.8783 153.564 95.125 153.606 95.4327 C 153.53 97.35829 153.546 99.282005 153.61 102.450005 C 153.607 102.484 153.603 102.518 153.597 102.552 C 153.341 102.735 153.174 102.528 153.015 102.38701 C 152.331 101.773 151.666 101.136 150.928 100.589 C 150.122 99.99 149.295 99.4309 148.401 98.98601 C 147.93 98.7528 147.451 98.595 146.924 98.68391 Z"/>
    <path fill="#a19d98" stroke="none" d="M 158.403 80.6216 C 158.749 80.8036 158.926 81.1075 159.013 81.498 C 159.237 82.4909 159.384 83.5009 159.454 84.5184 C 159.574 86.2587 159.335 87.94271 158.921 89.6132 C 158.836 89.9609 158.737 90.304 158.518 90.5912 C 158.3 90.630295 158.233 90.4636 158.145 90.3044 C 157.126 88.4617 156.941 86.45089 157.068 84.3797 C 157.084 84.0957 157.129 83.8118 157.146 83.5256 C 157.203 82.4252 157.653 81.3882 158.403 80.6216 Z"/>
    <path fill="#a19d98" stroke="none" d="M 155.264 120.111 C 155.795 120.35701 156.056 120.717995 156.077 121.387 C 156.185 124.763 156.156 128.138 156.164 131.513 C 156.164 131.728 156.186 132.629 156.183 132.879 C 156.176 134.28 156.153 135.68 156.171 137.08 C 156.178 137.573 155.985 137.854 155.58 138.031 C 152.204 139.004 147.821 138.956 144.747 137.923 C 144.054 137.702 143.87 137.43 143.865 136.676 C 143.857 135.689 143.865 134.701 143.865 133.713 C 143.865 133.301 143.872 132.888 143.865 132.474 C 143.857 132.061 143.967 125.66 143.967 125.463 C 143.967 123.955 143.978 122.446 143.963 120.937004 C 143.958 120.463005 144.124 120.178 144.545 119.98 C 149.426 118.355 151.989 118.828 155.264 120.111 Z"/>
    <path fill="#45423d" stroke="none" d="M 144.877 128.999 L 144.877 121.718 C 144.877 121.593 144.874 121.467 144.877 121.34 C 144.889 120.84 144.93 120.77301 145.386 120.59799 C 147.102 119.904 152.121 119.24801 154.8 121.10999 C 155.223 121.344 155.291 121.583 155.308 122.15 C 155.378 123.425 155.258 132.898 155.262 136.546 C 155.262 136.619 155.262 136.69 155.262 136.762 C 155.249 137.283 155.216 137.308 154.714 137.417 C 151.59 138.101 148.483 138.011 145.389 137.201 C 144.93 137.081 144.906 137.069 144.906 136.547 C 144.902 134.874 144.902 133.203 144.906 131.531 C 144.906 130.686 144.906 129.841 144.906 128.996 L 144.877 128.999 Z"/>
    <path fill="#dcf9fb" stroke="none" d="M 146.81 98.78601 C 146.87 98.3243 147.137 98.27639 147.653 98.4034 C 148.272 98.598 148.865 98.87681 149.417 99.2338 C 150.643 100.005 151.818 100.854 152.849 101.907 C 153.079 102.142006 153.346 102.339 153.596 102.552 C 153.632 102.70701 153.711 102.847 153.824 102.953 C 154.15 103.261 154.193 103.617 154.128 104.068 C 153.587 103.98699 153.283 103.646 152.94 103.247 C 152.009 102.168 150.921 101.29299 149.767 100.497 C 149.057 100.006004 147.969 99.4707 147.18 99.1393 C 146.91 99.0257 146.778 99.0327 146.81 98.78601 Z"/>
    <path fill="#dcf9fb" stroke="none" d="M 158.407 80.6207 C 158.59 80.7255 158.706 80.7739 158.238 81.2109 C 157.644 81.7718 157.251 83.1849 157.291 85.5029 C 157.329 87.0398 157.349 88.4078 158.522 90.590805 C 158.423 90.75269 158.293 90.8719 158.102 90.89611 C 156.115 88.8393 156.308 82.5091 157.289 80.8572 C 157.696 80.4141 157.933 80.3638 158.407 80.6207 Z"/>
</svg>
