<svg width="512" height="512" xmlns="http://www.w3.org/2000/svg">
    <defs>
        <linearGradient id="Gradient_1" x1="259" y1="18" x2="259" y2="500" gradientUnits="userSpaceOnUse">
            <stop offset="0.9999999" stop-color="#554add"/>
            <stop offset="1" stop-color="#000000"/>
        </linearGradient>
    </defs>
    <g id="Layer_1">
        <path fill="url(#Gradient_1)" stroke="none" d="M 98 18 L 420 18 C 464.183 18 500 53.817 500 98 L 500 420 C 500 464.183 464.183 500 420 500 L 98 500 C 53.817 500 18 464.183 18 420 L 18 98 C 18 53.817 53.817 18 98 18 Z"/>
        <path fill="#000000" stroke="none" d="M 389.12 110.976 C 391.266 110.62299 394.63303 110.20401 396.55704 110.146 C 398.482 110.08699 405.897 110.717 413.039 111.509 C 424.723 112.89399 426.665 113.283 432.765 115.497 C 440.22598 118.168 447.00702 121.853 449.834 124.813995 C 452.144 127.214 453.79 131.709 453.466 134.859 C 453.11002 138.323 449.723 143.26 445.584 146.211 C 438.115 151.685 424.476 157.485 409.139 161.773 C 406.332 162.518 403.196 163.436 401.079 164.054 C 400.321 164.277 399.694 164.46 399.261 164.583 C 396.486 165.447 389.312 167.45 370.105 172.68098 C 365.776 173.87198 360.213 175.997 356.915 177.311 L 314.285 189.63599 C 314.163 189.666 314.051 189.69801 313.954 189.73201 L 313.789 189.779 L 313.793 189.793 C 313.74 189.816 313.69 189.84 313.647 189.866 C 313.014 190.22 308.796 207.545 303.279 230.21 C 292.869 272.978 261.277 412.015 256.951 414.652 C 250.335 418.685 244.061 422.49997 242.97598 423.09003 C 241.893 423.68 231.74 429.771 220.351 436.69104 C 201.058 448.341 199.5 449.2 197.032 448.94797 C 194.755 448.715 194.03499 448.26 191.97801 445.886 C 190.665 444.352 189.29698 442.112 188.91399 440.86404 C 188.293 438.827 188.333 438.44897 189.983 436.07297 C 190.96101 434.645 194.598 431.006 198.111 427.928 C 212.793 415.107 264.72 203.35301 264.614 203.152 C 264.437 203.006 249.404 206.816 243.864 208.479 C 242.276 208.99 239.239 209.822 236.903 210.461 L 236.618 210.539 C 234.55501 211.112 231.357 212.001 227.262 213.139 C 213.72202 216.903 190.37599 223.391 165.87 230.174 C 161.92 231.298 155.802 232.963 152.389 233.825 C 148.969 234.748 144.821 235.916 143.168 236.44798 C 142.769 236.561 142.135 236.744 141.33 236.978 C 138.82 237.707 134.64 238.92001 130.656 240.006 C 115.24801 244.353 110.725 243.572 103.399994 235.24998 C 100.479 231.961 99.645 231.367 97.557 231.15302 C 80.877 232.951 79.051 225.47401 93.062004 217.074 C 94.73601 215.71802 95.201 214.938 94.912 214.017 C 94.73 213.29802 94.67801 211.32 94.846 209.683 L 95.09401 206.65302 L 73.23 179.98 C 58.859 162.474 51.404003 152.93 51.488 152.111 C 51.656 150.473 53.471 149.003 55.051994 149.165 C 55.747997 149.236 57.462 149.984 58.851 150.763 C 59.014 150.853 59.212 150.964 59.439003 151.091 C 61.142002 152.047 64.5 153.93 67.439 155.522 C 70.769 157.326 75.547 159.977 78.023 161.377 C 87.452 166.667 95.976 171.419 99.793 173.463 C 101.688 174.522 103.72201 175.661 105.775 176.809 C 110.073 179.213 114.451 181.66298 117.808 183.514 L 122.162 185.932 L 144.548 179.626 C 156.859 176.17299 167.06 173.33202 167.25 173.351 C 167.411 173.368 168.444 173.057 169.725 172.67099 C 169.948 172.604 170.177 172.535 170.41 172.46498 C 172.684 171.662 180.736 169.393 223.014 157.485 C 230.094 155.49 238.132 153.226 247.263 150.653 C 263.393 146.127 278.211 141.912 280.256 141.294 C 282.309 140.612 284.214 140.106 284.468 140.133 C 284.72 140.159 285.835 139.891 286.963 139.497 C 288.154 139.108 300.799 135.499 315.086 131.485 C 329.366 127.533 342.404 123.836 344.057 123.30601 C 352.24698 120.768 385.726 111.648 389.12 110.976 Z"/>
        <path fill="#ffffff" stroke="none" d="M 389.12 110.976 C 391.266 110.62299 394.63303 110.20401 396.55704 110.146 C 398.482 110.08699 405.897 110.717 413.039 111.509 C 424.723 112.89399 426.665 113.283 432.765 115.497 C 440.22598 118.168 447.00702 121.853 449.834 124.813995 C 452.144 127.214 453.79 131.709 453.466 134.859 C 453.11002 138.323 449.723 143.26 445.584 146.211 C 438.115 151.685 424.476 157.485 409.139 161.773 C 406.332 162.518 403.196 163.436 401.079 164.054 C 400.321 164.277 399.694 164.46 399.261 164.583 C 396.486 165.447 389.312 167.45 370.105 172.68098 C 365.776 173.87198 360.213 175.997 356.915 177.311 L 314.285 189.63599 C 314.163 189.666 314.051 189.69801 313.954 189.73201 L 313.789 189.779 L 313.793 189.793 C 313.74 189.816 313.69 189.84 313.647 189.866 C 313.014 190.22 308.796 207.545 303.279 230.21 C 292.869 272.978 261.277 412.015 256.951 414.652 C 250.335 418.685 244.061 422.49997 242.97598 423.09003 C 241.893 423.68 231.74 429.771 220.351 436.69104 C 201.058 448.341 199.5 449.2 197.032 448.94797 C 194.755 448.715 194.03499 448.26 191.97801 445.886 C 190.665 444.352 189.29698 442.112 188.91399 440.86404 C 188.293 438.827 188.333 438.44897 189.983 436.07297 C 190.96101 434.645 194.598 431.006 198.111 427.928 C 212.793 415.107 264.72 203.35301 264.614 203.152 C 264.437 203.006 249.404 206.816 243.864 208.479 C 242.276 208.99 239.239 209.822 236.903 210.461 L 236.618 210.539 C 234.55501 211.112 231.357 212.001 227.262 213.139 C 213.72202 216.903 190.37599 223.391 165.87 230.174 C 161.92 231.298 155.802 232.963 152.389 233.825 C 148.969 234.748 144.821 235.916 143.168 236.44798 C 142.769 236.561 142.135 236.744 141.33 236.978 C 138.82 237.707 134.64 238.92001 130.656 240.006 C 115.24801 244.353 110.725 243.572 103.399994 235.24998 C 100.479 231.961 99.645 231.367 97.557 231.15302 C 80.877 232.951 79.051 225.47401 93.062004 217.074 C 94.73601 215.71802 95.201 214.938 94.912 214.017 C 94.73 213.29802 94.67801 211.32 94.846 209.683 L 95.09401 206.65302 L 73.23 179.98 C 58.859 162.474 51.404003 152.93 51.488 152.111 C 51.656 150.473 53.471 149.003 55.051994 149.165 C 55.747997 149.236 57.462 149.984 58.851 150.763 C 59.014 150.853 59.212 150.964 59.439003 151.091 C 61.142002 152.047 64.5 153.93 67.439 155.522 C 70.769 157.326 75.547 159.977 78.023 161.377 C 87.452 166.667 95.976 171.419 99.793 173.463 C 101.688 174.522 103.72201 175.661 105.775 176.809 C 110.073 179.213 114.451 181.66298 117.808 183.514 L 122.162 185.932 L 144.548 179.626 C 156.859 176.17299 167.06 173.33202 167.25 173.351 C 167.411 173.368 168.444 173.057 169.725 172.67099 C 169.948 172.604 170.177 172.535 170.41 172.46498 C 172.684 171.662 180.736 169.393 223.014 157.485 C 230.094 155.49 238.132 153.226 247.263 150.653 C 263.393 146.127 278.211 141.912 280.256 141.294 C 282.309 140.612 284.214 140.106 284.468 140.133 C 284.72 140.159 285.835 139.891 286.963 139.497 C 288.154 139.108 300.799 135.499 315.086 131.485 C 329.366 127.533 342.404 123.836 344.057 123.30601 C 352.24698 120.768 385.726 111.648 389.12 110.976 Z"/>
        <path fill="#000000" stroke="none" d="M 192.78198 119.933 C 174.359 111.827 179.40799 104.27799 185.216 99.482 L 286.11 134.355 L 240.09802 147.078 C 233.684 141.805 210.776 127.852005 192.78198 119.933 Z"/>
        <path fill="#ffffff" stroke="none" d="M 192.78198 119.933 C 174.359 111.827 179.40799 104.27799 185.216 99.482 L 286.11 134.355 L 240.09802 147.078 C 233.684 141.805 210.776 127.852005 192.78198 119.933 Z"/>
    </g>
</svg>
