<svg width="256" height="256" xmlns="http://www.w3.org/2000/svg">
    <path fill="#02e2ac" stroke="none" d="M 256 128 C 256 198.69243 198.69243 256 128 256 C 57.307552 256 0 198.69243 0 128 C 0 57.307552 57.307552 0 128 0 C 198.69243 0 256 57.307552 256 128 Z"/>
    <path fill="#0e0333" fill-rule="evenodd" stroke="none" d="M 161.847 108.014 C 167.12 115.406 169.983 124.382 169.908 133.434 C 169.908 142.334 167.045 151.235 161.847 158.476 L 172.846 166.848 C 179.852 157.194 183.69402 145.427 183.69402 133.509 C 183.76901 120.913 179.626 108.542 172.01698 98.5859 L 165.709 104.272 L 161.847 108.014 Z"/>
    <path fill="#0e0333" fill-rule="evenodd" stroke="none" d="M 182.64 172.26399 L 145.65 144.13 C 148.287 140.66 149.793 136.436 150.019 132.061 C 150.17 127.686 149.04 123.387 146.705 119.690994 L 164.409 103.7 L 182.941 86.3517 C 184.147 85.2203 184.222 83.2591 183.01599 82.0523 L 180.45499 79.4877 C 167.271 66.137 149.492 58.3679 130.809 57.7645 L 130.884 47.5817 C 130.959 46.902798 130.884 46.224 130.733 45.545105 C 130.507 44.8663 130.206 44.2628 129.754 43.7348 C 129.302 43.2068 128.775 42.8297 128.097 42.528 C 127.494 42.2263 126.816 42.0754 126.138 42.0754 C 125.46 42.0754 124.782 42.2263 124.17901 42.528 C 123.577 42.8297 122.97401 43.2068 122.522 43.7348 C 122.06999 44.2628 121.693 44.8663 121.542 45.4697 C 121.316 46.148502 121.241 46.827404 121.392 47.506195 L 121.316 57.990704 C 116.871994 58.4433 112.426994 59.273003 108.13301 60.5553 L 108.20801 47.506195 C 108.28299 46.827404 108.20801 46.148502 108.057 45.4697 C 107.831 44.7908 107.52999 44.1874 107.078 43.6594 C 106.626 43.1314 106.09899 42.7543 105.421 42.4526 C 104.818 42.1509 104.14 42 103.462 42 C 102.784 42 102.106 42.1509 101.503 42.4526 C 100.9 42.7543 100.298 43.1314 99.8458 43.6594 C 99.3938 44.1874 99.01709 44.7908 98.8664 45.3943 C 98.6404 46.073105 98.5651 46.752 98.7157 47.430798 L 98.4897 64.1004 C 83.2719 70.8889 70.7662 82.7311 63.157204 97.5905 C 55.5483 112.45 53.137596 129.497 56.452396 145.864 C 59.7671 162.232 68.5814 177.016 81.3885 187.727 C 94.1956 198.438 110.317 204.47198 126.966995 204.77402 L 180.83202 205 C 182.48901 205 183.845 203.642 183.845 201.983 L 183.845 174.75302 C 183.845 173.77301 183.39302 172.868 182.64 172.26399 Z M 128.021 191.64899 C 114.762 191.57399 101.87999 187.124 91.4082 179.053 C 80.9365 170.907 73.4029 159.517 70.0128 146.694 C 66.6227 133.871 67.6021 120.219 72.6496 108 C 77.7724 95.7802 86.7374 85.522 98.2637 78.8843 L 98.1884 98.7219 C 98.1131 99.4007 98.1884 100.08 98.3391 100.758 C 98.5651 101.437 98.8664 102.04099 99.3184 102.569 C 99.7704 103.09699 100.298 103.474 100.976 103.776 C 101.578995 104.077 102.25701 104.228 102.935 104.228 C 103.613 104.228 104.291 104.077 104.893 103.776 C 105.496 103.474 106.09899 103.09699 106.551 102.569 C 107.003006 102.04099 107.379 101.437 107.52999 100.834 C 107.756004 100.15501 107.831 99.4762 107.681 98.7973 L 107.756004 74.4341 C 114.386 72.0204 121.392 70.8889 128.473 70.8889 C 141.506 70.8889 154.163 75.1883 164.484 83.0329 C 165.237 83.6363 165.313 84.6923 164.635 85.3711 L 136.459 111.243 C 133.898 110.187 131.11 109.58399 128.323 109.58399 C 125.234 109.58399 122.145 110.187 119.282005 111.469 C 116.41999 112.75199 113.934 114.637 111.90001 116.975 C 109.865 119.314 108.359 122.105 107.45501 125.046 C 106.551 128.063 106.32499 131.156 106.77699 134.248 C 107.229 137.341 108.28299 140.283 109.941 142.923 C 111.598 145.563 113.857994 147.75 116.41999 149.485 C 119.05599 151.144 121.994 152.276 125.083 152.728 C 128.172 153.181 131.336 152.955 134.274 152.05 L 170.285 179.43 C 170.661 179.732 170.887 180.184 170.887 180.637 L 170.812 190.292 C 170.812 191.121 170.134 191.80002 169.305 191.80002 L 128.021 191.64899 Z M 136.836 131.307 C 136.836 132.966 136.308 134.626 135.404 136.059 C 134.425 137.492 133.144 138.548 131.562 139.227 C 129.98 139.906 128.247 140.056 126.665 139.679 C 125.083 139.302 123.50099 138.548 122.296005 137.341 C 121.09 136.134 120.262 134.626 119.96 132.966 C 119.659 131.307 119.81 129.572 120.488 128.063 C 121.166 126.47899 122.22101 125.19699 123.652 124.217 C 125.083 123.311005 126.741005 122.783 128.398 122.783 C 130.658 122.783 132.843 123.689 134.425 125.34801 C 135.932 126.857 136.836 128.969 136.836 131.307 Z"/>
</svg>
