<svg width="218" height="219" xmlns="http://www.w3.org/2000/svg">
    <path fill="#ffffff" stroke="none" d="M 109 218.1 C 169.089 218.1 217.8 169.389 217.8 109.299995 C 217.8 49.211395 169.089 0.5 109 0.5 C 48.9114 0.5 0.199997 49.211395 0.199997 109.299995 C 0.199997 169.389 48.9114 218.1 109 218.1 Z"/>
    <path fill="#187f49" stroke="none" d="M 159.7 75.8 C 146.4 75.8 134.6 81 125.7 96.600006 C 125.2 97.49999 125.9 98.700005 126.9 98.700005 L 151.1 98.700005 C 152.1 98.700005 152.8 99.5 152.8 100.4 L 152.8 118.1 C 152.8 119.1 152 119.8 151.1 119.8 L 118.4 119.8 C 117.1 119.8 115.90001 120.600006 115.3 121.80001 C 101 154.7 75.4 161.8 60.8 163 C 53.2 163.6 45.4 162.9 38 161.1 C 37.1 160.9 36.5 161.9 37 162.6 C 54.5 185.6 77.4 199.2 113.299995 199.2 C 155.6 199.2 194.2 160.2 194.2 118.700005 C 194.1 90 177.7 75.8 159.7 75.8 Z"/>
    <path fill="#a6c15b" stroke="none" d="M 180.7 55.5 C 163.2 32.7 140.4 19.3 104.7 19.3 C 62.4 19.3 23.8 58.300003 23.8 99.8 C 23.8 128.7 40.2 142.6 58.300003 142.6 C 71.6 142.6 83.4 137.5 92.2 122.1 C 92.7 121.2 92 120 91 120 L 66.7 120 C 65.7 120 65 119.2 65 118.3 L 65 100.600006 C 65 99.6 65.8 98.9 66.7 98.9 L 99.5 98.9 C 100.8 98.9 102 98.1 102.6 96.9 C 116.9 64 142.5 56.900005 157.1 55.699997 C 164.5 55.099995 172.2 55.8 179.49998 57.5 C 180.6 57.5 181.3 56.300003 180.7 55.5 Z"/>
</svg>
