<svg width="256" height="256" xmlns="http://www.w3.org/2000/svg">
    <defs>
        <clipPath id="clip0_119_5623">
            <path fill="#000000" stroke="none" d="M 0 0 L 100 0 L 100 100 L 0 100 Z"/>
        </clipPath>
    </defs>
    <g transform="matrix(2.56 0 0 2.56 0 0)">
        <g clip-path="url(#clip0_119_5623)">
            <path fill="#181818" stroke="none" d="M 0 0 L 100 0 L 100 100 L 0 100 Z"/>
            <path fill="#54fe6d" stroke="none" d="M 79.6755 34.451 L 62.3099 19.6476 C 61.0583 18.5851 59.4538 17.9998 57.793 18 L 24.866098 18 C 23.964397 18 23.0715 18.1728 22.2384 18.5087 C 21.4054 18.8445 20.6485 19.3367 20.011 19.9573 C 19.3734 20.5778 18.8676 21.3144 18.5226 22.1252 C 18.1775 22.9359 18 23.8049 18 24.682398 L 18 60.514004 C 17.9988 61.466 18.207 62.4072 18.6109 63.2743 C 19.0147 64.1414 19.6046 64.9143 20.341 65.5409 L 37.7024 80.3444 C 38.9585 81.4162 40.5735 82.0049 42.244 82 L 75.1339 82 C 76.9549 82 78.7014 81.2959 79.989 80.0427 C 81.2767 78.7895 82 77.0897 82 75.3174 L 82 39.486 C 82.0028 38.5341 81.797 37.5926 81.3962 36.7244 C 80.9953 35.8561 80.4087 35.081 79.6755 34.451 Z M 50.0062 62.29 C 47.506306 62.290802 45.0623 61.570004 42.9833 60.2188 C 40.9043 58.8675 39.2838 56.9466 38.3267 54.698902 C 37.3697 52.4511 37.1191 49.9776 37.6066 47.591206 C 38.0941 45.2049 39.2977 43.0129 41.0655 41.2925 C 42.8332 39.572 45.085495 38.4004 47.5374 37.926 C 49.989395 37.4515 52.5309 37.6954 54.8404 38.6269 C 57.149902 39.5584 59.1236 41.1356 60.512 43.1589 C 61.900402 45.1823 62.6411 47.560905 62.6403 49.994 C 62.6398 51.6096 62.3121 53.2092 61.6763 54.7016 C 61.040398 56.194 60.108696 57.549797 58.9343 58.6917 C 57.7599 59.833496 56.3658 60.7391 54.8317 61.3565 C 53.2977 61.9739 51.6538 62.291096 49.9937 62.29 L 50.0062 62.29 Z"/>
        </g>
    </g>
</svg>
