<svg width="256" height="256" xmlns="http://www.w3.org/2000/svg">
    <path fill="#1c68f3" stroke="none" d="M 128 256 C 198.692 256 256 198.692 256 128 C 256 57.3076 198.692 0 128 0 C 57.3076 0 0 57.3076 0 128 C 0 198.692 57.3076 256 128 256 Z"/>
    <path fill="#ffffff" fill-rule="evenodd" stroke="none" d="M 204.8 98.1333 L 204.8 140.8 L 76.8 140.8 L 76.8 140.8 L 71.2929 140.801 C 77.1216 166.689 100.25399 186.027 127.903 186.027 C 150.761 186.027 170.533 172.81 179.991 153.601 L 204.8 153.6 L 204.8 189.44 C 204.8 197.923 197.923 204.8 189.44 204.8 L 66.56 204.8 C 58.076904 204.8 51.2 197.923 51.2 189.44 L 51.2 98.1333 L 204.8 98.1333 Z M 165.259 153.601 C 157.113 165.51 143.421 173.32501 127.903 173.32501 C 112.385 173.32501 98.69239 165.51 90.54659 153.601 L 165.259 153.601 Z M 95.1467 108.373 C 83.1096 108.373 73.1515 117.274 71.4953 128.853 L 84.5883 128.854 C 86.0279 124.397 90.21079 121.17299 95.1467 121.17299 C 100.08299 121.17299 104.265 124.397 105.705 128.854 L 118.798 128.853 C 117.142 117.274 107.184 108.373 95.1467 108.373 L 95.1467 108.373 Z M 160.853 108.373 C 148.816 108.373 138.858 117.274 137.202 128.853 L 150.295 128.854 C 151.735 124.397 155.918 121.17299 160.853 121.17299 C 165.789 121.17299 169.972 124.397 171.412 128.854 L 184.50499 128.853 C 182.849 117.274 172.89001 108.373 160.853 108.373 Z M 189.44 51.2 C 197.923 51.2 204.8 58.076904 204.8 66.56 L 204.8 85.3333 L 51.2 85.3333 L 51.2 66.56 C 51.2 58.076904 58.076904 51.2 66.56 51.2 L 189.44 51.2 Z"/>
</svg>
