<svg width="256" height="256" xmlns="http://www.w3.org/2000/svg">
    <g>
        <g id="Layer_1">
            <path fill="none" stroke="none" visibility="hidden" d="M 127.7 0 L 128.3 0 C 198.79999 0 256 57.3 256 128 L 256 128 C 256 198.7 198.79999 256 128.3 256 L 127.7 256 C 57.2 256 0 198.7 0 128 L 0 128 C 0 57.3 57.2 0 127.7 0 Z"/>
            <path fill="#8d3cb4" stroke="none" d="M 127.7 0 L 128.3 0 C 198.79999 0 256 57.3 256 128 L 256 128 C 256 198.7 198.79999 256 128.3 256 L 127.7 256 C 57.2 256 0 198.7 0 128 L 0 128 C 0 57.3 57.2 0 127.7 0 Z"/>
            <path fill="#ffffff" stroke="none" d="M 181.7 75 L 181.2 74.7 L 180.90001 74.1 C 172.2 52.300003 151.5 38.1 128 38.1 C 104.5 38.1 83.9 52.300003 75.1 74.1 L 74.8 74.7 L 74.3 75 C 52.5 83.7 38.3 104.5 38.3 128 C 38.3 151.5 52.5 172.2 74.3 181 L 74.8 181.3 L 75.1 181.9 C 83.8 203.8 104.5 218 128 218 C 151.5 218 172.10002 203.8 180.90001 181.9 L 181.2 181.3 L 181.7 181 C 203.49998 172.3 217.7 151.5 217.7 128 C 217.7 104.5 203.49998 83.8 181.7 75 L 181.7 75 Z M 92 64.1 C 101 53.699997 114.1 47.699997 128 47.699997 C 141.9 47.699997 155 53.699997 164 64.1 C 165.1 65.5 165.4 67.1 164.5 68.5 C 163.6 69.9 162.3 71 160.7 71 C 149.8 71 139.2 74 130.2 79.7 C 129.4 80.3 128.8 80.3 128 80.3 C 127.2 80.3 126.4 80 125.80001 79.7 C 116.8 74 106.19999 71 95.3 71 C 84.4 71 92 70.2 91.5 68.5 C 90.700005 66.9 91 65.2 92 64.1 Z M 81.1 87.3 C 81.6 84 84.1 81.6 87.399994 81 C 90.1 80.4 92.9 80.4 95.3 80.4 C 106.19999 80.4 116.600006 84 125 90.8 C 126.6 92.2 129.1 92.2 131 90.8 C 139.5 84 149.5 80.4 160.4 80.4 C 171.3 80.4 165.9 80.7 168.3 81 C 171.6 81.6 174 84 174.6 87.3 C 175.1 90 175.1 92.8 175.1 95.2 C 175.1 100.4 174.3 105.6 172.6 110.8 C 171.8 113 169.9 114.9 167.7 115.7 C 165.2 116.5 162.8 116 160.9 114.6 C 151.1 107.5 139.6 103.90001 127.7 103.90001 C 115.8 103.90001 104.3 107.7 94.50001 114.6 C 93.1 115.7 91.5 116 90.1 116 C 88.7 116 88.5 116 87.6 115.7 C 85.1 114.9 83.5 113.2 82.7 110.8 C 81.1 105.9 80.2 100.7 80.2 95.2 C 80.2 89.7 80.5 89.7 81 87.3 L 81 87.3 Z M 158.5 128 C 158.5 130.5 157.1 132.9 155.2 134.3 C 147.3 140 137.8 142.8 128 142.8 C 118.19999 142.8 108.9 139.8 100.8 134.3 C 98.6 132.9 97.49999 130.5 97.49999 128 C 97.49999 125.49999 98.9 123.1 100.8 121.7 C 108.7 116 118.19999 113.2 128 113.2 C 137.8 113.2 147.1 116.2 155.2 121.7 C 157.1 123.1 158.5 125.49999 158.5 128 Z M 71.1 160.8 C 71.1 162.4 70.3 164.1 68.6 164.6 C 68.1 164.9 67.5 164.9 67 164.9 C 65.9 164.9 65.1 164.6 64.3 163.8 C 53.9 154.8 47.9 141.7 47.9 127.7 C 47.9 113.7 53.9 100.7 64.3 91.6 C 65.7 90.50001 67.3 90.19999 68.7 91 C 70.3 91.8 71.2 93.2 71.2 94.8 C 71.2 105.7 74.2 116.09999 79.9 125.4 C 80.7 126.8 80.7 128.4 79.9 129.8 C 74.2 139.1 71.2 149.7 71.2 160.7 L 71.2 160.7 Z M 164 191.9 C 155 202.3 141.9 208.30002 128 208.30002 C 114.1 208.30002 101 202.3 92 191.9 C 90.9 190.5 90.6 188.90001 91.5 187.49998 C 92.3 185.9 93.7 185 95.3 185 C 106.19999 185 116.8 182 125.80001 176.30002 C 127.2 175.5 128.8 175.5 130.4 176.30002 C 139.4 182 150 185 160.9 185 C 171.8 185 164.2 185.8 164.7 187.49998 C 165 188.90001 165 190.79999 163.9 191.9 L 163.9 191.9 Z M 174.9 168.7 C 174.4 172 171.89998 174.4 168.6 175 C 165.9 175.6 163.1 175.6 160.7 175.6 C 149.8 175.6 139.4 172 131 165.2 C 129.4 163.8 126.9 163.8 125.299995 165.2 C 116.8 172 106.50001 175.6 95.6 175.6 C 84.7 175.6 90.1 175.29999 87.7 175 C 84.4 174.4 82 172 81.4 168.7 C 80.9 166 80.9 163.2 80.9 160.8 C 80.9 155.6 81.7 150.4 83.4 145.2 C 84.2 143 86.1 141.1 88.3 140.3 C 90.8 139.5 93.2 140 95.1 141.4 C 104.9 148.5 116.4 152 128.3 152 C 140.2 152 151.7 148.2 161.5 141.4 C 163.4 140 165.9 139.5 168.3 140.3 C 170.7 141.1 172.39998 142.8 173.2 145.2 C 174.79999 150.1 175.69998 155.3 175.69998 160.8 C 175.4 163.5 175.4 166 174.9 168.7 L 174.9 168.7 Z M 191.80002 164.1 C 191 164.7 190.2 165.2 189.1 165.2 C 188 165.2 188 165.2 187.49998 164.9 C 185.9 164.1 185 162.7 185 161.1 C 185 150.2 182 139.8 176.30002 130.5 C 175.5 129.1 175.5 127.5 176.30002 126.1 C 182 117.1 185 106.4 185 95.5 C 185 84.6 185.8 92.2 187.49998 91.7 C 188.90001 90.9 190.79999 91.1 191.9 92.3 C 202.3 101.299995 208.30002 114.4 208.30002 128.3 C 208.30002 142.2 202.3 154.8 191.9 164.1 L 191.9 164.1 Z"/>
        </g>
    </g>
</svg>
