<svg width="256" height="256" xmlns="http://www.w3.org/2000/svg">
    <g>
        <path fill="#acd905" stroke="none" d="M 133.3 149 L 75.9 149 L 75.9 65 L 133.3 65 C 153 65 169 81 169 100.7 L 169 113.2 C 169 133 153.1 149 133.3 149"/>
        <path fill="#aeafaa" stroke="none" d="M 148.1 191 L 75.9 191 L 75.9 149 C 75.9 125.80001 94.700005 107 117.9 107 L 148.2 107 C 171.4 107 190.2 125.80001 190.2 149 C 190.2 172.2 171.3 191 148.1 191"/>
        <path fill="#5d6e3c" stroke="none" d="M 169 112.600006 L 169 113.299995 C 169 133 153 149 133.3 149 L 75.9 149 C 75.9 137.4 80.6 126.9 88.2 119.3 C 95.8 111.7 106.3 107 117.9 107 L 148.2 107 C 155.8 107 162.9 109.1 169 112.600006"/>
    </g>
</svg>
