<svg width="870" height="870" xmlns="http://www.w3.org/2000/svg">
    <defs>
        <linearGradient id="linear-gradient" x1="434.44" y1="740.1" x2="434.44" y2="557.5" gradientUnits="userSpaceOnUse">
            <stop offset="0" stop-color="#221488"/>
            <stop offset="1" stop-color="#6c51e6"/>
        </linearGradient>
        <radialGradient id="radial-gradient" cx="523.6" cy="511.85" r="50.46" fx="523.6" fy="511.85" gradientUnits="userSpaceOnUse">
            <stop offset="0" stop-color="#e5526c"/>
            <stop offset="1" stop-color="#6c51e6"/>
        </radialGradient>
        <radialGradient id="radial-gradient-2" cx="338.1" cy="518.42" r="50.46" fx="338.1" fy="518.42" gradientUnits="userSpaceOnUse">
            <stop offset="0" stop-color="#e5526c"/>
            <stop offset="1" stop-color="#6c51e6"/>
        </radialGradient>
    </defs>
    <path fill="#f9b246" stroke="#aa752a" stroke-miterlimit="10" stroke-width="10.97" d="M 845.82996 435 C 845.82996 543.95886 802.54626 648.4551 725.5007 725.5007 C 648.4551 802.54626 543.95886 845.82996 435 845.82996 C 326.0411 845.82996 221.54489 802.54626 144.49934 725.5007 C 67.45377 648.4551 24.17002 543.95886 24.170012 435 C 24.170012 326.0411 67.453766 221.54489 144.49933 144.49933 C 221.54489 67.453766 326.0411 24.170012 435 24.170012 C 543.95886 24.17002 648.4551 67.45377 725.5007 144.49934 C 802.54626 221.54489 845.82996 326.0411 845.82996 435 Z"/>
    <path fill="#db8f19" stroke="#aa752a" stroke-miterlimit="10" stroke-width="10.97" d="M 735.0999 439.97998 C 735.0999 605.7317 600.7317 740.10004 434.98 740.10004 C 269.22833 740.10004 134.86003 605.7317 134.86002 439.97998 C 134.86002 274.2283 269.2283 139.86002 434.98 139.86002 C 600.7317 139.86003 735.0999 274.22833 735.0999 439.97998 Z"/>
    <path fill="#6c51e6" stroke="#2e2d80" stroke-width="10.99" stroke-linecap="round" stroke-linejoin="round" d="M 721.44 428 C 737.21 440.62 735.43 457.74 732.96 476.39005 C 732.96 477.76 732.69 478.86002 732.69 480.23004 C 731.59 488.46 729.9501 496.14 728.3 504.37003 C 728.03 507.39005 727.48 510.4 726.37994 513.42 C 725.83 515.61 725.56006 517.81 725.01 520.28 C 725.01 520.55 724.46 521.1 724.46 521.38 C 723.91 523.03 723.91 524.95 723.0901 526.59 C 722.81995 527.41 722.81995 528.51 722.54 529.33 C 719.8 537.28 717.33 545.51 714.04 553.19 C 713.77 553.74 714.04 554.01 713.77 554.56 C 711.5801 559.5 709.6599 564.16 707.18994 569.1 C 704.72 574.04 702.7999 579.25 699.78 584.18 C 697.59 587.47 695.94 590.76 694.02 594.33 C 691.28 598.72 688.5301 602.56 685.79 607.22 C 685.24 608.04 684.42 608.59 683.87 609.41 C 677.56 619.01 671.25 626.96 664.12 635.47 C 658.63 641.78 653.15 647.26 647.12 653.02 C 642.73 656.86 638.89 660.7 634.78 664.81 C 633.68 665.63 632.86 666.46 631.76 667 C 627.65 670.02 624.63 673.31 620.24 676.05 C 619.14 676.87 618.05 677.97 616.95 679.07 C 609 685.1 601.59 690.31 593.09 695.24994 C 589.8 697.17 586.78 698.82 583.49 700.74 C 583.22 701.01 582.67 700.74 582.39 701.01 C 558.25 716.09 533.57 724.32 506.68997 731.18 C 491.33 735.29 476.52 738.04 460.89005 739.13 C 441.42 740.5 422.21997 740.5 402.75 738.58 C 402.48 738.58 401.93 738.03 401.65 738.03 C 378.88998 736.38 357.49 730.62 335.83 723.77 C 328.7 721.2999 321.84 718.28 314.99 715.54 C 308.96 713.07 303.47 709.78 297.71 707.04 C 288.66 702.38 280.43 697.7199 271.65 691.9601 C 270.55 690.8599 269.46 690.04004 268.08 689.22 C 255.46 681.54 244.77 673.04 234.34999 662.62 C 233.53 661.8 232.16 661.25 231.33 660.43 C 230.78 659.61 230.23 659.06 229.67998 658.78 C 212.39998 642.87 198.69 626.97 185.25 607.22 C 182.78 603.38 180.59 599.81 178.11998 595.98 C 177.85 595.43 177.85 595.16 177.57002 594.61 C 171.26 584.74 166.33 574.86 161.66 564.44 L 159.19 557.86 C 152.61 542.78 147.12 528.24 143.56 511.78 L 142.74 510.13 C 139.17 495.87 137.25 482.15997 135.88 467.89 L 135.88 464.32 C 135.61 462.67004 135.37 460.75 135.33 459.11 C 134.84 439.97998 175.01 447.01 175.18001 445.96"/>
    <path fill="#6c51e6" stroke="#221488" stroke-width="10.99" stroke-linecap="round" stroke-linejoin="round" d="M 135.35 459.11 L 155.9 408.02002 C 130.01 378.80002 114.29 340.37 114.29 298.26 C 114.29 206.79 188.44 132.64 279.91 132.64 C 328.8 132.64 372.73 153.83 403.05002 187.50998 C 414.7 185.85 426.57996 184.99 438.67 184.99 C 449.10004 184.99 459.33997 185.64 469.39 186.89 C 499.6 154.74 542.5 134.66 590.09 134.66 C 681.56 134.66 755.71 208.81 755.71 300.28 C 755.71 340.84 741.12 377.98004 716.92 406.78 L 734.7999 455.45"/>
    <path fill="#221488" stroke="none" d="M 322.67 212.86 C 309.76 206.54001 295.25 202.98001 279.91 202.98001 C 226.17 202.98001 182.61 246.54001 182.61 300.28 C 182.61 313.68 185.31999 326.44 190.22 338.05 C 223.13 284.48 268.74 239.85 322.67 212.86 Z"/>
    <path fill="#221488" stroke="none" d="M 550.38 212.86 C 563.29 206.54001 577.8 202.98001 593.14 202.98001 C 646.88 202.98001 690.44 246.54001 690.44 300.28 C 690.44 313.68 687.73 326.44 682.83 338.05 C 649.92 284.48 604.31 239.85 550.38 212.86 Z"/>
    <path fill="none" stroke="#aa752a" stroke-miterlimit="10" stroke-width="10.97" d="M 734.75995 420.92004 C 735.71 439.36 735.43 457.74 732.96 476.39005 C 732.96 477.76 732.69 478.86002 732.69 480.23004 C 731.59 488.46 729.9501 496.14 728.3 504.37003 C 728.03 507.39005 727.48 510.4 726.37994 513.42 C 725.83 515.61 725.56006 517.81 725.01 520.28 C 725.01 520.55 724.46 521.1 724.46 521.38 C 723.91 523.03 723.91 524.95 723.0901 526.59 C 722.81995 527.41 722.81995 528.51 722.54 529.33 C 719.8 537.28 717.33 545.51 714.04 553.19 C 713.77 553.74 714.04 554.01 713.77 554.56 C 711.5801 559.5 709.6599 564.16 707.18994 569.1 C 704.72 574.04 702.7999 579.25 699.78 584.18 C 697.59 587.47 695.94 590.76 694.02 594.33 C 691.28 598.72 688.5301 602.56 685.79 607.22 C 685.24 608.04 684.42 608.59 683.87 609.41 C 677.56 619.01 671.25 626.96 664.12 635.47 C 658.63 641.78 653.15 647.26 647.12 653.02 C 642.73 656.86 638.89 660.7 634.78 664.81 C 633.68 665.63 632.86 666.46 631.76 667 C 627.65 670.02 624.63 673.31 620.24 676.05 C 619.14 676.87 618.05 677.97 616.95 679.07 C 609 685.1 601.59 690.31 593.09 695.24994 C 589.8 697.17 586.78 698.82 583.49 700.74 C 583.22 701.01 582.67 700.74 582.39 701.01 C 558.25 716.09 533.57 724.32 506.68997 731.18 C 491.33 735.29 476.52 738.04 460.89005 739.13 C 441.42 740.5 422.21997 740.5 402.75 738.58 C 402.48 738.58 401.93 738.03 401.65 738.03 C 378.88998 736.38 357.49 730.62 335.83 723.77 C 328.7 721.2999 321.84 718.28 314.99 715.54 C 308.96 713.07 303.47 709.78 297.71 707.04 C 288.66 702.38 280.43 697.7199 271.65 691.9601 C 270.55 690.8599 269.46 690.04004 268.08 689.22 C 255.46 681.54 244.77 673.04 234.34999 662.62 C 233.53 661.8 232.16 661.25 231.33 660.43 C 230.78 659.61 230.23 659.06 229.67998 658.78 C 212.39998 642.87 198.69 626.97 185.25 607.22 C 182.78 603.38 180.59 599.81 178.11998 595.98 C 177.85 595.43 177.85 595.16 177.57002 594.61 C 171.26 584.74 166.33 574.86 161.66 564.44 L 159.19 557.86 C 152.61 542.78 147.12 528.24 143.56 511.78 L 142.74 510.13 C 139.17 495.87 137.25 482.15997 135.88 467.89 L 135.88 464.32 C 135.61 462.67004 135.33 460.75 135.33 459.11 C 134.78 449.24 134.51 439.09003 134.78 429.22 C 135.05 423.19 135.05 417.15 135.88 410.84 C 136.15 409.74 136.43 408.37003 136.6 407.32"/>
    <path fill="#221488" stroke="none" d="M 458 496.23004 C 446.39 495.85 443.32 502.34998 438.11002 502.46 C 432.90002 502.34998 429.83 495.85 418.22 496.23004 C 412.55 496.42 406.15 502.73 406.77 515.82 C 407.26 526.32 413.07 543.79 438.12 543.85 C 463.17 543.79 468.98 526.32 469.47 515.82 C 470.08 502.73 463.69 496.42 458.02 496.23004 Z"/>
    <path fill="#ef69a6" stroke="none" d="M 461.33 529.58 C 461.32993 535.749 450.82205 540.75 437.86 540.75 C 424.89792 540.75 414.39 535.749 414.38998 529.58 C 414.39 523.411 424.89792 518.41003 437.86 518.41003 C 450.82205 518.41003 461.32993 523.411 461.33 529.58 Z"/>
    <path fill="#221488" stroke="none" d="M 457.02002 501.69998 C 457.27997 501.69998 457.55 501.69998 457.82 501.71 C 458.79 501.73996 459.88 502.34998 460.83 503.36 C 462.15 504.79 464.32 508.28 463.98 515.56 C 463.83 518.85 462.94 525.14 458.75 530.28 C 454.39 535.62 447.44 538.34 438.13 538.36 C 428.79 538.34 421.84998 535.62 417.48 530.28 C 413.28 525.14 412.4 518.85 412.25 515.56 C 411.91003 508.28 414.08 504.79 415.39996 503.36 C 416.34 502.34 417.44 501.73996 418.41 501.71 C 418.68002 501.71 418.95 501.69998 419.21 501.69998 C 424.17 501.69998 426.79 503.26 429.56 504.90997 C 431.89 506.30002 434.53003 507.87 438.01 507.94 L 438.12 507.94 C 438.12 507.94 438.23 507.94 438.23 507.94 C 441.71 507.87 444.35 506.30002 446.68 504.90997 C 449.45 503.26 452.06998 501.69998 457.03 501.69998 M 457.02002 496.21 C 446.21002 496.21 443.16998 502.34998 438.1 502.45 C 433.04 502.34998 430 496.21 419.18002 496.21 C 418.86 496.21 418.54 496.21 418.2 496.23004 C 412.53 496.42 406.13 502.73 406.75 515.82 C 407.24002 526.32 413.05 543.79 438.1 543.85 C 463.15 543.79 468.96002 526.32 469.45 515.82 C 470.06 502.73 463.67 496.42 458 496.23004 C 457.67 496.22 457.34 496.21 457.02002 496.21 L 457.02002 496.21 Z"/>
    <g opacity="0.5">
        <path fill="url(#radial-gradient)" stroke="none" d="M 574.06 511.85 C 574.06 539.7183 551.46826 562.31 523.6 562.31 C 495.73166 562.31 473.13998 539.71826 473.13998 511.85 C 473.13998 483.98172 495.73166 461.39 523.6 461.39 C 551.46826 461.39 574.06 483.98172 574.06 511.85 Z"/>
    </g>
    <path fill="#221488" stroke="none" d="M 547.66 458.16 C 547.66 483.15088 536.88794 503.41 523.6 503.41 C 510.312 503.41 499.53998 483.15088 499.53998 458.16 C 499.53998 433.16913 510.312 412.91 523.6 412.91 C 536.88794 412.91 547.66 433.16913 547.66 458.16 Z"/>
    <path fill="#ffffff" stroke="none" d="M 550.54 424.64 C 550.54 431.11835 545.28827 436.37003 538.81 436.37003 C 532.3317 436.37003 527.08 431.11835 527.08 424.64 C 527.08 418.1617 532.3317 412.91 538.81 412.91 C 545.28827 412.91 550.54 418.1617 550.54 424.64 Z"/>
    <path fill="#ffffff" stroke="none" d="M 532.24 442.59 C 532.24 446.45047 529.1105 449.58 525.25 449.58 C 521.3895 449.58 518.26 446.45047 518.26 442.59 C 518.26 438.72952 521.3895 435.6 525.25 435.6 C 529.1105 435.6 532.24 438.72952 532.24 442.59 Z"/>
    <g opacity="0.5">
        <path fill="url(#radial-gradient-2)" stroke="none" d="M 388.56 518.42 C 388.56 546.28827 365.9683 568.88 338.1 568.88 C 310.23172 568.88 287.64 546.28827 287.64 518.42 C 287.64 490.5517 310.23172 467.95996 338.1 467.95996 C 365.9683 467.95996 388.56 490.5517 388.56 518.42 Z"/>
    </g>
    <path fill="#221488" stroke="none" d="M 367.5 455.1 C 367.5 480.09088 356.72797 500.35 343.44 500.35 C 330.15204 500.35 319.38 480.09088 319.38 455.1 C 319.38 430.10913 330.15204 409.85 343.44 409.85 C 356.72797 409.85 367.5 430.10913 367.5 455.1 Z"/>
    <path fill="#ffffff" stroke="none" d="M 370.38004 421.58 C 370.38004 424.69098 369.14417 427.67453 366.94437 429.87433 C 364.74457 432.07413 361.761 433.31 358.65 433.31 C 355.53897 433.31 352.55542 432.07413 350.35562 429.87433 C 348.15582 427.67453 346.91998 424.69098 346.91998 421.58 C 346.91998 418.469 348.15582 415.4854 350.35562 413.2856 C 352.55542 411.08582 355.53897 409.84998 358.65 409.84998 C 361.761 409.84998 364.74457 411.08582 366.94437 413.2856 C 369.14417 415.4854 370.38004 418.469 370.38004 421.58 Z"/>
    <path fill="#ffffff" stroke="none" d="M 352.08 439.53 C 352.08 443.39047 348.9505 446.52 345.09 446.52 C 341.22952 446.52 338.1 443.39047 338.1 439.53 C 338.1 435.66953 341.22952 432.54 345.09 432.54 C 348.9505 432.54 352.08 435.66953 352.08 439.53 Z"/>
    <g opacity="0.43">
        <path fill="url(#linear-gradient)" stroke="none" d="M 670.64 561.25 C 625.26 557.77 579.71 557.28 534.22 557.57 C 488.53 557.86 442.85 558.77 397.15 558.77 L 159.56 558.77 L 161.68 564.42 C 166.34 574.84 171.28 584.72 177.59001 594.59 C 177.86 595.14 177.86 595.41 178.14 595.96 C 180.61 599.8 182.79999 603.37 185.27 607.2 C 198.71 626.95 212.42 642.85 229.7 658.76 C 230.25 659.03 230.79999 659.58 231.35 660.41 C 232.17 661.23 233.54 661.78 234.36998 662.6 C 244.78998 673.02 255.49 681.52 268.1 689.2 C 269.47 690.02 270.57 690.85 271.67 691.94 C 280.45 697.7 288.67 702.36 297.73 707.01996 C 303.49 709.7601 308.97 713.0499 315.01 715.52 C 321.87 718.25995 328.72 721.28 335.85 723.75 C 357.52 730.61 378.91003 736.37006 401.67 738.01 C 401.94 738.01 402.49 738.56 402.77 738.56 C 422.24002 740.48 441.44 740.48 460.91 739.11 C 476.54004 738.01 491.35 735.27 506.70996 731.16 C 533.59 724.30005 558.27 716.08 582.41 700.99 C 582.68 700.72003 583.23 700.99 583.51 700.72003 C 586.8 698.8 589.82 697.15 593.11 695.23 C 601.61 690.29 609.02 685.08 616.97 679.05 C 618.07 677.95 619.16 676.86 620.26 676.03 C 624.65 673.29 627.67 670 631.78 666.98 C 632.88 666.43 633.7 665.61 634.8 664.79 C 638.91 660.68 642.75 656.84 647.14 653 C 653.17 647.24 658.66 641.76 664.14 635.45 C 671.27 626.95 677.58 618.99 683.89 609.39 C 684.44 608.57 685.26 608.02 685.81 607.2 C 688.55 602.54 691.30005 598.7 694.04 594.31 C 695.96 590.74 697.61 587.45 699.8 584.16 C 702.82 579.22 704.74 574.01 707.21 569.08 C 707.97003 567.56 708.67004 566.07 709.35 564.58 C 696.46 563.4 683.56 562.23 670.66 561.24 Z"/>
    </g>
    <path fill="#6c51e6" stroke="#221488" stroke-width="10.99" stroke-linecap="round" stroke-linejoin="round" d="M 155.6 483.47 C 155.6 483.47 66.87 537.18 84.27 576.51 C 96.16 603.39 172.66 565.14 172.66 565.14"/>
    <path fill="#6c51e6" stroke="#221488" stroke-width="10.99" stroke-linecap="round" stroke-linejoin="round" d="M 706.86 483.47 C 706.86 483.47 795.59 537.18 778.19 576.51 C 766.3 603.39 689.8 565.14 689.8 565.14"/>
    <g transform="matrix(0.99198294 0.1263721 -0.1263721 0.99198294 363.1 806.95)"/>
    <g transform="matrix(0.99994326 0.01064631 -0.01064631 0.99994326 420.69998 813.24)"/>
    <g transform="matrix(0.9952445 -0.0974092 0.0974092 0.9952445 450.86 813.94)"/>
</svg>
