<svg width="344" height="394.66666" xmlns="http://www.w3.org/2000/svg">
    <defs>
        <linearGradient id="paint0_linear" x1="29.6775" y1="5.9997" x2="29.6775" y2="52.1099" gradientUnits="userSpaceOnUse" gradientTransform="matrix(2.1838648 0 0 2.1838648 -19.003334 -11.525244)">
            <stop offset="0" stop-color="#ffffff"/>
            <stop offset="0.98" stop-color="#389e20"/>
            <stop offset="1" stop-color="#000000"/>
        </linearGradient>
    </defs>
    <g transform="matrix(3.7795277 0 0 3.7795277 0 0)">
        <g id="layer1">
            <path id="path2" fill="#87f96e" stroke="none" d="M 50.15268 2.6054957 C 47.76222 1.2354262 43.854412 1.2354262 41.474655 2.6054957 L 4.998206 23.522074 C 2.6053028 24.892012 0.6514436 28.255383 0.6514436 30.998095 L 0.6514436 72.84706 C 0.6514436 75.58716 2.6053028 78.95315 4.998206 80.32571 L 41.464172 101.24758 C 43.854412 102.617516 47.76222 102.617516 50.142197 101.24758 L 86.62104 80.32309 C 89.00887 78.95053 90.96256 75.58978 90.96256 72.84422 L 90.96256 31.003342 C 90.96256 28.260624 89.00887 24.897251 86.62104 23.527313 Z"/>
            <g style="mix-blend-mode:overlay;isolation:auto">
                <path id="path4" fill="url(#paint0_linear)" stroke="none" d="M 50.15268 2.6054957 C 47.76222 1.2354262 43.854412 1.2354262 41.474655 2.6054957 L 4.998206 23.522074 C 2.6053028 24.892012 0.6514436 28.255383 0.6514436 30.998095 L 0.6514436 72.84706 C 0.6514436 75.58716 2.6053028 78.95315 4.998206 80.32571 L 41.464172 101.24758 C 43.854412 102.617516 47.76222 102.617516 50.142197 101.24758 L 86.62104 80.32309 C 89.00887 78.95053 90.96256 75.58978 90.96256 72.84422 L 90.96256 31.003342 C 90.96256 28.260624 89.00887 24.897251 86.62104 23.527313 Z"/>
            </g>
            <path id="path6" fill="#062f4f" stroke="none" d="M 49.431126 23.7433 C 49.431126 21.965849 47.989994 20.52472 46.21233 20.52472 C 44.434666 20.52472 42.993748 21.965849 42.993748 23.7433 L 42.993748 82.6037 C 42.993748 84.38136 44.434666 85.82227 46.21233 85.82227 C 47.989994 85.82227 49.431126 84.38136 49.431126 82.6037 Z"/>
            <path id="path8" fill="#062f4f" stroke="none" d="M 74.7371 52.230286 C 74.31212 51.49913 73.61503 50.965828 72.79804 50.74701 C 71.981064 50.528183 71.110794 50.641743 70.377235 51.062794 L 49.276512 63.246143 L 49.276512 70.60926 L 73.5696 56.585133 C 74.29945 56.160152 74.83166 55.463936 75.05048 54.648262 C 75.26909 53.832584 75.1564 52.96341 74.7371 52.230286 Z"/>
            <path id="path10" fill="#062f4f" stroke="none" d="M 17.516775 52.67405 C 17.941755 51.942673 18.639065 51.40937 19.456047 51.19055 C 20.272814 50.971947 21.143305 51.085506 21.876863 51.506336 L 42.97737 63.68968 L 42.97737 71.052795 L 18.684488 57.028675 C 17.95464 56.603695 17.422215 55.90748 17.20361 55.091805 C 16.984785 54.27613 17.097473 53.40695 17.516775 52.67405 Z"/>
            <path id="path12" fill="#062f4f" stroke="none" d="M 74.7371 35.64667 C 74.31212 34.915516 73.61503 34.382217 72.79804 34.16339 C 71.981064 33.94457 71.110794 34.058132 70.377235 34.47918 L 49.276512 46.65968 L 49.276512 54.022804 L 73.5696 40.00676 C 74.300766 39.58178 74.83406 38.88447 75.05289 38.067486 C 75.271706 37.250504 75.15815 36.380234 74.7371 35.64667 Z"/>
            <path id="path14" fill="#062f4f" stroke="none" d="M 17.515465 36.08279 C 17.940445 35.351635 18.637535 34.818115 19.454302 34.598854 C 20.271067 34.379814 21.141556 34.4925 21.875553 34.912457 L 42.976063 47.095802 L 42.976063 54.45892 L 18.683178 40.432175 C 17.954205 40.00785 17.422432 39.31251 17.203827 38.497925 C 16.985004 37.683125 17.097036 36.815258 17.515465 36.08279 Z"/>
        </g>
    </g>
</svg>
