<svg width="204" height="204" xmlns="http://www.w3.org/2000/svg">
    <path fill="#bac2e2" stroke="none" d="M 102.0005 0.235352 L 102.0005 0.235352 C 158.19576 0.235352 203.751 45.790604 203.751 101.985855 L 203.751 101.985855 C 203.751 158.1811 158.19576 203.73634 102.0005 203.73634 L 102.0005 203.73634 C 45.805252 203.73634 0.25 158.1811 0.25 101.985855 L 0.25 101.985855 C 0.25000024 45.790604 45.805252 0.235352 102.0005 0.235352 Z"/>
    <path fill="#0c2246" fill-rule="evenodd" stroke="none" d="M 102.001 39.6226 L 86.87629 54.54 L 102.001 69.4575 L 117.126 54.54 L 102.001 39.6226 Z M 77.8967 63.2419 L 63.257 77.9581 L 101.794 116.696 L 140.331 77.9581 L 125.691 63.242 L 101.794 87.26381 L 77.8967 63.2419 Z M 54.654102 86.861305 L 39.6377 101.898994 L 102.001 164.349 L 164.364 101.898994 L 149.348 86.8614 L 102.001 134.274 L 54.654102 86.861305 Z"/>
</svg>
