<svg width="250" height="44" xmlns="http://www.w3.org/2000/svg">
    <defs>
        <linearGradient id="linear0" x1="-502.3307" y1="2173.1218" x2="-355.96" y2="2319.4927" gradientUnits="userSpaceOnUse" gradientTransform="matrix(0.130208 0 0 -0.130564 73.4375 312.56973)">
            <stop offset="0" stop-color="#a900ff"/>
            <stop offset="0.4844" stop-color="#4f54ff"/>
            <stop offset="1" stop-color="#00b0ff"/>
        </linearGradient>
        <linearGradient id="linear1" x1="-467.7101" y1="2136.6565" x2="-321.225" y2="2283.1416" gradientUnits="userSpaceOnUse" gradientTransform="matrix(0.130208 0 0 -0.130564 73.4375 312.56973)">
            <stop offset="0" stop-color="#a900ff"/>
            <stop offset="0.4844" stop-color="#4f54ff"/>
            <stop offset="1" stop-color="#00b0ff"/>
        </linearGradient>
    </defs>
    <g id="surface1">
        <path fill="#ffffff" stroke="none" d="M 249.08984 29.714844 C 248.07422 31.203125 246.6797 31.753906 244.85545 31.714844 C 240.6914 31.621094 236.51172 31.6875 232.17578 31.6875 C 232.17578 30.527344 232.17578 29.441406 232.17578 28.097656 C 236.4336 28.097656 240.7539 28.097656 245.22267 28.097656 C 245.22267 26.753906 245.22267 25.683594 245.22267 24.3125 C 242.27733 24.3125 239.38673 24.324219 236.4961 24.3125 C 232.77345 24.296875 231.76953 23.30469 231.7461 19.636719 C 231.6914 13.527344 232.08202 13.132812 238.24219 13.132812 C 241.48438 13.132812 244.72656 13.132812 248.12502 13.132812 C 248.12502 14.375 248.12502 15.511719 248.12502 16.90625 C 244.01172 16.90625 239.8711 16.90625 235.625 16.90625 C 235.625 18.175781 235.625 19.207031 235.625 20.589844 C 238.4883 20.589844 241.37889 20.667969 244.25781 20.5625 C 246.25 20.5 247.90234 20.929688 249.08984 22.613281 C 249.08984 24.964844 249.08984 27.339842 249.08984 29.714844 Z M 249.08984 29.714844"/>
        <path fill="#ffffff" stroke="none" d="M 200.14453 27.88672 C 202.2539 23.617188 204.16797 19.78125 206.05469 15.941406 C 207.52734 12.964844 207.52734 12.964844 211.10547 13.199219 C 211.10547 19.269531 211.10547 25.34375 211.10547 31.542969 C 210 31.542969 208.90623 31.542969 207.55077 31.542969 C 207.55077 28.449219 207.55077 25.328125 207.55077 22.207033 C 207.39453 22.167969 207.23828 22.144533 207.08203 22.105469 C 205.79297 24.78125 204.34766 27.406248 203.24219 30.160156 C 202.47266 32.10547 201.01563 31.558594 199.64844 31.675781 C 198.34766 31.777344 197.46094 31.531252 196.875 30.132813 C 195.7539 27.445313 194.375 24.859375 192.64453 22.339842 C 192.64453 25.382813 192.64453 28.421875 192.64453 31.570313 C 191.32814 31.570313 190.23438 31.570313 188.98438 31.570313 C 188.98438 25.460938 188.98438 19.390625 188.98438 13.316405 C 192.65623 12.796876 192.65623 12.796876 194.17969 15.875 C 196.1211 19.765625 198.04689 23.644531 200.14453 27.88672 Z M 200.14453 27.88672"/>
        <path fill="#ffffff" stroke="none" d="M 149.3086 27.925781 C 152.9414 27.925781 156.44531 27.925781 160.08984 27.925781 C 160.08984 26.72656 160.08984 25.589844 160.08984 24.234375 C 157.6836 24.234375 155.33984 24.234375 152.90234 24.234375 C 152.90234 22.964844 152.90234 21.933594 152.90234 20.734375 C 156.51172 20.734375 160.10547 20.734375 163.8789 20.734375 C 163.8789 24.27344 163.8789 27.847656 163.8789 31.675781 C 160.66406 31.675781 157.4336 31.675781 154.20703 31.675781 C 152.42188 31.675781 150.625 31.699219 148.83984 31.660158 C 146.70703 31.609375 145.50781 30.667969 145.4414 28.605469 C 145.32422 24.519531 145.33984 20.433594 145.42969 16.359375 C 145.46875 14.570312 146.57422 13.238281 148.38672 13.199219 C 153.33203 13.070312 158.29297 13.160156 163.34766 13.160156 C 163.34766 14.441406 163.34766 15.535156 163.34766 16.828125 C 158.71094 16.828125 154.08984 16.828125 149.3086 16.828125 C 149.3086 20.578125 149.3086 24.15625 149.3086 27.925781 Z M 149.3086 27.925781"/>
        <path fill="#ffffff" stroke="none" d="M 185.74219 31.570313 C 184.34764 31.570313 183.2539 31.570313 181.96484 31.570313 C 181.96484 29.179686 181.96484 26.894531 181.96484 24.468748 C 178.1914 24.468748 174.59766 24.468748 170.83203 24.468748 C 170.83203 26.855467 170.83203 29.140625 170.83203 31.542969 C 169.5586 31.542969 168.47656 31.542969 167.08203 31.542969 C 167.08203 29.089844 167.08203 26.609375 167.08203 24.128906 C 167.08203 21.6875 167.04297 19.246094 167.09766 16.816406 C 167.14844 14.453125 168.4375 13.160156 170.82031 13.121093 C 174.53125 13.082031 178.24219 13.082031 181.95313 13.121093 C 184.08984 13.148439 185.66406 14.425782 185.71486 16.425781 C 185.8086 21.425781 185.74219 26.425781 185.74219 31.570313 Z M 170.92578 20.445313 C 174.59766 20.445313 178.13672 20.445313 181.79689 20.445313 C 181.79689 19.269531 181.79689 18.199219 181.79689 17.089844 C 178.09767 17.089844 174.50392 17.089844 170.92578 17.089844 C 170.92578 18.292969 170.92578 19.324219 170.92578 20.445313 Z M 170.92578 20.445313"/>
        <path fill="#ffffff" stroke="none" d="M 100.69141 24.429688 C 96.75781 24.429688 93.203125 24.429688 89.49218 24.429688 C 89.49218 26.84375 89.49218 29.128906 89.49218 31.542969 C 88.17578 31.542969 87.03126 31.542969 85.76953 31.542969 C 85.76953 26.347656 85.67578 21.214844 85.82031 16.097656 C 85.87109 14.191406 87.31641 13.175781 89.20703 13.148439 C 93.046875 13.082031 96.90235 13.082031 100.74219 13.148439 C 102.78516 13.175781 104.2461 14.425782 104.28516 16.425781 C 104.402336 21.425781 104.32422 26.425781 104.32422 31.558594 C 103.11328 31.558594 102.01953 31.558594 100.69141 31.558594 C 100.69141 29.257813 100.69141 26.921873 100.69141 24.429688 Z M 89.60938 17.027344 C 89.60938 18.226563 89.60938 19.308594 89.60938 20.40625 C 93.33203 20.40625 96.91406 20.40625 100.44141 20.40625 C 100.44141 19.167969 100.44141 18.097656 100.44141 17.027344 C 96.74609 17.027344 93.203125 17.027344 89.60938 17.027344 Z M 89.60938 17.027344"/>
        <path fill="#ffffff" stroke="none" d="M 118.33202 19.429688 C 118.33202 23.63281 118.33202 27.550781 118.33202 31.558594 C 116.99219 31.558594 115.89844 31.558594 114.64843 31.558594 C 114.64843 25.484375 114.64843 19.414063 114.64843 13.292969 C 116.58984 12.730469 117.95703 13.355469 119.36327 14.765626 C 122.60547 18.03125 126.05469 21.085938 129.3086 24.128906 C 129.3086 20.851563 129.3086 17.144531 129.3086 13.277344 C 130.65234 13.277344 131.78516 13.277344 133.04688 13.277344 C 133.04688 19.324219 133.04688 25.355469 133.04688 31.464846 C 131.64063 31.960938 130.625 31.570313 129.57031 30.499998 C 125.96484 26.84375 122.26562 23.292969 118.33202 19.429688 Z M 118.33202 19.429688"/>
        <path fill="#ffffff" stroke="none" d="M 218.42578 24.246094 C 218.42578 25.628908 218.42578 26.675781 218.42578 27.964844 C 222.09766 27.964844 225.70311 27.964844 229.41408 27.964844 C 229.41408 29.257813 229.41408 30.289063 229.41408 31.492188 C 224.53125 31.492188 219.6211 31.492188 214.59766 31.492188 C 214.59766 25.421875 214.59766 19.390625 214.59766 13.226562 C 219.54298 13.226562 224.40234 13.226562 229.3867 13.226562 C 229.3867 14.402344 229.3867 15.484375 229.3867 16.84375 C 225.78125 16.84375 222.17578 16.84375 218.44922 16.84375 C 218.44922 18.136719 218.44922 19.167969 218.44922 20.472656 C 222.04297 20.472656 225.63672 20.472656 229.34766 20.472656 C 229.34766 21.832031 229.34766 22.914063 229.34766 24.21875 C 225.74219 24.246094 222.19922 24.246094 218.42578 24.246094 Z M 218.42578 24.246094"/>
        <path fill="#ffffff" stroke="none" d="M 64.62109 13.199219 C 65.89844 13.199219 67.00391 13.199219 68.32031 13.199219 C 68.32031 15.6171875 68.32031 17.964844 68.32031 20.421875 C 71.86328 20.421875 75.19531 20.421875 78.75 20.421875 C 78.75 18.019531 78.75 15.679689 78.75 13.226562 C 80.11719 13.226562 81.26172 13.226562 82.53906 13.226562 C 82.53906 19.324219 82.53906 25.34375 82.53906 31.519531 C 81.36719 31.519531 80.22266 31.519531 78.828125 31.519531 C 78.828125 29.207033 78.828125 26.871094 78.828125 24.414063 C 75.26172 24.414063 71.91406 24.414063 68.41016 24.414063 C 68.41016 26.777344 68.41016 29.0625 68.41016 31.503904 C 67.109375 31.503904 65.94922 31.503904 64.62109 31.503904 C 64.62109 25.500002 64.62109 19.429688 64.62109 13.199219 Z M 64.62109 13.199219"/>
        <path fill="#ffffff" stroke="none" d="M 61.98047 13.121093 C 61.98047 14.480469 61.98047 15.578125 61.98047 16.894531 C 57.26562 16.894531 52.64453 16.894531 47.91797 16.894531 C 47.91797 20.640625 47.91797 24.179686 47.91797 27.925781 C 52.578125 27.925781 57.187504 27.925781 61.941406 27.925781 C 61.941406 29.234375 61.941406 30.316406 61.941406 31.675781 C 59.01172 31.675781 56.04297 31.675781 53.085938 31.675781 C 51.222656 31.675781 49.375 31.714844 47.511723 31.660158 C 45.36328 31.609375 44.10156 30.511719 44.0625 28.398438 C 43.972652 24.441406 43.972652 20.484375 44.0625 16.53125 C 44.11328 14.582031 45.457027 13.187499 47.29297 13.148439 C 52.13672 13.070312 56.964844 13.121093 61.98047 13.121093 Z M 61.98047 13.121093"/>
        <path fill="#ffffff" stroke="none" d="M 107.64453 13.175781 C 108.86719 13.175781 109.91016 13.175781 111.12109 13.175781 C 111.12109 19.296875 111.12109 25.36719 111.12109 31.558594 C 110 31.558594 108.90625 31.558594 107.64453 31.558594 C 107.64453 25.500002 107.64453 19.429688 107.64453 13.175781 Z M 107.64453 13.175781"/>
        <path fill="url(#linear0)" stroke="none" d="M 18.359375 36.246094 L 18.359375 26.855467 L 8.90625 19.285156 L 15.128906 11.945312 L 18.230469 14.375 L 18.230469 0.847656 L 1.300781 22.089844 Z M 18.359375 36.246094"/>
        <path fill="url(#linear1)" stroke="none" d="M 21.261719 7.0898447 L 21.261719 16.476563 L 30.753906 24.05078 L 24.531252 31.374998 L 21.394531 28.945313 L 21.394531 42.484375 L 38.359375 21.230469 Z M 21.261719 7.0898447"/>
    </g>
</svg>
