<svg width="32" height="32" xmlns="http://www.w3.org/2000/svg">
    <path fill="#0657f9" stroke="none" d="M 32 16 C 32 24.836601 24.836601 32 16 32 C 7.16344 32 0 24.836601 0 16 C 0 7.16344 7.16344 0 16 0 C 24.836601 0 32 7.16344 32 16 Z"/>
    <path fill="#ffffff" fill-rule="evenodd" stroke="none" d="M 9.3268 6.2826805 L 8.06787 7.5653796 L 11.1398 10.6947 L 14.2117 13.8241 L 14.2117 16.737 L 14.2117 19.65 L 16.0018 19.65 L 17.7919 19.65 L 17.7919 16.737 L 17.7919 13.8241 L 20.8563 10.7023 L 23.9208 7.58056 L 22.653997 6.29121 L 21.3873 5.00185 L 18.7111 7.72075 C 17.2392 9.21616 16.0203 10.4396 16.0025 10.4396 C 15.9846 10.4396 14.764 9.21573 13.2901 7.71982 C 11.8161 6.22392 10.6046 5 10.5979 5 C 10.5912 5 10.0192 5.57722 9.3268 6.2826805 Z M 7.90755 13.8008 C 7.5069 14.662499 7.2748604 15.4051 7.1254306 16.3036 C 6.6982 18.8726 7.37349 21.518301 8.98149 23.5752 C 9.24682 23.9146 10.0275 24.7095 10.3584 24.9773 C 11.8479 26.1823 13.543601 26.849998 15.4457 26.980202 C 16.5835 27.0581 17.7212 26.9061 18.8387 26.527002 C 22.0686 25.431202 24.400602 22.602697 24.905 19.1692 C 25.099 17.848 24.9943 16.4347 24.605698 15.1313 C 24.4512 14.613 24.1382 13.8366 23.9746 13.5658 L 23.912 13.4623 L 22.549997 14.8485 C 21.4514 15.966601 21.1913 16.2467 21.2053 16.2965 C 21.3176 16.6973 21.3772 17.114 21.3932 17.6101 C 21.4242 18.5714 21.2749 19.3484 20.9033 20.1599 C 20.181 21.7375 18.7717 22.8635 17.0486 23.239597 C 16.7494 23.3049 16.6394 23.3123 15.9866 23.311398 C 15.346 23.3104 15.2202 23.3019 14.9399 23.2402 C 13.2315 22.8641 11.8879 21.7996 11.1299 20.2217 C 10.7873 19.5086 10.6322 18.8486 10.6088 18.0043 C 10.5919 17.3937 10.625 17.0245 10.7396 16.5439 L 10.8134 16.2348 L 9.45584 14.851699 C 8.70918 14.090999 8.09011 13.4685 8.08016 13.4685 C 8.07018 13.4685 7.9925 13.618001 7.90755 13.8008 Z"/>
</svg>
