<svg width="41" height="42" xmlns="http://www.w3.org/2000/svg">
    <defs>
        <linearGradient id="paint0_linear_394_29195" x1="34.3896" y1="6.17122" x2="7.94412" y2="36.6679" gradientUnits="userSpaceOnUse">
            <stop offset="0" stop-color="#fed64a"/>
            <stop offset="0.123016" stop-color="#fef14e"/>
            <stop offset="0.248796" stop-color="#ffdf6c"/>
            <stop offset="0.482583" stop-color="#fcff67"/>
            <stop offset="0.743348" stop-color="#fed545"/>
            <stop offset="0.82597" stop-color="#feca45"/>
            <stop offset="1" stop-color="#feed44"/>
        </linearGradient>
        <linearGradient id="paint1_linear_394_29195" x1="16.1231" y1="0.944824" x2="20.984" y2="40.923" gradientUnits="userSpaceOnUse">
            <stop offset="0" stop-color="#fff3c4"/>
            <stop offset="0.483894" stop-color="#edc071"/>
            <stop offset="0.961122" stop-color="#bf8147"/>
        </linearGradient>
        <linearGradient id="paint2_linear_394_29195" x1="16.4147" y1="6.42212" x2="29.5901" y2="32.4256" gradientUnits="userSpaceOnUse">
            <stop offset="0" stop-color="#c8892b"/>
            <stop offset="0.979601" stop-color="#ffeda3"/>
        </linearGradient>
        <mask id="path-4-inside-1_394_29195" maskUnits="userSpaceOnUse" x="2.6309042" y="4.7564373" width="34.738174" height="33.430473">
            <path fill="#ffffff" stroke="none" d="M 28.644402 19.3844 L 24.4363 19.3844 C 23.2626 19.31 22.6918 19.0317 22.0423 18.406 C 21.2945 17.6846 20.7828 16.9898 20.4607 16.1054 C 20.314 15.7048 19.6699 15.7013 19.5232 16.1018 C 19.185 17.0235 18.6662 17.7591 17.9666 18.4007 C 17.267 19.0405 16.6068 19.3029 15.5602 19.3844 L 11.3538 19.3844 C 11.0425 19.3844 10.8833 19.0193 11.1015005 18.8013 L 15.8679 12.971699 L 24.1267 12.971699 L 28.8949 18.8013 C 29.113197 19.0193 28.9557 19.3844 28.6426 19.3844 L 28.644402 19.3844 Z M 28.6641 20.8733 L 24.361097 20.8733 C 23.207098 20.9796 22.5755 21.2845 21.969002 21.9137 C 21.2676 22.6404 20.7792 23.2944 20.4643 24.1487 C 20.3158 24.5493 19.6735 24.5458 19.5268 24.1452 C 19.2011 23.2501 18.7127 22.5589 18.0632 21.935 C 17.3672 21.2667 16.7768 20.9707 15.6174 20.8733 L 11.332301 20.8733 C 11.0371 20.8733 10.8886 21.2207 11.098 21.4245 L 19.7647 29.877298 C 19.8935 30.0031 20.1047 30.0031 20.2353 29.877298 L 28.902 21.4245 C 29.1114 21.2207 28.9629 20.8733 28.6677 20.8733 L 28.6641 20.8733 Z"/>
        </mask>
    </defs>
    <path fill="#fec424" stroke="url(#paint0_linear_394_29195)" stroke-width="5.42937" d="M 37.330803 20.9339 C 37.330803 30.474289 29.596786 38.2083 20.0564 38.2083 C 10.516012 38.2083 2.7819996 30.474289 2.7819996 20.9339 C 2.7819996 11.393513 10.516012 3.6595001 20.0564 3.6595001 C 29.596786 3.6594992 37.330803 11.393512 37.330803 20.9339 Z"/>
    <path fill="none" stroke="url(#paint1_linear_394_29195)" stroke-width="0.658106" d="M 39.7164 20.9339 C 39.7164 31.79182 30.91432 40.593903 20.0564 40.593903 C 9.198482 40.593903 0.3963994 31.79182 0.39640045 20.9339 C 0.39640045 10.075983 9.1984825 1.273901 20.0564 1.273901 C 30.91432 1.273901 39.7164 10.075983 39.7164 20.9339 Z"/>
    <path fill="none" stroke="url(#paint2_linear_394_29195)" stroke-width="0.493579" d="M 34.402702 21.0148 C 34.402702 28.937822 27.979824 35.3607 20.0568 35.3607 C 12.13378 35.3607 5.7109013 28.93782 5.7109013 21.0148 C 5.7109013 13.091777 12.13378 6.6689 20.0568 6.6689 C 27.979824 6.6688986 34.402702 13.091777 34.402702 21.0148 Z"/>
    <path fill="#fec424" stroke="none" d="M 28.644402 19.3844 L 24.4363 19.3844 C 23.2626 19.31 22.6918 19.0317 22.0423 18.406 C 21.2945 17.6846 20.7828 16.9898 20.4607 16.1054 C 20.314 15.7048 19.6699 15.7013 19.5232 16.1018 C 19.185 17.0235 18.6662 17.7591 17.9666 18.4007 C 17.267 19.0405 16.6068 19.3029 15.5602 19.3844 L 11.3538 19.3844 C 11.0425 19.3844 10.8833 19.0193 11.1015005 18.8013 L 15.8679 12.971699 L 24.1267 12.971699 L 28.8949 18.8013 C 29.113197 19.0193 28.9557 19.3844 28.6426 19.3844 L 28.644402 19.3844 Z M 28.6641 20.8733 L 24.361097 20.8733 C 23.207098 20.9796 22.5755 21.2845 21.969002 21.9137 C 21.2676 22.6404 20.7792 23.2944 20.4643 24.1487 C 20.3158 24.5493 19.6735 24.5458 19.5268 24.1452 C 19.2011 23.2501 18.7127 22.5589 18.0632 21.935 C 17.3672 21.2667 16.7768 20.9707 15.6174 20.8733 L 11.332301 20.8733 C 11.0371 20.8733 10.8886 21.2207 11.098 21.4245 L 19.7647 29.877298 C 19.8935 30.0031 20.1047 30.0031 20.2353 29.877298 L 28.902 21.4245 C 29.1114 21.2207 28.9629 20.8733 28.6677 20.8733 L 28.6641 20.8733 Z"/>
    <g mask="url(#path-4-inside-1_394_29195)">
        <path fill="#fcfcfc" stroke="none" d="M 24.4363 19.3844 L 24.0926 24.8029 L 24.2642 24.8138 L 24.4363 24.8138 L 24.4363 19.3844 Z M 22.0423 18.406 L 18.273 22.3137 L 18.2755 22.3161 L 22.0423 18.406 Z M 20.4607 16.1054 L 25.5624 14.247699 L 25.5589 14.2381 L 20.4607 16.1054 Z M 19.5232 16.1018 L 24.6203 17.9719 L 24.6214 17.9691 L 19.5232 16.1018 Z M 17.9666 18.4007 L 21.631002 22.407 L 21.636501 22.401999 L 17.9666 18.4007 Z M 15.5602 19.3844 L 15.5602 24.8138 L 15.7713 24.8138 L 15.9818 24.7974 L 15.5602 19.3844 Z M 11.1015005 18.8013 L 14.9383 22.642801 L 15.131801 22.4496 L 15.3048 22.237902 L 11.1015005 18.8013 Z M 15.8679 12.971699 L 15.8679 7.54231 L 13.2939 7.54231 L 11.6646 9.53502 L 15.8679 12.971699 Z M 24.1267 12.971699 L 28.329401 9.53425 L 26.700102 7.54231 L 24.1267 7.54231 L 24.1267 12.971699 Z M 28.8949 18.8013 L 24.692202 22.238703 L 24.865002 22.4499 L 25.0581 22.642801 L 28.8949 18.8013 Z M 24.361097 20.8733 L 24.361097 15.4439 L 24.111502 15.4439 L 23.8629 15.4668 L 24.361097 20.8733 Z M 21.969002 21.9137 L 25.8757 25.6841 L 25.878 25.6817 L 21.969002 21.9137 Z M 20.4643 24.1487 L 25.5551 26.036 L 25.5586 26.0265 L 20.4643 24.1487 Z M 19.5268 24.1452 L 14.4245 26.0014 L 14.4286 26.012402 L 19.5268 24.1452 Z M 18.0632 21.935 L 21.8245 18.0195 L 21.8234 18.0185 L 18.0632 21.935 Z M 15.6174 20.8733 L 16.0723 15.463 L 15.845299 15.4439 L 15.6174 15.4439 L 15.6174 20.8733 Z M 11.098 21.4245 L 14.8888 17.5377 L 14.8856 17.5346 L 11.098 21.4245 Z M 19.7647 29.877298 L 23.558699 25.9935 L 23.5556 25.9905 L 19.7647 29.877298 Z M 20.2353 29.877298 L 24.0024 33.7871 L 24.0143 33.7757 L 24.026098 33.7641 L 20.2353 29.877298 Z M 28.902 21.4245 L 25.1144 17.5346 L 25.1112 17.5377 L 28.902 21.4245 Z M 28.644402 13.955 L 24.4363 13.955 L 24.4363 24.8138 L 28.644402 24.8138 L 28.644402 13.955 Z M 24.7799 13.9659 C 24.5456 13.951 24.771 13.9375 25.1616 14.1031 C 25.357498 14.1861 25.526201 14.2848 25.6573 14.3774 C 25.7776 14.4624 25.8333 14.5191 25.8092 14.4959 L 18.2755 22.3161 C 18.9 22.917698 19.7492 23.6029 20.9238 24.1007 C 22.055597 24.5805 23.1532 24.7433 24.0926 24.8029 L 24.7799 13.9659 Z M 25.8117 14.498301 C 25.6164 14.309901 25.552 14.2208 25.5422 14.2068 C 25.5381 14.2009 25.5426 14.2068 25.5503 14.2215 C 25.5537 14.2281 25.5568 14.2345 25.559202 14.239901 C 25.5615 14.2454 25.5626 14.248201 25.5624 14.247699 L 15.359 17.963 C 16.0428 19.8409 17.1239 21.2053 18.273 22.3137 L 25.8117 14.498301 Z M 25.5589 14.2381 C 24.5091 11.3717 21.855198 10.3821 20.0163 10.3738 C 18.1745 10.3656 15.4854 11.3392 14.424999 14.2346 L 24.6214 17.9691 C 23.7076 20.4639 21.414 21.239 19.9676 21.2325 C 18.5241 21.226 16.2656 20.4384 15.3625 17.9726 L 25.5589 14.2381 Z M 14.426 14.231701 C 14.4161 14.258899 14.4089 14.2735 14.406001 14.2793 C 14.4031 14.2848 14.4012 14.288 14.399 14.2911005 C 14.397299 14.2936 14.3739 14.3286 14.2967005 14.3994 L 21.636501 22.401999 C 22.920399 21.2243 23.958899 19.7748 24.6203 17.9719 L 14.426 14.231701 Z M 14.3022 14.3944 C 14.3052 14.391699 14.3608 14.341199 14.4649 14.2729 C 14.574 14.201401 14.705099 14.130699 14.8498 14.0719 C 15.142999 13.9528 15.306 13.9584 15.1385 13.971399 L 15.9818 24.7974 C 18.0517 24.6361 19.9102 23.9809 21.631002 22.407 L 14.3022 14.3944 Z M 15.5602 13.955 L 11.3538 13.955 L 11.3538 24.8138 L 15.5602 24.8138 L 15.5602 13.955 Z M 11.3538 13.955 C 15.5573 13.955 18.3711 19.2142 14.9383 22.642801 L 7.26475 14.959801 C 3.3953803 18.8244 6.5277 24.8138 11.3538 24.8138 L 11.3538 13.955 Z M 15.3048 22.237902 L 20.0712 16.4083 L 11.6646 9.53502 L 6.89827 15.3646 L 15.3048 22.237902 Z M 15.8679 18.4011 L 24.1267 18.4011 L 24.1267 7.54231 L 15.8679 7.54231 L 15.8679 18.4011 Z M 19.9241 16.4091 L 24.692202 22.238703 L 33.0975 15.3638 L 28.329401 9.53425 L 19.9241 16.4091 Z M 25.0581 22.642801 C 21.6464 19.2353 24.4106 13.955 28.6426 13.955 L 28.6426 24.8138 C 33.5008 24.8138 36.5799 18.8032 32.7317 14.959801 L 25.0581 22.642801 Z M 28.6426 24.8138 L 28.644402 24.8138 L 28.644402 13.955 L 28.6426 13.955 L 28.6426 24.8138 Z M 28.6641 15.4439 L 24.361097 15.4439 L 24.361097 26.302599 L 28.6641 26.302599 L 28.6641 15.4439 Z M 23.8629 15.4668 C 22.9192 15.5538 21.8449 15.7509 20.7527 16.2368 C 19.6099 16.7453 18.7426 17.4375 18.06 18.1457 L 25.878 25.6817 C 25.8543 25.7063 25.7737 25.786398 25.638903 25.8849 C 25.498398 25.9875 25.3374 26.082003 25.1668 26.158 C 24.8305 26.307503 24.649 26.2991 24.8593 26.279701 L 23.8629 15.4668 Z M 18.0623 18.1433 C 17.0847 19.1562 16.045 20.4396 15.369999 22.271 L 25.5586 26.0265 C 25.5566 26.032 25.551003 26.0455 25.5427 26.061298 C 25.5347 26.076601 25.5317 26.079601 25.5408 26.066498 C 25.5638 26.0331 25.6456 25.9225 25.8757 25.6841 L 18.0623 18.1433 Z M 15.3735 22.2615 C 16.2897 19.7901 18.565 19.0116 20.0192 19.0181 C 21.4701 19.0246 23.723898 19.8177 24.6249 22.278 L 14.4286 26.012402 C 15.4764 28.8733 18.1246 29.8684 19.9705 29.8767 C 21.819698 29.885 24.490402 28.907898 25.5551 26.036 L 15.3735 22.2615 Z M 24.629 22.288998 C 23.9827 20.5126 22.9894 19.1386 21.8245 18.0195 L 14.3019 25.8504 C 14.3481 25.8948 14.376 25.9255 14.391401 25.9435 C 14.3991 25.952602 14.4042 25.959 14.4071 25.962797 C 14.409999 25.9667 14.4114 25.968702 14.411601 25.969002 C 14.4118 25.969301 14.4115 25.9689 14.411 25.968 C 14.4105 25.967098 14.4103 25.966803 14.4106 25.967398 C 14.410799 25.967697 14.4159 25.9776 14.4245 26.0014 L 24.629 22.288998 Z M 21.8234 18.0185 C 21.202 17.4218 20.3687 16.7427 19.2304 16.2337 C 18.1125 15.7338 17.0253 15.5431 16.0723 15.463 L 15.162499 26.283499 C 15.3689 26.3009 15.1566 26.307001 14.7978 26.146498 C 14.6237 26.0687 14.481399 25.981298 14.380201 25.9085 C 14.2888 25.8428 14.2578 25.8081 14.303 25.8515 L 21.8234 18.0185 Z M 15.6174 15.4439 L 11.332301 15.4439 L 11.332301 26.302599 L 15.6174 26.302599 L 15.6174 15.4439 Z M 11.332301 15.4439 C 6.48813 15.4439 3.38052 21.4879 7.3102703 25.314398 L 14.8856 17.5346 C 18.3967 20.9534 15.5861 26.302599 11.332301 26.302599 L 11.332301 15.4439 Z M 7.30709 25.3113 L 15.9739 33.7641 L 23.5556 25.9905 L 14.8888 17.5377 L 7.30709 25.3113 Z M 15.970701 33.7611 C 18.2235 35.9618 21.7836 35.9249 24.0024 33.7871 L 16.4681 25.9675 C 18.4257 24.0813 21.563599 24.0445 23.558699 25.9935 L 15.970701 33.7611 Z M 24.026098 33.7641 L 32.6929 25.3113 L 25.1112 17.5377 L 16.4444 25.9905 L 24.026098 33.7641 Z M 32.6897 25.314398 C 36.6194 21.488 33.512 15.4439 28.6677 15.4439 L 28.6677 26.302599 C 24.413702 26.302599 21.6034 20.9533 25.1144 17.5346 L 32.6897 25.314398 Z M 28.6677 15.4439 L 28.6641 15.4439 L 28.6641 26.302599 L 28.6677 26.302599 L 28.6677 15.4439 Z"/>
    </g>
</svg>
