<svg width="40" height="40" xmlns="http://www.w3.org/2000/svg">
    <path fill="#fee45d" stroke="none" d="M 20 0 L 20 0 C 31.045694 0 40 8.954305 40 20 L 40 20 C 40 31.045694 31.045694 40 20 40 L 20 40 C 8.954305 40 0 31.045694 0 20 L 0 20 C -0 8.954305 8.954305 0 20 0 Z"/>
    <path fill="#000000" stroke="none" d="M 19.9997 24.9994 C 19.9997 22.2383 17.7613 19.9995 14.9999 19.9995 C 12.2384 19.9995 10 22.2383 10 24.9994 C 10 27.7608 12.2384 29.999601 14.9999 29.999601 C 17.7613 29.999601 19.9997 27.7605 19.9997 24.9994 Z"/>
    <path fill="#000000" stroke="none" d="M 21.4648 28.5356 C 23.4175 30.4882 26.5834 30.4882 28.5357 28.5356 C 30.488 26.5829 30.4884 23.416702 28.5357 21.4644 L 21.4648 28.5356 Z"/>
    <path fill="#000000" stroke="none" d="M 23.536 23.5362 C 25.4887 21.5835 25.4887 18.4177 23.536 16.465 C 21.5834 14.5123 18.4175 14.5123 16.4648 16.465 L 23.536 23.5362 Z"/>
    <path fill="#000000" stroke="none" d="M 28.5357 18.5354 C 30.4884 16.5827 30.4884 13.4169 28.5357 11.4645 C 26.582998 9.51183 23.4172 9.51183 21.4648 11.4645 L 28.5357 18.5354 Z"/>
    <path fill="#000000" stroke="none" d="M 18.5354 11.4645 C 16.5827 9.51183 13.4169 9.51183 11.4645 11.4645 C 9.51183 13.417201 9.51183 16.583 11.4645 18.5354 L 18.5354 11.4645 Z"/>
</svg>
