<svg width="725" height="725" xmlns="http://www.w3.org/2000/svg">
    <path fill="#ffffff" stroke="none" d="M 362.5 710.59 C 315.51 710.59 269.93 701.38 227 683.23 C 185.55 665.7 148.32 640.6 116.36 608.64 C 84.4 576.68 59.3 539.45 41.77 498 C 23.609999 455.08 14.409999 409.49 14.409999 362.5 C 14.409999 315.51 23.62 269.93 41.77 227 C 59.3 185.55 84.4 148.32 116.36 116.36 C 148.32 84.4 185.55 59.3 227 41.77 C 269.92 23.609999 315.51 14.409999 362.5 14.409999 C 409.49 14.409999 455.07004 23.62 498 41.77 C 539.45 59.3 576.68 84.4 608.64 116.36 C 640.6 148.32 665.7 185.55 683.23 227 C 701.38 269.92 710.59 315.51 710.59 362.5 C 710.59 409.49 701.38 455.07004 683.23 498 C 665.7 539.45 640.6 576.68 608.64 608.64 C 576.68 640.6 539.45 665.7 498 683.23 C 455.08 701.39 409.49 710.59 362.5 710.59 Z"/>
    <path fill="#7b57ff" stroke="none" d="M 362.5 28.819998 C 546.78 28.819998 696.18 178.20999 696.18 362.5 C 696.18 546.79 546.79 696.18 362.5 696.18 C 178.20999 696.18 28.819998 546.79 28.819998 362.5 C 28.819998 178.20999 178.21999 28.819998 362.5 28.819998 M 362.5 0 C 313.58 0 266.1 9.59 221.39001 28.499998 C 178.21999 46.76 139.46 72.89 106.17 106.18 C 72.89 139.46 46.749996 178.23001 28.49 221.40001 C 9.59 266.1 0 313.58 0 362.5 C 0 411.42 9.59 458.9 28.499998 503.61 C 46.76 546.78 72.89 585.54 106.18 618.83 C 139.46 652.11 178.23001 678.25 221.40001 696.50995 C 266.11 715.42 313.59 725.01 362.51 725.01 C 411.43002 725.01 458.91003 715.42 503.62 696.50995 C 546.79 678.25 585.55 652.12 618.84 618.83 C 652.12 585.55 678.26 546.78 696.52 503.61 C 715.43 458.9 725.02 411.42 725.02 362.5 C 725.02 313.58 715.43 266.1 696.52 221.39001 C 678.26 178.21999 652.13 139.46 618.84 106.17 C 585.56 72.89 546.79 46.749996 503.62 28.49 C 458.9 9.59 411.43002 0 362.5 0 L 362.5 0 Z"/>
    <path fill="#7b57ff" stroke="none" d="M 362.5 133.53 L 164.2 248.02 L 164.2 267.1 L 362.48 381.59 L 560.8 267.1 L 560.8 248.02 L 362.5 133.53 Z M 362.48 343.4 L 213.81 257.57 L 362.5 171.72 L 511.17 257.57 L 362.48 343.4 Z"/>
    <path fill="#7b57ff" stroke="none" d="M 291.06 235.42 L 400.84 298.81 L 433.92 279.7 L 324.14 216.32 L 291.06 235.42 Z"/>
    <path fill="#7b57ff" stroke="none" d="M 362.48 553.29 L 164.21 438.8 L 164.21 476.98996 L 362.48 591.48 L 560.8 476.98996 L 560.8 438.8 L 362.48 553.29 Z"/>
    <path fill="#7b57ff" stroke="none" d="M 362.48 448.35 L 164.21 333.86 L 164.21 372.05 L 362.48 486.54 L 560.8 372.03 L 560.8 333.86 L 362.48 448.35 Z"/>
</svg>
