<svg width="160" height="160" xmlns="http://www.w3.org/2000/svg">
    <defs>
        <clipPath id="clip0_77_52">
            <path fill="#000000" stroke="none" d="M 0 0 L 160 0 L 160 160 L 0 160 Z"/>
        </clipPath>
    </defs>
    <g clip-path="url(#clip0_77_52)">
        <path fill="#021540" stroke="none" d="M 80 0 L 80 0 C 124.18278 0 160 35.81722 160 80 L 160 80 C 160 124.18278 124.18278 160 80 160 L 80 160 C 35.81722 160 0 124.18278 0 80 L 0 80 C -0 35.81722 35.81722 0 80 0 Z"/>
        <path fill="#ffffff" fill-rule="evenodd" stroke="none" d="M 28.0273 50.0002 L 28.0278 50.001 C 22.9221 58.8263 20 69.0725 20 80.0012 C 20 99.631004 29.427603 117.059 44.0024 128.006 C 58.5772 117.059 68.0048 99.631004 68.0048 80.0011 C 68.0048 79.599 68.0009 79.1979 67.993 78.7977 C 71.8742 79.5862 75.8915 80.0002 80.0055 80.0002 C 102.21601 80.0002 121.609 67.9341 131.984 50 C 121.609 32.066 102.21601 20 80.0057 20 C 57.7949 20 38.4026 32.0661 28.0273 50.0002 Z M 29.0009 80.0012 C 29.0009 72.2472 30.7294 64.8975 33.8261 58.3156 C 40.4223 66.2553 49.0277 72.4666 58.8623 76.1696 C 58.9562 77.4345 59.0039 78.7122 59.0039 80.0011 C 59.0039 94.1122 53.279297 106.884 44.0024 116.127 C 34.7256 106.884 29.0009 94.1122 29.0009 80.0012 Z M 80.0055 71.0002 C 75.5335 71.0002 71.1953 70.4249 67.0611 69.3439 C 64.9006 57.293 59.1416 46.4901 50.9357 38.0868 C 59.1863 32.3547 69.2059 29 80.0057 29 C 96.95011 29 111.974 37.2581 121.258995 50 C 111.974 62.742 96.95 71.0002 80.0055 71.0002 Z M 38.7529 50.0006 C 43.483498 56.4928 49.7042 61.820904 56.909805 65.4858 C 54.458702 57.2122 49.9641 49.815 44.0024 43.8756 C 42.0963 45.774498 40.3402 47.8226 38.7529 50.0006 Z M 80.0056 131 C 79.2679 131 78.5342 130.984 77.8049 130.953 C 82.074 107.104 102.929 88.9998 128.01 88.9998 C 128.748 88.9998 129.482 89.01541 130.211 89.0463 C 125.94201 112.896 105.087 131 80.0056 131 Z M 128.01 79.9998 C 132.116 79.9998 136.126 80.4121 140 81.1976 C 139.362 113.782 112.746 140 80.0056 140 C 75.8997 140 71.8902 139.588 68.0161 138.802 C 68.6542 106.218 95.2702 79.9998 128.01 79.9998 Z"/>
    </g>
</svg>
