<svg width="50" height="50" xmlns="http://www.w3.org/2000/svg">
    <path fill="#c53228" stroke="none" d="M 50 25 C 50 38.807117 38.807117 50 25 50 C 11.192882 50 0 38.807117 0 25 C -0 11.192882 11.192882 0 25 0 C 38.807117 0 50 11.192882 50 25 Z"/>
    <path fill="#ffffff" fill-rule="evenodd" stroke="none" d="M 11.1401 10.7061 L 23.286499 41.088 L 40.2096 20.5904 L 34.2182 14.9281 L 11.1401 10.7061 Z M 15.4462 13.122799 L 32.081 16.1666 L 25.624 21.515 L 15.4462 13.122799 Z M 14.292599 14.2532 L 24.8996 22.999601 L 23.2411 36.6382 L 14.292599 14.2532 Z M 33.8468 16.7889 L 37.377 20.1254 L 27.7227 21.863 L 33.8468 16.7889 Z M 26.434797 23.7232 L 37.1264 21.798101 L 24.863 36.6527 L 26.434797 23.7232 Z"/>
</svg>
