<svg width="1333.3334" height="1333.3334" xmlns="http://www.w3.org/2000/svg">
    <g transform="matrix(1.3333334 0 0 1.3333334 0 0)">
        <g transform="matrix(0.1 0 0 -0.1 0 1000)">
            <path fill="#000000" stroke="none" d="M 4685 9239 C 3925 9182 3211 8937 2580 8517 C 1691 7923 1051 7016 791 5980 C 698 5611 666 5341 666 4930 C 666 4605 677 4464 725 4185 C 865 3379 1238 2625 1802 2010 C 2952 755 4757 291 6376 835 C 7288 1142 8072 1741 8605 2540 C 8944 3048 9166 3607 9269 4210 C 9313 4466 9324 4613 9324 4930 C 9324 5247 9313 5394 9269 5650 C 9172 6220 8966 6756 8656 7243 C 8489 7506 8299 7742 8065 7975 C 7582 8459 7020 8809 6376 9025 C 5843 9204 5239 9280 4685 9239 Z M 5284 8939 C 5718 8907 6111 8816 6505 8658 C 7707 8174 8608 7138 8915 5885 C 8997 5551 9024 5310 9024 4930 C 9024 4550 8997 4309 8915 3975 C 8639 2849 7883 1893 6847 1360 C 6024 936 5117 810 4193 991 C 2981 1228 1918 2046 1370 3165 C 1161 3591 1045 3991 984 4490 C 959 4694 959 5166 984 5370 C 1045 5869 1161 6269 1370 6695 C 1914 7804 2959 8616 4165 8864 C 4528 8939 4930 8966 5284 8939 Z"/>
            <path fill="#000000" stroke="none" d="M 4707 8700 C 4196 8654 3770 8535 3325 8315 C 3057 8182 2800 8018 2595 7846 L 2565 7821 L 2671 7715 L 2777 7608 L 2875 7685 C 3308 8023 3825 8253 4380 8354 C 4597 8393 4738 8405 5000 8405 C 5262 8405 5403 8393 5620 8354 C 6167 8255 6667 8035 7103 7702 L 7202 7627 L 7308 7733 C 7401 7826 7412 7841 7398 7852 C 7149 8050 6942 8183 6675 8315 C 6275 8513 5922 8620 5467 8681 C 5294 8704 4870 8714 4707 8700 Z"/>
            <path fill="#000000" stroke="none" d="M 7531 7537 L 7427 7432 L 7535 7313 C 7953 6857 8217 6380 8365 5815 C 8445 5510 8475 5269 8475 4930 C 8475 4668 8463 4527 8424 4310 C 8323 3755 8093 3238 7755 2805 L 7678 2707 L 7785 2601 L 7891 2495 L 7916 2525 C 8219 2888 8478 3372 8620 3841 C 8731 4209 8775 4518 8775 4930 C 8775 5198 8767 5303 8734 5520 C 8617 6267 8260 6989 7739 7533 L 7635 7641 L 7531 7537 Z"/>
            <path fill="#000000" stroke="none" d="M 2251 7523 C 1986 7243 1772 6931 1599 6575 C 1403 6172 1296 5799 1238 5315 C 1221 5170 1221 4691 1238 4545 C 1297 4048 1411 3660 1621 3240 C 1750 2983 1889 2767 2079 2530 L 2099 2505 L 2206 2611 L 2312 2718 L 2233 2821 C 1847 3324 1610 3920 1538 4565 C 1521 4720 1521 5140 1538 5295 C 1611 5948 1854 6552 2248 7058 C 2292 7115 2377 7216 2437 7282 C 2496 7348 2546 7405 2548 7409 C 2549 7412 2504 7462 2447 7518 L 2343 7622 L 2251 7523 Z"/>
            <path fill="#000000" stroke="none" d="M 5032 7330 C 4981 7315 4937 7300 4936 7298 C 4934 7297 4891 7185 4840 7050 C 4643 6529 3931 4715 3618 3935 C 3411 3420 3318 3314 3015 3249 C 2966 3238 2915 3228 2903 3225 C 2881 3220 2880 3215 2880 3130 L 2880 3040 L 3600 3040 L 4320 3040 L 4320 3130 C 4320 3215 4319 3220 4298 3224 C 4285 3227 4221 3238 4154 3250 C 3894 3296 3822 3370 3851 3561 C 3872 3701 4060 4247 4438 5270 C 4559 5597 4701 5987 4754 6135 C 4874 6470 4875 6471 4885 6473 C 4889 6474 4916 6408 4946 6325 C 4975 6243 5095 5901 5214 5565 C 5332 5230 5539 4645 5675 4266 C 5810 3886 5926 3546 5932 3509 C 5947 3424 5934 3374 5885 3331 C 5846 3297 5734 3258 5620 3240 C 5501 3221 5510 3231 5510 3129 L 5510 3040 L 6313 3042 L 7115 3045 L 7118 3132 L 7121 3219 L 7083 3225 C 6935 3251 6847 3273 6791 3301 C 6676 3358 6583 3471 6499 3657 C 6420 3832 5898 5258 5254 7058 C 5195 7224 5141 7360 5135 7359 C 5130 7359 5083 7345 5032 7330 Z"/>
            <path fill="#000000" stroke="none" d="M 2402 2387 L 2299 2283 L 2402 2185 C 2684 1918 2996 1703 3355 1529 C 3737 1344 4090 1239 4544 1178 C 4777 1146 5223 1146 5456 1178 C 5910 1239 6263 1344 6645 1529 C 7001 1702 7313 1916 7593 2181 L 7692 2273 L 7588 2377 C 7532 2434 7482 2479 7479 2478 C 7475 2476 7418 2426 7352 2367 C 6908 1966 6438 1709 5885 1565 C 5580 1485 5339 1455 5000 1455 C 4661 1455 4420 1485 4115 1565 C 3558 1711 3088 1969 2638 2375 C 2569 2438 2510 2490 2508 2490 C 2506 2490 2458 2443 2402 2387 Z"/>
        </g>
    </g>
</svg>
