<svg width="300" height="300" xmlns="http://www.w3.org/2000/svg">
    <path fill="#0b80bd" stroke="none" d="M 261.34 221 C 261.1568 221.01025 260.9732 221.01025 260.79 221 L 260.69 221 C 260.53873 220.98572 260.38846 220.96233 260.24 220.93 L 260.05 220.93 L 259.69 220.84 L 259.41 220.75002 L 259.36 220.75002 L 258.8 220.52 C 256.24783 219.31415 254.86867 216.5037 255.47646 213.74718 C 256.0842 210.99069 258.51736 209.02078 261.34 209 C 262.56223 209.00073 263.75397 209.38167 264.75 210.09001 C 264.86 210.16 264.95 210.24 265.05 210.31 L 265.25 210.49 L 265.43 210.64 L 265.68 210.9 C 265.74 210.97002 265.81 211.03 265.86 211.09999 L 266.01 211.28 C 266.09 211.39 266.18 211.49998 266.25 211.61002 L 266.36 211.77 L 266.54 212.06 C 266.54 212.11002 266.54 212.16 266.61 212.2 C 266.68 212.24002 266.75 212.48 266.81 212.62 L 266.87 212.77 C 266.93 212.92 266.99 213.07 267.04 213.22 C 267.09 213.37 267.04 213.28998 267.04 213.31 C 267.04 213.33 267.12 213.61 267.16 213.76 C 267.2 213.90999 267.16 213.83 267.16 213.86 C 267.1964 214.0317 267.2231 214.20532 267.24 214.38 C 267.23505 214.4165 267.23505 214.45352 267.24 214.49 C 267.24997 214.67651 267.24997 214.86346 267.24 215.04999 C 267.24 218.3637 264.5537 221.05 261.24 221.05 M 215.75 128.44 C 218.73839 125.59035 220.42651 121.63927 220.42 117.51 C 220.42027 116.051094 220.2115 114.59967 219.8 113.2 L 250.53 95.3 C 252.52084 97.43304 255.09378 98.935074 257.93 99.62 L 257.93 199.77 C 257.9303 200.05656 257.73715 200.30722 257.46 200.38 L 257.31 200.38 C 257.08795 200.37906 256.88278 200.26128 256.77 200.07 Z M 250.65 204.31 C 250.44945 204.49837 250.14984 204.5348 249.91 204.39998 L 164.13 154.33 C 164.95668 151.50932 164.95668 148.51068 164.13 145.69 L 194.77 127.81 C 197.55548 130.81883 201.46974 132.52951 205.57 132.53 C 207.01627 132.52695 208.4545 132.31476 209.84001 131.9 L 250.76 203.55 C 250.9035 203.79828 250.85803 204.1126 250.65 204.31 M 246.84 211.31 C 246.732 211.5012 246.52957 211.6196 246.31 211.62001 L 164.44 211.56 C 163.30577 205.89915 159.01143 201.39845 153.41 200 L 153.41 164.61 C 156.24503 163.93494 158.81654 162.43518 160.8 160.3 L 246.72 210.44 C 246.91002 210.55884 247.02675 210.76593 247.03 210.99 L 246.94 211.3 M 246.47 219.69 L 160.8 269.69 C 158.81805 267.55292 156.24593 266.05283 153.41 265.38 L 153.41 229.25 C 158.78496 227.95534 163.01201 223.809 164.41 218.46002 L 246.21 218.52 C 246.48888 218.52621 246.73161 218.7123 246.80998 218.98001 C 246.87294 219.25655 246.75217 219.54236 246.51 219.69 M 156 280.5 L 156 280.5 C 155.98651 280.67453 155.96315 280.8481 155.93 281.02 L 155.93 281.08 C 155.93 281.24 155.86 281.4 155.82 281.56 C 155.81532 281.5898 155.81532 281.62018 155.82 281.65 L 155.67 282.08 C 155.66734 282.1166 155.66734 282.15338 155.67 282.19 C 155.62 282.32 155.56 282.46 155.5 282.59 L 155.44 282.72 C 155.37926 282.83997 155.3125 282.95676 155.24 283.07 L 155.16 283.21 C 155.09244 283.32053 155.01901 283.42734 154.94 283.53 L 154.83 283.68 L 154.6 283.96 L 154.47 284.11 L 154.22 284.36 L 154.06 284.51 L 153.81 284.73 L 153.62 284.87 L 153.36 285.05 C 153.2905 285.10242 153.21693 285.14926 153.14 285.19 L 152.88 285.34 L 152.63 285.46 L 152.38 285.58 L 152.09 285.68 L 151.84 285.77 L 151.52 285.85 L 151.29 285.91 L 150.9 285.97 L 150.7 285.97 C 150.50346 285.98022 150.30653 285.98022 150.11 285.97 L 149.51 285.97 L 149.32 285.97 L 148.93 285.91 L 148.7 285.85 L 148.38 285.77 L 148.13 285.68 L 147.85 285.58 L 147.59 285.46 L 147.34 285.34 L 147.08 285.19 L 146.86 285.05 L 146.6 284.87 L 146.41 284.73 L 146.16 284.51 L 146 284.36 C 145.91496 284.28165 145.83482 284.19815 145.76 284.11 L 145.62 283.96 L 145.39 283.68 L 145.28 283.53 C 145.20099 283.42734 145.12755 283.32053 145.06 283.21 C 145.03928 283.16327 145.01237 283.11954 144.98 283.08 L 144.78 282.71 C 144.77606 282.6701 144.77606 282.6299 144.78 282.59 C 144.71 282.46 144.66 282.32 144.6 282.19 C 144.60399 282.1568 144.60399 282.1232 144.6 282.09 C 144.55 281.94 144.5 281.8 144.46 281.65 C 144.45654 281.62344 144.45654 281.59656 144.46 281.57 C 144.46 281.4 144.38 281.24 144.35 281.08 C 144.34384 281.0639 144.34384 281.0461 144.35 281.03 C 144.28833 280.7001 144.25488 280.36557 144.25 280.03 C 144.25 276.71628 146.9363 274.03 150.25 274.03 C 153.5637 274.03 156.25 276.71628 156.25 280.03 C 156.25995 280.19986 156.25995 280.37015 156.25 280.54 M 139.2 269.69 L 53.29 219.54 C 53.106384 219.42233 52.996685 219.21806 53 219 C 53 218.91 53.05 218.81 53.08 218.72002 C 53.185402 218.52017 53.394108 218.39651 53.62 218.4 L 135.62 218.46002 C 136.99962 223.82365 141.23312 227.98404 146.62 229.26999 L 146.62 265.4 C 143.78497 266.07507 141.21346 267.57483 139.23 269.71 M 49.68 204.47 C 49.51951 204.4742 49.364235 204.41281 49.250004 204.3 C 49.041775 204.10188 49.000122 203.78526 49.15 203.54 L 90.06 131.89 C 91.44567 132.30408 92.8838 132.51625 94.33 132.52 C 98.432724 132.51743 102.34926 130.80734 105.14 127.8 L 135.77 145.68 C 134.94331 148.50067 134.94331 151.49933 135.77 154.32 L 50 204.38998 C 49.906216 204.44522 49.798794 204.47296 49.69 204.47 M 43.24 200.09 C 43.132008 200.28119 42.929585 200.39961 42.71 200.4 L 42.55 200.4 C 42.276802 200.32344 42.08848 200.0737 42.09 199.79 L 42.09 99.62 C 44.924187 98.937126 47.494465 97.434616 49.479996 95.3 L 80.1 113.19 C 79.68851 114.589676 79.47971 116.04109 79.48 117.49999 C 79.47348 121.62927 81.16163 125.58034 84.15 128.43 Z M 41.24 220.46 L 41.24 220.46 L 40.68 220.69 L 40.68 220.69 L 40.4 220.77998 L 40.05 220.87 L 39.85 220.87 C 39.70168 220.90308 39.55136 220.92647 39.4 220.94 L 39.3 220.94 C 39.11681 220.95024 38.93319 220.95024 38.75 220.94 C 35.43629 220.94 32.75 218.25371 32.75 214.94 C 32.740036 214.75346 32.740036 214.56653 32.75 214.38 C 32.75494 214.34349 32.75494 214.3065 32.75 214.27002 C 32.75 214.1 32.8 213.91998 32.83 213.75 C 32.834652 213.71683 32.834652 213.68317 32.83 213.65001 C 32.83 213.5 32.9 213.35 32.95 213.2 C 33 213.05 32.95 213.14001 32.95 213.11 C 32.95 213.08 33.06 212.81 33.12 212.66 L 33.18 212.51001 C 33.24 212.37 33.31 212.23 33.38 212.10002 C 33.40272 212.04799 33.42947 211.99783 33.46 211.95 C 33.51 211.85002 33.57 211.75998 33.63 211.66 L 33.74 211.49998 L 33.98 211.17 L 34.13 210.99 L 34.31 210.79 L 34.56 210.53 L 34.74 210.38 L 34.94 210.2 L 35.24 209.97998 C 36.25256 209.31041 37.446487 208.96829 38.66 209 C 41.474396 209.03033 43.89614 210.99747 44.502663 213.74591 C 45.109177 216.49434 43.740246 219.29802 41.2 220.51001 M 34.32 89.15 L 34.14 88.95 L 34 88.77 L 33.76 88.44 L 33.65 88.28 C 33.587452 88.18345 33.530685 88.083275 33.48 87.98 C 33.447624 87.94045 33.42072 87.89672 33.4 87.84999 C 33.33 87.71001 33.26 87.57 33.2 87.43 L 33.14 87.29 C 33.08 87.13 33.02 86.98 32.97 86.83 C 32.92 86.68 32.97 86.759995 32.97 86.74 C 32.97 86.72 32.89 86.439995 32.85 86.29 C 32.854652 86.25682 32.854652 86.22317 32.85 86.189995 C 32.85 86.02 32.79 85.84 32.77 85.67 C 32.774498 85.63347 32.774498 85.59653 32.77 85.56 C 32.759785 85.373474 32.759785 85.18652 32.77 85 C 32.77 81.686295 35.45629 79 38.77 79 C 38.95319 78.98977 39.13681 78.98977 39.32 79 L 39.42 79 C 39.57136 79.01354 39.72168 79.03692 39.87 79.07 L 40.07 79.07 L 40.42 79.16 L 40.7 79.26 L 40.7 79.26 C 40.890762 79.32629 41.077713 79.403076 41.26 79.49 C 43.800247 80.70198 45.169178 83.505646 44.562664 86.25408 C 43.95614 89.00252 41.534397 90.96966 38.72 91 C 37.4847 91.03298 36.269344 90.683754 35.24 90 L 35 89.74 L 34.8 89.57 L 34.62 89.4 L 34.37 89.15 M 96.87 123 L 96.87 123 L 96.4 123.2 L 96.4 123.2 L 95.94 123.35 L 95.87 123.35 L 95.42 123.46001 L 95.35 123.46001 C 95.01948 123.5157 94.68515 123.54579 94.35 123.55 C 92.02829 123.5325 89.92508 122.17709 88.95 120.07 C 88.874916 119.91705 88.80815 119.76016 88.75 119.6 C 88.75 119.6 88.75 119.6 88.75 119.6 C 88.689545 119.45028 88.63942 119.296585 88.600006 119.14001 L 88.600006 119.07 C 88.559456 118.91892 88.52938 118.76522 88.51 118.61 C 88.51 118.61 88.51 118.61 88.51 118.53 C 88.51 118.450005 88.51 118.22 88.45 118.05001 C 88.39 117.87999 88.45 117.71 88.45 117.54 C 88.40402 115.2016 89.70782 113.04547 91.8 112 L 92.26 111.8 L 92.26 111.8 L 92.72001 111.649994 L 92.79001 111.649994 L 93.240005 111.55 L 93.32 111.55 C 93.47852 111.51955 93.63886 111.49951 93.80001 111.49 L 93.80001 111.49 L 94.3 111.49 C 96.8218 111.51394 99.05946 113.11228 99.90001 115.49 L 99.90001 115.49 C 99.95899 115.64025 100.00909 115.79386 100.05 115.95 C 100.04872 115.97331 100.04872 115.99668 100.05 116.02 C 100.05 116.18 100.12 116.33 100.15001 116.48 C 100.18 116.63 100.15001 116.48 100.15001 116.56 C 100.21076 116.88985 100.24088 117.2246 100.24 117.560005 C 100.246086 119.867645 98.9389 121.977776 96.87 123 M 138.67 30.64 C 138.91371 30.499239 139.22168 30.5403 139.42 30.739998 C 139.61507 30.944632 139.65549 31.251875 139.52 31.500002 L 98.6 103.12 C 93.20476 101.49032 87.35244 103.07758 83.52 107.20999 L 52.89 89.33 C 53.716686 86.50932 53.716686 83.51067 52.89 80.69 Z M 144.05 19.53 L 144.05 19.53 C 144.06349 19.355482 144.08685 19.181871 144.12 19.01 C 144.11444 18.990387 144.11444 18.969614 144.12 18.95 C 144.14714 18.787964 144.18387 18.627682 144.23 18.47 C 144.22531 18.440184 144.22531 18.409817 144.23 18.38 C 144.23 18.23 144.32 18.09 144.37 17.95 C 144.37413 17.91345 144.37413 17.87655 144.37 17.84 C 144.43 17.71 144.48 17.57 144.55 17.44 C 144.54605 17.400097 144.54605 17.359903 144.55 17.32 C 144.62 17.19 144.68 17.07 144.75 16.96 C 144.7804 16.915564 144.80714 16.868744 144.83 16.82 C 144.89755 16.709475 144.971 16.602654 145.05 16.5 L 145.16 16.35 L 145.39 16.07 L 145.53 15.92 L 145.77 15.670001 L 145.93 15.52 L 146.18 15.3 L 146.37 15.16 L 146.63 14.98 L 146.85 14.84 L 147.11 14.69 L 147.36 14.57 L 147.62 14.45 L 147.9 14.35 L 148.15 14.26 L 148.47 14.18 L 148.71 14.12 C 148.83 14.12 148.96 14.12 149.08 14.06 L 149.28 14.06 C 149.47653 14.049779 149.67346 14.049779 149.87 14.06 L 149.87 14.06 C 150.06319 14.049513 150.2568 14.049513 150.45 14.06 L 150.66 14.06 L 151.04 14.12 L 151.27 14.18 L 151.59 14.26 L 151.84 14.35 L 152.13 14.45 L 152.38 14.57 L 152.63 14.69 L 152.89 14.84 L 153.11 14.98 L 153.37 15.16 L 153.56 15.3 L 153.81 15.52 L 153.97 15.670001 C 154.05515 15.748242 154.1353 15.831738 154.21 15.92 C 154.26169 15.965068 154.3086 16.015331 154.35 16.07 L 154.58 16.35 L 154.69 16.5 C 154.76901 16.602654 154.84244 16.709475 154.91 16.82 L 154.99 16.96 C 155.06465 17.075388 155.13147 17.19566 155.19 17.32 L 155.25 17.44 C 155.31 17.57 155.37 17.71 155.42 17.84 C 155.41588 17.87655 155.41588 17.91345 155.42 17.95 L 155.57 18.38 C 155.56532 18.409817 155.56532 18.440184 155.57 18.47 C 155.57 18.63 155.64 18.79 155.68 18.95 L 155.68 19 C 155.7138 19.171762 155.73718 19.345413 155.75 19.52 C 155.76022 19.693182 155.76022 19.866817 155.75 20.04 C 155.75 23.353708 153.0637 26.04 149.75 26.04 C 146.4363 26.04 143.75 23.353708 143.75 20.04 C 143.75 19.86 143.75 19.69 143.75 19.52 M 144 150 C 144 146.6863 146.6863 144 150 144 C 153.3137 144 156 146.6863 156 150 C 156 153.3137 153.3137 156 150 156 C 146.6863 156 144 153.3137 144 150 M 139.18 160.3 C 141.16345 162.43518 143.73497 163.93494 146.57 164.61 L 146.57 200 C 140.94916 201.35657 136.61702 205.83676 135.45 211.49998 L 53.81 211.44 C 53.529995 211.43704 53.285545 211.24965 53.21 210.98001 C 53.14187 210.70544 53.259132 210.41837 53.5 210.27 Z M 104.49 106.58 L 145.41 34.92 C 145.54773 34.67257 145.83765 34.552467 146.11 34.63 C 146.38164 34.70256 146.57045 34.948833 146.57 35.23 L 146.57 135.39 C 143.73497 136.06506 141.16345 137.56482 139.18 139.7 L 108.53999 121.82 C 108.9507 120.41674 109.15946 118.96213 109.16001 117.49999 C 109.17204 113.372505 107.48278 109.42246 104.49 106.58 M 156 214.63 C 156.00653 216.02135 155.52931 217.3717 154.65 218.45 L 154.54 218.59 L 154.32 218.82 L 154.14 219 L 153.97 219.16 C 151.92078 221.01086 148.86082 221.18964 146.61 219.59 L 146.61 219.59 C 146.42464 219.45775 146.24763 219.31413 146.08 219.16 L 145.91 219 L 145.73 218.82 L 145.53 218.60999 C 144.573 217.49727 144.04774 216.07767 144.05 214.61 C 144.05072 213.30724 144.47545 212.04005 145.26 211 C 145.26 211 145.26 211 145.26 211 C 145.37566 210.83789 145.50264 210.68417 145.64 210.54 L 145.64 210.54 C 145.76994 210.3934 145.91031 210.25638 146.06 210.13 L 146.06 210.13 C 148.28583 208.15733 151.63417 208.15733 153.86 210.13 L 153.86 210.13 C 154 210.26 154.14 210.4 154.27 210.54 L 154.27 210.54 C 154.40686 210.68462 154.53381 210.8383 154.65 211 L 154.65 211 C 154.77585 211.17043 154.89268 211.34734 155 211.53 C 155.55652 212.46097 155.85027 213.52538 155.85 214.61 M 191.32 121.80001 L 160.8 139.7 C 158.81805 137.56293 156.24593 136.0628 153.41 135.39 L 153.41 35.23 C 153.40955 34.948833 153.59836 34.70256 153.87 34.63 C 154.14258 34.548477 154.43494 34.669598 154.57 34.92 L 195.48999 106.58 C 191.40395 110.50776 189.85956 116.39185 191.49 121.82 M 211.62001 118 L 211.62001 118 C 211.62001 118.17 211.62001 118.33 211.56 118.49 C 211.55515 118.51308 211.55515 118.53692 211.56 118.56 C 211.56 118.72 211.49998 118.87 211.46 119.020004 C 211.42 119.17 211.46 119.020004 211.46 119.08999 C 211.42056 119.24658 211.37047 119.400276 211.31 119.55 L 211.31 119.55 C 211.25531 119.71004 211.1919 119.86693 211.12001 120.02 C 210.1434 122.13035 208.03532 123.48636 205.71 123.5 C 205.37479 123.496826 205.04039 123.46673 204.71 123.41 L 204.63998 123.41 L 204.18 123.3 L 204.11002 123.3 L 203.65 123.15 L 203.65 123.15 C 201.29494 122.25631 199.73825 119.99895 199.74 117.48001 C 199.7391 117.14461 199.76923 116.80984 199.83 116.48 C 199.83488 116.45356 199.83488 116.426445 199.83 116.4 C 199.83 116.25 199.9 116.09999 199.93999 115.94 C 199.98 115.78001 199.93999 115.94 199.93999 115.88 C 199.93999 115.82 200.04 115.56 200.09 115.41 L 200.09 115.41 C 200.15 115.25 200.21 115.08999 200.28 114.94001 L 200.28 114.94001 C 201.2566 112.82966 203.36469 111.47364 205.69 111.46001 L 206.2 111.46001 L 206.67001 111.52999 L 206.75 111.52999 L 207.2 111.63 L 207.27 111.63 C 207.42001 111.63 207.58 111.72 207.73 111.78001 L 207.73 111.78001 C 210.08351 112.67002 211.64046 114.92382 211.64 117.44 C 211.64 117.61001 211.64 117.79 211.64 117.94999 M 160.64 30.65 C 160.83832 30.450302 161.14629 30.409239 161.39 30.549997 L 247.18001 80.63 C 246.34023 83.448784 246.34023 86.45122 247.18001 89.27 L 216.54 107.15 C 212.70755 103.017586 206.85526 101.43032 201.45999 103.06 L 160.48 31.469997 C 160.34451 31.221876 160.38493 30.91463 160.58 30.709997 M 258.8 79.54 L 258.8 79.54 L 259.36 79.31 L 259.41 79.31 L 259.69 79.21 L 260.05 79.12 L 260.24 79.12 C 260.38846 79.08767 260.53873 79.06429 260.69 79.05 L 260.79 79.05 C 260.9732 79.039764 261.1568 79.039764 261.34 79.05 C 264.65372 79.05 267.34 81.73629 267.34 85.05 C 267.35022 85.23653 267.35022 85.42347 267.34 85.61 C 267.3355 85.64653 267.3355 85.68347 267.34 85.72 C 267.32312 85.8947 267.29642 86.068306 267.26 86.24 C 267.26 86.24 267.26 86.31 267.26 86.34 C 267.26 86.37001 267.19 86.63999 267.14 86.79 C 267.09 86.94001 267.14 86.85 267.14 86.88 C 267.14 86.91 267.03 87.18 266.97 87.329994 L 266.91 87.48 C 266.85 87.62 266.78 87.76 266.71 87.89 C 266.64 88.02 266.66 87.99 266.64 88.04 L 266.46 88.33 L 266.35 88.49 C 266.28 88.600006 266.19 88.71 266.11 88.82 L 265.96 89 C 265.91 89.07 265.84 89.13 265.78 89.2 C 265.72 89.27 265.61 89.37 265.53 89.45 L 265.35 89.619995 L 265.15 89.79 C 265.05423 89.86892 264.95407 89.94237 264.85 90.01 C 263.85394 90.71834 262.66223 91.099266 261.44 91.1 C 258.6256 91.06968 256.20386 89.10252 255.59734 86.35408 C 254.99083 83.60565 256.35974 80.80198 258.9 79.59 M 264.85 200.43 L 264.85 99.62 C 272.31842 97.90815 277.29617 90.84284 276.3945 83.23399 C 275.49286 75.625145 269.00165 69.91892 261.34 70 C 257.23727 70.00257 253.32074 71.71266 250.53 74.72 L 164.23 24.340002 C 164.64069 22.940153 164.84946 21.48885 164.85 20.03 C 164.85 11.828571 158.20143 5.18 150 5.18 C 141.79857 5.18 135.15 11.828571 135.15 20.03 C 135.15054 21.48885 135.35931 22.940153 135.77 24.340002 L 49.470005 74.71 C 46.677513 71.70635 42.761208 69.999985 38.66 70 C 31.001053 69.94872 24.53361 75.6758 23.657932 83.28469 C 22.782253 90.893585 27.779634 97.94011 35.25 99.63 L 35.25 200.38 C 27.801805 202.08894 22.828934 209.12404 23.702915 216.71565 C 24.576897 224.30724 31.01832 230.02827 38.66 230 C 42.762722 229.99745 46.67926 228.28734 49.470005 225.28 L 135.77 275.66 C 135.3585 277.06308 135.14972 278.51782 135.15 279.98 C 135.15 288.18143 141.79857 294.83 150 294.83 C 158.20143 294.83 164.85 288.18143 164.85 279.98 C 164.85028 278.51782 164.6415 277.06308 164.23 275.66 L 250.53 225.28 C 253.32074 228.28734 257.23727 229.99745 261.34 230 C 268.99893 230.05128 275.4664 224.3242 276.34207 216.7153 C 277.21774 209.10641 272.22037 202.0599 264.75 200.37"/>
</svg>
