<svg width="512" height="512" xmlns="http://www.w3.org/2000/svg">
    <path fill="#f69988" stroke="none" d="M 512 256 C 512 397.38486 397.38486 512 256 512 C 114.615105 512 0 397.38486 0 256 C 0 114.615105 114.615105 0 256 0 C 397.38486 0 512 114.615105 512 256 Z"/>
    <path fill="#ffffff" fill-rule="evenodd" stroke="none" d="M 256.119 75 L 345.919 215.234 L 256.115 267.446 L 166.321 215.232 L 256.119 75 Z M 193.81 208.60101 L 256.119 111.297 L 318.429 208.60101 L 256.115 244.83 L 193.81 208.60101 Z"/>
    <path fill="#ffffff" stroke="none" d="M 255.987 298.269 L 151.816 237.696 L 148.972 242.13802 C 116.888 292.242 124.053 357.859 166.199 399.898 C 215.795 449.367 296.205 449.367 345.801 399.898 C 387.947 357.859 395.112 292.242 363.028 242.13802 L 360.18304 237.69502 L 255.99098 298.272 L 255.987 298.269 Z"/>
</svg>
