<svg width="256" height="256" xmlns="http://www.w3.org/2000/svg">
    <g>
        <path fill="#50becb" fill-rule="evenodd" stroke="none" d="M 135.5 98.50001 C 137.587 99.5846 138.92 101.251 139.5 103.5 C 118.20401 120.866 96.87021 137.532 75.5 153.5 C 81.5307 145.809 87.5307 138.142 93.49999 130.5 C 93.369 131.239 93.535706 131.906 94 132.5 C 94.97199 130.695 96.1387 129.028 97.49999 127.5 C 96.7176 125.671 97.38431 124.171 99.5 123 C 110.94001 114.528 122.106 105.695 133 96.5 C 133.915 97.3279 134.581 98.3279 135 99.5 C 135.399 99.2716 135.565 98.9382 135.5 98.50001 Z"/>
    </g>
    <g>
        <g opacity="0.569">
            <path fill="#4f6fb8" fill-rule="evenodd" stroke="none" d="M 142.5 65.5 C 159.513 65.1672 176.513 65.5005 193.5 66.5 C 196.547 69.5448 199.213 72.8781 201.5 76.5 C 190.51599 90.8142 179.18199 104.813995 167.5 118.50001 C 156.5 104.5 145.5 90.50001 134.5 76.5 C 137.191 72.8151 139.858 69.1484 142.5 65.5 Z"/>
        </g>
    </g>
    <g>
        <path fill="#4dc4cd" fill-rule="evenodd" stroke="none" d="M 142.5 67.5 C 159.17 67.3334 175.837 67.5001 192.5 68 C 195.19199 70.5572 197.525 73.3905 199.5 76.5 C 189.19101 89.97689 178.691 103.31 168 116.5 C 157.667 103.5 147.333 90.50001 137 77.5 C 138.071 73.883 139.904 70.5497 142.5 67.5 Z"/>
    </g>
    <g>
        <path fill="#53b8c9" fill-rule="evenodd" stroke="none" d="M 139.5 103.5 C 141.167 104.5 142.5 105.833 143.5 107.5 C 117.45899 129.062 90.9587 149.729 64 169.5 C 63.601196 169.272 63.434597 168.938 63.5 168.5 C 67.5303 163.476 71.5303 158.476 75.5 153.5 C 96.87021 137.532 118.20401 120.866 139.5 103.5 Z"/>
    </g>
    <g>
        <path fill="#56b4c7" fill-rule="evenodd" stroke="none" d="M 143.5 107.5 C 145.252 109.246 146.585 111.245995 147.5 113.49999 C 146.206 112.71 145.039 111.71001 144 110.50001 C 122.147 128.683 99.98021 146.516 77.5 164 C 71.4201 168.754 65.0868 173.087 58.5 177 C 57.5868 178.414 57.5868 179.914 58.5 181.5 C 57.1882 180.855 56.1882 179.855 55.5 178.5 C 57.840694 174.83502 60.5074 171.501 63.5 168.5 C 63.434597 168.938 63.601196 169.272 64 169.5 C 90.9587 149.729 117.45899 129.062 143.5 107.5 Z"/>
    </g>
    <g>
        <path fill="#59b0c6" fill-rule="evenodd" stroke="none" d="M 147.5 113.49999 C 149.587 114.585 150.92 116.251 151.5 118.50001 C 151.167 118.50001 150.833 118.50001 150.5 118.50001 C 149.438 116.243 147.772 115.07701 145.5 115 C 116.998 137.34 88.66499 159.84 60.5 182.5 C 61.8569 184.186 63.1902 185.852 64.5 187.49998 C 64.1667 187.49998 63.8333 187.49998 63.5 187.49998 C 61.086 186.089 59.419395 184.089 58.5 181.5 C 57.5868 179.914 57.5868 178.414 58.5 177 C 65.0868 173.087 71.4201 168.754 77.5 164 C 99.98021 146.516 122.147 128.683 144 110.50001 C 145.039 111.71001 146.206 112.71 147.5 113.49999 Z"/>
    </g>
    <g>
        <path fill="#5aabc4" fill-rule="evenodd" stroke="none" d="M 150.5 118.50001 C 122.519 140.81 94.5189 163.143 66.5 185.5 C 67.9492 186.17201 69.2825 186.839 70.5 187.49998 C 68.5 187.49998 66.5 187.49998 64.5 187.49998 C 63.1902 185.852 61.8569 184.186 60.5 182.5 C 88.66499 159.84 116.998 137.34 145.5 115 C 147.772 115.07701 149.438 116.243 150.5 118.50001 Z"/>
    </g>
    <g>
        <path fill="#5ca5c2" fill-rule="evenodd" stroke="none" d="M 150.5 118.50001 C 150.833 118.50001 151.167 118.50001 151.5 118.50001 C 153.543 119.579 154.876 121.246 155.5 123.5 C 139.077 134.673 123.07701 147.173 107.5 161 C 96.7111 168.626 86.3777 176.793 76.5 185.5 C 77.2427 186.182 77.9094 186.849 78.5 187.49998 C 75.8333 187.49998 73.1667 187.49998 70.5 187.49998 C 69.2825 186.839 67.9492 186.17201 66.5 185.5 C 94.5189 163.143 122.519 140.81 150.5 118.50001 Z"/>
    </g>
    <g>
        <path fill="#5f9fbf" fill-rule="evenodd" stroke="none" d="M 155.5 123.5 C 157.633 125.091 159.299 127.091 160.5 129.5 C 160.565 129.938 160.399 130.272 160 130.5 C 159 129.5 158 128.5 157 127.5 C 132.782 147.026 108.282 166.193 83.5 185 C 84.5707 185.852 85.5707 186.68498 86.50001 187.49998 C 83.8333 187.49998 81.1667 187.49998 78.5 187.49998 C 77.9094 186.849 77.2427 186.182 76.5 185.5 C 86.3777 176.793 96.7111 168.626 107.5 161 C 123.07701 147.173 139.077 134.673 155.5 123.5 Z"/>
    </g>
    <g>
        <path fill="#6199bc" fill-rule="evenodd" stroke="none" d="M 160.5 129.5 C 161.906 129.973 162.573 130.973 162.5 132.5 C 160.692 132.491 159.025 132.991 157.5 134 C 136.348 151.074 115.01501 167.908 93.49999 184.5 C 92.61431 185.325 92.281 186.325 92.5 187.49998 C 90.50001 187.49998 88.5 187.49998 86.50001 187.49998 C 85.5707 186.68498 84.5707 185.852 83.5 185 C 108.282 166.193 132.782 147.026 157 127.5 C 158 128.5 159 129.5 160 130.5 C 160.399 130.272 160.565 129.938 160.5 129.5 Z"/>
    </g>
    <g>
        <path fill="#6392ba" fill-rule="evenodd" stroke="none" d="M 162.5 132.5 C 163.5 132.833 164.167 133.5 164.5 134.5 C 143.807 151.524 122.807 168.19 101.49999 184.5 C 100.614 185.325 100.281 186.325 100.5 187.49998 C 97.8333 187.49998 95.1667 187.49998 92.5 187.49998 C 92.281 186.325 92.61431 185.325 93.49999 184.5 C 115.01501 167.908 136.348 151.074 157.5 134 C 159.025 132.991 160.692 132.491 162.5 132.5 Z"/>
    </g>
    <g>
        <path fill="#658bb7" fill-rule="evenodd" stroke="none" d="M 164.5 134.5 C 165.728 135.306 166.728 136.306 167.5 137.5 C 167.5 137.833 167.5 138.167 167.5 138.5 C 154.733 148.087 142.067 157.921 129.5 168 C 130.252 168.671 130.586 169.504 130.5 170.5 C 129.399 169.2 128.066 168.7 126.50001 169 C 121.833 175 117.167 181 112.5 187 C 108.514 187.499 104.514 187.666 100.5 187.49998 C 100.281 186.325 100.614 185.325 101.49999 184.5 C 122.807 168.19 143.807 151.524 164.5 134.5 Z"/>
    </g>
    <g>
        <path fill="#6686b5" fill-rule="evenodd" stroke="none" d="M 167.5 138.5 C 168.974 139.436 169.974 140.77 170.5 142.5 C 158.456 151.455 146.122 160.789 133.5 170.5 C 132.614 171.325 132.281 172.32498 132.5 173.5 C 131.094 173.027 130.427 172.02701 130.5 170.5 C 130.586 169.504 130.252 168.671 129.5 168 C 142.067 157.921 154.733 148.087 167.5 138.5 Z"/>
    </g>
    <g>
        <path fill="#687fb2" fill-rule="evenodd" stroke="none" d="M 170.5 142.5 C 172.262 143.262 173.262 144.596 173.5 146.5 C 160.754 156.721 147.754 166.721 134.5 176.5 C 133.833 175.5 133.167 174.5 132.5 173.5 C 132.281 172.32498 132.614 171.325 133.5 170.5 C 146.122 160.789 158.456 151.455 170.5 142.5 Z"/>
    </g>
    <g>
        <g opacity="0.61">
            <path fill="#4e6fb8" fill-rule="evenodd" stroke="none" d="M 168.5 137.5 C 168.167 137.5 167.833 137.5 167.5 137.5 C 166.728 136.306 165.728 135.306 164.5 134.5 C 164.167 133.5 163.5 132.833 162.5 132.5 C 162.573 130.973 161.906 129.973 160.5 129.5 C 159.299 127.091 157.633 125.091 155.5 123.5 C 154.876 121.246 153.543 119.579 151.5 118.50001 C 150.92 116.251 149.587 114.585 147.5 113.49999 C 146.585 111.245995 145.252 109.246 143.5 107.5 C 142.5 105.833 141.167 104.5 139.5 103.5 C 138.92 101.251 137.587 99.5846 135.5 98.50001 C 128.216 88.1241 120.549 77.9575 112.5 68 C 95.83329 67.3333 79.1667 67.3333 62.5 68 C 59.8084 70.5572 57.475 73.3905 55.5 76.5 C 68.4762 93.3104 81.6429 109.977 95 126.50001 C 95.2997 128.066 94.7997 129.399 93.49999 130.5 C 87.5307 138.142 81.5307 145.809 75.5 153.5 C 71.5303 158.476 67.5303 163.476 63.5 168.5 C 60.5074 171.501 57.840694 174.83502 55.5 178.5 C 56.1882 179.855 57.1882 180.855 58.5 181.5 C 59.419395 184.089 61.086 186.089 63.5 187.49998 C 77.5 188.167 91.5 188.833 105.49999 189.5 C 90.8182 189.833 76.1515 189.49901 61.5 188.50002 C 58.6512 185.485 55.9845 182.318 53.5 179 C 66.6282 161.701 79.9616 144.535 93.49999 127.5 C 80.5238 110.69001 67.3571 94.0229 54 77.5 C 55.5096 72.9478 58.342903 69.1145 62.5 66 C 79.1667 65.3333 95.83329 65.3333 112.5 66 C 131.763 89.422 150.429 113.255 168.5 137.5 Z"/>
        </g>
    </g>
    <g>
        <path fill="#4ec4cd" fill-rule="evenodd" stroke="none" d="M 135.5 98.50001 C 135.565 98.9382 135.399 99.2716 135 99.5 C 134.581 98.3279 133.915 97.3279 133 96.5 C 122.106 105.695 110.94001 114.528 99.5 123 C 97.38431 124.171 96.7176 125.671 97.49999 127.5 C 96.1387 129.028 94.97199 130.695 94 132.5 C 93.535706 131.906 93.369 131.239 93.49999 130.5 C 94.7997 129.399 95.2997 128.066 95 126.50001 C 81.6429 109.977 68.4762 93.3104 55.5 76.5 C 57.475 73.3905 59.8084 70.5572 62.5 68 C 79.1667 67.3333 95.83329 67.3333 112.5 68 C 120.549 77.9575 128.216 88.1241 135.5 98.50001 Z"/>
    </g>
    <g>
        <path fill="#6c6eac" fill-rule="evenodd" stroke="none" d="M 176.5 150.5 C 178.5 151.833 180.167 153.5 181.5 155.5 C 168.682 166.074 155.682 176.407 142.5 186.5 C 140.863 184.52498 139.196 182.525 137.5 180.50002 C 151.74 171.904 164.74 161.904 176.5 150.5 Z"/>
    </g>
    <g>
        <path fill="#6d67a9" fill-rule="evenodd" stroke="none" d="M 181.5 155.5 C 182.5 156.833 183.5 158.167 184.5 159.5 C 172.417 169.559 160.084 178.892 147.5 187.49998 C 145.585 187.78398 143.919 187.451 142.5 186.5 C 155.682 176.407 168.682 166.074 181.5 155.5 Z"/>
    </g>
    <g>
        <path fill="#6f5ca5" fill-rule="evenodd" stroke="none" d="M 184.5 159.5 C 185.83301 161.167 187.167 162.833 188.50002 164.5 C 179.224 173.135 169.224 180.802 158.5 187.49998 C 154.833 187.49998 151.167 187.49998 147.5 187.49998 C 160.084 178.892 172.417 169.559 184.5 159.5 Z"/>
    </g>
    <g>
        <path fill="#714fa0" fill-rule="evenodd" stroke="none" d="M 188.50002 164.5 C 192.143 169.148 195.81 173.815 199.5 178.5 C 197.733 181.76999 195.4 184.603 192.5 187 C 181.172 187.49998 169.838 187.667 158.5 187.49998 C 169.224 180.802 179.224 173.135 188.50002 164.5 Z"/>
    </g>
    <g>
        <path fill="#6a77af" fill-rule="evenodd" stroke="none" d="M 173.5 146.5 C 175.26201 147.262 176.262 148.596 176.5 150.5 C 164.74 161.904 151.74 171.904 137.5 180.50002 C 136.5 179.167 135.5 177.83301 134.5 176.5 C 147.754 166.721 160.754 156.721 173.5 146.5 Z"/>
    </g>
    <g>
        <g opacity="0.602">
            <path fill="#4f74b9" fill-rule="evenodd" stroke="none" d="M 167.5 138.5 C 167.5 138.167 167.5 137.833 167.5 137.5 C 167.833 137.5 168.167 137.5 168.5 137.5 C 179.46898 150.645 190.303 163.978 201 177.5 C 201.749 178.635 201.58301 179.635 200.5 180.50002 C 198.16699 183.16702 195.833 185.83301 193.5 188.50002 C 176.51 189.666 159.51 189.833 142.5 189 C 137.62 182.74199 132.62 176.575 127.5 170.5 C 122.380005 176.575 117.38 182.74199 112.5 189 C 110.189995 189.497 107.856995 189.66298 105.49999 189.5 C 91.5 188.833 77.5 188.167 63.5 187.49998 C 63.8333 187.49998 64.1667 187.49998 64.5 187.49998 C 66.5 187.49998 68.5 187.49998 70.5 187.49998 C 73.1667 187.49998 75.8333 187.49998 78.5 187.49998 C 81.1667 187.49998 83.8333 187.49998 86.50001 187.49998 C 88.5 187.49998 90.50001 187.49998 92.5 187.49998 C 95.1667 187.49998 97.8333 187.49998 100.5 187.49998 C 104.514 187.666 108.514 187.499 112.5 187 C 117.167 181 121.833 175 126.50001 169 C 128.066 168.7 129.399 169.2 130.5 170.5 C 130.427 172.02701 131.094 173.027 132.5 173.5 C 133.167 174.5 133.833 175.5 134.5 176.5 C 135.5 177.83301 136.5 179.167 137.5 180.50002 C 139.196 182.525 140.863 184.52498 142.5 186.5 C 143.919 187.451 145.585 187.78398 147.5 187.49998 C 151.167 187.49998 154.833 187.49998 158.5 187.49998 C 169.838 187.667 181.172 187.49998 192.5 187 C 195.4 184.603 197.733 181.76999 199.5 178.5 C 195.81 173.815 192.143 169.148 188.50002 164.5 C 187.167 162.833 185.83301 161.167 184.5 159.5 C 183.5 158.167 182.5 156.833 181.5 155.5 C 180.167 153.5 178.5 151.833 176.5 150.5 C 176.262 148.596 175.26201 147.262 173.5 146.5 C 173.262 144.596 172.262 143.262 170.5 142.5 C 169.974 140.77 168.974 139.436 167.5 138.5 Z"/>
        </g>
    </g>
</svg>
