<svg width="128" height="128" xmlns="http://www.w3.org/2000/svg">
    <defs>
        <clipPath id="b">
            <path fill="#000000" stroke="none" d="M 0 0 L 128 0 L 128 128 L 0 128 Z"/>
        </clipPath>
    </defs>
    <g id="a" clip-path="url(#b)">
        <path fill="#ffffff" stroke="none" d="M 128 64 C 128 99.346214 99.346214 128 64 128 C 28.653776 128 0 99.346214 0 64 C 0 28.653776 28.653776 0 64 0 C 99.346214 0 128 28.653776 128 64 Z"/>
        <g transform="matrix(1 0 0 1 0.131 -0.304)">
            <g transform="matrix(1 0 0 1 28.395998 31.304)">
                <path fill="#2eb6ea" stroke="none" d="M 65.962 32.981 C 65.962 51.1959 51.1959 65.962 32.981 65.962 C 14.766097 65.962 0 51.1959 0 32.981 C 0 14.766097 14.766097 0 32.981 0 C 51.1959 0 65.962 14.766097 65.962 32.981 Z"/>
            </g>
            <g transform="matrix(1 0 0 1 0 -2.916)">
                <path fill="#1542cd" stroke="none" d="M 61.2 100.183 C 28.4 100.183 15.452 57.03 44.426 38.845 C 40.977 74.911 59.307 75.709 76.316 74.911 C 104.816 73.574 104.83599 100.183 104.83599 100.183 Z"/>
            </g>
            <g transform="matrix(1 0 0 1 -20.608 -27.607002)">
                <path fill="#745ddf" fill-rule="evenodd" stroke="none" d="M 113.159 102.68099 C 108.05995 115.747375 95.64027 124.49695 81.62 124.9 Q 82.126 124.914 82.639 124.914 L 126.005005 124.914 C 126.005005 124.914 125.994 109.316 113.159 102.68099 Z"/>
            </g>
        </g>
    </g>
</svg>
