<svg width="341" height="341" xmlns="http://www.w3.org/2000/svg">
    <g id="surface1">
        <path fill="#212121" stroke="none" d="M 0 0 L 341 0 L 341 341 L 0 341 Z"/>
        <path fill="#72f395" stroke="none" d="M 149.5586 105.90625 L 149.5586 62.0625 L 105.71484 62.0625 L 70.58984 97.1875 L 70.58984 161.57813 L 54.558594 177.60547 L 54.558594 221.44922 L 98.40625 221.44922 L 132.59375 187.26173 L 132.59375 122.87109 Z M 149.5586 105.90625"/>
        <path fill="#72f395" stroke="none" d="M 241.875 66.71094 L 198.03125 66.71094 L 139.15625 125.58984 L 139.15625 189.98047 L 98.441414 230.6914 L 98.441414 274.53906 L 142.28906 274.53516 L 201.16016 215.66406 L 201.16016 151.27344 L 241.875 110.55469 Z M 241.875 66.71094"/>
        <path fill="#72f395" stroke="none" d="M 285.7578 119.80078 L 241.91406 119.80078 L 241.91406 119.79688 L 241.91406 119.80078 L 207.72266 153.99219 L 207.72266 218.38281 L 190.71484 235.39063 L 190.71484 279.23438 L 234.5586 279.23438 L 269.72656 244.0664 L 269.72656 179.6758 L 285.7578 163.64453 Z M 285.7578 119.80078"/>
    </g>
</svg>
