<svg width="78" height="78" xmlns="http://www.w3.org/2000/svg">
    <defs>
        <linearGradient id="linearGradient-1" x1="0.104929715" y1="0" x2="0.92252547" y2="1" gradientUnits="userSpaceOnUse" gradientTransform="matrix(76 0 0 76 0 0)">
            <stop offset="0" stop-color="#0093ed"/>
            <stop offset="1" stop-color="#00f3ab"/>
        </linearGradient>
        <linearGradient id="linearGradient-2" x1="0.65999573" y1="0.9256038" x2="0.108118124" y2="0" gradientUnits="userSpaceOnUse" gradientTransform="matrix(42 0 0 42 17 17)">
            <stop offset="0" stop-color="#000a17"/>
            <stop offset="1" stop-color="#00554f"/>
        </linearGradient>
    </defs>
    <g id="staker---staking-flow">
        <g id="copy-1-1" transform="matrix(1 0 0 1 -298 -47)">
            <g id="cosmos-logo-horizontal-dark-copy-4" transform="matrix(1 0 0 1 299 48)">
                <path id="Path" fill="url(#linearGradient-1)" fill-rule="evenodd" stroke="#00f3ab" stroke-opacity="0.2" d="M 37.999935 0 C 58.986748 0 76 17.013159 76 37.999935 C 76 58.986748 58.986748 76 37.999935 76 C 17.013159 76 0 58.986748 0 37.999935 C 0 17.013159 17.013159 0 37.999935 0 Z"/>
                <path id="Combined-Shape-Copy" fill="url(#linearGradient-2)" fill-rule="evenodd" stroke="none" d="M 40.40368 48.78135 C 42.13049 48.87957 43.783875 49.085686 45.36383 49.399696 L 46.65924 53.42444 L 46.734005 49.703 L 47.33333 49.857143 C 48.898403 50.432068 50.463474 50.790073 52.028538 50.931168 L 50.353558 59 L 43.633976 59 Z M 34.939537 48.824173 L 31.88198 59 L 25.395113 59 L 23.795197 50.98946 C 25.576363 50.92332 27.200188 50.545883 28.666664 49.857143 C 28.90078 49.794598 29.136637 49.73462 29.374245 49.677208 L 29.583944 53.42444 L 30.69793 49.387486 C 32.057556 49.120007 33.471424 48.932236 34.939537 48.824173 Z M 22.957447 17 L 29.033333 45.077183 C 28.90998 45.14503 28.787758 45.214542 28.666664 45.285713 C 26.918562 46.047623 25.103746 46.42857 23.222221 46.42857 C 23.109344 46.42857 22.995773 46.427204 22.881508 46.424458 L 17 17 L 22.957447 17 Z M 52.148937 17 L 59 17.328125 L 52.966793 46.415607 C 51.29594 46.34309 49.41812 45.966457 47.33333 45.285713 C 47.29042 45.260494 47.247364 45.235477 47.204166 45.210674 L 52.148937 17 Z M 39.59059 31.250366 L 43.546967 43.6993 C 42.032967 43.281742 40.39171 43.05117 38.62318 43.00761 L 37.612534 39.325317 L 36.627766 43.03767 C 35.091324 43.12363 33.655006 43.35671 32.31881 43.736904 L 36.012634 31.250366 L 39.59059 31.250366 Z"/>
            </g>
        </g>
    </g>
</svg>
