<svg width="256" height="181" xmlns="http://www.w3.org/2000/svg">
    <g transform="matrix(0.3040484 0 0 0.3040484 0.01082611 0)">
        <g>
            <path id="Многоугольник_1_копия_19" fill="#1a1a1a" stroke="none" d="M 438 217 L 430 212.50002 L 430 203.49998 L 438 199 L 446 203.49998 L 446 212.50002 L 438 217 Z M 459 229 L 451 224.5 L 451 215.5 L 459 211 L 467 215.5 L 467 224.5 L 459 229 Z M 417 229 L 409 224.5 L 409 215.5 L 417 211 L 425 215.5 L 425 224.5 L 417 229 Z M 438 241 L 430 236.50002 L 430 227.49998 L 438 223 L 446 227.49998 L 446 236.50002 L 438 241 Z M 459 253 L 451 248.5 L 451 239.5 L 459 235 L 467 239.5 L 467 248.5 L 459 253 Z M 480 241 L 472 236.50002 L 472 227.49998 L 480 223 L 488 227.49998 L 488 236.50002 L 480 241 Z M 480 265 L 472 260.5 L 472 251.49998 L 480 247 L 488 251.49998 L 488 260.5 L 480 265 Z M 501 253 L 493 248.5 L 493 239.5 L 501 235 L 509 239.5 L 509 248.5 L 501 253 Z M 501 277 L 493 272.5 L 493 263.5 L 501 259 L 509 263.5 L 509 272.5 L 501 277 Z M 522 266 L 514 261.5 L 514 252.50002 L 522 248 L 530 252.50002 L 530 261.5 L 522 266 Z M 522 290 L 514 285.5 L 514 276.5 L 522 272 L 530 276.5 L 530 285.5 L 522 290 Z M 522 314 L 514 309.5 L 514 300.5 L 522 296 L 530 300.5 L 530 309.5 L 522 314 Z M 522 338 L 514 333.5 L 514 324.5 L 522 320 L 530 324.5 L 530 333.5 L 522 338 Z M 522 362 L 514 357.5 L 514 348.5 L 522 344 L 530 348.5 L 530 357.5 L 522 362 Z M 501 302 L 493 297.5 L 493 288.5 L 501 284 L 509 288.5 L 509 297.5 L 501 302 Z M 501 326 L 493 321.5 L 493 312.5 L 501 308 L 509 312.5 L 509 321.5 L 501 326 Z M 501 350 L 493 345.50003 L 493 336.5 L 501 332 L 509 336.5 L 509 345.50003 L 501 350 Z M 501 374 L 493 369.5 L 493 360.50003 L 501 356 L 509 360.50003 L 509 369.5 L 501 374 Z M 480 362 L 472 357.5 L 472 348.5 L 480 344 L 488 348.5 L 488 357.5 L 480 362 Z M 480 386 L 472 381.5 L 472 372.5 L 480 368 L 488 372.5 L 488 381.5 L 480 386 Z M 459 374 L 451 369.5 L 451 360.50003 L 459 356 L 467 360.50003 L 467 369.5 L 459 374 Z M 459 398 L 451 393.50003 L 451 384.5 L 459 380 L 467 384.5 L 467 393.50003 L 459 398 Z M 438 386 L 430 381.5 L 430 372.5 L 438 368 L 446 372.5 L 446 381.5 L 438 386 Z M 417 253 L 409 248.5 L 409 239.5 L 417 235 L 425 239.5 L 425 248.5 L 417 253 Z M 396 242 L 388 237.5 L 388 228.50002 L 396 224 L 404 228.50002 L 404 237.5 L 396 242 Z M 396 266 L 388 261.5 L 388 252.50002 L 396 248 L 404 252.50002 L 404 261.5 L 396 266 Z M 375 253 L 367 248.5 L 367 239.5 L 375 235 L 383 239.5 L 383 248.5 L 375 253 Z M 375 277 L 367 272.5 L 367 263.5 L 375 259 L 383 263.5 L 383 272.5 L 375 277 Z M 354 266 L 346 261.5 L 346 252.50002 L 354 248 L 362 252.50002 L 362 261.5 L 354 266 Z M 354 290 L 346 285.5 L 346 276.5 L 354 272 L 362 276.5 L 362 285.5 L 354 290 Z M 333 301 L 325 296.5 L 325 287.5 L 333 283 L 341 287.5 L 341 296.5 L 333 301 Z M 312 312 L 304 307.5 L 304 298.5 L 312 294 L 320 298.5 L 320 307.5 L 312 312 Z M 355 314 L 347 309.5 L 347 300.5 L 355 296 L 363 300.5 L 363 309.5 L 355 314 Z M 376 303 L 368 298.5 L 368 289.5 L 376 285 L 384 289.5 L 384 298.5 L 376 303 Z M 334 325 L 326 320.5 L 326 311.5 L 334 307 L 342 311.5 L 342 320.5 L 334 325 Z M 313 336 L 305 331.5 L 305 322.5 L 313 318 L 321 322.5 L 321 331.5 L 313 336 Z M 291 301 L 283 296.5 L 283 287.5 L 291 283 L 299 287.5 L 299 296.5 L 291 301 Z M 291 325 L 283 320.5 L 283 311.5 L 291 307 L 299 311.5 L 299 320.5 L 291 325 Z M 270 312 L 262 307.5 L 262 298.5 L 270 294 L 278 298.5 L 278 307.5 L 270 312 Z M 270 336 L 262 331.5 L 262 322.5 L 270 318 L 278 322.5 L 278 331.5 L 270 336 Z M 249 325 L 241 320.5 L 241 311.5 L 249 307 L 257 311.5 L 257 320.5 L 249 325 Z M 249 349 L 241 344.50003 L 241 335.5 L 249 331 L 257 335.5 L 257 344.50003 L 249 349 Z M 228 336 L 220 331.5 L 220 322.5 L 228 318 L 236 322.5 L 236 331.5 L 228 336 Z M 249 405 L 257 409.50003 L 257 418.5 L 249 423 L 241 418.5 L 241 409.50003 L 249 405 Z M 228 393 L 236 397.5 L 236 406.49997 L 228 411 L 220 406.49997 L 220 397.5 L 228 393 Z M 270 393 L 278 397.5 L 278 406.49997 L 270 411 L 262 406.49997 L 262 397.5 L 270 393 Z M 249 381 L 257 385.5 L 257 394.5 L 249 399 L 241 394.5 L 241 385.5 L 249 381 Z M 228 369 L 236 373.5 L 236 382.5 L 228 387 L 220 382.5 L 220 373.5 L 228 369 Z M 207 381 L 215 385.5 L 215 394.5 L 207 399 L 199 394.5 L 199 385.5 L 207 381 Z M 207 357 L 215 361.50003 L 215 370.5 L 207 375 L 199 370.5 L 199 361.50003 L 207 357 Z M 186 369 L 194 373.5 L 194 382.5 L 186 387 L 178 382.5 L 178 373.5 L 186 369 Z M 186 345 L 194 349.5 L 194 358.49997 L 186 363 L 178 358.49997 L 178 349.5 L 186 345 Z M 165 356 L 173 360.50003 L 173 369.5 L 165 374 L 157 369.5 L 157 360.50003 L 165 356 Z M 165 332 L 173 336.5 L 173 345.50003 L 165 350 L 157 345.50003 L 157 336.5 L 165 332 Z M 165 308 L 173 312.5 L 173 321.5 L 165 326 L 157 321.5 L 157 312.5 L 165 308 Z M 165 284 L 173 288.5 L 173 297.5 L 165 302 L 157 297.5 L 157 288.5 L 165 284 Z M 165 260 L 173 264.5 L 173 273.5 L 165 278 L 157 273.5 L 157 264.5 L 165 260 Z M 186 320 L 194 324.5 L 194 333.5 L 186 338 L 178 333.5 L 178 324.5 L 186 320 Z M 186 296 L 194 300.5 L 194 309.5 L 186 314 L 178 309.5 L 178 300.5 L 186 296 Z M 186 272 L 194 276.5 L 194 285.5 L 186 290 L 178 285.5 L 178 276.5 L 186 272 Z M 186 248 L 194 252.50002 L 194 261.5 L 186 266 L 178 261.5 L 178 252.50002 L 186 248 Z M 207 260 L 215 264.5 L 215 273.5 L 207 278 L 199 273.5 L 199 264.5 L 207 260 Z M 207 236 L 215 240.5 L 215 249.5 L 207 254 L 199 249.5 L 199 240.5 L 207 236 Z M 228 248 L 236 252.50002 L 236 261.5 L 228 266 L 220 261.5 L 220 252.50002 L 228 248 Z M 228 224 L 236 228.50002 L 236 237.5 L 228 242 L 220 237.5 L 220 228.50002 L 228 224 Z M 249 236 L 257 240.5 L 257 249.5 L 249 254 L 241 249.5 L 241 240.5 L 249 236 Z M 270 369 L 278 373.5 L 278 382.5 L 270 387 L 262 382.5 L 262 373.5 L 270 369 Z M 291 380 L 299 384.5 L 299 393.50003 L 291 398 L 283 393.50003 L 283 384.5 L 291 380 Z M 291 356 L 299 360.50003 L 299 369.5 L 291 374 L 283 369.5 L 283 360.50003 L 291 356 Z M 312 369 L 320 373.5 L 320 382.5 L 312 387 L 304 382.5 L 304 373.5 L 312 369 Z M 312 345 L 320 349.5 L 320 358.49997 L 312 363 L 304 358.49997 L 304 349.5 L 312 345 Z M 333 356 L 341 360.50003 L 341 369.5 L 333 374 L 325 369.5 L 325 360.50003 L 333 356 Z M 333 332 L 341 336.5 L 341 345.50003 L 333 350 L 325 345.50003 L 325 336.5 L 333 332 Z M 354 321 L 362 325.5 L 362 334.5 L 354 339 L 346 334.5 L 346 325.5 L 354 321 Z M 375 310 L 383 314.5 L 383 323.5 L 375 328 L 367 323.5 L 367 314.5 L 375 310 Z M 396 321 L 404 325.5 L 404 334.5 L 396 339 L 388 334.5 L 388 325.5 L 396 321 Z M 396 297 L 404 301.5 L 404 310.5 L 396 315 L 388 310.5 L 388 301.5 L 396 297 Z M 417 310 L 425 314.5 L 425 323.5 L 417 328 L 409 323.5 L 409 314.5 L 417 310 Z M 417 286 L 425 290.5 L 425 299.5 L 417 304 L 409 299.5 L 409 290.5 L 417 286 Z M 438 297 L 446 301.5 L 446 310.5 L 438 315 L 430 310.5 L 430 301.5 L 438 297 Z M 438 273 L 446 277.5 L 446 286.5 L 438 291 L 430 286.5 L 430 277.5 L 438 273 Z M 459 286 L 467 290.5 L 467 299.5 L 459 304 L 451 299.5 L 451 290.5 L 459 286 Z"/>
            <path id="GG_DAPP" fill="#1a1a1a" stroke="none" d="M 587.6 255.4 L 584.4 255.4 L 584.4 252.2 L 565.5 252.2 L 565.5 255.4 L 562.3 255.4 L 562.3 258.6 L 559.1 258.6 L 559.1 290.2 L 562.3 290.2 L 562.3 293.4 L 565.5 293.4 L 565.5 296.6 L 578.1 296.6 L 578.1 296.6 L 584.4 296.6 L 584.4 293.4 L 587.6 293.4 L 587.6 290.2 L 590.8 290.2 L 590.8 271.3 L 575 271.3 L 575 277.6 L 584.5 277.6 L 584.5 287.1 L 581.3 287.1 L 581.3 290.3 L 578.1 290.3 L 578.1 290.3 L 568.6 290.3 L 568.6 287 L 565.4 287 L 565.4 261.7 L 568.6 261.7 L 568.6 258.5 L 581.2 258.5 L 581.2 261.7 L 584.4 261.7 L 584.4 264.9 L 590.7 264.9 L 590.7 258.6 L 587.5 258.6 L 587.6 255.4 L 587.6 255.4 Z M 624.6 255.4 L 621.4 255.4 L 621.4 252.2 L 602.5 252.2 L 602.5 255.4 L 599.3 255.4 L 599.3 258.6 L 596.1 258.6 L 596.1 290.2 L 599.3 290.2 L 599.3 293.4 L 602.5 293.4 L 602.5 296.6 L 615.1 296.6 L 615.1 296.6 L 621.4 296.6 L 621.4 293.4 L 624.6 293.4 L 624.6 290.2 L 627.8 290.2 L 627.8 271.3 L 612 271.3 L 612 277.6 L 621.5 277.6 L 621.5 287.1 L 618.3 287.1 L 618.3 290.3 L 615.1 290.3 L 615.1 290.3 L 605.6 290.3 L 605.6 287 L 602.4 287 L 602.4 261.7 L 605.6 261.7 L 605.6 258.5 L 618.2 258.5 L 618.2 261.7 L 621.4 261.7 L 621.4 264.9 L 627.7 264.9 L 627.7 258.6 L 624.5 258.6 L 624.6 255.4 L 624.6 255.4 Z M 581.3 318.1 L 581.3 321.3 L 584.5 321.3 L 584.5 346.6 L 581.3 346.6 L 581.3 349.8 L 578.1 349.8 L 578.1 349.8 L 565.5 349.8 L 565.5 318.2 L 581.3 318.1 L 581.3 318.1 Z M 578.1 356 L 578.1 356 L 584.4 356 L 584.4 352.8 L 587.6 352.8 L 587.6 349.59998 L 590.8 349.59998 L 590.8 318 L 587.6 318 L 587.6 314.8 L 584.4 314.8 L 584.4 311.6 L 559.2 311.6 L 559.2 356 L 578.1 356 L 578.1 356 Z M 602.4 327.6 L 605.6 327.6 L 605.6 324.4 L 608.8 324.4 L 608.8 321.2 L 615.1 321.2 L 615.1 324.4 L 618.3 324.4 L 618.3 327.6 L 621.5 327.6 L 621.5 337.1 L 602.6 337.1 L 602.4 327.6 L 602.4 327.6 Z M 602.4 343.4 L 621.3 343.4 L 621.3 356 L 627.6 356 L 627.6 324.4 L 624.4 324.4 L 624.4 321.2 L 621.2 321.2 L 621.2 318 L 618 318 L 618 315 L 614.8 315 L 614.8 311.8 L 608.5 311.8 L 608.5 315 L 605.3 315 L 605.3 318.2 L 602.1 318.2 L 602.1 321.4 L 598.9 321.4 L 598.9 324.6 L 595.7 324.6 L 595.7 356 L 602 356 L 602.4 343.4 L 602.4 343.4 Z M 655.2 318.1 L 655.2 321.3 L 658.4 321.3 L 658.4 327.6 L 655.2 327.6 L 655.2 330.8 L 639.4 330.8 L 639.4 318.2 L 655.2 318.2 Z M 658.4 337.1 L 658.4 333.9 L 661.6 333.9 L 661.6 330.7 L 664.8 330.7 L 664.8 318.1 L 661.6 318.1 L 661.6 315 L 658.4 315 L 658.4 311.8 L 633.1 311.8 L 633.1 356 L 639.4 356 L 639.4 337.1 L 658.4 337.1 Z M 692.2 318.1 L 692.2 321.3 L 695.4 321.3 L 695.4 327.6 L 692.2 327.6 L 692.2 330.8 L 676.4 330.8 L 676.4 318.2 L 692.2 318.2 Z M 695.3 337.1 L 695.3 333.9 L 698.5 333.9 L 698.5 330.7 L 701.7 330.7 L 701.7 318.1 L 698.5 318.1 L 698.5 315 L 695.3 315 L 695.3 311.8 L 670 311.8 L 670 356 L 676.3 356 L 676.3 337.1 L 695.3 337.1 Z"/>
        </g>
    </g>
</svg>
