<svg width="96" height="96" xmlns="http://www.w3.org/2000/svg">
    <g transform="matrix(1 0 0 1 47.875 -0.4375)">
        <path fill="#878787" stroke="none" d="M 0 0 C 1.3165356 0.01135986 1.3165356 0.01135986 2.659668 0.02294922 C 9.451445 0.1952272 15.065625 1.233693 21.125 4.4375 C 21.98223 4.8732033 22.839453 5.308906 23.722658 5.7578125 C 36.08767 12.583747 43.230038 22.688568 47.520752 36.01294 C 48.542034 40.110867 48.61362 44.106697 48.5625 48.3125 C 48.554928 49.19019 48.54735 50.067883 48.53955 50.97217 C 48.36727 57.763943 47.328808 63.378124 44.125 69.4375 C 43.471447 70.72334 43.471447 70.72334 42.804688 72.03516 C 35.978752 84.40017 25.873932 91.54254 12.549561 95.83325 C 8.451633 96.85454 4.455806 96.926125 0.25 96.875 C -0.62769043 96.86742 -1.5053807 96.859856 -2.409668 96.85205 C -9.201445 96.67977 -14.815626 95.641304 -20.875 92.43751 C -22.16084 91.78394 -22.16084 91.78394 -23.472656 91.11719 C -35.83767 84.29125 -42.98004 74.18643 -47.270752 60.86206 C -48.292034 56.764133 -48.36362 52.768307 -48.3125 48.5625 C -48.304928 47.684814 -48.297356 46.807117 -48.28955 45.902832 C -48.117275 39.111057 -47.078808 33.496876 -43.875 27.437498 C -43.439297 26.580273 -43.003593 25.723047 -42.554688 24.839844 C -35.728752 12.474832 -25.62393 5.3324594 -12.299561 1.041748 C -8.201633 0.02046422 -4.205806 -0.05112209 0 0 Z"/>
    </g>
    <g transform="matrix(1 0 0 1 47 29)">
        <path fill="#000000" stroke="none" d="M 0 0 C 1.32 0.66 2.64 1.32 4 2 C 4 8.6 4 15.2 4 22 C 8.992944 17.720333 13.6384115 13.390647 18.042969 8.503906 C 20.50546 6.6115723 21.968246 6.701537 25 7 C 24.835716 12.72797 20.817282 15.628462 16.9375 19.3125 C 14.648124 21.519375 12.35875 23.72625 10 26 C 16.6 26.33 23.2 26.659998 30 27 C 30.659998 28.32 31.32 29.64 32 31 C 28.431677 34.568325 22.95261 33.369392 18.125 33.375 C 17.022852 33.39949 15.920703 33.423985 14.785156 33.44922 C 13.193809 33.45502 13.193809 33.45502 11.5703125 33.460938 C 10.59852 33.469154 9.626728 33.47737 8.625488 33.48584 C 5.3128543 32.872845 4.127158 31.538382 2 29 C -0.46800047 30.151733 -2.0478356 31.047836 -4 33 C -6.430176 33.22705 -6.430176 33.22705 -9.4453125 33.195313 C -10.52168 33.188866 -11.598046 33.182423 -12.707031 33.17578 C -14.398926 33.150646 -14.398926 33.150646 -16.125 33.125 C -17.260664 33.11598 -18.396328 33.106953 -19.566406 33.097656 C -22.377813 33.07403 -25.188803 33.041092 -28 33 C -28.659998 31.68 -29.32 30.36 -30 29 C -27.560856 26.560856 -26.785536 26.713375 -23.429688 26.585938 C -22.533789 26.547266 -21.63789 26.508595 -20.714844 26.468748 C -19.777695 26.437815 -18.840548 26.406876 -17.875 26.374998 C -16.457676 26.316992 -16.457676 26.316992 -15.011719 26.257813 C -12.674677 26.163387 -10.337645 26.077816 -8 26 C -8.454394 25.566553 -8.908789 25.133108 -9.376953 24.686523 C -11.428377 22.718204 -13.46419 20.734457 -15.5 18.75 C -16.21543 18.068087 -16.930859 17.386171 -17.667969 16.683594 C -18.344727 16.019726 -19.021484 15.355859 -19.71875 14.671875 C -20.347168 14.0644045 -20.975586 13.456934 -21.623047 12.831054 C -23 11 -23 11 -23 7 C -20.057539 6.733513 -18.509636 6.6391277 -16.05542 8.376953 C -15.453187 9.005371 -14.850952 9.633789 -14.230469 10.28125 C -13.569824 10.958009 -12.90918 11.634766 -12.228516 12.33203 C -11.55498 13.0474615 -10.881445 13.76289 -10.1875 14.5 C -9.494629 15.215429 -8.801758 15.93086 -8.087891 16.667969 C -6.380143 18.434605 -4.685133 20.211824 -3 22 C -2.9801807 21.404613 -2.9603612 20.809229 -2.9399414 20.1958 C -2.8448386 17.50508 -2.7351015 14.815148 -2.625 12.125 C -2.5940626 11.187852 -2.563125 10.250703 -2.53125 9.285156 C -2.492578 8.389257 -2.4539063 7.4933596 -2.4140625 6.5703125 C -2.3826416 5.742895 -2.3512206 4.9154787 -2.3188477 4.0629883 C -2 2 -2 2 0 0 Z"/>
    </g>
</svg>
