<svg width="256" height="256" xmlns="http://www.w3.org/2000/svg">
    <path fill="#ffd12e" stroke="none" d="M 128 0 L 128 0 C 198.69243 0 256 57.307552 256 128 L 256 128 C 256 198.69243 198.69243 256 128 256 L 128 256 C 57.307552 256 0 198.69243 0 128 L 0 128 C 0 57.307552 57.307552 0 128 0 Z"/>
    <path fill="#000000" stroke="none" d="M 41.0469 185.334 L 120.368 185.334 L 120.368 197.052 L 41.0469 197.052 L 41.0469 185.334 Z"/>
    <path fill="#000000" stroke="none" d="M 49.3271 148.903 L 169.721 148.903 L 169.721 160.621 L 49.3271 160.621 L 49.3271 148.903 Z"/>
    <path fill="#000000" stroke="none" d="M 57.626 112.472 L 164.26 112.472 L 164.26 124.19 L 57.626 124.19 L 57.626 112.472 Z"/>
    <path fill="#000000" stroke="none" d="M 66.0719 76.0413 L 158.159 76.0413 L 158.159 87.758606 L 66.0719 87.758606 L 66.0719 76.0413 Z"/>
    <path fill="#000000" stroke="none" d="M 97.0481 167.119 L 190.043 167.119 L 190.043 178.837 L 97.0481 178.837 L 97.0481 167.119 Z"/>
    <path fill="#000000" stroke="none" d="M 91.8092 130.688 L 198.37599 130.688 L 198.37599 142.406 L 91.8092 142.406 L 91.8092 130.688 Z"/>
    <path fill="#000000" stroke="none" d="M 86.3204 94.25731 L 206.661 94.25731 L 206.661 105.975 L 86.3204 105.975 L 86.3204 94.25731 Z"/>
    <path fill="#000000" stroke="none" d="M 135.639 58.9453 L 214.96 58.9453 L 214.96 70.6626 L 135.639 70.6626 L 135.639 58.9453 Z"/>
</svg>
