<svg width="256" height="256" xmlns="http://www.w3.org/2000/svg">
    <defs>
        <linearGradient id="linearGradient-1" x1="0.76056534" y1="0.06712149" x2="0.14713567" y2="1.289895" gradientUnits="userSpaceOnUse" gradientTransform="matrix(256 0 0 256 0 0)">
            <stop offset="0" stop-color="#a7a469"/>
            <stop offset="1" stop-color="#727043"/>
        </linearGradient>
    </defs>
    <g id="页面-1">
        <g id="DF---Token---3" transform="matrix(1 0 0 1 -3548 -681)">
            <g id="LPF" transform="matrix(1 0 0 1 3548 681)">
                <path id="椭圆形" fill="url(#linearGradient-1)" stroke="none" d="M 256 128 C 256 198.69243 198.69243 256 128 256 C 57.307552 256 0 198.69243 0 128 C 0 57.307552 57.307552 0 128 0 C 198.69243 0 256 57.307552 256 128 Z"/>
                <path id="替换内容区域---logo" fill="#ffffff" stroke="none" d="M 82.86443 70 L 82.86443 155.45822 L 151.39378 155.45822 L 151.39378 135.95612 L 140.14459 135.95612 C 144.36913 127.853 152.867 122.30464 162.63321 122.30464 C 176.62398 122.30464 188 133.67438 188 147.65738 C 188 161.63065 176.62398 173.01013 162.63321 173.01013 C 156.75787 173.01013 151.25328 171.01797 146.85995 167.52321 L 122.38881 167.52321 C 130.01933 182.93864 145.44331 192.51222 162.63321 192.51222 C 163.64789 192.51222 164.64305 192.48395 165.6382 192.41472 C 154.86708 198.51886 142.40808 202 129.14906 202 C 88.20122 202 55 168.81717 55 127.892 C 55 104.47095 65.87845 83.57346 82.86443 70 Z M 128.79272 54 C 169.77272 54 203 87.11333 203 127.952774 L 202.99025 128.73122 C 195.82336 113.49306 180.28868 102.91586 162.30318 102.91586 C 141.59349 102.91586 124.10596 116.95716 118.94074 136 L 102 136 L 102 58.97235 C 110.30925 55.761246 119.341064 54 128.79272 54 Z"/>
            </g>
        </g>
    </g>
</svg>
