<svg width="128" height="128" xmlns="http://www.w3.org/2000/svg">
    <defs>
        <linearGradient id="linear-gradient" x1="33.55" y1="46.8" x2="84.98" y2="46.8" gradientUnits="userSpaceOnUse">
            <stop offset="0" stop-color="#2c65c5"/>
            <stop offset="0.1" stop-color="#3673cb"/>
            <stop offset="0.52" stop-color="#60ade6"/>
            <stop offset="0.83" stop-color="#7bd2f6"/>
            <stop offset="1" stop-color="#85e0fd"/>
        </linearGradient>
        <linearGradient id="linear-gradient-2" x1="33.55" y1="81.39" x2="84.98" y2="81.39" gradientUnits="userSpaceOnUse">
            <stop offset="0" stop-color="#2c65c5"/>
            <stop offset="0.1" stop-color="#3673cb"/>
            <stop offset="0.52" stop-color="#60ade6"/>
            <stop offset="0.83" stop-color="#7bd2f6"/>
            <stop offset="1" stop-color="#85e0fd"/>
        </linearGradient>
        <linearGradient id="linear-gradient-3" x1="33.55" y1="64.1" x2="84.98" y2="64.1" gradientUnits="userSpaceOnUse">
            <stop offset="0" stop-color="#2c65c5"/>
            <stop offset="0.1" stop-color="#3673cb"/>
            <stop offset="0.52" stop-color="#60ade6"/>
            <stop offset="0.83" stop-color="#7bd2f6"/>
            <stop offset="1" stop-color="#85e0fd"/>
        </linearGradient>
        <linearGradient id="linear-gradient-4" x1="33.55" y1="64.1" x2="84.98" y2="64.1" gradientUnits="userSpaceOnUse">
            <stop offset="0" stop-color="#2c65c5"/>
            <stop offset="0.1" stop-color="#3673cb"/>
            <stop offset="0.52" stop-color="#60ade6"/>
            <stop offset="0.83" stop-color="#7bd2f6"/>
            <stop offset="1" stop-color="#85e0fd"/>
        </linearGradient>
        <linearGradient id="linear-gradient-5" x1="33.55" y1="46.8" x2="84.98" y2="46.8" gradientUnits="userSpaceOnUse">
            <stop offset="0" stop-color="#2c65c5"/>
            <stop offset="0.1" stop-color="#3673cb"/>
            <stop offset="0.52" stop-color="#60ade6"/>
            <stop offset="0.83" stop-color="#7bd2f6"/>
            <stop offset="1" stop-color="#85e0fd"/>
        </linearGradient>
        <linearGradient id="linear-gradient-6" x1="33.55" y1="81.39" x2="84.98" y2="81.39" gradientUnits="userSpaceOnUse">
            <stop offset="0" stop-color="#2c65c5"/>
            <stop offset="0.1" stop-color="#3673cb"/>
            <stop offset="0.52" stop-color="#60ade6"/>
            <stop offset="0.83" stop-color="#7bd2f6"/>
            <stop offset="1" stop-color="#85e0fd"/>
        </linearGradient>
        <linearGradient id="linear-gradient-7" x1="33.55" y1="64.1" x2="84.98" y2="64.1" gradientUnits="userSpaceOnUse">
            <stop offset="0" stop-color="#2c65c5"/>
            <stop offset="0.1" stop-color="#3673cb"/>
            <stop offset="0.52" stop-color="#60ade6"/>
            <stop offset="0.83" stop-color="#7bd2f6"/>
            <stop offset="1" stop-color="#85e0fd"/>
        </linearGradient>
    </defs>
    <path fill="#000000" stroke="none" d="M 64 1.36 C 29.4 1.36 1.36 29.4 1.36 64 C 1.36 98.6 29.41 126.63999 64 126.63999 C 98.59 126.63999 126.63999 98.59 126.63999 64 C 126.63999 29.41 98.6 1.36 64 1.36 Z"/>
    <path fill="#2c65c5" stroke="none" d="M 64 0 C 28.65 0 0 28.65 0 64 C 0 99.35 28.65 128 64 128 C 99.35 128 128 99.35 128 64 C 128 28.65 99.35 0 64 0 Z M 64 123.7 C 31.03 123.7 4.3 96.97 4.3 64 C 4.3 31.03 31.03 4.3 64 4.3 C 96.97 4.3 123.7 31.03 123.7 64 C 123.7 96.97 96.97 123.7 64 123.7 Z"/>
    <path fill="#2c65c5" stroke="none" d="M 64 7.7 C 32.91 7.7 7.7 32.9 7.7 64 C 7.7 95.1 32.9 120.3 64 120.3 C 95.1 120.3 120.3 95.1 120.3 64 C 120.3 32.9 95.08999 7.7 64 7.7 Z M 64 116.79001 C 34.84 116.79001 11.210001 93.16001 11.210001 64 C 11.210001 34.84 34.84 11.210001 64 11.210001 C 93.16001 11.210001 116.79001 34.84 116.79001 64 C 116.79001 93.16001 93.16001 116.79001 64 116.79001 Z"/>
    <path fill="url(#linear-gradient)" stroke="none" d="M 86.22 46.8 C 86.22 49.0478 84.3978 50.87 82.15 50.87 C 79.90221 50.87 78.08 49.0478 78.08 46.8 C 78.08 44.552204 79.90221 42.73 82.15 42.73 C 84.3978 42.73 86.22 44.552204 86.22 46.8 Z"/>
    <path fill="url(#linear-gradient-2)" stroke="none" d="M 86.22 81.39 C 86.22 83.637794 84.3978 85.46 82.15 85.46 C 79.90221 85.46 78.08 83.637794 78.08 81.39 C 78.08 79.142204 79.90221 77.32 82.15 77.32 C 84.3978 77.32 86.22 79.142204 86.22 81.39 Z"/>
    <path fill="url(#linear-gradient-3)" stroke="none" d="M 50.300003 35.28 C 50.300003 32.97 48.369995 31.11 46.04 31.22 C 44.02 31.310001 42.34 32.94 42.18 34.96 C 42.03 36.93 43.29 38.64 45.060005 39.17 C 45.419994 39.28 45.670002 39.62 45.670002 40 L 45.670002 42.09 C 45.670002 42.48 45.419994 42.81 45.05 42.92 C 43.379997 43.43 42.17 44.97 42.17 46.8 C 42.17 48.63 43.379997 50.18 45.05 50.680004 C 45.419994 50.79 45.670002 51.13 45.670002 51.510002 L 45.670002 53.6 C 45.670002 53.99 45.419994 54.32 45.05 54.429996 C 43.379997 54.939995 42.17 56.48 42.17 58.31 C 42.17 60.14 43.379997 61.69 45.05 62.19 C 45.419994 62.300003 45.670002 62.64 45.670002 63.02 L 45.670002 65.11 C 45.670002 65.5 45.419994 65.83 45.05 65.94 C 43.379997 66.45 42.17 67.99 42.17 69.82 C 42.17 71.65 43.379997 73.2 45.05 73.7 C 45.419994 73.81 45.670002 74.15 45.670002 74.53 L 45.670002 76.62 C 45.670002 77.01 45.419994 77.34 45.05 77.45 C 43.379997 77.96 42.17 79.5 42.17 81.33 C 42.17 83.16 43.379997 84.71 45.05 85.21 C 45.419994 85.32 45.670002 85.66 45.670002 86.04 L 45.670002 88.13 C 45.670002 88.51 45.419994 88.85 45.060005 88.96 C 43.29 89.490005 42.03 91.19 42.18 93.17 C 42.33 95.19 44.02 96.82 46.04 96.91001 C 48.369995 97.02 50.300003 95.16 50.300003 92.85 C 50.300003 91.020004 49.09 89.47 47.419994 88.97 C 47.05 88.85999 46.8 88.52 46.8 88.14 L 46.8 86.05001 C 46.8 85.66 47.05 85.33 47.419994 85.22 C 49.09 84.71 50.300003 83.17 50.300003 81.34 C 50.300003 79.51 49.09 77.96 47.419994 77.46 C 47.05 77.35 46.8 77.01 46.8 76.63 L 46.8 74.54 C 46.8 74.15 47.05 73.82 47.419994 73.71 C 49.09 73.2 50.300003 71.66 50.300003 69.83 C 50.300003 68 49.09 66.45 47.419994 65.95 C 47.05 65.84 46.8 65.5 46.8 65.12 L 46.8 63.03 C 46.8 62.64 47.05 62.31 47.419994 62.2 C 49.09 61.69 50.300003 60.15 50.300003 58.32 C 50.300003 56.489998 49.09 54.939995 47.419994 54.44 C 47.05 54.329998 46.8 53.99 46.8 53.61 L 46.8 51.52 C 46.8 51.13 47.05 50.8 47.419994 50.69 C 49.09 50.18 50.300003 48.64 50.300003 46.809998 C 50.300003 44.98 49.09 43.43 47.419994 42.93 C 47.05 42.82 46.8 42.48 46.8 42.1 L 46.8 40.01 C 46.8 39.62 47.05 39.29 47.419994 39.18 C 49.09 38.67 50.300003 37.13 50.300003 35.3 Z"/>
    <path fill="url(#linear-gradient-4)" stroke="none" d="M 68.26 35.28 C 68.26 32.97 66.33 31.11 64 31.22 C 61.98 31.310001 60.300003 32.94 60.14 34.96 C 59.99 36.93 61.250004 38.64 63.02 39.17 C 63.379997 39.28 63.630005 39.62 63.630005 40 L 63.630005 42.09 C 63.630005 42.48 63.379997 42.81 63.01 42.92 C 61.34 43.43 60.13 44.97 60.13 46.8 C 60.13 48.63 61.34 50.18 63.01 50.680004 C 63.379997 50.79 63.630005 51.13 63.630005 51.510002 L 63.630005 53.6 C 63.630005 53.99 63.379997 54.32 63.01 54.429996 C 61.34 54.939995 60.13 56.48 60.13 58.31 C 60.13 60.14 61.34 61.69 63.01 62.19 C 63.379997 62.300003 63.630005 62.64 63.630005 63.02 L 63.630005 65.11 C 63.630005 65.5 63.379997 65.83 63.01 65.94 C 61.34 66.45 60.13 67.99 60.13 69.82 C 60.13 71.65 61.34 73.2 63.01 73.7 C 63.379997 73.81 63.630005 74.15 63.630005 74.53 L 63.630005 76.62 C 63.630005 77.01 63.379997 77.34 63.01 77.45 C 61.34 77.96 60.13 79.5 60.13 81.33 C 60.13 83.16 61.34 84.71 63.01 85.21 C 63.379997 85.32 63.630005 85.66 63.630005 86.04 L 63.630005 88.13 C 63.630005 88.51 63.379997 88.85 63.02 88.96 C 60.520004 89.71 59.03 92.81 61.13 95.71001 C 61.190002 95.79 61.250004 95.86 61.33 95.91 C 64.65 98.33 68.26 96.01 68.26 92.85 C 68.26 91.020004 67.05 89.47 65.38 88.97 C 65.01 88.85999 64.76 88.52 64.76 88.14 L 64.76 86.05001 C 64.76 85.66 65.01 85.33 65.38 85.22 C 67.05 84.71 68.26 83.17 68.26 81.34 C 68.26 79.51 67.05 77.96 65.38 77.46 C 65.01 77.35 64.76 77.01 64.76 76.63 L 64.76 74.54 C 64.76 74.15 65.01 73.82 65.38 73.71 C 67.05 73.2 68.26 71.66 68.26 69.83 C 68.26 68 67.05 66.45 65.38 65.95 C 65.01 65.84 64.76 65.5 64.76 65.12 L 64.76 63.03 C 64.76 62.64 65.01 62.31 65.38 62.2 C 67.05 61.69 68.26 60.15 68.26 58.32 C 68.26 56.489998 67.05 54.939995 65.38 54.44 C 65.01 54.329998 64.76 53.99 64.76 53.61 L 64.76 51.52 C 64.76 51.13 65.01 50.8 65.38 50.69 C 67.05 50.18 68.26 48.64 68.26 46.809998 C 68.26 44.98 67.05 43.43 65.38 42.93 C 65.01 42.82 64.76 42.48 64.76 42.1 L 64.76 40.01 C 64.76 39.62 65.01 39.29 65.38 39.18 C 67.05 38.67 68.26 37.13 68.26 35.3 Z"/>
    <path fill="url(#linear-gradient-5)" stroke="none" d="M 73.73 47.85 L 73.73 45.76 C 73.73 45.379997 73.98 45.04 74.34 44.93 C 76.11 44.4 77.37 42.7 77.22 40.72 C 77.07 38.74 75.38 37.07 73.36 36.98 C 71.03 36.87 69.1 38.73 69.1 41.04 C 69.1 42.87 70.31 44.42 71.98 44.92 C 72.35 45.03 72.6 45.37 72.6 45.75 L 72.6 47.84 C 72.6 48.22 72.35 48.56 71.99 48.67 C 69.49 49.419994 68 52.520004 70.1 55.419994 C 70.16 55.5 70.22 55.570004 70.3 55.62 C 73.62 58.04 77.23 55.72 77.23 52.56 C 77.23 50.73 76.02 49.18 74.35 48.680004 C 73.98 48.57 73.73 48.23 73.73 47.85 Z"/>
    <path fill="url(#linear-gradient-6)" stroke="none" d="M 77.23 75.63 C 77.23 73.32 75.3 71.46 72.97 71.57 C 70.95 71.66 69.27 73.29 69.11 75.31 C 68.96 77.28 70.22 78.99 71.99 79.52 C 72.35 79.63 72.6 79.97 72.6 80.35 L 72.6 82.44 C 72.6 82.82 72.35 83.16 71.99 83.27 C 70.22 83.8 68.96 85.5 69.11 87.48 C 69.26 89.46 70.95 91.13 72.97 91.22 C 75.3 91.329994 77.23 89.47 77.23 87.16 C 77.23 85.33 76.02 83.78 74.35 83.28 C 73.98 83.17 73.73 82.83 73.73 82.45 L 73.73 80.36 C 73.73 79.97 73.98 79.64 74.35 79.53 C 76.02 79.02 77.23 77.48 77.23 75.65 Z"/>
    <path fill="url(#linear-gradient-7)" stroke="none" d="M 59.28 29.51 C 59.28 27.2 57.350002 25.340002 55.02 25.450003 C 53 25.54 51.319996 27.17 51.159996 29.19 C 51.01 31.16 52.269997 32.87 54.04 33.4 C 54.4 33.51 54.649998 33.85 54.649998 34.23 L 54.649998 36.32 C 54.649998 36.71 54.4 37.04 54.03 37.15 C 52.360004 37.66 51.15 39.2 51.15 41.03 C 51.15 42.86 52.360004 44.41 54.03 44.91 C 54.4 45.02 54.649998 45.36 54.649998 45.74 L 54.649998 47.83 C 54.649998 48.22 54.4 48.55 54.03 48.66 C 52.360004 49.17 51.15 50.71 51.15 52.54 C 51.15 54.369995 52.360004 55.92 54.03 56.42 C 54.4 56.529995 54.649998 56.87 54.649998 57.250004 L 54.649998 59.34 C 54.649998 59.730003 54.4 60.06 54.03 60.17 C 52.360004 60.680004 51.15 62.22 51.15 64.05 C 51.15 65.88 52.360004 67.43 54.03 67.93 C 54.4 68.04 54.649998 68.38 54.649998 68.76 L 54.649998 70.85 C 54.649998 71.24 54.4 71.57 54.03 71.68 C 52.360004 72.19 51.15 73.73 51.15 75.56 C 51.15 77.39 52.360004 78.94 54.03 79.44 C 54.4 79.55 54.649998 79.89 54.649998 80.27 L 54.649998 82.36 C 54.649998 82.75 54.4 83.08 54.03 83.19 C 52.360004 83.7 51.15 85.24 51.15 87.07 C 51.15 88.9 52.360004 90.450005 54.03 90.95 C 54.4 91.06 54.649998 91.399994 54.649998 91.78001 L 54.649998 93.869995 C 54.649998 94.25001 54.4 94.59 54.04 94.700005 C 52.269997 95.23 51.01 96.93 51.159996 98.91 C 51.31 100.93 53 102.56 55.02 102.65 C 57.350002 102.759995 59.28 100.9 59.28 98.59 C 59.28 96.76 58.07 95.20999 56.4 94.71 C 56.03 94.6 55.78 94.26 55.78 93.87999 L 55.78 91.79 C 55.78 91.399994 56.03 91.07 56.4 90.95999 C 58.07 90.450005 59.28 88.91001 59.28 87.079994 C 59.28 85.25 58.07 83.7 56.4 83.2 C 56.03 83.09 55.78 82.75 55.78 82.37 L 55.78 80.28 C 55.78 79.89 56.03 79.56 56.4 79.45 C 58.07 78.94 59.28 77.4 59.28 75.57 C 59.28 73.74 58.07 72.19 56.4 71.69 C 56.03 71.58 55.78 71.24 55.78 70.86 L 55.78 68.77 C 55.78 68.38 56.03 68.05 56.4 67.94 C 58.07 67.43 59.28 65.89 59.28 64.06 C 59.28 62.23 58.07 60.680004 56.4 60.18 C 56.03 60.07 55.78 59.730003 55.78 59.350002 L 55.78 57.259995 C 55.78 56.87 56.03 56.54 56.4 56.429996 C 58.07 55.92 59.28 54.38 59.28 52.55 C 59.28 50.72 58.07 49.17 56.4 48.67 C 56.03 48.56 55.78 48.22 55.78 47.84 L 55.78 45.75 C 55.78 45.36 56.03 45.03 56.4 44.92 C 58.07 44.41 59.28 42.87 59.28 41.04 C 59.28 39.21 58.07 37.66 56.4 37.16 C 56.03 37.05 55.78 36.71 55.78 36.33 L 55.78 34.24 C 55.78 33.85 56.03 33.52 56.4 33.41 C 58.07 32.9 59.28 31.36 59.28 29.530003 Z"/>
</svg>
