<svg width="200" height="200" xmlns="http://www.w3.org/2000/svg">
    <defs>
        <clipPath id="clippath">
            <path fill="#000000" stroke="none" d="M 1.46 7 L 198.54001 7 L 198.54001 182.17998 L 1.46 182.17998 Z"/>
        </clipPath>
    </defs>
    <g clip-path="url(#clippath)">
        <g>
            <path fill="#000000" stroke="none" d="M 67.65 112.920006 C 68.18 114.439995 68.74 115.96 69.33 117.46 C 69.7 118.4 70.07 119.329994 70.46 120.23 C 70.71 120.78 70.95 121.34 71.22 121.91 C 71.55 122.63 71.87 123.37 72.22 124.08 C 73.59 126.97 75.1 129.78 76.76 132.49 C 77.54 133.8 78.36 135.09 79.19 136.37 C 79.66 137.09 80.13 137.81 80.64 138.5 C 81.03 139.05 81.44 139.63 81.85 140.18 C 82.1 140.55 82.38 140.92 82.65 141.27 C 83 141.74 83.37 142.21 83.74 142.69 C 84.19 143.29 84.66 143.88 85.13 144.45 C 85.15 144.45 85.17 144.43 85.19 144.41 C 90.04 140.68 94.50001 136.35 98.47 131.54 C 98.57001 131.42 98.65 131.31 98.74 131.19 C 98.700005 131.17 97.57 129.69 97.05999 128.95 C 96.81 128.64 96.59 128.33 96.39 128.03 C 95.98 127.48 95.590004 126.92 95.24 126.35 C 94.91 125.87999 94.61 125.42999 94.31999 124.95 C 94.01 124.52 93.74999 124.07 93.48001 123.62 C 92.98999 122.83999 92.52 122.06 92.07 121.26 C 91.99 121.16001 91.93 121.03 91.89 120.93 C 91.38 120.05 90.89001 119.14001 90.439995 118.22 C 90.3 118.04 90.189995 117.83 90.11 117.619995 C 89.74 116.920006 89.42 116.24 89.09 115.52999 C 87.88 113.03 86.82001 110.46 85.88 107.81 C 83.77 101.92 82.32 95.74 81.58 89.34 C 81.21 86.16 81.03 82.94 81.03 79.68 C 81.03 78.47 81.05 77.26 81.11 76.05 C 81.15 74.96 81.21 73.88 81.32 72.79 C 81.34 72.54 81.36 72.32 81.38 72.07 C 81.44 71.37 81.5 70.69 81.61 70 C 81.65 69.51 81.71 69.01 81.77 68.52 C 81.95 67.14 82.18 65.77 82.44 64.42 C 82.56 63.68 82.71 62.96 82.87 62.25 C 82.89 62.02 82.95 61.78 83.01 61.55 C 83.17 60.749996 83.36 59.97 83.56 59.190002 C 83.64 58.840004 83.72 58.51 83.81 58.2 C 84.02 57.419994 84.22 56.66 84.46 55.92 C 85.09 53.730003 85.81 51.59 86.63 49.479996 C 86.92 48.740005 87.22 48 87.52999 47.29 C 87.55 47.23 87.57 47.15 87.61 47.08 C 87.90001 46.360004 88.21999 45.66 88.53 44.97 C 89.41 43.02 90.38999 41.09 91.43 39.23 C 91.61 38.88 91.82 38.53 92.02 38.18 C 92.12 37.95 92.25 37.75 92.37 37.54 C 92.409996 37.48 92.45 37.42 92.49 37.36 C 92.53 37.3 92.57 37.24 92.61 37.18 C 96.11 31.72 104.11 31.76 107.54 37.3 C 107.58001 37.32 107.58001 37.34 107.6 37.38 C 107.62 37.4 107.64 37.44 107.66 37.46 C 107.66 37.48 107.68 37.52 107.7 37.54 C 107.72 37.58 107.74 37.62 107.76 37.66 C 107.90001 37.89 108.03001 38.11 108.15001 38.34 C 108.28999 38.55 108.41999 38.79 108.53999 39.02 C 108.93 39.76 109.32 40.48 109.71 41.19 C 110.14 42.01 110.55 42.83 110.94001 43.670002 C 111.12 44.04 111.31 44.41 111.47 44.8 C 111.51 44.86 111.52999 44.939995 111.57 45.01 C 111.90001 45.730003 112.2 46.45 112.51 47.18 C 112.76 47.730003 112.979996 48.29 113.17999 48.86 C 113.41 49.37 113.61001 49.890003 113.79 50.42 C 114.08 51.14 114.34 51.88 114.59 52.63 C 114.83999 53.37 115.079994 54.109997 115.31 54.85 C 115.56 55.670002 115.8 56.489998 116.03001 57.31 C 116.24 58.049995 116.44 58.809998 116.62 59.55 C 116.64 59.630005 116.659996 59.71 116.68 59.8 C 116.8 60.31 116.93 60.83 117.03 61.34 C 117.15 61.85 117.26 62.35 117.36001 62.86 C 117.54 63.78 117.73 64.69 117.869995 65.61 C 118.03 66.58 118.18 67.54 118.31999 68.52 C 118.42 69.28 118.50001 70.06 118.59 70.82 C 118.67 71.58 118.75 72.36 118.8 73.12 C 118.83999 73.43 118.86 73.76 118.88 74.06 C 118.92 74.74 118.95999 75.44 118.98 76.13 C 119 76.56 119.020004 77.01 119.020004 77.44 C 119.04 77.81 119.04 78.18 119.04 78.55 C 119.06 78.94 119.06 79.31 119.06 79.68 C 119.06 80.52 119.04 81.34 119.020004 82.18 C 119 82.67 119 83.19 118.95999 83.7 C 118.94001 84.23 118.92 84.75 118.88 85.26 C 118.82001 86.08 118.759995 86.88 118.700005 87.66 C 118.759995 87.68 118.8 87.68 118.86 87.7 C 125.08 88.87 131.17 90.65 137.04 92.97 C 137.16 92.07 137.27 91.16 137.37 90.24 L 137.37 90.19999 C 137.43 89.810005 137.47 89.4 137.49 88.98999 C 137.57 88.19 137.63 87.39 137.67 86.57001 C 137.83 84.29 137.92 81.99 137.92 79.68 C 137.92 54.38 128.8 31.21 113.66 13.32 C 113.619995 13.26 113.58 13.22 113.54 13.18 C 113.51 13.15 113.49999 13.14 113.52 13.14 C 113.54 13.14 113.34 12.93 113.25 12.829999 L 113.07 12.65 C 106.09 5.1 94.01 5.1 87.03 12.65 L 86.85 12.829999 C 86.85 12.829999 86.67 13.04 86.58 13.14 C 86.51999 13.210001 86.51999 13.22 86.56 13.18 C 86.62 13.12 86.48 13.26 86.439995 13.32 L 84.84 15.23 C 84.45 15.74 84.06 16.24 83.67 16.73 C 83.22 17.33 82.77 17.9 82.34 18.49 C 79.23 22.659998 76.45 27.09 74.01 31.7 C 73.7 32.3 73.4 32.91 73.09 33.51 C 72.74 34.17 72.44 34.84 72.11 35.5 C 71.46 36.86 70.86 38.21 70.29 39.56 C 70 40.26 69.72 40.94 69.43 41.63 C 69.16 42.33 68.9 43.03 68.63 43.72 C 68.36 44.42 68.12 45.12 67.87 45.83 C 67.62 46.529995 67.38 47.250004 67.15 47.94 C 66.92 48.64 66.7 49.34 66.5 50.03 C 66.48 50.07 66.48 50.09 66.46 50.13 C 66.25 50.85 66.05 51.55 65.87 52.26 C 65.66 52.98 65.46 53.72 65.28 54.45 C 65.12 55.09 64.97 55.72 64.81 56.38 C 64.63 57.2 64.44 58.04 64.28 58.88 C 64.12 59.62 63.97 60.360004 63.85 61.12 C 63.71 61.88 63.58 62.620003 63.46 63.379997 C 63.190002 65 62.97 66.64 62.79 68.29 C 62.649998 69.71 62.5 71.14 62.42 72.6 C 62.26 74.94 62.17 77.28 62.17 79.66 C 62.17 84.63 62.520004 89.53 63.21 94.31 C 64.11 100.71 65.62 106.91 67.65 112.88 L 67.65 112.88 Z"/>
            <path fill="#000000" stroke="none" d="M 61.37 95.06 C 61.37 95.06 16.91 109.93001 1.84 159.13 C 1.84 159.13 -1.81 173.42 13.45 179.68 C 13.45 179.68 58.32 192.43999 98.89001 160.31 C 98.89001 160.31 120.56 145.06 131.44 115.51 C 131.44 115.51 119.63 110.75 113.44 110.05001 C 113.44 110.05001 107.340004 124.75 98.9 134.07 C 98.9 134.07 80.61 157.56 48.95 162.31 C 17.29 167.06 25.97 150.13 25.97 150.13 C 25.97 150.13 39.17 124.350006 65.86 113.67 C 65.86 113.67 61.76 101.299995 61.36 95.06 L 61.36 95.06 Z"/>
            <path fill="#000000" stroke="none" d="M 101.27 160.52 C 101.27 160.52 136.62 191.39 186.52 179.42 C 186.52 179.42 200.65 175.32 198.27002 158.95 C 198.27002 158.95 186.44 113.7 138.25 94.95 C 138.25 94.95 114.15 83.97 83.25 89.57 C 83.25 89.57 85.16 102.189995 87.7 107.90001 C 87.7 107.90001 103.42 105.71 115.71001 108.26 C 115.71001 108.26 145.17 112.14 165.33 137.09 C 185.49 162.03 166.54 163.13 166.54 163.13 C 166.54 163.13 137.7 164.82 114.97 147.18 C 114.97 147.18 106.42 157 101.27 160.52 L 101.27 160.52 Z"/>
        </g>
    </g>
</svg>
