<svg width="192" height="192" xmlns="http://www.w3.org/2000/svg">
    <defs>
        <linearGradient id="SVGID_1_" x1="1621.4948" y1="225.4892" x2="1621.4948" y2="-30.5108" gradientUnits="userSpaceOnUse" gradientTransform="matrix(0.75 0 0 -0.75 -853.2712 169.1148)">
            <stop offset="0" stop-color="#090220"/>
            <stop offset="1" stop-color="#170659"/>
        </linearGradient>
    </defs>
    <g transform="matrix(1 0 0 1 257.63 -97.669)">
        <g transform="matrix(0.26458 0 0 0.26458 -257.63 97.669)">
            <path fill="url(#SVGID_1_)" stroke="none" d="M 725.60004 362.80002 C 725.60004 563.1689 563.1689 725.60004 362.80002 725.60004 C 162.43109 725.60004 0 563.1689 0 362.80002 C -0 162.43109 162.43109 0 362.80002 0 C 563.1689 0 725.60004 162.43109 725.60004 362.80002 Z"/>
            <g>
                <path fill="#00d1ff" stroke="none" d="M 243.3 272.6 C 240.4 269 236 267 231.29999 267 L 134.4 267 C 133.6 267 132.9 266.7 132.3 266.2 C 131.8 265.7 131.5 265.1 131.5 264.4 L 131.5 199.1 C 131.5 198.4 131.8 197.8 132.3 197.3 C 132.9 196.7 133.6 196.39998 134.4 196.50002 L 236.8 196.50002 C 262.6 196.50002 284.9 207.1 303.7 228.2 L 328.6 258.6 L 280.1 317.7 L 243.3 272.6 Z M 422.3 227.89998 C 441 207 463.39996 196.50002 489.50003 196.50002 L 591.6 196.50002 C 592.3 196.39998 593 196.7 593.5 197.1 C 594 197.6 594.2 198.3 594.1 199.1 L 594.1 264.4 C 594.1 265.1 593.9 265.7 593.5 266.2 C 593 266.8 592.3 267.1 591.6 267 L 494.7 267 C 490.1 266.9 485.69998 269 482.7 272.6 L 411.30002 359.49997 L 483 447 C 485.9 450.3 490.2 452.3 494.59998 452.2 L 591.5 452.2 C 592.2 452.1 593 452.5 593.4 453 C 593.8 453.6 594.1 454.4 594 455.1 L 594 520.4 C 594 521.1 593.8 521.7 593.4 522.2 C 592.9 522.8 592.2 523.1 591.5 523 L 489.50003 523 C 463.39996 523 441.2 512.4 422.6 491.30002 L 363.2 418.8 L 303.8 491.30002 C 285.1 512.4 262.7 523 236.6 523 L 134.4 523 C 133.7 523.1 132.9 522.7 132.5 522.2 C 132 521.6 131.8 520.8 131.9 520.1 L 131.9 454.8 C 131.9 454.1 132.1 453.5 132.5 453 C 133 452.4 133.7 452.1 134.4 452.2 L 231.29999 452.2 C 235.89998 452.2 240.30002 450.1 243.3 446.59998 L 313.4 361 L 422.3 227.89998 Z"/>
            </g>
        </g>
    </g>
</svg>
