<svg width="283.46" height="283.46" xmlns="http://www.w3.org/2000/svg">
    <g>
        <g>
            <path fill="#ffffff" stroke="none" d="M 141.73 283.46 C 122.6 283.46 104.04 279.71 86.56 272.32 C 69.68 265.18 54.529995 254.96 41.51 241.95 C 28.499998 228.94 18.28 213.78001 11.14 196.90001 C 3.75 179.42 0 160.86 0 141.73 C 0 122.6 3.75 104.04 11.14 86.56 C 18.28 69.68 28.499998 54.529995 41.51 41.51 C 54.529995 28.499998 69.68 18.28 86.56 11.14 C 104.04 3.75 122.6 0 141.73 0 C 160.86 0 179.42 3.75 196.90001 11.14 C 213.78001 18.28 228.93 28.499998 241.95 41.51 C 254.96 54.520004 265.18 69.68 272.32 86.56 C 279.71 104.04 283.46 122.6 283.46 141.73 C 283.46 160.86 279.71 179.42 272.32 196.90001 C 265.18 213.78001 254.96 228.93 241.95 241.95 C 228.94 254.96 213.78001 265.18 196.90001 272.32 C 179.42 279.72 160.86 283.46 141.73 283.46 Z"/>
        </g>
        <g>
            <path fill="#000000" stroke="none" d="M 275.95 141.73 C 275.95 215.85767 215.85767 275.95 141.73 275.95 C 67.60233 275.95 7.509986 215.85767 7.509994 141.73 C 7.509994 67.60233 67.60233 7.509994 141.73 7.509994 C 215.85767 7.509986 275.95 67.60233 275.95 141.73 Z"/>
        </g>
        <g>
            <g>
                <path fill="#ffffff" stroke="none" d="M 145.03 88.34 C 162.96 89.94 177.06999 104.79001 177.51 123.03 L 205.01999 134.46 L 190.68001 111.079994 L 221.17 80.59 L 202.95 62.369995 L 176.82999 88.5 L 145.04 36.66 L 145.04 88.34 Z"/>
                <path fill="#ffffff" stroke="none" d="M 177.04 129.82 C 174.4 145.7 161.28 158.03 145.03 159.49 L 145.03 178.36998 L 205.57 141.68 L 177.04 129.82 Z"/>
                <path fill="#ffffff" stroke="none" d="M 106.58 129.82 L 78.05 141.67 L 138.59 178.35999 L 138.59 159.48 C 122.34 158.03 109.22 145.7 106.58 129.82 Z"/>
                <path fill="#ffffff" stroke="none" d="M 204.89001 160.92 L 145.03 197.2 L 145.03 245.25 L 169.66 210.54 L 195.37001 236.25002 L 213.59 218.03 L 184.79 189.23 Z"/>
                <path fill="#ffffff" stroke="none" d="M 138.59 197.2 L 78.73 160.92 L 98.83 189.23 L 70.03 218.03 L 88.25 236.25002 L 113.96 210.55 L 138.59 245.24 Z"/>
                <path fill="#ffffff" stroke="none" d="M 78.6 134.47 L 106.11 123.04 C 106.55 104.8 120.659996 89.94999 138.59 88.350006 L 138.59 36.66 L 106.8 88.5 L 80.67 62.369995 L 62.45 80.6 L 92.94 111.08999 L 78.6 134.47 Z"/>
            </g>
            <path fill="#ffffff" stroke="none" d="M 143.07 119.81 L 143.07 119.81 C 134.24 117.1 134.24 115.6 134.24 114.38999 C 134.24 112.71 136.78 110.38999 141.55 110.38999 C 144.37 110.38999 149.11 111.08999 149.11 115.81 L 157.7 115.81 C 157.7 107.43 151.21 101.80001 141.55 101.80001 C 131.22 101.80001 125.65 108.28999 125.65 114.38999 C 125.65 122.73 132.97 125.69 140.49 128.01 L 140.49 128.01 C 149.32 130.72 149.37 132.24 149.37 133.45 C 149.37 135.13 146.83 137.45 142.06 137.45 C 139.23 137.45 134.5 136.75 134.5 132.03 L 125.91 132.03 C 125.91 140.41 132.4 146.04 142.06 146.04 C 152.39 146.04 157.96 139.55 157.96 133.45 C 157.97 125.1 150.6 122.12001 143.07 119.81 Z"/>
        </g>
    </g>
</svg>
