<svg width="109.26" height="109.26" xmlns="http://www.w3.org/2000/svg">
    <g id="Layer_2">
        <g id="Layer_1-2">
            <g id="Page-1">
                <g id="wbtc_colour">
                    <path id="Shape" fill="#5a5564" stroke="none" d="M 89.09 22.93 L 86.09 25.93 C 100.927666 42.156044 100.927666 67.02396 86.09 83.25 L 89.09 86.25001 C 105.59783 68.344185 105.59783 40.765812 89.09 22.86 Z"/>
                    <path id="Shape-2" fill="#5a5564" stroke="none" d="M 26 23.19 C 42.226044 8.352333 67.093956 8.352333 83.32 23.19 L 86.31999 20.19 C 68.414185 3.682173 40.83581 3.682173 22.93 20.19 Z"/>
                    <path id="Shape-3" fill="#5a5564" stroke="none" d="M 23.19 83.28 C 8.370613 67.058365 8.370613 42.21163 23.19 25.99 L 20.19 22.99 C 3.682173 40.895813 3.682173 68.47419 20.19 86.380005 Z"/>
                    <path id="Shape-4" fill="#5a5564" stroke="none" d="M 83.28 86.05001 C 67.053955 100.887665 42.186043 100.887665 25.96 86.05001 L 22.96 89.05 C 40.865814 105.55782 68.44419 105.55782 86.35 89.05 Z"/>
                    <path id="Shape-5" fill="#f09242" stroke="none" d="M 73.57 44.620003 C 72.97 38.36 67.57 36.26 60.740005 35.62 L 60.740005 27 L 55.46 27 L 55.46 35.46 C 54.07 35.46 52.649998 35.46 51.24 35.46 L 51.24 27 L 46 27 L 46 35.68 L 35.29 35.68 L 35.29 41.33 C 35.29 41.33 39.19 41.26 39.13 41.33 C 40.59161 41.16921 41.917984 42.194935 42.13 43.65 L 42.13 67.41 C 42.099648 67.90879 41.8688 68.374084 41.49 68.7 C 41.11825 69.03218 40.627068 69.19832 40.13 69.16 C 40.2 69.22 36.29 69.16 36.29 69.16 L 35.29 75.47 L 45.9 75.47 L 45.9 84.29 L 51.18 84.29 L 51.18 75.6 L 55.4 75.6 L 55.4 84.25 L 60.69 84.25 L 60.69 75.53 C 69.61 74.99 75.83 72.79 76.61 64.44 C 77.24 57.72 74.08 54.72 69.03 53.510002 C 72.1 52 74 49.2 73.57 44.620003 Z M 66.17 63.4 C 66.17 69.96 54.93 69.21 51.350002 69.21 L 51.350002 57.570004 C 54.93 57.58 66.17 56.55 66.17 63.4 Z M 63.72 47 C 63.72 53 54.34 52.269997 51.36 52.269997 L 51.36 41.69 C 54.34 41.69 63.72 40.75 63.72 47 Z"/>
                    <path id="Shape-6" fill="#282138" stroke="none" d="M 54.620003 109.26 C 24.451286 109.25448 -0.00183994 84.79538 0.00000102 54.626667 C 0.00184198 24.457952 24.457952 0.00184198 54.626667 0.00000102 C 84.79538 -0.00183994 109.25448 24.451286 109.26 54.620003 C 109.26266 69.11224 103.5068 83.01168 93.25925 93.25925 C 83.01168 103.5068 69.11224 109.26266 54.620003 109.26 Z M 54.620003 4.26 C 26.825808 4.2820873 4.3089666 26.82578 4.320008 54.61998 C 4.331049 82.414185 26.865791 104.93998 54.659992 104.939995 C 82.45419 104.939995 104.988945 82.4142 105 54.620003 C 105.00531 41.258602 99.6985 28.443224 90.248695 18.997162 C 80.79888 9.551104 67.98139 4.249382 54.620003 4.26 Z"/>
                </g>
            </g>
        </g>
    </g>
</svg>
