<svg width="283.46" height="283.46" xmlns="http://www.w3.org/2000/svg">
    <g>
        <g>
            <path fill="#ffffff" stroke="none" d="M 141.73 283.46 C 122.6 283.46 104.04 279.71 86.56 272.32 C 69.68 265.18 54.529995 254.96 41.51 241.95 C 28.499998 228.94 18.28 213.78001 11.14 196.90001 C 3.75 179.42 0 160.86 0 141.73 C 0 122.6 3.75 104.04 11.14 86.56 C 18.28 69.68 28.499998 54.529995 41.51 41.51 C 54.529995 28.499998 69.68 18.28 86.56 11.14 C 104.04 3.75 122.6 0 141.73 0 C 160.86 0 179.42 3.75 196.90001 11.14 C 213.78001 18.28 228.93 28.499998 241.95 41.51 C 254.96 54.520004 265.18 69.68 272.32 86.56 C 279.71 104.04 283.46 122.6 283.46 141.73 C 283.46 160.86 279.71 179.42 272.32 196.90001 C 265.18 213.78001 254.96 228.93 241.95 241.95 C 228.94 254.96 213.78001 265.18 196.90001 272.32 C 179.42 279.72 160.86 283.46 141.73 283.46 Z"/>
        </g>
        <g>
            <path fill="#000000" stroke="none" d="M 275.95 141.73 C 275.95 215.85767 215.85767 275.95 141.73 275.95 C 67.60233 275.95 7.509986 215.85767 7.509994 141.73 C 7.509994 67.60233 67.60233 7.509994 141.73 7.509994 C 215.85767 7.509986 275.95 67.60233 275.95 141.73 Z"/>
        </g>
        <path fill="#ffffff" stroke="none" d="M 219.50998 77.16 L 199.77 57.419994 L 177.38 79.81 C 169.21 75.41 159.55 73.04 149.32 73.04 C 138.61 73.04 128.45 75.46 119.94 79.95 L 97.41 57.419994 L 77.67 77.16 L 100.13 99.62 C 96.85 106.04 95.12 113.30999 95.12 121.1 L 95.12 230.01 L 123.04 230.01 L 123.04 171.66 L 149.31 171.66 C 165.21 171.66 177.95 167.62 187.18 159.65 C 194.09001 153.68 202.33002 142.45 202.33002 122.83 C 202.33002 114.41 200.48 106.55 196.98 99.67 L 219.50998 77.16 Z M 149.32 143.74 L 123.05 143.74 L 123.05 121.1 C 123.05 101.92 144.94 100.95 149.32 100.95 C 153.51 100.95 174.41998 102 174.41998 122.83 C 174.41998 133.69 171.38 143.74 149.32 143.74 Z"/>
    </g>
</svg>
