<svg width="520" height="528" xmlns="http://www.w3.org/2000/svg">
    <defs>
        <linearGradient id="paint0_linear_256852_9657" x1="125.324" y1="-114.4" x2="1066.39" y2="264.879" gradientUnits="userSpaceOnUse">
            <stop offset="0" stop-color="#ff2091"/>
            <stop offset="1" stop-color="#0184fd"/>
        </linearGradient>
    </defs>
    <path fill="#ffffff" fill-opacity="0.04" stroke="none" d="M 458.036 78.3795 L 322.35 0 L 260 36.0044 L 197.65001 0 L 61.9644 78.3795 L 61.9644 149.906 L 0 185.62099 L 0 342.283 L 61.9644 377.99796 L 61.9644 449.621 L 197.65001 528 L 260 491.996 L 322.35 528 L 458.036 449.621 L 458.036 377.99796 L 520 342.283 L 520 185.62099 L 458.036 149.906 L 458.036 78.3795 Z M 383.35104 126.16 C 386.82 126.16 389.615 128.959 389.615 132.338 C 389.615 135.813 386.82 138.516 383.35104 138.516 C 379.881 138.516 377.087 135.716 377.087 132.338 C 377.087 128.959 379.881 126.16 383.35104 126.16 Z M 136.746 126.16 C 140.215 126.16 143.01 128.959 143.01 132.338 C 143.01 135.813 140.215 138.516 136.746 138.516 C 133.277 138.516 130.482 135.716 130.482 132.338 C 130.578 128.959 133.277 126.16 136.746 126.16 Z M 136.746 401.743 C 133.277 401.743 130.482 398.944 130.482 395.566 C 130.482 392.091 133.277 389.388 136.746 389.388 C 140.215 389.388 143.01 392.187 143.01 395.566 C 143.01 398.944 140.215 401.743 136.746 401.743 Z M 250.749 476.841 L 197.74602 507.536 L 145.708 477.42 L 145.708 411.01 C 151.105 407.92102 154.863 402.12897 154.863 395.469 C 154.863 385.52698 146.768 377.419 136.842 377.419 C 126.916 377.419 118.821 385.52698 118.821 395.469 C 118.821 402.12897 122.483 407.92102 127.976 411.01 L 127.976 467.09204 L 79.8888 439.389 L 79.8888 378.57697 L 136.553 346.04803 L 189.844 376.84 L 189.844 438.713 C 184.544 441.802 180.97899 447.593 180.97899 454.157 C 180.97899 464.099 189.073 472.208 198.999 472.208 C 208.925 472.208 217.02 464.099 217.02 454.157 C 217.02 447.39996 213.262 441.51196 207.672 438.51996 L 207.672 366.608 L 146.19 331.086 L 146.19 279.251 C 151.297 276.066 154.767 270.467 154.767 264 C 154.767 254.058 146.672 245.95 136.746 245.95 C 126.82001 245.95 118.725 254.058 118.725 264 C 118.725 270.95 122.676 276.838 128.362 279.83 L 128.362 330.121 L 71.3121 362.843 L 17.828 331.955 L 17.828 277.224 L 56.8569 299.618 C 56.8569 305.893 60.037098 311.974 65.8191 315.256 C 74.3959 320.275 85.4781 317.283 90.39289 308.692 C 95.404 300.101 92.4166 289.097 83.8399 284.078 C 78.0578 280.699 71.2157 281.085 65.8191 284.174 L 17.9244 256.664 L 17.9244 195.756 L 70.7339 165.253 L 117.665 192.184 L 83.3581 211.972 C 80.8525 210.62102 78.0578 209.849 74.9741 209.849 C 65.0482 209.849 56.953297 217.957 56.953297 227.899 C 56.953297 237.841 65.0482 245.95 74.9741 245.95 C 84.8999 245.95 92.9948 237.841 92.9948 227.899 C 92.9948 227.61002 92.8985 227.32 92.8985 227.03 L 207.191 161.199 L 207.191 89.5766 C 212.97302 86.5843 216.924 80.5997 216.924 73.6497 C 216.924 63.7075 208.829 55.5993 198.90302 55.5993 C 188.977 55.5993 180.882 63.7075 180.882 73.6497 C 180.882 80.117 184.25499 85.7156 189.36302 88.9009 L 189.36302 150.967 L 135.493 182.049 L 79.7924 150.099 L 79.7924 88.6113 L 127.88 60.9082 L 127.88 116.89399 C 122.483 119.981995 118.725 125.773994 118.725 132.434 C 118.725 142.377 126.82001 150.485 136.746 150.485 C 146.672 150.485 154.767 142.377 154.767 132.434 C 154.767 125.773994 151.105 119.981995 145.612 116.89399 L 145.612 50.6764 L 197.65001 20.5602 L 250.652 51.2556 L 250.652 187.55098 L 189.652 223.362 L 189.652 304.541 L 251.03801 340.063 L 250.749 476.841 Z M 130.578 264 C 130.578 260.525 133.373 257.822 136.842 257.822 C 140.311 257.822 143.106 260.622 143.106 264 C 143.106 267.475 140.311 270.178 136.842 270.178 C 133.277 270.178 130.578 267.475 130.578 264 Z M 192.735 454.157 C 192.735 450.682 195.53 447.98 198.999 447.98 C 202.469 447.98 205.26299 450.77896 205.26299 454.157 C 205.26299 457.536 202.469 460.335 198.999 460.335 C 195.53 460.335 192.735 457.632 192.735 454.157 Z M 69.3847 296.626 C 71.1193 293.634 74.8777 292.668 77.8651 294.309 C 80.8525 296.047 81.8162 299.811 80.1779 302.804 C 78.4433 305.796 74.685 306.761 71.6976 305.12 C 68.7102 303.383 67.6501 299.618 69.3847 296.626 Z M 81.238 227.996 C 81.238 231.47101 78.4433 234.173 74.9741 234.173 C 71.5048 234.173 68.7102 231.374 68.7102 227.996 C 68.7102 224.521 71.5048 221.818 74.9741 221.818 C 78.4433 221.818 81.238 224.521 81.238 227.996 Z M 192.735 73.7463 C 192.735 70.2713 195.53 67.5686 198.999 67.5686 C 202.469 67.5686 205.26299 70.3678 205.26299 73.7463 C 205.26299 77.2212 202.469 79.924 198.999 79.924 C 195.53 79.924 192.735 77.2212 192.735 73.7463 Z M 207.48 294.213 L 207.48 233.401 L 260 202.609 L 312.52 233.401 L 312.52 294.116 L 260 324.522 L 207.48 294.213 Z M 383.35104 401.743 C 379.881 401.743 377.087 398.944 377.087 395.566 C 377.087 392.091 379.881 389.388 383.35104 389.388 C 386.82 389.388 389.615 392.187 389.615 395.566 C 389.518 398.944 386.82 401.743 383.35104 401.743 Z M 502.17203 195.94902 L 502.17203 256.857 L 454.277 284.367 C 448.881 281.182 442.039 280.892 436.25696 284.271 C 427.68 289.29 424.692 300.294 429.703 308.885 C 434.715 317.476 445.701 320.468 454.277 315.449 C 460.059 312.07 463.239 305.989 463.239 299.811 L 502.26797 277.417 L 502.26797 332.148 L 448.78403 363.036 L 391.73495 330.314 L 391.73495 280.023 C 397.42 277.031 401.371 271.046 401.371 264.193 C 401.371 254.251 393.27698 246.14299 383.35104 246.14299 C 373.425 246.14299 365.33 254.251 365.33 264.193 C 365.33 270.66 368.799 276.259 373.907 279.444 L 373.907 331.279 L 312.424 366.80096 L 312.424 438.713 C 306.931 441.802 303.076 447.593 303.076 454.34998 C 303.076 464.293 311.171 472.40103 321.097 472.40103 C 331.023 472.40103 339.118 464.293 339.118 454.34998 C 339.118 447.786 335.552 441.99496 330.252 438.906 L 330.252 377.033 L 383.543 346.241 L 440.208 378.77 L 440.208 439.58197 L 392.12 467.285 L 392.12 411.01 C 397.517 407.92102 401.275 402.12897 401.275 395.469 C 401.275 385.52698 393.18 377.419 383.254 377.419 C 373.328 377.419 365.234 385.52698 365.234 395.469 C 365.234 402.12897 368.896 407.92102 374.388 411.01 L 374.388 477.42 L 322.35 507.536 L 269.348 476.841 L 268.962 339.966 L 330.348 304.445 L 330.348 223.26599 L 269.348 187.454 L 269.348 51.1591 L 322.35 20.4636 L 374.388 50.579895 L 374.388 116.797 C 368.992 119.886 365.234 125.678 365.234 132.338 C 365.234 142.28 373.328 150.388 383.254 150.388 C 393.18 150.388 401.275 142.28 401.275 132.338 C 401.275 125.678 397.613 119.886 392.12 116.797 L 392.12 60.8117 L 440.208 88.6113 L 440.208 150.195 L 384.507 182.14598 L 330.638 151.064 L 330.638 88.9975 C 335.745 85.8121 339.118 80.2135 339.118 73.7463 C 339.118 63.804 331.023 55.6958 321.097 55.6958 C 311.171 55.6958 303.076 63.804 303.076 73.7463 C 303.076 80.6962 307.027 86.6808 312.809 89.6731 L 312.809 161.296 L 427.102 227.12698 C 427.102 227.416 427.005 227.706 427.005 227.996 C 427.005 237.93802 435.1 246.046 445.02603 246.046 C 454.95197 246.046 463.047 237.93802 463.047 227.996 C 463.047 218.053 454.95197 209.945 445.02603 209.945 C 442.039 209.945 439.148 210.814 436.642 212.069 L 402.33502 192.281 L 449.266 165.35 L 502.17203 195.94902 Z M 448.399 305.12 C 445.411 306.858 441.653 305.796 439.91803 302.804 C 438.184 299.811 439.244 296.047 442.231 294.309 C 445.219 292.572 448.977 293.634 450.712 296.626 C 452.446 299.618 451.386 303.383 448.399 305.12 Z M 389.518 264 C 389.518 267.475 386.724 270.178 383.254 270.178 C 379.785 270.178 376.99 267.378 376.99 264 C 376.99 260.525 379.785 257.822 383.254 257.822 C 386.82 257.726 389.518 260.525 389.518 264 Z M 327.361 454.157 C 327.361 457.632 324.566 460.335 321.097 460.335 C 317.628 460.335 314.833 457.536 314.833 454.157 C 314.833 450.77896 317.628 447.98 321.097 447.98 C 324.566 447.98 327.361 450.682 327.361 454.157 Z M 327.361 73.7463 C 327.361 77.2212 324.566 79.924 321.097 79.924 C 317.628 79.924 314.833 77.1247 314.833 73.7463 C 314.833 70.2713 317.628 67.5686 321.097 67.5686 C 324.566 67.5686 327.361 70.2713 327.361 73.7463 Z M 438.858 227.996 C 438.858 224.521 441.653 221.818 445.12204 221.818 C 448.59198 221.818 451.386 224.617 451.386 227.996 C 451.386 231.47101 448.59198 234.173 445.12204 234.173 C 441.653 234.173 438.858 231.47101 438.858 227.996 Z"/>
    <path fill="url(#paint0_linear_256852_9657)" stroke="none" d="M 458.036 78.3795 L 322.35 0 L 260 36.0044 L 197.65001 0 L 61.9644 78.3795 L 61.9644 149.906 L 0 185.62099 L 0 342.283 L 61.9644 377.99796 L 61.9644 449.621 L 197.65001 528 L 260 491.996 L 322.35 528 L 458.036 449.621 L 458.036 377.99796 L 520 342.283 L 520 185.62099 L 458.036 149.906 L 458.036 78.3795 Z M 383.35104 126.16 C 386.82 126.16 389.615 128.959 389.615 132.338 C 389.615 135.813 386.82 138.516 383.35104 138.516 C 379.881 138.516 377.087 135.716 377.087 132.338 C 377.087 128.959 379.881 126.16 383.35104 126.16 Z M 136.746 126.16 C 140.215 126.16 143.01 128.959 143.01 132.338 C 143.01 135.813 140.215 138.516 136.746 138.516 C 133.277 138.516 130.482 135.716 130.482 132.338 C 130.578 128.959 133.277 126.16 136.746 126.16 Z M 136.746 401.743 C 133.277 401.743 130.482 398.944 130.482 395.566 C 130.482 392.091 133.277 389.388 136.746 389.388 C 140.215 389.388 143.01 392.187 143.01 395.566 C 143.01 398.944 140.215 401.743 136.746 401.743 Z M 250.749 476.841 L 197.74602 507.536 L 145.708 477.42 L 145.708 411.01 C 151.105 407.92102 154.863 402.12897 154.863 395.469 C 154.863 385.52698 146.768 377.419 136.842 377.419 C 126.916 377.419 118.821 385.52698 118.821 395.469 C 118.821 402.12897 122.483 407.92102 127.976 411.01 L 127.976 467.09204 L 79.8888 439.389 L 79.8888 378.57697 L 136.553 346.04803 L 189.844 376.84 L 189.844 438.713 C 184.544 441.802 180.97899 447.593 180.97899 454.157 C 180.97899 464.099 189.073 472.208 198.999 472.208 C 208.925 472.208 217.02 464.099 217.02 454.157 C 217.02 447.39996 213.262 441.51196 207.672 438.51996 L 207.672 366.608 L 146.19 331.086 L 146.19 279.251 C 151.297 276.066 154.767 270.467 154.767 264 C 154.767 254.058 146.672 245.95 136.746 245.95 C 126.82001 245.95 118.725 254.058 118.725 264 C 118.725 270.95 122.676 276.838 128.362 279.83 L 128.362 330.121 L 71.3121 362.843 L 17.828 331.955 L 17.828 277.224 L 56.8569 299.618 C 56.8569 305.893 60.037098 311.974 65.8191 315.256 C 74.3959 320.275 85.4781 317.283 90.39289 308.692 C 95.404 300.101 92.4166 289.097 83.8399 284.078 C 78.0578 280.699 71.2157 281.085 65.8191 284.174 L 17.9244 256.664 L 17.9244 195.756 L 70.7339 165.253 L 117.665 192.184 L 83.3581 211.972 C 80.8525 210.62102 78.0578 209.849 74.9741 209.849 C 65.0482 209.849 56.953297 217.957 56.953297 227.899 C 56.953297 237.841 65.0482 245.95 74.9741 245.95 C 84.8999 245.95 92.9948 237.841 92.9948 227.899 C 92.9948 227.61002 92.8985 227.32 92.8985 227.03 L 207.191 161.199 L 207.191 89.5766 C 212.97302 86.5843 216.924 80.5997 216.924 73.6497 C 216.924 63.7075 208.829 55.5993 198.90302 55.5993 C 188.977 55.5993 180.882 63.7075 180.882 73.6497 C 180.882 80.117 184.25499 85.7156 189.36302 88.9009 L 189.36302 150.967 L 135.493 182.049 L 79.7924 150.099 L 79.7924 88.6113 L 127.88 60.9082 L 127.88 116.89399 C 122.483 119.981995 118.725 125.773994 118.725 132.434 C 118.725 142.377 126.82001 150.485 136.746 150.485 C 146.672 150.485 154.767 142.377 154.767 132.434 C 154.767 125.773994 151.105 119.981995 145.612 116.89399 L 145.612 50.6764 L 197.65001 20.5602 L 250.652 51.2556 L 250.652 187.55098 L 189.652 223.362 L 189.652 304.541 L 251.03801 340.063 L 250.749 476.841 Z M 130.578 264 C 130.578 260.525 133.373 257.822 136.842 257.822 C 140.311 257.822 143.106 260.622 143.106 264 C 143.106 267.475 140.311 270.178 136.842 270.178 C 133.277 270.178 130.578 267.475 130.578 264 Z M 192.735 454.157 C 192.735 450.682 195.53 447.98 198.999 447.98 C 202.469 447.98 205.26299 450.77896 205.26299 454.157 C 205.26299 457.536 202.469 460.335 198.999 460.335 C 195.53 460.335 192.735 457.632 192.735 454.157 Z M 69.3847 296.626 C 71.1193 293.634 74.8777 292.668 77.8651 294.309 C 80.8525 296.047 81.8162 299.811 80.1779 302.804 C 78.4433 305.796 74.685 306.761 71.6976 305.12 C 68.7102 303.383 67.6501 299.618 69.3847 296.626 Z M 81.238 227.996 C 81.238 231.47101 78.4433 234.173 74.9741 234.173 C 71.5048 234.173 68.7102 231.374 68.7102 227.996 C 68.7102 224.521 71.5048 221.818 74.9741 221.818 C 78.4433 221.818 81.238 224.521 81.238 227.996 Z M 192.735 73.7463 C 192.735 70.2713 195.53 67.5686 198.999 67.5686 C 202.469 67.5686 205.26299 70.3678 205.26299 73.7463 C 205.26299 77.2212 202.469 79.924 198.999 79.924 C 195.53 79.924 192.735 77.2212 192.735 73.7463 Z M 207.48 294.213 L 207.48 233.401 L 260 202.609 L 312.52 233.401 L 312.52 294.116 L 260 324.522 L 207.48 294.213 Z M 383.35104 401.743 C 379.881 401.743 377.087 398.944 377.087 395.566 C 377.087 392.091 379.881 389.388 383.35104 389.388 C 386.82 389.388 389.615 392.187 389.615 395.566 C 389.518 398.944 386.82 401.743 383.35104 401.743 Z M 502.17203 195.94902 L 502.17203 256.857 L 454.277 284.367 C 448.881 281.182 442.039 280.892 436.25696 284.271 C 427.68 289.29 424.692 300.294 429.703 308.885 C 434.715 317.476 445.701 320.468 454.277 315.449 C 460.059 312.07 463.239 305.989 463.239 299.811 L 502.26797 277.417 L 502.26797 332.148 L 448.78403 363.036 L 391.73495 330.314 L 391.73495 280.023 C 397.42 277.031 401.371 271.046 401.371 264.193 C 401.371 254.251 393.27698 246.14299 383.35104 246.14299 C 373.425 246.14299 365.33 254.251 365.33 264.193 C 365.33 270.66 368.799 276.259 373.907 279.444 L 373.907 331.279 L 312.424 366.80096 L 312.424 438.713 C 306.931 441.802 303.076 447.593 303.076 454.34998 C 303.076 464.293 311.171 472.40103 321.097 472.40103 C 331.023 472.40103 339.118 464.293 339.118 454.34998 C 339.118 447.786 335.552 441.99496 330.252 438.906 L 330.252 377.033 L 383.543 346.241 L 440.208 378.77 L 440.208 439.58197 L 392.12 467.285 L 392.12 411.01 C 397.517 407.92102 401.275 402.12897 401.275 395.469 C 401.275 385.52698 393.18 377.419 383.254 377.419 C 373.328 377.419 365.234 385.52698 365.234 395.469 C 365.234 402.12897 368.896 407.92102 374.388 411.01 L 374.388 477.42 L 322.35 507.536 L 269.348 476.841 L 268.962 339.966 L 330.348 304.445 L 330.348 223.26599 L 269.348 187.454 L 269.348 51.1591 L 322.35 20.4636 L 374.388 50.579895 L 374.388 116.797 C 368.992 119.886 365.234 125.678 365.234 132.338 C 365.234 142.28 373.328 150.388 383.254 150.388 C 393.18 150.388 401.275 142.28 401.275 132.338 C 401.275 125.678 397.613 119.886 392.12 116.797 L 392.12 60.8117 L 440.208 88.6113 L 440.208 150.195 L 384.507 182.14598 L 330.638 151.064 L 330.638 88.9975 C 335.745 85.8121 339.118 80.2135 339.118 73.7463 C 339.118 63.804 331.023 55.6958 321.097 55.6958 C 311.171 55.6958 303.076 63.804 303.076 73.7463 C 303.076 80.6962 307.027 86.6808 312.809 89.6731 L 312.809 161.296 L 427.102 227.12698 C 427.102 227.416 427.005 227.706 427.005 227.996 C 427.005 237.93802 435.1 246.046 445.02603 246.046 C 454.95197 246.046 463.047 237.93802 463.047 227.996 C 463.047 218.053 454.95197 209.945 445.02603 209.945 C 442.039 209.945 439.148 210.814 436.642 212.069 L 402.33502 192.281 L 449.266 165.35 L 502.17203 195.94902 Z M 448.399 305.12 C 445.411 306.858 441.653 305.796 439.91803 302.804 C 438.184 299.811 439.244 296.047 442.231 294.309 C 445.219 292.572 448.977 293.634 450.712 296.626 C 452.446 299.618 451.386 303.383 448.399 305.12 Z M 389.518 264 C 389.518 267.475 386.724 270.178 383.254 270.178 C 379.785 270.178 376.99 267.378 376.99 264 C 376.99 260.525 379.785 257.822 383.254 257.822 C 386.82 257.726 389.518 260.525 389.518 264 Z M 327.361 454.157 C 327.361 457.632 324.566 460.335 321.097 460.335 C 317.628 460.335 314.833 457.536 314.833 454.157 C 314.833 450.77896 317.628 447.98 321.097 447.98 C 324.566 447.98 327.361 450.682 327.361 454.157 Z M 327.361 73.7463 C 327.361 77.2212 324.566 79.924 321.097 79.924 C 317.628 79.924 314.833 77.1247 314.833 73.7463 C 314.833 70.2713 317.628 67.5686 321.097 67.5686 C 324.566 67.5686 327.361 70.2713 327.361 73.7463 Z M 438.858 227.996 C 438.858 224.521 441.653 221.818 445.12204 221.818 C 448.59198 221.818 451.386 224.617 451.386 227.996 C 451.386 231.47101 448.59198 234.173 445.12204 234.173 C 441.653 234.173 438.858 231.47101 438.858 227.996 Z"/>
</svg>
