<svg width="601" height="645" xmlns="http://www.w3.org/2000/svg">
    <path fill="#00d9a1" fill-rule="evenodd" stroke="none" d="M 0.632812 0 C 43.6665 0 78.5522 34.8856 78.5522 77.9193 L 78.5522 344.591 C 78.5522 467.24197 177.981 566.671 300.633 566.671 C 423.28503 566.671 522.713 467.24197 522.713 344.591 L 522.713 77.9194 C 522.713 34.8857 557.599 0 600.633 0 L 600.633 0 L 600.633 344.591 C 600.633 510.276 466.318 644.591 300.633 644.591 C 134.947 644.591 0.632812 510.276 0.632812 344.591 L 0.632812 0 L 0.632812 0 Z"/>
    <path fill="#00d9a1" fill-rule="evenodd" stroke="none" d="M 134.595 126.468994 C 170.071 126.468994 198.83 155.227 198.83 190.703 L 198.83 201.314 C 226.92 179.497 262.207 166.507 300.529 166.507 C 392.174 166.507 466.467 240.79898 466.46802 332.443 L 466.47 332.443 C 466.47 424.089 392.177 498.382 300.531 498.382 C 208.886 498.382 134.594 424.09 134.592 332.446 L 134.59 332.446 C 134.59 330.691 134.617 328.943 134.671 327.201 L 134.595 327.201 L 134.595 126.468994 Z M 198.82399 332.443 L 198.82698 332.443 C 198.82698 388.613 244.361 434.148 300.531 434.148 C 356.69998 434.148 402.235 388.614 402.236 332.446 L 402.233 332.446 C 402.233 276.276 356.699 230.741 300.529 230.741 C 244.36 230.741 198.826 276.275 198.82399 332.443 Z"/>
    <path fill="#00d9a1" stroke="none" d="M 469.6298 104.555 C 469.6298 125.67149 452.51144 142.7898 431.395 142.7898 C 410.2785 142.7898 393.1602 125.67149 393.1602 104.555 C 393.1602 83.43851 410.2785 66.320206 431.395 66.320206 C 452.51144 66.320206 469.6298 83.43851 469.6298 104.555 Z"/>
</svg>
