<svg width="344" height="404.84" xmlns="http://www.w3.org/2000/svg">
    <g id="_9LiF6z.tif">
        <g transform="matrix(1 0 0 1 -74.77 -45.4)">
            <path fill="#ffffff" stroke="none" d="M 74.77 45.4 L 418.77 45.4 L 418.77 450.24 L 74.77 450.24 Z M 252.14998 397.15 L 252.66 393.81 C 247.66002 392.49 242.76 390.9 237.72 389.91 C 219.19 386.28998 211.72 378.91003 208.67 360.21 C 207.74551 354.4697 207.28401 348.6643 207.29 342.85 Q 207.15 249.85 207.29 156.75 C 207.33934 150.16371 207.97182 143.59471 209.18 137.12 C 212.27 120.07 217.37 115.62 235.04 115.25 C 254.04001 114.85 272.99 114.97 291.97 115.12 C 327.03 115.41 342.68 127.12 353.47 160.34 C 354.76 164.34 357.23996 167.91 359.17 171.68 L 362.61 170.9 C 362.81 167.35 363.45 163.76 363.13 160.25 C 361.73 144.43 359.66 128.65 358.6 112.8 C 357.9 102.3 352.60004 98.92 342.8 98.94001 C 272.31 99.08999 201.8 98.94001 131.32 99.11 C 127.649994 99.11 123.98 100.45 120.32 101.17 C 122.6012 103.84562 125.82318 105.54253 129.32 105.91 C 153.62 109.42999 161.14 117.47 162.93 142.17 C 163.21 146.03 163.2 149.92 163.2 153.8 Q 163.2 248.02 163.2 342.23 C 163.29283 347.65567 163.01886 353.08133 162.38 358.47 C 159.55 378.97 152.78 385.86 132.66 389.97 C 128.3 390.86 124.15001 392.75 119.91 394.19 L 120.78 397.19003 Z"/>
        </g>
        <g transform="matrix(1 0 0 1 -74.77 -45.4)">
            <path fill="#000000" stroke="none" d="M 252.14998 397.15 L 120.729996 397.15 L 119.86 394.15002 C 124.09999 392.71 128.25 390.82 132.61 389.93 C 152.73 385.82 159.5 378.93002 162.33 358.43 C 162.96887 353.04132 163.24283 347.61563 163.15 342.19 Q 163.22 247.98 163.15 153.76 C 163.15 149.88 163.15 145.99 162.88 142.13 C 161.09 117.42999 153.57 109.39 129.27 105.869995 C 125.77318 105.502525 122.5512 103.80561 120.27 101.13 C 123.95 100.409996 127.62 99.13 131.27 99.07 C 201.77 98.95 272.27 99.07 342.75 98.9 C 352.56 98.9 357.84998 102.26 358.55 112.76 C 359.61 128.61 361.68 144.39 363.07996 160.21 C 363.4 163.72 362.76004 167.31 362.55997 170.86 L 359.12 171.64 C 357.19 167.87 354.71 164.28 353.42 160.3 C 342.63 127.05 326.98 115.37 291.92 115.079994 C 272.92 114.93 253.91998 114.81 234.99 115.20999 C 217.31999 115.58001 212.22 120.03001 209.13 137.08 C 207.92181 143.55472 207.28934 150.1237 207.24 156.71 Q 207.03 249.70999 207.24 342.81 C 207.23402 348.62427 207.69551 354.42966 208.62 360.17 C 211.7 378.91003 219.14 386.25 237.66998 389.86996 C 242.67 390.86996 247.67 392.45 252.61 393.77 Z"/>
        </g>
    </g>
</svg>
