<svg width="256" height="256" xmlns="http://www.w3.org/2000/svg">
    <defs>
        <linearGradient id="paint0_linear_818_104187" x1="37.4903" y1="37.4903" x2="218.51" y2="218.51" gradientUnits="userSpaceOnUse">
            <stop offset="0" stop-color="#4bd5d8"/>
            <stop offset="1" stop-color="#3c4257"/>
        </linearGradient>
        <clipPath id="clip0_818_104187">
            <path fill="#000000" stroke="none" d="M 0 0 L 256 0 L 256 256 L 0 256 Z"/>
        </clipPath>
    </defs>
    <g clip-path="url(#clip0_818_104187)">
        <path fill="url(#paint0_linear_818_104187)" stroke="none" d="M 256 128 C 256 198.656 198.656 256 128 256 C 57.344 256 0 198.656 0 128 C 0 57.344 57.344 0 128 0 C 198.656 0 256 57.344 256 128 Z"/>
        <path fill="#ffffff" stroke="none" d="M 175.787 79.4453 L 134.4 79.4453 L 134.4 93.8666 C 130.219 85.3333 121.429 79.5306 111.275 79.5306 L 54.4427 79.5306 L 54.4427 176.555 L 72.6187 176.555 L 72.6187 97.7066 L 112.384 97.7066 C 115.968 97.7066 118.869 100.608 118.869 104.192 L 118.869 176.555 L 137.045 176.555 L 137.045 105.301 C 137.045 102.656 136.619 100.096 135.936 97.7066 L 176.896 97.7066 C 180.48 97.7066 183.381 100.608 183.381 104.192 L 183.381 176.555 L 201.557 176.555 L 201.557 105.301 C 201.557 91.0506 190.03702 79.4453 175.787 79.4453 Z"/>
    </g>
</svg>
