<svg width="400" height="402" xmlns="http://www.w3.org/2000/svg">
    <defs>
        <linearGradient id="paint0_linear_3748_10" x1="357.62" y1="-0.00012096" x2="357.62" y2="445.312" gradientUnits="userSpaceOnUse">
            <stop offset="0" stop-color="#6f7cf4"/>
            <stop offset="1" stop-color="#002dde"/>
        </linearGradient>
    </defs>
    <path fill="url(#paint0_linear_3748_10)" stroke="none" d="M 200 0 L 200 0 C 310.45694 0 400 89.54305 400 200 L 400 201.10503 C 400 311.56195 310.45694 401.105 200 401.105 L 200 401.105 C 89.54305 401.105 0 311.56195 0 201.10503 L 0 200 C -0 89.54305 89.54305 0 200 0 Z"/>
    <path fill="#ffffff" stroke="none" d="M 147.91 168.711 C 144.47 162.702 135.213 155.805 123.2 155.805 C 98.311195 155.805 85.083 177.301 85.083 200.554 C 85.083 223.80702 98.311195 245.30399 123.2 245.30399 C 135.213 245.30399 144.499 238.405 147.91 232.397 L 147.91 243.57901 L 170.22 243.57901 L 170.22 155.801 L 147.91 155.801 L 147.91 168.711 Z M 128.332 227.22702 L 126.968 227.22702 C 115.81301 227.22702 107.389 216.73 107.389 200.37502 C 107.389 184.02 115.784 173.881 126.968 173.881 L 128.332 173.881 C 138.625 173.881 147.91 184.202 147.91 200.554 C 147.91 216.90498 138.654 227.22299 128.332 227.22299 L 128.332 227.22702 Z"/>
    <path fill="#ffffff" stroke="none" d="M 276.976 227.22299 L 275.612 227.22299 C 262.914 227.22299 257.398 215.181 257.398 200.554 C 257.398 185.927 262.886 173.881 275.612 173.881 L 276.976 173.881 C 286.261 173.881 291.215 179.23299 292.611 187.647 L 314.917 187.647 C 313.201 166.152 298.603 155.801 276.296 155.801 C 253.99 155.801 235.091 173.01701 235.091 200.55002 C 235.091 228.083 253.127 245.299 276.296 245.299 C 299.463 245.299 313.198 234.978 314.917 213.453 L 292.611 213.453 C 291.249 221.867 286.261 227.21898 276.976 227.21898 L 276.976 227.22299 Z"/>
    <path fill="#ffffff" stroke="none" d="M 223.67299 156.668 C 196.711 156.668 179.947 173.143 179.947 199.66702 L 179.947 243.556 L 202.257 243.556 L 202.257 198.806 C 202.257 184.179 209.109 177.278 223.702 177.278 L 231.412 177.278 L 231.412 156.671 L 223.64 156.671 L 223.669 156.671 L 223.67299 156.668 Z"/>
</svg>
