<svg width="500" height="500" xmlns="http://www.w3.org/2000/svg">
    <path fill="#0078f0" stroke="none" d="M 495.56 250.16 C 495.56 386.09384 385.36383 496.29 249.43 496.29 C 113.49615 496.29 3.2999878 386.09384 3.2999878 250.16 C 3.2999878 114.22616 113.49615 4.029999 249.43 4.029999 C 385.36383 4.029999 495.56 114.22616 495.56 250.16 Z"/>
    <path fill="#ffffff" stroke="none" d="M 189.11 337.63 L 209.69 279.85 L 175.87 184.85 L 97.26 184.85 L 151.68 337.5 C 154.42 344.98004 161.92 350.09998 170.37 350.28 C 178.82 350.16 186.33002 345.12 189.11 337.63 Z"/>
    <path fill="#ffffff" stroke="none" d="M 286.86 186.55 C 284.47 180.13998 278.64 174.41998 271.5 174.27002 C 264 174.12 257.69 180.07 255.22 186.83 L 254.57 188.6 L 226.25 269.5 L 200.58998 341.5 C 199.3973 344.6994 197.67307 347.67453 195.48999 350.3 L 261.77 350.3 C 270.26 350.16 277.77 345.02002 280.57 337.51 L 281.23 335.7 L 309.54 254.84 L 310.37 252.52 Z"/>
    <path fill="#ffffff" stroke="none" d="M 326.5 261.73 L 405.08997 261.73 L 378.34 186.73001 C 375.59 179.22002 368.04 174.08 359.54 173.94 L 358.26 173.94 L 293.26 173.94 C 295.4251 176.54509 297.1357 179.49641 298.32 182.67001 Z"/>
</svg>
