<svg width="40" height="42" xmlns="http://www.w3.org/2000/svg">
    <defs>
        <clipPath id="clip0_583_108">
            <path fill="#000000" stroke="none" transform="matrix(1 0 0 1 0 0.264038)" d="M 0 0 L 40 0 L 40 41.736 L 0 41.736 Z"/>
        </clipPath>
    </defs>
    <g clip-path="url(#clip0_583_108)">
        <path fill="#ecf3ff" stroke="none" d="M 20 41.9988 C 31.045702 41.9988 40 33.0445 40 21.9988 C 40 10.953101 31.045702 1.99878 20 1.99878 C 8.95431 1.99878 0 10.953101 0 21.9988 C 0 33.0445 8.95431 41.9988 20 41.9988 Z"/>
        <path fill="#ffffff" stroke="none" d="M 14.6013 9.79993 L 7.60132 6.9999294 L 7.60132 7.9999294 L 13.6013 13.3999 L 13.2013 18.9999 L 11.4013 26.5999 L 9.00132 29.9999 L 9.60132 34.7999 L 12.6013 35.1999 L 15.001301 34.7999 L 17.4013 35.1999 L 21.601301 32.5999 L 22.4013 28.3999 L 27.4013 23.5999 L 29.601301 25.1999 L 31.8013 28.3999 L 31.8013 34.7999 L 34.8013 33.9999 L 37.8013 27.3999 L 38.6013 18.9999 L 27.8013 3.19993 L 26.0013 2.7999303 L 14.6013 9.79993 Z"/>
        <path fill="#94a6c4" stroke="none" d="M 3.99844 21.3589 C 4.07844 20.6789 4.11844 19.9989 4.31844 19.3589 C 4.87844 16.7189 5.95844 14.1989 7.55844 12.1589 C 7.8384395 11.7989 8.07844 11.478901 8.39844 11.1589 L 6.59844 9.47886 C 6.2784395 9.95886 5.95844 10.4389 5.67844 10.9189 C 4.19844 13.478901 3.39844 16.3589 3.19844 19.1989 C 3.11844 19.9189 3.15844 20.6389 3.15844 21.3189 C 3.15844 22.038898 3.23844 22.718903 3.35844 23.4389 C 3.55844 24.8389 3.91844 26.198898 4.39844 27.4789 C 4.07844 26.118898 3.91844 24.7589 3.87844 23.3589 C 3.87844 22.718903 3.87844 22.038898 3.99844 21.3589 Z"/>
        <path fill="#94a6c4" stroke="none" d="M 12.1984 8.40027 C 11.1984 7.92027 9.79844 7.28027 8.79844 6.80027 C 9.71844 5.92027 11.3984 5.00027 12.7984 4.40027 C 11.7984 5.20027 11.7984 6.88027 12.1984 8.40027 Z"/>
        <path fill="#94a6c4" stroke="none" d="M 8.15844 15.1989 C 7.59844 16.5989 7.2384405 18.0789 7.11844 19.5189 C 7.07844 19.8789 7.03844 20.2389 7.07844 20.5989 C 7.07844 20.9589 7.07844 21.3189 7.11844 21.6789 L 7.15844 22.2389 C 7.15844 22.3989 7.1984406 22.5989 7.2384405 22.7589 L 7.39844 23.8389 L 7.43844 22.7589 C 7.43844 22.5989 7.43844 22.3989 7.47844 22.2389 L 7.55844 21.718903 C 7.59844 21.3589 7.67844 20.9989 7.7184405 20.6789 C 7.7584405 20.3189 7.87844 19.9989 7.95844 19.6789 C 8.31844 18.3189 8.91844 17.0789 9.63844 15.9189 C 10.1184 15.1589 10.6784 14.478901 11.2784 13.8389 L 9.71844 12.3589 C 9.03844 13.2789 8.55844 14.1989 8.15844 15.1989 Z"/>
        <path fill="#94a6c4" stroke="none" d="M 31.320602 8.35858 C 29.2006 7.59858 28.3606 7.83857 28.3606 7.83857 C 28.3606 7.83857 27.0406 11.3986 22.0006 11.638601 C 22.0406 11.678599 26.560598 14.3186 31.320602 8.35858 Z"/>
        <path fill="#94a6c4" stroke="none" d="M 32.7606 15.4386 C 32.5606 19.8386 29.1606 21.4786 26.5206 21.1586 C 25.0806 20.9586 22.9606 21.6386 22.9606 21.6386 L 20.2806 26.278599 L 19.4006 26.5986 L 20.9206 23.7986 C 20.9206 23.7986 17.3206 25.118599 17.0406 25.2386 C 16.7606 25.3586 15.6406 26.9986 14.7206 28.7186 C 14.5206 27.5186 13.7606 26.6786 13.7606 26.6386 C 13.7606 26.8386 14.160601 30.4386 13.7206 31.4386 C 13.280599 32.4786 11.320599 33.1586 11.320599 33.1586 L 14.200599 34.2386 L 14.4006 34.3186 L 16.5606 32.2786 L 17.3606 29.2386 L 18.3606 28.5186 C 18.3606 28.5186 20.8406 28.2386 20.4806 30.4786 C 20.3206 31.5586 19.1206 31.4786 17.7606 32.3186 C 16.9606 32.7986 15.9206 33.5586 15.4006 34.0786 L 16.8406 35.1186 C 16.8406 35.1186 18.5606 34.8386 21.0006 32.9186 C 23.480602 30.9186 22.240602 28.7586 22.240602 28.7586 L 26.2806 23.9186 L 28.9206 24.118599 C 28.9206 24.118599 33.4806 25.278599 34.9606 29.5986 C 37.9206 21.3186 33.1606 15.838599 32.7606 15.4386 Z"/>
        <path fill="#1c324f" stroke="none" d="M 37.4 12 C 38.12 12.32 38.68 12.798599 39.2 13.2386 C 35.6 0.758647 23.92 2.15865 23.68 2.23865 C 23.96 1.79865 25 1.11865 25.96 0.758647 C 25.96 0.758647 21 -1.00135 16.48 2.11865 C 16.56 1.39865 17.44 0.318647 17.44 0.318647 C 11.2 3.0000498 10.8 6.20005 12 8.11865 C 11 7.6386504 10 7.1986494 9 6.7186494 C 5.92 5.23865 3.28 3.9986498 3.12 3.9586504 C 2.84 3.87865 2.72 3.9986498 2.72 3.9986498 C 2.72 3.9986498 2.6 4.11865 2.84 4.35865 C 6.48 7.99865 8.8 10.2 12.68 13.758599 C 12.04 15.1986 11.96 15.9186 12.28 16.6786 C 12.72 17.7186 12.68 18.2386 12.52 18.9186 C 12.32 19.5986 10.72 25.6386 10.44 26.3186 C 10.16 27.038599 8.04 29.4386 8 30.2386 C 7.96 31.038599 8.6 34.5586 9.48 35.0786 C 10.16 35.4386 11.8 36.1986 13 36.3586 C 13.4 36.4386 13.8 36.3986 14 36.2386 C 14.8 35.7186 15 35.6386 15.52 35.6786 L 15.64 35.7186 C 15.84 35.7586 16.08 35.8386 16.4 35.8786 C 17.08 35.9586 17.96 35.9586 18.68 35.4786 C 19.72 34.6786 21.48 33.6786 22.08 33.1586 C 22.8 32.4386 23.28 31.4386 23.28 30.3186 C 23.28 29.3186 23.96 28.5186 24.72 27.7186 C 25.44 26.9986 27.24 25.2386 27.96 24.4786 C 29.8 25.118599 30.48 27.7586 30.48 29.198599 C 30.48 33.1987 27.24 39.0386 19.8 39.4786 C 19.52 39.4786 19.24 39.5186 18.92 39.5186 C 9.24 39.5186 1.32 30.9586 1.32 20.9186 C 1.32 12.9986 6.0787096 7.6355 6.1187096 7.5955 C 2.2787 11.2355 0 16.3186 0 21.9986 C 0 33.0386 8.96 42 20 42 C 31.04 42 40 33.0386 40 21.9986 C 40 18.3986 39.08 14.92 37.4 12 Z M 10.08 9.43865 C 9.52 8.95865 8.96 8.47865 8.4 7.99865 C 9.16 8.39865 9.92 8.79865 10.6 9.15865 C 12.68 10.2386 14.4 11.1986 14.72 11.4386 C 14.72 11.4386 14.76 11.4786 14.8 11.518601 C 15 11.758599 15.2 12.1586 14.84 12.678599 C 14.64 12.9586 14.4 12.8786 14.04 12.638601 C 13.72 12.4386 12 11.0786 10.08 9.43865 Z M 21.72 30.2386 C 21.72 30.9186 21.4 31.5186 21 31.9586 C 20.8 32.1586 20 32.6786 19.44 33.0386 C 18.88 33.4386 18.28 33.7986 17.8 34.1586 C 17.6 34.2786 17.28 34.3586 16.76 34.2786 L 15.52 34.1186 C 16.28 33.3586 18.36 31.7186 19.04 31.3986 C 19.84 30.9986 20.32 30.5586 19.96 29.6386 C 19.64 28.6786 18.4 28.7186 18.4 28.7186 C 18.4 28.7186 19.16 28.5186 19.76 28.5986 C 19 28.278599 17.96 28.3586 17.44 28.7186 C 16.88 29.118599 16.72 30.7586 16.36 31.7586 C 16 32.7986 15.2 33.2386 14 34.0786 C 13.32 34.5186 12.88 34.6386 12.56 34.5986 C 11.88 34.3986 11.08 34.0386 10.52 33.7586 C 10.2 33.1586 9.8 31.278599 9.76 30.5186 C 9.92 30.118599 10.56 29.3186 10.88 28.8386 C 11.52 27.9586 11.88 27.4386 12.04 26.9586 C 12.32 26.278599 13.48 21.9986 13.92 20.1986 C 14.36 20.9586 14.96 22.2386 14.68 22.9586 C 16.12 21.4386 15.48 19.6386 15.16 18.9186 C 14.88 18.1986 14.56 16.7986 15.2 15.4386 C 15.8 14.0786 17.88 10.3986 17.88 10.3986 C 17.88 10.3986 18.24 11.3586 19 11.2786 C 19.72 11.1986 26.64 3.43865 26.64 3.43865 C 26.64 3.43865 27.72 7.03865 25.72 9.23865 C 23.72 11.4386 22.04 11.678599 22.04 11.678599 C 22.04 11.678599 24.28 12.3986 26.6 11.1986 C 27.2 13.3586 27.72 15.598601 27.72 15.8786 C 27.56 16.1586 25.32 19.9186 25.12 20.1586 C 25.04 20.2386 24.4 20.3186 24 20.3186 C 23.28 20.4386 22.84 20.4786 22.64 20.5986 C 22.32 20.7986 20.48 24.278599 19.6 25.9586 C 18.8 26.0786 18 26.3586 17.36 27.118599 C 17.68 26.9586 18.6 26.9586 19.28 26.9586 C 19.88 26.9986 21.52 28.198599 21.72 30.0786 C 21.72 30.198599 21.72 30.198599 21.72 30.2386 Z M 17.04 31.9186 C 17.48 31.4386 17.56 30.5186 17.64 30.2386 C 17.72 29.9586 17.88 29.4386 18.24 29.3986 C 18.6 29.3586 19.36 29.5986 19.28 30.198599 C 19.2 30.7586 18.6 30.7986 18.12 31.0786 C 17.8 31.278599 17.12 31.8386 17.04 31.9186 Z M 34.44 32.4386 C 33.96 27.3186 30.44 24.9186 28.88 24.118599 C 30.68 23.9186 35.32 22.5186 32.76 15.4386 C 32.84 15.758599 33.56 19.2786 31.52 21.1186 C 29.44 22.9986 26.4 22.198599 26.04 22.198599 C 25.72 22.1586 24.2 23.6386 22.12 26.4786 C 21.92 26.3586 21.08 26.038599 20.04 26.0786 C 21.08 24.118599 22.64 21.3186 22.88 21.0786 C 22.96 20.9986 23.64 20.9186 24.04 20.8786 C 24.84 20.7986 25.24 20.7186 25.4 20.5586 C 25.48 20.4386 26.04 19.5586 26.6 18.5986 C 26.96 18.6386 27.92 18.7186 28.04 18.6786 C 28.12 18.5986 29.2 16.6786 29.24 16.4386 C 29.28 16.2786 28.52 13.2786 28.04 11.3586 C 37.92 16.0386 39.48 26.3586 34.44 32.4386 Z"/>
        <path fill="#1c324f" stroke="none" d="M 24.92 8.63865 C 26.04 7.6386504 25.88 5.91865 25.88 5.91865 L 22.52 9.63865 C 22.48 9.63865 23.52 9.83865 24.92 8.63865 Z"/>
        <path fill="#1c324f" stroke="none" d="M 12.36 29.7986 L 12.92 28.198599 C 12.92 28.198599 11.2 30.3986 11.04 30.7186 C 10.88 31.0786 10.96 31.7586 11.52 31.7986 C 12.08 31.8386 12.84 31.118599 12.92 30.5586 C 13.04 29.7986 12.36 29.7986 12.36 29.7986 Z"/>
        <path fill="#1c324f" stroke="none" d="M 17.64 20.1186 C 18.84 19.9986 21 19.0386 21.92 18.2786 C 22.84 17.4786 22.68 15.718599 21.24 15.1986 C 21.72 14.3986 22.52 12.718599 22.52 12.718599 C 22.52 12.718599 17.36 18.7586 16.96 18.8386 C 16.56 18.9186 16.4 17.3986 16.4 17.3986 C 15.2 20.3186 17.24 21.0386 17.64 20.1186 Z"/>
        <path fill="#ffd925" stroke="none" d="M 18.0796 19.3587 L 20.7596 15.958701 C 20.7596 15.958701 21.919601 16.7587 21.1596 17.6787 C 20.1996 18.7587 18.0796 19.3587 18.0796 19.3587 Z"/>
        <path fill="#d82423" stroke="none" d="M 25.202402 4.19884 L 23.362402 6.19884 C 21.8824 6.63884 20.4424 7.43884 19.0824 8.75884 C 19.0824 7.99884 21.2824 4.67884 25.202402 4.19884 Z"/>
        <path fill="#d82423" stroke="none" d="M 27.522398 5.9188395 C 27.5624 5.3988395 27.522398 4.79884 27.442398 4.23884 C 29.8424 4.55884 32.6824 5.95884 35.9224 9.11884 C 33.2424 7.63884 30.4024 6.2788405 27.522398 5.9188395 Z"/>
        <path fill="#d82423" stroke="none" d="M 28.2424 8.51884 C 28.2424 8.51884 37.1624 12.438799 38.8024 23.438803 C 39.0424 9.11884 28.8824 8.39884 28.2424 8.51884 Z"/>
        <path fill="#d82423" stroke="none" d="M 15.2424 2.19884 C 15.1224 2.51884 10.0824 7.9188395 16.3624 10.0388 C 12.9224 6.95884 15.2024 2.23884 15.2424 2.19884 Z"/>
        <path fill="#d82423" stroke="none" d="M 17.9224 9.19884 C 17.9224 9.19884 18.4424 3.07884 22.122402 1.43884 C 21.8424 1.51884 14.3624 3.79884 17.9224 9.19884 Z"/>
    </g>
</svg>
