<svg width="611.9" height="532.43" xmlns="http://www.w3.org/2000/svg">
    <defs>
        <linearGradient id="linear-gradient" x1="4846.23" y1="-4671.46" x2="13324.84" y2="-4671.46" gradientUnits="userSpaceOnUse" gradientTransform="matrix(0.07 0 0 -0.07 -348.93 -70.13)">
            <stop offset="0" stop-color="#d8b35d"/>
            <stop offset="1" stop-color="#f5e7bf"/>
        </linearGradient>
    </defs>
    <g id="Layer_2">
        <g id="Layer_1-2">
            <g id="Layer_1-3">
                <path fill="url(#linear-gradient)" fill-rule="evenodd" stroke="none" d="M 112.11 2.71 L 0.49 237.12 C -0.42767853 238.86618 -0.05859113 241.011 1.39 242.34999 L 302.7 531.22 C 304.4958 532.8385 307.2242 532.8385 309.02 531.22 L 610.51 242.34999 C 611.94275 241.00244 612.3099 238.86897 611.41 237.12 L 499.79004 2.71 C 499.18185 1.0376115 497.56863 -0.05531289 495.79 0 L 116.07 0 C 114.32286 0.04781101 112.76224 1.105133 112.07 2.71 Z"/>
                <path fill="#ffffff" fill-rule="evenodd" stroke="none" d="M 344.72 261.1 L 344.72 261.1 C 342.56 261.28 331.38 262 306.49 262 C 286.66 262 272.59 261.46 267.54 261.1 L 267.54 261.1 C 190.91002 257.68 133.75 244.33 133.75 228.46 C 133.75 212.59 190.91002 199.07 267.54 195.65 L 267.54 247.76 C 272.54 248.12 286.84 249.02 306.67 249.02 C 330.47 249.02 342.37 247.93999 344.54 247.76 L 344.54 195.65 C 420.99 199.07 478.15 212.42 478.15 228.28 C 478.15 244.13998 421.15 257.68 344.72 261.1 Z M 344.72 190.41998 L 344.72 143.71 L 451.47 143.71 L 451.47 72.49 L 160.8 72.49 L 160.8 143.71 L 267.54 143.71 L 267.54 190.41998 C 180.81 194.42 115.54 211.50998 115.54 232.25 C 115.54 252.99002 180.81 269.94 267.54 274.08 L 267.54 423.57 L 344.72 423.57 L 344.72 274.08 C 431.26996 270.08 496.37 252.98 496.37 232.43 C 496.37 211.88 431.26996 194.38 344.72 190.42998 L 344.72 190.42998 Z"/>
            </g>
        </g>
    </g>
</svg>
