<svg width="647" height="631" xmlns="http://www.w3.org/2000/svg">
    <path fill="#4ba5f2" fill-rule="evenodd" stroke="none" d="M 149.397 87.8808 C 115.423 87.8808 87.8808 115.423 87.8808 149.397 L 87.8808 415.676 L 0.00007821 415.676 L 0.00002811 149.397 C 0.00001258 66.8875 66.8874 -0.00001258 149.397 -0.00002811 L 530.8 -0.00003318 L 582.21 87.88071 L 149.397 87.8808 Z"/>
    <path fill="#e7692c" fill-rule="evenodd" stroke="none" d="M 497.321 543.119 C 531.296 543.119 558.838 515.577 558.838 481.603 L 558.838 215.32399 L 646.719 215.32399 L 646.719 481.603 C 646.719 564.113 579.831 631 497.321 631 L 115.919 631 L 64.5087 543.119 L 497.321 543.119 Z"/>
    <path fill="#efbc41" fill-rule="evenodd" stroke="none" d="M 195.299 195.24298 L 647.006 195.24298 L 589.444 107.362 L 153.995 107.362 C 128.271 107.362 107.418 128.216 107.418 153.939 L 107.418 415.824 L 195.299 415.824 L 195.299 195.24298 Z"/>
    <path fill="#eb88ef" fill-rule="evenodd" stroke="none" d="M 451.75903 435.757 L 0.0518558 435.757 L 57.6138 523.638 L 493.06302 523.638 C 518.787 523.638 539.64 502.784 539.64 477.061 L 539.64 215.17598 L 451.75903 215.17598 L 451.75903 435.757 Z"/>
</svg>
