<svg width="1024" height="1024" xmlns="http://www.w3.org/2000/svg">
    <g id="iykyk">
        <path id="Rectangle" fill="#000000" fill-rule="evenodd" stroke="none" d="M 0 0 L 1024 0 L 1024 1024 L 0 1024 Z"/>
        <g id="IYKYK" transform="matrix(1 0 0 1 210.2 440.6)">
            <path id="Path" fill="#ffffff" stroke="none" d="M 39 0 L 39 142.4 L 0 142.4 L 0 0 Z"/>
            <path id="Path" fill="#ffffff" stroke="none" d="M 93 0 L 120 54.2 L 146.4 0 L 188.6 0 L 138.8 85.4 L 138.8 142.4 L 100.2 142.4 L 100.2 85.8 L 50 0 Z"/>
            <path id="Path" fill="#ffffff" stroke="none" d="M 238.2 56 L 280.8 0 L 325.4 0 L 271.8 67.6 L 331.8 142.4 L 282.6 142.4 L 238.2 85 L 238.2 142.4 L 199.6 142.4 L 199.6 0 L 238.2 0 Z"/>
            <path id="Path" fill="#ffffff" stroke="none" d="M 375.79996 0 L 402.8 54.2 L 429.2 0 L 471.4 0 L 421.6 85.4 L 421.6 142.4 L 383 142.4 L 383 85.8 L 332.8 0 Z"/>
            <path id="Path" fill="#ffffff" stroke="none" d="M 521 56 L 563.6 0 L 608.2 0 L 554.6 67.6 L 614.6 142.4 L 565.4 142.4 L 521 85 L 521 142.4 L 482.40002 142.4 L 482.40002 0 L 521 0 Z"/>
        </g>
    </g>
</svg>
