<svg width="164" height="164" xmlns="http://www.w3.org/2000/svg">
    <path fill="#16262d" stroke="none" d="M 163.5088 81.7544 C 163.5088 126.90611 126.90611 163.5088 81.7544 163.5088 C 36.60269 163.5088 0 126.90611 0 81.7544 C -0 36.60269 36.60269 0 81.7544 0 C 126.90611 0 163.5088 36.60269 163.5088 81.7544 Z"/>
    <path fill="#55ffff" fill-rule="evenodd" stroke="none" d="M 110.3 33.6636 L 92.52539 43.7296 L 92.52539 84.535 L 110.3 74.2402 L 110.3 33.6636 Z"/>
    <path fill="#55ffff" fill-rule="evenodd" stroke="none" d="M 74.7515 110.968 L 110.251 130.983 L 110.3 110.995 L 74.7515 91.17041 L 74.7515 110.968 Z"/>
    <path fill="#55ffff" fill-rule="evenodd" stroke="none" d="M 23.6494 83.7316 L 40.556 93.38289 L 74.7509 74.1945 L 57.658 64.6293 L 23.6494 83.7316 Z"/>
    <path fill="#55ffff" fill-rule="evenodd" stroke="none" d="M 88.1974 73.6632 L 60.934704 58.163002 C 56.2551 55.5021 53.373 50.5869 53.373 45.2664 L 53.373 34.3265 L 88.00309 54.0149 L 88.1974 73.6632 Z"/>
    <path fill="#55ffff" fill-rule="evenodd" stroke="none" d="M 139.859 81.9625 L 105.159 101.47599 L 87.90329 91.6647 L 114.78601 76.381 C 119.535 73.6803 125.386 73.687 130.128 76.3994 L 139.859 81.9625 Z"/>
    <path fill="#55ffff" fill-rule="evenodd" stroke="none" d="M 70.706 81.7332 L 70.6421 112.534 C 70.6316 117.931 67.6865 122.911 62.925503 125.583 L 53.309597 130.984 L 53.3735 91.66111 L 70.706 81.7332 Z"/>
</svg>
