<svg width="256" height="256.32" xmlns="http://www.w3.org/2000/svg">
    <g id="Layer_2">
        <path fill="#ffffff" stroke="none" d="M 206.95999 133.82 C 206.95999 184.77931 165.6493 226.09001 114.69001 226.09001 C 63.730694 226.09001 22.42001 184.77931 22.420006 133.82 C 22.420006 82.860695 63.730686 41.55001 114.69001 41.55001 C 165.6493 41.550014 206.95999 82.860695 206.95999 133.82 Z"/>
    </g>
    <path fill="#c88a1d" stroke="none" d="M 251.78 128.24 C 251.69 126.51999 251.57 124.83 251.36002 123.15 C 250.84999 117.47 249.88 111.91 248.5 106.47 C 248.08 104.73999 247.57 103.06 247.07 101.38 C 244.83 94.05001 241.89 87.06 238.27002 80.49 C 237.35 78.76 236.33 77.08 235.33 75.44 C 230.98 68.45 225.89 61.97 220.17 56.109997 C 218.44 54.34 216.67 52.620003 214.82 51.02 C 210.32002 46.93 205.43 43.23 200.30002 39.99 C 197.43 38.14 194.44 36.41 191.37 34.9 C 176.17 27.07 158.9 22.64 140.67 22.64 L 115.399994 22.64 L 115.399994 41.56 C 166.41 41.56 207.75 82.92 207.75 133.93 C 207.75 184.94002 166.41 226.29 115.399994 226.3 L 115.399994 245.23 L 140.67 245.23 C 157.52 245.23 173.47 241.47998 187.79 234.74 C 191.07 233.22998 194.27 231.54 197.38002 229.65001 C 202.52 226.61998 207.41002 223.16002 211.98999 219.29 C 213.92998 217.69 215.82 216 217.68 214.19 C 221.3 210.78 224.67 207.07 227.7 203.16 C 229.09 201.52 230.35 199.79 231.53 198.07 C 234.14 194.41 236.50002 190.62 238.65 186.66 C 239.53 185.02 240.42 183.29 241.17 181.56 C 244.25002 175.16002 246.69 168.42 248.5 161.39 C 248.92 159.7 249.3 158.02 249.64 156.29 C 250.4 152.67 250.94 149.01 251.32 145.26 C 251.54 143.58 251.67 141.89 251.74998 140.16 C 251.87001 138.1 251.92 136.03 251.92 133.93 C 251.92 132.04 251.87001 130.14 251.79 128.24 Z"/>
    <g>
        <path fill="#a47212" stroke="none" d="M 251.73999 140.16 C 251.66 141.89 251.53 143.57 251.31 145.26 L 220.24002 145.26 L 220.24002 140.16 L 251.73999 140.16 Z"/>
        <path fill="#a47212" stroke="none" d="M 249.63 156.29 C 249.3 158.02 248.91 159.7 248.49 161.39 L 210.3 161.39 L 210.3 156.29 L 249.63 156.29 Z"/>
        <path fill="#a47212" stroke="none" d="M 241.17 181.56 C 240.41 183.29 239.53 185.02 238.65 186.66 L 201.04 186.66 L 201.04 181.56 L 241.17 181.56 Z"/>
        <path fill="#a47212" stroke="none" d="M 231.53 198.06 C 230.35 199.79 229.09 201.51 227.7 203.15 L 188.66 203.15 L 188.66 198.06 L 231.53 198.06 Z"/>
        <path fill="#a47212" stroke="none" d="M 217.68 214.19 C 215.82 216 213.92998 217.69 211.98999 219.29 L 175.44 219.29 L 175.44 214.19 L 217.68 214.19 Z"/>
        <path fill="#a47212" stroke="none" d="M 197.37 229.65001 C 194.26 231.54 191.05998 233.22998 187.78 234.74 L 156.41 234.74 L 156.41 229.65001 L 197.38002 229.65001 Z"/>
        <path fill="#a47212" stroke="none" d="M 251.78 128.24 L 218.13 128.24 L 218.13 123.15 L 251.35002 123.15 C 251.56 124.84 251.68 126.51999 251.77 128.24 Z"/>
        <path fill="#a47212" stroke="none" d="M 248.5 106.48 L 214.31 106.48 L 214.31 101.39 L 247.07 101.39 C 247.57 103.07 248.08 104.76 248.5 106.48 Z"/>
        <path fill="#a47212" stroke="none" d="M 238.26 80.5 L 203.98999 80.5 L 203.98999 75.45 L 235.32 75.45 C 236.32 77.09 237.34 78.78 238.26 80.5 Z"/>
        <path fill="#a47212" stroke="none" d="M 220.16 56.109997 L 182.01 56.109997 L 182.01 51.02 L 214.80998 51.02 C 216.67 52.620003 218.44 54.35 220.16 56.109997 Z"/>
        <path fill="#a47212" stroke="none" d="M 200.28 39.99 L 163.3 39.99 L 163.3 34.9 L 191.35 34.9 C 194.42 36.41 197.41 38.14 200.28 39.99 Z"/>
    </g>
    <path fill="#f8ae0f" stroke="none" d="M 115.37 22.65 C 53.91 22.65 4.09 72.47 4.09 133.92 C 4.09 195.37001 53.92 245.21 115.37 245.21 C 176.81999 245.21 226.66 195.39 226.66 133.92 C 226.66 72.45 176.83998 22.65 115.37 22.65 Z M 115.37 226.3 C 64.36 226.3 23 184.94002 23 133.93 C 23 82.92 64.36 41.56 115.37 41.56 C 166.38 41.56 207.74 82.92 207.74 133.93 C 207.74 184.94002 166.39 226.3 115.37 226.3 Z"/>
    <g>
        <path fill="#0173bc" fill-rule="evenodd" stroke="none" d="M 90.9 179.4 C 93.94999 176.30002 96.95 173.24 99.96 170.19 C 115.64 185.28 138.66 180.62 147.01 173.01999 C 145.39 171.46 143.79 169.88 142.14 168.35 C 140.08 166.42 139.35 164.12 140.17 161.41 C 140.94 158.86 142.77 157.41 145.33 156.93 C 147.38 156.54 149.22 157.14 150.7 158.59 C 152.41 160.27 154.04 162.04 155.92 164 C 161.41 156.27 163.02 148.05 162.22 139.31 C 161.42 130.46 157.64 122.93 151.25 116.82 C 154.31 113.65 157.22 110.63 160.38 107.36 C 162.23 109.51 164.2 111.61 165.94 113.87999 C 170.83 120.24 173.85 127.46001 174.89 135.39 C 176.62 148.63 174.45 161.03 166.33 171.98 C 165.71 172.82 165.91 173.22 166.55 173.83 C 169.03 176.17 171.47 178.55 173.90999 180.93 C 176.68 183.63 177 187.18 174.76 189.98 C 172.43 192.89 168.05 193.22998 165.28 190.65 C 162.72 188.25002 160.23 185.79 157.73 183.32 C 157.04 182.64 156.49 182.33 155.58 183.05998 C 149.27 188.10002 142.1 191.29 134.11 192.46 C 117.87999 194.84 103.42 191.11 91.20999 179.79 C 91.07 179.66 90.95999 179.48999 90.89001 179.4 Z"/>
        <path fill="#565455" fill-rule="evenodd" stroke="none" d="M 85.92 167.91 C 82.03 170.74 77.87 172.74002 73.31 173.85 C 65.49 175.75 58.360004 174.3 52.22 169.03 C 48.48 165.82 46.589996 161.4 45.3 156.79 C 44.67 154.51 44.56 152.06 44.39 149.68 C 44.31 148.64 43.92 148.42 43.09 148.7 C 41.27 149.32 39.47 149.99 37.62 150.67 C 37.69 146.58 38.46 142.51 40.66 138.8 C 42.94 134.97 46.44 132.95 51.05 132.27 C 48.520004 130.41 46.22 128.71 43.72 126.86 C 47.539997 123.16 51.61 120.39 56.73 119.55 C 61.99 118.68 66.46 120.5 70.44 124.09999 C 76.14 105.53 88.55 94.23 106.95999 88.96 C 106.61 88.58 106.37001 88.28 106.1 88.03001 C 100.31 82.59 99.329994 75.96 103.49 69.18 C 104.71 67.19 106.37001 65.47 107.81 63.62 C 108.47001 62.76 109.28 62.69 110.02 63.34 C 111.03 64.21 111.92 65.22 112.84 66.2 C 113.13 66.51 113.33 66.91 113.7 67.47 C 117.12 57.87 124.4 55.31 133.7 55.97 C 132.95 57.07 132.17 57.98 131.65 59.02 C 131.16 60.01 130.93 61.14 130.5 62.489998 C 131.59 62.38 132.3 62.28 133.02 62.23 C 140.58 61.71 146.58 64.78 151.33 70.42 C 155.18 74.99 158.12 80.04 157.83 86.3 C 157.59 91.43 155.01 95.32 150.97 98.38999 C 155.21 89.33 156.12 80.69 148.16 73.01 C 140.62 65.73 132.01 65.28 122.67 69.15 C 122.450005 66.43 123.46001 64.34 124.920006 62.360004 C 121.54 64.15 119.05 66.85 117.39 70.19 C 115.76 73.47 114.53 76.93 113.14 80.28 C 110.97 77.86 109.869995 74.65 108.72001 71.2 C 107.51 72.55 107.23 74.04 107.1 75.56 C 106.76999 79.54 108.350006 82.91 110.66 85.98 C 111.92 87.649994 113.38 89.15 114.759995 90.759995 C 93.84 96.91001 79.02 109.29 73.43 131.21 C 71.84 130 70.34 128.77 68.75 127.66 C 66.19 125.86 63.44 124.3 60.269997 124.08 C 58.66 123.96999 56.88 124.350006 55.37 124.979996 C 53.45 125.77 53.44 126.61 55.14 127.79 C 56.45 128.7 57.9 129.41 59.31 130.16 C 59.92 130.49 60.57 130.72 61.15 130.96 C 58.049995 132.29 54.88 133.45 51.88 134.98 C 48.86 136.52 46.300003 138.67 45.2 142.08 C 46.98 143.41 48.18 143.62 50.98 143.11 C 50.649998 144.16 50.28 145.12 50.04 146.1 C 48.24 153.36 50.32 159.6 55.05 165.18 C 58.44 169.18 63.03 170.31 67.9 170.76 C 73.75 171.31 79.34 170.03 84.8 168.02 C 85.03 167.93 85.26 167.85 85.5 167.78 C 85.58 167.76 85.67 167.82 85.91 167.89 Z"/>
        <path fill="#000000" fill-rule="evenodd" stroke="none" d="M 137.46 148.48 C 137.49 152.8 134.62 155.17 130.22 154.4 C 126.05001 153.67 122.56 151.58 119.39 148.89 C 115.29 145.4 111.88 141.37 110.09 136.21 C 109.6 134.81 109.26 133.3 109.22 131.82 C 109.10999 128.03 111.87 125.69 115.66 126.130005 C 120.06 126.65 123.72 128.78 127.020004 131.53 C 131.68 135.41 135.41 139.97 137.03 145.97 C 137.25 146.79 137.32 147.64 137.46 148.47 Z"/>
        <path fill="#0173bc" fill-rule="evenodd" stroke="none" d="M 140.19 92.4 C 136.69 90.01 133.21 88.670006 129.5 87.95 C 128.42 87.74 127.329994 87.56 126.24 87.48 C 123.14001 87.24 121.77 85.47 122.51999 82.53 C 123.35 79.26 127.46001 74.49 132.3 75.24 C 133.8 75.47 135.43 76.11 136.6 77.06 C 140.04 79.84 142.13 83.42 141.58 88.03001 C 141.42 89.45 140.72 90.81 140.2 92.409996 Z"/>
        <path fill="#0173bc" fill-rule="evenodd" stroke="none" d="M 73.17 160.04 C 70.31 162.23 65.92 161.99 63.21 159.29 C 60.18 156.26 58.38 152.59 58.6 148.15 C 58.809998 144.06 63.59 140.46 67.58 141.38 C 69.66 141.86 70.61 143.33 70.22 145.49 C 69.39 150.08 71.01 154.24 72.5 158.43 C 72.7 158.98 72.95 159.52 73.17 160.03 Z"/>
        <path fill="#000000" fill-rule="evenodd" stroke="none" d="M 101.51 148.51 C 101.54 151.34 99.38 153.58 96.55 153.63 C 93.65 153.69 91.41 151.48 91.38 148.56 C 91.36 145.77 93.61001 143.5 96.409996 143.5 C 99.22 143.5 101.48001 145.72 101.49999 148.52 Z"/>
        <path fill="#000000" fill-rule="evenodd" stroke="none" d="M 125.57 114.26 C 125.549995 111.36 127.75 109.15 130.69 109.14 C 133.45 109.14 135.78 111.47 135.76 114.21 C 135.74 116.93 133.41 119.26001 130.65 119.29 C 127.90001 119.329994 125.59 117.05 125.57 114.25001 Z"/>
    </g>
</svg>
