<svg width="256" height="256" xmlns="http://www.w3.org/2000/svg">
    <path fill="#121314" stroke="none" d="M 0 0 L 256 0 L 256 256 L 0 256 Z"/>
    <path fill="#f5f5ef" stroke="none" d="M 96.70369 74.6525 C 93.49999 74.6525 90.4074 75.9304 88.1481 78.1898 L 77.0741 89.26489 C 74.7963 91.5429 73.537 94.6173 73.537 97.8213 L 73.537 160.438 C 73.537 163.642 74.8148 166.735 77.0741 168.995 L 88.1481 180.07 C 90.42591 182.348 93.49999 183.607 96.70369 183.607 L 159.315 183.607 C 162.519 183.607 165.611 182.329 167.87 180.07 L 178.944 168.995 C 181.22198 166.717 182.481 163.642 182.481 160.438 L 182.481 97.8213 C 182.481 94.6173 181.204 91.52441 178.944 89.26489 L 167.87 78.1898 C 165.593 75.9118 162.519 74.6525 159.315 74.6525 L 96.70369 74.6525 Z M 164.315 161.438 C 164.315 163.661 162.5 165.476 160.278 165.476 L 95.7037 165.476 C 93.48151 165.476 91.666695 163.661 91.666695 161.438 L 91.666695 96.85821 C 91.666695 94.6358 93.48151 92.8208 95.7037 92.8208 L 160.278 92.8208 C 162.5 92.8208 164.315 94.6358 164.315 96.85821 L 164.315 161.438 Z"/>
    <path fill="#f5f5ef" stroke="none" d="M 58.259304 209.85 L 60.2778 209.85 C 62.5 209.85 64.3148 208.035 64.3148 205.813 L 64.3148 195.71901 C 64.3148 193.49698 62.5 191.682 60.2778 191.682 L 50.1852 191.682 C 47.963 191.682 46.1481 193.49698 46.1481 195.71901 L 46.1481 197.738 C 46.1481 204.42398 51.574104 209.85 58.259304 209.85 Z"/>
    <path fill="#f5f5ef" stroke="none" d="M 164.315 205.813 C 164.315 208.035 162.5 209.85 160.278 209.85 L 95.7037 209.85 C 93.48151 209.85 91.666695 208.035 91.666695 205.813 L 91.666695 195.71901 C 91.666695 193.49698 89.85189 191.682 87.6296 191.682 L 77.537 191.682 C 75.3148 191.682 73.5 193.49698 73.5 195.71901 L 73.5 204.831 C 73.5 208.035 74.7778 211.128 77.037 213.388 L 88.11111 224.463 C 90.3889 226.741 93.463 228 96.6667 228 L 159.278 228 C 162.481 228 165.574 226.722 167.833 224.463 L 178.907 213.388 C 181.185 211.10999 182.44398 208.035 182.44398 204.831 L 182.44398 195.71901 C 182.44398 193.49698 180.62999 191.682 178.407 191.682 L 168.315 191.682 C 166.093 191.682 164.278 193.49698 164.278 195.71901 L 164.278 205.813 L 164.315 205.813 Z"/>
    <path fill="#f5f5ef" stroke="none" d="M 195.722 209.85 L 197.741 209.85 C 204.426 209.85 209.852 204.42398 209.852 197.738 L 209.852 195.71901 C 209.852 193.49698 208.037 191.682 205.815 191.682 L 195.722 191.682 C 193.5 191.682 191.685 193.49698 191.685 195.71901 L 191.685 205.813 C 191.685 208.035 193.5 209.85 195.722 209.85 Z"/>
    <path fill="#f5f5ef" stroke="none" d="M 197.741 46.1683 L 195.722 46.1683 C 193.5 46.1683 191.685 47.9833 191.685 50.2058 L 191.685 60.2993 C 191.685 62.5217 193.5 64.3367 195.722 64.3367 L 205.815 64.3367 C 208.037 64.3367 209.852 62.5217 209.852 60.2993 L 209.852 58.2806 C 209.852 51.5948 204.426 46.1683 197.741 46.1683 Z"/>
    <path fill="#f5f5ef" stroke="none" d="M 50.2037 64.3182 L 60.2963 64.3182 C 62.5185 64.3182 64.3333 62.5032 64.3333 60.2808 L 64.3333 50.1872 C 64.3333 47.9648 62.5185 46.1498 60.2963 46.1498 L 58.2778 46.1498 C 51.5926 46.1498 46.1667 51.576298 46.1667 58.262096 L 46.1667 60.2808 C 46.1667 62.5032 47.981495 64.3182 50.2037 64.3182 Z"/>
    <path fill="#f5f5ef" stroke="none" d="M 96.70369 28 C 93.49999 28 90.4074 29.2779 88.1481 31.537401 L 77.0741 42.6125 C 74.7963 44.890503 73.537 47.9648 73.537 51.1688 L 73.537 60.2808 C 73.537 62.5032 75.3519 64.3182 77.5741 64.3182 L 87.666695 64.3182 C 89.8889 64.3182 91.7037 62.5032 91.7037 60.2808 L 91.7037 50.1872 C 91.7037 47.9648 93.5185 46.1498 95.7407 46.1498 L 160.315 46.1498 C 162.537 46.1498 164.352 47.9648 164.352 50.1872 L 164.352 60.2808 C 164.352 62.5032 166.167 64.3182 168.389 64.3182 L 178.481 64.3182 C 180.704 64.3182 182.51898 62.5032 182.51898 60.2808 L 182.51898 51.1688 C 182.51898 47.9648 181.241 44.8719 178.981 42.6125 L 167.907 31.537401 C 165.63 29.2594 162.556 28 159.352 28 L 96.70369 28 Z"/>
    <path fill="#f5f5ef" stroke="none" d="M 31.537 88.1352 C 29.2593 90.4132 28 93.4875 28 96.6915 L 28 159.308 C 28 162.512 29.277798 165.605 31.537 167.865 L 42.6111 178.94 C 44.888897 181.218 47.963 182.477 51.1667 182.477 L 60.2778 182.477 C 62.5 182.477 64.3148 180.662 64.3148 178.44 L 64.3148 168.346 C 64.3148 166.124 62.5 164.309 60.2778 164.309 L 50.1852 164.309 C 47.963 164.309 46.1481 162.494 46.1481 160.272 L 46.1481 95.6914 C 46.1481 93.469 47.963 91.654 50.1852 91.654 L 60.2778 91.654 C 62.5 91.654 64.3148 89.8391 64.3148 87.61661 L 64.3148 77.5231 C 64.3148 75.3007 62.5 73.4857 60.2778 73.4857 L 51.1667 73.4857 C 47.963 73.4857 44.8704 74.7636 42.6111 77.0231 L 31.537 88.0982 L 31.537 88.1352 Z"/>
    <path fill="#f5f5ef" stroke="none" d="M 204.833 73.5227 L 195.722 73.5227 C 193.5 73.5227 191.685 75.3377 191.685 77.5601 L 191.685 87.6537 C 191.685 89.8761 193.5 91.6911 195.722 91.6911 L 205.815 91.6911 C 208.037 91.6911 209.852 93.506096 209.852 95.7285 L 209.852 160.309 C 209.852 162.531 208.037 164.346 205.815 164.346 L 195.722 164.346 C 193.5 164.346 191.685 166.161 191.685 168.383 L 191.685 178.47702 C 191.685 180.69902 193.5 182.514 195.722 182.514 L 204.833 182.514 C 208.037 182.514 211.13 181.236 213.389 178.97702 L 224.463 167.902 C 226.741 165.624 228 162.549 228 159.345 L 228 96.7286 C 228 93.52459 226.722 90.4317 224.463 88.1722 L 213.389 77.0971 C 211.111 74.8192 208.037 73.5598 204.833 73.5598 L 204.833 73.5227 Z"/>
</svg>
