<svg width="256" height="256" xmlns="http://www.w3.org/2000/svg">
    <defs>
        <linearGradient id="paint0_linear_550_12143" x1="128" y1="0" x2="128" y2="256" gradientUnits="userSpaceOnUse">
            <stop offset="0" stop-color="#1e201d"/>
            <stop offset="1" stop-color="#1c2c20"/>
        </linearGradient>
    </defs>
    <path fill="url(#paint0_linear_550_12143)" stroke="none" d="M 128 0 L 128 0 C 198.69243 0 256 57.307552 256 128 L 256 128 C 256 198.69243 198.69243 256 128 256 L 128 256 C 57.307552 256 0 198.69243 0 128 L 0 128 C 0 57.307552 57.307552 0 128 0 Z"/>
    <path fill="#ffffff" fill-rule="evenodd" stroke="none" d="M 205.842 164.186 C 212.049 153.702 213.011 140.089 206.05 128.024 L 173.813 72.15 C 170.101 65.7169 164.775 60.3772 158.367 56.6654 C 151.959 52.9537 144.694 51 137.3 51 L 113.486 51 C 113.444 51 113.402 51.001 113.361 51.003 C 107.05599 51.025005 100.86499 52.6982 95.39791 55.859104 C 89.8941 59.040997 85.316 63.6191 82.1203 69.1366 L 48.9024 126.49099 C 45.644505 132.116 43.919106 138.506 43.9005 145.017 C 43.8819 151.527 45.570896 157.928 48.7966 163.572 L 53.3768 171.585 L 60.8591 185.394 C 63.6095 191.597 68.0894 196.867 73.7572 200.564 C 79.469 204.289 86.1383 206.254 92.9454 206.21799 L 92.95131 206.21799 L 160.876 206.142 C 167.587 206.134 174.17102 204.299 179.92801 200.831 C 185.68599 197.36302 190.40298 192.391 193.579 186.444 L 196.896 180.23302 L 205.842 164.186 Z M 126.617 59.3728 C 130.647 61.4237 134.146 64.3898 136.838 68.0357 L 177.967 139.321 C 178.041 139.448 178.10999 139.577 178.176 139.708 C 178.69 140.736 178.96002 141.873 178.962 143.028 C 178.964 144.331 178.625 145.612 177.979 146.741 C 177.332 147.87 176.401 148.808 175.28 149.461 C 174.158 150.113 172.886 150.456 171.59 150.456 L 160.486 150.456 L 129.37 95.6693 C 129.356 95.641 129.34 95.6129 129.324 95.5851 L 122.97401 84.4037 C 121.917 82.5434 120.392 80.9962 118.551 79.9185 C 116.71 78.8408 114.618 78.2708 112.488 78.2659 L 112.488 78.2697 C 112.488 78.2697 112.489 78.2697 112.488 78.2697 C 110.35801 78.2653 108.262 78.8264 106.41601 79.8962 C 104.571 80.9659 103.038 82.5072 101.973 84.3631 L 62.515495 153.109 L 62.508297 153.122 L 62.4661 153.196 C 59.699104 157.953 58.090103 163.3 57.7689 168.801 L 53.2936 160.971 C 50.5226 156.123 49.0718 150.625 49.0878 145.032 C 49.1038 139.439 50.585896 133.95 53.3846 129.117 L 86.6024 71.7633 C 89.3414 67.0342 93.26541 63.1103 97.9827 60.3831 C 102.700005 57.6559 108.046 56.2207 113.487 56.2207 C 118.049 56.2213 122.547 57.301098 126.617 59.3728 Z M 124.084 96.8801 L 118.47 86.99539 C 117.866 85.9319 116.993 85.0475 115.940994 84.4317 C 114.888 83.8158 113.693 83.4902 112.475006 83.4876 C 111.257996 83.4851 110.061 83.8058 109.006 84.4174 C 107.95099 85.0289 107.075 85.9096 106.466 86.970505 L 67.0149 155.706 L 67.0077 155.718 L 66.95 155.82 C 64.5598 159.925 63.1835 164.548 62.9367 169.299 C 62.6899 174.05 63.5795 178.791 65.531 183.124 L 65.5335 183.12498 L 65.5406 183.141 C 67.8773 188.479 71.7143 193.013 76.5793 196.186 C 81.4442 199.359 87.124794 201.03201 92.9227 201 L 92.93409 201 L 160.87 200.924 C 166.645 200.917 172.309 199.338 177.264 196.354 C 182.21799 193.37 186.277 189.09201 189.009 183.97502 L 192.337 177.743 L 192.36 177.701 L 192.68301 177.12099 C 189.83499 178.724 186.71898 179.946 183.383 180.70499 C 180.769 181.305 178.084 181.60602 175.38 181.592 L 98.4317 181.592 C 96.1251 181.592 93.8587 180.98198 91.8604 179.824 C 89.862 178.66501 88.2018 176.997 87.0465 174.989 C 85.8911 172.981 85.2811 170.702 85.2778 168.382 C 85.2745 166.061 85.8779 163.781 87.0276 161.769 L 124.084 96.8801 Z M 184.786 174.909 C 181.865 175.856 178.714 176.37398 175.38498 176.37398 L 98.43061 176.37398 C 97.0338 176.37398 95.6615 176.00499 94.4513 175.30298 C 93.2412 174.601 92.23581 173.592 91.536095 172.375 C 90.836395 171.159 90.467 169.779 90.4651 168.374 C 90.4631 166.969 90.8289 165.587 91.5251 164.369 L 96.4904 155.674 L 158.863 155.674 C 158.903 155.676 158.943 155.677 158.983 155.677 L 171.592 155.677 C 173.799 155.677 175.96698 155.092 177.877 153.981 C 179.788 152.87 181.374 151.272 182.47499 149.347 C 183.57701 147.423 184.154 145.241 184.151 143.022 C 184.147 141.048 183.68402 139.107 182.80402 137.351 C 182.693 137.13 182.576 136.913 182.452 136.699 L 141.253 65.2917 L 141.251 65.289 C 141.204 65.2075 141.153 65.1287 141.097 65.0528 C 138.516 61.521996 135.295 58.5263 131.613 56.218 L 137.3 56.218 C 143.785 56.218 150.158 57.9316 155.778 61.1873 C 161.399 64.443 166.071 69.1266 169.326 74.7693 L 201.564 130.643 C 207.419 140.791 206.708 152.222 201.617 161.117 C 201.579 161.173 201.543 161.23 201.509 161.29 C 201.286 161.679 201.055 162.062 200.81598 162.439 C 198.313 166.349 194.934 169.698 190.882 172.13298 C 190.747 172.214 190.61201 172.293 190.476 172.372 C 188.66399 173.418 186.757 174.267 184.786 174.909 Z M 99.4702 150.456 L 154.512 150.456 L 127.067 102.131996 L 99.4702 150.456 Z"/>
</svg>
