<svg width="631.8" height="629" xmlns="http://www.w3.org/2000/svg">
    <defs>
        <linearGradient id="SVGID_1_" x1="2.4556" y1="-56.0773" x2="303.3444" y2="465.0773" gradientUnits="userSpaceOnUse">
            <stop offset="0.0007887628" stop-color="#2f353d"/>
            <stop offset="0.1394" stop-color="#314348"/>
            <stop offset="0.4008" stop-color="#376864"/>
            <stop offset="0.7542" stop-color="#41a291"/>
            <stop offset="1" stop-color="#48cfb4"/>
        </linearGradient>
        <clipPath id="SVGID_5_">
            <path fill="#000000" stroke="none" d="M 87.7 271.6 L 207 92.4 C 208 90.8 208.8 89.1 209.3 87.3 L 218.2 51 C 221.7 36.8 206.3 25.6 193.8 33.2 L 34.3 131.1 C 31 133.1 28.499998 136.2 27.3 139.9 L 16.5 172.7 C 15.2 176.8 15.5 181.2 17.4 185 L 59.4 269.8 C 65.1 281.1 80.8 282.1 87.7 271.6 Z"/>
        </clipPath>
        <clipPath id="SVGID_9_">
            <path fill="#000000" stroke="none" d="M 112 375.9 L 271.5 278 C 274.8 276 277.3 272.9 278.5 269.2 L 289.3 236.39998 C 290.6 232.30002 290.3 227.89998 288.4 224.1 L 246.4 139.3 C 240.8 128 225.20001 127 218.2 137.5 L 98.8 316.7 C 97.80001 318.3 97 320 96.5 321.8 L 87.6 358.1 C 84.2 372.3 99.6 383.5 112 375.9 Z"/>
        </clipPath>
        <clipPath id="SVGID_15_">
            <path fill="#000000" stroke="none" d="M 180.3 98.50001 L 29.2 134.2 L 72.1 295.2 Z"/>
        </clipPath>
        <clipPath id="SVGID_17_">
            <path fill="#000000" stroke="none" d="M 87.7 271.6 L 207 92.4 C 208 90.8 208.8 89.1 209.3 87.3 L 218.2 51 C 221.7 36.8 206.3 25.6 193.8 33.2 L 34.3 131.1 C 31 133.1 28.499998 136.2 27.3 139.9 L 16.5 172.7 C 15.2 176.8 15.5 181.2 17.4 185 L 59.4 269.8 C 65.1 281.1 80.8 282.1 87.7 271.6 Z"/>
        </clipPath>
        <clipPath id="SVGID_19_">
            <path fill="#000000" stroke="none" d="M 180.3 98.50001 L 29.2 134.2 L 72.1 295.2 Z"/>
        </clipPath>
        <clipPath id="SVGID_21_">
            <path fill="#000000" stroke="none" d="M 112 375.9 L 271.5 278 C 274.8 276 277.3 272.9 278.5 269.2 L 289.3 236.39998 C 290.6 232.30002 290.3 227.89998 288.4 224.1 L 246.4 139.3 C 240.8 128 225.20001 127 218.2 137.5 L 98.8 316.7 C 97.80001 318.3 97 320 96.5 321.8 L 87.6 358.1 C 84.2 372.3 99.6 383.5 112 375.9 Z"/>
        </clipPath>
        <clipPath id="SVGID_23_">
            <path fill="#000000" stroke="none" d="M 125.49999 310.6 L 276.6 274.9 L 233.7 114 Z"/>
        </clipPath>
        <clipPath id="SVGID_25_">
            <path fill="#000000" stroke="none" d="M 125.49999 310.6 L 276.6 274.9 L 233.7 114 Z"/>
        </clipPath>
        <clipPath id="SVGID_29_">
            <path fill="#000000" stroke="none" d="M 87.7 271.6 L 207 92.4 C 208 90.8 208.8 89.1 209.3 87.3 L 218.2 51 C 221.7 36.8 206.3 25.6 193.8 33.2 L 34.3 131.1 C 31 133.1 28.499998 136.2 27.3 139.9 L 16.5 172.7 C 15.2 176.8 15.5 181.2 17.4 185 L 59.4 269.8 C 65.1 281.1 80.8 282.1 87.7 271.6 Z"/>
        </clipPath>
        <clipPath id="SVGID_33_">
            <path fill="#000000" stroke="none" d="M 112 375.9 L 271.5 278 C 274.8 276 277.3 272.9 278.5 269.2 L 289.3 236.39998 C 290.6 232.30002 290.3 227.89998 288.4 224.1 L 246.4 139.3 C 240.8 128 225.20001 127 218.2 137.5 L 98.8 316.7 C 97.80001 318.3 97 320 96.5 321.8 L 87.6 358.1 C 84.2 372.3 99.6 383.5 112 375.9 Z"/>
        </clipPath>
    </defs>
    <g transform="matrix(1 0 0 1 163 110)">
        <g>
            <g>
                <path fill="#192123" stroke="none" d="M 453.69998 204.50002 C 453.69998 370.62726 319.02725 505.29996 152.9 505.29996 C -13.227252 505.29996 -147.9 370.62726 -147.9 204.50002 C -147.9 38.372753 -13.227252 -96.29999 152.9 -96.29999 C 319.02725 -96.29999 453.69998 38.372753 453.69998 204.50002 Z"/>
            </g>
            <g opacity="0.7">
                <path fill="url(#SVGID_1_)" stroke="none" d="M 152.9 -73 C 189 -73 224.1 -66.2 257.3 -52.7 C 291.7 -38.7 322.6 -18.2 349.1 8.3 C 375.6 34.8 396.1 65.7 410.1 100.09999 C 423.6 133.3 430.4 168.5 430.4 204.50002 C 430.4 240.5 423.6 275.7 410.1 308.9 C 396.1 343.3 375.6 374.19998 349.1 400.7 C 322.6 427.2 291.7 447.7 257.3 461.7 C 224.1 475.2 189 482 152.9 482 C 116.8 482 81.7 475.2 48.5 461.7 C 14.1 447.7 -16.8 427.2 -43.3 400.7 C -69.8 374.19998 -90.3 343.3 -104.3 308.9 C -117.80001 275.7 -124.600006 240.5 -124.600006 204.50002 C -124.600006 168.5 -117.80001 133.3 -104.3 100.09999 C -90.3 65.7 -69.8 34.8 -43.3 8.3 C -16.8 -18.2 14.1 -38.7 48.5 -52.7 C 81.7 -66.2 116.8 -73 152.9 -73 M 152.9 -96.3 C 75.9 -96.3 -1.1 -66.9 -59.8 -8.2 C -177.3 109.299995 -177.3 299.7 -59.8 417.2 C -1.1 475.9 75.9 505.29996 152.9 505.29996 C 229.9 505.29996 306.9 475.9 365.59998 417.2 C 483.1 299.7 483.1 109.299995 365.59998 -8.2 C 306.9 -66.9 229.9 -96.3 152.9 -96.3 L 152.9 -96.3 Z"/>
            </g>
            <g>
                <g>
                    <g/>
                    <g>
                        <g clip-path="url(#SVGID_5_)"/>
                    </g>
                    <g>
                        <g clip-path="url(#SVGID_9_)"/>
                        <g clip-path="url(#SVGID_9_)"/>
                    </g>
                </g>
                <g>
                    <g>
                        <g clip-path="url(#SVGID_15_)" opacity="0.5">
                            <path fill="none" stroke="#ffffff" stroke-miterlimit="10" stroke-width="26.7624" d="M 202 173.9 L -5.4 276.5"/>
                        </g>
                        <g clip-path="url(#SVGID_15_)" opacity="0.5">
                            <path fill="none" stroke="#ffffff" stroke-miterlimit="10" stroke-width="13.3812" d="M 227.60002 117.2 L 20.2 219.7"/>
                        </g>
                    </g>
                    <path fill="#ffffff" stroke="none" d="M 62.900005 124.600006 C 64.8 126.50001 68.3 136.3 68.3 136.3 C 68.3 136.3 71.3 127.1 73.7 124.600006 C 76.1 122.1 85.4 119.2 85.4 119.2 C 85.4 119.2 75.8 115.90001 73.7 113.80001 C 71.6 111.7 68.3 102.1 68.3 102.1 C 68.3 102.1 65.2 111.5 62.900005 113.80001 C 60.6 116.09999 51.2 119.2 51.2 119.2 C 51.2 119.2 60.900005 122.6 62.900005 124.600006 Z"/>
                    <path fill="#ffffff" stroke="none" d="M 126 136.6 C 126.9 137.5 128.4 141.9 128.4 141.9 C 128.4 141.9 129.7 137.7 130.8 136.6 C 131.9 135.5 136.1 134.2 136.1 134.2 C 136.1 134.2 131.8 132.7 130.8 131.8 C 129.8 130.8 128.4 126.50001 128.4 126.50001 C 128.4 126.50001 127 130.7 126 131.8 C 125 132.9 120.7 134.2 120.7 134.2 C 120.7 134.2 125.1 135.8 126 136.6 Z"/>
                    <g>
                        <g clip-path="url(#SVGID_17_)">
                            <g>
                                <path fill="#19898a" stroke="none" d="M 227.60002 12.4 L 29.2 134.2 L 180.3 98.50001 Z"/>
                            </g>
                            <g>
                                <path fill="#68fee2" stroke="none" d="M 180.3 98.50001 L 180.3 98.50001 L 72.1 295.2 L 208.5 90 L 227.60002 12.4 L 180.3 98.50001 Z"/>
                            </g>
                            <path fill="#1fc9a8" stroke="none" d="M 180.3 98.50001 L 29.2 134.2 L 72.1 295.2 Z"/>
                            <g>
                                <path fill="#68fee2" stroke="none" d="M 72.1 295.2 L 29.2 134.2 L 14.5 179 Z"/>
                            </g>
                        </g>
                        <g clip-path="url(#SVGID_17_)">
                            <g clip-path="url(#SVGID_19_)" opacity="0.6">
                                <path fill="none" stroke="#ffffff" stroke-miterlimit="10" stroke-width="26.7624" d="M 130.4 248.6 L 76.8 23.500002"/>
                            </g>
                            <g clip-path="url(#SVGID_19_)" opacity="0.6">
                                <path fill="none" stroke="#ffffff" stroke-miterlimit="10" stroke-width="13.3812" d="M 180 286.2 L 126.50001 61.099995"/>
                            </g>
                        </g>
                        <g clip-path="url(#SVGID_17_)">
                            <path fill="#ffffff" stroke="none" d="M 62.900005 124.600006 C 64.8 126.50001 68.3 136.3 68.3 136.3 C 68.3 136.3 71.3 127.1 73.7 124.600006 C 76.1 122.1 85.4 119.2 85.4 119.2 C 85.4 119.2 75.8 115.90001 73.7 113.80001 C 71.6 111.7 68.3 102.1 68.3 102.1 C 68.3 102.1 65.2 111.5 62.900005 113.80001 C 60.6 116.09999 51.2 119.2 51.2 119.2 C 51.2 119.2 60.900005 122.6 62.900005 124.600006 Z"/>
                        </g>
                        <g clip-path="url(#SVGID_17_)">
                            <path fill="#ffffff" stroke="none" d="M 126 136.6 C 126.9 137.5 128.4 141.9 128.4 141.9 C 128.4 141.9 129.7 137.7 130.8 136.6 C 131.9 135.5 136.1 134.2 136.1 134.2 C 136.1 134.2 131.8 132.7 130.8 131.8 C 129.8 130.8 128.4 126.50001 128.4 126.50001 C 128.4 126.50001 127 130.7 126 131.8 C 125 132.9 120.7 134.2 120.7 134.2 C 120.7 134.2 125.1 135.8 126 136.6 Z"/>
                        </g>
                    </g>
                    <g>
                        <g clip-path="url(#SVGID_21_)">
                            <g>
                                <path fill="#19898a" stroke="none" d="M 78.2 396.7 L 276.6 274.9 L 125.49999 310.6 Z"/>
                            </g>
                            <g>
                                <path fill="#68fee2" stroke="none" d="M 125.49999 310.6 L 125.49999 310.6 L 233.7 114 L 97.299995 319.1 L 78.2 396.7 L 125.49999 310.6 Z"/>
                            </g>
                            <g>
                                <path fill="#3ac1ac" stroke="none" d="M 125.49999 310.6 L 276.6 274.9 L 233.7 114 Z"/>
                            </g>
                            <g>
                                <path fill="#68fee2" stroke="none" d="M 233.7 114 L 276.6 274.9 L 291.3 230.1 Z"/>
                            </g>
                        </g>
                        <g clip-path="url(#SVGID_21_)">
                            <g clip-path="url(#SVGID_23_)" opacity="0.5">
                                <path fill="none" stroke="#ffffff" stroke-miterlimit="10" stroke-width="26.7624" d="M 295.2 291.3 L 91.90001 180.7"/>
                            </g>
                            <g clip-path="url(#SVGID_23_)" opacity="0.5">
                                <path fill="none" stroke="#ffffff" stroke-miterlimit="10" stroke-width="13.3812" d="M 356.3 279.5 L 153.1 169"/>
                            </g>
                        </g>
                        <g clip-path="url(#SVGID_21_)">
                            <path fill="#ffffff" stroke="none" d="M 179.8 308.2 C 178.9 307.3 177.4 302.9 177.4 302.9 C 177.4 302.9 176.1 307.1 175 308.2 C 173.9 309.3 169.7 310.6 169.7 310.6 C 169.7 310.6 174 312.1 175 313 C 176 313.9 177.4 318.3 177.4 318.3 C 177.4 318.3 178.8 314.1 179.8 313 C 180.8 311.9 185.1 310.6 185.1 310.6 C 185.1 310.6 180.7 309 179.8 308.2 Z"/>
                        </g>
                        <g clip-path="url(#SVGID_21_)">
                            <g>
                                <path fill="#19898a" stroke="none" d="M 78.2 396.7 L 276.6 274.9 L 125.49999 310.6 Z"/>
                            </g>
                            <g>
                                <path fill="#68fee2" stroke="none" d="M 125.49999 310.6 L 125.49999 310.6 L 233.7 114 L 97.299995 319.1 L 78.2 396.7 L 125.49999 310.6 Z"/>
                            </g>
                            <path fill="#1fc9a8" stroke="none" d="M 125.49999 310.6 L 276.6 274.9 L 233.7 114 Z"/>
                            <g>
                                <path fill="#68fee2" stroke="none" d="M 233.7 114 L 276.6 274.9 L 291.3 230.1 Z"/>
                            </g>
                        </g>
                        <g clip-path="url(#SVGID_21_)">
                            <g clip-path="url(#SVGID_25_)" opacity="0.6">
                                <path fill="none" stroke="#ffffff" stroke-miterlimit="10" stroke-width="22.5264" d="M 308.7 273.4 L 105.49999 162.9"/>
                            </g>
                            <g clip-path="url(#SVGID_25_)" opacity="0.6">
                                <path fill="none" stroke="#ffffff" stroke-miterlimit="10" stroke-width="15.0176" d="M 369.90002 261.7 L 166.6 151.1"/>
                            </g>
                        </g>
                        <g clip-path="url(#SVGID_21_)">
                            <path fill="#ffffff" stroke="none" d="M 179.8 308.2 C 178.9 307.3 177.4 302.9 177.4 302.9 C 177.4 302.9 176.1 307.1 175 308.2 C 173.9 309.3 169.7 310.6 169.7 310.6 C 169.7 310.6 174 312.1 175 313 C 176 313.9 177.4 318.3 177.4 318.3 C 177.4 318.3 178.8 314.1 179.8 313 C 180.8 311.9 185.1 310.6 185.1 310.6 C 185.1 310.6 180.7 309 179.8 308.2 Z"/>
                        </g>
                    </g>
                </g>
                <g>
                    <g/>
                    <g>
                        <g clip-path="url(#SVGID_29_)"/>
                    </g>
                    <g>
                        <g clip-path="url(#SVGID_33_)"/>
                        <g clip-path="url(#SVGID_33_)"/>
                    </g>
                </g>
            </g>
        </g>
    </g>
</svg>
