<svg width="1032" height="1032" xmlns="http://www.w3.org/2000/svg">
    <g transform="matrix(1 0 0 1 18 18)">
        <path fill="#ffffff" stroke="none" d="M 980 498 C 980 625.83435 929.21796 748.4329 838.82544 838.82544 C 748.4329 929.21796 625.83435 980 498 980 C 370.16565 980 247.56705 929.21796 157.17453 838.82544 C 66.782 748.4329 16 625.83435 16 498 C 16 370.16565 66.782 247.56705 157.17453 157.17453 C 247.56705 66.782 370.16565 16 498 16 C 625.83435 16 748.4329 66.782 838.82544 157.17453 C 929.21796 247.56705 980 370.16565 980 498 Z"/>
        <path fill="#000000" stroke="none" d="M 498 0 C 223.41002 0 0 223.41002 0 498 C 0 772.5919 223.41002 996 498 996 C 772.5919 996 996 772.5919 996 498 C 996 223.41002 772.613 0 498 0 Z M 174.98499 796.48 C 174.40239 793.45703 174.15358 790.3792 174.243 787.302 C 174.722 772.209 182.79701 759.4131 188.571 745.923 C 194.609 731.786 199.953 717.362 204.936 702.817 C 212.029 682.233 217.324 661.052 221.278 639.632 C 223.362 628.324 220.128 610.856 227.388 600.961 C 229.64001 597.917 232.01201 596.289 234.432 595.76 C 246.317 593.123 259.615 616.175 265.964 623.244 C 299.006 660.047 338.014 690.884 376.566 721.626 C 413.48996 751.1 451.685 781.553 482.71402 815 C 498.096 831.581 512.714 848.93 525.892 867.3319 C 532.552 876.63 538.831 886.213 544.63 896.083 C 550.425 906.003 556.249 916.044 555.194 928.049 C 554.668 934.013 551.77 939.7399 547.263 943.671 C 541.249 948.919 533.773 949.517 526.178 950.043 C 516.809 950.69006 507.368 950.908 497.975 950.908 C 481.036 950.908 464.095 949.971 447.25296 948.078 C 396.40497 942.377 346.617 927.953 300.588 905.573 C 278.06573 894.61426 256.4908 881.807 236.085 867.283 C 215.12 852.37897 193.91501 836.82904 181.35901 813.8029 C 178.41202 808.38904 176.088 802.519 174.96101 796.481 L 174.98499 796.481 Z M 483.193 327.614 C 498.95905 343.383 506.771 328.766 520.043 317.816 C 534.2928 306.0476 550.5751 296.98514 568.086 291.076 C 602.686 279.406 640.926 280.868 674.639 294.837 C 735.213 319.923 769.92993 378.677 769.92993 456.021 C 769.92993 494.119 758.52606 531.186 740.532 564.541 C 710.46204 620.25 663.975 666.157 614.569 704.949 C 593.413 721.579 571.319 737.00903 548.583 751.411 C 539.7332 757.011 530.7776 762.4421 521.721 767.701 C 507.011 776.233 496.851 776.233 483.719 763.8449 C 474.805 755.43506 465.654 747.3109 456.38196 739.334 C 437.834 723.4 418.692 708.136 399.571 692.872 C 313.574 624.274 232.347 559.461 232.347 456.046 C 232.347 411 244.064 372.445 265.677 343.261 C 266.06 342.664 266.491 342.113 266.875 341.512 C 281.995 321.626 301.714 306.147 325.625 296.251 C 343.597 288.799 362.40698 285.181 381.048 285.181 C 418.59503 285.181 455.445 299.893 483.215 327.639 L 483.193 327.614 Z M 405.345 242.291 C 413.301 231.773 439.63297 230.88602 451.588 229.11302 C 469.103 226.525 486.835 225.399 504.543 225.663 C 517.049 225.85402 529.483 227.45898 541.85 229.161 C 552.56 230.64601 568.23 229.808 577.72 235.53398 C 580.281 237.06801 582.342 239.77498 582.245 242.77 C 582.245 242.98598 582.245 243.20198 582.198 243.417 C 581.862 245.957 580.041 248.161 577.838 249.503 C 568.515 255.254 554.714 256.38 544.461 260.621 C 530.253 266.491 519.492 280.125 503.941 282.162 C 485.565 284.582 474.641 275.142 460.381 266.803 C 445.121 257.866 426.76602 256.213 409.731 253.217 C 408.31396 252.977 406.876 252.618 405.753 251.756 C 402.94803 249.623 403.188 245.07098 405.295 242.267 L 405.345 242.291 Z M 616.15 919.49304 C 609.6421 915.51276 604.2057 910.0022 600.314 903.441 C 592.837 890.789 585.264 878.28204 576.807 866.231 C 567.51 852.981 551.792 828.4439 558.814 811.888 C 561.064 806.59 565.45 802.541 569.714 798.659 C 581.264 788.189 591.256 776.329 602.614 765.809 C 621.638 748.223 636.351 735.284 654.034 720.549 C 668.361 708.59106 681.157 693.83105 697.498 684.655 C 700.828 682.785 704.566 681.06 708.329 681.707 C 712.2819 682.38 715.419 685.685 716.979 689.374 C 718.535 693.0901 718.775 697.186 718.89294 701.21106 C 719.85297 733.56 718.84705 759.031 724.9569 792.74194 C 728.334 811.38403 737.152 828.802 744.771 846.152 C 749.518 856.958 746.571 869.632 739.956 879.002 C 736.361 884.0561 732.984 885.372 727.833 888.08093 C 721.58 891.364 715.563 895.149 709.335 898.458 C 695.294 905.91 680.799 912.02 666.3 918.441 C 660.168 921.1489 655.422 924.501 648.474 925.653 C 641.742 926.779 634.77 926.468 628.18 924.66895 C 623.94574 923.5101 619.89594 921.76013 616.15 919.471 L 616.15 919.49304 Z M 797.965 823.0529 C 797.679 822.981 797.41504 822.931 797.15 822.838 C 786.25 819.841 783.4699 809.921 780.97705 800.266 C 778.172 789.36206 776.065 778.294 775.035 767.079 C 772.6919 741.28326 771.4851 715.39685 771.418 689.495 C 771.343 660.144 774.316 605.583 786.41797 560.731 C 789.0511 550.979 791.136 541.536 794.32404 531.762 C 802.279 507.322 806.734 481.73096 806.734 455.996 C 806.734 430.264 803.403 405.728 795.976 381.72 C 792.861 371.63202 785.17004 360.107 784.812 349.732 C 784.451 339.812 790.03503 330.802 792.789 321.841 C 795.6401 312.543 797.965 303.104 799.858 293.591 C 803.117 277.131 807.406 259.759 808.9149 243.17798 C 809.849 233.018 810.783 222.859 811.742 212.676 C 811.959 210.28 812.1741 207.812 811.552 205.487 C 810.904 203.163 809.227 200.959 806.87994 200.432 C 804.21893 199.809 801.582 201.39 799.30707 202.9 C 776.713 217.9 749.947 226.837 723.44696 231.86801 C 711.34894 234.168 698.36 236.97198 686.379 234.00099 C 672.074 230.455 659.568 225.495 646.124 219.409 C 631.869 212.963 617.134 207.572 602.11 203.187 C 570.626 194.01 537.894 189.28998 505.115 188.811 C 471.668 188.30798 438.074 192.381 405.825 201.271 C 390.034 205.607 374.555 211.118 359.60196 217.803 C 352.44 221.01402 345.612 225.20702 338.422 228.25002 C 332.576 230.71799 325.65 235.29501 319.469 236.34898 C 315.684 236.99599 310.819 235.77399 307.009 235.462 C 296.011 234.55199 285.109 232.56299 274.423 229.832 C 253.768 224.56 233.95299 216.629 214.329 208.435 C 212.292 207.596 210.016 207.62 207.836 207.668 C 206.039 207.716 204.17 207.74 202.492 208.435 C 198.755 209.945 196.885 214.113 195.879 218.043 C 193.267 228.27402 195.519 238.242 196.19098 248.521 C 196.81023 258.16693 197.82541 267.7834 199.234 277.346 C 200.983 289.278 203.355 301.139 206.494 312.808 C 208.12944 318.92905 209.99171 324.98724 212.077 330.97 C 215.33502 340.242 217.324 352.344 213.89702 361.806 C 210.495 371.2 206.446 380.233 203.834 390.034 C 198.107 411.52603 195.544 433.809 195.544 456.046 C 195.544 461.1 195.759 466.036 196.071 470.924 C 199.138 519.757 194.99298 572.014 187.397 620.271 C 187.397 645.409 174.40999 674.711 165.689 697.9051 C 161.783 708.329 157.949 719.662 151.887 729.031 C 149.899 732.097 147.862 735.188 145.154 737.656 C 139.979 742.375 132.479 744.438 125.626 743.0219 C 113.549995 740.507 107.943 728.191 102.48 718.439 C 95.987305 706.83044 90.007545 694.9423 84.558 682.809 C 73.56 658.273 64.742 632.756 58.296 606.663 C 49.527 571.177 45.142002 534.635 45.142002 498.072 C 45.142002 248.28198 248.28198 45.142002 498 45.142002 C 747.719 45.142002 950.88293 248.305 950.88293 498.025 C 950.88293 518.44 949.517 538.853 946.787 559.075 C 940.00494 609.203 924.694 658.083 901.714 703.153 C 890.44214 725.2372 877.38043 746.36115 862.66 766.31305 C 855.32513 776.24274 847.5956 785.87476 839.49005 795.186 C 831.6309 804.194 824.2509 813.709 814.786 820.87103 C 813.709 821.686 812.60394 822.524 811.334 822.981 C 810.064 823.436 808.6761 823.48193 807.334 823.532 C 804.21893 823.629 801.03107 823.722 798.012 823.05206 L 797.965 823.05206 Z"/>
        <path fill="#000000" stroke="none" d="M 324.324 382.232 C 313.961 381.345 306.709 375.927 296.872 373.67197 C 295.149 373.263 293.234 373.12 291.678 373.98297 C 289.5 375.18304 288.71 378.061 289.093 380.531 C 289.476 383.00104 290.72 385.23303 291.726 387.535 C 293.114 390.70004 294 394.07996 294.861 397.414 C 297.901 409.06802 300.965 420.74802 303.717 432.477 C 305.847 441.51703 306.494 449.91 311.472 458.11304 C 320.279 472.621 336.342 481.737 353.28702 481.737 C 365.469 481.737 377.38998 477.05704 386.34097 468.787 C 390.8461 464.62674 394.53943 459.66595 397.233 454.157 C 398.906 450.702 398.61996 441.421 400.56 439.67 C 410.373 430.773 432.918 468.25696 436.51 473.724 C 442.49496 482.86096 450.01004 491.855 455.27402 501.208 C 462.717 514.398 468.27 529.651 472.79398 544.088 C 477.918 560.396 480.76703 576.92 481.98502 593.924 C 482.203 596.874 482.418 599.846 483.161 602.7 C 484.547 608.002 487.70602 612.628 490.819 617.114 C 492.184 619.105 493.61996 621.142 495.607 622.535 C 497.594 623.925 500.29602 624.525 502.475 623.445 C 503.362 622.99 504.10196 622.27 504.82 621.551 C 514.203 611.791 515.904 599.151 517.484 586.344 C 520.307 563.444 522.987 537.925 533.161 517.037 C 537.349 508.426 542.159 500.105 546.972 491.83 C 552.45 482.43103 558.411 473.27 565.065 464.662 C 568.345 460.415 571.768 456.315 575.431 452.381 C 577.632 450.007 581.867 443.533 585.53 445.06598 C 589.336 446.673 591.18 455.259 593.38 458.736 C 596.38257 463.52432 600.1883 467.75903 604.63 471.25403 C 613.2218 478.0138 623.83276 481.6962 634.765 481.712 C 650.252 481.712 665.043 474.132 674.209 461.66202 C 678.543 455.764 682.707 447.658 683.114 440.197 C 683.593 431.421 681.845 423.38702 684.311 414.417 C 687.852 401.538 697.308 390.578 698.9119 377.31696 C 699.102 375.709 699.0801 373.84 697.858 372.784 C 696.6859 371.752 694.914 371.946 693.384 372.21 C 672.033 375.83 651.878 381.946 630.123 383.793 C 598.67 386.42896 571.265 403.099 549.867 425.663 C 540.915 435.091 531.939 445.643 525.335 456.889 C 520.139 465.71396 512.888 473.917 508.915 483.391 C 506.83102 488.40402 504.798 494.469 499.602 496.005 C 485.577 500.105 477.558 468.282 472.172 459.911 C 463.51 446.434 453.694 433.651 442.27704 422.38 C 418.438 398.878 387.874 383.743 354.005 383.743 C 344.071 383.743 334.258 383.095 324.349 382.23297 L 324.324 382.23297 Z"/>
    </g>
</svg>
