<svg width="480" height="480" xmlns="http://www.w3.org/2000/svg">
    <defs>
        <linearGradient id="paint0_linear-765896" x1="240" y1="0" x2="240" y2="701.818" gradientUnits="userSpaceOnUse">
            <stop offset="0" stop-color="#08021e"/>
            <stop offset="1" stop-color="#1f0777"/>
        </linearGradient>
        <clipPath id="clip0-744373">
            <path fill="#000000" stroke="none" transform="matrix(-1 0 0 1 347.333 115.064)" d="M 0 0 L 214.66699 0 L 214.66699 247.605 L 0 247.605 Z"/>
        </clipPath>
        <mask id="mask0-500239" mask-type="alpha" maskUnits="userSpaceOnUse" x="0" y="0" width="480" height="480">
            <path fill="url(#paint0_linear-765896)" stroke="none" d="M 480 240 C 480 372.5483 372.5483 480 240 480 C 107.45166 480 0 372.5483 0 240 C -0 107.45166 107.45166 0 240 0 C 372.5483 0 480 107.45166 480 240 Z"/>
        </mask>
    </defs>
    <g mask="url(#mask0-500239)">
        <path fill="#31d8a4" stroke="none" d="M 480 240 C 480 372.5483 372.5483 480 240 480 C 107.45166 480 0 372.5483 0 240 C -0 107.45166 107.45166 0 240 0 C 372.5483 0 480 107.45166 480 240 Z"/>
        <path fill="#ffffff" stroke="none" d="M 448 240 C 448 354.8752 354.8752 448 240 448 C 125.12477 448 32 354.8752 32 240 C 32 125.12477 125.12477 32 240 32 C 354.8752 32 448 125.12477 448 240 Z"/>
    </g>
    <path fill="#0e052f" stroke="none" d="M 424 240 C 424 341.6204 341.6204 424 240 424 C 138.37961 424 56 341.6204 56 240 C 56 138.37961 138.37961 56 240 56 C 341.6204 56 424 138.37961 424 240 Z"/>
    <path fill="#2a5ada" stroke="none" d="M 240 424 C 341.62 424 424 341.62 424 240 C 424 138.38 341.62 56 240 56 C 138.38 56 56 138.38 56 240 C 56 341.62 138.38 424 240 424 Z"/>
    <g clip-path="url(#clip0-744373)">
        <path fill="#ffffff" stroke="none" d="M 240 115.064 L 262.716 128.126 L 324.617 163.904 L 347.333 176.966 L 347.333 300.768 L 324.617 313.83 L 262.148 349.60803 L 239.432 362.66998 L 216.716 349.60803 L 155.383 313.83 L 132.667 300.768 L 132.667 176.966 L 155.383 163.904 L 217.284 128.126 L 240 115.064 L 240 115.064 Z M 301.901 274.645 L 301.901 203.089 L 240 167.311 L 178.099 203.089 L 178.099 274.645 L 240 310.423 L 301.901 274.645 Z"/>
    </g>
</svg>
