<svg width="256" height="256" xmlns="http://www.w3.org/2000/svg">
    <path fill="#ffffff" stroke="none" d="M 0 0 L 256 0 L 256 256 L 0 256 Z"/>
    <g>
        <path fill="none" stroke="#2344aa" stroke-miterlimit="10" stroke-width="20.86" d="M 160.20001 128 C 160.20001 163.47325 131.44325 192.23001 95.96999 192.23001 C 60.496746 192.23001 31.739994 163.47325 31.739998 128 C 31.739998 92.52675 60.496746 63.769993 95.96999 63.769993 C 131.44325 63.769993 160.20001 92.52675 160.20001 128 Z"/>
        <path fill="none" stroke="#557fee" stroke-miterlimit="10" stroke-width="20.86" d="M 230.34 128 C 230.34 163.47325 201.58325 192.23001 166.11 192.23001 C 130.63675 192.23001 101.87999 163.47325 101.87999 128 C 101.87999 92.52675 130.63675 63.769993 166.11 63.769993 C 201.58325 63.77 230.34 92.52675 230.34 128 Z"/>
    </g>
</svg>
