<svg width="222" height="222" xmlns="http://www.w3.org/2000/svg">
    <path fill="#1b184e" stroke="none" d="M 222 111 C 222 172.3036 172.3036 222 111 222 C 49.696396 222 0 172.3036 0 111 C -0 49.696396 49.696396 0 111 0 C 172.3036 0 222 49.696396 222 111 Z"/>
    <path fill="#04a8f0" stroke="none" d="M 137 68 C 137 82.359406 125.3594 94 111 94 C 96.640594 94 85 82.359406 85 68 C 85 53.6406 96.640594 42 111 42 C 125.3594 42 137 53.6406 137 68 Z"/>
    <path fill="#686df1" fill-rule="evenodd" stroke="none" d="M 111 109 C 84.4904 109 63 87.5101 63 61.0005 C 64.0797 48.0053 53.0069 48.0007 50.0028 51.527 C 49.7737 51.735405 49.554905 51.9723 49.3479 52.2392 C 39.1008 65.4518 33 82.0465 33 100.067 C 33 115.91701 48.016903 126.021 63.8662 126.021 L 158.134 126.021 C 173.983 126.021 189 115.91701 189 100.067 C 189 82.0465 182.899 65.4518 172.652 52.2392 C 172.44098 51.9666 172.217 51.7252 171.982 51.5134 C 168.957 48.004604 157.922 48.0307 159 61.004402 C 158.998 87.5122 137.508 109 111 109 Z"/>
    <path fill="#04a8f0" stroke="none" d="M 119.212 187.183 L 141.085 155.707 C 145.693 149.076 140.948 140 132.873 140 L 111 140 L 89.1266 140 C 81.052 140 76.3069 149.076 80.9147 155.707 L 102.788 187.183 C 106.766 192.907 115.23399 192.907 119.212 187.183 Z"/>
</svg>
