<svg width="24" height="24" xmlns="http://www.w3.org/2000/svg">
    <defs>
        <clipPath id="clip0_52_7852">
            <path fill="#000000" stroke="none" transform="matrix(1 0 0 1 6.5625 4.59375)" d="M 0 0 L 11.6997 0 L 11.6997 14.8097 L 0 14.8097 Z"/>
        </clipPath>
    </defs>
    <path fill="#1149ff" stroke="none" d="M 24 12 C 24 18.627417 18.627417 24 12 24 C 5.372583 24 0 18.627417 0 12 C -0 5.372583 5.372583 0 12 0 C 18.627417 0 24 5.372583 24 12 Z"/>
    <g clip-path="url(#clip0_52_7852)">
        <path fill="#ffffff" stroke="none" d="M 6.66553 10.2947 C 6.66553 7.03107 9.05914 4.59375 12.4457 4.59375 C 15.8056 4.59375 18.2701 7.03107 18.2701 10.3398 C 18.2701 13.581299 15.895101 15.9956 12.3304 15.9956 L 9.57775 15.9956 L 9.57775 19.2265 C 9.57775 19.3831 9.55559 19.4034 9.40045 19.4034 L 8.12164 19.4034 C 8.12164 19.4034 6.9997506 19.4034 6.84283 19.4034 C 6.68592 19.4034 6.66553 19.3813 6.66553 19.2265 L 6.66553 10.2947 Z M 15.3579 10.3168 C 15.3579 8.59343 14.2825 7.27701 12.4457 7.27701 C 10.584 7.27701 9.57775 8.59608 9.57775 10.2947 L 9.57775 13.313199 L 12.333101 13.313199 C 14.2825 13.313199 15.3579 12.0384 15.3579 10.3168 Z"/>
    </g>
</svg>
