<svg width="200" height="200" xmlns="http://www.w3.org/2000/svg">
    <path fill="#005bac" stroke="none" d="M 200 100 C 200 155.22847 155.22847 200 100 200 C 44.771526 200 0 155.22847 0 100 C -0 44.771526 44.771526 0 100 0 C 155.22847 0 200 44.771526 200 100 Z"/>
    <path fill="#ffffff" stroke="none" d="M 164.341 95.336 L 164.341 95.293 C 164.341 95.016 164.103 94.934 163.853 94.934 L 100.051 94.934 C 96.605 94.934 93.876 97.67501 93.876 101.073 C 93.876 104.379005 96.605 107.124 100.051 107.124 L 138.022 107.124 C 133.447 119.069 118.176 127.897 100.051 127.897 C 78.283 127.897 60.658 115.30601 60.658 99.817 C 60.658 84.328 78.283 71.744 100.051 71.744 C 111.875 71.744 122.519 75.515 129.741 81.473 L 129.78 81.516 C 129.86 81.541 129.965 81.541 130.091 81.541 L 156.158 81.541 C 156.421 81.541 156.595 81.331 156.595 81.104 C 156.595 80.973 156.595 80.841 156.503 80.788 L 156.503 80.749 C 145.316 68.932 124.224 60.91 100.051 60.91 C 64.226 60.91 35.253 78.334 35.253 99.817 C 35.253 121.299995 64.226 138.777 100.051 138.777 C 135.876 138.777 164.796 121.307 164.796 99.817 C 164.796 98.255005 164.652 96.77801 164.341 95.336 Z"/>
</svg>
