<svg width="24" height="24" xmlns="http://www.w3.org/2000/svg">
    <path fill="#15181e" fill-rule="evenodd" stroke="none" d="M 12 0 C 18.6264 0 24 5.3736 24 12 C 24 18.6264 18.6264 24 12 24 C 5.3736 24 0 18.6264 0 12 C 0 5.3736 5.3736 0 12 0 Z"/>
    <path fill="#ffffff" fill-rule="evenodd" stroke="none" d="M 13.7547 10.56 L 13.7547 13.44 L 11.045101 13.44 L 11.045101 10.56 L 13.7547 10.56 Z M 13.7547 10.56 L 13.7547 4.8 L 10.9057 4.8 C 9.87651 4.8 9.03141 4.97691 8.3704 5.33074 C 7.7010098 5.68457 7.2073393 6.18651 6.88939 6.83657 C 6.56306 7.4784 6.3999 8.24366 6.3999 9.13234 C 6.3999 10.0128 6.56306 10.7781 6.88939 11.4281 C 7.2073393 12.0699 7.7010098 12.567799 8.3704 12.9216 C 9.03141 13.2672 9.87651 13.44 10.9057 13.44 L 11.045101 13.44 L 11.045101 19.2 L 13.8941 19.2 C 14.9233 19.2 15.7684 19.0272 16.4294 18.6816 C 17.0988 18.3278 17.5925 17.8299 17.9104 17.1881 C 18.2367 16.5381 18.3999 15.7728 18.3999 14.8923 C 18.3999 14.0037 18.2367 13.2384 17.9104 12.596599 C 17.5925 11.9465 17.0988 11.4446 16.4294 11.090699 C 15.7684 10.7369 14.9233 10.56 13.8941 10.56 L 13.7547 10.56 Z"/>
</svg>
