<svg width="256" height="256" xmlns="http://www.w3.org/2000/svg">
    <g id="surface1">
        <path fill="#000000" stroke="none" d="M 198.26172 85.66016 L 175.61719 85.66016 C 173 85.66016 170.48828 84.54297 168.72656 82.578125 L 159.53906 72.25781 C 158.15234 70.71484 156.22656 69.8125 154.14453 69.8125 C 152.0625 69.8125 150.14063 70.71484 148.75 72.25781 L 140.84375 81.140625 C 138.28125 84.01172 134.54297 85.71484 130.69922 85.71484 L 6.730469 85.71484 C 3.2031252 95.66016 0.90625 106.24609 0 117.25391 L 117.02344 117.25391 C 119.10546 117.25391 121.03125 116.40625 122.47266 114.914055 L 133.36719 103.58594 C 134.70313 102.14844 136.625 101.35157 138.54688 101.35157 L 138.97656 101.35157 C 141.0586 101.35157 142.98047 102.25782 144.3711 103.80078 L 153.5586 114.117195 C 155.32031 116.08594 157.83203 117.203125 160.44922 117.203125 L 255.94531 117.203125 C 255.03906 106.24609 252.74219 95.609375 249.21486 85.609375 Z M 198.26172 85.66016"/>
        <path fill="#000000" stroke="none" d="M 70.82422 183.63672 C 72.90625 183.63672 74.828125 182.78514 76.26953 181.29686 L 87.16797 169.96484 C 88.55469 168.53125 90.42578 167.73047 92.402336 167.73047 L 92.82813 167.73047 C 94.91016 167.73047 96.88672 168.63672 98.22266 170.125 L 107.41016 180.44531 C 109.171875 182.41406 111.68359 183.53125 114.30078 183.53125 L 243.76953 183.53125 C 248.6289 173.53127 252.15625 162.83984 254.28906 151.61719 L 130.0039 151.61719 C 127.38672 151.61719 124.875 150.5 123.11328 148.53125 L 113.92579 138.32031 C 112.53906 136.77734 110.61328 135.92578 108.53125 135.92578 C 106.44923 135.92578 104.47266 136.82813 103.13672 138.32031 L 95.23046 147.20313 C 92.66797 150.125 88.92969 151.77734 85.03125 151.77734 L 1.761719 151.77734 C 3.898438 163 7.4257803 173.6914 12.285156 183.6875 Z M 70.82422 183.63672"/>
        <path fill="#000000" stroke="none" d="M 162.63672 51.140625 C 164.71875 51.140625 166.64453 50.289066 168.08594 48.800785 L 178.98047 37.472656 C 180.3164 36.035156 182.2383 35.23828 184.21483 35.23828 L 184.64453 35.23828 C 186.72656 35.23828 188.64842 36.140625 190.03906 37.683594 L 199.22266 48.058594 C 200.98828 50.023438 203.4961 51.140625 206.11328 51.140625 L 230.73828 51.140625 C 207.28906 20.078125 170.00781 0.0273438 128.02734 0.0273438 C 86.046875 0.0273438 48.710938 20.078125 25.261719 51.140625 Z M 162.63672 51.140625"/>
        <path fill="#000000" stroke="none" d="M 113.23047 215.28517 L 79.58203 215.28517 C 76.96484 215.28517 74.45703 214.16797 72.69141 212.19922 L 63.507813 201.87889 C 62.117188 200.33594 60.195313 199.48438 58.11328 199.48438 C 56.027348 199.48438 54.05078 200.39061 52.71875 201.87889 L 44.812496 210.76173 C 42.25 213.6875 38.507813 215.33594 34.609375 215.33594 L 34.078125 215.33594 C 57.523434 240.33594 90.90624 256.02734 128.02734 256.02734 C 165.14844 256.02734 198.47655 240.33594 221.97656 215.33594 Z M 113.23047 215.28517"/>
    </g>
</svg>
