<svg width="400" height="400" xmlns="http://www.w3.org/2000/svg">
    <defs>
        <linearGradient id="linearGradient1" x1="35.363636" y1="145.09091" x2="339.0909" y2="145.09091" gradientUnits="userSpaceOnUse">
            <stop offset="0.00001" stop-color="#1b75ba"/>
            <stop offset="0.17" stop-color="#2967b2"/>
            <stop offset="0.72" stop-color="#543d99"/>
            <stop offset="1" stop-color="#652d8f"/>
        </linearGradient>
        <linearGradient id="linearGradient2" x1="73.03816" y1="275.10654" x2="392.3948" y2="275.10654" gradientUnits="userSpaceOnUse" gradientTransform="matrix(0.836072 -0.548619 0.548619 0.836072 -112.750046 172.73473)">
            <stop offset="0.00001" stop-color="#d81c5c"/>
            <stop offset="1" stop-color="#ed4036"/>
        </linearGradient>
    </defs>
    <g id="f-logo-1">
        <g id="Layer1">
            <path id="Path" fill="#ffffff" stroke="none" d="M 400 200 C 400 310.45697 310.45694 400 200 400 C 89.543045 400 0 310.45697 0 200 C 0 89.54305 89.543045 0 200 0 C 310.45694 0 400 89.54305 400 200 Z"/>
            <path id="path1" fill="url(#linearGradient1)" stroke="none" d="M 338.63635 95.90909 C 304.81818 51.90909 260.72726 25.90909 191.7273 25.90909 C 109.909096 25.90909 35.363636 101.181816 35.363636 181.54546 C 35.363636 237.45456 67.09091 264.2727 102.090904 264.2727 C 129.89381 265.14862 155.60939 249.58394 167.72728 224.54547 C 168.16951 223.70769 168.14532 222.70042 167.66338 221.88484 C 167.18144 221.06929 166.3108 220.56221 165.36365 220.54546 L 118.181816 220.54546 C 116.309525 220.49615 114.817535 218.96385 114.818184 217.09088 L 114.818184 182.90912 C 114.817535 181.03615 116.309525 179.50385 118.181816 179.45454 L 181.81818 179.45454 C 184.39091 179.44563 186.71268 177.90971 187.72726 175.54544 C 215.54544 111.90909 264.81818 98.09092 293.0909 95.81818 C 307.60706 94.651634 322.21637 95.81793 336.36365 99.272705 C 337.26614 99.60398 338.27826 99.27704 338.8165 98.48044 C 339.35474 97.68387 339.28043 96.6229 338.63635 95.90909 Z"/>
        </g>
    </g>
    <g id="x-logo-2">
        <g id="g1">
            <path id="path2" fill="url(#linearGradient2)" stroke="none" d="M 61.74195 305.68463 C 96.06656 349.86197 140.63464 375.08923 209.33636 374.9199 C 291.03442 374.22656 365.49463 298.46423 365.02472 217.95361 C 364.6338 161.9592 332.8897 135.09824 297.56992 135.48523 C 269.73926 134.84177 244.12604 150.6041 232.1592 175.73882 C 231.73622 176.59549 231.79836 177.61208 232.3225 178.41086 C 232.84665 179.20964 233.7545 179.67126 234.70874 179.62422 L 281.67953 179.37378 C 283.57095 179.36464 285.1147 180.88466 285.1349 182.77599 L 285.40048 217.06374 C 285.40955 217.9755 285.04614 218.85149 284.3943 219.48907 C 283.74243 220.12666 282.8586 220.47063 281.94727 220.44136 L 218.4251 220.8805 C 215.86559 220.89807 213.5542 222.41478 212.51929 224.75577 C 185.08867 288.66766 135.77393 302.7958 107.45004 305.3734 C 92.939285 306.6033 78.325226 305.49585 64.16557 302.09326 C 63.20177 301.7383 62.120163 302.08734 61.545643 302.9387 C 60.97109 303.79004 61.052128 304.92368 61.74195 305.68463 Z"/>
        </g>
    </g>
</svg>
