<svg width="96" height="96" xmlns="http://www.w3.org/2000/svg">
    <path fill="#fff7e8" stroke="none" d="M 48 0 L 48 0 C 74.50967 0 96 21.490332 96 48 L 96 48 C 96 74.50967 74.50967 96 48 96 L 48 96 C 21.490332 96 0 74.50967 0 48 L 0 48 C -0 21.490332 21.490332 0 48 0 Z"/>
    <path fill="#020207" stroke="none" d="M 79.5 41.5825 L 79.5 48.043995 L 16.5 48.043995 L 16.5 41.5825 L 79.5 41.5825 Z M 61.6427 19.3 L 72.5685 19.3 L 72.5685 58.597897 C 72.5685 62.9056 71.5504 66.6944 69.514 69.9643 C 67.4776 73.2342 64.6287 75.7895 60.967094 77.6301 C 57.3056 79.451 53.0273 80.3615 48.1322 80.3615 C 43.2371 80.3615 38.9587 79.451 35.2972 77.6301 C 31.635698 75.7895 28.786697 73.2342 26.7504 69.9643 C 24.7336 66.6944 23.725203 62.9056 23.725203 58.597897 L 23.725203 19.3 L 34.6217 19.3 L 34.6217 57.687397 C 34.6217 60.1937 35.1699 62.425896 36.2664 64.3839 C 37.3825 66.3419 38.949 67.879 40.9657 68.9951 C 43.0021 70.0916 45.3909 70.6398 48.1322 70.6398 C 50.893 70.6398 53.281796 70.0916 55.2986 68.9951 C 57.335 67.879 58.9014 66.3419 59.997894 64.3839 C 61.0944 62.425896 61.6427 60.1937 61.6427 57.687397 L 61.6427 19.3 Z"/>
</svg>
