<svg width="200" height="200" xmlns="http://www.w3.org/2000/svg">
    <defs>
        <linearGradient id="paint0_linear_18418_7300" x1="21.352" y1="21.8906" x2="187.568" y2="188.107" gradientUnits="userSpaceOnUse">
            <stop offset="0" stop-color="#000000"/>
            <stop offset="1" stop-color="#2d2d2d"/>
        </linearGradient>
    </defs>
    <path fill="url(#paint0_linear_18418_7300)" stroke="none" d="M 200 100 C 200 155.22847 155.22847 200 100 200 C 44.771526 200 0 155.22847 0 100 C -0 44.771526 44.771526 0 100 0 C 155.22847 0 200 44.771526 200 100 Z"/>
    <path fill="#ffffff" fill-rule="evenodd" stroke="none" d="M 132.324 59.998005 L 98.3449 59.998005 C 96.875496 59.998005 95.6686 61.221905 95.6686 62.7119 L 95.6686 93.2803 C 95.6686 96.8987 92.41499 99.9847 88.6365 99.9847 L 62.7123 99.9847 C 61.610397 99.9847 60.6657 100.623 60.219803 101.661 C 59.7999 102.698 60.0097 103.84201 60.7969 104.64101 L 94.88151 139.2 C 95.4063 139.732 96.036 139.998 96.7706 139.998 L 128.625 139.998 C 129.727 139.998 130.671 139.36 131.117 138.322 C 131.537 137.284 131.327 136.14 130.54 135.342 L 97.0855 101.448 L 96.4556 100.81 L 95.642395 100.010994 L 95.8785 100.010994 C 116.502 99.87831 133.505 83.5166 135.001 62.9513 C 135.053 62.1798 134.817 61.4613 134.292 60.9026 C 133.768 60.290802 133.112 59.998005 132.324 59.998005 Z"/>
</svg>
