<svg width="250" height="250" xmlns="http://www.w3.org/2000/svg">
    <defs>
        <linearGradient id="paint0_linear_1609_58" x1="125" y1="-121.486" x2="-119.898" y2="90.6021" gradientUnits="userSpaceOnUse">
            <stop offset="0" stop-color="#4ef1ba"/>
            <stop offset="0.501904" stop-color="#16ced1"/>
            <stop offset="1" stop-color="#3773f2"/>
        </linearGradient>
        <linearGradient id="paint1_linear_1609_58" x1="379.793" y1="91.797" x2="205.051" y2="367.476" gradientUnits="userSpaceOnUse">
            <stop offset="0" stop-color="#4ef1ba"/>
            <stop offset="0.501904" stop-color="#16ced1"/>
            <stop offset="1" stop-color="#3773f2"/>
        </linearGradient>
    </defs>
    <path fill="url(#paint0_linear_1609_58)" fill-rule="evenodd" stroke="none" d="M 125 2.23215 L 232.143 64.0911 L 232.143 187.80902 L 125 249.668 L 17.8571 187.80902 L 17.8571 64.0911 L 125 2.23215 Z M 27.9018 66.0242 L 94.53131 104.493 L 125 51.7193 L 155.469 104.493 L 222.098 66.0242 L 125 9.96452 L 27.9018 66.0242 Z M 225.44598 71.8235 L 158.817 110.292 L 189.286 163.065 L 128.348 198.248 L 128.348 240.003 L 225.44598 183.94298 L 225.44598 71.8235 Z M 121.652 240.003 L 121.652 198.248 L 60.714294 163.065 L 91.183 110.292 L 24.5536 71.8235 L 24.5536 183.94298 L 121.652 240.003 Z M 96.9823 113.64 L 69.8618 160.614 L 121.652 190.515 L 121.652 131.749 L 121.652 127.88301 L 118.304 125.94999 L 96.9823 113.64 Z M 128.348 190.515 L 180.138 160.614 L 153.018 113.64 L 131.696 125.94999 L 128.348 127.88301 L 128.348 131.749 L 128.348 190.515 Z M 149.669 107.841 L 125 65.1122 L 100.331 107.841 L 125 122.08401 L 149.669 107.841 Z"/>
    <g opacity="0.6">
        <path fill="url(#paint1_linear_1609_58)" fill-rule="evenodd" stroke="none" d="M 121.652 120.151 L 121.652 124.017 L 118.304 125.94999 L 21.8386 181.644 L 25.1868 187.443 L 125 129.816 L 224.81299 187.443 L 228.162 181.644 L 131.696 125.94999 L 128.348 124.017 L 128.348 120.151 L 128.348 8.76249 L 121.652 8.76249 L 121.652 120.151 Z"/>
    </g>
</svg>
