<svg width="256" height="256" xmlns="http://www.w3.org/2000/svg">
    <g id="surface1">
        <path fill="#fbc02f" fill-rule="evenodd" stroke="none" d="M 121.6875 1.9375 C 121.60157 2.160156 117.94531 5.953125 113.56641 10.375 C 98.84765 25.21875 95.58203 28.574219 95.41407 29.007813 C 95.32422 29.246094 95.08594 29.441406 94.88672 29.441406 C 94.6875 29.441406 94.464836 29.671875 94.39062 29.953123 C 94.316414 30.234375 94.08594 30.464846 93.87891 30.464846 C 93.66798 30.464846 93.4375 30.69531 93.36718 30.976563 C 93.29296 31.257813 93.046875 31.488281 92.82422 31.488281 C 92.60156 31.488281 92.41406 31.613281 92.41406 31.769531 C 92.41406 32.109375 85.12109 39.42578 84.78125 39.42578 C 84.64844 39.42578 84.48047 39.65625 84.40625 39.9375 C 84.33203 40.21875 84.10156 40.44922 83.89453 40.44922 C 83.6875 40.44922 83.45703 40.679688 83.38281 40.960938 C 83.30859 41.242188 83.078125 41.472656 82.87109 41.472656 C 82.66016 41.472656 82.42969 41.703125 82.359375 41.984375 C 82.28516 42.265625 82.03906 42.496094 81.81641 42.496094 C 81.58984 42.496094 81.40625 42.625 81.40625 42.78125 C 81.40625 42.9375 80.08203 44.382813 78.46484 45.98828 C 76.84375 47.597656 75.51953 49.01172 75.51953 49.12891 C 75.51953 49.250004 75.28906 49.410156 75.00781 49.48047 C 74.72656 49.554688 74.49609 49.785156 74.49609 49.996094 C 74.49609 50.203125 74.265625 50.433594 73.984375 50.507813 C 73.703125 50.578125 73.47266 50.82422 73.47266 51.046875 C 73.47266 51.285156 73.25781 51.457027 72.96094 51.457027 C 72.62891 51.457027 72.44922 51.625 72.44922 51.9375 C 72.44922 52.203125 72.21875 52.480473 71.9375 52.554684 C 71.65625 52.628906 71.42578 52.859375 71.42578 53.066402 C 71.42578 53.273438 71.19531 53.503906 70.91016 53.57813 C 70.62891 53.65234 70.39844 53.89453 70.39844 54.121094 C 70.39844 54.34375 70.22656 54.527344 70.015625 54.527344 C 69.80469 54.527344 69.63281 54.753906 69.63281 55.039063 C 69.63281 55.382816 69.46094 55.55078 69.12109 55.55078 C 68.77734 55.55078 68.609375 55.722656 68.609375 56.0625 C 68.609375 56.40625 68.4375 56.57422 68.09766 56.57422 C 67.75391 56.57422 67.58594 56.74609 67.58594 57.089844 C 67.58594 57.429688 67.41406 57.601563 67.07031 57.601563 C 66.73047 57.601563 66.55859 57.769535 66.55859 58.11328 C 66.55859 58.453125 66.390625 58.625 66.046875 58.625 C 65.765625 58.625 65.53516 58.785156 65.53516 58.976563 C 65.53516 59.171875 65.30469 59.394527 65.02344 59.464844 C 64.74219 59.539063 64.51172 59.769535 64.51172 59.976563 C 64.51172 60.1875 64.28125 60.417973 64 60.492188 C 63.71875 60.5625 63.48828 60.79297 63.48828 61.003902 C 63.48828 61.210938 63.257816 61.441406 62.976563 61.51563 C 62.695313 61.585934 62.464844 61.816406 62.464844 62.027348 C 62.464844 62.234375 62.234375 62.464844 61.953125 62.539063 C 61.671875 62.613277 61.441406 62.84375 61.441406 63.05078 C 61.441406 63.257816 61.210938 63.48828 60.92969 63.5625 C 60.64453 63.63672 60.414066 63.867188 60.414066 64.07422 C 60.414066 64.28125 60.1875 64.51172 59.902348 64.58594 C 59.621094 64.66016 59.39062 64.90234 59.39062 65.12891 C 59.39062 65.35156 59.21875 65.53516 59.00781 65.53516 C 58.79297 65.53516 58.625 65.765625 58.625 66.046875 C 58.625 66.390625 58.453125 66.55859 58.11328 66.55859 C 57.769535 66.55859 57.601563 66.73047 57.601563 67.07031 C 57.601563 67.41406 57.429688 67.58594 57.089844 67.58594 C 56.74609 67.58594 56.57422 67.75391 56.57422 68.09766 C 56.57422 68.4375 56.40625 68.609375 56.0625 68.609375 C 55.722656 68.609375 55.55078 68.77734 55.55078 69.12109 C 55.55078 69.46094 55.382816 69.63281 55.039063 69.63281 C 54.757813 69.63281 54.527344 69.79297 54.527344 69.984375 C 54.527344 70.17969 54.29687 70.40234 54.015625 70.47266 C 53.734375 70.546875 53.503906 70.77734 53.503906 70.984375 C 53.503906 71.19531 53.273438 71.42578 52.99219 71.5 C 52.710938 71.57031 52.480473 71.80078 52.480473 72.01172 C 52.480473 72.21875 52.25 72.44922 51.968746 72.52344 C 51.6875 72.59766 51.457027 72.828125 51.457027 73.03516 C 51.457027 73.24219 51.226563 73.47266 50.945313 73.546875 C 50.664063 73.62109 50.433594 73.85156 50.433594 74.05859 C 50.433594 74.265625 50.203125 74.49609 49.921875 74.57031 C 49.63672 74.64453 49.40625 74.88672 49.40625 75.11328 C 49.40625 75.33594 49.242188 75.51953 49.04297 75.51953 C 48.839844 75.51953 48.601563 75.75 48.51172 76.03125 C 48.42187 76.3125 48.183594 76.54297 47.984375 76.54297 C 47.781246 76.54297 47.617188 76.77344 47.617188 77.05469 C 47.617188 77.39844 47.445316 77.56641 47.10547 77.56641 C 46.76172 77.56641 46.59375 77.73828 46.59375 78.078125 C 46.59375 78.421875 46.42187 78.59375 46.078125 78.59375 C 45.73828 78.59375 45.566406 78.76172 45.566406 79.10547 C 45.566406 79.44531 45.398438 79.61719 45.054688 79.61719 C 44.773438 79.61719 44.542973 79.78125 44.542973 79.984375 C 44.542973 80.18359 44.3125 80.421875 44.031254 80.51172 C 43.75 80.60156 43.519527 80.828125 43.519527 81.01172 C 43.519527 81.19531 43.289063 81.41016 43.00781 81.48047 C 42.726563 81.55469 42.496094 81.78516 42.496094 81.99609 C 42.496094 82.203125 42.265625 82.43359 41.984375 82.50781 C 41.703125 82.578125 41.472656 82.80859 41.472656 83.01953 C 41.472656 83.22656 41.242188 83.45703 40.960938 83.53125 C 40.679688 83.60547 40.44922 83.83594 40.44922 84.04297 C 40.44922 84.25 40.21875 84.48047 39.9375 84.55469 C 39.65625 84.62891 39.42578 84.859375 39.42578 85.06641 C 39.42578 85.27344 39.195313 85.50391 38.910156 85.578125 C 38.628906 85.65234 38.398438 85.89453 38.398438 86.12109 C 38.398438 86.34375 38.226563 86.52734 38.015625 86.52734 C 37.804688 86.52734 37.632813 86.75391 37.632813 87.039055 C 37.632813 87.38281 37.460938 87.55078 37.121094 87.55078 C 36.777344 87.55078 36.609375 87.72266 36.609375 88.06251 C 36.609375 88.40625 36.4375 88.57422 36.097656 88.57422 C 35.753906 88.57422 35.585938 88.74609 35.585938 89.08984 C 35.585938 89.42969 35.414063 89.60157 35.070313 89.60157 C 34.73047 89.60157 34.558594 89.76953 34.558594 90.11328 C 34.558594 90.453125 34.390625 90.625 34.046875 90.625 C 33.765625 90.625 33.535156 90.78516 33.535156 90.97656 C 33.535156 91.17187 33.304688 91.39453 33.023438 91.46484 C 32.742188 91.53907 32.51172 91.76953 32.51172 91.97656 C 32.51172 92.18751 32.28125 92.41797 32 92.49219 C 31.71875 92.5625 31.488281 92.79297 31.488281 93.00391 C 31.488281 93.210945 31.257813 93.44141 30.976563 93.515625 C 30.69531 93.58594 30.464846 93.8164 30.464846 94.02734 C 30.464846 94.234375 30.234375 94.464836 29.953123 94.53906 C 29.671875 94.61328 29.441406 94.84375 29.441406 95.05078 C 29.441406 95.25781 29.210936 95.48827 28.929688 95.56249 C 28.644531 95.63672 28.414063 95.8789 28.414063 96.10547 C 28.414063 96.32812 28.25 96.51173 28.05078 96.51173 C 27.847656 96.51173 27.609375 96.74219 27.519531 97.02344 C 27.429688 97.30469 27.191406 97.535164 26.992188 97.535164 C 26.789064 97.535164 26.625002 97.765625 26.625002 98.046875 C 26.625002 98.39062 26.453125 98.55859 26.11328 98.55859 C 25.769531 98.55859 25.601563 98.73047 25.601563 99.07031 C 25.601563 99.41407 25.429688 99.58594 25.089844 99.58594 C 24.746094 99.58594 24.574219 99.7539 24.574219 100.09766 C 24.574219 100.43751 24.406248 100.609375 24.0625 100.609375 C 23.722658 100.609375 23.550781 100.777336 23.550781 101.12109 C 23.550781 101.46094 23.382813 101.63281 23.039063 101.63281 C 22.757814 101.63281 22.527344 101.79298 22.527344 101.98438 C 22.527344 102.17969 22.296875 102.40234 22.015627 102.47266 C 21.734375 102.546875 21.503904 102.77734 21.503904 102.984375 C 21.503904 103.19531 21.273438 103.42578 20.992188 103.5 C 20.710938 103.57031 20.480469 103.80078 20.480469 104.01171 C 20.480469 104.21875 20.25 104.44922 19.96875 104.52344 C 19.6875 104.59766 19.457031 104.82813 19.457031 105.03515 C 19.457031 105.24218 19.226563 105.47266 18.945313 105.546875 C 18.664063 105.62109 18.433594 105.85156 18.433594 106.0586 C 18.433594 106.26562 18.203125 106.49609 17.921875 106.57031 C 17.636719 106.64453 17.40625 106.88672 17.40625 107.11328 C 17.40625 107.33594 17.25 107.51953 17.054688 107.51953 C 16.859375 107.51953 16.640625 107.75 16.566406 108.03125 C 16.492188 108.31251 16.25 108.54297 16.023438 108.54297 C 15.785156 108.54297 15.6171875 108.75781 15.6171875 109.05469 C 15.6171875 109.39844 15.445312 109.56641 15.105468 109.56641 C 14.761719 109.56641 14.59375 109.73828 14.59375 110.078125 C 14.59375 110.421875 14.421875 110.59375 14.078125 110.59375 C 13.738281 110.59375 13.566406 110.76172 13.566406 111.10546 C 13.566406 111.43359 13.398438 111.61719 13.0859375 111.61719 C 12.820311 111.61719 12.542969 111.84375 12.46875 112.128914 C 12.394532 112.41016 12.152345 112.640625 11.925782 112.640625 C 11.703124 112.640625 11.519531 112.80078 11.519531 112.99219 C 11.519531 113.1875 11.289062 113.410164 11.007812 113.48047 C 10.726562 113.55469 10.496094 113.78516 10.496094 113.99609 C 10.496094 114.203125 10.265625 114.43359 9.984375 114.50782 C 9.703125 114.578125 9.472656 114.80859 9.472656 115.01953 C 9.472656 115.22656 9.242188 115.45703 8.960938 115.53125 C 8.679688 115.60548 8.449219 115.83594 8.449219 116.04297 C 8.449219 116.25 8.21875 116.48047 7.9375 116.55469 C 7.6562505 116.628914 7.4257803 116.859375 7.4257803 117.06641 C 7.4257803 117.27344 7.195312 117.50391 6.9101553 117.578125 C 6.628906 117.65234 6.398438 117.89453 6.398438 118.12109 C 6.398438 118.34375 6.226562 118.52734 6.015625 118.52734 C 5.804688 118.52734 5.632812 118.75391 5.632812 119.039055 C 5.632812 119.38281 5.4609385 119.55078 5.121094 119.55078 C 4.777344 119.55078 4.609375 119.72266 4.609375 120.06251 C 4.609375 120.40625 4.4375 120.57422 4.097656 120.57422 C 3.753906 120.57422 3.585938 120.74609 3.585938 121.08984 C 3.585938 121.42969 3.414062 121.60157 3.070312 121.60157 C 2.7304692 121.60157 2.558594 121.76953 2.558594 122.11328 C 2.558594 122.464836 2.390625 122.625 2.015625 122.625 C 1.515625 122.625 1.480469 122.73047 1.601562 123.80859 C 1.7539061 125.16406 2.050781 125.42969 3.390625 125.4375 C 4.007812 125.4375 4.535156 125.62499 4.863281 125.953125 C 5.21875 126.3086 5.71875 126.464836 6.496094 126.464836 C 7.4062505 126.464836 7.644531 126.5625 7.753906 126.97656 C 7.867188 127.40234 8.105469 127.48827 9.164062 127.48827 C 10.222656 127.48827 10.457031 127.57422 10.570312 128 C 10.679688 128.41797 10.917969 128.51172 11.878907 128.51172 C 12.773438 128.51172 13.128906 128.63281 13.371094 129.02344 C 13.589843 129.3711 13.96875 129.53516 14.5625 129.53516 C 15.070312 129.53516 15.558594 129.71094 15.738281 129.95313 C 15.921875 130.20703 16.558594 130.42188 17.363281 130.4961 C 18.1875 130.57813 18.6875 130.7461 18.6875 130.94531 C 18.6875 131.32031 19.488281 131.57422 20.671875 131.58203 C 21.230469 131.58203 21.503904 131.70703 21.503904 131.96094 C 21.503904 132.21875 21.910156 132.38672 22.800781 132.50781 C 23.515625 132.60156 24.253906 132.83594 24.445313 133.02734 C 24.640625 133.21875 25.179686 133.375 25.648438 133.375 C 26.222656 133.375 26.605469 133.54297 26.820314 133.88672 C 27.066406 134.27734 27.417969 134.39844 28.3125 134.39844 C 29.27344 134.39844 29.511719 134.49219 29.621094 134.91016 C 29.734375 135.34375 29.972656 135.42578 31.105469 135.42578 C 32.23828 135.42578 32.472656 135.50781 32.585938 135.9375 C 32.695313 136.35547 32.9375 136.44922 33.89453 136.44922 C 34.76172 136.44922 35.14453 136.57031 35.367188 136.92578 C 35.691406 137.44531 36.609375 137.3789 36.609375 136.83203 C 36.609375 136.04297 40.796875 136.98438 43.902348 138.47266 C 44.1875 138.60938 44.703125 138.79297 45.054688 138.88281 C 45.40625 138.97656 46.675785 139.42969 47.871094 139.89063 C 52.097652 141.53125 57.996094 143.65625 58.996098 143.90625 C 59.554688 144.04297 60.132813 144.2461 60.277344 144.35547 C 60.425777 144.46484 62.097652 145.10156 64 145.77344 C 67.328125 146.94922 68.02734 147.20703 71.67969 148.5664 C 72.59375 148.90625 73.921875 149.38672 74.625 149.63281 C 76.49219 150.28906 79.15234 151.28906 79.74219 151.55469 C 80.02734 151.67969 80.66016 151.89844 81.15234 152.03906 C 81.64453 152.17969 82.85547 152.59375 83.83984 152.96484 C 84.82422 153.33594 86.609375 153.98047 87.80859 154.40234 C 89.00391 154.82031 90.21484 155.26953 90.49609 155.39844 C 90.77734 155.52734 91.46875 155.79688 92.03125 155.9961 C 92.59374 156.1914 94.37891 156.83984 96 157.42969 C 97.62109 158.02344 99.40626 158.66797 99.96875 158.85938 C 100.53125 159.05469 101.796875 159.51172 102.78516 159.8789 C 105.19531 160.77344 107.17969 161.49219 108.41406 161.92188 C 108.98047 162.11328 110.24609 162.57422 111.23046 162.94531 C 112.21875 163.3125 113.42577 163.73438 113.921875 163.8789 C 114.41406 164.02734 114.92969 164.23438 115.07031 164.33984 C 115.21094 164.44922 116.421875 164.89844 117.76172 165.34375 C 119.09765 165.79297 120.421875 166.26563 120.70313 166.39844 C 121.35937 166.71094 123.16797 167.35547 124.80078 167.85938 C 125.50391 168.07813 126.19531 168.34375 126.33594 168.45313 C 126.47656 168.5625 126.99609 168.77344 127.48827 168.91797 C 127.98047 169.0664 129.1914 169.48828 130.17578 169.85547 C 131.16016 170.22656 132.42969 170.6836 132.99219 170.8789 C 134.09375 171.25781 135.77734 171.8711 138.625 172.92967 C 139.60938 173.29686 140.875 173.75389 141.4414 173.9453 C 142.0039 174.1367 143.26953 174.58984 144.25781 174.95703 C 145.24219 175.32031 147.08594 175.98047 148.35156 176.42188 C 149.6211 176.86327 150.76953 177.3086 150.91016 177.41797 C 151.05469 177.52345 151.57031 177.73438 152.0625 177.88281 C 153.23047 178.23048 156.16797 179.26953 157.95313 179.96094 C 158.72656 180.25781 160.45313 180.89063 161.79297 181.36719 C 163.1289 181.83986 165.03125 182.53125 166.01563 182.90625 C 167 183.28125 168.26953 183.74217 168.83203 183.9375 C 169.39453 184.13281 170.66406 184.58984 171.64844 184.95703 C 172.63283 185.3203 173.90233 185.77734 174.46484 185.97266 C 175.02734 186.16797 176.29297 186.62892 177.28125 187 C 178.26563 187.3711 179.41797 187.78125 179.83984 187.91406 C 180.26172 188.04298 180.83983 188.26561 181.12108 188.39842 C 181.40234 188.53516 182.71484 189.01564 184.03906 189.46484 C 185.35938 189.91016 186.74219 190.4336 187.10938 190.625 C 187.47656 190.8164 187.90625 190.97266 188.0664 190.97655 C 188.22656 190.97655 188.86328 191.20313 189.47656 191.48047 C 190.08984 191.76172 190.8086 191.9922 191.07422 191.9961 C 191.3711 192 175.07031 175.51563 148.2539 148.69922 C 124.43751 124.88672 104.890625 105.160164 104.82031 104.859375 C 104.69922 104.375 104.960945 102.6875 106.117195 96.51173 C 106.3125 95.45703 106.70704 93.265625 106.98828 91.64844 C 107.26953 90.02734 107.60548 88.34766 107.734375 87.91406 C 107.86329 87.48048 108.05859 86.38672 108.16016 85.48047 C 108.265625 84.578125 108.45703 83.55859 108.58984 83.21094 C 108.71874 82.86719 108.99609 81.484375 109.203125 80.140625 C 109.410164 78.796875 109.80079 76.54297 110.07031 75.13672 C 111.39844 68.16797 111.65625 66.765625 112.01171 64.51172 C 112.22656 63.17578 112.503914 61.734375 112.628914 61.3125 C 112.75391 60.890625 112.984375 59.73828 113.140625 58.753906 C 113.296875 57.765625 113.58594 56.210938 113.78516 55.296875 C 113.98047 54.378906 114.39062 52.191406 114.69141 50.433594 C 114.99219 48.67188 115.40234 46.48437 115.60156 45.566406 C 115.80078 44.652344 116.07422 43.210938 116.21094 42.367188 C 116.34766 41.523438 116.63673 39.910156 116.851555 38.785156 C 117.70703 34.339844 117.867195 33.48828 119 27.265625 C 119.28126 25.714844 119.57422 24.27344 119.65234 24.0625 C 119.73048 23.851564 119.97266 22.585938 120.18751 21.246094 C 120.402336 19.910156 120.80078 17.664063 121.07422 16.257813 C 121.98438 11.511719 122.609375 8.078125 123.039055 5.4414063 C 123.40234 3.207031 123.53516 2.816406 123.94141 2.816406 C 124.27734 2.816406 124.41406 2.628906 124.41406 2.175781 C 124.41406 1.386719 121.98047 1.171875 121.6875 1.9375"/>
        <path fill="#fafaf9" fill-rule="evenodd" stroke="none" d="M 124.0039 2.734375 C 123.53125 2.8281252 123.40626 3.1718748 123.03516 5.453125 C 122.609375 8.078125 121.98438 11.519531 121.07422 16.257813 C 120.80078 17.664063 120.402336 19.910156 120.18751 21.246094 C 119.97266 22.585938 119.73048 23.851564 119.65234 24.0625 C 119.57422 24.27344 119.28126 25.714844 119 27.265625 C 117.867195 33.48828 117.70703 34.339844 116.851555 38.785156 C 116.63673 39.910156 116.34766 41.523438 116.21094 42.367188 C 116.07422 43.210938 115.80078 44.652344 115.60156 45.566406 C 115.40234 46.48437 114.99219 48.67188 114.69141 50.433594 C 114.39062 52.191406 113.98047 54.378906 113.78516 55.296875 C 113.58594 56.210938 113.296875 57.765625 113.140625 58.753906 C 112.984375 59.73828 112.75391 60.890625 112.628914 61.3125 C 112.503914 61.734375 112.22656 63.17578 112.01171 64.51172 C 111.65625 66.765625 111.39844 68.16797 110.07031 75.13672 C 109.80079 76.54297 109.410164 78.796875 109.203125 80.140625 C 108.99609 81.484375 108.71874 82.86719 108.58984 83.21094 C 108.45703 83.55859 108.265625 84.578125 108.16016 85.48047 C 108.05859 86.38672 107.86329 87.48048 107.734375 87.91406 C 107.60548 88.34766 107.26953 90.02734 106.98828 91.64844 C 106.70704 93.265625 106.3125 95.45703 106.117195 96.51173 C 104.960945 102.6875 104.69922 104.375 104.82031 104.859375 C 105.00391 105.61328 191.51563 192.07422 191.8008 191.78906 C 191.92969 191.66016 191.6875 190.61328 191.21484 189.28516 C 190.29689 186.70314 188.6836 182.19922 188.0625 180.48047 C 187.83203 179.84766 187.53125 179.09766 187.39455 178.8164 C 187.26173 178.53516 186.8086 177.26563 186.39452 176 C 185.97656 174.73438 185.28516 172.83203 184.85156 171.77734 C 184.41797 170.71875 184.06639 169.6836 184.0625 169.47266 C 184.0625 169.26172 183.90625 168.79297 183.71875 168.4336 C 183.53125 168.07422 183.19922 167.26953 182.97655 166.64063 C 182.28125 164.67188 180.58594 159.98828 179.45703 156.92969 C 178.85938 155.3086 178.21873 153.52344 178.02733 152.96094 C 177.83984 152.39844 177.38281 151.1289 177.01172 150.14453 C 176.64453 149.16016 176.18361 147.89063 175.9961 147.32813 C 175.80469 146.76563 175.0625 144.75781 174.35156 142.8711 C 173.64063 140.98047 173.05469 139.3125 173.05469 139.16016 C 173.05469 139.0039 172.90234 138.59375 172.72264 138.23828 C 172.53906 137.88672 172.01172 136.5039 171.54688 135.16797 C 171.08203 133.83203 170.60156 132.5039 170.47656 132.22266 C 170.35547 131.9414 170.09375 131.25 169.89453 130.6875 C 169.58203 129.79688 168.9336 128.01172 166.92578 122.49609 C 166.66797 121.79298 166.04688 120.06251 165.54297 118.65624 C 165.03906 117.24609 164.32422 115.28907 163.96094 114.30469 C 163.59375 113.32031 162.83594 111.24609 162.27344 109.69531 C 161.71094 108.14844 160.78906 105.61328 160.22656 104.06251 C 159.66406 102.51563 159.08203 100.84374 158.9336 100.35156 C 158.78906 99.859375 158.58203 99.33985 158.48047 99.19922 C 158.3789 99.05859 157.91406 97.79298 157.44922 96.38281 C 156.98047 94.97656 156.51563 93.70703 156.40625 93.56641 C 156.30078 93.42577 156.09375 92.91015 155.94531 92.41406 C 155.79688 91.92188 155.375 90.714836 155.00781 89.72657 C 154.64063 88.74219 154.17969 87.47656 153.98438 86.91016 C 153.79297 86.34766 153.33203 85.08203 152.96094 84.09766 C 152.59375 83.109375 152.13281 81.84375 151.9414 81.28125 C 151.75 80.71875 151.29297 79.44922 150.92188 78.46484 C 150.55078 77.47656 150.14063 76.328125 150.00781 75.90234 C 149.875 75.48047 149.66016 74.90625 149.52734 74.625 C 149.39453 74.34375 149.11328 73.59375 148.89844 72.96094 C 148.17578 70.81641 147.69922 69.50781 147.46094 68.99219 C 147.32813 68.71094 146.91797 67.55859 146.54297 66.43359 C 146.16797 65.30469 145.71875 64.03906 145.54688 63.617188 C 144.98828 62.26953 144.17578 60.10156 143.33984 57.726563 C 142.01172 53.953125 141.66797 53.003902 140.53906 49.921875 C 139.94531 48.30078 139.02344 45.765625 138.49219 44.289066 C 137.96094 42.808594 137.23438 40.804688 136.8789 39.835938 C 136.30469 38.28125 136.2461 37.808594 136.375 35.839844 C 136.50781 33.79297 136.47266 33.5625 135.97266 33.058594 C 135.61719 32.703125 135.42578 32.191406 135.42578 31.593752 C 135.42578 30.88672 135.30469 30.640625 134.91016 30.539063 C 134.48047 30.425781 134.39844 30.1875 134.39844 29.027344 C 134.39844 27.820314 134.33594 27.648438 133.88672 27.648438 C 133.4375 27.648438 133.375 27.476563 133.375 26.230469 C 133.375 25.210936 133.26953 24.773438 132.99219 24.667969 C 132.78125 24.585938 132.60547 24.21875 132.60547 23.84375 C 132.60547 23.472656 132.375 22.792967 132.09375 22.328125 C 131.8125 21.867188 131.58594 21.214844 131.58594 20.878906 C 131.58594 20 131.32813 19.457031 130.91797 19.457031 C 130.67188 19.457031 130.5586 19.140625 130.5586 18.453125 C 130.5586 17.203125 130.35156 16.640625 129.89063 16.640625 C 129.64063 16.640625 129.53516 16.300781 129.53516 15.488281 C 129.53516 14.675781 129.38281 14.183595 129.02344 13.824219 C 128.71484 13.515625 128.51172 12.972656 128.51172 12.457031 C 128.51172 11.925782 128.3164 11.421875 128 11.13672 C 127.65234 10.820311 127.48827 10.347656 127.48827 9.664062 C 127.48827 8.871094 127.37891 8.628906 126.97656 8.523438 C 126.54297 8.410156 126.464836 8.171875 126.464836 7.011719 C 126.464836 5.8125 126.39843 5.632812 125.96484 5.632812 C 125.535164 5.632812 125.453125 5.421875 125.390625 4.164062 C 125.30859 2.628906 125.17969 2.496094 124.0039 2.734375"/>
        <path fill="#145494" fill-rule="evenodd" stroke="none" d="M 136.61719 35.90625 C 136.72656 36.08203 136.78516 36.472656 136.7461 36.773438 C 136.65625 37.453125 137.41797 40.140625 137.89063 40.82422 C 138.08203 41.101563 138.24219 41.5625 138.25 41.847656 C 138.2539 42.132813 138.48047 42.828125 138.7539 43.39062 C 139.02344 43.95703 139.25 44.652344 139.2539 44.941402 C 139.26172 45.23047 139.375 45.57813 139.51563 45.71484 C 139.7539 45.95703 140.48828 47.878906 141.16406 50.046875 C 141.33984 50.60938 141.67578 51.5 141.91016 52.023438 C 142.14453 52.54688 142.33594 53.187504 142.33594 53.445316 C 142.33594 53.70313 142.4414 54.023438 142.57031 54.156254 C 142.8086 54.402344 143.66797 56.691406 144.15234 58.367188 C 144.29297 58.859375 144.5664 59.609375 144.75781 60.031254 C 144.94922 60.453125 145.41406 61.664063 145.79297 62.71875 C 146.17188 63.77734 146.64453 65.01953 146.84375 65.48047 C 147.03906 65.94141 147.20313 66.46094 147.20703 66.63281 C 147.21484 66.80469 147.4414 67.40625 147.71094 67.96875 C 147.98438 68.53125 148.21484 69.16406 148.22266 69.375 C 148.23438 69.58594 148.46484 70.22266 148.73438 70.78516 C 149.00781 71.34766 149.23438 72.01172 149.23828 72.25781 C 149.2461 72.50391 149.47656 73.13672 149.76172 73.66016 C 150.04297 74.1875 150.27344 74.83203 150.27344 75.09375 C 150.27344 75.35547 150.44531 75.875 150.65234 76.25 C 151.04297 76.94531 151.64063 78.546875 152.09766 80.12891 C 152.24219 80.62109 152.58203 81.49219 152.85156 82.06641 C 153.1211 82.63672 153.34375 83.33594 153.34375 83.61328 C 153.34375 83.89453 153.45703 84.234375 153.59375 84.37109 C 153.84375 84.62109 154.67578 86.85547 155.15625 88.57422 C 155.29688 89.07031 155.5664 89.76172 155.76172 90.11328 C 155.95313 90.464836 156.19531 91.18359 156.29297 91.71484 C 156.39453 92.2461 156.57422 92.73828 156.69531 92.8125 C 156.8164 92.88672 157.03906 93.433586 157.1875 94.02734 C 157.33984 94.62109 157.61719 95.44922 157.80469 95.871086 C 157.99219 96.29297 158.28516 97.04296 158.46094 97.535164 C 158.63281 98.02734 158.9375 98.89453 159.13281 99.45703 C 159.33203 100.01953 159.58984 100.65625 159.71484 100.87109 C 159.83594 101.08984 160.02344 101.66406 160.1289 102.15234 C 160.23828 102.64063 160.53906 103.44141 160.80078 103.93359 C 161.0664 104.421875 161.28125 105.02735 161.28125 105.27735 C 161.28125 105.52734 161.51172 106.16016 161.79297 106.68359 C 162.07422 107.21094 162.30469 107.81249 162.30469 108.02344 C 162.30469 108.42969 163.17188 110.796875 163.71484 111.871086 C 163.89063 112.22266 164.11328 112.875 164.21094 113.32031 C 164.30469 113.76172 164.60547 114.566414 164.8789 115.10156 L 165.375 116.07422 L 165.375 115.32031 C 165.375 114.90234 165.14453 114.21484 164.86328 113.79298 C 164.58594 113.37109 164.35547 112.72266 164.35547 112.35547 C 164.35156 111.98829 164.1211 111.390625 163.83984 111.03516 C 163.5586 110.67578 163.32813 110.03906 163.32813 109.62109 C 163.32813 109.20703 163.16797 108.73047 162.97266 108.56641 C 162.77734 108.40625 162.53906 107.765625 162.44922 107.148445 C 162.35547 106.53124 162.1211 105.89453 161.92578 105.73438 C 161.73438 105.57422 161.4961 104.960945 161.39844 104.3711 C 161.30469 103.77734 161.07813 103.125 160.89844 102.91016 C 160.71484 102.69923 160.48828 102.12501 160.38672 101.63281 C 160.28906 101.140625 160.0625 100.503914 159.88672 100.22266 C 159.71094 99.94141 159.48047 99.25 159.3789 98.6875 C 159.27344 98.12501 159.04297 97.49218 158.86328 97.28125 C 158.67969 97.07031 158.46094 96.5 158.36719 96.015625 C 158.27734 95.53516 158.04688 94.95704 157.85547 94.73828 C 157.66406 94.51563 157.4414 93.828125 157.36328 93.203125 C 157.28125 92.5625 157.04688 91.97656 156.82031 91.84766 C 156.57813 91.71484 156.41406 91.28126 156.41406 90.773445 C 156.41406 90.3086 156.1875 89.63281 155.90234 89.27344 C 155.6211 88.91406 155.39063 88.296875 155.39063 87.89453 C 155.39063 87.496086 155.16016 86.82423 154.8789 86.39843 C 154.60156 85.97656 154.3711 85.34375 154.36719 84.99219 C 154.36719 84.640625 154.13672 84.00781 153.85547 83.58594 C 153.57813 83.16016 153.34766 82.52734 153.34375 82.17578 C 153.34375 81.82422 153.11328 81.19141 152.83203 80.76953 C 152.55078 80.34375 152.32422 79.70703 152.32031 79.35156 C 152.32031 78.99609 152.15625 78.47266 151.95703 78.1875 C 151.75781 77.90234 151.51563 77.24609 151.41797 76.73047 C 151.32031 76.21484 151.08594 75.66406 150.89844 75.50781 C 150.70703 75.35156 150.47656 74.71875 150.38281 74.09766 C 150.29297 73.48047 150.0664 72.85156 149.8789 72.69922 C 149.69531 72.54297 149.46484 71.93359 149.36719 71.34375 C 149.27344 70.75391 149.04688 70.09766 148.8711 69.88672 C 148.69531 69.67578 148.48047 69.05859 148.39844 68.51172 C 148.3125 67.96484 148.07031 67.32422 147.85156 67.08594 C 147.63281 66.84375 147.45703 66.42578 147.45313 66.15625 C 147.45313 65.88672 147.26563 65.32031 147.03906 64.89453 C 146.8086 64.47266 146.52344 63.621094 146.40234 63.003902 C 146.27734 62.38672 146.01953 61.753906 145.82422 61.597656 C 145.6289 61.441406 145.40625 60.800785 145.32813 60.179688 C 145.25 59.535156 145.01563 58.953125 144.78516 58.82422 C 144.55078 58.691406 144.38281 58.257813 144.38281 57.77734 C 144.38281 57.32812 144.15234 56.613277 143.8711 56.191406 C 143.59375 55.769535 143.36328 55.097656 143.36328 54.695313 C 143.35938 54.29687 143.1289 53.67578 142.84766 53.31641 C 142.5664 52.960938 142.33594 52.34375 142.33594 51.953125 C 142.33594 51.558594 142.14844 51.05078 141.91797 50.820313 C 141.6914 50.589844 141.4414 49.882813 141.3711 49.242188 C 141.30078 48.605473 141.09375 48.027348 140.91797 47.96094 C 140.74219 47.89453 140.51953 47.32812 140.42578 46.70703 C 140.33594 46.08203 140.10156 45.41797 139.90625 45.222656 C 139.71484 45.03125 139.47656 44.425777 139.3789 43.875 C 139.28125 43.32812 139.05469 42.70703 138.88281 42.496094 C 138.70703 42.285156 138.4961 41.652344 138.41016 41.089844 C 138.32422 40.527344 138.08594 39.945313 137.88281 39.796875 C 137.65625 39.628906 137.4414 38.816406 137.33203 37.69922 C 137.21094 36.48047 137.03125 35.82422 136.78906 35.73047 C 136.54297 35.63672 136.48828 35.695313 136.61719 35.90625 M 163.35547 37.054688 C 163.54688 37.371094 163.8711 37.632813 164.07422 37.632813 C 164.27344 37.632813 164.39063 37.601563 164.33203 37.566406 C 164.27344 37.527344 163.94922 37.26953 163.61328 36.98828 L 163 36.48047 L 163.35547 37.054688 M 165.375 116.84766 C 165.375 117.05078 165.48828 117.285164 165.625 117.37109 C 165.76172 117.45703 165.9961 118.01172 166.14453 118.60156 C 166.29297 119.19531 166.57031 119.96875 166.76172 120.32032 C 166.95313 120.671875 167.1914 121.34376 167.28906 121.808586 C 167.39063 122.27734 167.63281 122.96875 167.83203 123.34375 C 168.02734 123.72266 168.1875 124.19141 168.1914 124.38673 C 168.1914 124.58203 168.40625 125.21876 168.66797 125.796875 C 168.92969 126.37501 169.28516 127.25 169.46094 127.74219 C 169.78125 128.64844 169.91797 129.03906 170.82422 131.58594 C 171.10156 132.35938 171.54297 133.46484 171.80858 134.04297 C 172.07031 134.6211 172.28906 135.28516 172.28906 135.51563 C 172.28906 135.75 172.51953 136.36719 172.80078 136.89453 C 173.08203 137.41797 173.31248 138.01953 173.31248 138.23047 C 173.31248 138.61328 174.07811 140.7539 174.73828 142.20703 C 174.92969 142.6289 175.16406 143.32031 175.2578 143.74219 C 175.35156 144.16797 175.51955 144.6289 175.63281 144.76953 C 175.74217 144.91406 175.98047 145.60547 176.15623 146.3086 C 176.33202 147.00781 176.6289 147.73438 176.8125 147.92188 C 177 148.10938 177.15234 148.51172 177.15234 148.82031 C 177.15234 149.13281 177.36719 149.78516 177.62889 150.27734 C 177.89063 150.76563 178.1914 151.55078 178.29297 152.01563 C 178.39452 152.48438 178.64063 153.17578 178.83984 153.55469 C 179.03516 153.92969 179.20314 154.41406 179.20703 154.625 C 179.21094 154.83594 179.44139 155.46875 179.71094 156.03125 C 179.98439 156.59375 180.21094 157.23047 180.21484 157.44531 C 180.21875 157.65625 180.45313 158.26172 180.73438 158.78516 C 181.01953 159.3125 181.25 159.94531 181.25 160.1914 C 181.25 160.4375 181.41797 160.96094 181.625 161.35547 C 181.83203 161.75 182.11328 162.4414 182.25 162.89453 C 182.38673 163.34375 182.80077 164.51953 183.17188 165.5039 C 183.54297 166.48828 183.95703 167.69922 184.08984 168.1914 C 184.22658 168.6836 184.4922 169.375 184.6875 169.72656 C 184.8789 170.07813 185.15627 170.76953 185.30467 171.26563 C 185.44922 171.75781 185.875 172.96484 186.24611 173.95313 C 186.61719 174.9375 187.04688 176.20313 187.19922 176.76953 C 187.34766 177.33205 187.6289 178.01953 187.8164 178.29688 C 188.0039 178.57422 188.16016 178.97656 188.16016 179.19139 C 188.16406 179.40625 188.34766 179.92969 188.57031 180.35156 C 188.79297 180.77344 189.1289 181.6367 189.31248 182.27344 C 189.82422 184.02342 190.4297 185.65234 190.85156 186.40625 C 191.0586 186.78125 191.23438 187.30078 191.23438 187.55858 C 191.23438 187.82031 191.39844 188.34375 191.59377 188.72264 C 192.14061 189.76952 192.81642 192.26953 192.66406 192.67186 C 192.50783 193.07422 191.08594 193.15234 190.84766 192.76953 C 190.76172 192.6289 190.5664 192.51172 190.41795 192.51172 C 190.2461 192.51172 190.26172 192.65234 190.46484 192.89453 C 190.84373 193.35547 192.53905 193.40627 192.97266 192.97266 C 193.39844 192.54688 193.35938 191.34766 192.90234 190.89063 C 192.69531 190.6836 192.44923 190.03516 192.35547 189.44922 C 192.26172 188.86328 192.04688 188.2461 191.8789 188.07813 C 191.71095 187.91017 191.5039 187.32422 191.41406 186.78125 C 191.32422 186.23828 191.09377 185.60547 190.89453 185.375 C 190.69533 185.14844 190.46092 184.5 190.375 183.9375 C 190.28906 183.37498 190.06252 182.79688 189.87108 182.65625 C 189.67967 182.51563 189.45313 181.8867 189.37108 181.25781 C 189.28516 180.6289 189.05469 179.9961 188.85938 179.84766 C 188.66016 179.70313 188.42969 179.07033 188.34766 178.4414 C 188.26172 177.8125 188.01172 177.16797 187.79298 177.0039 C 187.5742 176.84375 187.39063 176.40623 187.39063 176.03517 C 187.39063 175.66406 187.16017 174.92969 186.87892 174.40233 C 186.59766 173.8789 186.36719 173.14453 186.36719 172.76953 C 186.36719 172.39842 186.19922 171.95313 185.99219 171.78125 C 185.78125 171.60938 185.53908 171.04688 185.44922 170.53516 C 185.35547 170.01953 185.06642 169.24219 184.80078 168.80078 C 184.53516 168.36328 184.32031 167.72656 184.32031 167.38672 C 184.32031 167.04688 184.15623 166.53516 183.95703 166.2539 C 183.7578 165.96484 183.51172 165.27734 183.41406 164.72266 C 183.3125 164.16797 183.08203 163.53906 182.90236 163.32813 C 182.71875 163.11719 182.49219 162.50781 182.39063 161.97266 C 182.29297 161.4375 182.05078 160.83984 181.85548 160.64453 C 181.66016 160.44922 181.42578 159.75 181.33594 159.09766 C 181.2461 158.4414 181.01564 157.84766 180.82813 157.77344 C 180.63672 157.69922 180.48047 157.38281 180.48047 157.0664 C 180.48047 156.32813 179.97656 154.8789 179.72266 154.8789 C 179.61328 154.8789 179.46094 154.41016 179.3828 153.83594 C 179.30469 153.26172 179.0625 152.58984 178.83595 152.34375 C 178.6133 152.09766 178.4336 151.54688 178.4336 151.11719 C 178.4336 150.6914 178.21873 150.0664 177.96094 149.73047 C 177.69922 149.39453 177.41406 148.66016 177.32422 148.09766 C 177.23828 147.53516 177.00783 146.95703 176.81642 146.8164 C 176.62502 146.67578 176.39844 146.0625 176.32031 145.45313 C 176.23828 144.84375 175.98828 144.14453 175.76563 143.89453 C 175.54297 143.64844 175.35936 143.1289 175.35936 142.74219 C 175.35936 142.35156 175.1289 141.73828 174.84766 141.38281 C 174.5664 141.02344 174.33594 140.38281 174.33594 139.95313 C 174.33594 139.52734 174.15625 138.98047 173.9414 138.73828 C 173.72267 138.5 173.47656 137.85547 173.39453 137.3125 C 173.31248 136.76563 173.09375 136.14844 172.91405 135.9375 C 172.73438 135.72656 172.5039 135.08984 172.40625 134.52734 C 172.30469 133.96484 172.0742 133.33203 171.89453 133.1211 C 171.71094 132.91016 171.47656 132.27734 171.375 131.71875 C 171.26953 131.16016 171.04297 130.5586 170.8711 130.38672 C 170.69922 130.21484 170.48047 129.5586 170.38672 128.92969 C 170.29297 128.30469 170.0664 127.73048 169.8789 127.66016 C 169.69531 127.58984 169.48047 127.05469 169.40234 126.464836 C 169.32422 125.87891 169.09375 125.20703 168.88672 124.97266 C 168.6836 124.73828 168.44922 124.09766 168.36719 123.55078 C 168.28125 123.00781 168.03516 122.36328 167.82031 122.12501 C 167.60156 121.882805 167.42578 121.33594 167.42578 120.91015 C 167.42578 120.484375 167.19531 119.83984 166.91016 119.48048 C 166.6289 119.125 166.39844 118.484375 166.39844 118.0586 C 166.39844 117.63281 166.21875 117.101555 165.9961 116.88281 C 165.5 116.38281 165.375 116.378914 165.375 116.84766 M 50.304688 141.82422 C 50.726563 142.10547 51.187504 142.33203 51.32812 142.33203 C 51.46875 142.33203 51.23828 142.10547 50.816406 141.82422 C 50.39453 141.54297 49.933594 141.3164 49.79297 141.3164 C 49.65234 141.3164 49.882813 141.54297 50.304688 141.82422 M 72.0625 149.76172 C 72.48828 150.03906 72.94531 150.26953 73.08984 150.26953 C 73.23047 150.26953 73 150.03906 72.57422 149.76172 C 72.15234 149.48047 71.69141 149.25 71.55078 149.25 C 71.41016 149.25 71.640625 149.48047 72.0625 149.76172 M 74.82031 150.78516 C 76.046875 151.4414 76.38672 151.4414 75.390625 150.78516 C 74.96875 150.5039 74.453125 150.27344 74.24219 150.27344 C 74.03516 150.27344 74.29297 150.5039 74.82031 150.78516 M 80.51172 152.83203 C 80.93359 153.11328 81.39453 153.33984 81.53516 153.33984 C 81.67578 153.33984 81.41406 153.11328 80.953125 152.83203 C 79.86719 152.16797 79.51172 152.16797 80.51172 152.83203 M 105.328125 161.92969 C 105.60157 162.13672 105.9414 162.30469 106.08203 162.30469 C 106.22266 162.30469 106.11328 162.13672 105.83984 161.92969 C 105.56641 161.72266 105.23047 161.55078 105.08984 161.55078 C 104.94531 161.55078 105.05469 161.72266 105.328125 161.92969 M 110.48047 163.70313 C 110.75391 163.91016 111.08985 164.07813 111.23046 164.07813 C 111.371086 164.07813 111.265625 163.91016 110.99219 163.70313 C 110.71875 163.4961 110.37891 163.32813 110.23828 163.32813 C 110.09766 163.32813 110.20702 163.4961 110.48047 163.70313 M 113.535164 164.86328 C 113.95703 165.14453 114.41797 165.3711 114.55859 165.375 C 114.69923 165.375 114.4375 165.14453 113.97656 164.86328 C 112.890625 164.19922 112.53516 164.19922 113.535164 164.86328 M 116.22266 165.76172 C 116.39844 165.97266 116.65625 166.14453 116.796875 166.14453 C 116.94141 166.14453 116.91406 165.97266 116.734375 165.76172 C 116.5625 165.54688 116.30078 165.375 116.16016 165.375 C 116.01953 165.375 116.046875 165.54688 116.22266 165.76172 M 141.01953 174.82814 C 141.35156 175.1211 141.8125 175.35936 142.04297 175.35936 C 142.42188 175.35547 142.20313 175.20703 140.73828 174.46092 C 140.5625 174.37111 140.6875 174.53514 141.01953 174.82814 M 160.36719 181.89453 C 160.64063 182.10156 160.98047 182.27344 161.1211 182.27344 C 161.26172 182.27344 161.15625 182.10156 160.8789 181.89453 C 160.60547 181.6914 160.26953 181.51953 160.1289 181.51953 C 159.98828 181.51953 160.09375 181.6914 160.36719 181.89453 M 171.22656 185.83592 C 171.5625 186.12892 172.02344 186.36719 172.2539 186.36719 C 172.63283 186.3633 172.41016 186.21484 170.94531 185.46875 C 170.76953 185.37889 170.89453 185.54297 171.22656 185.83592 M 179.79298 188.99219 C 180.0625 189.23827 180.46875 189.4336 180.69922 189.42578 C 180.96484 189.41408 180.89063 189.3164 180.49219 189.15625 C 180.14842 189.01953 179.74219 188.82423 179.58595 188.72656 C 179.42969 188.625 179.52344 188.7461 179.79298 188.99219"/>
        <path fill="#365d7c" fill-rule="evenodd" stroke="none" d="M 136.32422 36.847656 C 136.1836 37.683594 136.375 38.476563 137.4375 41.39453 C 138.14453 43.335938 138.88672 45.39062 139.08594 45.953125 C 139.28906 46.515625 139.9414 48.30078 140.53516 49.921875 C 141.66406 52.98828 141.99219 53.902348 143.33984 57.726563 C 144.17578 60.10156 144.98828 62.26953 145.54688 63.617188 C 145.71875 64.03906 146.16797 65.30469 146.54297 66.43359 C 146.91797 67.55859 147.32813 68.71094 147.46094 68.99219 C 147.69922 69.50781 148.17578 70.81641 148.89844 72.96094 C 149.11328 73.59375 149.39453 74.34375 149.52734 74.625 C 149.66016 74.90625 149.875 75.48047 150.00781 75.90234 C 150.14063 76.328125 150.55078 77.47656 150.92188 78.46484 C 151.29297 79.44922 151.75 80.71875 151.9414 81.28125 C 152.13281 81.84375 152.59375 83.109375 152.96094 84.09766 C 153.33203 85.08203 153.79297 86.34766 153.98438 86.91016 C 154.17969 87.47656 154.64063 88.74219 155.00781 89.72657 C 155.375 90.714836 155.79688 91.92188 155.94531 92.41406 C 156.09375 92.91015 156.30078 93.42577 156.40625 93.56641 C 156.51563 93.70703 156.98047 94.97656 157.44922 96.38281 C 157.91406 97.79298 158.3789 99.05859 158.48047 99.19922 C 158.58203 99.33985 158.78906 99.859375 158.9336 100.35156 C 159.08203 100.84374 159.66406 102.51563 160.22656 104.06251 C 160.78906 105.61328 161.71094 108.14844 162.27344 109.69531 C 162.83594 111.24609 163.59375 113.32031 163.96094 114.30469 C 164.32422 115.28907 165.03906 117.24609 165.54297 118.65624 C 166.04688 120.06251 166.66797 121.79298 166.92578 122.49609 C 168.9336 128.01172 169.58203 129.79688 169.89453 130.6875 C 170.09375 131.25 170.35547 131.9414 170.47656 132.22266 C 170.60156 132.5039 171.08203 133.83203 171.54688 135.16797 C 172.01172 136.5039 172.53906 137.88672 172.72264 138.23828 C 172.90234 138.59375 173.05469 139.0039 173.05469 139.16016 C 173.05469 139.3125 173.64063 140.98047 174.35156 142.8711 C 175.0625 144.75781 175.80469 146.76563 175.9961 147.32813 C 176.18361 147.89063 176.64453 149.16016 177.01172 150.14453 C 177.38281 151.1289 177.83984 152.39844 178.02733 152.96094 C 178.21873 153.52344 178.85938 155.3086 179.45703 156.92969 C 180.58594 159.98828 182.28125 164.67188 182.97655 166.64063 C 183.19922 167.26953 183.53125 168.07422 183.71875 168.4336 C 183.90625 168.79297 184.0625 169.26172 184.0625 169.47266 C 184.06639 169.6836 184.41797 170.71875 184.85156 171.77734 C 185.28516 172.83203 185.97656 174.73438 186.39452 176 C 186.8086 177.26563 187.26173 178.53516 187.39455 178.8164 C 187.65234 179.34375 187.8125 179.77344 189.4414 184.32031 C 191.97266 191.37498 192.02734 191.5625 191.7578 191.83594 C 191.42188 192.16798 189.05469 191.5 186.49611 190.35156 C 186.07422 190.16408 184.80467 189.70313 183.67969 189.32813 C 182.55469 188.95313 181.40234 188.53516 181.12108 188.40234 C 180.83983 188.26561 180.26172 188.04298 179.83984 187.91406 C 179.41797 187.78125 178.26563 187.3711 177.28125 187 C 176.29297 186.62892 175.02734 186.16797 174.46484 185.97266 C 173.90233 185.77734 172.63283 185.3203 171.64844 184.95703 C 170.66406 184.58984 169.39453 184.13281 168.83203 183.9375 C 168.26953 183.74217 167 183.28125 166.01563 182.90625 C 165.03125 182.53125 163.1289 181.83986 161.79297 181.36719 C 160.45313 180.89063 158.72656 180.25781 157.95313 179.96094 C 156.16797 179.26953 153.23047 178.23048 152.0625 177.88281 C 151.57031 177.73438 151.05469 177.52345 150.91016 177.41797 C 150.76953 177.3086 149.6211 176.86327 148.35156 176.42188 C 147.08594 175.98047 145.24219 175.32031 144.25781 174.95703 C 143.26953 174.58984 142.0039 174.13281 141.4414 173.9414 C 140.01563 173.44922 137.92188 172.6875 135.8086 171.89453 C 134.82422 171.52344 133.55469 171.0664 132.99219 170.875 C 132.42969 170.6836 131.16016 170.22656 130.17578 169.85547 C 129.1914 169.48828 127.98047 169.0664 127.48827 168.91797 C 126.99609 168.77344 126.47656 168.5625 126.33594 168.45313 C 126.19531 168.34375 125.50391 168.07813 124.80078 167.85938 C 123.16797 167.35547 121.35937 166.71094 120.70313 166.39844 C 120.421875 166.26563 119.09765 165.79297 117.76172 165.34375 C 116.421875 164.89844 115.21094 164.44922 115.07031 164.33984 C 114.92969 164.23438 114.41406 164.02734 113.921875 163.8789 C 113.42577 163.73438 112.21875 163.3125 111.23046 162.94531 C 110.24609 162.57422 108.98047 162.11328 108.41406 161.92188 C 107.17969 161.49219 105.19531 160.77344 102.78516 159.8789 C 101.796875 159.51172 100.53125 159.05469 99.96875 158.85938 C 99.40626 158.66797 97.62109 158.02344 96 157.42969 C 94.37891 156.83984 92.59374 156.1914 92.03125 155.9961 C 91.46875 155.79688 90.77734 155.52734 90.49609 155.39844 C 90.21484 155.26953 89.00391 154.82031 87.80859 154.40234 C 86.609375 153.98047 84.82422 153.33594 83.83984 152.96484 C 82.85547 152.59375 81.64453 152.17969 81.15234 152.03906 C 80.66016 151.89844 80.02734 151.67969 79.74219 151.55469 C 79.15234 151.28906 76.49219 150.28906 74.625 149.63281 C 73.921875 149.38672 72.59375 148.90625 71.67969 148.5664 C 68.02734 147.20703 67.328125 146.94922 64 145.77344 C 62.097652 145.10156 60.425777 144.46484 60.277344 144.35547 C 60.132813 144.2461 59.554688 144.04297 58.996098 143.90625 C 57.996094 143.65625 52.097652 141.53125 47.871094 139.89063 C 46.675785 139.42969 45.40625 138.97656 45.054688 138.88281 C 44.703125 138.79297 44.1875 138.60938 43.902348 138.47266 C 40.773438 136.97266 36.609375 136.04297 36.609375 136.84375 C 36.609375 137.02734 36.40625 137.23438 36.160156 137.30469 C 35.914063 137.3711 36.3125 137.36719 37.046875 137.29297 C 38.07422 137.1836 38.601563 137.26953 39.359375 137.66406 C 39.898438 137.94531 40.73828 138.26172 41.226563 138.36719 C 41.714844 138.47656 42.339844 138.71875 42.617188 138.91406 C 42.89453 139.10547 43.359375 139.26563 43.644535 139.26563 C 43.933594 139.26563 44.570313 139.47656 45.058598 139.73828 C 45.55078 140 46.382813 140.29297 46.910156 140.39063 C 47.441406 140.48828 47.871094 140.67188 47.871094 140.80078 C 47.871094 140.92969 48.304688 141.09766 48.83203 141.17969 C 49.359375 141.26172 50.218754 141.55469 50.738285 141.83203 C 51.257816 142.10938 51.964848 142.33594 52.308594 142.33594 C 52.648438 142.33594 53.07031 142.5039 53.242188 142.71484 C 53.414063 142.92188 53.976563 143.16406 54.488277 143.25 C 55.003902 143.33984 55.890625 143.6289 56.464844 143.89844 C 57.039063 144.16406 57.742188 144.38281 58.035152 144.38281 C 58.32422 144.38281 58.69922 144.55078 58.87109 144.7539 C 59.039063 144.96094 59.683594 145.20313 60.30078 145.29688 C 60.91797 145.38672 61.554688 145.6211 61.71484 145.8125 C 61.871094 146.0039 62.42187 146.23438 62.937496 146.32422 C 63.45312 146.41406 64.10547 146.63281 64.38672 146.8125 C 64.671875 146.98828 65.30469 147.21875 65.79297 147.32813 C 66.28125 147.4336 66.91406 147.66797 67.19531 147.84766 C 67.48047 148.02734 68.11328 148.25781 68.609375 148.35938 C 69.10156 148.46094 69.73047 148.70313 70.00781 148.89844 C 70.28516 149.08984 70.80469 149.25 71.16016 149.25 C 71.515625 149.25 72.15234 149.48047 72.57422 149.76172 C 73 150.03906 73.63672 150.26953 73.99219 150.26953 C 74.34766 150.26953 74.90625 150.46094 75.234375 150.6875 C 75.55859 150.91797 76.19141 151.19922 76.63281 151.3125 C 77.953125 151.64844 79.9375 152.3711 80.92969 152.8711 C 81.44141 153.13281 82.078125 153.34375 82.34375 153.34375 C 82.61328 153.34375 83.07031 153.51172 83.36719 153.71875 C 83.66016 153.92578 84.34766 154.20703 84.89453 154.33984 C 86.15234 154.65625 88.14452 155.35547 89.48828 155.95313 C 90.0625 156.20703 90.76563 156.41406 91.05859 156.41406 C 91.347664 156.41406 91.72266 156.58203 91.89453 156.78906 C 92.06251 156.99219 92.70703 157.23438 93.32422 157.32813 C 93.9414 157.42188 94.58202 157.65625 94.74219 157.85156 C 94.90624 158.04688 95.28907 158.20703 95.59375 158.20703 C 95.89844 158.20703 96.58593 158.4336 97.12109 158.70703 C 97.66016 158.98047 98.441414 159.27734 98.859375 159.36719 C 99.27734 159.46094 99.92578 159.69922 100.30469 159.89453 C 100.68359 160.08984 101.16406 160.25781 101.375 160.26172 C 101.58594 160.26953 102.22266 160.4961 102.78516 160.76953 C 103.347664 161.03906 103.984375 161.26563 104.195305 161.26953 C 104.41016 161.27734 105.015625 161.51172 105.53906 161.79297 C 106.0625 162.07422 106.69531 162.3086 106.94531 162.3125 C 107.19141 162.3164 107.85156 162.54297 108.41406 162.8164 C 108.98047 163.08984 109.671875 163.3164 109.953125 163.32031 C 110.234375 163.32813 110.80859 163.5586 111.23046 163.83984 C 111.65625 164.1211 112.25781 164.34766 112.57032 164.35156 C 112.88281 164.35156 113.515625 164.58203 113.97656 164.86328 C 114.4375 165.14453 115.17578 165.375 115.61719 165.375 C 116.05859 165.375 116.55859 165.54688 116.73047 165.7539 C 116.90235 165.96094 117.4375 166.20313 117.91797 166.29297 C 118.39843 166.38281 119.21485 166.67578 119.73829 166.9414 C 120.25781 167.20703 120.94141 167.42578 121.25391 167.42578 C 121.57031 167.42578 121.89453 167.53516 121.98047 167.67188 C 122.0664 167.8086 122.61719 168.04297 123.21094 168.1914 C 123.804695 168.33984 124.57422 168.61719 124.92969 168.8086 C 125.28125 169 125.97266 169.24219 126.464836 169.34375 C 126.95704 169.44531 127.51953 169.66016 127.71484 169.8164 C 127.91016 169.97656 128.54688 170.23828 129.125 170.39844 C 130.72266 170.84375 131.8711 171.26953 132.91406 171.80469 C 133.4336 172.07031 134.07031 172.28906 134.32813 172.28906 C 134.58203 172.28906 135.22266 172.51953 135.7461 172.80078 C 136.27344 173.08203 136.9336 173.31248 137.21484 173.31248 C 137.5 173.31248 138.16016 173.54297 138.6836 173.82422 C 139.21094 174.10548 139.84375 174.33594 140.09375 174.33594 C 140.34375 174.33594 140.97656 174.5664 141.5 174.84766 C 142.02734 175.1289 142.6875 175.36328 142.97266 175.36719 C 143.2539 175.3711 143.69922 175.53906 143.96094 175.73438 C 144.21875 175.92969 144.90234 176.17188 145.48047 176.26953 C 146.0586 176.36719 146.6836 176.60156 146.875 176.78905 C 147.0625 176.97656 147.64453 177.20703 148.16797 177.30078 C 148.6914 177.39453 149.29297 177.6211 149.5039 177.8047 C 149.71484 177.98438 150.34766 178.21873 150.91016 178.32033 C 151.47656 178.42578 152.16797 178.65234 152.44922 178.82813 C 152.73047 179.0039 153.35938 179.23436 153.85156 179.33595 C 154.34375 179.4375 154.97656 179.67188 155.26172 179.85547 C 155.54297 180.03906 156.20313 180.26561 156.72656 180.35938 C 157.25 180.45702 157.8125 180.69531 157.97266 180.89063 C 158.13672 181.08594 158.57422 181.2461 158.94531 181.2461 C 159.32031 181.2461 160.05469 181.47656 160.57813 181.76172 C 161.10547 182.04297 161.73438 182.27344 161.98438 182.27344 C 162.23047 182.27344 162.8086 182.50392 163.26953 182.78514 C 163.73047 183.0664 164.33594 183.29688 164.61328 183.29688 C 164.89453 183.29688 165.55078 183.52734 166.07813 183.8086 C 166.60156 184.08984 167.23438 184.32031 167.48438 184.32031 C 167.73438 184.32031 168.36719 184.5508 168.89453 184.83205 C 169.41797 185.11327 170.05078 185.34375 170.30078 185.34375 C 170.55078 185.34375 171.1836 185.57422 171.71094 185.85547 C 172.23439 186.13672 172.89845 186.36719 173.1875 186.36719 C 173.47267 186.36719 173.95313 186.53516 174.2461 186.74219 C 174.54297 186.94922 175.2578 187.19531 175.83984 187.28906 C 176.42188 187.3828 176.89453 187.55469 176.89453 187.67188 C 176.89453 187.78906 177.38672 188.01953 177.98438 188.1836 C 178.58203 188.35156 179.53906 188.70313 180.11328 188.96484 C 180.6836 189.22656 181.39845 189.4414 181.69922 189.4414 C 181.9961 189.4414 182.31252 189.55078 182.39453 189.6875 C 182.48047 189.82422 183.03514 190.0586 183.62498 190.20703 C 184.21875 190.35548 184.99219 190.63673 185.34375 190.83203 C 185.69531 191.02734 186.41406 191.26563 186.94531 191.36328 C 187.47266 191.46484 187.90234 191.64061 187.90234 191.7539 C 187.90234 191.8711 188.53516 192.09375 189.3086 192.2539 C 190.07811 192.41406 190.77734 192.65234 190.85936 192.78516 C 191.08984 193.15627 192.51172 193.06642 192.66406 192.67186 C 192.81642 192.26953 192.14061 189.76952 191.59377 188.72264 C 191.39844 188.34375 191.23438 187.82031 191.23438 187.55858 C 191.23438 187.30078 191.0586 186.78125 190.85156 186.40625 C 190.4297 185.65234 189.82422 184.02342 189.31248 182.27344 C 189.1289 181.6367 188.79297 180.77344 188.57031 180.35156 C 188.34766 179.92969 188.16406 179.40625 188.16016 179.19139 C 188.16016 178.97656 188.0039 178.57422 187.8164 178.29688 C 187.6289 178.01953 187.34766 177.33205 187.19922 176.76953 C 187.04688 176.20313 186.61719 174.9375 186.24611 173.95313 C 185.875 172.96484 185.44922 171.75781 185.30467 171.26563 C 185.15627 170.76953 184.8789 170.07813 184.6875 169.72656 C 184.4922 169.375 184.22658 168.6836 184.08984 168.1914 C 183.95703 167.69922 183.54297 166.48828 183.17188 165.5039 C 182.80077 164.51953 182.38673 163.34375 182.25 162.89453 C 182.11328 162.4414 181.83203 161.75 181.625 161.35547 C 181.41797 160.96094 181.25 160.4375 181.25 160.1914 C 181.25 159.94531 181.01953 159.3125 180.73438 158.78516 C 180.45313 158.26172 180.21875 157.65625 180.21484 157.44531 C 180.21094 157.23047 179.98439 156.59375 179.71094 156.03125 C 179.44139 155.46875 179.21094 154.83594 179.20703 154.625 C 179.20314 154.41406 179.03516 153.92969 178.83984 153.55469 C 178.64063 153.17578 178.39452 152.48438 178.29297 152.01563 C 178.1914 151.55078 177.89063 150.76563 177.62889 150.27734 C 177.36719 149.78516 177.15234 149.13281 177.15234 148.82031 C 177.15234 148.51172 177 148.10938 176.8125 147.92188 C 176.6289 147.73438 176.33202 147.00781 176.15623 146.3086 C 175.98047 145.60547 175.74217 144.91406 175.63281 144.76953 C 175.51955 144.6289 175.35156 144.16797 175.2578 143.74219 C 175.16406 143.32031 174.92969 142.6289 174.73828 142.20703 C 174.07811 140.7539 173.31248 138.61328 173.31248 138.23047 C 173.31248 138.01953 173.08203 137.41797 172.80078 136.89453 C 172.51953 136.36719 172.28906 135.75 172.28906 135.51563 C 172.28906 135.28516 172.07031 134.6211 171.80858 134.04297 C 171.54297 133.46484 171.10156 132.35938 170.82422 131.58594 C 170.55078 130.8086 170.17969 129.77344 170 129.28125 C 169.82422 128.78906 169.5586 128.03906 169.41406 127.61719 C 169.26563 127.19531 168.92969 126.37501 168.66797 125.796875 C 168.40625 125.21876 168.1914 124.58203 168.1914 124.38673 C 168.1875 124.19141 168.02734 123.72266 167.83203 123.34375 C 167.63281 122.96875 167.39063 122.27734 167.28906 121.808586 C 167.1914 121.34376 166.95313 120.671875 166.76172 120.32032 C 166.57031 119.96875 166.29297 119.19531 166.14453 118.60156 C 165.9961 118.01172 165.76172 117.45703 165.625 117.37109 C 165.48828 117.285164 165.375 116.960945 165.375 116.64844 C 165.375 116.33203 165.15234 115.63672 164.8789 115.10156 C 164.60547 114.566414 164.30469 113.76172 164.21094 113.32031 C 164.11328 112.875 163.89063 112.22266 163.71484 111.871086 C 163.17188 110.796875 162.30469 108.42969 162.30469 108.02344 C 162.30469 107.81249 162.07422 107.21094 161.79297 106.68359 C 161.51172 106.16016 161.28125 105.52734 161.28125 105.27735 C 161.28125 105.02735 161.0664 104.421875 160.80078 103.93359 C 160.53906 103.44141 160.23828 102.64063 160.1289 102.15234 C 160.02344 101.66406 159.83594 101.08984 159.71484 100.87109 C 159.58984 100.65625 159.33203 100.01953 159.13281 99.45703 C 158.9375 98.89453 158.63281 98.02734 158.46094 97.535164 C 158.28516 97.04296 157.99219 96.29297 157.80469 95.871086 C 157.61719 95.44922 157.33984 94.62109 157.1875 94.02734 C 157.03906 93.433586 156.8164 92.88672 156.69531 92.8125 C 156.57422 92.73828 156.39453 92.2461 156.29297 91.71484 C 156.19531 91.18359 155.95313 90.464836 155.76172 90.11328 C 155.5664 89.76172 155.29688 89.07031 155.15625 88.57422 C 154.67578 86.85547 153.84375 84.62109 153.59375 84.37109 C 153.45703 84.234375 153.34375 83.89453 153.34375 83.61328 C 153.34375 83.33594 153.1211 82.63672 152.85156 82.06641 C 152.58203 81.49219 152.24219 80.62109 152.09766 80.12891 C 151.64063 78.546875 151.04297 76.94531 150.65234 76.25 C 150.44531 75.875 150.27344 75.35547 150.27344 75.09375 C 150.27344 74.83203 150.04297 74.1875 149.76172 73.66016 C 149.47656 73.13672 149.2461 72.50391 149.23828 72.25781 C 149.23438 72.01172 149.00781 71.34766 148.73438 70.78516 C 148.46484 70.22266 148.23438 69.58594 148.22266 69.375 C 148.21484 69.16406 147.98438 68.53125 147.71094 67.96875 C 147.4414 67.40625 147.21484 66.80469 147.20703 66.63281 C 147.20313 66.46094 147.03906 65.94141 146.84375 65.48047 C 146.64453 65.01953 146.17188 63.77734 145.79297 62.71875 C 145.41406 61.664063 144.94922 60.453125 144.75781 60.031254 C 144.5664 59.609375 144.29297 58.859375 144.15234 58.367188 C 143.66797 56.691406 142.8086 54.402344 142.57031 54.156254 C 142.4414 54.023438 142.33594 53.70313 142.33594 53.445316 C 142.33594 53.187504 142.14453 52.54688 141.91016 52.023438 C 141.67578 51.5 141.33984 50.60938 141.16406 50.046875 C 140.48828 47.878906 139.7539 45.95703 139.51563 45.71484 C 139.375 45.57813 139.26172 45.23047 139.2539 44.941402 C 139.25 44.652344 139.02344 43.95703 138.7539 43.39062 C 138.48047 42.828125 138.2539 42.132813 138.25 41.847656 C 138.24219 41.5625 138.08203 41.101563 137.88672 40.82422 C 137.375 40.09375 136.61719 37.222656 136.77734 36.617188 C 136.85156 36.33203 136.8164 36.039063 136.70313 35.96875 C 136.58594 35.89453 136.41797 36.29297 136.32422 36.847656"/>
        <path fill="#043c84" fill-rule="evenodd" stroke="none" d="M 136.86328 35.777344 C 137.01953 35.882813 137.23438 36.76953 137.33594 37.75 C 137.44922 38.804688 137.67188 39.64453 137.88672 39.80078 C 138.08984 39.945313 138.32422 40.527344 138.41016 41.089844 C 138.4961 41.652344 138.70703 42.285156 138.88281 42.496094 C 139.05469 42.70703 139.28125 43.32812 139.3789 43.875 C 139.47656 44.425777 139.71484 45.03125 139.90625 45.222656 C 140.10156 45.41797 140.33594 46.08203 140.42578 46.70703 C 140.51953 47.32812 140.74219 47.89453 140.91797 47.96094 C 141.09375 48.027348 141.30078 48.605473 141.3711 49.242188 C 141.4414 49.882813 141.6914 50.589844 141.91797 50.820313 C 142.14844 51.05078 142.33594 51.558594 142.33594 51.953125 C 142.33594 52.34375 142.5664 52.960938 142.84766 53.31641 C 143.1289 53.67578 143.35938 54.29687 143.36328 54.695313 C 143.36328 55.097656 143.59375 55.769535 143.8711 56.191406 C 144.15234 56.613277 144.38281 57.32812 144.38281 57.77734 C 144.38281 58.257813 144.55078 58.691406 144.78516 58.82422 C 145.01563 58.953125 145.25 59.535156 145.32813 60.179688 C 145.40625 60.800785 145.6289 61.441406 145.82422 61.597656 C 146.01953 61.753906 146.27734 62.38672 146.40234 63.003902 C 146.52344 63.621094 146.8086 64.47266 147.03906 64.89453 C 147.26563 65.32031 147.45313 65.88672 147.45313 66.15625 C 147.45703 66.42578 147.63281 66.84375 147.85156 67.08594 C 148.07031 67.32422 148.3125 67.96484 148.39844 68.51172 C 148.48047 69.05859 148.69531 69.67578 148.8711 69.88672 C 149.04688 70.09766 149.27344 70.75391 149.36719 71.34375 C 149.46484 71.93359 149.69531 72.54297 149.8789 72.69922 C 150.0664 72.85156 150.29297 73.48047 150.38281 74.09766 C 150.47656 74.71875 150.70703 75.35156 150.89844 75.50781 C 151.08594 75.66406 151.32031 76.21484 151.41797 76.73047 C 151.51563 77.24609 151.75781 77.90234 151.95703 78.1875 C 152.15625 78.47266 152.32031 78.99609 152.32031 79.35156 C 152.32422 79.70703 152.55078 80.34375 152.83203 80.76953 C 153.11328 81.19141 153.34375 81.82422 153.34375 82.17578 C 153.34766 82.52734 153.57813 83.16016 153.85547 83.58594 C 154.13672 84.00781 154.36719 84.640625 154.36719 84.99219 C 154.3711 85.34375 154.60156 85.97656 154.8789 86.39843 C 155.16016 86.82423 155.39063 87.496086 155.39063 87.89453 C 155.39063 88.296875 155.6211 88.91406 155.90234 89.27344 C 156.1875 89.63281 156.41406 90.3086 156.41406 90.773445 C 156.41406 91.28126 156.57813 91.71484 156.82031 91.84766 C 157.04688 91.97656 157.28125 92.5625 157.36328 93.203125 C 157.4414 93.828125 157.66406 94.51563 157.85547 94.73828 C 158.04688 94.95704 158.27734 95.53516 158.36719 96.015625 C 158.46094 96.5 158.67969 97.07031 158.86328 97.28125 C 159.04297 97.49218 159.27344 98.12501 159.3789 98.6875 C 159.48047 99.25 159.71094 99.94141 159.88672 100.22266 C 160.0625 100.503914 160.28906 101.140625 160.38672 101.63281 C 160.48828 102.12501 160.71484 102.69923 160.89844 102.91016 C 161.07813 103.125 161.30469 103.77734 161.39844 104.3711 C 161.4961 104.960945 161.73438 105.57422 161.92578 105.73438 C 162.1211 105.89453 162.35547 106.53124 162.44922 107.148445 C 162.53906 107.765625 162.77734 108.40625 162.97266 108.56641 C 163.16797 108.73047 163.32813 109.20703 163.32813 109.62109 C 163.32813 110.03906 163.5586 110.67578 163.83984 111.03516 C 164.1211 111.390625 164.35156 111.98829 164.35547 112.35547 C 164.35547 112.72266 164.58594 113.37109 164.86328 113.79298 C 165.14453 114.21484 165.375 114.96485 165.375 115.46484 C 165.375 116.046875 165.55469 116.51952 165.88672 116.80469 C 166.19531 117.06641 166.39844 117.558586 166.39844 118.03906 C 166.39844 118.47266 166.6289 119.125 166.91016 119.48048 C 167.19531 119.83984 167.42578 120.484375 167.42578 120.91015 C 167.42578 121.33594 167.60156 121.882805 167.82031 122.12501 C 168.03516 122.36328 168.28125 123.00781 168.36719 123.55078 C 168.44922 124.09766 168.6836 124.73828 168.88672 124.97266 C 169.09375 125.20703 169.32422 125.87891 169.40234 126.464836 C 169.48047 127.05469 169.69531 127.58984 169.8789 127.66016 C 170.0664 127.73048 170.29297 128.30469 170.38672 128.92969 C 170.48047 129.5586 170.69922 130.21484 170.8711 130.38672 C 171.04297 130.5586 171.26953 131.16016 171.375 131.71875 C 171.47656 132.27734 171.71094 132.91016 171.89453 133.1211 C 172.0742 133.33203 172.30469 133.96484 172.40625 134.52734 C 172.5039 135.08984 172.73438 135.72656 172.91405 135.9375 C 173.09375 136.14844 173.31248 136.76563 173.39453 137.3125 C 173.47656 137.85547 173.72267 138.5 173.9414 138.73828 C 174.15625 138.98047 174.33594 139.52734 174.33594 139.95313 C 174.33594 140.38281 174.5664 141.02344 174.84766 141.38281 C 175.1289 141.73828 175.35936 142.35156 175.35936 142.74219 C 175.35936 143.1289 175.54297 143.64844 175.76563 143.89453 C 175.98828 144.14453 176.23828 144.84375 176.32031 145.45313 C 176.39844 146.0625 176.62502 146.67578 176.81642 146.8164 C 177.00783 146.95703 177.23828 147.53516 177.32422 148.09766 C 177.41406 148.66016 177.69922 149.39453 177.96094 149.73047 C 178.21873 150.0664 178.4336 150.6914 178.4336 151.11719 C 178.4336 151.54688 178.6133 152.09766 178.83595 152.34375 C 179.0625 152.58984 179.30469 153.26172 179.3828 153.83594 C 179.46094 154.41016 179.61328 154.8789 179.72266 154.8789 C 179.97656 154.8789 180.48047 156.32813 180.48047 157.0664 C 180.48047 157.38281 180.63672 157.69922 180.82813 157.77344 C 181.01564 157.84766 181.2461 158.4414 181.33594 159.09766 C 181.42578 159.75 181.66016 160.44922 181.85548 160.64453 C 182.05078 160.83984 182.29297 161.4375 182.39063 161.97266 C 182.49219 162.50781 182.71875 163.11719 182.90236 163.32813 C 183.08203 163.53906 183.3125 164.16797 183.41406 164.72266 C 183.51172 165.27734 183.7578 165.96484 183.95703 166.2539 C 184.15623 166.53516 184.32031 167.04688 184.32031 167.38672 C 184.32031 167.72656 184.53516 168.36328 184.80078 168.80078 C 185.06642 169.24219 185.35547 170.01953 185.44922 170.53516 C 185.53908 171.04688 185.78125 171.60938 185.99219 171.78125 C 186.19922 171.95313 186.36719 172.39842 186.36719 172.76953 C 186.36719 173.14453 186.59766 173.8789 186.87892 174.40233 C 187.16017 174.92969 187.39063 175.66406 187.39063 176.03517 C 187.39063 176.40623 187.5742 176.84375 187.79298 177.0039 C 188.01172 177.16797 188.26172 177.8125 188.34766 178.4414 C 188.42969 179.07033 188.66016 179.70313 188.85938 179.84766 C 189.05469 179.9961 189.28516 180.6289 189.37108 181.25781 C 189.45313 181.8867 189.67967 182.51563 189.87108 182.65625 C 190.06252 182.79688 190.28906 183.37498 190.375 183.9375 C 190.46092 184.5 190.69533 185.14844 190.89453 185.375 C 191.09377 185.60547 191.32422 186.23828 191.41406 186.78125 C 191.5039 187.32422 191.71095 187.91017 191.8789 188.07813 C 192.04688 188.2461 192.26172 188.86328 192.35547 189.44922 C 192.44923 190.03516 192.69531 190.6836 192.90234 190.89063 C 193.35938 191.34766 193.39844 192.54688 192.97266 192.97266 C 192.54297 193.40234 190.84766 193.35547 190.46875 192.90234 C 190.29689 192.69531 189.73438 192.44923 189.22267 192.35939 C 188.70705 192.26563 188 192.04297 187.64844 191.86328 C 187.29688 191.68358 186.51953 191.40625 185.92189 191.2461 C 185.3203 191.08594 184.83205 190.85936 184.83205 190.73828 C 184.83205 190.62111 184.31642 190.44533 183.68358 190.35156 C 183.05077 190.25392 182.36719 190.01172 182.16408 189.8086 C 181.96092 189.60548 181.45705 189.4414 181.04686 189.4414 C 180.63283 189.4414 180.01953 189.22656 179.6836 188.96875 C 179.34766 188.70705 178.625 188.4258 178.07813 188.33983 C 177.53516 188.2539 176.90234 188.01953 176.67186 187.82031 C 176.44531 187.625 175.8086 187.39455 175.26563 187.30858 C 174.71875 187.22656 174.07422 186.98047 173.83594 186.76173 C 173.59766 186.54688 173.05078 186.36719 172.6211 186.36719 C 172.19531 186.36719 171.55078 186.13672 171.19531 185.85547 C 170.83594 185.57422 170.27344 185.34375 169.94531 185.34375 C 169.61328 185.33984 169 185.11327 168.57422 184.83205 C 168.15234 184.5508 167.51563 184.32422 167.16016 184.32031 C 166.80469 184.32031 166.28516 184.16016 166.00781 183.96875 C 165.73047 183.77342 165.10156 183.53125 164.60938 183.42188 C 164.11328 183.31639 163.3125 183.01172 162.82031 182.75 C 162.32813 182.4883 161.72266 182.27344 161.47266 182.27344 C 161.22656 182.27344 160.59375 182.04297 160.0664 181.76172 C 159.54297 181.47656 158.78906 181.2461 158.39453 181.2461 C 158 181.2461 157.61719 181.08594 157.54297 180.89063 C 157.46875 180.69531 156.89453 180.45702 156.27344 180.36328 C 155.65234 180.26953 154.99219 180.04688 154.8125 179.86328 C 154.63281 179.6836 154.02344 179.44922 153.46484 179.34766 C 152.90625 179.24219 152.27344 179.00781 152.0625 178.82813 C 151.85156 178.64844 151.23438 178.4336 150.6875 178.34766 C 150.14453 178.26563 149.50781 178.03516 149.28125 177.83592 C 149.05078 177.64063 148.41797 177.41016 147.8711 177.32422 C 147.32813 177.24219 146.6836 176.99608 146.44531 176.77734 C 146.20313 176.5625 145.72656 176.38281 145.38281 176.38281 C 145.04297 176.38281 144.33203 176.15234 143.80469 175.8711 C 143.28125 175.58984 142.57813 175.35936 142.24219 175.35936 C 141.91016 175.35936 141.34375 175.1289 140.98438 174.84766 C 140.6289 174.5664 140.0664 174.33594 139.73438 174.33594 C 139.40625 174.33203 138.78906 174.10548 138.36719 173.82422 C 137.94531 173.54297 137.23828 173.3164 136.80078 173.31248 C 136.35938 173.31248 135.85938 173.14063 135.6875 172.9336 C 135.51172 172.72656 134.95313 172.48047 134.4375 172.38672 C 133.92578 172.28906 133.10156 172 132.61328 171.73828 C 132.1211 171.47656 131.48047 171.26563 131.1875 171.26563 C 130.89844 171.26563 130.4336 171.09375 130.16016 170.88672 C 129.88672 170.67969 129.42969 170.50781 129.14063 170.5039 C 128.85547 170.5 128.19531 170.27734 127.67188 170.01172 C 127.15234 169.7461 126.33202 169.45703 125.85156 169.36719 C 125.37109 169.27734 124.851555 169.04688 124.69141 168.85547 C 124.53516 168.66797 123.92188 168.4336 123.328125 168.33984 C 122.73828 168.2461 122.078125 168.01563 121.86328 167.83203 C 121.64844 167.64453 121.02735 167.42578 120.48047 167.33984 C 119.93359 167.25781 119.30078 167.02734 119.07031 166.82813 C 118.84375 166.63281 118.21094 166.40234 117.66406 166.3164 C 117.11719 166.23438 116.47656 165.98828 116.234375 165.76953 C 115.9961 165.55469 115.46484 165.375 115.05078 165.375 C 114.64063 165.375 113.95703 165.14453 113.535164 164.86328 C 113.11328 164.58594 112.53516 164.35547 112.253914 164.35547 C 111.96875 164.35156 111.33594 164.13672 110.84375 163.8789 C 110.35156 163.61719 109.51953 163.32422 108.99219 163.22656 C 108.46484 163.1289 108.03125 162.94922 108.03125 162.82813 C 108.03125 162.70313 107.54297 162.52344 106.94531 162.42578 C 106.34375 162.32813 105.49609 162.03125 105.05859 161.76563 C 104.61719 161.5 103.96875 161.28125 103.61719 161.28125 C 103.265625 161.28125 102.83204 161.10938 102.66016 160.90234 C 102.48828 160.69531 101.92969 160.45313 101.41406 160.36328 C 100.90235 160.27344 100.22656 160.03906 99.91406 159.84375 C 99.60156 159.64844 99.13672 159.48828 98.87891 159.48828 C 98.62109 159.48828 97.97266 159.26563 97.4375 158.99219 C 96.90235 158.71875 96.09766 158.41406 95.65625 158.32031 C 95.21094 158.22656 94.55859 157.9961 94.20702 157.8086 C 93.85547 157.6211 93.14844 157.40234 92.63281 157.32031 C 92.11719 157.23828 91.63672 157.01563 91.56641 156.82813 C 91.496086 156.64063 90.95704 156.42578 90.37109 156.34766 C 89.78516 156.26563 89.101555 156.01953 88.85547 155.79688 C 88.609375 155.57422 88.128914 155.39063 87.78516 155.39063 C 87.44141 155.39063 86.73047 155.16016 86.20702 154.8789 C 85.67969 154.59766 84.98828 154.36719 84.671875 154.36719 C 84.35547 154.36719 83.75 154.13672 83.328125 153.85547 C 82.90625 153.57813 82.27344 153.34766 81.921875 153.34375 C 81.56641 153.34375 80.93359 153.11328 80.51172 152.83203 C 80.08984 152.55078 79.51172 152.32031 79.23047 152.3125 C 78.94922 152.3086 78.25781 152.07813 77.69531 151.8086 C 77.13281 151.53516 76.46875 151.3086 76.22266 151.30469 C 75.97656 151.30078 75.34375 151.0664 74.82031 150.78516 C 74.29297 150.5039 73.63281 150.26953 73.34766 150.26953 C 73.0625 150.26953 72.48828 150.03906 72.0625 149.76172 C 71.640625 149.48047 70.99219 149.25 70.625 149.25 C 70.25391 149.25 69.81641 149.08984 69.65625 148.89063 C 69.49219 148.69531 68.85547 148.46094 68.23828 148.36719 C 67.62109 148.27344 66.97656 148.03125 66.80469 147.82813 C 66.63672 147.6211 66.26172 147.45703 65.96875 147.45703 C 65.67969 147.45703 64.97266 147.23828 64.40234 146.96875 C 63.828125 146.70313 62.92969 146.41016 62.40625 146.32031 C 61.882813 146.23047 61.36328 146.0039 61.25391 145.82031 C 61.14453 145.63281 60.54688 145.41797 59.92578 145.33594 C 59.289063 145.2539 58.695313 145.01172 58.566406 144.78516 C 58.445313 144.5664 58.031254 144.38281 57.648434 144.38281 C 57.26562 144.38281 56.523438 144.15234 55.996094 143.8711 C 55.472656 143.58984 54.78125 143.35938 54.464844 143.35938 C 54.148438 143.35938 53.54297 143.1289 53.121098 142.84766 C 52.69922 142.5664 52.0625 142.33984 51.710934 142.33594 C 51.359375 142.33594 50.726563 142.10547 50.304688 141.82422 C 49.882813 141.54297 49.226563 141.3164 48.851563 141.3125 C 48.472656 141.3125 47.996094 141.14063 47.789063 140.9336 C 47.582027 140.72656 46.92969 140.48047 46.34375 140.38672 C 45.757813 140.29297 45.13281 140.07422 44.960938 139.89844 C 44.785156 139.72656 44.246094 139.5 43.76172 139.39844 C 43.277344 139.29688 42.648438 139.07031 42.367188 138.89453 C 42.085938 138.71875 41.39453 138.48828 40.83203 138.38672 C 40.26953 138.28125 39.617188 138.02734 39.382813 137.8164 C 38.910156 137.39063 36.1875 137.28125 35.796875 137.66797 C 35.304688 138.16016 35.65625 153.48047 36.160156 153.39453 C 36.546875 153.33203 36.92578 160.28516 36.63672 162.11328 C 36.621094 162.21875 36.816406 162.30469 37.07422 162.30469 C 37.484375 162.30469 37.54297 162.58203 37.601563 164.80078 C 37.648438 166.59766 37.78125 167.47656 38.085938 167.9375 C 38.32422 168.30078 38.535156 169.23438 38.57422 170.11328 C 38.67578 172.20702 38.695313 172.28906 39.08203 172.28906 C 39.273438 172.28906 39.441406 172.59766 39.464844 172.99219 C 39.558594 174.71875 39.59375 175.00781 39.777344 175.55077 C 39.882813 175.86719 40.0625 176.1289 40.17578 176.1289 C 40.29297 176.1289 40.4375 176.77734 40.503906 177.57422 C 40.578125 178.45703 40.777344 179.13281 41.01172 179.30469 C 41.34375 179.54688 41.539063 180.23047 41.76953 181.95313 C 41.79297 182.1289 41.964844 182.27344 42.15625 182.27344 C 42.359375 182.27344 42.496094 182.5664 42.496094 183.01955 C 42.496094 184.02342 42.73047 184.57422 43.164063 184.57422 C 43.421875 184.57422 43.519527 184.9375 43.519527 185.87889 C 43.519527 186.96873 43.60547 187.20703 44.031254 187.3164 C 44.433594 187.42188 44.542973 187.66797 44.542973 188.44531 C 44.542973 189.26953 44.632813 189.4414 45.054688 189.4414 C 45.484375 189.4414 45.566406 189.60938 45.566406 190.46484 C 45.566406 191.31639 45.65234 191.48828 46.078125 191.48828 C 46.507813 191.48828 46.59375 191.66016 46.59375 192.51172 C 46.59375 193.36327 46.675785 193.53516 47.10547 193.53516 C 47.53125 193.53516 47.617188 193.70703 47.617188 194.57422 C 47.617188 195.16797 47.722656 195.55078 47.859375 195.46484 C 48.152344 195.28125 48.640625 196.125 48.640625 196.8164 C 48.640625 197.10938 48.863285 197.375 49.17578 197.45705 C 49.566406 197.5586 49.66797 197.73047 49.554688 198.08984 C 49.351563 198.73047 49.621094 199.42578 50.07422 199.42578 C 50.26953 199.42578 50.445313 199.59766 50.464844 199.8086 C 50.480473 200.01953 50.523438 200.3086 50.558594 200.44923 C 50.59375 200.58984 50.640625 200.87502 50.65625 201.08984 C 50.675785 201.30078 50.859375 201.47266 51.07031 201.47266 C 51.285156 201.47266 51.457027 201.69922 51.457027 201.98438 C 51.457027 202.32422 51.625 202.49611 51.968746 202.49611 C 52.38672 202.49611 52.480473 202.66797 52.480473 203.41406 C 52.480473 204.10547 52.601563 204.3672 52.96875 204.46484 C 53.394527 204.57423 53.710934 205.10156 53.86328 205.95313 C 53.890625 206.09373 54.05078 206.1797 54.218754 206.14453 C 54.390625 206.10938 54.527344 206.30469 54.527344 206.58203 C 54.527344 206.85936 54.757813 207.21095 55.039063 207.35936 C 55.320316 207.51172 55.55078 207.80469 55.55078 208.0078 C 55.55078 208.21483 55.781246 208.38281 56.0625 208.38281 C 56.492188 208.38281 56.57422 208.55469 56.57422 209.40627 C 56.57422 210.2617 56.660156 210.4336 57.089844 210.4336 C 57.429688 210.4336 57.601563 210.60155 57.601563 210.94531 C 57.601563 211.28516 57.769535 211.45703 58.11328 211.45703 C 58.453125 211.45703 58.625 211.625 58.625 211.96877 C 58.625 212.2539 58.79297 212.48047 59.00781 212.48047 C 59.21875 212.48047 59.398438 212.5664 59.410156 212.67188 C 59.527344 213.83986 60.652344 215.51955 61.214844 215.35936 C 61.339844 215.32422 61.441406 215.53906 61.441406 215.83202 C 61.441406 216.14453 61.644535 216.42188 61.929688 216.4961 C 62.195313 216.56642 62.476566 216.85547 62.550777 217.13672 C 62.625 217.42186 62.80859 217.57422 62.960938 217.48048 C 63.11328 217.38672 63.34375 217.60547 63.48047 217.96875 C 63.621094 218.32813 63.906246 218.625 64.12109 218.625 C 64.33594 218.625 64.51172 218.79688 64.51172 219.00781 C 64.51172 219.22266 64.73828 219.39063 65.02344 219.39063 C 65.359375 219.39063 65.53516 219.5625 65.53516 219.88672 C 65.53516 220.16016 65.65234 220.45702 65.796875 220.54686 C 65.9375 220.63672 65.97656 220.84375 65.88281 221.01172 C 65.78906 221.17578 65.79297 221.23438 65.89844 221.14453 C 66.15234 220.91797 68.08594 222.78514 67.90234 223.07814 C 67.82422 223.20703 67.875 223.24217 68.01172 223.15625 C 68.31641 222.96875 69.14453 223.88281 68.90625 224.14844 C 68.8125 224.2539 68.875 224.25783 69.04297 224.16016 C 69.22656 224.0586 69.52734 224.25 69.77734 224.6289 C 70.00781 224.98438 70.30078 225.21094 70.42969 225.13281 C 70.55469 225.0586 70.65625 225.10156 70.65625 225.23438 C 70.65625 225.36719 70.89844 225.53908 71.19531 225.61719 C 71.51172 225.69922 71.66016 225.875 71.55078 226.04688 C 71.44531 226.21873 71.59375 226.39452 71.91016 226.48047 C 72.20703 226.5547 72.44922 226.78125 72.44922 226.98047 C 72.44922 227.17969 72.63281 227.41406 72.859375 227.49998 C 73.38281 227.70313 74.49609 228.8125 74.49609 229.13283 C 74.49609 229.26564 74.72656 229.375 75.00781 229.375 C 75.28906 229.375 75.51953 229.54689 75.51953 229.75781 C 75.51953 229.96484 75.921875 230.30469 76.41406 230.51172 C 76.91016 230.71875 77.3125 231.00781 77.3125 231.15625 C 77.3125 231.30469 77.60156 231.42578 77.953125 231.42578 C 78.421875 231.42578 78.59375 231.5586 78.59375 231.9375 C 78.59375 232.27734 78.76172 232.44923 79.10547 232.44923 C 79.44531 232.44923 79.61719 232.61719 79.61719 232.96094 C 79.61719 233.29297 79.78516 233.47266 80.10156 233.47266 C 80.36719 233.47266 80.64844 233.64063 80.72656 233.84767 C 80.80859 234.05078 81.25 234.32422 81.71484 234.44922 C 82.17969 234.57422 82.53125 234.8125 82.49219 234.97656 C 82.45703 235.14455 82.62891 235.35158 82.87891 235.44139 C 83.125 235.52736 83.53516 235.8125 83.78516 236.0742 C 84.03906 236.33203 84.52734 236.54297 84.875 236.54297 C 85.26953 236.54297 85.50391 236.69142 85.50391 236.9375 C 85.50391 237.15234 85.70703 237.40234 85.953125 237.4961 C 86.19921 237.58986 86.51563 237.81248 86.65624 237.9961 C 86.87109 238.27344 87.50391 238.48438 88.38281 238.57422 C 88.48828 238.58203 88.57422 238.76172 88.57422 238.97266 C 88.57422 239.21875 88.9375 239.41016 89.60157 239.51563 C 90.21875 239.61719 90.625 239.82031 90.625 240.03125 C 90.625 240.22658 90.85547 240.38281 91.13672 240.38281 C 91.41797 240.38281 91.64844 240.54297 91.64844 240.7422 C 91.64844 241.14844 92.19141 241.40627 93.046875 241.40627 C 93.421875 241.40627 93.683586 241.59375 93.76953 241.92189 C 93.867195 242.28906 94.12109 242.4336 94.67969 242.4336 C 95.23046 242.4336 95.5 242.58203 95.61719 242.94531 C 95.74219 243.34766 96.0039 243.45703 96.82813 243.45703 C 97.40625 243.45703 97.80079 243.53125 97.70703 243.625 C 97.410164 243.92188 98.08984 244.48047 98.75391 244.48047 C 99.109375 244.48047 99.53516 244.66797 99.703125 244.89845 C 99.890625 245.15234 100.52344 245.36328 101.33594 245.4414 C 102.37501 245.54297 102.64843 245.66016 102.59766 245.98438 C 102.546875 246.28906 102.76563 246.42188 103.42578 246.48438 C 103.91797 246.53125 104.527336 246.78906 104.777336 247.0625 C 105.09766 247.40236 105.58203 247.55077 106.37891 247.55077 C 107.18359 247.55077 107.51953 247.65625 107.51953 247.91016 C 107.51953 248.32813 108.06641 248.57422 108.99219 248.57422 C 109.35937 248.57422 109.83984 248.7422 110.0625 248.9414 C 110.484375 249.32813 111.42968 249.54297 112.83203 249.57813 C 113.35547 249.59375 113.66406 249.73048 113.66406 249.95311 C 113.66406 250.33203 114.73828 250.625 116.128914 250.625 C 116.68359 250.625 116.96874 250.73828 116.92969 250.94531 C 116.88281 251.16797 117.33594 251.28516 118.39843 251.32813 C 120.30078 251.41017 121.15235 251.59375 120.97266 251.88672 C 120.74219 252.2539 121.54298 252.41405 123.61327 252.41405 C 125.265625 252.41405 125.65234 252.50002 126.01953 252.92967 C 126.41797 253.39453 126.77734 253.4414 130.01563 253.4414 C 133.35547 253.4414 133.58203 253.47267 133.70703 253.95313 C 133.90234 254.69922 156.21484 254.76172 156.65234 254.01563 C 156.85938 253.66016 156.91406 253.64845 156.92969 253.95313 C 156.9414 254.25781 156.9961 254.24219 157.20313 253.8867 C 157.4336 253.4961 157.89453 253.4414 160.80469 253.4414 C 163.92969 253.4414 164.15234 253.40625 164.27734 252.92967 C 164.39844 252.46094 164.6289 252.41405 166.83594 252.41405 C 169.04688 252.41405 169.27734 252.3711 169.39844 251.90234 C 169.51563 251.44922 169.7461 251.39063 171.39453 251.39063 C 172.72656 251.39063 173.29686 251.29295 173.39063 251.04688 C 173.47656 250.82033 174.14063 250.64844 175.2578 250.5586 C 176.33202 250.47266 177.09764 250.27733 177.26563 250.05078 C 177.41406 249.84767 178.1133 249.60547 178.8164 249.5117 C 179.51953 249.41797 180.22264 249.16797 180.3789 248.95703 C 180.53516 248.75 180.89845 248.57422 181.17967 248.57422 C 182.23438 248.57422 183.29688 248.2461 183.29688 247.91798 C 183.29688 247.70313 183.69531 247.55077 184.38281 247.5039 C 185.14453 247.4492 185.47266 247.3086 185.47266 247.03906 C 185.47266 246.78514 185.77344 246.63281 186.36719 246.58594 C 187.85938 246.47266 188.41405 246.28125 188.41405 245.88281 C 188.41405 245.61719 188.69531 245.50389 189.33594 245.50389 C 190.03906 245.50389 190.28906 245.38281 190.39063 244.99219 C 190.49219 244.60545 190.73828 244.48047 191.41406 244.48047 C 192.08984 244.48047 192.33594 244.35545 192.4375 243.96877 C 192.53905 243.58203 192.78905 243.45703 193.46094 243.45703 C 194.13672 243.45703 194.38281 243.33203 194.48436 242.94531 C 194.58592 242.5625 194.83595 242.4336 195.46877 242.4336 C 196.09375 242.4336 196.35938 242.29688 196.48047 241.92189 C 196.60156 241.53908 196.86719 241.40627 197.51953 241.40627 C 198.23047 241.40627 198.39844 241.3086 198.39844 240.89453 C 198.39844 240.48438 198.57031 240.38281 199.28125 240.38281 C 199.76953 240.38281 200.25783 240.23828 200.3711 240.0625 C 200.61719 239.68358 201.83592 238.92969 202.8164 238.55469 C 203.20314 238.40625 203.51953 238.1367 203.51953 237.95703 C 203.51953 237.77344 203.92188 237.55078 204.41405 237.45705 C 204.95313 237.35545 205.31248 237.14063 205.31248 236.91797 C 205.31248 236.71094 205.53516 236.54297 205.8086 236.54297 C 206.07811 236.54297 206.37111 236.3242 206.45703 236.05861 C 206.55078 235.75781 206.94533 235.51172 207.4961 235.40625 C 208.02734 235.30858 208.38281 235.08984 208.38281 234.86717 C 208.38281 234.66406 208.61327 234.49611 208.89453 234.49611 C 209.23828 234.49611 209.40627 234.32422 209.40627 233.98438 C 209.40627 233.64452 209.57813 233.47266 209.92189 233.47266 C 210.2617 233.47266 210.4336 233.30078 210.4336 232.96094 C 210.4336 232.54297 210.60155 232.44923 211.35158 232.44923 C 212.05469 232.44923 212.30469 232.32813 212.40625 231.9375 C 212.48047 231.65236 212.7539 231.42578 213.02344 231.42578 C 213.33203 231.42578 213.50389 231.24217 213.50389 230.91016 C 213.50389 230.57031 213.67578 230.39844 214.01563 230.39844 C 214.35548 230.39844 214.52734 230.23047 214.52734 229.8867 C 214.52734 229.54689 214.69922 229.375 215.03906 229.375 C 215.32031 229.375 215.55077 229.21094 215.55077 229.01172 C 215.55077 228.8125 215.89844 228.57423 216.32031 228.48047 C 216.7461 228.38672 217.21094 228.08983 217.35547 227.82031 C 217.5 227.54688 217.78516 227.32813 217.99219 227.32813 C 218.19922 227.32813 218.36719 227.16797 218.36719 226.97266 C 218.36719 226.77733 218.59766 226.5586 218.87892 226.48436 C 219.16017 226.41406 219.39063 226.1836 219.39063 225.97266 C 219.39063 225.76563 219.6211 225.53516 219.90234 225.46094 C 220.1875 225.38672 220.41405 225.14453 220.41405 224.91797 C 220.41405 224.68361 220.6289 224.51172 220.92967 224.51172 C 221.26953 224.51172 221.4414 224.33984 221.4414 224 C 221.4414 223.66016 221.60938 223.48828 221.95313 223.48828 C 222.29297 223.48828 222.46484 223.31639 222.46484 222.97655 C 222.46484 222.63673 222.63673 222.46484 222.97655 222.46484 C 223.31639 222.46484 223.48828 222.29297 223.48828 221.95313 C 223.48828 221.60938 223.66016 221.4414 224 221.4414 C 224.33984 221.4414 224.51172 221.26953 224.51172 220.92967 C 224.51172 220.6289 224.68361 220.41405 224.91797 220.41405 C 225.14453 220.41405 225.38672 220.1875 225.46094 219.90234 C 225.53516 219.6211 225.76563 219.39063 225.97266 219.39063 C 226.1836 219.39063 226.41406 219.16017 226.48436 218.87892 C 226.5586 218.59766 226.77733 218.36719 226.97266 218.36719 C 227.16797 218.36719 227.32813 218.19922 227.32813 217.99219 C 227.32813 217.78516 227.55858 217.49608 227.83984 217.34375 C 228.1211 217.19531 228.35156 216.92578 228.35156 216.7539 C 228.35156 216.57813 228.58203 216.23828 228.86328 215.9961 C 229.14453 215.7539 229.375 215.32422 229.375 215.04297 C 229.375 214.69922 229.54689 214.52734 229.8867 214.52734 C 230.23047 214.52734 230.39844 214.35548 230.39844 214.01563 C 230.39844 213.67578 230.57031 213.50389 230.91016 213.50389 C 231.24217 213.50389 231.42578 213.33203 231.42578 213.02344 C 231.42578 212.7539 231.65236 212.48047 231.9375 212.40625 C 232.32813 212.30469 232.44923 212.05469 232.44923 211.35158 C 232.44923 210.60155 232.54297 210.4336 232.96094 210.4336 C 233.30078 210.4336 233.47266 210.2617 233.47266 209.92189 C 233.47266 209.57813 233.64452 209.40627 233.98438 209.40627 C 234.32422 209.40627 234.49611 209.23828 234.49611 208.89453 C 234.49611 208.61327 234.65625 208.38281 234.85155 208.38281 C 235.23828 208.38281 235.51953 207.84766 235.51953 207.11328 C 235.51953 206.85936 235.74998 206.58984 236.03123 206.51952 C 236.33983 206.4375 236.54297 206.16797 236.54297 205.84766 C 236.54297 205.55078 236.71094 205.31248 236.91797 205.31248 C 237.14063 205.31248 237.35545 204.95313 237.45705 204.41405 C 237.55469 203.90234 237.77734 203.51953 237.98047 203.51953 C 238.30078 203.51953 238.44533 203.21094 238.36719 202.69531 C 238.35156 202.59375 238.55469 202.39844 238.8164 202.25781 C 239.07814 202.11719 239.36328 201.65234 239.4492 201.22656 C 239.53906 200.76563 239.76563 200.44923 239.9922 200.44923 C 240.27734 200.44923 240.38281 200.17188 240.38281 199.42578 C 240.38281 198.57031 240.46875 198.39844 240.89453 198.39844 C 241.3086 198.39844 241.40627 198.23047 241.40627 197.53516 C 241.40627 196.88283 241.53516 196.63283 241.92189 196.53516 C 242.3086 196.4336 242.4336 196.1836 242.4336 195.50781 C 242.4336 194.83595 242.5547 194.58592 242.94531 194.48436 C 243.33595 194.38281 243.45703 194.13672 243.45703 193.4336 C 243.45703 192.68361 243.55078 192.51172 243.96877 192.51172 C 244.39453 192.51172 244.48047 192.33984 244.48047 191.48828 C 244.48047 190.63673 244.5664 190.46484 244.99219 190.46484 C 245.41797 190.46484 245.50389 190.29297 245.50389 189.46875 C 245.50389 188.69142 245.61328 188.44531 246.01563 188.33983 C 246.41016 188.23828 246.52734 187.99219 246.52734 187.28125 C 246.52734 186.66797 246.66795 186.30078 246.93358 186.19531 C 247.2539 186.07422 247.26955 185.99611 247.00392 185.83592 C 246.7461 185.67189 246.76955 185.58984 247.10936 185.45703 C 247.38673 185.35156 247.55077 185.01172 247.55077 184.54688 C 247.55077 184.14061 247.78125 183.57813 248.0625 183.29688 C 248.42578 182.9375 248.57422 182.4414 248.57422 181.63281 C 248.57422 180.82423 248.67969 180.48047 248.92969 180.48047 C 249.29297 180.48047 249.60156 179.41406 249.60156 178.14452 C 249.60156 177.6914 249.73438 177.40627 249.95311 177.40627 C 250.3164 177.40627 250.625 176.34375 250.625 175.08984 C 250.625 174.69533 250.79688 174.19922 251.00781 173.9883 C 251.26563 173.73047 251.39455 173.07813 251.39455 171.98828 C 251.39844 170.60547 251.8789 168.71875 251.90234 169.98438 C 251.91017 170.32422 251.9375 170.32422 252.16016 169.98438 C 252.29688 169.77344 252.41016 168.67578 252.41405 167.55078 C 252.41405 165.77734 252.48439 165.45703 252.92967 165.17969 C 253.39453 164.88672 253.4414 164.58203 253.4414 161.71875 C 253.4414 158.8711 253.48827 158.54297 253.95313 158.20703 C 254.75392 157.6289 254.75392 132.64063 253.95313 131.83984 C 253.5 131.39063 253.4414 130.98828 253.4414 128.4961 C 253.4414 125.765625 253.17188 124.49219 252.66016 124.80859 C 252.51172 124.89844 252.41405 124.08594 252.41405 122.76563 C 252.41405 120.91796 252.33594 120.49609 251.90234 120.06251 C 251.5039 119.66407 251.39063 119.21094 251.39063 117.98828 C 251.39063 116.70313 251.32422 116.45312 251.00781 116.57422 C 250.69922 116.69141 250.625 116.47656 250.625 115.48048 C 250.625 113.73828 250.3633 112.640625 249.95311 112.640625 C 249.73828 112.640625 249.58594 112.33593 249.5664 111.871086 C 249.55078 111.44922 249.50781 110.98828 249.47266 110.84765 C 249.43748 110.70704 249.39453 110.36328 249.375 110.078125 C 249.35938 109.796875 249.17186 109.56641 248.96094 109.56641 C 248.6914 109.56641 248.57422 109.30077 248.57422 108.6875 C 248.57422 107.578125 248.14453 106.41406 247.8086 106.625 C 247.65236 106.71875 247.55077 106.36328 247.55077 105.71875 C 247.55077 104.87109 247.4492 104.628914 247.03906 104.52344 C 246.61328 104.41016 246.52734 104.171875 246.52734 103.11328 C 246.52734 102.05469 246.4414 101.8164 246.01563 101.70703 C 245.61328 101.60157 245.50389 101.35547 245.50389 100.57813 C 245.50389 99.7539 245.41797 99.58594 244.99219 99.58594 C 244.5664 99.58594 244.48047 99.41407 244.48047 98.55859 C 244.48047 97.70703 244.39453 97.535164 243.96877 97.535164 C 243.54298 97.535164 243.45703 97.36328 243.45703 96.51173 C 243.45703 95.66016 243.3711 95.48827 242.94531 95.48827 C 242.52733 95.48827 242.4336 95.31641 242.4336 94.566414 C 242.4336 93.86328 242.3125 93.61718 241.92189 93.515625 C 241.53516 93.41406 241.40627 93.16406 241.40627 92.515625 C 241.40627 91.820305 241.3086 91.64844 240.89453 91.64844 C 240.5 91.64844 240.38281 91.47656 240.38281 90.89453 C 240.38281 90.48047 240.26172 90.0664 240.11328 89.97266 C 239.96094 89.882805 239.73438 89.53125 239.60547 89.19141 C 239.47658 88.851555 239.19533 88.57422 238.98047 88.57422 C 238.72266 88.57422 238.59373 88.32812 238.59373 87.82422 C 238.59373 87.37891 238.39844 86.93359 238.11328 86.734375 C 237.85156 86.55078 237.55469 86.02734 237.45705 85.57422 C 237.35545 85.12109 237.14063 84.77344 236.98047 84.80469 C 236.8164 84.83594 236.64063 84.58984 236.59375 84.25781 C 236.54297 83.92578 236.30078 83.60156 236.05861 83.53906 C 235.8164 83.47266 235.50781 83.05469 235.375 82.60547 C 235.23828 82.16016 234.98828 81.82031 234.8125 81.85547 C 234.62892 81.89453 234.49611 81.65234 234.49611 81.28125 C 234.49611 80.8125 234.35938 80.640625 233.98438 80.640625 C 233.64452 80.640625 233.47266 80.46875 233.47266 80.12891 C 233.47266 79.78516 233.30078 79.61719 232.96094 79.61719 C 232.58984 79.61719 232.44923 79.44531 232.44923 78.99609 C 232.44923 78.11328 232.1914 77.56641 231.78125 77.56641 C 231.58594 77.56641 231.42578 77.33594 231.42578 77.05469 C 231.42578 76.71484 231.2539 76.54297 230.91016 76.54297 C 230.57031 76.54297 230.39844 76.375 230.39844 76.03125 C 230.39844 75.69141 230.23047 75.51953 229.8867 75.51953 C 229.54689 75.51953 229.375 75.34766 229.375 75.00781 C 229.375 74.72266 229.20705 74.49609 228.99219 74.49609 C 228.78123 74.49609 228.60938 74.36328 228.60938 74.19922 C 228.60938 74.03906 228.32031 73.52734 227.96877 73.06641 C 227.61717 72.60547 227.32813 72.09766 227.32813 71.9375 C 227.32813 71.77734 227.21484 71.72266 227.07422 71.80859 C 226.9336 71.89453 226.6836 71.671875 226.51953 71.3125 C 226.35547 70.94922 226.0664 70.65625 225.87889 70.65625 C 225.6914 70.65625 225.53516 70.47266 225.53516 70.25 C 225.53516 70.02344 225.30467 69.78125 225.02345 69.70703 C 224.7422 69.63281 224.51172 69.35547 224.51172 69.08984 C 224.51172 68.77734 224.33202 68.609375 224 68.609375 C 223.66016 68.609375 223.48828 68.4375 223.48828 68.09766 C 223.48828 67.75391 223.31639 67.58594 222.97655 67.58594 C 222.63673 67.58594 222.46484 67.41406 222.46484 67.07031 C 222.46484 66.73047 222.29297 66.55859 221.95313 66.55859 C 221.60938 66.55859 221.4414 66.390625 221.4414 66.046875 C 221.4414 65.70703 221.26953 65.53516 220.92967 65.53516 C 220.6289 65.53516 220.41405 65.36328 220.41405 65.12891 C 220.41405 64.90234 220.1875 64.66016 219.90234 64.58594 C 219.6211 64.51172 219.39063 64.28906 219.39063 64.08984 C 219.39063 63.890625 219.19531 63.65234 218.95703 63.558594 C 218.51173 63.39062 218.05078 63.039063 216.92578 62.015625 C 216.57813 61.69922 216.14061 61.441406 215.95313 61.441406 C 215.76563 61.441406 215.55077 61.20703 215.47658 60.92578 C 215.38673 60.585938 215.20703 60.464844 214.9375 60.570313 C 214.64063 60.68359 214.52734 60.57422 214.52734 60.1875 C 214.52734 59.878906 214.36328 59.648434 214.14453 59.648434 C 213.9375 59.648434 213.62108 59.41797 213.4453 59.136715 C 213.26953 58.85547 212.98438 58.625 212.8125 58.625 C 212.64063 58.625 212.375 58.39453 212.22264 58.11328 C 212.04298 57.77734 211.6875 57.601563 211.19139 57.601563 C 210.60155 57.601563 210.4336 57.484375 210.4336 57.089844 C 210.4336 56.74609 210.2617 56.57422 209.92189 56.57422 C 209.59767 56.57422 209.40627 56.40625 209.40627 56.117188 C 209.40627 55.83594 209.19923 55.644535 208.8711 55.621094 C 208.57422 55.597656 208.1992 55.40625 208.03906 55.19531 C 207.87498 54.98047 207.42578 54.6875 207.03906 54.54688 C 206.65233 54.402344 206.33594 54.109375 206.33594 53.89453 C 206.33594 53.679688 206.11328 53.503906 205.83986 53.503906 C 205.5664 53.503906 205.26953 53.386723 205.17967 53.242188 C 205.09375 53.101563 204.91016 53.05078 204.77734 53.13281 C 204.64063 53.21875 204.5625 53.136715 204.60156 52.953125 C 204.64063 52.76953 204.41405 52.58203 204.09766 52.53125 C 203.77736 52.48437 203.51953 52.28125 203.51953 52.078125 C 203.51953 51.875 203.40625 51.69922 203.26563 51.679688 C 203.125 51.664063 202.89455 51.621094 202.7539 51.585934 C 202.60938 51.546875 202.27733 51.507813 202.01563 51.48828 C 201.75 51.472656 201.46875 51.214844 201.39064 50.91797 C 201.3125 50.62109 201.13672 50.453125 200.99608 50.539063 C 200.85547 50.625 200.56642 50.453125 200.35547 50.152344 C 200.1211 49.8125 199.67578 49.59375 199.1875 49.574223 C 198.61719 49.55078 198.39844 49.41797 198.39844 49.089844 C 198.39844 48.79297 198.1875 48.628906 197.76172 48.601563 C 197.40625 48.58203 196.97656 48.550777 196.80078 48.539063 C 196.625 48.523438 196.39842 48.308594 196.29688 48.0625 C 196.17188 47.76172 195.83203 47.617188 195.23828 47.617188 C 194.5586 47.617188 194.3711 47.51563 194.39452 47.16797 C 194.42189 46.828125 194.20311 46.69922 193.47266 46.640625 C 192.88281 46.59375 192.51172 46.429688 192.51172 46.218754 C 192.51172 45.82422 191.95703 45.566406 191.11328 45.566406 C 190.75781 45.566406 190.47655 45.382816 190.40233 45.097656 C 190.31252 44.76172 190.01563 44.62109 189.35545 44.59375 C 188.80469 44.57422 188.22264 44.34766 187.91406 44.03906 C 187.5664 43.695313 187.05469 43.519527 186.39844 43.519527 C 185.61327 43.519527 185.375 43.410156 185.26953 43 C 185.1914 42.714844 185.03516 42.5 184.91797 42.51953 C 183.9922 42.679688 182.52734 42.44922 182.52734 42.140625 C 182.52734 41.722656 181.98047 41.472656 181.07423 41.472656 C 180.72264 41.472656 180.14063 41.242188 179.78125 40.960938 C 179.3164 40.59375 178.74219 40.44922 177.75781 40.44922 C 176.70703 40.44922 176.38281 40.359375 176.38281 40.0625 C 176.38281 39.632813 176.44531 39.652344 174.76563 39.55078 C 173.98438 39.503906 173.42188 39.32422 173.22656 39.054688 C 172.9961 38.73828 172.45313 38.617188 171.13281 38.578125 C 169.82813 38.54297 169.23047 38.410156 168.89844 38.078125 C 168.53516 37.71875 167.99219 37.632813 166.07813 37.632813 C 163.98438 37.632813 163.66797 37.570313 163.38672 37.121094 C 163.09375 36.652344 162.78906 36.609375 159.74219 36.609375 C 156.78516 36.609375 156.35938 36.554688 155.91797 36.109375 C 155.4375 35.628906 154.99219 35.609375 145.9961 35.597656 C 140.8164 35.589844 136.70313 35.671875 136.86328 35.777344"/>
    </g>
</svg>
