<svg width="40" height="40" xmlns="http://www.w3.org/2000/svg">
    <defs>
        <linearGradient id="paint0_linear_3812_19369" x1="0.0667962" y1="20.0667" x2="39.9332" y2="19.9332" gradientUnits="userSpaceOnUse">
            <stop offset="0.25" stop-color="#1a82ff"/>
            <stop offset="0.5" stop-color="#7a26f3"/>
            <stop offset="0.74" stop-color="#d6453b"/>
        </linearGradient>
        <linearGradient id="paint1_linear_3812_19369" x1="12.626" y1="34.0303" x2="24.9608" y2="25.9505" gradientUnits="userSpaceOnUse">
            <stop offset="0" stop-color="#4c52f9" stop-opacity="0.5"/>
            <stop offset="1" stop-color="#ffffff"/>
        </linearGradient>
        <linearGradient id="paint2_linear_3812_19369" x1="26.0442" y1="3.64442" x2="14.2423" y2="12.1717" gradientUnits="userSpaceOnUse">
            <stop offset="0" stop-color="#4c52f9" stop-opacity="0.5"/>
            <stop offset="1" stop-color="#ffffff"/>
        </linearGradient>
        <linearGradient id="paint3_linear_3812_19369" x1="7.93903" y1="14.2221" x2="17.8401" y2="20.2643" gradientUnits="userSpaceOnUse">
            <stop offset="0" stop-color="#1c313f"/>
            <stop offset="1" stop-color="#ffffff"/>
        </linearGradient>
    </defs>
    <path fill="url(#paint0_linear_3812_19369)" stroke="none" d="M 20.0668 39.9332 C 31.0756 39.8963 39.9701 30.942001 39.9332 19.9332 C 39.8963 8.92435 30.942001 0.0298583 19.9332 0.0667488 C 8.9244 0.103639 0.0299057 9.05794 0.0667962 20.0667 C 0.103687 31.0756 9.05799 39.97 20.0668 39.9332 Z"/>
    <path fill="#ffffff" stroke="none" d="M 20.0519 37.5906 C 16.3186 37.5906 12.6002 36.3747 9.58365 34.1669 L 10.511 32.9041 C 13.2608 34.9165 16.6495 36.025 20.0519 36.025 C 21.6363 36.025 23.2081 35.7896 24.723898 35.3256 L 25.1841 36.8227 C 23.5195 37.3324 21.793201 37.5906 20.053 37.5906 L 20.0519 37.5906 Z M 27.0021 36.1553 L 26.3816 34.7177 C 26.4732 34.6788 26.563599 34.6388 26.6541 34.5977 C 31.2047 32.5407 34.4823 28.566097 35.6466 23.6944 L 37.1715 24.0578 C 35.895 29.4038 32.2969 33.7646 27.2997 36.0239 C 27.2001 36.0684 27.1005 36.113 27.0021 36.1553 Z M 8.08508 32.9384 C 6.33923 31.337301 4.954 29.4255 3.96945 27.2553 C 2.9276597 24.959497 2.3999 22.525398 2.3999 20.0204 C 2.3999 19.4022 2.4331 18.7759 2.4995 18.16 L 4.05875 18.3257 C 3.99922 18.8868 3.96831 19.457 3.96831 20.0204 C 3.96831 22.3014 4.44913 24.5184 5.39819 26.6097 C 6.29572 28.5867 7.5561705 30.328299 9.14633 31.785301 L 8.08508 32.9384 Z M 37.5173 22.154 L 35.9614 21.9597 C 36.0439 21.3015 36.0862 20.6329 36.0862 19.9701 C 36.0862 17.6891 35.6054 15.4721 34.6563 13.380899 C 33.8012 11.4976 32.614 9.82453 31.125702 8.40749 L 32.2076 7.27499 C 33.8424 8.83032 35.1463 10.6679 36.0851 12.7352 C 37.1269 15.031 37.6546 17.4651 37.6546 19.9701 C 37.6546 20.6969 37.6088 21.4317 37.5184 22.154 L 37.5173 22.154 Z M 4.34152 16.5864 L 2.80975 16.2515 C 3.38559 13.6288 4.57048 11.1342 6.23848 9.03716 C 7.98777 6.8373103 10.179 5.13229 12.7537 3.9677896 C 12.9517 3.87751 13.153201 3.79181 13.3524 3.71067 L 13.9466 5.15857 C 13.7645 5.23285 13.5814 5.3117 13.4005 5.39398 C 11.055901 6.45448 9.05932 8.00752 7.46687 10.0108 C 5.9477 11.9215 4.86699 14.195699 4.34152 16.5875 L 4.34152 16.5864 Z M 29.7806 7.26357 C 26.984898 5.13686 23.511497 3.9655097 20.0015 3.9655097 C 18.5178 3.9655097 17.041 4.17235 15.614599 4.58032 L 15.182999 3.07528 C 16.7502 2.62732 18.3713 2.3999 20.0015 2.3999 C 23.8527 2.3999 27.6626 3.68553 30.7308 6.01794 L 29.7806 7.2624207 L 29.7806 7.26357 Z"/>
    <g opacity="0.2">
        <path fill="#ffffff" stroke="none" d="M 32.4594 32.3797 C 39.294 25.4995 39.2597 14.3748 32.3795 7.54021 C 25.4993 0.70563906 14.374601 0.73986894 7.5400405 7.62008 L 32.4594 32.3797 Z"/>
    </g>
    <path fill="#ffffff" stroke="none" d="M 19.1859 12.1272 C 19.4535 12.0999 19.725 12.085901 19.9998 12.085901 C 24.368998 12.085901 27.9109 15.6278 27.9109 19.997 C 27.9109 23.4041 25.7571 26.308098 22.7368 27.421902 L 20.0525 31.1969 C 26.2138 31.1685 31.1998 26.164999 31.1998 19.997 C 31.1998 14.205099 26.8035 9.44012 21.1658 8.85694 L 19.1859 12.1272 Z"/>
    <path fill="#ffffff" stroke="none" d="M 19.7457 8.7998 C 13.677399 8.93491 8.7998 13.896301 8.7998 19.997 C 8.7998 25.7044 13.0689 30.4147 18.5881 31.1089 L 20.9001 27.8574 C 20.6046 27.8909 20.3042 27.908102 19.9998 27.908102 C 15.6306 27.908102 12.0887 24.3662 12.0887 19.997 C 12.0887 16.4958 14.3632 13.5258 17.5151 12.4839 L 19.7457 8.7998 Z"/>
    <path fill="url(#paint1_linear_3812_19369)" stroke="none" d="M 22.736998 27.421902 C 25.7573 26.3082 27.911102 23.404198 27.911102 19.9971 L 31.2 19.9971 C 31.2 26.1651 26.2141 31.168598 20.0527 31.197 L 22.736998 27.421902 Z"/>
    <path fill="url(#paint2_linear_3812_19369)" stroke="none" d="M 19.7457 8.7998 C 13.677399 8.93491 8.7998 13.896301 8.7998 19.997 C 8.7998 19.997 12.0887 20.0442 12.0887 19.997 C 12.0887 16.4958 14.3632 13.5258 17.5151 12.4839 L 19.7457 8.7998 Z"/>
    <path fill="#ffffff" stroke="none" d="M 19.9799 29.1528 L 25.6035 21.2335 L 19.9799 24.5523 L 14.3594 21.2335 L 19.9799 29.1528 Z"/>
    <g opacity="0.1">
        <path fill="#4c52f9" stroke="none" d="M 19.9795 29.1528 L 25.6031 21.2335 L 19.9795 24.5523 L 19.9795 29.1528 Z"/>
    </g>
    <path fill="url(#paint3_linear_3812_19369)" stroke="none" d="M 19.9626 23.5013 L 25.6142 20.1764 L 19.9626 10.8418 L 14.311 20.1764 L 19.9626 23.5013 Z"/>
    <path fill="#ffffff" stroke="none" d="M 19.9626 23.5013 L 25.6142 20.1764 L 19.9626 10.8418 L 14.311 20.1764 L 19.9626 23.5013 Z"/>
    <g opacity="0.1">
        <path fill="#4c52f9" stroke="none" d="M 19.9624 23.501 L 14.3108 20.1764 L 19.9624 10.8418 L 19.9624 23.501 Z"/>
    </g>
    <g opacity="0.1">
        <path fill="#4c52f9" stroke="none" d="M 19.9626 23.5013 L 19.9626 17.5269 L 14.311 20.1764 L 19.9626 23.5013 Z"/>
    </g>
    <g opacity="0.1">
        <path fill="#4c52f9" stroke="none" d="M 19.9627 23.5013 L 19.9627 17.5269 L 25.6143 20.1764 L 19.9627 23.5013 Z"/>
    </g>
</svg>
