<svg width="1000" height="1000" xmlns="http://www.w3.org/2000/svg">
    <path fill="#ffffff" stroke="none" d="M 0 0 L 1000 0 L 1000 1000 L 0 1000 Z"/>
    <path fill="#000000" stroke="none" d="M 924.649 418.045 C 924.649 370.764 879.484 326.971 797.493 294.721 C 717.907 263.433 612.258 246.196 500.00497 246.196 C 387.751 246.196 282.093 263.433 202.507 294.721 C 120.515 326.971 75.3506 370.764 75.3506 418.045 C 75.3506 465.326 120.515 509.119 202.507 541.359 C 236.74002 554.817 275.825 565.719 318.831 573.813 L 75.3506 573.813 L 75.3506 581.955 C 75.3506 629.236 120.515 673.029 202.507 705.26904 C 282.103 736.5671 387.751 753.804 499.995 753.804 C 612.239 753.804 717.897 736.5671 797.48303 705.26904 C 879.484 673.029 924.639 629.236 924.639 581.955 C 924.639 534.674 879.47504 490.881 797.48303 458.631 C 763.25006 445.174 724.155 434.272 681.159 426.17804 L 924.639 426.17804 L 924.639 418.045 L 924.649 418.045 Z M 770.38 560.773 C 765.56696 568.945 756.9619 573.813 747.347 573.813 L 674.921 573.813 C 672.178 516.669 639.658 463.723 589.503 434.301 C 631.756 442.04504 670.732 455.464 702.489 473.255 C 733.998 490.9 756.843 511.568 770.4 534.674 C 775.192 542.846 775.183 552.601 770.38 560.763 L 770.38 560.773 Z M 385.43402 500.00497 C 385.43402 459.302 436.828 426.187 499.995 426.187 C 563.162 426.187 614.556 459.302 614.556 500.00497 C 614.556 540.708 563.162 573.822 499.995 573.822 C 436.828 573.822 385.43402 540.708 385.43402 500.00497 Z M 229.61 439.227 C 234.423 431.065 243.02802 426.187 252.643 426.187 L 325.069 426.187 C 327.812 483.331 360.332 536.277 410.477 565.699 C 368.224 557.955 329.258 544.536 297.501 526.745 C 265.991 509.09 243.147 488.43204 229.59 465.326 C 224.798 457.154 224.798 447.399 229.61 439.23703 L 229.61 439.227 Z M 325.069 409.902 L 252.643 409.902 C 243.02802 409.902 234.423 405.02502 229.61 396.863 C 224.798 388.701 224.788 378.945 229.59 370.77298 C 243.13701 347.667 265.991 327.009 297.501 309.354 C 329.238 291.573 368.204 278.154 410.477 270.4 C 360.332 299.813 327.812 352.759 325.069 409.902 Z M 674.931 590.098 L 747.357 590.098 C 756.972 590.098 765.577 594.975 770.39 603.137 C 775.202 611.299 775.212 621.055 770.41003 629.227 C 756.8531 652.333 734.00806 672.991 702.4991 690.646 C 670.762 708.437 631.796 721.856 589.523 729.6 C 639.668 700.187 672.198 647.241 674.931 590.088 L 674.931 590.098 Z M 646.273 397.183 C 640.312 405.267 631.053 409.902 620.883 409.902 L 379.107 409.902 C 368.937 409.902 359.688 405.267 353.717 397.183 C 347.756 389.109 346.16104 379.052 349.33 369.57797 C 370.789 305.516 431.33197 262.471 499.995 262.471 C 568.658 262.471 629.201 305.516 650.66 369.57797 C 653.829 379.042 652.234 389.109 646.273 397.183 Z M 326.733 277.377 C 313.483 282.711 300.917 288.687 289.282 295.217 C 235.066 325.591 203.349 366.294 199.863 409.912 L 126.328 409.912 C 117.753 409.912 110.05799 405.209 106.246 397.63 C 102.434 390.051 103.275 381.559 108.474 374.903 C 112.326004 369.977 116.90099 365.04004 122.06 360.24 C 142.261 341.458 171.404 324.503 208.667 309.85 C 243.22598 296.256 282.905 285.344 326.713 277.387 L 326.733 277.377 Z M 126.328 426.187 L 199.853 426.187 C 203.339 469.796 235.056 510.509 289.272 540.883 C 300.917 547.412 313.483 553.388 326.723 558.732 C 282.915 550.755 243.23598 539.853 208.67601 526.259 C 171.404 511.607 142.271 494.65097 122.06999 475.869 C 116.911 471.069 112.336 466.133 108.484 461.206 C 103.285 454.541 102.444 446.048 106.256 438.479 C 110.05799 430.89996 117.763 426.197 126.338 426.197 L 126.328 426.187 Z M 353.727 602.827 C 359.688 594.742 368.947 590.107 379.116 590.107 L 620.893 590.107 C 631.063 590.107 640.322 594.742 646.283 602.827 C 652.244 610.901 653.839 620.968 650.67 630.432 C 629.221 694.49304 568.668 737.538 500.00497 737.538 C 431.342 737.538 370.798 694.49304 349.34003 630.432 C 346.171 620.968 347.765 610.901 353.727 602.827 Z M 673.277 722.643 C 686.526 717.308 699.093 711.323 710.728 704.7931 C 764.943 674.419 796.661 633.716 800.146 590.098 L 873.672 590.098 C 882.247 590.098 889.941 594.801 893.754 602.38 C 897.566 609.959 896.724 618.451 891.526 625.107 C 887.67395 630.033 883.099 634.969 877.94 639.769 C 857.729 658.561 828.586 675.517 791.333 690.16 C 756.774 703.753 717.095 714.665 673.287 722.63306 L 673.277 722.643 Z M 873.672 573.822 L 800.146 573.822 C 796.661 530.214 764.943 489.501 710.728 459.12704 C 699.112 452.617 686.536 446.63098 673.267 441.27698 C 717.085 449.255 756.754 460.157 791.32306 473.75 C 828.596 488.403 857.729 505.35898 877.93 524.141 C 883.089 528.941 887.664 533.877 891.51605 538.803 C 896.715 545.469 897.5561 553.961 893.744 561.531 C 889.941 569.11 882.23706 573.813 873.662 573.813 L 873.672 573.822 Z M 236.37299 609.191 C 242.13698 597.414 253.99 590.107 267.309 590.107 L 325.069 590.107 C 327.812 647.261 360.332 700.197 410.477 729.619 C 368.204 721.875 329.238 708.45593 297.501 690.665 C 273.458 677.198 254.28702 661.797 240.503 644.88 C 232.175 634.668 230.59 620.987 236.364 609.201 L 236.37299 609.191 Z M 113.495 607.393 C 117.97 596.734 128.031 590.107 139.746 590.107 L 199.853 590.107 C 203.339 633.716 235.056 674.429 289.272 704.803 C 300.917 711.33203 313.483 717.308 326.723 722.652 C 282.915 714.675 243.246 703.773 208.667 690.179 C 171.404 675.527 142.261 658.571 122.06 639.789 C 121.238 639.021 120.426 638.244 119.634 637.476 C 111.415 629.479 109.058 617.955 113.48501 607.403 L 113.495 607.393 Z M 673.277 277.377 C 717.085 285.344 756.76404 296.256 791.32306 309.84 C 828.586 324.493 857.729 341.448 877.93 360.231 C 878.752 360.99796 879.5641 361.776 880.35596 362.54297 C 888.575 370.54 890.932 382.064 886.505 392.61597 C 882.02893 403.27597 871.969 409.902 860.2441 409.902 L 800.137 409.902 C 796.651 366.294 764.93396 325.581 710.718 295.207 C 699.073 288.677 686.507 282.702 673.267 277.367 L 673.277 277.377 Z M 763.636 390.829 C 757.873 402.59503 746.02 409.912 732.701 409.912 L 674.941 409.912 C 672.198 352.768 639.678 299.822 589.523 270.4 C 631.776 278.144 670.752 291.563 702.509 309.354 C 726.542 322.812 745.713 338.223 759.507 355.139 C 767.835 365.361 769.419 379.032 763.64606 390.829 L 763.636 390.829 Z"/>
</svg>
