<svg width="512" height="512" xmlns="http://www.w3.org/2000/svg">
    <defs>
        <clipPath id="clip0_499_80323">
            <path fill="#000000" stroke="none" d="M 0 0 L 512 0 L 512 512 L 0 512 Z"/>
        </clipPath>
    </defs>
    <g clip-path="url(#clip0_499_80323)">
        <path fill="#000000" stroke="none" d="M 491.846 156.358 C 478.938 125.854 460.48904 98.5154 436.987 75.013 C 413.485 51.5105 386.085 33.0617 355.642 20.1536 C 324.041 6.7584696 290.553 0 255.97 0 C 221.447 0 187.898 6.7584696 156.297 20.1536 C 125.79301 33.0617 98.4545 51.5105 74.9521 75.013 C 51.4496 98.5154 33.0008 125.915 20.0928 156.358 C 6.7584696 187.898 0 221.447 0 255.97 C 0 290.493 6.7584696 324.041 20.1536 355.642 C 33.0617 386.14597 51.5105 413.485 75.013 436.987 C 98.5154 460.48904 125.915 478.938 156.358 491.846 C 187.95901 505.18103 221.447 512 256.03 512 C 290.553 512 324.102 505.242 355.703 491.846 C 386.207 478.938 413.545 460.48904 437.048 436.987 C 460.55 413.485 478.999 386.085 491.90704 355.642 C 505.242 324.041 512.061 290.553 512.061 255.97 C 512 221.447 505.18103 187.898 491.846 156.358 Z M 170.971 231.919 C 181.62599 191.003 218.889 160.742 263.154 160.742 L 440.88403 160.742 C 452.331 182.84398 459.637 206.895 462.499 231.919 L 170.971 231.919 Z M 462.499 280.02 C 459.637 305.045 452.27 329.095 440.88403 351.197 L 263.154 351.197 C 218.95 351.197 181.68698 320.936 170.971 280.02 L 462.499 280.02 Z M 108.988 108.988 C 148.26 69.7158 200.43999 48.100796 255.97 48.100796 C 311.499 48.100796 363.67896 69.7158 402.95102 108.988 C 404.16898 110.206 405.326 111.423 406.48297 112.64101 L 263.154 112.64101 C 224.856 112.64101 188.872 127.55899 161.777 154.653 C 140.467 175.96399 126.706 202.815 121.773994 231.98 L 49.501198 231.98 C 54.7984 185.523 75.4392 142.537 108.988 108.988 Z M 255.97 463.899 C 200.43999 463.899 148.26 442.284 108.988 403.012 C 75.4392 369.463 54.7984 326.477 49.501198 280.081 L 121.773994 280.081 C 126.64499 309.246 140.467 336.097 161.777 357.408 C 188.872 384.502 224.856 399.42 263.154 399.42 L 406.543 399.42 C 405.38696 400.63702 404.16898 401.855 403.012 403.073 C 363.74 442.223 311.499 463.899 255.97 463.899 Z"/>
    </g>
</svg>
