<svg width="256" height="256" xmlns="http://www.w3.org/2000/svg">
    <defs>
        <linearGradient id="linearGradient-1" x1="0.8476026" y1="0.9062121" x2="0.20902765" y2="-0.05045847" gradientUnits="userSpaceOnUse" gradientTransform="matrix(131.55241 0 0 100.395256 0.00000004 0.65343666)">
            <stop offset="0" stop-color="#004560"/>
            <stop offset="1" stop-color="#61d1c9"/>
        </linearGradient>
        <linearGradient id="linearGradient-2" x1="0.43649808" y1="0.34062958" x2="0.78881204" y2="0.71253324" gradientUnits="userSpaceOnUse" gradientTransform="matrix(135.3607 0 0 148.27513 35.639297 0.7248644)">
            <stop offset="0" stop-color="#43d16a"/>
            <stop offset="1" stop-color="#25b7b0"/>
        </linearGradient>
    </defs>
    <g id="Artboard">
        <path id="Oval" fill="#00455f" fill-rule="evenodd" stroke="none" d="M 256 128 C 256 198.69243 198.69243 256 128 256 C 57.307552 256 0 198.69243 0 128 C 0 57.307552 57.307552 0 128 0 C 198.69243 0 256 57.307552 256 128 Z"/>
        <g id="6315f76f93b5737098b53f90_logo" transform="matrix(1 0 0 1 42 62)">
            <path id="Path" fill="#f46060" stroke="none" d="M 116.50433 46.398663 C 129.1822 46.398663 139.45956 36.011875 139.45956 23.199331 C 139.45956 10.386678 129.1822 0 116.50433 0 C 103.826454 0 93.549095 10.386678 93.549095 23.199331 C 93.549095 36.011875 103.826454 46.398663 116.50433 46.398663 Z"/>
            <path id="Path" fill="url(#linearGradient-1)" stroke="none" d="M 130.35066 29.70184 C 121.75538 27.202532 112.678276 26.916302 103.94584 28.869368 C 95.21313 30.822546 87.10264 34.953476 80.35355 40.884796 C 79.66261 41.46452 78.8116 41.813705 77.91639 41.88468 C 77.02119 41.955387 76.12598 41.743546 75.354195 41.279495 C 72.341156 39.350426 69.06808 37.87051 65.63681 36.885796 C 64.83188 36.659325 64.1086 36.20394 63.553204 35.57275 C 62.998077 34.941555 62.63482 34.16218 62.506817 33.327545 C 61.499237 26.837332 58.87183 20.71297 54.873035 15.533503 C 50.873985 10.354034 45.635593 6.289664 39.65129 3.724067 C 33.666985 1.1584672 27.135103 0.17585965 20.670832 0.8695892 C 14.206669 1.5633166 8.024002 3.9102826 2.70628 7.688801 C 1.5024722 8.566457 0.6305267 9.833151 0.23528565 11.279151 C -0.15995412 12.725126 -0.05483892 14.264127 0.5324851 15.641835 L 35.8344 98.8389 C 38.03954 100.313675 40.633 101.08275 43.27712 101.04753 C 45.92097 101.012314 48.494217 100.17443 50.660286 98.64141 L 125.894844 45.69595 C 128.26355 44.026947 130.02621 41.619473 130.91333 38.84249 C 131.80046 36.065243 131.763 33.071274 130.80716 30.317595 L 130.35066 29.70184 Z"/>
            <path id="Path" fill="url(#linearGradient-2)" stroke="none" d="M 122.24287 123.64208 L 170.50157 9.84182 C 170.90794 8.852471 171.06964 7.7784677 170.97263 6.7116427 C 170.87589 5.644818 170.5234 4.617842 169.94537 3.7198682 C 169.36707 2.8218672 168.58046 2.080177 167.6548 1.5583591 C 166.72888 1.0365412 165.69139 0.7500363 164.6318 0.7248644 C 154.91603 0.7248644 145.45007 3.837411 137.59532 9.61654 C 129.7403 15.39567 123.90124 23.54332 120.91703 32.887875 C 120.319336 34.77089 119.28535 36.482967 117.90158 37.881344 C 116.51781 39.279724 114.82387 40.324577 112.96069 40.92895 C 108.73851 42.342228 104.871216 44.664913 101.624825 47.737442 C 98.37815 50.809704 95.83023 54.55785 94.15758 58.72291 C 93.14299 61.308907 91.31916 63.48856 88.964195 64.92865 C 86.608955 66.36848 83.85219 66.99046 81.11483 66.69843 C 79.59093 66.54023 78.060295 66.45869 76.52858 66.45598 C 67.09981 66.46031 57.94482 69.66315 50.531204 75.550575 C 43.11732 81.437744 37.873543 89.66953 35.639297 98.92694 L 46.11661 123.64208 C 60.46364 157.45264 107.91768 157.45264 122.24287 123.64208 Z"/>
            <path id="Path" fill="#199b57" stroke="none" d="M 120.41716 81.41743 C 126.75582 81.41743 131.89478 76.22403 131.89478 69.81756 C 131.89478 63.41135 126.75582 58.217957 120.41716 58.217957 C 114.07822 58.217957 108.93954 63.41135 108.93954 69.81756 C 108.93954 76.22403 114.07822 81.41743 120.41716 81.41743 Z"/>
            <path id="Path" fill="#199b57" stroke="none" d="M 103.30932 124.45532 C 107.535286 124.45532 110.96116 120.992966 110.96116 116.721985 C 110.96116 112.45126 107.535286 108.988914 103.30932 108.988914 C 99.083374 108.988914 95.65749 112.45126 95.65749 116.721985 C 95.65749 120.992966 99.083374 124.45532 103.30932 124.45532 Z"/>
            <path id="Path" fill="#61d1c9" stroke="none" d="M 52.833893 58.129913 C 56.003498 58.129913 58.572704 55.53336 58.572704 52.329983 C 58.572704 49.12688 56.003498 46.53032 52.833893 46.53032 C 49.664562 46.53032 47.095093 49.12688 47.095093 52.329983 C 47.095093 55.53336 49.664562 58.129913 52.833893 58.129913 Z"/>
            <path id="Path" fill="#61d1c9" stroke="none" d="M 34.039677 36.045197 C 39.359177 33.682148 41.775047 27.407602 39.436787 22.031677 C 37.09825 16.655725 30.890821 14.213632 25.571537 16.576868 C 20.252144 18.940104 17.835732 25.21349 20.174103 30.589575 C 22.512474 35.965282 28.720175 38.408512 34.039677 36.045197 Z"/>
            <path id="Path" fill="#199b57" stroke="none" d="M 90.59266 87.92034 C 90.99606 88.72598 91.23832 89.60478 91.30488 90.50552 C 91.37117 91.40626 91.260956 92.3116 90.980156 93.169 C 90.69936 94.02639 90.253105 94.819305 89.66807 95.50224 C 89.08303 96.184906 88.37133 96.74404 87.57181 97.14768 C 80.36891 100.844086 74.34177 106.51671 70.18156 113.51509 C 69.745544 114.33483 69.149185 115.05569 68.42914 115.63568 C 67.7091 116.21594 66.87991 116.64289 65.99198 116.88967 C 65.10405 117.13646 64.17543 117.19849 63.26324 117.07226 C 62.350792 116.94575 61.473366 116.633125 60.683796 116.15391 C 59.894497 115.67468 59.20921 115.03781 58.670525 114.28309 C 58.13157 113.52837 57.74999 112.67151 57.54842 111.76319 C 57.34712 110.85514 57.329872 109.91485 57.49857 109.000015 C 57.667263 108.08493 58.01785 107.21454 58.52932 106.440575 C 64.032875 97.19644 72.01509 89.71721 81.55031 84.86732 C 83.15397 84.08306 84.99693 83.96306 86.68657 84.53357 C 88.37619 85.10435 89.77775 86.31933 90.59266 87.92034 Z"/>
        </g>
    </g>
</svg>
