<svg width="24" height="24" xmlns="http://www.w3.org/2000/svg">
    <defs>
        <linearGradient id="a" x1="0.907" y1="0.227" x2="0.163" y2="0.853" gradientUnits="userSpaceOnUse" gradientTransform="matrix(24 0 0 24 -0 0)">
            <stop offset="0" stop-color="#b6509e"/>
            <stop offset="1" stop-color="#2ebac6"/>
        </linearGradient>
    </defs>
    <path fill="url(#a)" stroke="none" d="M 24 12 C 24 18.627417 18.627417 24 12 24 C 5.372583 24 0 18.627417 0 12 C -0 5.372583 5.372583 0 12 0 C 18.627417 0 24 5.372583 24 12 Z"/>
    <path fill="#ffffff" stroke="none" d="M 17.251 16.78 L 13.192 6.971 C 13.048747 6.5281677 12.640341 6.2249746 12.175 6.216 L 11.816 6.216 C 11.350659 6.2249746 10.942253 6.5281677 10.799001 6.971 L 9.033 11.245 L 7.6970005 11.245 C 7.2967815 11.246629 6.9722815 11.569792 6.969 11.97 L 6.969 11.98 C 6.9722815 12.380209 7.2967815 12.703371 7.6970005 12.705 L 8.415 12.705 L 6.73 16.78 C 6.6981254 16.869278 6.6812305 16.963211 6.68 17.058 C 6.6721544 17.259537 6.744007 17.456055 6.88 17.605 C 7.021165 17.749067 7.217613 17.825241 7.419 17.814 C 7.569676 17.812084 7.716056 17.763525 7.838 17.675 C 7.965604 17.580482 8.065427 17.453373 8.127 17.307 L 9.98 12.706 L 11.267 12.706 C 11.667218 12.70437 11.991718 12.381208 11.995 11.981 L 11.995 11.961001 C 11.991718 11.560792 11.667218 11.23763 11.267 11.236 L 10.58 11.236 L 11.995 7.707 L 15.854001 17.307 C 15.915574 17.453373 16.015396 17.580482 16.143 17.675 C 16.264944 17.763525 16.411324 17.812084 16.562 17.814 C 16.763388 17.825241 16.959835 17.749067 17.101 17.605 C 17.236994 17.456055 17.308846 17.259537 17.301 17.058 C 17.304686 16.962805 17.287624 16.867945 17.251 16.78 Z"/>
</svg>
