<svg width="1219.45" height="1219.45" xmlns="http://www.w3.org/2000/svg">
    <g id="Layer_1-2">
        <g>
            <path fill="#0f56e6" stroke="none" d="M 1219.44 609.72 C 1219.44 771.4277 1155.2018 926.5124 1040.857 1040.857 C 926.5124 1155.2018 771.4277 1219.44 609.72 1219.44 C 448.01218 1219.44 292.92752 1155.2018 178.58284 1040.857 C 64.23817 926.5124 0 771.4277 0 609.72 C 0 448.01218 64.23817 292.92752 178.58284 178.58284 C 292.92752 64.23817 448.01218 0 609.72 0 C 771.4277 0 926.5124 64.23817 1040.857 178.58284 C 1155.2018 292.92752 1219.44 448.01218 1219.44 609.72 Z"/>
            <path fill="#ffffff" stroke="none" d="M 654.1 558.08 L 883.53 877.59 L 695.71 877.59 L 559.14 664.54 C 532.59 699.54 506.18 786.45 488.08 877.59 L 344.77 877.59 C 388.36 809.26 477.46997 707 548.57 648.82 L 335.92 341.86 L 524.27 341.86 L 642.62 543.42 C 666.79 509.61 695.45 424.81 711.3 341.86 L 868.74 341.86 C 823.67993 401.69 790.07996 446.98 654.1 558.08 L 654.1 558.08 Z"/>
        </g>
    </g>
</svg>
