<svg width="512" height="512" xmlns="http://www.w3.org/2000/svg">
    <path fill="#d62d79" stroke="none" d="M 512 256 C 512 397.38486 397.38486 512 256 512 C 114.615105 512 0 397.38486 0 256 C 0 114.615105 114.615105 0 256 0 C 397.38486 0 512 114.615105 512 256 Z"/>
    <g>
        <path fill="#ffffff" stroke="none" d="M 384 272 L 128 272 C 119.2 272 112 279.2 112 288 C 112 296.8 119.2 304 128 304 L 149.2 304 C 146.1 313 143.2 321.3 140.6 328.8 C 137.1 339 134.1 347.5 132.1 353.5 L 128.9 362.80002 C 126 371.2 130.4 380.3 138.8 383.2 C 147.2 386.1 156.3 381.7 159.2 373.3 L 162.4 364 C 164.5 358.1 167.4 349.59998 170.9 339.3 C 174.4 329 178.59999 317 183.1 304.1 L 329 304.1 C 333.5 317.1 337.6 329.1 341.2 339.3 C 344.7 349.59998 347.7 358.1 349.7 364 L 352.90002 373.3 C 355.8 381.7 364.9 386.1 373.19998 383.2 C 381.59998 380.3 386 371.2 383.09998 362.80002 L 379.9 353.5 C 377.80002 347.6 374.9 339.1 371.4 328.8 C 368.8 321.4 365.9 313 362.80002 304 L 384 304 C 392.79996 304 400 296.8 400 288 C 400 279.2 392.79996 272 384 272 Z M 128 240 L 384 240 C 392.79996 240 400 232.8 400 224 C 400 215.2 392.79996 208 384 208 L 329.7 208 C 316.3 169.1 305.1 136.7 303.2 130.9 C 299.8 120.7 294.2 111.6 285.6 105.2 C 277 98.700005 266.7 96 256 96 C 245.3 96 235 98.700005 226.4 105.2 C 217.8 111.6 212.2 120.600006 208.8 130.9 C 206.9 136.7 195.7 169.1 182.3 208 L 128 208 C 119.2 208 112 215.2 112 224 C 112 232.8 119.2 240 128 240 Z M 239.2 141.1 C 241.1 135.3 243.49998 132.4 245.6 130.8 C 247.6 129.3 250.8 128 256 128 C 261.3 128 264.4 129.3 266.4 130.8 C 268.5 132.4 270.9 135.4 272.8 141.1 C 274.6 146.4 284 173.8 295.8 208 L 216.19998 208 C 228 173.9 237.40001 146.5 239.2 141.1 Z"/>
    </g>
</svg>
