<svg width="40" height="40" xmlns="http://www.w3.org/2000/svg">
    <path fill="#b9b9ff" stroke="none" d="M 12 0 L 28 0 C 34.62742 0 40 5.372583 40 12 L 40 28 C 40 34.62742 34.62742 40 28 40 L 12 40 C 5.372583 40 0 34.62742 0 28 L 0 12 C -0 5.372583 5.372583 0 12 0 Z"/>
    <path fill="#000000" stroke="none" d="M 8 12.5 L 10.25 12.5 L 13 20 L 10.25 27.500002 L 8 27.500002 L 10.750001 20 L 8 12.5 Z"/>
    <path fill="#000000" stroke="none" d="M 19.6439 27.16 C 18.4839 27.16 17.5306 26.8933 16.7839 26.36 C 16.0506 25.8267 15.6839 25.1 15.6839 24.180002 L 17.7039 24.180002 C 17.7039 24.5933 17.8839 24.9133 18.2439 25.14 C 18.6172 25.3533 19.0972 25.46 19.6839 25.46 L 20.5239 25.46 C 21.2172 25.46 21.7306 25.3267 22.0639 25.06 C 22.3972 24.78 22.563898 24.4133 22.563898 23.96 C 22.563898 23.5067 22.403898 23.153301 22.083902 22.9 C 21.7639 22.6467 21.3106 22.466702 20.7239 22.36 L 19.2239 22.14 C 17.0372 21.7933 15.9439 20.7333 15.9439 18.96 C 15.9439 17.9467 16.2772 17.1733 16.9439 16.64 C 17.6106 16.1067 18.5639 15.84 19.8039 15.84 L 20.5639 15.84 C 21.7106 15.84 22.6306 16.1 23.323902 16.62 C 24.0172 17.1267 24.3639 17.8 24.3639 18.64 L 22.3439 18.64 C 22.3439 18.3067 22.1772 18.04 21.8439 17.84 C 21.5239 17.64 21.0839 17.54 20.5239 17.54 L 19.7639 17.54 C 19.1506 17.54 18.6839 17.6667 18.3639 17.92 C 18.0439 18.16 17.8839 18.5067 17.8839 18.96 C 17.8839 19.7333 18.4306 20.2067 19.5239 20.38 L 21.0239 20.62 C 22.2239 20.8067 23.1039 21.16 23.6639 21.68 C 24.2239 22.1867 24.5039 22.92 24.5039 23.88 C 24.5039 24.9067 24.163902 25.7133 23.483898 26.3 C 22.8172 26.8733 21.8172 27.16 20.4839 27.16 L 19.6439 27.16 Z"/>
    <path fill="#000000" stroke="none" d="M 32 12.5 L 29.75 12.5 L 27 20 L 29.75 27.500002 L 32 27.500002 L 29.25 20 L 32 12.5 Z"/>
</svg>
