<svg width="256" height="256" xmlns="http://www.w3.org/2000/svg">
    <g transform="matrix(0.05668734 0 0 0.05668734 0 0.0283432)">
        <g id="Layer_x0020_1">
            <path fill="#000000" fill-rule="evenodd" stroke="none" d="M 2258 0 C 2396.7 0 2532.3 12.5 2664 36.5 L 1852 36.5 C 1983.7 12.5 2119.3 0 2258 0 Z M 2835.9 74.8 C 2878.7 86.1 2921 98.700005 2962.7 112.4 L 1553.3 112.4 C 1595.1001 98.700005 1637.2999 86.1 1680.0999 74.8 Z M 3069.9 150.8 Q 3116.1 168.6 3161.2 188.39998 L 1354.9 188.39998 Q 1400 168.6 1446.2 150.8 C 1446.2 150.8 3069.9 150.8 3069.9 150.8 Z M 3244.1 226.7 Q 3281.3 244.8 3317.7 264.3 L 1198.4 264.3 Q 1234.8 244.8 1272.1 226.7 Z M 3386.6 302.6 Q 3418.1997 320.9 3449.1 340.2 L 1067 340.2 Q 1098 320.9 1129.6 302.6 Z M 3508.5 378.6 Q 3536 397 3563 416.2 L 953.1 416.2 Q 980.1 397 1007.5999 378.6 Z M 3615.4 454.49997 Q 3639.9 473 3663.7998 492.1 L 852.5 492.1 Q 876.39996 473 900.9 454.49997 Z M 3710.5 530.4 Q 3732.5 549 3754.1 568 L 2783.2 568 L 2762.5 547.3 L 2741.8 568 L 1773.6 568 L 1753.9 548.4 L 1734.2999 568 L 762.3 568 Q 783.8 549 805.8 530.4 Z M 3796.2 606.4 Q 3816.1 624.9 3835.5 644 L 2859.2 644 L 2821.5 606.4 Z M 2665.9 644 L 1849.6 644 L 1812 606.4 L 2703.5 606.4 Z M 1658.3999 644 L 681 644 Q 700.4 624.9 720.2999 606.3 L 1696 606.3 Z M 3873.8003 682.4 Q 3892 701 3909.7 720 L 2935.1997 720 L 2897.6 682.4 Z M 2589.9 720 L 1925.5 720 L 1887.9 682.4 L 2627.6 682.4 Z M 1582.4 720 L 606.8 720 Q 624.5 700.9001 642.6 682.3 L 1620 682.3 Z M 3944.4 758.4 Q 3961 777 3977.1 796 L 3011 796 L 2973.3997 758.4 Z M 2514 796 L 2001.4 796 L 1963.8 758.4 L 2551.6 758.4 Z M 1506.5 796 L 539.3 796 Q 555.5 777 572.1 758.3 L 1544.1 758.3 Z M 4009 834.4 C 4019.1 846.8 4029.1 859.3 4039 872 L 3087.1 872 L 3049.4 834.4 Z M 2438.1 872 L 2077.4 872 L 2039.7999 834.4 L 2475.7 834.4 Z M 1430.7001 872 L 477.59998 872 C 487.49997 859.3 497.5 846.8 507.6 834.3 L 1468.3 834.3 Z M 4068.2 910.4001 C 4077.4998 922.8 4086.7002 935.3 4095.7 948 L 3163.0999 948 L 3125.4001 910.4001 Z M 2362.3 948 L 2153.4 948 L 2115.8 910.4001 L 2399.9 910.4001 C 2399.9 910.4001 2362.2 948 2362.3 948 Z M 1354.8 948 L 421.1 948 C 430.09998 935.3 439.3 922.8 448.60004 910.4001 L 1392.4 910.4001 Z M 4122.5 986.3 C 4131 998.7 4139.4 1011.2 4147.7 1023.9001 L 3239.1 1023.9001 L 3201.4 986.3 Z M 2286.4 1023.9001 L 2229.5 1023.9001 L 2191.8 986.3 L 2324 986.3 Z M 1279 1023.9001 L 369.3 1023.9001 C 377.50003 1011.2 385.90002 998.7 394.5 986.3 L 1316.6 986.3 Z M 4172.3 1062.2 Q 4184 1080.9 4195.4 1099.8 L 3315.1003 1099.8 L 3277.5 1062.2 Z M 1203 1099.8 L 321.7 1099.8 Q 333 1080.9 344.7 1062.2 L 1240.7 1062.2 Z M 4217.7 1138.1 Q 4228.5 1156.8 4238.8 1175.7 L 3390.9 1175.7 L 3353.3003 1138.1 Z M 1127 1175.7 L 278.1 1175.7 Q 288.4 1156.8 299.1 1138.1 L 1164.6 1138.1 Z M 4259.3 1214 Q 4269.1 1232.7 4278.6 1251.6 L 3356.1997 1251.6 L 3393.8 1214 Z M 1164.1 1251.6 L 238.3 1251.6 Q 247.69998 1232.7 257.5 1214 L 1126.5 1214 Z M 4297.2 1289.9 Q 4306.1 1308.6 4314.6 1327.5 L 3280.2 1327.5 L 3317.8 1289.9 Z M 1240.1 1327.5 L 202.2 1327.5 Q 210.8 1308.6 219.7 1289.9 L 1202.5 1289.9 Z M 4331.6 1365.8 Q 4339.6 1384.6001 4347.4 1403.5 L 3204.3 1403.5 L 3241.9 1365.8 Z M 1316 1403.5 L 169.5 1403.5 Q 177.3 1384.6001 185.3 1365.8 L 1278.4 1365.8 Z M 4362.7 1441.9 Q 4370 1460.6 4376.9 1479.5 L 3128.4 1479.5 L 3166 1441.9 Z M 1392 1479.5 L 140 1479.5 Q 147 1460.6 154.3 1441.9 L 1354.4 1441.9 Z M 4390.6 1517.8 Q 4397.2 1536.5 4403.3 1555.4 L 3052.5 1555.4 L 3090.1 1517.8 Z M 1467.9 1555.4 L 113.6 1555.4 Q 119.8 1536.5 126.3 1517.8 L 1430.2 1517.8 Z M 4415.6 1593.7001 Q 4421.4 1612.4 4426.8 1631.3 L 2976.6003 1631.3 L 3014.2 1593.7001 Z M 1543.9 1631.3 L 90.19999 1631.3 Q 95.7 1612.4 101.49999 1593.7001 L 1506.3 1593.7001 Z M 4437.6 1669.6001 Q 4442.7 1688.3 4447.4 1707.2001 L 2900.7 1707.2001 L 2938.3 1669.6001 Z M 1619.9 1707.2001 L 69.7 1707.2001 Q 74.4 1688.3 79.5 1669.6001 L 1582.2 1669.6001 Z M 4456.8 1745.5001 C 4459.7 1758 4462.6 1770.6001 4465.3 1783.1001 L 2937.8 1783.1001 Q 2926 1764.1 2913.4998 1745.5001 Z M 1579.3002 1783.1001 L 52 1783.1001 C 54.7 1770.6001 57.6 1758 60.5 1745.5001 L 1603.5 1745.5001 Q 1591 1764.2 1579.3002 1783.1001 Z M 4473.2 1821.5 C 4475.7 1834 4478.1 1846.5001 4480.4 1859.1 L 2981.8003 1859.1 Q 2971.6 1840.1 2960.8 1821.5 Z M 1535.5 1859.1 L 37 1859.1 C 39.3 1846.5001 41.7 1834 44.1 1821.5 L 1556.4 1821.5 Q 1545.6001 1840.1 1535.5 1859.1 Z M 4486.9 1897.4 C 4488.9 1909.9 4490.9 1922.4001 4492.7 1935 L 4150.5 1935 L 4112.9 1897.4 Z M 4013.5 1935 L 3019.6 1935 Q 3010.9 1916.1 3001.7 1897.4 L 4051.1 1897.4 Z M 1498.1001 1935 L 507.4 1935 L 469.8 1897.4 L 1515.8999 1897.4 Q 1509.1998 1911 1502.8002 1924.7 Q 1500.4 1929.8 1498.1001 1935 Z M 368 1935 L 24.7 1935 C 26.499998 1922.4001 28.499998 1909.9 30.499998 1897.4 L 405.6 1897.4 Z M 4498 1973.3 C 4499.6 1985.8002 4501.1 1998.3002 4502.5 2010.9 L 4226.5 2010.9 L 4188.9 1973.3 Z M 3937.6 2010.9 L 3051.8 2010.9 Q 3044.5 1992 3036.6 1973.3 L 3975.3 1973.3 Z M 1466.3 2010.9 L 583.3 2010.9 L 545.7 1973.3 L 1481.4 1973.3 Q 1473.5999 1991.9 1466.3 2010.9 Z M 292 2010.9 L 15 2010.9 C 16.3 1998.3002 17.9 1985.8002 19.5 1973.3 L 329.7 1973.3 Z M 4506.3 2049.2 C 4507.4 2061.7 4508.6 2074.2 4509.5 2086.8 L 4302.4 2086.8 L 4264.7 2049.2 Z M 3861.6 2086.8 L 3078.7 2086.8 Q 3072.6 2067.9 3066 2049.2 L 3899.2998 2049.2 Z M 1439.6 2086.8 L 659.2 2086.8 L 621.5 2049.2 L 1452.2 2049.2 Q 1445.7 2067.8 1439.6 2086.8 Z M 216 2086.8 L 7.8 2086.8 C 8.7 2074.2 9.8 2061.7 11 2049.2 L 253.6 2049.2 Z M 4512.1 2125.1 C 4512.9 2137.6 4513.6 2150.1 4514.1 2162.7 L 4378.3 2162.7 L 4340.7 2125.1 Z M 3785.6 2162.7 L 3100.9001 2162.7 Q 3100 2159.1 3099 2155.5 Q 3094.9 2140.2 3090.5002 2125.1 L 3823.2 2125.1 Z M 1417.4 2162.7 L 735.0999 2162.7 L 697.5 2125.1 L 1428 2125.1 Q 1423.7 2140 1419.7 2155.1 L 1419.4 2155 Q 1418.4 2158.9 1417.4 2162.7 Z M 140.1 2162.7 L 3.2 2162.7 C 3.7 2150.1 4.5 2137.6 5.2 2125.1 L 177.7 2125.1 Z M 4515.4 2201 C 4515.8 2213.5 4516.1 2226 4516.2 2238.6 L 4454.3 2238.6 L 4416.7 2201 Z M 3709.7 2238.6 L 3118.7 2238.6 Q 3114.7998 2219.8 3110.4 2201 L 3747.3 2201 Z M 1399.5 2238.6 L 811 2238.6 L 773.4 2201 L 1407.8002 2201 Q 1403.3 2219.8 1399.5 2238.6 Z M 64.2 2238.6 L 1.1 2238.6 C 1.3 2226 1.6 2213.5 1.9 2201 L 101.80001 2201 Z M 4516.3 2276.9 Q 4516.2 2288.6 4516 2300.4 L 4492.6 2276.9 Z M 3633.7 2314.5 L 3132.1 2314.5 Q 3129.3 2295.7 3126 2276.9 L 3671.3003 2276.9 Z M 1386 2314.5 L 886.9 2314.5 L 849.2999 2276.9 L 1392.1 2276.9 Q 1388.8 2295.7 1386 2314.5 Z M 1.3 2301.4 Q 1.1 2289.2 1 2276.9 L 25.8 2276.9 Z M 3557.8 2390.4 L 3141.1997 2390.4 Q 3139.5 2371.6 3137.1997 2352.8 L 3595.5 2352.8 Z M 1377 2390.4 L 962.80005 2390.4 L 925.19995 2352.8 L 1380.9 2352.8 Q 1378.7 2371.6 1377 2390.4 Z M 3481.8003 2466.3 L 3146 2466.3 Q 3145.3 2447.5 3144.1 2428.7 L 3519.4 2428.7 Z M 1372.3 2466.3 L 1038.8 2466.3 L 1001.2 2428.7 L 1374.1 2428.7 Q 1373 2447.5 1372.3 2466.3 Z M 3405.9 2542.2 L 3146.7 2542.2 Q 3146.9 2527.9 3146.9 2513.6 Q 3146.9 2509.1 3146.9 2504.6 L 3443.5 2504.6 Z M 1372 2542.2 L 1114.7 2542.2 L 1077.1 2504.6 L 1371.6 2504.6 Q 1371.6 2523.4 1372 2542.2 Z M 3330 2618.2 L 3143.1 2618.2 Q 3144.4998 2599.4 3145.4 2580.5 L 3367.6 2580.5 Z M 1376.1 2618.2 L 1190.7 2618.2 L 1153.1 2580.6 L 1373.5 2580.6 Q 1374.5 2599.4 1376.1 2618.2 Z M 3254.0999 2694.2 L 3135.2 2694.2 Q 3137.7 2675.4 3139.7 2656.6 L 3291.7 2656.6 Z M 1384.4999 2694.2 L 1266.6 2694.2 L 1229 2656.5 L 1379.8 2656.5 Q 1381.8999 2675.3 1384.4999 2694.2 Z M 3178.2002 2770.1003 L 3123.1 2770.1003 Q 3126.6 2751.2998 3129.6003 2732.5 L 3215.8 2732.5 Z M 1396.4 2770.1003 L 1342.6 2770.1003 L 1305 2732.5 L 1390.4 2732.5 Q 1393.2 2749.1997 1396.4 2766 Z M 4448.7 2808.4 Q 4443.9 2827.3 4438.9 2846.1 L 4395.3 2846.1 L 4432.9 2808.4 Z M 121 2846.1 L 78.5 2846.1 Q 73.5 2827.3 68.8 2808.4 L 83.4 2808.4 Z M 1381 2808.5 L 1404.3999 2808.5 L 1407.5999 2821.2 L 1407.5999 2826.2 L 1411.6001 2839.1 Z M 3115.3 2808.5 L 3139.9 2808.5 L 3108 2840.5 Q 3111.8 2824.5 3115.3 2808.5 Z M 4428.3 2884.4998 Q 4422.8 2903.3003 4417 2922.1 L 4319.5 2922.1 L 4357.1 2884.4998 Z M 197 2922.1 L 100.5 2922.1 Q 94.700005 2903.3003 89.2 2884.4998 L 159.4 2884.4998 Z M 4404.9 2960.4001 Q 4398.7 2979.3 4392.2 2998 L 4243.5 2998 L 4281.2 2960.4001 Z M 272.9 2998 L 125.299995 2998 Q 118.8 2979.3 112.600006 2960.4001 L 235.3 2960.4001 Z M 4378.5 3036.2998 Q 4371.5 3055.2 4364.2 3073.9 L 4167.6 3073.9 L 4205.2 3036.2998 Z M 348.8 3073.9 L 153.2 3073.9 Q 145.9 3055.2 139 3036.2998 L 311.2 3036.2998 Z M 4349 3112.2002 Q 4341.2 3131.1 4333.2 3149.8 L 4091.6003 3149.8 L 4129.3 3112.2002 Z M 424.7 3149.8 L 184.30002 3149.8 Q 176.19998 3131.1 168.5 3112.2002 L 387.1 3112.2002 Z M 4316.2 3188.0999 Q 4307.6 3207 4298.7 3225.7 L 4015.7 3225.7 L 4053.3 3188.0999 Z M 500.69998 3225.7 L 218.7 3225.7 Q 209.8 3207 201.20001 3188.0999 L 463.09998 3188.0999 Z M 4280 3264 Q 4270.6 3283 4260.8 3301.7002 L 3939.8003 3301.7002 L 3977.4 3264 Z M 576.5 3301.7002 L 256.5 3301.7002 Q 246.7 3283 237.3 3264 L 538.9 3264 Z M 4240.2 3340.1003 Q 4229.9 3359 4219.2 3377.7 L 3863.7002 3377.7 L 3901.4 3340.1003 Z M 652.4 3377.7 L 298 3377.7 Q 287.3 3359 276.9 3340.1003 L 614.7 3340.1003 Z M 4196.7 3416 Q 4185.4 3434.9001 4173.7 3453.6 L 3787.7998 3453.6 L 3825.4 3416 Z M 728.4 3453.6 L 343.5 3453.6 Q 331.8 3434.9001 320.5 3416 L 690.8 3416 Z M 4149.2 3491.9 Q 4136.8 3510.7998 4124 3529.5 L 3710.8 3529.5 Q 3727.9 3513.5 3744.6003 3496.8 L 3749.5 3491.9 Z M 805.3 3529.5 L 393.2 3529.5 Q 380.5 3510.7998 368.10004 3491.9 L 766.7 3491.9 L 772.7 3497.9 Q 788.8 3514 805.3 3529.5 Z M 4097.3 3567.8 Q 4083.7 3586.8 4069.8 3605.5 L 3622.9 3605.5 Q 3645.9001 3587.1997 3668.3 3567.8 Z M 893.3 3605.5 L 447.39996 3605.5 Q 433.5 3586.8 420 3567.8 L 847.9 3567.8 Q 870.2 3587.1997 893.3 3605.5 Z M 4040.6 3643.8 Q 4025.8 3662.7 4010.6 3681.4 L 3517.4 3681.4 Q 3545.3 3663.3003 3572.3003 3643.8 Z M 999.10004 3681.4 L 506.5 3681.4 Q 491.4 3662.7 476.6 3643.8 L 944 3643.8 Q 971.1 3663.2 999.10004 3681.4 Z M 3978.7 3719.6997 Q 3962.5 3738.7 3946 3757.3 L 3385.1997 3757.3 Q 3420.6 3739.5 3454.9 3719.6997 Z M 1131.7 3757.3 L 571.2 3757.3 Q 554.6 3738.7 538.5 3719.6997 L 1061.7 3719.6997 Q 1096.2 3739.6 1131.7 3757.3 Z M 3911.1 3795.6 Q 3893.4001 3814.6997 3875.3 3833.3 L 3202.2 3833.3 Q 3253.1 3816.2998 3302.1 3795.6 Z M 2321.3 3833.3 L 2196.9 3833.3 L 2266 3813.4998 Q 2293.3 3823.8997 2321.3 3833.3 Z M 1315.8 3833.3 L 642 3833.3 Q 623.8 3814.6997 606.1 3795.6 L 1215.1 3795.6 Q 1264.5 3816.2998 1315.8 3833.3 Z M 3837.1 3871.6 Q 3817.6 3890.6 3797.6997 3909.1997 L 719.5999 3909.1997 Q 699.7 3890.6 680.2 3871.6 L 1455.5 3871.6 Q 1605.2 3904.6 1756.3 3904.4 Q 1906.3 3904.1 2053.3 3871.6 L 2458.5 3871.6 Q 2609.8 3905.8 2763.2 3905.5 Q 2915.2 3905.1997 3064.6 3871.6 Z M 3755.4998 3947.5 Q 3734 3966.6 3712 3985.1 L 805.3 3985.1 Q 783.2 3966.6 761.7 3947.5 Z M 3665.3 4023.4 Q 3641.3 4042.5999 3616.8 4061.1 L 900.5 4061.1 Q 876 4042.5999 852 4023.4 C 852 4023.4 3665.3 4023.4 3665.3 4023.4 Z M 3564.5 4099.4 Q 3537.5 4118.6 3509.8997 4137 L 1007.4001 4137 Q 979.8 4118.6 952.8 4099.4 Z M 3450.4 4175.3 Q 3419.5 4194.6 3387.8 4212.9 L 1129.5 4212.9 Q 1097.8 4194.6 1066.8 4175.3 Z M 3318.8 4251.3 Q 3282.3 4270.7 3245.1003 4288.9 L 1272.2 4288.9 Q 1234.9 4270.7 1198.4 4251.3 Z M 3162.1 4327.2 C 3132 4340.4 3101.6 4352.9 3070.8 4364.8 L 1446.4 4364.8 C 1415.6001 4352.9 1385.2001 4340.4 1355.2 4327.2 C 1355.2 4327.2 3162.1 4327.2 3162.1 4327.2 Z M 2963.5 4403.1 C 2921.8 4416.9 2879.5002 4429.4 2836.7 4440.7 L 1680.6 4440.7 C 1637.8 4429.4 1595.5 4416.9 1553.7 4403.1 C 1553.7 4403.1 2963.5 4403.1 2963.5 4403.1 Z M 2664.7 4479.1 C 2533 4503 2397.3 4515.6 2258.6 4515.6 C 2120 4515.6 1984.3 4503 1852.5 4479.1 Z"/>
            <path fill="#000000" fill-rule="evenodd" stroke="none" d="M 2258 0 C 3504.9 0 4515.8 1010.8 4515.8 2257.8 C 4515.8 2272 4515.5 2286.1 4515.2 2300.2 L 4356.5 2141.6 C 4296.2 1034.8 3379.8 156 2258 156 C 1135.8 156 219.09999 1035.4 159.4 2142.7 L 0.8 2301.3 C 0.5 2286.8 0.2 2272.3 0.2 2257.8 C 0.2 1010.8 1011.1 0 2258 0 Z M 4453 2787.7 C 4214.6 3778.9 3322.4 4515.5 2258 4515.5 C 1194.1 4515.5 302.3 3779.6 63.3 2789.1 L 301.6 3027.4 C 608.7 3807.5 1368.9 4359.6 2258 4359.6 C 3147.7998 4359.6 3908.4 3806.7 4215 3025.6997 Z"/>
            <path fill="#cc9933" fill-rule="evenodd" stroke="none" d="M 2095.4 3706.2 Q 2085.6 3709 2075.8 3711.7 C 1862.5 3769 1649 3769.4001 1435.1 3712.8003 C 1221.1 3656.2 1035.4 3549.1 878.1 3391.8 L 0.3 2514 L 437 2077.3 L 1314.8 2955.1 C 1378.5999 3018.9 1449.5 3065.8 1527.6 3095.6 Q 1552 3147.4 1580.7 3196.9 Q 1670.6 3351.6 1800.4 3481.4 L 1800.8999 3481.4 Q 1930.5 3610.9 2083 3699.2 Q 2089.2 3702.7002 2095.4 3706.2 Z"/>
            <path fill="#cc9933" fill-rule="evenodd" stroke="none" d="M 2631.6 1638.4 C 2788.9 1795.7 2896.3 1980.9 2953.6 2194.2 C 3010.9 2407.4 3011.2998 2620.2 2954.8 2832.7 Q 2932.3003 2916.9 2899.3003 2995.4 Q 2836.6003 3011.8 2766 3011.5 Q 2663 3011.1 2574.9 2974.2 Q 2488.4 2938 2413.9 2863.4998 L 2413.7 2863.8 L 2405 2854.9 L 2405.1 2854.9 L 2403.5 2853.2 L 2402.6 2852 L 2402.5 2852.1 L 2399.7 2849.2 L 2397.1 2846.2 L 2397 2846.2998 L 2396.9 2846.2998 L 2396.7 2846.4 L 2396.6 2846.2998 L 2396.6 2846.2 L 2394.1 2843.3 L 2392.6 2841.8003 L 2390.1 2839.1 L 2390.3 2838.8 L 2387.8 2836 L 2387.7 2836.1 L 2386.4 2834.4 L 2386.4 2834.5002 C 2383 2830.6 2379.7 2826.4998 2376.4 2822.4998 L 2376.3 2822.6 L 2370.3 2815.1997 L 2370.4 2815.1997 L 2363.5 2806.1 C 2361.9 2804.5 2360.2 2801.8 2358.7 2800 L 2358 2799.2 L 2357.7 2798.8 L 2357.8 2798.6997 L 2357.6 2798.4 L 2357.1 2797.9 L 2355.1 2795 L 2353.6 2793.1 L 2353.9 2792.9 L 2353.7 2792.7 L 2352.7 2791.7 L 2348.6 2785.6 L 2348.5 2785.7002 L 2347.4 2783.9 L 2345.4 2781.1 L 2345.3 2781.2 L 2344.1 2779.3 L 2344.2 2779.2 L 2335.9 2766.2 L 2336 2766.2 L 2335.8 2765.6997 L 2335.3 2765.3 L 2335 2764.8 L 2334.8 2764.6 L 2334.6 2764.2 L 2334.5 2764.3 L 2334.3 2764 L 2334.5 2763.9 L 2328.8 2754.2 L 2328.4 2753.5 Q 2376.3 2641.7 2376.9 2510.7 Q 2377.5 2375.2 2327.4 2260.7 L 2329.4 2256 L 2297.6 2201.5 Q 2285.5 2180.7 2269.6 2158.5 Q 2241.7 2118.9 2206.5 2082.3 L 2203.4 2079.1 L 2202.2 2078 Q 2199.8 2075.5 2197.4 2073 L 2108.8 1984.3 L 2108.7 1984.4001 L 1731 1606.7 L 1319.3 1194.9 L 1753.7 760.5 L 2631.6 1638.4 Z"/>
            <path fill="#000000" fill-rule="evenodd" stroke="none" d="M 2345.8 1175.8 L 2762.3 759.4 L 3199 1196.1 L 2780.6 1614.5 Q 2751.4 1581.5 2719.9 1550 Z"/>
            <path fill="#000000" fill-rule="evenodd" stroke="none" d="M 3637.8997 3390.7 C 3480.6003 3548.1 3295.3 3655.5 3082.1 3712.8003 C 2868.9 3770.0999 2656.1 3770.5 2443.6 3714 C 2231.1 3657.3 2046.1998 3550.4 1888.8002 3393.1 C 1730 3234.2 1622 3048.2 1564.5999 2834.9 L 1564.2 2833.6 L 1563.9 2832.3 L 1563.5 2831 L 1563.2 2829.7 L 1562.8002 2828.3997 L 1562.5 2827 L 1562.2 2825.7 L 1561.9 2825 L 1561.8 2824.5 L 1561.3999 2823.1 L 1561.1 2821.8 L 1560.7999 2820.5 L 1560.4 2819.1997 L 1560.1001 2817.9 L 1559.8 2816.6 L 1559.3999 2815.1997 L 1559.3 2814.9 L 1559.1 2813.9 L 1558.7999 2812.6 L 1558.4 2811.3 L 1558.1001 2810 L 1557.8 2808.7 L 1557.5001 2807.4001 L 1557.2 2806 L 1556.7999 2804.9 L 1556.7999 2804.7 L 1556.5 2803.5 L 1556.2 2802.1 L 1555.9 2800.7998 L 1555.6 2799.5 L 1555.3 2798.1 L 1554.9001 2796.7998 L 1554.6 2795.5999 L 1554.5 2795 L 1554.4 2794.2002 L 1554 2792.9 L 1553.7 2791.5999 L 1553.4 2790.1997 L 1553.1 2789 L 1552.8 2787.7 L 1552.5 2786.3 L 1552.2 2785 L 1552.2 2784.9 L 1552 2783.7 L 1551.6 2782.4 L 1551.4 2781.1 L 1551 2779.8003 L 1550.8 2778.4001 L 1550.5 2777.1 L 1550.2001 2775.7998 L 1550 2775 L 1549.9 2774.5 L 1549.6 2773.2002 L 1549.3 2771.9 L 1549 2770.5999 L 1548.8 2769.2002 L 1548.5 2767.9 L 1548.2001 2766.7 L 1547.8 2765 L 1547.6 2764 L 1547.4 2762.7 L 1546.8 2760.1 L 1546.6 2758.8003 L 1546.3002 2757.4 L 1545.7 2754.9 L 1545.7 2754.8003 L 1545.4999 2753.5 L 1545.2 2752.2 L 1545 2750.9 C 1507.4001 2564.9 1512.7 2381.4 1563.5 2194.2 C 1601.7 2049.8 1662.9 1918.1998 1747.1 1799.5 L 2108.7 2161.2 L 2109 2160.9 Q 2157.7 2209.8 2189.7 2264.5 C 2157.1 2340.1 2141 2422.5 2141.4 2511.9 C 2141.7 2597.8 2157.3 2677.4 2188.2 2750.9 L 2189.6 2754.3 L 2190.8 2757.1997 L 2191.1 2757.7 L 2192.6 2761.1 L 2193.9 2764 L 2194.1 2764.4998 L 2195.6 2767.9 L 2197 2770.8 L 2197.2 2771.3003 L 2198.8 2774.6003 L 2200.1 2777.5 L 2200.4 2778 L 2202 2781.4 L 2203.4 2784.2998 L 2203.7 2784.7 L 2205.3 2788.1 L 2206.8 2790.9001 L 2207 2791.3997 L 2208.8 2794.6997 L 2210.2 2797.6 L 2210.5 2798 L 2212.2 2801.3 L 2213.8 2804.2 L 2214 2804.6 L 2215.8 2807.8997 L 2217.4 2810.8 L 2217.6 2811.1997 L 2219.5 2814.4 L 2221.1 2817.2 L 2221.4 2817.7 L 2223.3 2820.9 L 2225 2823.8 L 2225.2 2824.1003 L 2227.1 2827.4 L 2228.9 2830.2 L 2229.1 2830.6 L 2231.1 2833.7998 L 2232.8 2836.7 L 2233.1 2837 L 2235.1 2840.1997 L 2236.9 2843.1 L 2237.2 2843.3 L 2239.2 2846.6 L 2241.1 2849.3997 L 2241.3 2849.7 L 2243.4 2852.9001 L 2245.4 2855.7 L 2245.6 2856 L 2247.7 2859.1 L 2249.7 2862 L 2249.9 2862.3003 L 2252.1 2865.3 L 2254.1 2868.2002 L 2254.3 2868.5 L 2256.5 2871.6 L 2258.7 2874.5 L 2258.8 2874.6 L 2261.1 2877.7 L 2263.2 2880.6 L 2263.4 2880.8 L 2265.7 2883.9 L 2268 2886.8003 L 2268.1 2886.9 L 2270.5 2890 L 2272.7 2892.8 L 2272.9 2893 L 2275.3 2896.1 L 2277.6 2898.8997 L 2277.8 2899.1 L 2280.2 2902.1 L 2282.6 2905 L 2282.7 2905.1 L 2285.3 2908.1 L 2287.7 2910.9001 L 2287.8 2911 L 2290.3 2914 L 2292.8 2916.9 L 2292.9 2917 L 2295.5 2920 L 2298.1 2922.8 L 2298.1 2922.9001 L 2300.8 2925.8 L 2303.4 2928.7 L 2303.5 2928.7998 L 2306.1 2931.7 L 2308.8 2934.5 L 2308.8 2934.6 L 2311.6 2937.5002 L 2314.2 2940.3997 L 2314.3 2940.3997 L 2317.1 2943.3 L 2319.9 2946.2 L 2325.5 2951.9001 C 2447.6 3073.9 2594.3 3135.2998 2765.5 3136.1 C 2936.7998 3136.8 3082.9 3076.8003 3203.5 2956.3 L 4081.3 2078.4 L 4515.8 2512.9 L 3637.8997 3390.7 Z"/>
        </g>
    </g>
</svg>
