<svg width="480" height="480" xmlns="http://www.w3.org/2000/svg">
    <defs>
        <linearGradient id="paint0_linear-859765" x1="240" y1="0" x2="240" y2="701.818" gradientUnits="userSpaceOnUse">
            <stop offset="0" stop-color="#08021e"/>
            <stop offset="1" stop-color="#1f0777"/>
        </linearGradient>
        <mask id="mask0-863483" mask-type="alpha" maskUnits="userSpaceOnUse" x="0" y="0" width="480" height="480">
            <path fill="url(#paint0_linear-859765)" stroke="none" d="M 480 240 C 480 372.5483 372.5483 480 240 480 C 107.45166 480 0 372.5483 0 240 C -0 107.45166 107.45166 0 240 0 C 372.5483 0 480 107.45166 480 240 Z"/>
        </mask>
    </defs>
    <g mask="url(#mask0-863483)">
        <path fill="#31d8a4" stroke="none" d="M 480 240 C 480 372.5483 372.5483 480 240 480 C 107.45166 480 0 372.5483 0 240 C -0 107.45166 107.45166 0 240 0 C 372.5483 0 480 107.45166 480 240 Z"/>
        <path fill="#ffffff" stroke="none" d="M 448 240 C 448 354.8752 354.8752 448 240 448 C 125.12477 448 32 354.8752 32 240 C 32 125.12477 125.12477 32 240 32 C 354.8752 32 448 125.12477 448 240 Z"/>
    </g>
    <path fill="#0e052f" stroke="none" d="M 424 240 C 424 341.6204 341.6204 424 240 424 C 138.37961 424 56 341.6204 56 240 C 56 138.37961 138.37961 56 240 56 C 341.6204 56 424 138.37961 424 240 Z"/>
    <path fill="#f7931a" stroke="none" d="M 240 440 C 350.457 440 440 350.457 440 240 C 440 129.543 350.457 40 240 40 C 129.543 40 40 129.543 40 240 C 40 350.457 129.543 440 240 440 Z"/>
    <path fill="#ffffff" stroke="none" d="M 329.865 215.25 C 333.79 189.05 313.828 174.963 286.553 165.562 L 295.403 130.062 L 273.803 124.688 L 265.178 159.25 C 259.503 157.825 253.678 156.5 247.86499 155.175 L 256.553 120.388 L 234.95302 115 L 226.10298 150.487 C 221.403 149.412 216.778 148.363 212.303 147.238 L 212.328 147.125 L 182.528 139.688 L 176.778 162.763 C 176.778 162.763 192.815 166.438 192.478 166.663 C 201.228 168.85 202.803 174.638 202.54 179.238 L 192.465 219.67502 C 193.065 219.82498 193.84001 220.05 194.715 220.387 L 192.428 219.82498 L 178.303 276.475 C 177.228 279.125 174.515 283.112 168.39 281.6 C 168.615 281.912 152.69 277.688 152.69 277.688 L 141.965 302.413 L 170.09 309.425 C 175.315 310.738 180.44 312.113 185.478 313.4 L 176.54 349.3 L 198.128 354.675 L 206.97801 319.175 C 212.878 320.762 218.60298 322.238 224.203 323.637 L 215.378 358.987 L 236.978 364.362 L 245.915 328.538 C 282.765 335.512 310.465 332.7 322.128 299.375 C 331.528 272.55 321.665 257.063 302.278 246.97499 C 316.403 243.725 327.028 234.438 329.865 215.25 Z M 280.49 284.475 C 273.828 311.313 228.63998 296.8 213.99 293.163 L 225.865 245.6 C 240.51498 249.262 287.478 256.5 280.49 284.475 Z M 287.178 214.863 C 281.09 239.275 243.48999 226.863 231.30298 223.825 L 242.053 180.7 C 254.24 183.737 293.528 189.40001 287.178 214.863 Z"/>
</svg>
