<svg width="256" height="256" xmlns="http://www.w3.org/2000/svg">
    <path fill="#ffffff" stroke="#0052ff" stroke-width="22.946" d="M 244.52701 128 C 244.52701 192.356 192.356 244.52701 128 244.52701 C 63.643906 244.52701 11.473 192.356 11.473 128 C 11.473 63.643906 63.643906 11.473 128 11.473 C 192.356 11.473 244.52701 63.643906 244.52701 128 Z"/>
    <path fill="#0052ff" stroke="none" d="M 127.97499 31.999002 L 127.97499 100.017 L 183.952 125.705 L 127.97499 31.999002 Z"/>
    <path fill="#6697ff" stroke="none" d="M 127.983 31.999002 L 71.998 125.705 L 127.983 100.017 L 127.983 31.999002 Z"/>
    <path fill="#0052ff" stroke="none" d="M 127.97499 169.782 L 127.97499 215.999 L 183.99 136.41 L 127.97499 169.782 Z"/>
    <path fill="#6697ff" stroke="none" d="M 127.983 215.999 L 127.983 169.775 L 71.998 136.41 L 127.983 215.999 Z"/>
    <path fill="#6697ff" stroke="none" d="M 127.97499 159.084 L 183.952 125.703995 L 127.97499 100.03001 L 127.97499 159.084 Z"/>
    <path fill="#ccdcff" stroke="none" d="M 71.998 125.703995 L 127.983 159.084 L 127.983 100.03001 L 71.998 125.703995 Z"/>
</svg>
