<svg width="256" height="256" xmlns="http://www.w3.org/2000/svg">
    <g transform="matrix(1.0158731 0 0 1.0158731 0 0)">
        <g id="Page-1">
            <g id="FOX-Token-svg">
                <path id="Oval" fill="#3972fa" stroke="none" d="M 251.86667 126 C 251.86667 195.51425 195.51425 251.86667 126 251.86667 C 56.48576 251.86667 0.1333313 195.51425 0.1333313 126 C 0.1333313 56.48576 56.48576 0.1333313 126 0.1333313 C 195.51425 0.1333313 251.86667 56.48576 251.86667 126 Z"/>
                <path id="Fill-1" fill="#ffffff" stroke="none" d="M 181.03998 73.94325 L 175.06667 111.48992 L 152.88 85.04512 L 181.03998 73.94325 Z M 175.06667 127.711784 L 180.18666 148.18326 L 137.52 160.13846 L 175.06667 127.711784 Z M 82.90667 117.47179 L 105.94668 87.60512 L 145.2 87.60512 L 170.8 117.47179 L 82.90667 117.47179 Z M 167.38667 124.28992 L 126.42667 160.13846 L 84.613335 124.28992 L 167.38667 124.28992 Z M 98.26668 85.04512 L 77.78667 111.48992 L 71.81333 73.94325 L 98.26668 85.04512 Z M 114.48 159.27658 L 71.81333 147.33846 L 77.78667 127.711784 L 114.48 159.27658 Z M 122.16 169.51659 L 114.48 178.04993 C 107.653336 171.22325 99.973335 166.11179 92.293335 160.98325 L 122.16 169.51659 Z M 161.41333 160.98325 C 153.73334 166.11179 146.05333 172.07658 139.22667 178.04993 L 130.69333 168.67178 L 161.41333 160.98325 Z M 190.42667 62.00512 L 146.05333 79.91659 L 104.24 79.91659 L 61.573334 62.00512 L 70.96 120.023254 L 61.573334 151.60512 L 85.46667 166.11179 C 96.56 172.93845 106.8 181.47179 116.18667 191.71179 L 125.57333 202.8051 L 135.81334 191.71179 C 144.34666 182.31659 154.58667 173.78325 164.82666 166.95659 L 188.72 152.44992 L 180.18666 120.87659 L 190.42667 62.00512 Z"/>
            </g>
        </g>
    </g>
</svg>
