<svg width="250" height="250" xmlns="http://www.w3.org/2000/svg">
    <defs>
        <linearGradient id="c" x1="-1.089" y1="249.534" x2="249.534" y2="2" gradientUnits="userSpaceOnUse">
            <stop offset="0" stop-color="#ffd275"/>
            <stop offset="0.132" stop-color="#feca74"/>
            <stop offset="0.358" stop-color="#fbb570"/>
            <stop offset="0.652" stop-color="#f79569"/>
            <stop offset="1" stop-color="#f2665f"/>
        </linearGradient>
        <filter id="a" x="0" y="0" width="250" height="250" filterUnits="userSpaceOnUse">
            <feColorMatrix color-interpolation-filters="linearRGB" in="SourceGraphic" result="result1" type="matrix" values="0 0 0 0 1 0 0 0 0 1 0 0 0 0 1 0 0 0 1 0"/>
        </filter>
        <clipPath id="b">
            <path fill="#000000" stroke="none" d="M 250.37102 125.184 C 250.37102 194.324 194.324 250.37102 125.184 250.37102 C 56.047 250.37102 0 194.324 0 125.184 C 0 56.047 56.047 0 125.184 0 C 194.324 0 250.37102 56.047 250.37102 125.184 Z M 250.37102 125.184"/>
        </clipPath>
        <clipPath id="d">
            <path fill="#000000" stroke="none" d="M 30 46 L 66 46 L 66 91 L 30 91 Z M 30 46"/>
        </clipPath>
        <clipPath id="e">
            <path fill="#000000" stroke="none" d="M 250.37102 125.184 C 250.37102 194.324 194.324 250.37102 125.184 250.37102 C 56.047 250.37102 0 194.324 0 125.184 C 0 56.047 56.047 0 125.184 0 C 194.324 0 250.37102 56.047 250.37102 125.184 Z M 250.37102 125.184"/>
        </clipPath>
        <clipPath id="f">
            <path fill="#000000" stroke="none" d="M 34 0 L 61 0 L 61 31 L 34 31 Z M 34 0"/>
        </clipPath>
        <clipPath id="g">
            <path fill="#000000" stroke="none" d="M 250.37102 125.184 C 250.37102 194.324 194.324 250.37102 125.184 250.37102 C 56.047 250.37102 0 194.324 0 125.184 C 0 56.047 56.047 0 125.184 0 C 194.324 0 250.37102 56.047 250.37102 125.184 Z M 250.37102 125.184"/>
        </clipPath>
        <clipPath id="h">
            <path fill="#000000" stroke="none" d="M 65 2 L 137 2 L 137 44 L 65 44 Z M 65 2"/>
        </clipPath>
        <clipPath id="i">
            <path fill="#000000" stroke="none" d="M 250.37102 125.184 C 250.37102 194.324 194.324 250.37102 125.184 250.37102 C 56.047 250.37102 0 194.324 0 125.184 C 0 56.047 56.047 0 125.184 0 C 194.324 0 250.37102 56.047 250.37102 125.184 Z M 250.37102 125.184"/>
        </clipPath>
        <clipPath id="j">
            <path fill="#000000" stroke="none" d="M 169 39 L 209 39 L 209 122 L 169 122 Z M 169 39"/>
        </clipPath>
        <clipPath id="k">
            <path fill="#000000" stroke="none" d="M 250.37102 125.184 C 250.37102 194.324 194.324 250.37102 125.184 250.37102 C 56.047 250.37102 0 194.324 0 125.184 C 0 56.047 56.047 0 125.184 0 C 194.324 0 250.37102 56.047 250.37102 125.184 Z M 250.37102 125.184"/>
        </clipPath>
        <clipPath id="l">
            <path fill="#000000" stroke="none" d="M 139 90 L 162 90 L 162 126 L 139 126 Z M 139 90"/>
        </clipPath>
        <clipPath id="m">
            <path fill="#000000" stroke="none" d="M 250.37102 125.184 C 250.37102 194.324 194.324 250.37102 125.184 250.37102 C 56.047 250.37102 0 194.324 0 125.184 C 0 56.047 56.047 0 125.184 0 C 194.324 0 250.37102 56.047 250.37102 125.184 Z M 250.37102 125.184"/>
        </clipPath>
        <clipPath id="n">
            <path fill="#000000" stroke="none" d="M 120 142 L 137 142 L 137 171 L 120 171 Z M 120 142"/>
        </clipPath>
        <clipPath id="o">
            <path fill="#000000" stroke="none" d="M 250.37102 125.184 C 250.37102 194.324 194.324 250.37102 125.184 250.37102 C 56.047 250.37102 0 194.324 0 125.184 C 0 56.047 56.047 0 125.184 0 C 194.324 0 250.37102 56.047 250.37102 125.184 Z M 250.37102 125.184"/>
        </clipPath>
        <clipPath id="p">
            <path fill="#000000" stroke="none" d="M 144 172 L 162 172 L 162 199 L 144 199 Z M 144 172"/>
        </clipPath>
        <clipPath id="q">
            <path fill="#000000" stroke="none" d="M 250.37102 125.184 C 250.37102 194.324 194.324 250.37102 125.184 250.37102 C 56.047 250.37102 0 194.324 0 125.184 C 0 56.047 56.047 0 125.184 0 C 194.324 0 250.37102 56.047 250.37102 125.184 Z M 250.37102 125.184"/>
        </clipPath>
        <clipPath id="r">
            <path fill="#000000" stroke="none" d="M 161 200 L 187 200 L 187 243 L 161 243 Z M 161 200"/>
        </clipPath>
        <clipPath id="s">
            <path fill="#000000" stroke="none" d="M 250.37102 125.184 C 250.37102 194.324 194.324 250.37102 125.184 250.37102 C 56.047 250.37102 0 194.324 0 125.184 C 0 56.047 56.047 0 125.184 0 C 194.324 0 250.37102 56.047 250.37102 125.184 Z M 250.37102 125.184"/>
        </clipPath>
        <clipPath id="t">
            <path fill="#000000" stroke="none" d="M 0 170 L 95 170 L 95 250 L 0 250 Z M 0 170"/>
        </clipPath>
        <clipPath id="u">
            <path fill="#000000" stroke="none" d="M 250.37102 125.184 C 250.37102 194.324 194.324 250.37102 125.184 250.37102 C 56.047 250.37102 0 194.324 0 125.184 C 0 56.047 56.047 0 125.184 0 C 194.324 0 250.37102 56.047 250.37102 125.184 Z M 250.37102 125.184"/>
        </clipPath>
        <clipPath id="v">
            <path fill="#000000" stroke="none" d="M 250.37102 125.184 C 250.37102 194.324 194.324 250.37102 125.184 250.37102 C 56.047 250.37102 0 194.324 0 125.184 C 0 56.047 56.047 0 125.184 0 C 194.324 0 250.37102 56.047 250.37102 125.184 Z M 250.37102 125.184"/>
        </clipPath>
        <clipPath id="w">
            <path fill="#000000" stroke="none" d="M 0 0 L 250 0 L 250 250 L 0 250 Z"/>
        </clipPath>
        <mask id="x" maskUnits="userSpaceOnUse" x="-34.759598" y="-34.757202" width="319.89117" height="319.86243">
            <g filter="url(#a)">
                <path fill="#000000" fill-opacity="0.7" stroke="none" d="M 0 0 L 250 0 L 250 250 L 0 250 Z"/>
            </g>
        </mask>
    </defs>
    <g clip-path="url(#b)">
        <path fill="url(#c)" stroke="none" d="M 0 0 L 250 0 L 250 250 L 0 250 Z"/>
        <path fill="url(#c)" stroke="none" d="M 0 0 L 250 0 L 250 250 L 0 250 Z"/>
    </g>
    <g clip-path="url(#d)">
        <g clip-path="url(#e)">
            <path fill="#f8a171" stroke="none" d="M 63.194996 90.254 L 33.566 90.254 C 32.033413 90.25016 30.791492 89.00958 30.786 87.477005 L 30.786 48.89 C 30.78875 47.355465 32.031467 46.11185 33.566 46.108 L 63.196003 46.108 C 64.72936 46.1135 65.97026 47.356632 65.973 48.89 L 65.973 87.476 C 65.968056 89.00803 64.727036 90.24861 63.194996 90.253 Z M 63.194996 90.254"/>
        </g>
    </g>
    <g clip-path="url(#f)">
        <g clip-path="url(#g)">
            <path fill="#faaa71" stroke="none" d="M 57.34 30.832 L 37.594 30.832 C 36.061966 30.827606 34.820942 29.58703 34.816 28.054998 L 34.816 0.973 C 34.820393 -0.55942327 36.061577 -1.8006059 37.594 -1.805 L 57.34 -1.805 C 58.872032 -1.8000572 60.11261 -0.5590344 60.117 0.973 L 60.117 28.054998 C 60.11206 29.586645 58.871643 30.827063 57.34 30.832 Z M 57.34 30.832"/>
        </g>
    </g>
    <g clip-path="url(#h)">
        <g clip-path="url(#i)">
            <path fill="#f9a471" stroke="none" d="M 133.566 43.797 L 68.75 43.797 C 67.21835 43.79206 65.97794 42.551643 65.973 41.02 L 65.973 5.602 C 65.977394 4.0699654 67.217964 2.8289428 68.75 2.824 L 133.566 2.824 C 135.09842 2.8283942 136.3396 4.0695767 136.344 5.602 L 136.344 41.02 C 136.34587 41.75725 136.05376 42.46483 135.53235 42.98605 C 135.01093 43.50727 134.30325 43.799133 133.566 43.797 Z M 133.566 43.797"/>
        </g>
    </g>
    <g clip-path="url(#j)">
        <g clip-path="url(#k)">
            <path fill="#f7956b" stroke="none" d="M 205.484 121.574 L 171.828 121.574 C 170.29636 121.56906 169.05594 120.32864 169.051 118.797 L 169.051 41.945 C 169.05594 40.413357 170.29636 39.17294 171.828 39.168 L 205.46501 39.168 C 206.99664 39.17294 208.23706 40.413357 208.24202 41.945 L 208.24202 118.797 C 208.26602 120.32399 207.01599 121.574 205.484 121.574 Z M 205.484 121.574"/>
        </g>
    </g>
    <g clip-path="url(#l)">
        <g clip-path="url(#m)">
            <path fill="#faab72" stroke="none" d="M 158.266 125.277 L 142.523 125.277 C 140.99136 125.27206 139.75095 124.031654 139.746 122.50001 L 139.746 93.496 C 139.75095 91.964355 140.99136 90.723946 142.523 90.71901 L 158.266 90.71901 C 159.79764 90.723946 161.03806 91.964355 161.043 93.496 L 161.043 122.50001 C 161.03806 124.031654 159.79764 125.27206 158.266 125.277 Z M 158.266 125.277"/>
        </g>
    </g>
    <g clip-path="url(#n)">
        <g clip-path="url(#o)">
            <path fill="#f9a571" stroke="none" d="M 133.566 170.184 L 123.078 170.184 C 121.54597 170.17906 120.30539 168.93803 120.301 167.406 L 120.301 144.883 C 120.30539 143.35097 121.54597 142.10994 123.078 142.105 L 133.566 142.105 C 135.09842 142.10939 136.3396 143.35057 136.344 144.883 L 136.344 167.406 C 136.3396 168.93843 135.09842 170.17961 133.566 170.184 Z M 133.566 170.184"/>
        </g>
    </g>
    <g clip-path="url(#p)">
        <g clip-path="url(#q)">
            <path fill="#fbb171" stroke="none" d="M 158.266 198.75 L 146.852 198.75 C 145.31996 198.7456 144.07895 197.50505 144.074 195.97299 L 144.074 175.29999 C 144.0784 173.76758 145.31958 172.52641 146.852 172.522 L 158.266 172.522 C 159.79803 172.52695 161.0386 173.76796 161.043 175.29999 L 161.043 195.972 C 161.03806 197.50365 159.79764 198.74406 158.266 198.749 Z M 158.266 198.75"/>
        </g>
    </g>
    <g clip-path="url(#r)">
        <g clip-path="url(#s)">
            <path fill="#f89e71" stroke="none" d="M 163.82 200.277 L 184.191 200.277 C 185.72342 200.2814 186.9646 201.52258 186.96898 203.05501 L 186.96898 240.09401 C 186.96405 241.62604 185.72304 242.86661 184.191 242.871 L 163.821 242.871 C 162.28897 242.86661 161.04794 241.62604 161.043 240.09401 L 161.043 203.054 C 161.043 201.551 162.293 200.277 163.82 200.277 Z M 163.82 200.277"/>
        </g>
    </g>
    <g clip-path="url(#t)">
        <g clip-path="url(#u)">
            <path fill="#fcbb71" stroke="none" d="M -0.695 249.81601 L 91.273 249.81601 C 92.80598 249.81105 94.04716 248.56897 94.051 247.03598 L 94.051 172.96498 C 94.04771 171.43163 92.806366 170.18895 91.273 170.184 L -0.695 170.184 C -2.227974 170.18895 -3.4691577 171.43103 -3.473 172.964 L -3.473 247.035 C -3.4697068 248.56837 -2.2283633 249.81105 -0.695 249.81601 Z M -0.695 249.81601"/>
        </g>
    </g>
    <path fill="#ffd48a" stroke="none" d="M 125.184 11.574 C 140.531 11.574 155.394 14.582 169.398 20.484 C 182.918 26.204 195.07 34.398 205.508 44.840004 C 215.949 55.277 224.145 67.43 229.859 80.95 C 235.785 94.953 238.773 109.816 238.773 125.16001 C 238.773 140.508 235.766 155.371 229.859 169.375 C 224.145 182.895 215.949 195.047 205.508 205.485 C 195.07 215.925 182.918 224.121 169.398 229.84 C 155.395 235.766 140.531 238.75 125.184 238.75 C 109.84 238.75 94.97699 235.742 80.973 229.84 C 67.453 224.121 55.301 215.92598 44.859 205.484 C 34.422 195.047 26.227001 182.894 20.508 169.375 C 14.582 155.395 11.574 140.508 11.574 125.184 C 11.574 109.859 14.582 94.97699 20.484 80.973 C 26.204 67.453 34.398 55.301 44.840004 44.859 C 55.277 34.422 67.43 26.227001 80.95 20.508 C 94.953 14.582 109.84 11.574 125.184 11.574 M 125.184 0 C 56.043 0 0 56.043 0 125.184 C 0 194.328 56.043 250.36998 125.184 250.36998 C 194.328 250.36998 250.37102 194.327 250.37102 125.183 C 250.37102 56.043 194.30498 0 125.184 0 Z M 125.184 0"/>
    <g clip-path="url(#v)">
        <g clip-path="url(#w)" mask="url(#x)">
            <path fill="#f04b36" stroke="none" d="M 125.184 258.45 C 107.199 258.45 89.746 254.93001 73.309 247.965 C 57.429 241.25 43.194996 231.645 30.949 219.398 C 18.703 207.17598 9.098 192.918 2.383 177.058 C -4.559 160.625 -8.102 143.172 -8.102 125.184 C -8.102 107.199 -4.582 89.746 2.383 73.309 C 9.098 57.429 18.703 43.194996 30.949 30.949 C 43.194996 18.703 57.43 9.098 73.31 2.383 C 89.724 -4.582 107.177 -8.102 125.18499 -8.102 C 143.173 -8.102 160.626 -4.582 177.06 2.383 C 192.942 9.098 207.17702 18.703 219.423 30.949 C 231.669 43.194996 241.274 57.429 247.98502 73.309 C 254.931 89.746 258.474 107.199 258.474 125.184 C 258.474 143.172 254.95401 160.625 247.98502 177.059 C 241.27501 192.941 231.669 207.17598 219.423 219.422 C 207.17702 231.668 192.94301 241.273 177.06 247.98398 C 160.626 254.93001 143.173 258.449 125.18499 258.449 Z M 125.184 19.676 C 110.925995 19.676 97.129 22.453 84.121 27.965 C 71.551 33.285 60.277 40.879 50.577995 50.577995 C 40.879 60.277 33.266 71.551 27.965 84.121 C 22.453 97.104996 19.675 110.925995 19.675 125.184 C 19.675 139.445 22.453 153.242 27.965 166.25 C 33.285 178.82 40.879 190.094 50.577995 199.79301 C 60.277 209.492 71.551 217.105 84.121 222.406 C 97.104996 227.895 110.925995 230.696 125.184 230.696 C 139.445 230.696 153.242 227.91801 166.25 222.406 C 178.82 217.082 190.094 209.492 199.79301 199.79301 C 209.492 190.094 217.105 178.82 222.406 166.25 C 227.895 153.266 230.696 139.445 230.696 125.184 C 230.696 110.925995 227.91801 97.129 222.406 84.121 C 217.082 71.551 209.492 60.277 199.79301 50.577995 C 190.094 40.879 178.82 33.266 166.25 27.965 C 153.242 22.453 139.422 19.675 125.184 19.675 Z M 125.184 19.676"/>
        </g>
    </g>
    <path fill="#ffd48a" stroke="none" d="M 125.184 11.574 C 140.531 11.574 155.394 14.582 169.398 20.484 C 182.918 26.204 195.07 34.398 205.508 44.840004 C 215.949 55.277 224.145 67.43 229.859 80.95 C 235.785 94.953 238.773 109.816 238.773 125.16001 C 238.773 140.508 235.766 155.371 229.859 169.375 C 224.145 182.895 215.949 195.047 205.508 205.485 C 195.07 215.925 182.918 224.121 169.398 229.84 C 155.395 235.766 140.531 238.75 125.184 238.75 C 109.84 238.75 94.97699 235.742 80.973 229.84 C 67.453 224.121 55.301 215.92598 44.859 205.484 C 34.422 195.047 26.227001 182.894 20.508 169.375 C 14.582 155.395 11.574 140.508 11.574 125.184 C 11.574 109.859 14.582 94.97699 20.484 80.973 C 26.204 67.453 34.398 55.301 44.840004 44.859 C 55.277 34.422 67.43 26.227001 80.95 20.508 C 94.953 14.582 109.84 11.574 125.184 11.574 M 125.184 0 C 56.043 0 0 56.043 0 125.184 C 0 194.328 56.043 250.36998 125.184 250.36998 C 194.328 250.36998 250.37102 194.327 250.37102 125.183 C 250.37102 56.043 194.30498 0 125.184 0 Z M 125.184 0"/>
    <path fill="#fe8c2c" stroke="none" d="M 98.19499 148.91 C 99.629 150.324 101.04299 151.734 102.477 153.148 C 103.355 154.004 103.60901 154.028 104.445 153.148 C 106.227 151.32 108.031 149.516 109.816 147.684 C 110.141 147.34 110.441 147.223 110.90199 147.383 C 114.004 148.473 117.199005 148.566 120.418 148.219 C 121.66801 148.079 121.691 148.079 121.781006 149.422 C 120.742004 149.516 119.723 149.652 118.703 149.722 C 117.965 149.77 117.199005 149.746 116.457 149.746 L 115.578 149.746 C 114.328 149.469 113.05499 149.234 111.805 148.867 C 111.133 148.657 110.672 148.75 110.184 149.281 C 108.44366 151.11333 106.684235 152.92743 104.90599 154.723 C 104.215 155.418 103.91 155.418 103.196 154.723 C 101.715 153.243 100.184006 151.758 98.75 150.23 C 98.473 149.86 98.379 149.328 98.19499 148.91 Z M 98.19499 148.91"/>
    <g>
        <path fill="#fefefe" stroke="none" d="M 51.593998 200.68 C 51.40007 200.57088 51.22038 200.43822 51.059002 200.285 C 50.203 199.383 49.324 198.504 48.469 197.57799 C 48.375 197.46501 48.305 197.324 48.234 197.184 L 50.828003 194.73001 L 53.375 192.34802 L 57.219 188.734 C 57.473 188.52701 57.75 188.32 58.004005 188.09 C 60.04751 186.18993 62.085186 184.28358 64.117 182.371 L 82.934 164.801 C 86.454 161.516 89.973 158.203 93.512 154.918 C 94.254 154.223 95.132 154.246 95.852005 154.984 C 96.199 155.332 96.522995 155.727 96.871994 156.098 C 97.586 156.883 97.586 157.672 96.824005 158.41 C 96.12477 159.08508 95.415016 159.74916 94.69501 160.402 C 91.316 163.551 87.934006 166.699 84.578 169.848 C 79.672 174.42998 74.762 179.03502 69.832 183.621 C 67.172 186.12102 64.508 188.598 61.847996 191.09799 C 61.453 191.46802 61.105 191.883 60.758 192.278 L 56.336 196.28099 L 53.93 198.527 Z M 58.120995 206.676 L 54.577995 203.41 L 56.73 201.328 L 59.07 199.15198 L 63.145 195.355 C 63.281 195.242 63.445004 195.148 63.559 195.031 C 65.645 193.08998 67.727 191.145 69.809 189.176 L 85.387 174.594 C 87.38326 172.71555 89.38997 170.84816 91.407005 168.992 C 92.147995 168.297 93.027 168.344 93.747 169.105 C 94 169.383 94.23 169.641 94.461 169.918 C 95.55101 171.051 95.55101 171.699 94.418 172.766 C 89.785 177.094 85.18 181.446 80.551 185.773 C 78.953 187.253 77.355 188.71498 75.781 190.219 C 74.20116 191.70883 72.627144 193.20486 71.059 194.707 L 66.848 198.621 L 63.953 201.351 L 62.355 202.855 L 61.43 203.66801 L 59.672 205.285 Z M 42.242 190.10199 L 43.746 188.504 L 44.417995 187.97299 L 46.269997 186.191 L 48.168 184.40602 C 48.398 184.27 48.605 184.106 48.793 183.946 C 49.648 183.109 50.503 182.254 51.336 181.422 L 52.449005 180.33199 C 52.726997 180.172 52.98 180.008 53.211 179.80098 C 54.508 178.598 55.781 177.39499 57.078 176.191 C 59.159996 174.223 61.246 172.254 63.328 170.285 C 64.23 169.477 65.133 168.668 66.012 167.832 C 69.137 164.918 72.262 161.953 75.41 159.035 C 76.477 158.043 77.61 157.094 78.7 156.121 C 79.441 156.004 80.02 156.281 80.504 156.816 C 80.734 157.094 80.992 157.348 81.223 157.625 C 82.172 158.715 82.148 159.34 81.082 160.332 C 79.996 161.352 78.882 162.372 77.797 163.391 C 72.52016 168.32208 67.24915 173.25943 61.984 178.20302 C 60.387 179.683 58.793 181.145 57.219 182.625 C 56.316 183.48 55.456997 184.359 54.554996 185.219 C 54.137 185.56601 53.723 185.891 53.328 186.258 C 52.473 187.07 51.618 187.902 50.758 188.734 L 48.144997 191.144 L 45.250004 193.781 C 44.577995 193.02 43.883 192.254 43.234 191.469 C 42.867 191.07399 42.566 190.566 42.242 190.10199 Z M 99.117 148.805 C 98.468994 147.809 98.44501 147.785 99.27701 146.816 C 100.71099 145.125 102.19499 143.48 103.652 141.816 C 103.882 141.536 104.07 141.305 103.836 140.934 C 102.426 138.714 101.941 136.234 101.941 133.621 C 101.941 133.574 101.941 133.527 101.91801 133.481 C 102.031 132.465 102.031 132.465 101.128 132.161 C 98.051 131.145 94.973 130.125 91.895 129.105 C 90.11553 128.53258 88.33284 127.97023 86.547 127.418 C 85.668 126.746 85.645 126.492 86.359 125.68001 C 89.949 121.629 93.535 117.578 97.172 113.527 C 97.52 113.133 98.074 112.879 98.559 112.695 C 99.324 112.418 100.109 112.25399 100.899 112.047005 C 100.992 112.023 101.082 112.023 101.176 112 C 105.203 111.02701 109.23001 110.078 113.234 109.104996 C 113.4125 109.059494 113.57399 108.96329 113.699 108.828 C 114.71901 107.67199 115.73401 106.492 116.754005 105.308 C 119.27701 102.418 121.894 99.594 124.832 97.094 C 126.754 95.449 128.676 93.804 130.598 92.184006 C 131.824 91.281 133.004 90.379 134.23 89.477 C 139.441 85.68 144.902 82.371 150.805 79.777 C 152.797 78.898 154.855 78.157 156.895 77.324 C 157.031 77.301 157.148 77.277 157.285 77.23 C 161.37737 75.86761 165.60939 74.96767 169.902 74.547 C 170.043 74.547 170.18 74.57 170.32 74.57 C 172.426 74.617 174.531 74.617 176.637 74.707 C 177.867 74.777 177.867 74.871 178.191 76.215 C 178.351 79.105 178.191 82.023 177.72699 84.871 C 176.359 92.832 173.28102 100.147995 169.137 107.023 C 162.473 118.109 153.953 127.602005 144.094 135.891 C 143.70372 136.19398 143.4394 136.6307 143.352 137.117 C 142.332 141.93 141.316 146.77 140.25 151.582 C 140.156 152 139.95 152.372 139.648 152.672 C 135.50252 156.40671 131.33577 160.11777 127.148 163.805 C 126.895004 164.015 126.477 164.015 126.105 164.129 C 125.87499 163.715 125.598 163.344 125.457 162.926 C 124.742004 160.844 124.07 158.758 123.375 156.652 C 122.609 154.246 121.825 151.816 121.059 149.406 C 121.03501 149.316 120.922 149.246 120.852 149.176 C 120.782 147.949 120.758 147.949 119.602005 148.066 C 116.637 148.391 113.699 148.296 110.828 147.301 C 110.38701 147.141 110.133 147.254 109.808 147.578 C 108.19101 149.27 106.523 150.934 104.878 152.625 C 104.094 153.434 103.85901 153.41 103.050995 152.625 C 101.72686 151.36491 100.41547 150.0915 99.117 148.805 Z M 132.497 117.578 L 132.633 117.766 C 132.703 117.926 132.82 118.066 132.933 118.203 C 135.574 120.77301 138.723 121.653 142.332 120.91001 C 143.699 120.633 144.972 120.077995 146.035 119.129 C 148.281 117.395 149.485 115.079 149.719 112.277 C 149.879 110.33199 149.602 108.434 148.535 106.723 C 148.492 106.605 148.445 106.516 148.398 106.422 C 144.648 100.125 135.32 100.172005 131.66 106.535 C 130.11 109.22301 129.879 112.07 130.992 115.008 C 131.5 115.868 131.984 116.72299 132.496 117.578 Z M 132.497 117.578"/>
    </g>
    <path fill="#fecaa8" stroke="none" d="M 145.945 119.2 C 144.879 120.147995 143.629 120.703 142.262 120.957 C 138.699 121.699 135.551 120.82 132.91 118.273 C 132.79808 118.134476 132.69774 117.98698 132.61 117.832 L 132.473 117.648 L 132.473 117.672 C 132.42151 117.4834 132.35873 117.298065 132.285 117.117 C 131.129 114.96499 130.922 112.695 131.684 110.379 C 132.165 108.93347 133.02899 107.64542 134.184 106.65199 C 136.524 104.617004 139.23 104.01599 142.195 104.801 C 143.746 105.219 145.043 106.098 146.152 107.30101 C 148.629 109.965 149.137 114.105 147.285 117.207 C 146.871 117.879 146.383 118.52699 145.945 119.199 Z M 145.945 119.2"/>
    <path fill="#fe7837" stroke="none" d="M 148.422 106.86 C 148.282 106.793 148.098 106.76999 148.004 106.65199 C 146.199 104.57 143.977 103.41 141.199 103.203 C 138.859 103.020004 136.754 103.598 134.902 104.965 C 132.566 106.675 131.152 108.969 131.012 111.906 C 130.969 112.856 131.082 113.828 131.105 114.77699 C 131.105 114.871 131.035 114.96499 130.992 115.055 C 129.855 112.14099 130.109 109.316 131.66 106.65199 C 135.297 100.332 144.578 100.284996 148.328 106.535 C 148.352 106.65199 148.398 106.746 148.422 106.859 Z M 148.422 106.86"/>
</svg>
