<svg width="256" height="256" xmlns="http://www.w3.org/2000/svg">
    <path fill="#ffffff" stroke="none" d="M 0 0 L 256 0 L 256 256 L 0 256 Z"/>
    <path fill="#002bff" stroke="none" d="M 139.588 117.978 L 139.263 117.79 L 116.48701 104.64 C 116.388 104.582 116.289 104.524 116.19 104.465 C 114.504 103.507996 112.551994 102.962006 110.475 102.962006 C 104.07101 102.962006 98.8799 108.154 98.8799 114.556 L 98.8799 141.238 C 98.8799 147.64 104.07 152.832 110.475 152.832 C 112.475006 152.832 114.355 152.322 115.998 151.43 C 116.053 151.401 116.102 151.375 116.15501 151.344 C 116.268 151.281 116.379005 151.219 116.486 151.153 L 139.297 137.979 L 139.588 137.811 C 142.934 135.778 145.169 132.098 145.169 127.895 C 145.169 123.69301 142.934 120.01599 139.588 117.978 Z"/>
    <path fill="#002bff" stroke="none" d="M 213.114 96.65301 C 211.72598 93.78801 209.486 91.425 206.697 89.90101 L 107.08999 32.393 C 106.785 32.209 106.480995 32.027 106.16 31.859001 C 103.99601 30.67 101.52601 30 98.874 30 C 96.29901 30 93.87499 30.64 91.741 31.769 C 91.451 31.920998 91.14701 32.104 90.872 32.272 L 69.945 44.358 L 49.093 56.384 C 48.805004 56.537003 48.499 56.72 48.225 56.886997 C 44.08 59.449 41.259 63.929 41 69.081 L 41 186.721 C 41.259 191.856 44.08 196.338 48.225 198.914 C 48.499 199.066 48.805004 199.248 49.093 199.41599 L 69.946 211.42801 L 90.87301 223.514 C 91.148 223.698 91.452 223.864 91.742 224.018 C 93.876 225.14499 96.3 225.786 98.875 225.786 C 101.527 225.786 103.997 225.11398 106.160995 223.942 C 106.480995 223.75798 106.78601 223.59 107.091 223.39302 L 206.698 165.899 C 209.48698 164.376 211.727 161.997 213.115 159.147 C 214.091 157.151 214.639 154.879 214.639 152.502 L 214.639 103.284 C 214.639 100.905 214.09 98.651 213.114 96.65301 Z M 210.249 130.461 L 210.234 130.461 L 198.375 137.303 L 186.715 144.043 L 97.823 195.361 L 86.223 202.03902 L 74.212 208.973 C 73.801 209.20299 73.343 209.34001 72.839 209.34001 C 71.239 209.34001 69.944 208.04301 69.944 206.428 L 69.944 49.358 C 69.944 47.756 71.239 46.462 72.839 46.462 C 73.343 46.462 73.801 46.599 74.212 46.813 L 86.223 53.747997 L 97.823 60.439 L 186.715 111.759 L 198.375 118.49501 L 210.234 125.34 L 210.249 125.34 C 211.148 125.843 211.758 126.80301 211.758 127.90001 C 211.758 128.998 211.149 129.957 210.249 130.461 Z"/>
</svg>
