<svg width="444.44" height="444.44" xmlns="http://www.w3.org/2000/svg">
    <g id="Layer_x0020_1">
        <path fill="#f5ac37" stroke="none" d="M 222.22 0 C 344.96 0 444.44 99.5 444.44 222.22 C 444.44 344.96 344.96 444.44 222.22 444.44 C 99.5 444.44 0 344.95 0 222.22 C 0 99.5 99.5 0 222.22 0 Z"/>
        <path fill="#fefefd" stroke="none" d="M 230.40999 237.90999 L 314.85 237.90999 C 316.65 237.90999 317.5 237.90999 317.63 235.55 C 318.32 226.96002 318.32 218.32002 317.63 209.71999 C 317.63 208.05002 316.8 207.36 314.99 207.36 L 146.94 207.36 C 144.86 207.36 144.3 208.05002 144.3 210 L 144.3 234.72002 C 144.3 237.90999 144.3 237.90999 147.63 237.90999 L 230.40999 237.90999 Z M 308.2 178.47002 C 308.44 177.84001 308.44 177.15 308.2 176.53 C 306.79 173.46 305.12 170.53 303.18 167.78 C 300.26 163.08 296.82 158.75 292.9 154.86 C 291.05 152.51 288.91 150.4 286.51 148.61 C 274.49 138.38 260.2 131.14 244.84 127.5 C 237.09 125.76 229.17 124.93 221.23 125 L 146.65 125 C 144.57 125 144.29 125.83 144.29 127.64 L 144.29 176.94002 C 144.29 179.02 144.29 179.58 146.93 179.58 L 307.2 179.58 C 307.2 179.58 308.59 179.3 308.87 178.47002 L 308.19 178.47002 Z M 308.2 266.8 C 305.84 266.54 303.46 266.54 301.1 266.8 L 147.08 266.8 C 145 266.8 144.3 266.8 144.3 269.58 L 144.3 317.78 C 144.3 320 144.3 320.56 147.08 320.56 L 218.19 320.56 C 221.59 320.82 224.99 320.58 228.32 319.87 C 238.64 319.13 248.79 316.89 258.47 313.2 C 261.99 311.98 265.39 310.39 268.6 308.48 L 269.57 308.48 C 286.24 299.81 299.78 286.19 308.32 269.47 C 308.32 269.47 309.29 267.37 308.2 266.82 Z M 116.39 345.55 L 116.39 344.72 L 116.39 312.36 L 116.39 301.39 L 116.39 268.75 C 116.39 266.94 116.39 266.67 114.17 266.67 L 84.03 266.67 C 82.36 266.67 81.67 266.67 81.67 264.45 L 81.67 238.06 L 113.89 238.06 C 115.69 238.06 116.39 238.06 116.39 235.7 L 116.39 209.59001 C 116.39 207.92 116.39 207.51 114.17 207.51 L 84.03 207.51 C 82.36 207.51 81.67 207.51 81.67 205.28998 L 81.67 180.85 C 81.67 179.32 81.67 178.91 83.89 178.91 L 113.74999 178.91 C 115.83001 178.91 116.39 178.91 116.39 176.27 L 116.39 101.41 C 116.39 99.19 116.39 98.63 119.17 98.63 L 223.33 98.63 C 230.89 98.93 238.4 99.76 245.83 101.13 C 261.14 103.96 275.85 109.42999 289.3 117.240005 C 298.22 122.49 306.43 128.83 313.74 136.13 C 319.24 141.84 324.2 148.02 328.6 154.6 C 332.97 161.27 336.6 168.4 339.45 175.85 C 339.8 177.79 341.66 179.09999 343.6 178.77 L 368.46 178.77 C 371.65 178.77 371.65 178.77 371.79004 181.83 L 371.79004 204.61 C 371.79004 206.83 370.95996 207.39 368.73004 207.39 L 349.56 207.39 C 347.62 207.39 347.05997 207.39 347.2 209.89 C 347.96 218.34999 347.96 226.84 347.2 235.3 C 347.2 237.66 347.2 237.94 349.85 237.94 L 371.78 237.94 C 372.75 239.19 371.78 240.43999 371.78 241.7 C 371.91998 243.31 371.91998 244.94 371.78 246.55 L 371.78 263.36 C 371.78 265.72 371.09 266.42 369 266.42 L 342.75 266.42 C 340.92 266.07 339.14 267.24 338.72 269.06 C 332.47 285.31 322.47 299.88 309.55 311.56 C 304.83 315.81 299.87 319.81 294.69 323.5 C 289.13 326.7 283.72 330.03 278.02 332.67 C 267.53 337.39 256.53 340.87 245.24 343.08 C 234.52 345 223.65 345.87 212.74002 345.72 L 116.350006 345.72 L 116.350006 345.57996 Z"/>
    </g>
</svg>
