<svg width="256" height="256" xmlns="http://www.w3.org/2000/svg">
    <g transform="matrix(15.058824 0 0 15.058824 7.5294113 0)">
        <path fill="#fe2c85" stroke="none" d="M 8 0.5 L 8 0.5 C 12.418277 0.5 16 4.081722 16 8.5 L 16 8.5 C 16 12.918277 12.418277 16.5 8 16.5 L 8 16.5 C 3.581722 16.5 0 12.918277 0 8.5 L 0 8.5 C 0 4.081722 3.581722 0.5 8 0.5 Z"/>
        <g>
            <path fill="#ffffff" stroke="none" d="M 0.507315 6.18944 C 0.28229 5.97195 0.0417459 5.77056 -0.222077 5.60139 C -0.462621 5.4161205 -0.78076 5.39195 -1.03682 5.54501 C -1.16098 5.6094494 -1.33944 5.77056 -1.47135 5.80278 C -1.92141 5.92361 -2.33266 5.86723 -2.7904696 5.8833404 C -2.8292696 5.8833404 -2.86806 5.89139 -2.90686 5.89139 L -2.90686 5.92361 C -2.8835797 5.93167 -2.8525403 5.93972 -2.8292696 5.9477797 C -2.3637 6.03639 -1.9602 6.0686097 -1.49463 6.02028 C -1.28513 5.99611 -0.998026 5.93167 -0.80403906 5.85917 C -0.62557 5.78667 -0.431583 5.7786193 -0.245355 5.84306 C 0.0417457 5.95584 0.305568 6.13306 0.522834 6.35861 C 0.786657 6.61638 1.04272 6.89027 1.29878 7.1561 L 1.29878 7.0513797 C 1.04272 6.7613807 0.778897 6.4713902 0.507315 6.18944 Z"/>
            <path fill="#ffffff" stroke="none" d="M 4.31569 12.1011 C 4.31569 12.1091 4.30786 12.117199 4.30786 12.1252 C 4.33918 12.3258 4.37833 12.4462 4.45663 12.5345 C 4.45663 12.5345 4.55059 12.711 4.762 12.678899 C 4.91077 12.5666 5.1535 12.2696 5.26312 12.1252 C 5.28661 12.1011 5.30227 12.068999 5.32576 12.0369 C 5.20831 12.068999 5.08303 12.085101 4.98124 12.1011 C 4.74634 12.1252 4.53493 12.1252 4.31569 12.1011 Z"/>
            <path fill="#ffffff" stroke="none" d="M 8.11322 11.74 C 7.9252996 11.756 7.75304 11.7641 7.5886097 11.748 C 7.57295 11.8202 7.56512 11.892501 7.57295 11.9647 C 7.5886097 12.3339 7.5416303 12.703 7.43984 13.0562 C 7.44767 13.024 7.4555 13 7.4555 12.9839 C 7.44767 13.024 7.43201 13.0883 7.42418 13.096299 C 7.41635 13.2728 7.40852 13.2086 7.3223896 13.6982 C 7.3223896 13.866701 7.5338 13.939 7.69823 13.9711 C 7.8548303 14.0112 8.01143 13.939 8.08973 13.794499 C 8.18369 13.642 8.25416 13.481501 8.30897 13.3049 C 8.38727 13.008 8.41859 12.695001 8.52038 12.398101 C 8.59868 12.1091 8.7083 11.8363 8.84141 11.563399 C 8.77094 11.563399 8.70047 11.579501 8.63783 11.6035 C 8.48906 11.6758 8.26982 11.7159 8.11322 11.74 Z"/>
            <path fill="#ffffff" stroke="none" d="M 11.0026 8.62611 L 11.041699 8.66623 L 11.0261 8.39337 L 10.947801 8.07235 C 10.947801 8.0563 10.947801 8.04828 10.947801 8.03222 C 10.9008 8.07235 10.8538 8.11248 10.8146 8.15261 C 10.5406 8.36127 10.2744 8.50573 9.96117 8.63413 C 9.97683 8.66624 9.98466 8.70636 10.0003 8.73846 C 10.016 8.79464 10.0395 8.85885 10.0551 8.91502 C 10.0943 9.06751 10.1334 9.21999 10.1491 9.37247 C 10.1569 9.46878 10.1569 9.34037 10.1726 9.58916 C 10.1569 9.78177 10.1491 9.81387 10.1256 9.91821 C 10.0865 10.0466 10.1021 10.0225 10.0003 10.1349 L 9.88287 10.5923 C 9.88287 10.5923 9.88287 10.6726 9.96117 10.6726 C 10.0082 10.6726 10.0316 10.6084 10.0395 10.6004 C 10.1569 10.472 10.1648 10.5121 10.1804 10.5281 L 10.1804 10.6405 C 10.1021 10.833101 10.1178 11.0257 10.1178 11.0658 C 10.0865 11.1381 10.0003 11.3066 10.0003 11.3066 C 10.0003 11.3066 10.1334 11.370801 10.1882 11.3066 C 10.2274 11.2664995 10.2979 11.1541 10.3214 11.130001 C 10.337 11.130001 10.3527 11.1381 10.3605 11.1381 L 10.29 11.2344 L 10.5484 11.122 L 10.6111 11.0418 C 10.705 11.0177 10.8146 10.897299 10.8616 10.785 C 10.8851 10.7288 10.9008 10.6726 10.9008 10.6244 C 10.9321 10.5281 10.947801 10.4238 10.947801 10.3034 C 10.9556 10.167 10.9712 10.0386 11.0026 9.91018 C 11.0026 9.91018 11.1592 9.09158 11.1592 8.92305 L 11.033901 8.75452 C 11.0104 8.70636 11.0104 8.66623 11.0026 8.62611 Z"/>
            <path fill="#ffffff" stroke="none" d="M 11.2218 5.55235 L 11.206199 5.5684094 C 11.214 5.61656 11.206199 5.6647096 11.174799 5.71286 C 11.167001 5.7369404 11.151299 5.7529902 11.1357 5.76904 C 11.1044 5.80114 11.073 5.81719 11.033901 5.8252196 C 11.0104 5.8252196 10.9947 5.8252196 10.9791 5.8252196 C 10.9713 5.8252196 10.9556 5.81719 10.947801 5.81719 C 10.916399 5.80114 10.893 5.76102 10.8851 5.72089 C 10.893 5.71286 10.893 5.70484 10.893 5.69681 C 10.9008 5.70484 10.9086 5.71286 10.916399 5.71286 C 10.9634 5.7369404 11.0261 5.70484 11.057401 5.63261 C 11.0887 5.56038 11.073 5.49618 11.0261 5.4721 C 11.0182 5.4721 11.0104 5.4721 11.0026 5.4721 C 11.033901 5.45605 11.065199 5.44802 11.0965 5.45605 C 11.1122 5.45605 11.1279 5.46407 11.1435 5.4721 C 11.1435 5.4721 11.1435 5.4801297 11.151299 5.4801297 C 11.182699 5.5041995 11.206199 5.5363 11.206199 5.57643 L 11.2218 5.55235 L 11.3079 5.42395 L 11.3079 5.44 L 11.5037 5.19121 L 11.12 4.18 L 11.1122 4.17198 C 11.0809 4.09172 11.033901 4.01949 10.9713 3.97134 C 10.9086 3.91516 10.8381 3.8670104 10.7598 3.82688 C 10.6111 3.7386 10.4623 3.66637 10.3057 3.59414 C 10.0082 3.45771 9.70279 3.34535 9.39742 3.2410197 C 9.06073 3.14472 8.7397 3.40956 8.5831 3.56204 L 8.22292 3.56204 L 8.05849 4.07567 L 7.9253807 4.04357 L 7.85491 4.25223 L 7.9801903 4.46089 C 7.89406 4.70968 7.8079305 4.95045 7.7218 5.19923 C 7.70614 5.19923 7.69831 5.19121 7.68265 5.19121 C 7.51039 5.19121 7.36945 5.31159 7.32247 5.4721 C 7.22851 5.49618 7.14238 5.5363 7.06408 5.57643 L 6.98578 5.57643 L 6.61777 5.68076 L 6.71956 5.77707 C 6.68824 5.80114 6.64909 5.8252196 6.61777 5.8493 L 6.50032 5.80917 L 6.3907003 5.9456 L 6.1009903 6.25859 L 5.66251 6.59566 L 5.66251 6.6438193 C 5.5920405 6.7080207 5.51374 6.77222 5.44327 6.83643 C 5.44327 6.83643 5.43544 6.83643 5.43544 6.84445 C 5.34148 6.94076 5.24752 7.03706 5.15356 7.1333704 C 5.13007 7.16547 5.08309 7.22165 5.0596 7.26178 C 5.01262 7.2296696 4.89517 7.14139 4.85602 7.1173205 C 4.80904 7.08522 4.4097 6.7963 4.35489 6.7642 C 4.19046 6.65987 4.02603 6.5555396 3.8616 6.45121 C 3.61887 6.3067503 3.4074597 6.36293 3.2508597 6.60369 C 3.1569 6.75617 3.07077 6.92471 3.0003 7.09324 C 2.89068 7.33401 2.8045502 7.59082 2.67927 7.82356 C 2.54616 8.06432 2.36607 8.09642 2.15466 7.91986 C 2.03721 7.82356 1.93542 7.71923 1.83363 7.60687 C 1.70835 7.47044 1.58307 7.33401 1.46562 7.2056 L 1.41864 7.24573 C 1.50477 7.33401 1.5909 7.42229 1.6692 7.51057 C 1.81797 7.67107 1.97457 7.82356 2.13117 7.96802 C 2.38956 8.1847 2.64012 8.17668 2.89068 7.9439406 C 3.03945 7.80751 3.1647298 7.6389694 3.30567 7.49451 C 3.43878 7.35006 3.5718904 7.2056 3.71283 7.06917 C 3.84594 6.94076 4.03386 6.89261 4.21395 6.94076 C 4.26093 6.9568105 4.30791 6.9728603 4.35489 6.98891 C 4.46451 7.0531106 4.86385 7.25375 4.9813 7.32598 C 4.91866 7.38216 4.88734 7.4543896 4.84819 7.51859 C 4.78555 7.56674 4.71508 7.6389694 4.67593 7.7433 C 4.62112 7.82356 4.5898 7.91986 4.57414 8.00814 C 4.53499 8.10445 4.51149 8.1847 4.51149 8.1847 L 4.55064 8.66623 C 4.51932 8.64215 4.62112 8.73846 4.62112 8.73846 L 4.69159 8.81069 L 4.76206 8.89094 L 4.84036 8.94712 L 4.95781 8.89094 L 5.05177 8.89094 L 5.09092 8.89094 L 5.10658 8.80266 L 4.95781 8.67426 L 4.95781 8.65018 C 4.98913 8.44954 5.05177 8.40139 5.0596 8.37731 C 5.0596 8.37731 5.20837 8.24891 5.27101 8.24088 C 5.2945 8.29706 5.25535 8.37731 5.25535 8.37731 C 5.26318 8.45757 5.27101 8.50572 5.2945 8.5298 C 5.33365 8.55387 5.2945 8.5298 5.33365 8.55387 C 5.36497 8.54585 5.36497 8.5619 5.4276104 8.52177 C 5.45893 8.46559 5.4511003 8.46559 5.4745903 8.39336 C 5.59987 8.13655 5.46676 8.04025 5.70949 7.83158 C 5.8582597 7.95197 6.02269 8.0563 6.1949506 8.1526 C 6.27325 8.20075 6.35938 8.22483 6.44551 8.23286 L 6.35155 8.38534 L 6.25759 8.73846 C 6.21061 8.81069 6.16363 8.88292 6.10882 8.94712 C 5.99137 9.0996 5.87392 9.25209 5.7408094 9.39655 C 5.5920405 9.541 5.48242 9.70954 5.4041195 9.90215 C 5.24752 10.0145 5.15356 10.2232 5.18488 10.4479 L 5.18488 10.472 C 5.02828 10.801 4.84036 11.122 4.62895 11.418999 C 4.5663 11.4912 4.51149 11.579501 4.46451 11.6678 C 4.41753 11.7720995 4.37055 11.876399 4.33923 11.9888 C 4.55848 11.9888 4.77772 11.9888 5.00479 11.9326 C 5.10658 11.908499 5.23969 11.7962 5.33365 11.748 C 5.4041195 11.7079 5.4745903 11.6918 5.5450597 11.683801 C 5.5685506 11.6437 5.5920405 11.611599 5.61553 11.579501 C 5.64685 11.5393 5.67817 11.4992 5.70949 11.4671 C 5.85043 11.3548 5.98354 11.2264 6.1009903 11.089899 C 6.1558 11.0097 6.2184405 10.9374 6.28891 10.865201 C 6.3437195 10.6726 6.4846597 10.5201 6.67258 10.488 C 6.79003 10.3676 6.90748 10.2392 7.0171003 10.1028 C 7.0954 10.0225 7.1815305 9.9503 7.27549 9.8861 L 7.36945 9.9503 L 7.37728 9.95833 L 7.50256 10.0466 C 7.51039 10.1269 7.60435 10.159 7.60435 10.2472 C 7.58869 10.5763 7.60435 10.865201 7.6435003 11.3949 C 7.6435003 11.427 7.6435003 11.4591 7.63567 11.4832 C 7.62784 11.5313 7.6200094 11.579501 7.60435 11.6276 C 7.77661 11.6276 7.94887 11.6196 8.12896 11.5714 C 8.23075 11.547401 8.36386 11.435 8.45782 11.386901 C 8.59876 11.3146 8.75536 11.298599 8.8963 11.338701 C 9.00592 10.897299 9.11554 10.3837 9.18601 9.94228 L 9.27214 9.73362 L 9.23299 9.73362 C 9.24082 9.69349 9.24865 9.64534 9.25648 9.60521 C 9.25648 9.59718 9.26431 9.58916 9.26431 9.58916 C 9.26431 9.58113 9.27214 9.58113 9.27214 9.57311 L 9.38176 9.55706 L 9.4444 9.26011 L 9.6793 8.69833 C 9.6793 8.68228 9.68713 8.66623 9.68713 8.64215 C 9.71845 8.64215 9.74194 8.63413 9.76543 8.63413 L 9.72628 8.57795 L 9.80458 8.6261 C 9.85156 8.61005 9.89071 8.594 9.92986 8.56992 C 10.2196 8.37731 10.4936 8.24891 10.7442 8.00012 C 10.814699 7.93591 10.8616 7.79146 10.916399 7.7031794 L 10.8538 7.39821 C 10.8538 7.39821 10.8538 7.39821 10.8538 7.3901796 C 10.7912 7.16547 10.6972 6.94878 10.5798 6.7401195 C 10.5641 6.7080207 10.5563 6.66789 10.5719 6.6277704 C 10.6502 6.45923 10.7364 6.2907 10.8225 6.11414 L 10.9008 6.00178 C 11.065199 5.9777007 11.214 5.8493 11.2845 5.6647096 C 11.315801 5.5844593 11.3236 5.49618 11.315801 5.41592 Z M 7.05625 7.0450897 C 6.95446 7.22165 7.07974 7.18152 6.92314 7.2938795 C 6.91531 7.3099294 6.90748 7.32598 6.90748 7.34203 C 6.86833 7.44636 6.83701 7.55872 6.79003 7.6791 L 6.61777 7.83158 L 6.6569195 7.92789 L 6.6256 7.97604 L 6.58645 8.04827 C 6.57862 8.04827 6.57079 8.04827 6.57079 8.0563 C 6.4611697 8.0884 6.33589 8.0884 6.22627 8.0563 C 6.06184 8.00012 5.94439 7.91184 5.82694 7.81553 L 5.85043 7.79146 L 6.3672094 7.44636 L 6.4141903 7.32598 C 6.5473 7.25375 6.68824 7.18955 6.8291793 7.1333704 C 6.89182 7.10929 6.9466295 7.08522 7.00927 7.06917 C 7.00144 7.0531106 7.0171003 7.0531106 7.05625 7.0450897 Z M 7.85491 8.29706 C 7.7218 8.29706 7.6121807 8.17668 7.60435 8.02419 L 7.76878 8.02419 L 7.7609506 8.02419 C 7.7609506 8.09642 7.82359 8.1526 7.89406 8.1526 C 7.96453 8.1526 8.02717 8.0884 8.02717 8.01617 C 8.02717 7.9439406 7.96453 7.87974 7.89406 7.87974 C 7.83925 7.87974 7.79227 7.91184 7.76878 7.9599895 C 7.7139697 7.95197 7.65916 7.9439406 7.60435 7.9439406 C 7.6200094 7.7994795 7.72963 7.6871305 7.85491 7.6871305 C 7.99585 7.6871305 8.1133 7.82356 8.1133 7.99209 C 8.1133 8.16063 7.99585 8.29706 7.85491 8.29706 Z M 8.37952 4.07567 C 8.39518 4.07567 8.41084 4.0837 8.4265 4.0837 C 8.47348 4.09975 8.5048 4.1479 8.52046 4.2121 C 8.51263 4.20408 8.51263 4.20408 8.5048 4.20408 C 8.45782 4.19605 8.41084 4.23618 8.39518 4.30841 C 8.37952 4.38064 8.40301 4.44484 8.44999 4.45287 C 8.4265 4.46892 8.40301 4.47694 8.37952 4.47694 C 8.31688 4.47694 8.25424 4.42077 8.23858 4.34854 C 8.23075 4.32446 8.23075 4.30841 8.23075 4.28433 C 8.23075 4.16395 8.30122 4.07567 8.37952 4.07567 Z M 9.23299 6.58764 C 9.21733 6.60369 9.19384 6.61974 9.17818 6.63579 C 8.80234 6.58764 8.47348 6.34687 8.31688 5.9777007 C 8.12896 5.54433 8.23858 5.04675 8.59093 4.73376 C 8.70838 5.11898 8.98243 5.35172 9.29563 5.54433 C 9.42874 5.62458 9.56185 5.69681 9.71062 5.7449694 C 9.64798 5.92955 9.48355 6.3549 9.23299 6.58764 Z M 9.46006 6.78025 C 9.46789 6.77222 9.49138 6.75617 9.5227 6.7240696 C 9.49138 6.75617 9.46789 6.78025 9.46006 6.78025 Z M 9.64798 6.59566 C 9.80458 6.41108 10.0317 6.13019 10.1648 5.8493 C 10.2196 5.85732 10.2744 5.85732 10.3292 5.85732 C 10.29 6.1703095 10.0003 6.47528 9.64798 6.59566 Z"/>
        </g>
    </g>
</svg>
