<svg width="480" height="480" xmlns="http://www.w3.org/2000/svg">
    <defs>
        <linearGradient id="paint0_linear-791375" x1="240" y1="0" x2="240" y2="701.818" gradientUnits="userSpaceOnUse">
            <stop offset="0" stop-color="#08021e"/>
            <stop offset="1" stop-color="#1f0777"/>
        </linearGradient>
        <mask id="mask0-911594" mask-type="alpha" maskUnits="userSpaceOnUse" x="0" y="0" width="480" height="480">
            <path fill="url(#paint0_linear-791375)" stroke="none" d="M 480 240 C 480 372.5483 372.5483 480 240 480 C 107.45166 480 0 372.5483 0 240 C -0 107.45166 107.45166 0 240 0 C 372.5483 0 480 107.45166 480 240 Z"/>
        </mask>
    </defs>
    <g mask="url(#mask0-911594)">
        <path fill="#31d8a4" stroke="none" d="M 480 240 C 480 372.5483 372.5483 480 240 480 C 107.45166 480 0 372.5483 0 240 C -0 107.45166 107.45166 0 240 0 C 372.5483 0 480 107.45166 480 240 Z"/>
        <path fill="#ffffff" stroke="none" d="M 448 240 C 448 354.8752 354.8752 448 240 448 C 125.12477 448 32 354.8752 32 240 C 32 125.12477 125.12477 32 240 32 C 354.8752 32 448 125.12477 448 240 Z"/>
    </g>
    <path fill="#0e052f" stroke="none" d="M 424 240 C 424 341.6204 341.6204 424 240 424 C 138.37961 424 56 341.6204 56 240 C 56 138.37961 138.37961 56 240 56 C 341.6204 56 424 138.37961 424 240 Z"/>
    <path fill="#ffffff" stroke="none" d="M 233.84001 323.04 C 225.84001 322.4 218.32002 320.64 211.28 317.76 C 204.24002 314.72 198.15999 310.8 193.04 306 C 187.92 301.2 183.84 295.68 180.8 289.44 C 177.76 283.2 176.16 276.4 176 269.04 L 205.51999 269.04 C 205.84 276.88 208.56 283.44 213.67998 288.72 C 218.96002 293.84 225.68 296.8 233.84001 297.6 L 233.84001 250.08002 L 222.55998 248.4 C 209.6 246.64 199.28 241.76 191.6 233.76 C 184.08 225.76 180.32 215.6 180.32 203.28 C 180.32 196.87999 181.76 190.88 184.64 185.28 C 187.52 179.52 191.44 174.48 196.39998 170.16 C 201.36 165.68 207.04 162.08 213.44 159.36 C 220 156.64 226.8 154.96 233.84001 154.32 L 233.84001 132 L 251.36002 132 L 251.36002 154.8 C 258.56 155.76 265.2 157.68 271.28 160.56 C 277.36 163.28 282.64 166.8 287.12 171.12 C 291.6 175.44 295.12 180.39998 297.68 186 C 300.4 191.6 301.92 197.6 302.24 204 L 272.72 204 C 272.4 198.24 270.24 193.28 266.24 189.12 C 262.4 184.8 257.44 181.84 251.36002 180.24002 L 251.36002 224.16 L 259.52 225.36 C 265.6 226.32002 271.36 228 276.8 230.4 C 282.24 232.8 286.96 235.92 290.96 239.76 C 295.12 243.60002 298.32 248.24 300.56 253.67998 C 302.96 258.96 304.16 264.96 304.16 271.68 C 304.16 278.88 302.8 285.44 300.08 291.36 C 297.52 297.12 293.84 302.24 289.04 306.72 C 284.4 311.04 278.8 314.64 272.24 317.52 C 265.84 320.24 258.88 322 251.36002 322.8 L 251.36002 347.52 L 233.84001 347.52 L 233.84001 323.04 Z M 251.36002 297.36 C 258.88 296.08 264.72 293.36 268.88 289.2 C 273.04 284.88 275.12 279.44 275.12 272.88 C 275.12 266.8 273.12 262.32 269.12 259.44 C 265.12 256.4 260.56 254.4 255.44 253.44 L 251.36002 252.72 L 251.36002 297.36 Z M 233.84001 179.52 C 227.12001 180.48 221.36 182.96 216.56 186.96002 C 211.92 190.79999 209.6 196 209.6 202.56 C 209.6 208.16 211.12001 212.39998 214.15999 215.28 C 217.36 218 221.51999 219.75998 226.64 220.56 L 233.84001 221.76 L 233.84001 179.52 Z"/>
</svg>
