<svg width="270" height="630" xmlns="http://www.w3.org/2000/svg">
    <g id="a"/>
    <g id="b">
        <g id="c">
            <path fill="#def141" stroke="none" d="M 48.95 566.64 C 46.44 572.25 45 578.46 45 585 C 45 609.85 65.15 630 90 630 C 108.91001 630 125.07 618.32 131.73 601.8 L 266.06 288.37 C 268.57 282.76 270 276.55 270 270.01 C 270 245.16 249.85 225.01 225 225.01 C 206.09 225.01 189.92998 236.69 183.27 253.21 L 48.95 566.64 Z M 3.95 341.64 C 1.44 347.25 0 353.46 0 360 C 0 384.85 20.15 405 45 405 C 63.91 405 80.07 393.32 86.73 376.79996 L 221.06 63.36 C 223.57 57.75 225 51.539997 225 45 C 225 20.15 204.85 0 180 0 C 161.09 0 144.93 11.68 138.27 28.2 L 3.95 341.64 Z"/>
        </g>
    </g>
</svg>
