<svg width="256" height="256" xmlns="http://www.w3.org/2000/svg">
    <path fill="#3679b5" stroke="none" d="M -1144.7 -28.4 L 358.20007 -28.4 L 358.20007 301.6 L -1144.7 301.6 Z"/>
    <g>
        <path fill="#ffffff" stroke="none" d="M 125.9 48 L 55.4 75.6 L 55.4 75.6 L 55.4 176.6 L 130.2 207.9 L 200.70001 174.7 L 200.70001 152.5 L 130.2 185.7 L 77.6 163.7 L 77.6 146.5 L 130.2 168.5 L 200.70001 135.3 L 200.70001 113.1 L 130.2 146.3 L 77.6 124.3 L 77.6 107.1 L 130.2 129.1 L 200.70001 95.90001 L 200.70001 76.7 C 200.70001 76.7 200.70001 73.7 200.70001 73.7 L 125.9 48 Z M 129.4 106.700005 L 129.4 106.700005 C 129.4 106.700005 130 106.9 130 106.9 L 129.3 106.700005 Z"/>
        <path fill="#ffffff" stroke="none" d="M 130.1 107 L 129.4 106.700005 L 129.5 106.700005 L 130.1 107 Z"/>
        <path fill="#ffffff" stroke="none" d="M 130.1 107 L 129.4 106.700005 L 129.5 106.700005 L 130.1 107 Z"/>
    </g>
</svg>
