<svg width="501" height="501" xmlns="http://www.w3.org/2000/svg">
    <defs>
        <clipPath id="clip0_678_2">
            <path fill="#000000" stroke="none" d="M 0 0 L 501 0 L 501 501 L 0 501 Z"/>
        </clipPath>
        <mask id="mask0_678_2" maskUnits="userSpaceOnUse" x="0" y="0" width="501" height="501">
            <path fill="#ffffff" stroke="none" d="M 501 0 L 0 0 L 0 501 L 501 501 L 501 0 Z"/>
        </mask>
    </defs>
    <g clip-path="url(#clip0_678_2)">
        <g mask="url(#mask0_678_2)">
            <path fill="#000000" stroke="none" d="M 501 0 L 0 0 L 0 501 L 501 501 L 501 0 Z"/>
            <path fill="#ffffff" stroke="none" d="M 50 382 L 134.243 118 L 166.369 118 L 82.1264 382 L 50 382 Z"/>
            <path fill="#ffffff" stroke="none" d="M 345.114 275.33 L 291.213 275.33 L 291.213 374.865 L 255.517 374.865 L 255.517 125.135 L 383.66498 125.135 L 425.073 149.038 L 425.073 251.427 L 383.66498 275.33 L 441.13602 374.865 L 401.51297 374.865 L 345.114 275.33 Z M 291.213 157.243 L 291.213 243.222 L 389.377 243.222 L 389.377 157.243 L 291.213 157.243 Z"/>
        </g>
    </g>
</svg>
