<svg width="286" height="286" xmlns="http://www.w3.org/2000/svg">
    <defs>
        <linearGradient id="SVGID_1_" x1="66.2158" y1="36.4334" x2="222.6889" y2="253.5782" gradientUnits="userSpaceOnUse">
            <stop offset="0" stop-color="#ffd286"/>
            <stop offset="1" stop-color="#ffa54c"/>
        </linearGradient>
        <linearGradient id="SVGID_00000062888462700170720190000003204741768386319293_" x1="71.6214" y1="43.8205" x2="214.1994" y2="241.6825" gradientUnits="userSpaceOnUse">
            <stop offset="0" stop-color="#e75c03"/>
            <stop offset="1" stop-color="#c63e16"/>
        </linearGradient>
    </defs>
    <g id="_x23_ffb763ff">
        <path fill="url(#SVGID_1_)" stroke="none" d="M 129.4 1.7 C 171 -2.5 214 12.9 243.49998 42.5 C 276.4 75.2 291.7 124.8 282.2 170.3 C 276.9 198 263 224 243 243.89998 C 210.3 276.4 161 291.5 115.8 282.1 C 88 276.9 62 263 42 243 C 9.6 210.3 -5.6 161.2 3.7 116 C 9.6 84.4 26.7 55 51.4 34.4 C 73.3 15.9 100.9 4.6 129.4 1.7 M 129.4 11.7 C 113.1 13.4 97.1 18.2 82.5 25.7 C 57.2 38.7 36.3 60.2 24 85.8 C 11.9 110.8 8.1 139.6 13.2 166.9 C 18.6 196.50002 34.5 224.1 57.5 243.49998 C 79.8 262.6 108.7 273.8 138 274.9 C 168.6 276.2 199.4 266.3 223.6 247.6 C 246.79999 229.8 263.7 204.10002 270.9 175.80002 C 277.3 150.8 276.2 123.90001 267.6 99.5 C 257.5 70.2 236.6 44.8 209.8 29.2 C 185.8 15 157.2 8.8 129.4 11.7 Z"/>
    </g>
    <path fill="url(#SVGID_00000062888462700170720190000003204741768386319293_)" stroke="none" d="M 264.8 142.8 C 264.8 210.1235 210.22351 264.7 142.9 264.7 C 75.57648 264.7 20.999989 210.1235 20.999992 142.8 C 20.999992 75.476494 75.576485 20.900002 142.9 20.900002 C 210.2235 20.900005 264.8 75.476494 264.8 142.8 Z"/>
    <g id="_x23_141414ff">
        <path fill="#141414" stroke="none" d="M 190 62.900005 C 188.90001 65.4 188.90001 68.1 188.6 70.9 C 188.39998 79.5 180.7 86.6 172.39998 87.3 C 171.89998 87.3 171.4 87.399994 171 87.399994 C 170.9 87.399994 170.8 87.399994 170.7 87.399994 C 161.1 87.1 154.1 79.2 153.7 69.9 C 153.6 67.3 154.2 64.9 155.2 62.6 C 155.3 62.300003 155.5 62 155.6 61.8 C 155.6 61.699997 155.7 61.6 155.7 61.5 C 157.2 58.8 159.3 56.5 160.8 53.8 C 159.8 49.699997 157.1 46.4 155 43 C 151.3 37.7 147.9 31.9 143 27.6 C 138.1 32 134.7 37.7 131 43 C 128.8 46.5 126.1 49.8 125.2 53.8 C 127.6 58 131.6 61.6 131.9 66.7 C 132.1 67.7 132.3 68.8 132.3 69.9 C 132.7 79.4 123.90001 87.399994 114.8 87.399994 C 108.2 87.399994 102.700005 83.7 99.7 78.5 C 99.399994 78 99.1 77.6 98.8 77.1 C 96.3 72.8 97.80001 67.4 95.90001 63 C 89.2 55.5 79.2 50.900005 69.1 51 C 75.2 64.7 82.2 78.2 86.1 92.8 C 87.8 98.3 88.3 104.2 90.19999 109.6 L 195.60002 109.6 C 196.90001 106.19999 197.3 102.6 198.1 99.1 C 200.8 86.9 205.6 75.2 210.8 63.8 C 212.8 59.5 215.2 55.3 216.8 50.8 C 206.79999 50.8 196.7 55.4 190 62.900005 Z"/>
        <path fill="#141414" stroke="none" d="M 137.8 118.8 C 137.8 118.8 160 116.7 184 117 C 189.2 117.1 193.4 117.2 195.7 117.299995 C 198.3 124.09999 199.80002 131.4 201.5 138.4 C 203 143.7 196.90001 147.4 197.40001 152.5 C 199.6 158.2 204.2 162.5 206.79999 168 C 210 174.4 213.40001 180.90001 215.4 187.8 C 209.7 190.5 204 193.20001 198.3 195.89998 C 198.4 197.40001 198.5 198.9 198.6 200.4 C 185 205.6 171.4 210.9 157.8 216.1 C 155.4 223.1 153 230.2 150.7 237.2 L 150.7 237.2 L 98.19999 201.7 C 93.7 202.2 88.3 204.2 87 204.90001 C 80.3 208.19998 74.1 212.3 68.1 216.70001 C 67.9 208.6 67.6 200.4 68.4 192.30002 C 71.2 175.1 75.7 158.1 81.9 141.8 C 83.4 138 84.4 134 86.700005 130.6 C 90.50001 129.8 94.3 128.9 98.1 128 C 118.700005 123.5 137.8 118.8 137.8 118.8 Z M 170.1 147.2 C 164 148 157.9 148.2 151.8 149.4 C 153.9 152.3 157.7 152.9 160.8 154.2 C 169.2 157 177.4 160.8 186 163.1 C 185.6 160.4 184.70001 157.9 184.6 155.1 C 184.70001 151.7 185.9 148.6 186.59999 145.3 C 181 145.6 175.6 146.7 170.1 147.2 Z"/>
        <path fill="#141414" stroke="none" d="M 201.8 212.10002 C 202.4 214.4 203 216.8 203.7 219.09999 C 202.7 221.40001 201.6 223.69998 200.6 225.9 C 201.20001 230.79999 201.9 235.7 202.5 240.6 C 196.39998 245.2 193.3 247.6 193.3 247.6 L 193.3 247.6 C 193.3 247.6 186.9 246.3 174.3 243.7 C 174.3 243.7 175.80002 229.7 175.80002 229.7 C 175.80002 229.7 175.80002 229.7 175.80002 229.7 C 175.80002 229.7 187.60002 221.7 201.8 212.10002 Z"/>
    </g>
</svg>
