<svg width="473" height="470" xmlns="http://www.w3.org/2000/svg">
    <defs>
        <linearGradient id="logo-circle_svg__e5ojfxdzkgl73-fill" x1="156.478" y1="0" x2="-180.436" y2="19.723" gradientUnits="userSpaceOnUse">
            <stop offset="0" stop-color="#6f56fd"/>
            <stop offset="0.9999999" stop-color="#00cabe"/>
            <stop offset="1" stop-color="#00cabe"/>
        </linearGradient>
        <linearGradient id="logo-circle_svg__e5ojfxdzkgl74-fill" x1="-186.115" y1="94.502" x2="-248.237" y2="-17.301" gradientUnits="userSpaceOnUse">
            <stop offset="0" stop-color="#42f4ca"/>
            <stop offset="1" stop-color="#5d89f8"/>
        </linearGradient>
        <linearGradient id="logo-circle_svg__e5ojfxdzkgl75-fill" x1="175.809" y1="0" x2="-202.597" y2="23.239" gradientUnits="userSpaceOnUse">
            <stop offset="0" stop-color="#6f56fd"/>
            <stop offset="0.9999999" stop-color="#00cabe"/>
            <stop offset="1" stop-color="#00cabe"/>
        </linearGradient>
        <filter id="logo-circle_svg__e5ojfxdzkgl73-filter" x="-1749.51" y="-1628.856" width="2332.68" height="2171.8079" filterUnits="userSpaceOnUse">
            <feGaussianBlur color-interpolation-filters="linearRGB" in="SourceGraphic" stdDeviation="40 40" result="result"/>
        </filter>
        <filter id="logo-circle_svg__e5ojfxdzkgl74-filter" x="-1593.288" y="-1410.453" width="2124.384" height="1880.604" filterUnits="userSpaceOnUse">
            <feGaussianBlur color-interpolation-filters="linearRGB" in="SourceGraphic" stdDeviation="40 40" result="result"/>
        </filter>
        <filter id="logo-circle_svg__e5ojfxdzkgl75-filter" x="-1880.3699" y="-1668.762" width="2507.16" height="2225.016" filterUnits="userSpaceOnUse">
            <feGaussianBlur color-interpolation-filters="linearRGB" in="SourceGraphic" stdDeviation="40 40" result="result"/>
        </filter>
        <mask id="logo-circle_svg__e5ojfxdzkgl76" maskUnits="userSpaceOnUse" x="-69.270996" y="-155.9256" width="636.732" height="707.1072">
            <path id="logo-circle_svg__e5ojfxdzkgl77" fill="#ffffff" fill-rule="evenodd" stroke="none" d="M 472.626 235 C 472.626 364.787 366.825 470 236.313 470 C 105.801 470 0 364.787 0 235 C 0 105.213 105.801 0 236.313 0 C 366.825 0 472.626 105.213 472.626 235 Z M 246.72798 144.776 C 246.72798 126.916 261.206 112.438 279.066 112.438 C 296.926 112.438 311.405 126.916 311.405 144.777 L 311.405 237.874 L 353.687 237.874 L 353.687 170.447 C 353.687 160.143 362.03998 151.79 372.34402 151.79 C 382.64798 151.79 391.001 160.143 391.001 170.447 L 391.001 237.874 L 353.687 237.874 L 353.687 312.652 C 353.687 324.33 344.22003 333.797 332.542 333.797 C 320.865 333.797 311.398 324.33 311.398 312.652 L 311.398 237.875 L 246.72798 237.875 L 246.72798 332.188 C 246.72798 350.735 231.692 365.771 213.145 365.771 C 194.598 365.771 179.563 350.735 179.563 332.188 L 179.563 237.874 L 246.72798 237.874 L 246.72798 144.776 Z M 137.271 175.39601 C 137.271 163.718 146.738 154.251 158.415 154.251 C 170.093 154.251 179.56 163.718 179.56 175.39601 L 179.56 237.87599 L 137.271 237.87599 L 137.271 175.39601 Z M 109.908 296.905 C 125.02 296.905 137.271 284.654 137.271 269.542 L 137.271 237.87599 L 82.544 237.87599 L 82.544 269.542 C 82.544 284.654 94.795 296.905 109.908 296.905 Z M 431.37698 258.389 C 431.37698 269.797 422.129 279.045 410.722 279.045 C 399.314 279.045 390.067 269.797 390.067 258.389 L 390.067 237.964 L 431.37698 237.964 L 431.37698 258.389 Z M 61.885 196.882 C 50.478004 196.882 41.23 206.13 41.23 217.537 L 41.23 237.963 L 82.54 237.963 L 82.54 217.537 C 82.54 206.13 73.293 196.882 61.885 196.882 Z"/>
        </mask>
    </defs>
    <g id="logo-circle_svg__e5ojfxdzkgl72" mask="url(#logo-circle_svg__e5ojfxdzkgl76)">
        <g transform="matrix(1 0 0 1 299.624 330.252)">
            <g filter="url(#logo-circle_svg__e5ojfxdzkgl73-filter)" transform="matrix(1 0 0 1 20.386 -18.98)">
                <path id="logo-circle_svg__e5ojfxdzkgl73" fill="url(#logo-circle_svg__e5ojfxdzkgl73-fill)" stroke="none" d="M 194.39 0 C 194.39 99.9547 107.358635 180.984 0 180.984 C -107.358635 180.984 -194.39 99.9547 -194.39 0 C -194.39 -99.9547 -107.358635 -180.984 -0 -180.984 C 107.358635 -180.984 194.39 -99.9547 194.39 0 Z"/>
            </g>
        </g>
        <g transform="matrix(1 0 0 1 168.927 296.314)">
            <g filter="url(#logo-circle_svg__e5ojfxdzkgl74-filter)" transform="matrix(1 0 0 1 -8.105 7.175)">
                <path id="logo-circle_svg__e5ojfxdzkgl74" fill="url(#logo-circle_svg__e5ojfxdzkgl74-fill)" stroke="none" d="M 177.03201 0 C 177.03201 86.5524 97.77207 156.717 0 156.717 C -97.77207 156.717 -177.03201 86.5524 -177.03201 0 C -177.03201 -86.5524 -97.77207 -156.717 -0 -156.717 C 97.77207 -156.717 177.03201 -86.5524 177.03201 -0 Z"/>
            </g>
        </g>
        <g transform="matrix(1 0 0 1 251.49998 76.5)">
            <g filter="url(#logo-circle_svg__e5ojfxdzkgl75-filter)" transform="matrix(1 0 0 1 -13.43 11.918)">
                <path id="logo-circle_svg__e5ojfxdzkgl75" fill="url(#logo-circle_svg__e5ojfxdzkgl75-fill)" stroke="none" d="M 208.93 0 C 208.93 102.403534 115.38885 185.418 0 185.418 C -115.38885 185.418 -208.93 102.403534 -208.93 0 C -208.93 -102.403534 -115.38885 -185.418 -0 -185.418 C 115.38885 -185.418 208.93 -102.403534 208.93 0 Z"/>
            </g>
        </g>
    </g>
</svg>
