<svg width="1000" height="1000" xmlns="http://www.w3.org/2000/svg">
    <defs>
        <linearGradient id="paint0_linear_2_79" x1="252.782" y1="408.294" x2="411.796" y2="689.251" gradientUnits="userSpaceOnUse">
            <stop offset="0" stop-color="#ed2a24"/>
            <stop offset="1" stop-color="#f3ae1b"/>
        </linearGradient>
        <linearGradient id="paint1_linear_2_79" x1="252.782" y1="337.789" x2="574.3" y2="728.306" gradientUnits="userSpaceOnUse">
            <stop offset="0" stop-color="#ed2a24"/>
            <stop offset="1" stop-color="#f3ae1b"/>
        </linearGradient>
        <linearGradient id="paint2_linear_2_79" x1="252.782" y1="266.414" x2="724.135" y2="735.533" gradientUnits="userSpaceOnUse">
            <stop offset="0" stop-color="#ed2a24"/>
            <stop offset="1" stop-color="#f3ae1b"/>
        </linearGradient>
        <clipPath id="clip0_2_79">
            <path fill="#000000" stroke="none" d="M 0 0 L 1000 0 L 1000 1000 L 0 1000 Z"/>
        </clipPath>
    </defs>
    <g clip-path="url(#clip0_2_79)">
        <path fill="#000000" stroke="#fd6f3e" stroke-width="40" d="M 980 500 C 980 765.097 765.097 980 500 980 C 234.903 980 20 765.097 20 500 C 20 234.903 234.903 20 500 20 C 765.097 20 980 234.903 980 500 Z"/>
        <path fill="url(#paint0_linear_2_79)" stroke="none" d="M 596.45 519.296 C 594.456 528.556 591.248 537.513 586.913 545.933 C 582.293 554.254 576.626 561.946 570.048 568.819 C 563.184 575.404 555.505 581.08 547.2 585.709 C 538.784 590.036 529.842 593.252 520.6 595.274 C 511.224 596.915 501.679 597.383 492.186 596.667 C 482.77896 595.565 473.553 593.244 464.741 589.767 C 455.973 586.044 447.723 581.201 440.196 575.357 C 432.949 569.187 426.525 562.11 421.08 554.297 C 415.966 546.317 411.903 537.711 408.99 528.689 C 406.419 519.515 405.018 510.05197 404.817 500.527 L 468.712 500.527 C 469.016 503.71497 469.582 506.874 470.40396 509.96997 C 471.493 512.971 472.84796 515.868 474.455 518.628 C 476.44196 521.232 478.646 523.663 481.045 525.892 C 483.64096 527.807 486.41498 529.469 489.327 530.854 C 492.314 531.968 495.41696 532.747 498.57504 533.176 C 501.792 533.407 505.025 533.346 508.232 532.994 C 511.285 532.196 514.257 531.122 517.117 529.787 C 519.905 527.992 522.541 525.968 524.996 523.737 C 527.226 521.284 529.247 518.651 531.041 515.865 C 532.377 512.982 533.449 509.98398 534.243 506.905 C 534.684 503.637 534.846 500.335 534.73 497.038 C 534.26 493.873 533.469 490.765 532.37 487.761 C 530.991 484.843 529.335 482.066 527.425 479.464 C 525.2 477.061 522.773 474.853 520.171 472.86404 C 517.426 471.232 514.527 469.87204 511.51596 468.80704 C 508.364 468.02704 505.146 467.54 501.905 467.357 L 252.782 467.357 L 252.782 403.605 L 501.661 403.605 C 511.173 403.775 520.621 405.18 529.771 407.78296 C 538.78 410.699 547.376 414.76904 555.343 419.891 C 563.145 425.335 570.216 431.765 576.379 439.01996 C 582.253 446.434 587.149 454.57303 590.95 463.23596 C 594.416 472.021 596.731 481.217 597.841 490.59695 C 598.58 500.184 598.112 509.82602 596.45 519.296 Z"/>
        <path fill="url(#paint1_linear_2_79)" stroke="none" d="M 668.994 533.645 C 665.613 550.119 659.934 566.036 652.128 580.927 C 644.059 595.637 634.033 609.18 622.323 621.185 C 610.318 632.892 596.798 642.93 582.123 651.03 C 567.244 658.825 551.355 664.507 534.912 667.923 C 518.457 671.013 501.65802 671.849 484.978 670.403 C 468.38 668.601 452.10904 664.526 436.616 658.295 C 421.199 651.73 406.758 643.073 393.697 632.566 C 380.88 621.742 369.576 609.24 360.09 595.396 C 350.88803 581.346 343.68304 566.081 338.683 550.043 C 334.012 533.883 331.552 517.164 331.371 500.342 L 393.816 500.342 C 393.993 510.974 395.558 521.535 398.471 531.761 C 401.673 541.845 406.208 551.455 411.952 560.337 C 418.021 569.074 425.193 576.99 433.29 583.887 C 441.572 590.502 450.701 595.978 460.434 600.169 C 470.263 604.089 480.57202 606.674 491.084 607.859 C 501.667 608.699 512.312 608.171 522.759 606.285 C 533.113 604.109 543.121 600.525 552.503 595.631 C 561.774 590.472 570.33 584.119 577.952 576.734 C 585.332 569.048 591.695 560.441 596.879 551.126 C 601.716 541.708 605.293 531.694 607.517 521.339 C 609.38 510.875 609.888 500.21402 609.027 489.61902 C 607.876 479.085 605.293 468.75696 601.353 458.92398 C 597.194 449.221 591.788 440.10196 585.271 431.803 C 578.385 423.713 570.48 416.551 561.754 410.496 C 552.886 404.747 543.289 400.211 533.22 397.01 C 523.01 394.1 512.463 392.54 501.847 392.368 L 252.782 392.368 L 252.782 329.508 L 501.661 329.508 C 518.424 329.69 535.083 332.176 551.17 336.896 C 567.199 341.912 582.457 349.124 596.512 358.327 C 610.337 367.825 622.822 379.14496 633.629 391.981 C 644.129 405.067 652.793 419.528 659.383 434.963 C 665.574 450.487 669.643 466.778 671.473 483.39496 C 672.937 500.179 672.103 517.086 668.994 533.645 Z"/>
        <path fill="url(#paint2_linear_2_79)" stroke="none" d="M 742.44 548.236 C 737.61896 571.966 729.473 594.894 718.24805 616.341 C 706.7329 637.557 692.2899 657.041 675.339 674.216 C 658.162 691.1599 638.711 705.623 617.548 717.19696 C 596.131 728.44 573.237 736.589 549.541 741.413 C 525.881 745.921 501.70596 747.08405 477.72403 744.86304 C 453.677 742.362 430.10596 736.451 407.71796 727.309 C 385.472 717.975 364.65305 705.542 345.875 690.382 C 327.389 674.908 311.116 656.96 297.513 637.045 C 284.231 616.834 273.873 594.842 266.746 571.724 C 259.902 548.545 256.34 524.519 256.166 500.35 L 319.825 500.35 C 320.021 518.242 322.665 536.025 327.682 553.199 C 333.008 570.33 340.699 586.632 350.534 601.63 C 360.598 616.405 372.639 629.727 386.319 641.224 C 400.254 652.422 415.65 661.664 432.08096 668.689 C 448.673 675.373 466.106 679.733 483.888 681.644 C 501.6 683.156 519.434 682.262 536.906 678.978 C 554.439 675.319 571.371 669.207 587.203 660.82 C 602.869 652.221 617.292 641.529 630.079 629.034 C 642.629 616.288 653.387 601.888 662.06 586.234 C 670.441 570.381 676.553 553.424 680.215 535.864 C 683.495 518.288 684.367 500.345 682.814 482.532 C 680.926 464.728 676.592 447.26904 669.939 430.649 C 662.925 414.194 653.697 398.776 642.514 384.821 C 631.02 371.117 617.72 359.04 602.979 348.923 C 573.036 328.955 537.876 318.278 501.90097 318.227 L 252.782 318.227 L 252.782 254.5 L 501.661 254.5 C 525.878 254.651 549.953 258.218 573.177 265.095 C 596.265 272.252 618.226 282.646 638.404 295.969 C 658.332 309.54 676.26 325.842 691.663 344.4 C 706.852 363.182 719.325 384.009 728.71906 406.27097 C 737.83905 428.713 743.741 452.336 746.249 476.435 C 748.334 500.43 747.052 524.598 742.44 548.236 Z"/>
    </g>
</svg>
