<svg width="256" height="256" xmlns="http://www.w3.org/2000/svg">
    <path fill="#1f2723" fill-rule="evenodd" stroke="none" d="M 22.57 85.45 C 20.15 87.39 20.15 91.079994 22.57 93.01 L 35.15 103.07 C 36.93 104.5 39.46 104.49 41.23 103.05 L 112.96 44.77 C 114.1 43.84 114.75 42.46 114.75 41.01 L 114.75 21.78 C 114.75 17.72 110.05001 15.46 106.88 18 C 106.88 18 22.57 85.45 22.57 85.45 Z M 44.23 144.22 C 42.46 145.66 39.93 145.67 38.15 144.24 L 26.59 135 C 24.180002 133.07 24.17 129.4 26.549997 127.46001 L 106.83999 62.23 C 110 59.65 114.74 61.91 114.74 65.99 L 114.74 84.62 C 114.74 86.08 114.08 87.47 112.95 88.38 L 44.209995 144.22 L 44.22 144.22 Z M 29.56 168.62 C 27.16 170.56 27.17 174.24 29.6 176.16 L 106.89001 237.99 C 110.06 240.53 114.759995 238.27002 114.759995 234.20999 L 114.759995 109.59 C 114.759995 105.51 110.03 103.25 106.86 105.83 L 29.57 168.62 L 29.57 168.62 Z M 124.44 232.58998 C 124.44 236.91 129.66 239.07 132.71 236.02 L 237.3 131.43 C 239.2 129.53 239.2 126.47 237.3 124.58 L 132.71 19.99 C 129.65 16.93 124.44 19.1 124.44 23.420002 L 124.44 232.62 L 124.44 232.6 Z"/>
</svg>
