<svg width="500" height="500" xmlns="http://www.w3.org/2000/svg">
    <path fill="#000000" stroke="none" d="M 500 250 C 500 388.07117 388.07117 500 250 500 C 111.92881 500 0 388.07117 0 250 C -0 111.92881 111.92881 0 250 0 C 388.07117 0 500 111.92881 500 250 Z"/>
    <path fill="#ffffff" stroke="none" d="M 249.03201 89.8438 L 249.03201 249.39499 L 214.606 249.39499 L 214.606 149.427 L 180.18 169.288 L 161.643 179.881 L 145.754 189.149 L 145.754 308.978 L 161.643 318.246 L 180.18 328.839 L 180.18 248.733 L 214.606 248.733 L 214.606 388.422 L 211.958 387.09802 L 180.18 368.56097 L 152.374 352.672 L 145.754 348.7 L 111.328 328.839 L 111.328 169.288 L 145.754 149.427 L 152.374 145.455 L 180.18 129.566 L 211.958 111.029 L 214.606 109.705 L 249.03201 89.8438 Z"/>
    <path fill="#ffffff" stroke="none" d="M 386.719 169.935 L 386.719 329.486 L 352.293 349.347 L 345.673 353.319 L 317.867 369.20798 L 286.09 387.74503 L 283.442 389.069 L 249.016 408.92996 L 249.016 249.379 L 283.442 249.379 L 283.442 349.347 L 317.867 329.486 L 336.404 318.893 L 352.293 309.625 L 352.293 189.796 L 336.404 180.52701 L 317.867 169.935 L 317.867 250.041 L 283.442 250.041 L 283.442 110.352 L 286.09 111.67601 L 317.867 130.213 L 345.673 146.102 L 352.293 150.074 L 386.719 169.935 Z"/>
</svg>
