<svg width="631.67" height="628.45" xmlns="http://www.w3.org/2000/svg">
    <path fill="#0e0e0f" stroke="none" d="M 314.22 0 L 317.44998 0 C 490.98886 0 631.67 140.68109 631.67 314.22 L 631.67 314.23 C 631.67 487.76892 490.98886 628.45 317.44998 628.45 L 314.22 628.45 C 140.68109 628.45 0 487.76892 0 314.23 L 0 314.22 C -0 140.68109 140.68109 0 314.22 0 Z"/>
    <path fill="#00a0d0" stroke="none" d="M 478.56 469.21 L 407.49 431.74997 L 407.49 216.25 L 478.56 250.19 Z"/>
    <path fill="#00a0d0" stroke="none" d="M 145.35 498.05002 L 216.61 465.82 L 216.61 281.38 L 145.35 315.31 Z"/>
    <path fill="#00a0d0" stroke="none" d="M 275.57 441.67 L 348.57 412.43002 L 348.57 70.07 L 275.57 102.31 Z"/>
</svg>
