<svg width="256" height="256" xmlns="http://www.w3.org/2000/svg">
    <defs>
        <clipPath id="clippath">
            <path fill="#000000" stroke="none" d="M 53.34 45.86 L 222.26999 45.86 L 222.26999 210.15 L 53.34 210.15 Z"/>
        </clipPath>
        <clipPath id="clippath-1">
            <path fill="#000000" stroke="none" d="M 53.34 45.86 L 222.26999 45.86 L 222.26999 210.15 L 53.34 210.15 Z"/>
        </clipPath>
    </defs>
    <g id="Layer_1-2">
        <g>
            <path fill="#6d3aec" stroke="none" d="M 256 128 C 256 198.69243 198.69243 256 128 256 C 57.307552 256 0 198.69243 0 128 C 0 57.307552 57.307552 0 128 0 C 198.69243 0 256 57.307552 256 128 Z"/>
            <g id="Artwork_2">
                <g clip-path="url(#clippath)">
                    <g clip-path="url(#clippath-1)">
                        <g>
                            <path fill="#ffffff" stroke="none" d="M 71.67 91.06 L 156.19 91.06 C 168.84 91.06 179.13 101.35 179.13 114 C 179.13 126.65 168.84 136.94 156.19 136.94 L 110.46 136.94 C 106.86 136.94 103.93 139.87 103.93 143.47 C 103.93 147.07 106.86 150 110.46 150 L 156.19 150 C 176.04 150 192.18999 133.85 192.18999 114 C 192.18999 94.15 176.04 78 156.19 78 L 71.67 78 C 68.07 78 65.14 80.93 65.14 84.53 C 65.14 88.13 68.07 91.06 71.67 91.06"/>
                            <path fill="#ffffff" stroke="none" d="M 156.19 47.93 L 123.41 47.93 C 119.81 47.93 116.88 50.86 116.88 54.460003 C 116.88 58.06 119.81 60.99 123.41 60.99 L 156.19 60.99 C 185.42 60.99 209.20001 84.77 209.20001 114 C 209.20001 143.23 185.42 167.01 156.19 167.01 L 72.92 167.01 C 69.32 167.01 66.39 169.94 66.39 173.53998 C 66.39 177.14 69.32 180.07 72.92 180.07 L 156.19 180.07 C 192.62 180.07 222.26 150.43 222.26 114 C 222.26 77.57 192.62 47.92 156.19 47.92"/>
                            <path fill="#ffffff" stroke="none" d="M 118.33 114 C 118.33 110.4 115.399994 107.47 111.8 107.47 L 95.88 107.47 C 92.28 107.47 89.35 110.4 89.35 114 C 89.35 117.6 92.24 120.53 94.63 120.53 L 110.55 120.53 C 115.14001 120.53 118.34 117.84 118.34 114"/>
                            <path fill="#ffffff" stroke="none" d="M 97.66 197.08 L 59.87 197.08 C 56.269997 197.08 53.34 200.01 53.34 203.61002 C 53.34 207.21 56.269997 210.14 59.87 210.14 L 97.66 210.14 C 101.26 210.14 104.19 207.21 104.19 203.61002 C 104.19 200.01 101.26 197.08 97.66 197.08"/>
                        </g>
                    </g>
                </g>
            </g>
        </g>
    </g>
</svg>
