<svg width="700" height="700" xmlns="http://www.w3.org/2000/svg">
    <g>
        <path fill="#020202" stroke="none" d="M 87.2 174.7 C 87.2 153.5 85.9 133 83.9 111.8 L 178.5 111.8 L 181.8 154.8 C 192.4 140.3 218.2 104.5 285 104.5 C 361.80002 104.5 383.60004 151.5 390.19998 167.4 C 418 113.80001 463 105.2 497.40002 105.2 C 564.9 105.2 592.1 145.6 599.3 158.8 C 617.2 187.89998 615.8 228.3 615.8 257.4 L 615.8 440.50003 L 517.2 440.50003 L 517.2 249.5 C 517.2 213.7 511.89996 174 460.9 174 C 402.3 174 401 229 401 278.6 L 401 440.50003 L 302.4 440.50003 L 302.4 247.5 C 302.4 221.7 301.7 174 247.5 174 C 185.9 174 185.9 227 185.9 249.5 L 185.9 440.50003 L 87.2 440.50003 L 87.2 174.7 Z"/>
        <path fill="#020202" stroke="none" d="M 83.9 514 L 616.1 514 L 616.1 595.5 L 83.9 595.5 L 83.9 514 Z"/>
    </g>
</svg>
