<svg width="1080" height="1080" xmlns="http://www.w3.org/2000/svg">
    <g transform="matrix(1.3333334 0 0 1.3333334 0 0)">
        <path fill="#004aad" stroke="none" d="M 810 405 C 810 411.6289 809.836 418.2539 809.5117 424.87106 C 809.1875 431.4922 808.6992 438.10156 808.0508 444.6953 C 807.39844 451.29297 806.5898 457.87106 805.6172 464.42578 C 804.64453 470.9805 803.5117 477.51172 802.21875 484.01172 C 800.9258 490.51172 799.47266 496.97656 797.8633 503.40625 C 796.2539 509.8359 794.48444 516.22266 792.5625 522.5664 C 790.6367 528.90625 788.55853 535.1992 786.3242 541.4414 C 784.09375 547.6797 781.70703 553.8633 779.1718 559.9883 C 776.6328 566.1094 773.9492 572.16797 771.11725 578.16016 C 768.28125 584.15234 765.30084 590.0703 762.1797 595.91406 C 759.0547 601.7617 755.78906 607.52734 752.3789 613.21094 C 748.9727 618.89844 745.4258 624.4961 741.7461 630.0039 C 738.0625 635.5156 734.2461 640.9336 730.3007 646.2578 C 726.35156 651.58203 722.2734 656.8047 718.0703 661.9297 C 713.8632 667.0547 709.53516 672.0703 705.08594 676.98047 C 700.6328 681.8906 696.06635 686.6914 691.3789 691.3789 C 686.6914 696.06635 681.8906 700.6328 676.98047 705.08594 C 672.0703 709.53516 667.0547 713.8632 661.9297 718.0703 C 656.8047 722.2734 651.58203 726.35156 646.2578 730.3007 C 640.9336 734.2461 635.5156 738.0625 630.0039 741.7461 C 624.4961 745.4258 618.89844 748.9727 613.21094 752.3789 C 607.52734 755.78906 601.7617 759.0547 595.91406 762.1797 C 590.0703 765.30084 584.15234 768.28125 578.16016 771.11725 C 572.16797 773.9492 566.1094 776.6328 559.9883 779.1718 C 553.8633 781.70703 547.6797 784.09375 541.4414 786.3242 C 535.1992 788.55853 528.90625 790.6367 522.5664 792.5625 C 516.22266 794.48444 509.8359 796.2539 503.40625 797.8633 C 496.97656 799.47266 490.51172 800.9258 484.01172 802.21875 C 477.51172 803.5117 470.9805 804.64453 464.42578 805.6172 C 457.87106 806.5898 451.29297 807.39844 444.6953 808.0508 C 438.10156 808.6992 431.4922 809.1875 424.87106 809.5117 C 418.2539 809.836 411.6289 810 405 810 C 398.3711 810 391.74612 809.836 385.1289 809.5117 C 378.50778 809.1875 371.89844 808.6992 365.30466 808.0508 C 358.70703 807.39844 352.1289 806.5898 345.57425 805.6172 C 339.01953 804.64453 332.48828 803.5117 325.98828 802.21875 C 319.48828 800.9258 313.02344 799.47266 306.59375 797.8633 C 300.16406 796.2539 293.77734 794.48444 287.4336 792.5625 C 281.09375 790.6367 274.80078 788.55853 268.5586 786.3242 C 262.3203 784.09375 256.13672 781.70703 250.0117 779.1718 C 243.89063 776.6328 237.83203 773.9492 231.83984 771.11725 C 225.84767 768.28125 219.92969 765.30084 214.08594 762.1797 C 208.23828 759.0547 202.47266 755.78906 196.78906 752.3789 C 191.10156 748.9727 185.5039 745.4258 179.99219 741.7461 C 174.48438 738.0625 169.0664 734.2461 163.74219 730.3007 C 158.41797 726.35156 153.19531 722.2734 148.07031 718.0703 C 142.94531 713.8632 137.92969 709.53516 133.01953 705.08594 C 128.10938 700.6328 123.30859 696.06635 118.62109 691.3789 C 113.9336 686.6914 109.36718 681.8906 104.91406 676.98047 C 100.46484 672.0703 96.13671 667.0547 91.929695 661.9297 C 87.72656 656.8047 83.64844 651.58203 79.69922 646.2578 C 75.75391 640.9336 71.9375 635.5156 68.25391 630.0039 C 64.57422 624.4961 61.027344 618.89844 57.621094 613.21094 C 54.210938 607.52734 50.945313 601.7617 47.820313 595.91406 C 44.69922 590.0703 41.71875 584.15234 38.882813 578.16016 C 36.05078 572.16797 33.367188 566.1094 30.828125 559.9883 C 28.292969 553.8633 25.90625 547.6797 23.675781 541.4414 C 21.441406 535.1992 19.363281 528.90625 17.4375 522.5664 C 15.515625 516.22266 13.746094 509.8359 12.13672 503.40625 C 10.527344 496.97656 9.074219 490.51172 7.78125 484.01172 C 6.488281 477.51172 5.355469 470.9805 4.382812 464.42578 C 3.4101563 457.87106 2.601562 451.29297 1.949219 444.6953 C 1.300781 438.10156 0.8125 431.4922 0.488281 424.87106 C 0.164062 418.2539 0 411.6289 0 405 C 0 398.3711 0.164062 391.74612 0.488281 385.1289 C 0.8125 378.50778 1.300781 371.89844 1.949219 365.30466 C 2.601562 358.70703 3.4101563 352.1289 4.382812 345.57425 C 5.355469 339.01953 6.488281 332.48828 7.78125 325.98828 C 9.074219 319.48828 10.527344 313.02344 12.13672 306.59375 C 13.746094 300.16406 15.515625 293.77734 17.4375 287.4336 C 19.363281 281.09375 21.441406 274.80078 23.675781 268.5586 C 25.90625 262.3203 28.292969 256.13672 30.828125 250.0117 C 33.367188 243.89063 36.05078 237.83203 38.882813 231.83984 C 41.71875 225.84767 44.69922 219.92969 47.820313 214.08594 C 50.945313 208.23828 54.210938 202.47266 57.621094 196.78906 C 61.027344 191.10156 64.57422 185.5039 68.25391 179.99219 C 71.9375 174.48438 75.75391 169.0664 79.69922 163.74219 C 83.64844 158.41797 87.72656 153.19531 91.929695 148.07031 C 96.13671 142.94531 100.46484 137.92969 104.91406 133.01953 C 109.36718 128.10938 113.9336 123.30859 118.62109 118.62109 C 123.30859 113.9336 128.10938 109.36718 133.01953 104.91406 C 137.92969 100.46484 142.94531 96.13671 148.07031 91.929695 C 153.19531 87.72656 158.41797 83.64844 163.74219 79.69922 C 169.0664 75.75391 174.48438 71.9375 179.99219 68.25391 C 185.5039 64.57422 191.10156 61.027344 196.78906 57.621094 C 202.47266 54.210938 208.23828 50.945313 214.08594 47.820313 C 219.92969 44.69922 225.84767 41.71875 231.83984 38.882813 C 237.83203 36.05078 243.89063 33.367188 250.0117 30.828125 C 256.13672 28.292969 262.3203 25.90625 268.5586 23.675781 C 274.80078 21.441406 281.09375 19.363281 287.4336 17.4375 C 293.77734 15.515625 300.16406 13.746094 306.59375 12.13672 C 313.02344 10.527344 319.48828 9.074219 325.98828 7.78125 C 332.48828 6.488281 339.01953 5.355469 345.57425 4.382812 C 352.1289 3.4101563 358.70703 2.601562 365.30466 1.949219 C 371.89844 1.300781 378.50778 0.8125 385.1289 0.488281 C 391.74612 0.164062 398.3711 0 405 0 C 411.6289 0 418.2539 0.164062 424.87106 0.488281 C 431.4922 0.8125 438.10156 1.300781 444.6953 1.949219 C 451.29297 2.601562 457.87106 3.4101563 464.42578 4.382812 C 470.9805 5.355469 477.51172 6.488281 484.01172 7.78125 C 490.51172 9.074219 496.97656 10.527344 503.40625 12.13672 C 509.8359 13.746094 516.22266 15.515625 522.5664 17.4375 C 528.90625 19.363281 535.1992 21.441406 541.4414 23.675781 C 547.6797 25.90625 553.8633 28.292969 559.9883 30.828125 C 566.1094 33.367188 572.16797 36.05078 578.16016 38.882813 C 584.15234 41.71875 590.0703 44.69922 595.91406 47.820313 C 601.7617 50.945313 607.52734 54.210938 613.21094 57.621094 C 618.89844 61.027344 624.4961 64.57422 630.0039 68.25391 C 635.5156 71.9375 640.9336 75.75391 646.2578 79.69922 C 651.58203 83.64844 656.8047 87.72656 661.9297 91.929695 C 667.0547 96.13671 672.0703 100.46484 676.98047 104.91406 C 681.8906 109.36718 686.6914 113.9336 691.3789 118.62109 C 696.06635 123.30859 700.6328 128.10938 705.08594 133.01953 C 709.53516 137.92969 713.8632 142.94531 718.0703 148.07031 C 722.2734 153.19531 726.35156 158.41797 730.3007 163.74219 C 734.2461 169.0664 738.0625 174.48438 741.7461 179.99219 C 745.4258 185.5039 748.9727 191.10156 752.3789 196.78906 C 755.78906 202.47266 759.0547 208.23828 762.1797 214.08594 C 765.30084 219.92969 768.28125 225.84767 771.11725 231.83984 C 773.9492 237.83203 776.6328 243.89063 779.1718 250.0117 C 781.70703 256.13672 784.09375 262.3203 786.3242 268.5586 C 788.55853 274.80078 790.6367 281.09375 792.5625 287.4336 C 794.48444 293.77734 796.2539 300.16406 797.8633 306.59375 C 799.47266 313.02344 800.9258 319.48828 802.21875 325.98828 C 803.5117 332.48828 804.64453 339.01953 805.6172 345.57425 C 806.5898 352.1289 807.39844 358.70703 808.0508 365.30466 C 808.6992 371.89844 809.1875 378.50778 809.5117 385.1289 C 809.836 391.74612 810 398.3711 810 405 Z M 810 405"/>
        <path fill="#ffffff" stroke="none" d="M 428.04688 498.39453 C 432.64063 498.39453 436.5039 496.78906 439.6602 493.60938 C 442.81638 490.4297 444.41016 486.53906 444.41016 481.875 C 444.41016 477.52344 442.81638 473.78906 439.6602 470.60938 C 436.5039 467.42972 432.61328 465.8203 428.04688 465.8203 L 381.96094 465.8203 C 343.78125 465.8203 311.1797 452.3008 284.1875 425.25388 C 257.16016 398.20703 243.67969 365.29688 243.67969 326.51953 C 243.67969 287.7422 257.16016 255.63281 284.15625 228.4336 C 311.15234 201.23438 343.7539 187.64844 381.9297 187.64844 L 566.2969 187.64844 L 566.2969 240.59764 L 381.9297 240.59764 C 358.3672 240.59764 338.20703 248.99608 321.41406 265.7578 C 304.625 282.5547 296.22656 302.8086 296.22656 326.51953 C 296.22656 350.2305 304.625 370.57816 321.41406 387.4961 C 338.20703 404.41406 358.3672 412.875 381.9297 412.875 L 428.01563 413.30466 C 446.95316 413.30466 463.1914 420.0352 476.67188 433.4961 C 490.15625 446.95703 496.92578 463.07422 496.92578 481.875 C 496.92578 500.6797 490.1875 517.3203 476.67188 530.90625 C 463.16016 544.4883 446.95316 551.3125 428.01563 551.3125 L 243.67969 551.3125 L 243.67969 498.36328 L 428.04688 498.36328 Z M 428.04688 621.64453 L 243.67969 621.64453 L 243.67969 568.6953 L 428.04688 568.6953 C 451.57816 568.6953 471.76953 560.2344 488.56247 543.3164 C 505.35547 526.39844 513.75 506.05075 513.75 482.33984 C 513.75 458.6289 505.35547 438.375 488.56247 421.57813 C 471.76953 404.78516 451.57816 396.41797 428.04688 396.41797 L 381.96094 396.41797 C 363.02734 396.41797 346.78513 389.625 333.3047 376.01175 C 319.8203 362.42578 313.05078 346.06253 313.05078 326.98438 C 313.05078 307.90234 319.79297 291.97266 333.3047 278.38672 C 346.78513 265.08203 363.02734 258.28906 381.96094 257.98047 L 566.3281 257.98047 L 566.3281 310.4961 L 381.9297 310.4961 C 377.33594 310.4961 373.47266 312.10156 370.3203 315.28125 C 367.16406 318.46094 365.57028 322.3828 365.57028 327.01172 C 365.57028 331.64453 367.16406 335.53516 370.3203 338.71484 C 373.47266 341.89453 377.33594 343.5 381.9297 343.5 L 428.01563 343.5 C 465.91794 343.5 498.42972 357.0859 525.5781 384.28516 C 552.72266 411.48438 566.26953 444.1797 566.26953 482.3711 C 566.26953 520.5625 552.6953 554.0586 525.5781 581.10547 C 498.42972 608.15234 465.91794 621.6719 428.01563 621.6719 Z M 428.04688 621.64453"/>
    </g>
</svg>
