<svg width="1000" height="1000" xmlns="http://www.w3.org/2000/svg">
    <path fill="#014f59" stroke="none" d="M 1000 500 C 1000 776.142 776.142 1000 500 1000 C 223.85799 1000 0 776.142 0 500 C 0 223.85799 223.85799 0 500 0 C 776.142 0 1000 223.85799 1000 500 Z"/>
    <path fill="#00ff9c" stroke="none" d="M 295.571 637.216 C 310.463 708.667 372.85803 765.593 453.03897 781.953 L 453.03897 860.855 L 546.994 860.855 L 546.994 782.14606 C 639.657 763.638 708.806 691.012 708.806 604.236 C 708.806 557.374 700.547 528.748 674.876 500.184 C 644.781 461.67096 598.06 437.90097 547.469 428.884 L 547.469 483.837 L 420.631 395.48 L 453.513 372.648 L 547.469 307.416 L 547.469 363.26602 C 547.473 363.257 548.41 362.784 704.937 362.784 C 690.047 291.333 627.65 234.408 547.469 218.04498 L 547.469 139.146 L 453.513 139.146 L 453.513 217.855 C 360.851 236.361 291.703 308.989 291.703 395.765 C 291.703 442.62704 299.963 471.253 325.631 499.817 C 355.729 538.328 402.449 562.099 453.03897 571.117 L 453.03897 516.163 L 579.877 604.52 L 546.994 627.351 L 453.03897 692.584 L 453.03897 636.735 C 453.035 636.743 452.099 637.216 295.571 637.216 Z"/>
    <path fill="none" stroke="#00ff9c" stroke-width="62.1339" d="M 933.38196 501.58 C 933.38196 615.87714 887.97766 725.4929 807.15735 806.31335 C 726.33704 887.1336 616.7212 932.53796 502.424 932.53796 C 388.12683 932.53796 278.511 887.1336 197.69069 806.31335 C 116.87039 725.4929 71.46601 615.87714 71.466 501.58 C 71.466 387.2828 116.87038 277.66696 197.69069 196.84668 C 278.511 116.026344 388.12683 70.62198 502.424 70.62198 C 616.7212 70.62198 726.33704 116.026344 807.15735 196.84668 C 887.97766 277.66696 933.38196 387.2828 933.38196 501.58 Z"/>
</svg>
