<svg width="60" height="60" xmlns="http://www.w3.org/2000/svg">
    <defs>
        <clipPath id="b">
            <path fill="#000000" stroke="none" d="M 0 0 L 60 0 L 60 60 L 0 60 Z"/>
        </clipPath>
    </defs>
    <g clip-path="url(#b)">
        <path fill="#ffffff" stroke="none" d="M 60 30 C 60 46.56854 46.56854 60 30 60 C 13.4314575 60 0 46.56854 0 30 C -0 13.4314575 13.4314575 0 30 0 C 46.56854 0 60 13.4314575 60 30 Z"/>
        <path fill="#000000" stroke="none" d="M 39.32 13.475 L 38.564 17.244 L 33.127 17.244 L 32.373 13.475 L 27.824 13.475 L 27.07 17.244 L 22.288998 17.244 L 21.534 13.475 L 16.125 13.475 L 17.104 23.425999 L 42.889 23.425999 L 43.875 13.45 Z M 17.398 25.346003 L 17.53 27.264997 L 18.034 32.731 L 18.055 32.978 L 18.056 32.974 L 18.97 42.888 L 29.98 52.55 L 30 52.439 L 30.02 52.55 L 41.032 42.888 L 42.471 27.264 L 42.598 25.44 L 42.631 25.345 L 17.398 25.345 Z M 20.816 29.27 L 27.582 29.27 L 27.582 46.25 L 21.832 41.012 L 20.816 29.27 Z M 32.623 46.064 L 32.623 29.27 L 39.185 29.27 L 38.167 41.012 L 32.623 46.064 Z"/>
    </g>
</svg>
