<svg width="256" height="256" xmlns="http://www.w3.org/2000/svg">
    <path id="clear-space" fill="#2d8eff" stroke="none" d="M 0 0 L 256 0 L 256 256 L 0 256 Z"/>
    <g id="Logo">
        <path fill="#ffffff" stroke="none" d="M 63 46.5 L 63 161.6 C 63 165.7 66.3 169.1 70.5 169.1 L 70.5 169.1 L 185.6 169.1 C 189.7 169.1 193.1 165.8 193.1 161.6 L 193.1 161.6 L 193.1 46.5 C 193.1 42.4 189.8 39 185.6 39 L 185.6 39 L 70.5 39 C 66.3 39 63 42.3 63 46.5 L 63 46.5 Z M 170.2 153.7 L 85.6 153.7 C 81.5 153.7 78.1 150.4 78.1 146.2 L 78.1 61.6 C 78.1 57.5 81.4 54.1 85.6 54.1 L 85.6 54.1 L 170.2 54.1 C 174.3 54.1 177.7 57.4 177.7 61.6 L 177.7 61.6 L 177.7 146.2 C 177.7 150.4 174.4 153.7 170.2 153.7 Z"/>
        <path fill="#ffffff" stroke="none" d="M 118.50001 129.2 L 168.3 129.2 L 168.3 144.5 L 118.50001 144.5 Z"/>
        <path fill="#ffffff" stroke="none" d="M 108.9 119.6 L 121.6 119.6 C 125.2 119.6 128.8 118.8 132.1 117.299995 C 135.2 115.8 138 113.6 140.2 111 C 142.5 108.3 144.2 105.2 145.4 101.9 C 146.6 98.50001 147.3 95 147.3 91.399994 C 147.3 87.90001 146.6 84.4 145.3 81.2 C 144 77.9 142.1 74.9 139.8 72.3 C 137.5 69.7 134.7 67.5 131.5 65.9 C 128.3 64.2 124.7 63.4 121 63.4 L 87.6 63.4 L 87.6 144.2 L 108.9 144.2 L 108.9 119.6 Z M 108.9 83.1 L 119.7 83.1 C 121.2 83.2 122.6 83.9 123.6 85 C 124.8 86.19999 125.6 88.4 125.6 91.90001 C 125.6 95.399994 124.8 97.4 123.7 98.50001 C 122.8 99.6 121.49999 100.3 120.09999 100.4 L 108.8 100.4 L 108.9 83.1 L 108.9 83.1 Z"/>
    </g>
    <g id="Presearch">
        <path fill="#ffffff" stroke="none" d="M 227.60002 208.19998 C 227.4 207.1 227 206.1 226.5 205.2 C 225.9 204.3 225.20001 203.60002 224.30002 203.2 C 223.2 202.7 222 202.4 220.8 202.5 C 219 202.5 217.20001 203 215.69998 203.89998 C 214.1 204.90001 212.8 206.2 212 207.80002 L 212 193.7 L 208.19998 193.7 L 208.19998 225.8 L 212.10002 225.8 L 212.10002 211.89998 C 212.39998 211 212.8 210.2 213.3 209.5 C 213.8 208.8 214.4 208.19998 215.1 207.6 C 215.80002 207.1 216.5 206.6 217.3 206.3 C 218 206 218.8 205.8 219.60002 205.8 C 221 205.7 222.4 206.4 223.2 207.6 C 224 208.70001 224.4 210.5 224.4 212.90001 L 224.4 225.7 L 228.10002 225.7 L 228.10002 212.10002 C 228 210.8 227.89998 209.5 227.60002 208.19998 Z"/>
        <path fill="#ffffff" stroke="none" d="M 111.1 215 C 110.19999 214.4 109.299995 214 108.3 213.7 C 107.1 213.40001 105.9 213 104.3 212.6 C 103.399994 212.39998 102.50001 212.10002 101.80001 211.89998 C 101.2 211.7 100.600006 211.49998 100.09999 211.2 C 99.7 211 99.399994 210.7 99.2 210.2 C 98.6 208.70001 99.1 206.9 100.4 206 C 101.49999 205.40001 102.700005 205.1 104 205.1 C 105.299995 205.1 106.50001 205.3 107.7 205.7 C 108.9 206.1 110 206.79999 111 207.6 L 112.8 205.3 C 111.7 204.3 110.4 203.60002 109 203.09999 C 107.5 202.5 105.80001 202.3 104.2 202.3 C 103 202.3 101.9 202.5 100.7 202.8 C 99.7 203.09999 98.8 203.49998 97.9 204.2 C 96.2 205.40001 95.3 207.4 95.3 209.5 C 95.3 210.3 95.399994 211.09999 95.7 211.8 C 96 212.50002 96.5 213 97.1 213.40001 C 97.9 213.9 98.700005 214.3 99.5 214.6 C 100.5 214.9 101.7 215.29999 103.1 215.6 C 104.2 215.9 105.1 216.1 105.9 216.30002 C 106.6 216.5 107.3 216.8 107.90001 217.1 C 108.4 217.4 108.8 217.7 109.1 218.1 C 109.4 218.5 109.49999 219 109.49999 219.49998 C 109.6 220.6 109 221.7 108 222.3 C 106.8 223 105.4 223.4 104 223.29999 C 102.50001 223.29999 101.1 223 99.7 222.6 C 98.19999 222 96.9 221.3 95.6 220.3 L 93.9 222.9 C 95.3 224 96.8 224.9 98.50001 225.4 C 100.3 226 102.1 226.3 104 226.3 C 106.8 226.3 109 225.7 110.6 224.4 C 112.2 223.1 113.1 221.2 113 219.2 C 113 218.4 112.8 217.5 112.5 216.8 C 112.4 216.1 111.8 215.4 111.1 215 Z"/>
        <path fill="#ffffff" stroke="none" d="M 179.2 202.5 C 177.7 202.59999 176.30002 203.2 175.1 204.10002 C 173.8 205.1 172.7 206.5 172 208 L 172 202.59999 L 168.4 202.59999 L 168.4 225.6 L 172.3 225.6 L 172.3 211.49998 C 172.8 209.9 173.9 208.5 175.29999 207.6 C 176.8 206.6 178.59999 206.1 180.50002 206.1 L 180.50002 202.5 C 180.3 202.5 180.2 202.4 180 202.4 L 179.2 202.5 Z"/>
        <path fill="#ffffff" stroke="none" d="M 162.1 221 L 162.1 211.60002 C 162.1 208.70001 161.3 206.4 159.6 204.7 C 157.9 203.09999 155.6 202.3 152.5 202.3 C 149.3 202.4 146.2 203.4 143.5 205.3 L 144.8 207.80002 C 147.4 206 149.7 205.1 152.1 205.1 C 155.1 204.8 157.9 207 158.2 210 C 158.3 210.4 158.3 210.8 158.2 211.2 L 158.2 213 C 157.2 212.6 156.2 212.3 155.1 212.2 C 154 212 152.8 211.89998 151.7 211.89998 C 150.4 211.89998 149.1 212.10002 147.8 212.39998 C 146.7 212.7 145.7 213.2 144.7 213.8 C 143.9 214.4 143.2 215.1 142.7 216 C 142.2 216.9 142 217.9 142 218.8 C 142 219.8 142.2 220.8 142.6 221.6 C 143 222.5 143.5 223.2 144.2 223.80002 C 144.9 224.5 145.7 225 146.7 225.3 C 147.6 225.6 148.6 225.8 149.7 225.8 C 151.4 225.8 153.1 225.5 154.7 224.70001 C 156.2 224 157.6 223 158.6 221.6 L 158.7 223.2 C 158.8 223.80002 159.1 224.4 159.5 224.8 C 160 225.3 160.7 225.5 161.3 225.5 C 161.5 225.7 161.8 225.7 162.1 225.6 L 163.1 225.5 L 163.1 222.2 C 162.5 222.4 162.1 221.9 162.1 221 Z M 158.2 218.7 C 158.2 219.3 157.9 220 157.4 220.39998 C 156.7 221.3 155.8 222 154.7 222.4 C 153.5 223 152.2 223.2 150.8 223.1 C 150.1 223.1 149.5 223 148.8 222.79999 C 148.2 222.6 147.7 222.3 147.2 221.9 C 146.7 221.5 146.4 221 146.1 220.50002 C 145.8 219.89998 145.7 219.3 145.8 218.7 C 145.8 217.4 146.5 216.19998 147.6 215.5 C 149 214.6 150.7 214.2 152.3 214.3 C 154.3 214.3 156.3 214.7 158.1 215.4 L 158.2 218.7 Z"/>
        <path fill="#ffffff" stroke="none" d="M 199.1 220.6 C 198.7 221 198.2 221.40001 197.7 221.7 C 197.1 222.1 196.50002 222.3 195.89998 222.4 C 195.2 222.6 194.59999 222.7 193.9 222.7 C 192.9 222.7 191.9 222.5 190.9 222 C 190 221.6 189.1 220.90001 188.50002 220.2 C 187.8 219.4 187.2 218.4 186.9 217.4 L 186.9 217.6 C 186.1 215.4 186.1 213 186.9 210.8 C 187.2 209.8 187.8 208.9 188.50002 208.1 C 189.2 207.29999 190 206.7 190.9 206.3 C 191.80002 205.9 192.8 205.7 193.9 205.7 C 195.09999 205.7 196.39998 206 197.5 206.6 C 198.5 207.2 199.4 208.1 199.9 209.1 L 203.7 207.9 C 202.9 206.2 201.6 204.8 200 203.8 C 198.2 202.8 196.2 202.2 194.1 202.3 C 192.5 202.3 190.9 202.59999 189.40001 203.2 C 188 203.8 186.8 204.7 185.7 205.8 C 184.70001 206.9 183.9 208.19998 183.29999 209.5 C 182.1 212.39998 182.1 215.69998 183.29999 218.7 C 185 223.2 189.3 226.1 194.1 226.1 C 196.2 226.1 198.4 225.6 200.19998 224.5 C 201 224 201.8 223.4 202.4 222.7 C 203 222 203.49998 221.2 203.89998 220.39998 L 200.1 219.3 C 199.80002 219.7 199.5 220.2 199.1 220.6 Z"/>
        <path fill="#ffffff" stroke="none" d="M 136.5 205.9 C 134.3 203.60002 131.3 202.3 128.2 202.3 C 126.6 202.3 125 202.59999 123.5 203.2 C 122.1 203.8 120.8 204.7 119.8 205.8 C 117.6 208.1 116.5 211.09999 116.5 214.2 C 116.5 215.80002 116.8 217.3 117.4 218.8 C 117.9 220.2 118.700005 221.5 119.8 222.6 C 120.9 223.69998 122.1 224.6 123.5 225.20001 C 125 225.8 126.6 226.1 128.2 226.2 C 129.3 226.2 130.4 226.1 131.5 225.8 C 132.5 225.5 133.5 225.1 134.4 224.6 C 135.3 224.1 136 223.5 136.7 222.79999 C 137.3 222.1 137.9 221.3 138.3 220.50002 L 135 219.60002 C 134.8 220.2 134.4 220.7 134 221.2 C 133.5 221.7 133 222.1 132.4 222.4 C 131.8 222.7 131.2 223 130.5 223.1 C 129.8 223.29999 129.2 223.4 128.5 223.4 C 127.5 223.4 126.6 223.2 125.7 222.9 C 124.8 222.5 124 222 123.3 221.3 C 122.6 220.6 122 219.8 121.6 218.9 C 121.1 217.9 120.9 216.9 120.8 215.80002 L 139.9 215.80002 L 139.9 214 C 139.9 212.50002 139.6 211 139.1 209.6 C 138.3 208.30002 137.5 207 136.5 205.9 Z M 120.4 212.7 C 120.5 211.7 120.7 210.7 121.1 209.7 C 121.49999 208.8 122.1 208 122.8 207.29999 C 123.5 206.6 124.3 206.1 125.2 205.7 C 128 204.6 131.2 205.1 133.4 207.2 C 134.1 207.9 134.7 208.70001 135.1 209.6 C 135.6 210.59999 135.8 211.60002 136 212.6 L 120.4 212.7 Z"/>
        <path fill="#ffffff" stroke="none" d="M 47.8 197.7 C 47 196.8 46 196 44.8 195.4 C 43.6 194.8 42.3 194.5 41 194.5 L 28 194.5 L 28 225.8 L 31.9 225.8 L 31.9 214.6 L 41.3 214.6 C 42.6 214.6 43.9 214.3 45 213.8 C 46.1 213.3 47.099995 212.50002 47.9 211.60002 C 48.7 210.7 49.3 209.5 49.699997 208.30002 C 50.2 207.1 50.4 205.8 50.4 204.6 C 50.4 203.3 50.2 202.1 49.699997 200.9 C 49.3 199.69998 48.6 198.6 47.8 197.7 Z M 46 207 C 45.699997 207.80002 45.4 208.5 44.900005 209.1 C 44.5 209.7 43.9 210.2 43.2 210.5 C 42.5 210.9 41.7 211 41 211 L 31.9 211 L 31.9 198 L 40.7 198 C 41.4 198 42.2 198.1 42.9 198.5 C 45.2 199.6 46.6 201.9 46.5 204.50002 C 46.4 205.40001 46.300003 206.2 46 207 L 46 207 Z"/>
        <path fill="#ffffff" stroke="none" d="M 65.7 202.59999 C 64.2 202.7 62.8 203.3 61.6 204.2 C 60.300003 205.2 59.2 206.6 58.5 208.1 L 58.5 202.7 L 54.900005 202.7 L 54.900005 225.7 L 58.8 225.7 L 58.8 211.49998 C 59.4 209.9 60.5 208.5 61.9 207.6 C 63.5 206.6 65.2 206.1 67.1 206.1 L 67.1 202.5 C 66.9 202.5 66.8 202.4 66.6 202.4 L 65.7 202.59999 Z"/>
        <path fill="#ffffff" stroke="none" d="M 91.90001 214.9 L 91.90001 214 C 91.90001 212.50002 91.6 211 91.1 209.6 C 90.6 208.19998 89.80001 207 88.8 205.9 C 86.6 203.60002 83.6 202.3 80.5 202.3 C 78.9 202.3 77.3 202.59999 75.8 203.2 C 73 204.39998 70.8 206.7 69.7 209.6 C 69.1 211.09999 68.8 212.6 68.8 214.2 C 68.8 215.80002 69.1 217.3 69.7 218.8 C 70.2 220.2 71 221.5 72.1 222.6 C 73.2 223.69998 74.4 224.6 75.8 225.20001 C 77.3 225.8 78.9 226.1 80.5 226.2 C 81.6 226.2 82.7 226.1 83.8 225.8 C 84.8 225.5 85.8 225.1 86.700005 224.6 C 87.6 224.1 88.3 223.5 89 222.79999 C 89.6 222.1 90.19999 221.3 90.6 220.50002 L 87.3 219.60002 C 87.1 220.2 86.700005 220.7 86.3 221.2 C 85.8 221.7 85.3 222.1 84.7 222.4 C 84.1 222.7 83.5 223 82.8 223.1 C 82.1 223.29999 81.4 223.4 80.8 223.4 C 79.8 223.4 78.9 223.2 78 222.9 C 77.1 222.5 76.3 222 75.6 221.3 C 74.9 220.6 74.3 219.8 73.9 218.9 C 73.4 217.9 73.2 216.9 73.1 215.80002 L 92.2 215.80002 C 91.90001 215.5 91.8 215.2 91.90001 214.9 Z M 72.7 212.7 C 72.8 211.7 73 210.7 73.4 209.7 C 73.8 208.8 74.4 208 75.1 207.29999 C 75.8 206.6 76.6 206.1 77.5 205.7 C 80.3 204.6 83.5 205.1 85.7 207.2 C 86.4 207.9 87 208.70001 87.399994 209.6 C 87.8 210.59999 88.09999 211.60002 88.3 212.6 L 72.7 212.7 Z"/>
    </g>
</svg>
