<svg width="1001" height="1001" xmlns="http://www.w3.org/2000/svg">
    <path fill="#ffffff" stroke="none" d="M 129.388 303.711 L 488.346 91.16989 L 847.3041 284.818 L 847.3041 731.9409 L 497.792 928.7379 L 112.07 716.19696 L 129.388 303.711 Z"/>
    <path fill="#000000" fill-rule="evenodd" stroke="none" d="M 512.998 985.794 L 918.533 750.64404 C 921.67 748.825 924.2739 746.2131 926.08203 743.071 C 927.891 739.9291 928.841 736.367 928.837 732.74207 L 927.865 264.117 C 927.855 260.489 926.891 256.928 925.069 253.791 C 923.248 250.653 920.634 248.04898 917.4879 246.23901 L 510.981 12.8134 C 507.83698 10.9991 504.27103 10.044 500.64096 10.044 C 497.011 10.044 493.445 10.9991 490.301 12.8134 L 84.7654 247.98799 C 81.6262 249.803 79.0223 252.41399 77.2172 255.55699 C 75.4122 258.701 74.4699 262.265 74.486 265.89 L 75.4581 734.515 C 75.4604 738.141 76.4213 741.702 78.2435 744.837 C 80.0658 747.9719 82.6845 750.57007 85.8347 752.3679 L 492.34204 985.794 C 495.481 987.609 499.04404 988.564 502.67 988.564 C 506.296 988.564 509.859 987.609 512.998 985.794 Z M 627.577 427.564 L 805.923 322.898 C 807.476 321.979 808.763 320.67 809.65405 319.1 C 810.545 317.531 811.0101 315.756 811.003 313.951 C 810.995 312.146 810.516 310.375 809.612 308.813 C 808.708 307.25 807.41095 305.952 805.85 305.045 L 511.2 135.866 C 508.06003 134.052 504.498 133.096 500.87204 133.096 C 497.24496 133.096 493.683 134.052 490.544 135.866 L 191.42299 309.272 C 188.28 311.091 185.673 313.706 183.864 316.853 C 182.055 320 181.108 323.568 181.119 327.198 L 181.386 426.276 C 181.389 429.899 182.347 433.457 184.164 436.592 C 185.982 439.726 188.595 442.326 191.738 444.129 L 384.98 555.183 C 388.13202 556.991 390.752 559.598 392.574 562.741 C 394.39597 565.884 395.356 569.452 395.35696 573.084 L 395.35696 672.455 C 395.355 673.662 395.035 674.848 394.431 675.893 C 393.826 676.939 392.958 677.807 391.913 678.412 C 390.86697 679.017 389.681 679.337 388.473 679.34 C 387.265 679.343 386.077 679.029 385.029 678.43 L 294.653 626.522 C 292.56 625.295 290.829 623.536 289.634 621.425 C 288.439 619.314 287.823 616.924 287.849 614.499 L 287.728 581.902 C 287.713 578.245 286.729 574.658 284.877 571.505 C 283.024 568.352 280.369 565.745 277.181 563.951 L 196.64699 518.796 C 195.075 517.914 193.29901 517.459 191.496 517.476 C 189.693 517.493 187.926 517.981 186.36998 518.893 C 184.815 519.804 183.525 521.106 182.62901 522.671 C 181.734 524.235 181.26299 526.006 181.265 527.808 L 181.265 589.723 L 181.483 672.94 C 181.486 676.566 182.447 680.127 184.269 683.262 C 186.091 686.397 188.71 688.99493 191.86 690.793 L 481.723 856.74194 C 483.82 857.944 486.196 858.57294 488.614 858.566 C 491.031 858.56 493.404 857.91705 495.495 856.704 C 497.585 855.49 499.319 853.749 500.523 851.654 C 501.728 849.558 502.359 847.183 502.354 844.7671 L 501.868 510.805 C 501.86 507.177 500.897 503.615 499.07596 500.47702 C 497.254 497.339 494.639 494.735 491.49203 492.928 L 299.271 382.482 C 298.22 381.88 297.348 381.011 296.741 379.96402 C 296.134 378.917 295.814 377.728 295.814 376.518 C 295.814 375.308 296.134 374.12 296.741 373.07297 C 297.348 372.026 298.22 371.15704 299.271 370.555 L 490.908 259.745 C 494.05197 257.93 497.618 256.975 501.249 256.975 C 504.87897 256.975 508.445 257.93 511.58902 259.745 L 598.27 309.587 C 599.32 310.189 600.193 311.058 600.8 312.105 C 601.407 313.152 601.726 314.341 601.726 315.551 C 601.726 316.761 601.407 317.949 600.8 318.996 C 600.193 320.043 599.32 320.912 598.27 321.514 L 521.868 365.527 C 520.265 366.452 518.94 367.79 518.031 369.402 C 517.123 371.014 516.664 372.84 516.704 374.69 C 516.744 376.54 517.28 378.34503 518.257 379.91602 C 519.234 381.488 520.615 382.768 522.257 383.62302 L 607.602 428.07404 C 610.702 429.68704 614.161 430.486 617.656 430.397 C 621.149 430.308 624.564 429.333 627.577 427.564 Z"/>
    <path fill="#ff4f20" stroke="none" d="M 607.092 565.091 L 607.263 682.022 C 607.266 684.44 607.905 686.813 609.117 688.905 C 610.329 690.997 612.07 692.733 614.166 693.93896 C 616.261 695.146 618.638 695.779 621.056 695.777 C 623.475 695.774 625.85 695.135 627.943 693.924 L 729.035 635.313 C 732.169 633.487 734.769 630.87 736.57306 627.724 C 738.377 624.578 739.322 621.013 739.31396 617.387 L 739.07104 500.577 C 739.068 498.159 738.4279 495.786 737.217 493.694 C 736.005 491.602 734.264 489.866 732.168 488.66 C 730.072 487.453 727.69604 486.82 725.277 486.823 C 722.8591 486.825 720.484 487.464 718.391 488.675 L 617.396 547.189 C 614.254 549.002 611.647 551.612 609.837 554.756 C 608.028 557.899 607.081 561.464 607.092 565.091 Z"/>
</svg>
