<svg width="512" height="512" xmlns="http://www.w3.org/2000/svg">
    <g id="surface1">
        <path fill="#00bafe" stroke="none" d="M 0 0 C 168.96094 0 337.92188 0 512 0 C 512 168.96094 512 337.92188 512 512 C 343.03906 512 174.07811 512 0 512 C 0 343.03906 0 174.07811 0 0 Z M 0 0"/>
        <path fill="#000000" stroke="none" d="M 186.78516 144.11719 C 290.91797 144.11719 290.91797 144.11719 300.16406 145.86719 C 300.4414 145.91797 300.71875 145.97266 301.0078 146.02734 C 301.8086 146.17969 302.60547 146.33203 303.40625 146.48828 C 303.70313 146.54297 303.70313 146.54297 304.0078 146.60156 C 316.41406 148.95703 328.6328 154.8789 338.01563 163.32031 C 338.21875 163.5 338.21875 163.5 338.4297 163.6875 C 339.96875 165.0664 341.4297 166.46875 342.7539 168.0586 C 342.96875 168.30078 343.1797 168.53906 343.39453 168.78125 C 345.1836 170.79688 346.73828 172.91405 348.20703 175.17188 C 348.3711 175.41798 348.53125 175.66406 348.69925 175.92188 C 353.89453 184.08984 356.99222 193.43748 358.23828 203.00781 C 358.26953 203.23828 358.29688 203.46877 358.32813 203.70702 C 359.0078 208.97656 359.05472 214.1953 358.875 219.4961 C 358.8672 219.66406 358.8633 219.82813 358.85938 220 C 358.41797 234.3086 354.01566 249.07813 344.89063 260.26563 C 344.70703 260.4961 344.52344 260.72656 344.33594 260.96484 C 341.3203 264.67578 337.8672 268.13672 333.98438 270.9336 C 333.72266 271.1289 333.46484 271.32422 333.20313 271.52344 C 330.97656 273.1875 328.58984 274.5586 326.16406 275.91016 C 326.01172 275.9961 325.85938 276.08203 325.70313 276.17188 C 320.1328 279.33203 314.09375 281.4375 307.91016 283.02344 C 307.6836 283.08203 307.45703 283.14063 307.22266 283.19922 C 304.16797 283.97656 301.1289 284.63672 298.0078 285.07422 C 297.4297 285.16406 296.85156 285.27734 296.27344 285.38672 C 294.6172 285.6953 292.94922 285.84375 291.27344 286 C 290.96875 286.03125 290.66016 286.0586 290.34375 286.08984 C 289.5664 286.16406 288.78516 286.23438 288.0078 286.30078 C 287.59766 286.33594 287.1875 286.3711 286.77734 286.40625 C 283.4336 286.65625 280.07813 286.6211 276.72266 286.625 C 276.1797 286.625 275.6328 286.625 275.08984 286.6289 C 273.3711 286.6328 271.65625 286.6328 269.9414 286.6328 C 267.98047 286.63672 266.01563 286.64063 264.0547 286.64844 C 262.52344 286.65234 260.9961 286.65234 259.46484 286.65625 C 258.5586 286.65625 257.65234 286.65625 256.7422 286.66016 C 248.38281 286.69922 240.9375 286.1289 234.57033 280.11328 C 230.33984 275.75 229.53127 270.05078 229.59375 264.21875 C 229.6875 259.21484 231.66016 254.82422 235.15234 251.23436 C 239.57422 247.0625 245.34766 245.53906 251.28125 245.53127 C 251.53125 245.53127 251.78516 245.53127 252.04298 245.53127 C 252.58594 245.52734 253.13283 245.52344 253.67578 245.52344 C 254.54297 245.51953 255.41016 245.51564 256.28125 245.51172 C 258.75 245.4961 261.21875 245.48438 263.6875 245.47656 C 275.72266 245.6953 275.72266 245.6953 287.52734 243.6758 C 287.71094 243.6211 287.89844 243.5625 288.08594 243.50781 C 295.01953 241.39453 301.21875 237.54689 304.82813 231.10936 C 308.66016 223.89061 309.6328 214.60156 307.67578 206.69533 C 307.60547 206.39453 307.53516 206.09373 307.46484 205.78127 C 306.33984 201.16797 304.14453 197.25389 300.80078 193.89452 C 300.64844 193.73828 300.5 193.58205 300.34375 193.42186 C 293.6953 187.00781 283.29297 185.34375 274.4414 185.3125 C 274.03125 185.3125 273.625 185.3086 273.21484 185.3086 C 272.10938 185.30078 271.0078 185.29688 269.90234 185.29297 C 268.7461 185.28516 267.58984 185.28125 266.4336 185.27345 C 264.2461 185.26172 262.0586 185.25 259.8711 185.24219 C 257.3828 185.23045 254.89063 185.21486 252.40234 185.20313 C 247.27734 185.17578 242.15625 185.14844 237.03516 185.125 C 237.03906 185.30467 237.03906 185.48438 237.03906 185.66797 C 237.05078 190.03125 237.0586 194.39452 237.06248 198.75781 C 237.06248 200.86719 237.0664 202.97656 237.07423 205.08594 C 237.07813 206.92578 237.08203 208.76563 237.08203 210.60938 C 237.08203 211.58203 237.08203 212.55469 237.08594 213.52734 C 237.08986 214.44533 237.08986 215.36719 237.08986 216.28516 C 237.08986 216.61719 237.08986 216.95313 237.09375 217.28908 C 237.10545 219.5742 236.90625 221.74219 236.5625 224 C 236.5039 224.46483 236.44531 224.92969 236.38672 225.39453 C 235.28125 231.66798 231.48828 237.125 226.3711 240.82813 C 223.6914 242.69531 220.84375 244.26172 217.97266 245.80469 C 209.88281 250.03908 209.88281 250.03908 203.85158 256.71094 C 203.74219 256.89453 203.6328 257.07422 203.52344 257.26172 C 201.14453 261.60156 200.97656 267.42188 202.33592 272.13672 C 203.05469 274.17188 204.15234 275.91016 205.51172 277.5703 C 205.61328 277.69922 205.71875 277.83203 205.82811 277.96484 C 209.125 281.96875 214.24219 284.28516 218.69531 286.73047 C 222.8164 288.9961 226.55078 291.35156 229.92578 294.63672 C 230.07811 294.76953 230.23047 294.90625 230.38673 295.04297 C 234.41406 298.71094 236.39453 304.52734 236.80078 309.8086 C 236.8789 311.625 236.85938 313.4453 236.85545 315.26563 C 236.85545 315.8047 236.85545 316.34375 236.85545 316.8828 C 236.85545 318.33984 236.85156 319.79297 236.84766 321.25 C 236.84375 322.77344 236.84375 324.29688 236.84375 325.8203 C 236.84375 328.3789 236.83983 330.9336 236.83594 333.48828 C 236.83203 336.1172 236.82813 338.7461 236.82423 341.3789 C 236.82423 341.54297 236.82423 341.70703 236.82423 341.875 C 236.82423 343.3047 236.82423 344.73047 236.82423 346.16016 C 236.8164 352.29688 236.80861 358.4297 236.80078 364.5625 C 220.29688 364.5625 203.78906 364.5625 186.78516 364.5625 C 186.78516 291.8164 186.78516 219.07033 186.78516 144.11719 Z M 186.78516 144.11719"/>
    </g>
</svg>
