<svg width="256" height="256" xmlns="http://www.w3.org/2000/svg">
    <defs>
        <clipPath id="clip0_24755_43726">
            <path fill="#000000" stroke="none" d="M 32 0 L 32 0 C 49.673107 0 64 14.326888 64 32 L 64 32 C 64 49.673107 49.673107 64 32 64 L 32 64 C 14.326888 64 0 49.673107 0 32 L 0 32 C 0 14.326888 14.326888 0 32 0 Z"/>
        </clipPath>
    </defs>
    <g transform="matrix(4 0 0 4 0 0)">
        <g clip-path="url(#clip0_24755_43726)">
            <path fill="#ffffff" stroke="none" d="M 32 0 L 32 0 C 49.673107 0 64 14.326888 64 32 L 64 32 C 64 49.673107 49.673107 64 32 64 L 32 64 C 14.326888 64 0 49.673107 0 32 L 0 32 C 0 14.326888 14.326888 0 32 0 Z"/>
            <path fill="#6f4cff" fill-rule="evenodd" stroke="none" d="M 32 64 C 49.6731 64 64 49.6731 64 32 C 64 14.3269 49.6731 0 32 0 C 14.3269 0 0 14.3269 0 32 C 0 49.6731 14.3269 64 32 64 Z M 18 27.9999 C 18 34.6199 23.386702 39.9999 30 39.9999 C 36.6133 39.9999 42 34.6199 42 27.9999 C 42 21.3799 36.6133 15.9999 30 15.9999 C 23.386702 15.9999 18 21.3799 18 27.9999 Z M 22 27.9999 C 22 23.5866 25.5867 19.9999 30 19.9999 C 34.4133 19.9999 38 23.5866 38 27.9999 C 38 32.4133 34.4133 35.9999 30 35.9999 C 25.5867 35.9999 22 32.4133 22 27.9999 Z M 41.4133 43.4133 L 33.4133 51.4133 C 33.0267 51.8066 32.5133 51.9999 32 51.9999 C 31.4867 51.9999 30.98 51.8066 30.5867 51.4133 C 29.8067 50.633305 29.8067 49.3666 30.5867 48.586605 L 38.5867 40.5866 C 39.3667 39.8066 40.6333 39.8066 41.4133 40.5866 C 42.1933 41.3666 42.1933 42.6333 41.4133 43.4133 Z M 41.6 17.9999 C 41.6 16.6799 42.68 15.5999 44 15.5999 C 45.319996 15.5999 46.4 16.6799 46.4 17.9999 C 46.4 19.3199 45.319996 20.3999 44 20.3999 C 42.68 20.3999 41.6 19.3199 41.6 17.9999 Z"/>
        </g>
    </g>
</svg>
