<svg width="98" height="118" xmlns="http://www.w3.org/2000/svg">
    <defs>
        <clipPath id="clip0_598_1361">
            <path fill="#000000" stroke="none" transform="matrix(1 0 0 1 0 0.5)" d="M 0 0 L 98 0 L 98 84 L 0 84 Z"/>
        </clipPath>
    </defs>
    <g clip-path="url(#clip0_598_1361)">
        <path fill="#ffffff" stroke="none" d="M 94.1735 47.6115 C 92.9861 46.539906 91.596 45.7869 90.1479 45.2946 C 90.234795 44.280994 90.2928 43.267296 90.2928 42.2537 C 90.32171 19.2008 71.6129 0.520996 48.56 0.520996 C 25.507101 0.520996 6.82732 19.2008 6.82732 42.2537 C 6.82732 43.383205 6.9142 44.512703 7.00109 45.6421 C 5.87161 46.1055 4.77109 46.7426 3.81538 47.6115 C -0.789407 51.7529 -1.13694 58.8194 2.97552 63.4241 C 15.197 77.0068 31.531 84.4787 48.9944 84.4787 C 66.4579 84.4787 82.7919 77.0068 95.0134 63.4241 C 99.1548 58.8194 98.7783 51.7529 94.1735 47.6115 Z"/>
        <path fill="#3399ff" stroke="none" d="M 33.732 34.2025 C 36.1472 34.2025 38.1051 32.2446 38.1051 29.8294 C 38.1051 27.4142 36.1472 25.456299 33.732 25.456299 C 31.3168 25.456299 29.3589 27.4142 29.3589 29.8294 C 29.3589 32.2446 31.3168 34.2025 33.732 34.2025 Z"/>
        <path fill="#3399ff" stroke="none" d="M 48.5889 58.3269 C 41.8121 58.3269 35.4407 55.430798 30.691101 50.131 C 29.0693 48.3354 29.2141 45.5841 31.0097 43.991302 C 32.8052 42.3695 35.5565 42.5432 37.1494 44.3099 C 40.2192 47.7272 44.3027 49.609695 48.5889 49.609695 C 52.8752 49.609695 56.9297 47.7272 60.0285 44.3099 C 61.6503 42.5143 64.4016 42.3695 66.1682 43.991302 C 67.9348 45.6131 68.1086 48.3644 66.4868 50.131 C 61.7372 55.4019 55.365803 58.3269 48.5889 58.3269 Z"/>
        <path fill="#3399ff" stroke="none" d="M 67.79 29.8294 C 67.79 32.2446 65.8321 34.2025 63.416897 34.2025 C 61.0017 34.2025 59.0438 32.2446 59.0438 29.8294 C 59.0438 27.4142 61.0017 25.456299 63.416897 25.456299 C 65.8321 25.456299 67.79 27.4142 67.79 29.8294 Z"/>
    </g>
    <path fill="#000000" fill-opacity="0.5" stroke="none" d="M 78 111 C 78 114.58985 64.56854 117.49999 48 117.49999 C 31.431458 117.49999 18 114.58985 18 111 C 18 107.41015 31.431458 104.5 48 104.5 C 64.56854 104.5 78 107.41015 78 111 Z"/>
</svg>
