<svg width="200" height="200" xmlns="http://www.w3.org/2000/svg">
    <g id="_Слой_1-2">
        <g>
            <path fill="#000000" stroke="none" d="M 100 200 C 155.228 200 200 155.228 200 100 C 200 44.772 155.228 0 100 0 C 44.772 0 0 44.771503 0 100 C 0 155.2285 44.771503 200 100 200 Z"/>
            <path fill="#ffffff" stroke="none" d="M 102.401 146.424 C 86.6214 146.424 72.6012 140.953 61.6971 130.504 C 54.3936 123.505 48.761 114.51499 44.956 103.782 C 41.1941 93.17221 39.2867 80.99591 39.2867 67.5915 L 63.852 67.5915 C 63.852 78.1844 65.2831 87.59201 68.1056 95.5527 C 70.6159 102.63301 74.1742 108.41301 78.6817 112.73301 C 85.4211 119.19101 94.0681 122.23601 104.382 121.78101 C 113.88699 121.36301 121.22 118.39701 126.179 112.96401 C 130.306 108.443016 132.578 102.32902 132.578 95.75021 C 132.635 92.00912 131.241 88.3918 128.689 85.65841 C 127.49299 84.39651 126.049 83.39651 124.44799 82.72141 C 122.847 82.04641 121.12399 81.71111 119.38599 81.73652 C 116.988 81.75462 114.678986 82.65341 112.89799 84.26262 C 111.18598 85.86981 109.14398 89.183105 109.14398 95.84101 L 84.57878 95.84101 C 84.57878 80.37332 90.84408 71.24692 96.09978 66.31461 C 102.43498 60.43521 110.74898 57.15921 119.386986 57.138405 C 124.43898 57.11091 129.44398 58.11721 134.09396 60.09561 C 138.74397 62.07401 142.94199 64.98291 146.42998 68.64371 C 153.33897 75.86691 157.14397 85.49351 157.14397 95.75021 C 157.14397 108.48601 152.58597 120.49301 144.31097 129.55902 C 137.76697 136.73001 125.71297 145.46501 105.45997 146.35602 C 104.43397 146.40102 103.41398 146.42401 102.40097 146.42401 Z"/>
        </g>
    </g>
</svg>
