<svg width="256" height="256" xmlns="http://www.w3.org/2000/svg">
    <defs>
        <linearGradient id="paint0_linear_2696_124315" x1="0" y1="26" x2="52" y2="26" gradientUnits="userSpaceOnUse">
            <stop offset="0.25" stop-color="#1a82ff"/>
            <stop offset="0.5" stop-color="#7a26f3"/>
            <stop offset="0.74" stop-color="#d6453b"/>
        </linearGradient>
        <linearGradient id="paint1_linear_2696_124315" x1="35.2193" y1="4.322" x2="14.086" y2="22.33" gradientUnits="userSpaceOnUse">
            <stop offset="0" stop-color="#4c52f9" stop-opacity="0.5"/>
            <stop offset="1" stop-color="#ffffff"/>
        </linearGradient>
        <linearGradient id="paint2_linear_2696_124315" x1="16.446" y1="44.4601" x2="32.5192" y2="33.9678" gradientUnits="userSpaceOnUse">
            <stop offset="0" stop-color="#4c52f9" stop-opacity="0.5"/>
            <stop offset="1" stop-color="#ffffff"/>
        </linearGradient>
        <clipPath id="clip0_2696_124315">
            <path fill="#000000" stroke="none" d="M 0 0 L 52 0 L 52 52 L 0 52 Z"/>
        </clipPath>
    </defs>
    <g transform="matrix(4.923077 0 0 4.923077 0 0)">
        <g clip-path="url(#clip0_2696_124315)">
            <path fill="#183240" stroke="none" d="M 18.8742 29.853502 L 17.252 28.4561 L 17.5928 26.958899 L 19.6912 18.8091 L 26 8.59961 L 28.922901 10.1891 L 26 14.5542 L 18.6613 26.4305 L 27.1355 26.2356 L 30.2862 28.4546 L 31.6628 29.853502 L 34.3358 32.083 L 25.8363 43.758396 L 23.114202 41.8802 L 26 38.0152 L 26 35.0223 L 19.4233 33.1277 L 18.2491 32.0115 L 18.8742 29.853502 Z"/>
            <path fill="url(#paint0_linear_2696_124315)" stroke="none" d="M 26 52 C 40.3594 52 52 40.3594 52 26 C 52 11.6406 40.3594 0 26 0 C 11.6406 0 0 11.6406 0 26 C 0 40.3594 11.6406 52 26 52 Z"/>
            <g opacity="0.2">
                <path fill="#ffffff" stroke="none" d="M 42.2522 42.144 C 51.1669 33.1683 51.119297 18.6651 42.1436 9.75043 C 33.1679 0.835714 18.6647 0.883338 9.75 9.85907 L 42.2522 42.144 Z"/>
            </g>
            <path fill="#ffffff" stroke="none" d="M 27.2407 36.3391 C 26.833 36.3882 26.4192 36.4164 25.9995 36.4164 C 20.3382 36.4164 15.732 31.8103 15.732 26.1489 C 15.732 21.620102 18.6802 17.77 22.7581 16.4097 L 25.7644 11.5371 C 17.8141 11.663599 11.3848 18.1688 11.3848 26.1504 C 11.3848 33.5724 16.9449 39.7189 24.1199 40.6461 L 27.2422 36.3405 L 27.2407 36.3391 Z"/>
            <path fill="url(#paint1_linear_2696_124315)" stroke="none" d="M 15.732 26.1489 C 15.732 21.620102 18.6802 17.77 22.7581 16.4097 L 25.7644 11.5371 C 17.8141 11.663599 11.3848 18.1688 11.3848 26.1504 L 15.7335005 26.1504 L 15.732 26.1489 Z"/>
            <path fill="#ffffff" stroke="none" d="M 27.7832 11.6426 L 25.144503 15.921301 C 25.4273 15.8975 25.711597 15.8826 26.0003 15.8826 C 31.661602 15.8826 36.2678 20.4888 36.2678 26.1502 C 36.2678 30.469103 33.586 34.1719 29.8013 35.6855 L 26.1164 40.765 C 34.1217 40.7025 40.6165 34.1705 40.6165 26.1502 C 40.6165 18.694 35.0043 12.5251 27.7832 11.6426 Z"/>
            <path fill="url(#paint2_linear_2696_124315)" stroke="none" d="M 36.2667 26.148397 C 36.2667 30.4674 33.5848 34.1702 29.8002 35.6838 L 26.1152 40.7632 C 34.1206 40.7007 40.6154 34.1687 40.6154 26.148397 L 36.2667 26.148397 Z"/>
            <path fill="#ffffff" stroke="none" d="M 19.0372 28.4447 L 26.000698 32.457 L 32.9688 28.4447 L 26.000698 38.0157 L 19.0372 28.4447 Z M 18.6621 26.431 L 26.0022 14.5547 L 33.3424 26.431 L 26.0022 30.6622 L 18.6636 26.431 L 18.6621 26.431 Z"/>
            <g opacity="0.1">
                <path fill="#4c52f9" stroke="none" d="M 26.0203 14.390599 L 18.6816 26.566097 L 26.0203 30.9044 L 26.0203 23.2309 L 26.0203 14.390599 Z"/>
            </g>
            <g opacity="0.1">
                <path fill="#4c52f9" stroke="none" d="M 26.0209 32.2938 L 25.931599 32.404 L 25.931599 38.0356 L 26.0209 38.299 L 33.364 27.956999 L 26.0209 32.2938 Z"/>
            </g>
            <g opacity="0.1">
                <path fill="#4c52f9" stroke="none" d="M 26.019499 30.904 L 33.3582 26.5657 L 26.019499 23.2305 L 26.019499 30.904 Z"/>
            </g>
            <g opacity="0.1">
                <path fill="#4c52f9" stroke="none" d="M 18.6816 26.5657 L 26.0203 30.904 L 26.0203 23.2305 L 18.6816 26.5657 Z"/>
            </g>
        </g>
    </g>
</svg>
