<svg width="480" height="480" xmlns="http://www.w3.org/2000/svg">
    <g>
        <path fill="#fc6f6f" fill-rule="evenodd" stroke="none" d="M 480 240 C 480 372.5483 372.5483 480 240 480 C 107.45166 480 0 372.5483 0 240 C -0 107.45166 107.45166 0 240 0 C 372.5483 0 480 107.45166 480 240 Z"/>
        <path fill="#ffffff" stroke="none" d="M 186.53654 330.69894 C 186.53654 335.80627 184.77873 340.13007 181.26303 343.67038 C 177.74736 347.21072 173.45364 348.9808 168.38182 348.9808 C 163.42528 348.9808 159.18921 347.21072 155.67352 343.67038 C 152.15782 340.13007 150.4 335.80627 150.4 330.69894 L 150.4 88.68187 C 150.4 83.574524 152.15782 79.25076 155.67352 75.71045 C 159.18921 72.17013 163.42528 70.4 168.38182 70.4 C 173.33838 70.4 177.57445 72.17013 181.09013 75.71045 C 184.60583 79.25076 186.4213 83.574524 186.53654 88.68187 L 186.53654 172.25612 C 201.86728 160.3003 219.90659 154.32246 240.65492 154.32246 C 252.75813 154.32246 264.256 156.702 275.1489 161.4611 C 286.0418 166.22021 295.6378 172.69136 303.9371 180.87471 C 312.23645 189.05807 318.80667 198.69221 323.64795 209.77747 C 328.48926 220.86272 330.90985 232.67326 330.90985 245.20946 L 330.90985 330.69894 C 330.7946 335.80627 328.97913 340.13007 325.46344 343.67038 C 321.94775 347.21072 317.71167 348.9808 312.75513 348.9808 C 307.79858 348.9808 303.5625 347.21072 300.0468 343.67038 C 296.53113 340.13007 294.77332 335.80627 294.77332 330.69894 L 294.77332 245.20946 C 294.77332 237.78061 293.33246 230.75812 290.45074 224.14178 C 287.56903 217.52547 283.67877 211.75076 278.77985 206.81752 C 273.88092 201.88432 268.1464 197.96681 261.57608 195.06491 C 255.00578 192.163 248.03212 190.71207 240.65492 190.71207 C 233.16246 190.71207 226.15999 192.134 219.64731 194.97786 C 213.13463 197.8217 207.4001 201.73923 202.44356 206.73048 C 197.487 211.72176 193.59674 217.52547 190.77266 224.14178 C 187.94858 230.75812 186.53654 237.78061 186.53654 245.20946 Z M 168.90251 409.6 C 179.00674 409.6 187.19788 401.3515 187.19788 391.1765 C 187.19788 381.00153 179.00674 372.75305 168.90251 372.75305 C 158.79826 372.75305 150.60715 381.00153 150.60715 391.1765 C 150.60715 401.3515 158.79826 409.6 168.90251 409.6 Z M 312.90463 409.6 C 323.00888 409.6 331.2 401.3515 331.2 391.1765 C 331.2 381.00153 323.00888 372.75305 312.90463 372.75305 C 302.8004 372.75305 294.60928 381.00153 294.60928 391.1765 C 294.60928 401.3515 302.8004 409.6 312.90463 409.6 Z"/>
    </g>
</svg>
