<svg width="768.4" height="759" xmlns="http://www.w3.org/2000/svg">
    <path fill="#ffffff" stroke="#000000" stroke-miterlimit="10" d="M 668 379.4 C 668 533.37695 543.177 658.19995 389.19998 658.19995 C 235.22304 658.19995 110.40004 533.37695 110.40002 379.4 C 110.40002 225.42302 235.22304 100.600006 389.19998 100.600006 C 543.177 100.600006 668 225.42302 668 379.4 Z"/>
    <path fill="#4360df" fill-rule="evenodd" stroke="none" d="M 444.7 375.9 C 399.09998 378.5 370.5 367.89996 324.9 370.6 C 313.6 371.2 302.4 372.9 291.3 375.49997 C 298 291.4 357.69998 217.8 438.9 213.1 C 488.7 210.2 538.5 240.9 541.2 290.7 C 543.9 339.6 506.5 372.4 444.7 375.9 L 444.7 375.9 Z M 322.2 548 C 274.5 550.7 226.8 522 224.19998 475.4 C 221.7 429.59998 257.5 399 316.7 395.6 C 360.4 393.1 387.8 403.1 431.39996 400.60004 C 442.2 400 453 398.5 463.60004 396 C 457.2 474.7 400 543.6 322.2 548 Z M 380.5 0 C 170.4 0 0 169.9 0 379.4 C 0 588.9 170.4 758.8 380.5 758.8 C 590.6 758.8 761 589 761 379.4 C 761 169.8 590.6 0 380.5 0"/>
</svg>
