<svg width="764" height="954" xmlns="http://www.w3.org/2000/svg">
    <path fill="#6b4644" stroke="none" d="M 381.562 367.76996 L 381.562 147.296 L 254.266 73.8047 L 254.266 294.279 L 381.562 367.76996 Z"/>
    <path fill="#523e3d" stroke="none" d="M 381.359 367.76996 L 381.359 147.296 L 508.65604 73.8047 L 508.65604 294.279 L 381.359 367.76996 Z"/>
    <path fill="#836866" stroke="none" d="M 508.858 73.8034 L 381.562 147.295 L 254.266 73.8034 L 381.562 0.312012 L 508.858 73.8034 Z"/>
    <path fill="#c89992" stroke="none" d="M 127.98401 806.425 L 127.98401 585.95 L 0.6875 512.459 L 0.6875 732.933 L 127.98401 806.425 Z"/>
    <path fill="#543d3d" stroke="none" d="M 127.742 806.425 L 127.742 585.95 L 255.038 512.459 L 255.038 732.933 L 127.742 806.425 Z"/>
    <path fill="#473232" stroke="none" d="M 255.28 512.456 L 127.98401 585.948 L 0.6875 512.456 L 127.98401 438.891 L 255.28 512.456 Z"/>
    <path fill="#cd9991" stroke="none" d="M 127.749 514.752 L 127.749 294.278 L 0.453125 220.787 L 0.453125 441.261 L 127.749 514.752 Z"/>
    <path fill="#523e3f" stroke="none" d="M 127.54699 514.752 L 127.54699 294.278 L 254.91702 220.787 L 254.91702 441.261 L 127.54699 514.752 Z"/>
    <path fill="#836764" stroke="none" d="M 255.046 220.785 L 127.749 294.277 L 0.453125 220.785 L 127.749 147.294 L 255.046 220.785 Z"/>
    <path fill="#856a67" stroke="none" d="M 762.436 220.785 L 635.14 294.277 L 507.844 220.785 L 635.14 147.294 L 762.436 220.785 Z"/>
    <path fill="#d29b91" stroke="none" d="M 381.562 953.407 L 381.562 732.932 L 254.266 659.441 L 254.266 879.915 L 381.562 953.407 Z"/>
    <path fill="#715655" stroke="none" d="M 381.359 953.407 L 381.359 732.932 L 508.65604 659.441 L 508.65604 879.915 L 381.359 953.407 Z"/>
    <path fill="#483435" stroke="none" d="M 508.858 659.44 L 381.562 732.931 L 254.266 659.44 L 381.562 585.948 L 508.858 659.44 Z"/>
    <path fill="#6b4644" stroke="none" d="M 635.937 813.528 L 635.937 593.053 L 508.641 519.488 L 508.641 740.036 L 635.937 813.528 Z"/>
    <path fill="#6e5453" stroke="none" d="M 635.789 813.528 L 635.789 593.053 L 763.085 519.488 L 763.085 740.036 L 635.789 813.528 Z"/>
    <path fill="#3c2f30" stroke="none" d="M 763.233 519.49 L 635.937 593.055 L 508.641 519.49 L 635.937 445.999 L 763.233 519.49 Z"/>
    <path fill="#825854" stroke="none" d="M 635.14 514.752 L 635.14 294.278 L 507.844 220.787 L 507.844 441.261 L 635.14 514.752 Z"/>
    <path fill="#705755" stroke="none" d="M 634.938 514.752 L 634.938 294.278 L 762.234 220.787 L 762.234 441.261 L 634.938 514.752 Z"/>
    <path fill="#7c6362" stroke="none" d="M 509.04602 367.476 L 381.75 440.968 L 254.453 367.476 L 381.75 293.985 L 509.04602 367.476 Z"/>
    <path fill="#ecaa9d" stroke="none" d="M 381.75 661.352 L 381.75 440.803 L 254.453 367.31198 L 254.453 587.86 L 381.75 661.352 Z"/>
    <path fill="#745857" stroke="none" d="M 381.75 661.366 L 381.75 440.818 L 509.04602 367.327 L 509.04602 587.875 L 381.75 661.366 Z"/>
</svg>
