<svg width="256" height="256" xmlns="http://www.w3.org/2000/svg">
    <defs>
        <clipPath id="clip0_4029_651">
            <path fill="#000000" stroke="none" transform="matrix(1 0 0 1 16 16)" d="M 0 0 L 224 0 L 224 224 L 0 224 Z"/>
        </clipPath>
    </defs>
    <path fill="#daff02" stroke="none" d="M 128 0 L 128 0 C 198.69243 0 256 57.307552 256 128 L 256 128 C 256 198.69243 198.69243 256 128 256 L 128 256 C 57.307552 256 0 198.69243 0 128 L 0 128 C 0 57.307552 57.307552 0 128 0 Z"/>
    <g clip-path="url(#clip0_4029_651)">
        <path fill="#101010" stroke="none" d="M 180.571 76.6443 L 180.571 77.47 C 180.571 78.3789 179.834 79.1164 178.92499 79.1164 L 172.334 79.1164 C 165.51 79.1164 159.974 84.6474 159.974 91.4768 L 159.974 98.0674 C 159.974 98.9762 159.236 99.7137 158.327 99.7137 L 157.502 99.7137 C 156.593 99.7137 155.855 98.9762 155.855 98.0674 L 155.855 91.4768 C 155.855 84.6526 150.319 79.1164 143.495 79.1164 L 136.904 79.1164 C 135.995 79.1164 135.258 78.3789 135.258 77.47 L 135.258 76.6443 C 135.258 75.7354 135.995 74.9979 136.904 74.9979 L 143.495 74.9979 C 150.319 74.9979 155.855 69.4617 155.855 62.6375 L 155.855 56.046898 C 155.855 55.1381 156.593 54.4006 157.502 54.4006 L 158.327 54.4006 C 159.236 54.4006 159.974 55.1381 159.974 56.046898 L 159.974 62.6375 C 159.974 69.4617 165.505 74.9979 172.334 74.9979 L 178.92499 74.9979 C 179.834 74.9979 180.571 75.7354 180.571 76.6443 Z M 171.597 231.197 C 178.234 228.387 184.637 224.913 190.62602 220.872 C 196.557 216.868 202.129 212.26701 207.198 207.198 C 212.26701 202.129 216.863 196.557 220.872 190.62602 C 224.918 184.637 228.393 178.234 231.202 171.597 C 237.045 157.787 240.00499 143.116 240.00499 127.997 C 240.00499 112.879 237.045 98.2128 231.202 84.3981 C 228.393 77.7609 224.918 71.3573 220.872 65.3692 C 216.868 59.4383 212.26701 53.865696 207.198 48.7968 C 202.129 43.728 196.557 39.1318 190.62602 35.1224 C 184.637 31.0767 178.234 27.6022 171.597 24.7978 C 157.787 18.9603 143.121 16 128.003 16 C 112.883995 16 98.218 18.9603 84.4033 24.8029 C 77.7661 27.6126 71.3625 31.0871 65.3744 35.1276 C 59.4435 39.1318 53.8709 43.7332 48.802 48.802 C 43.7332 53.8709 39.137 59.4435 35.1276 65.3744 C 31.0819 71.3625 27.6074 77.7661 24.7978 84.4033 C 18.9603 98.2128 16 112.883995 16 128.003 C 16 143.121 18.9603 157.787 24.8029 171.602 C 27.6126 178.239 31.0871 184.643 35.1328 190.631 C 39.137 196.562 43.7384 202.134 48.807205 207.203 C 53.876102 212.272 59.4487 216.868 65.3796 220.878 C 71.3677 224.92302 77.7713 228.398 84.4085 231.202 C 98.218 237.045 112.89 240.00499 128.008 240.00499 C 143.126 240.00499 157.792 237.045 171.607 231.202 L 171.597 231.197 Z M 230.652 128.003 C 230.652 184.606 184.60101 230.657 127.997 230.657 C 71.3937 230.657 25.3483 184.60101 25.3483 128.003 C 25.3483 71.404 71.3989 25.3483 128.003 25.3483 C 184.606 25.3483 230.657 71.3989 230.657 128.003 L 230.652 128.003 Z M 83.1257 161.189 C 83.1257 168.932 89.4046 175.21101 97.1481 175.21101 L 99.9526 175.21101 C 100.986 175.21101 101.82201 176.047 101.82201 177.081 L 101.82201 179.885 C 101.82201 187.629 108.101 193.908 115.84499 193.908 L 157.912 193.908 L 157.912 170.537 L 106.496 170.537 L 106.496 77.0546 L 83.1257 77.0546 L 83.1257 161.189 Z"/>
    </g>
</svg>
