<svg width="256" height="256" xmlns="http://www.w3.org/2000/svg">
    <defs>
        <linearGradient id="a" x1="0.056" y1="256" x2="512.056" y2="256" gradientUnits="userSpaceOnUse">
            <stop offset="0" stop-color="#29235c"/>
            <stop offset="1" stop-color="#00a19a"/>
        </linearGradient>
    </defs>
    <g transform="matrix(0.5 0 0 0.5 0 0)">
        <path fill="#ffffff" stroke="none" d="M 512.056 256 C 512.056 397.38498 397.441 512 256.056 512 C 114.671005 512 0.056 397.38498 0.056 256 C 0.056 114.615 114.67 0 256.056 0 C 397.44196 0 512.056 114.615 512.056 256 Z"/>
        <path fill="#ffffff" stroke="none" d="M 512.056 256 C 512.056 397.38498 397.441 512 256.056 512 C 114.671005 512 0.056 397.38498 0.056 256 C 0.056 114.615 114.67 0 256.056 0 C 397.44196 0 512.056 114.615 512.056 256 Z"/>
        <path fill="url(#a)" stroke="none" d="M 381.613 149 L 488.69 149 C 448.17 61.05 359.242 0 256.056 0 C 114.671005 0 0.056 114.615 0.056 256 C 0.056 256.667 0.058 257.334 0.063 258 L 258.056 258 L 133.777 368 L 25.791002 368 C 67.337 453.25604 154.836 512 256.056 512 C 396.773 512 510.97302 398.464 512.048 258 L 258.056 258 L 381.613 149 Z"/>
    </g>
</svg>
