<svg width="23" height="32" xmlns="http://www.w3.org/2000/svg">
    <path fill="#3971ff" stroke="none" d="M 21.755499 28.952602 L 14.4215 17.764 L 14.4215 12.1339 L 15.354699 12.1339 C 15.6074 12.1339 15.826301 12.0444 16.0107 11.8657 C 16.1956 11.6871 16.2879 11.4754 16.2879 11.2308 C 16.2879 10.9862 16.1956 10.7746 16.0107 10.5959 C 15.8264 10.4172 15.6074 10.3279 15.354699 10.3279 L 7.89002 10.3279 C 7.6371503 10.3279 7.41848 10.4172 7.23383 10.5959 C 7.04912 10.7746 6.95685 10.9863 6.95685 11.2308 C 6.95685 11.4754 7.04912 11.6871 7.23383 11.8657 C 7.4186306 12.0444 7.6373506 12.134 7.89002 12.134 L 8.82305 12.134 L 8.82305 17.7638 L 1.4894701 28.9525 C 0.94531506 29.789902 0.84078294 30.5074 1.17613 31.104399 C 1.51148 31.7017 2.19434 32.0004 3.2245398 32.0004 L 20.0207 32.0004 C 21.0507 32.0004 21.733402 31.7017 22.0686 31.104399 C 22.404198 30.5074 22.2997 29.7901 21.755499 28.952602 Z M 6.43209 24.7761 L 10.3978 18.7231 L 10.6893 18.2856 L 10.6893 17.7636 L 10.6893 12.1338 L 12.5553 12.1338 L 12.5553 17.7636 L 12.5553 18.2856 L 12.846799 18.7231 L 16.8127 24.7761 L 6.43209 24.7761 Z"/>
    <path fill="#3971ff" stroke="none" d="M 8.6911 6.15306 C 8.6911 5.23241 7.91903 4.48608 6.96664 4.48608 C 6.01425 4.48608 5.24219 5.23241 5.24219 6.15306 L 5.24219 6.15687 C 5.24219 7.07752 6.01425 7.82385 6.96664 7.82385 C 7.91903 7.82385 8.6911 7.07752 8.6911 6.15687 L 8.6911 6.15306 Z"/>
    <path fill="#3971ff" stroke="none" d="M 17.3161 6.15306 C 17.3161 5.23241 16.544 4.48608 15.5916 4.48608 C 14.639299 4.48608 13.8672 5.23241 13.8672 6.15306 L 13.8672 6.15687 C 13.8672 7.07752 14.639299 7.82385 15.5916 7.82385 C 16.544 7.82385 17.3161 7.07752 17.3161 6.15687 L 17.3161 6.15306 Z"/>
    <path fill="#3971ff" stroke="none" d="M 13.0088 1.56444 C 13.0088 0.873957 12.4298 0.314209 11.7155 0.314209 C 11.0012 0.314209 10.4221 0.873957 10.4221 1.56444 L 10.4221 1.5673 C 10.4221 2.25778 11.0012 2.81753 11.7155 2.81753 C 12.4298 2.81753 13.0088 2.25778 13.0088 1.5673 L 13.0088 1.56444 Z"/>
</svg>
