<svg width="500" height="500" xmlns="http://www.w3.org/2000/svg">
    <path fill="#ee2b3b" stroke="none" d="M 0 0 L 500 0 L 500 500 L 0 500 Z"/>
    <path fill="#ffffff" stroke="none" d="M 104.4 444.33997 L 104.4 267.5 L 61.71 267.5 L 61.71 232.5 L 104.4 232.5 L 104.4 55.66 L 238.55998 55.66 Q 283.62 55.66 307.49 61.219997 Q 340.89 68.91 364.48996 89.05999 Q 395.24 115.06 410.49 155.48 Q 425.74 195.89998 425.73 247.88 Q 425.73 307.28 406.91 350.09 Q 388.08997 392.9 361.83 412.26 Q 335.58 431.63 301.38 439.84 Q 282.55 444.33997 244.63998 444.33997 Z M 155.83 398.48 L 238.83 398.48 Q 277.54 398.48 299.28 391.32 Q 321.02 384.16 333.75 371.43 Q 352.04996 353.13998 362.38 322.38 Q 372.71 291.62 372.71997 247.38 Q 372.71997 201.78 362.52 174.47 Q 352.32 147.16 335.87 130.72 Q 319.43 114.28 299.28 107.92 Q 279.13 101.560005 237.51 101.549995 L 155.83 101.549995 L 155.83 232.55002 L 263 232.55002 L 263 267.55 L 155.83 267.55 Z"/>
</svg>
