<svg width="301.23" height="301.23" xmlns="http://www.w3.org/2000/svg">
    <defs>
        <clipPath id="clippath">
            <path fill="#000000" stroke="none" d="M 48 72.48 L 253.23 72.48 L 253.23 242.75 L 48 242.75 Z"/>
        </clipPath>
    </defs>
    <path fill="#ffffff" stroke="none" d="M 301.22 150.61 C 301.22 233.7896 233.7896 301.22 150.61 301.22 C 67.4304 301.22 0 233.7896 0 150.61 C -0 67.4304 67.4304 0 150.61 0 C 233.7896 0 301.22 67.4304 301.22 150.61 Z"/>
    <g clip-path="url(#clippath)">
        <g>
            <path fill="#9786ff" stroke="none" d="M 190.28001 104.04 L 146.65 104.04 L 162.44 119.83001 L 183.73 119.83001 L 207.32 143.41 L 207.32 143.41 C 207.32 143.41 183.5 167.25 183.5 167.25 L 147.4 167.25 L 115.64 135.49 L 84.55 135.49 L 84.55 151.28 L 109.05999 151.28 L 140.82 183.04 L 190.05 183.04 L 221.78001 151.32 L 221.78001 135.53 C 221.78001 135.53 190.28001 104.04 190.28001 104.04 Z"/>
            <path fill="#9786ff" stroke="none" d="M 79.64 183.01 L 123.270004 183.01 L 107.48 167.21 L 86.189995 167.21 L 62.45 143.47 L 62.45 143.47 C 62.45 143.47 86.09 119.82 86.09 119.82 L 122.189995 119.82 L 154.14 151.4 L 185.04 151.59 L 185.04 135.61 L 160.72 135.61 L 128.96 103.84999 L 79.55 104.04 L 48 135.59 L 48 151.38 L 79.65 183.01 Z"/>
            <path fill="#9786ff" stroke="none" d="M 95.23 198.87 L 175.9 198.87 L 208.6 231.59 L 197.45 242.76 L 169.36 214.67001 L 111.020004 214.67001 L 95.23 198.88 Z"/>
            <path fill="#9786ff" stroke="none" d="M 208.53 209.31 L 197.35 198.14 L 237.44 158.07 L 237.44 128.82 L 196.90001 88.28 L 125.39 88.28 L 141.18 72.49 L 203.43 72.49 L 253.23 122.29 L 253.23 164.62 L 213.2 204.63998 L 211.8 206.04001 L 208.53 209.31999 Z"/>
        </g>
    </g>
</svg>
