<svg width="256" height="256" xmlns="http://www.w3.org/2000/svg">
    <defs>
        <clipPath id="clip0_19239_41128">
            <path fill="#000000" stroke="none" d="M 0 0 L 256 0 L 256 256 L 0 256 Z"/>
        </clipPath>
        <clipPath id="clip1_19239_41128">
            <path fill="#000000" stroke="none" transform="matrix(1 0 0 1 203.49998 203.49998)" d="M 0 0 L 40 0 L 40 40 L 0 40 Z"/>
        </clipPath>
    </defs>
    <g clip-path="url(#clip0_19239_41128)">
        <path fill="#ffffff" stroke="none" d="M 128 256 C 198.692 256 256 198.692 256 128 C 256 57.3075 198.692 0 128 0 C 57.3075 0 0 57.3075 0 128 C 0 198.692 57.3075 256 128 256 Z"/>
        <path fill="#000000" fill-rule="evenodd" stroke="none" d="M 218.4 102.99 C 189.102 75.1336 158.983 60.5098 128.2 60.5098 C 97.4182 60.5098 67.2986 75.1336 38.0012 102.99 C 35.4943 105.374 35.396 109.337 37.7816 111.841 C 40.1672 114.346 44.1334 114.444 46.6403 112.061 C 74.4936 85.5774 101.678 73.0312 128.2 73.0312 C 154.7 73.0312 181.861 85.5561 209.69 111.993996 C 210.126 112.445 210.482 113.065 210.68901 113.712 C 210.616 114.095 210.578 114.49 210.578 114.894 C 210.578 116.373 210.09001 117.169 209.693 117.508 C 209.608 117.581 209.524 117.657 209.443 117.735 C 208.761 118.386 208.08 119.028 207.39899 119.661995 C 181.46199 98.097 155.005 86.8346 128.045 86.8346 C 99.64091 86.8346 71.7949 99.3363 44.526604 123.216995 C 44.476 123.257996 44.4258 123.299 44.3761 123.341995 L 44.3084 123.399994 C 42.221 125.188 39.945 127.137 37.6507 129.422 C 31.3761 135.307 30.883802 145.11 36.4153 151.832 C 36.4519 151.891 36.4897 151.95 36.5286 152.008 C 37.0669 152.815 37.7095 153.393 38.3158 153.801 C 67.4137 181.267 97.32079 195.68 127.881004 195.68 C 158.663 195.68 188.783 181.057 218.08002 153.2 C 220.587 150.817 220.686 146.854 218.3 144.349 C 215.914 141.844 211.948 141.746 209.441 144.129 C 181.58798 170.613 154.403 183.15898 127.881004 183.15898 C 101.359 183.15898 74.1742 170.613 46.3209 144.129 C 46.306004 144.115 46.291096 144.101 46.275997 144.087 C 44.578705 142.25 44.8866 139.788 46.2515 138.529 C 46.3128 138.472 46.3731 138.415 46.4321 138.356 C 47.1198 137.668 47.8097 137.014 48.509605 136.372 C 75.6153 158.942 103.28901 170.293 131.451 169.312 C 158.445 168.372 184.867 156.136 210.708 133.547 C 211.304 133.21 211.855 132.77 212.333 132.226 C 212.451 132.092 212.562 131.955 212.666 131.815 C 214.44398 130.222 216.22 128.58 217.993 126.89001 C 221.057 124.19601 222.50899 120.637 222.95401 117.263 C 223.254 116.532 223.419 115.732 223.419 114.894 C 223.419 110.394 221.474 106.06 218.51099 103.098 L 218.472 103.06 C 218.464 103.052 218.455 103.04399 218.447 103.036 C 218.431 103.020004 218.416 103.005 218.4 102.99 Z M 128.045 99.3561 C 150.786 99.3561 174.009 108.613 197.85199 128.027 C 175.09 146.722 152.83 156.038 131.015 156.798 C 107.309 157.624 83.0691 148.382 58.1579 128.092 C 82.0292 108.633 105.279 99.3561 128.045 99.3561 Z"/>
        <path fill="#000000" fill-rule="evenodd" stroke="none" d="M 128 104.729 C 115.14701 104.729 104.72799 115.148 104.72799 128.001 C 104.72799 140.854 115.14701 151.274 128 151.274 C 140.853 151.274 151.273 140.854 151.273 128.001 C 151.273 115.148 140.853 104.729 128 104.729 Z M 128 139.638 C 134.427 139.638 139.637 134.428 139.637 128.001 C 139.637 121.575 134.427 116.365 128 116.365 C 121.574 116.365 116.364 121.575 116.364 128.001 C 116.364 134.428 121.574 139.638 128 139.638 Z"/>
        <path fill="#000000" stroke="#ffffff" d="M 255.5 224 C 255.5 241.39699 241.39699 255.5 224 255.5 C 206.60301 255.5 192.5 241.39699 192.5 224 C 192.5 206.60301 206.60301 192.5 224 192.5 C 241.39699 192.5 255.5 206.60301 255.5 224 Z"/>
        <g clip-path="url(#clip1_19239_41128)">
            <path fill="#f6c361" stroke="#ff3344" stroke-width="2" d="M 230.648 234.372 L 230.648 234.372 C 232.54898 232.48799 233.594 229.98901 233.594 227.332 C 233.594 225.941 233.307 224.59102 232.742 223.32 L 232.742 223.319 C 232.6 223 232.444 222.69 232.271 222.391 C 232.087 222.623 231.894 222.853 231.691 223.08 L 231.689 223.082 C 230.998 223.852 230.04399 224.312 229.00702 224.366 C 228.497 224.395 227.98601 224.322 227.504 224.153 C 227.022 223.983 226.578 223.719 226.198 223.37602 C 225.76099 222.983 225.418 222.49602 225.19598 221.952 C 224.97401 221.408 224.879 220.82 224.91602 220.234 L 230.648 234.372 Z M 230.648 234.372 C 228.73898 236.263 226.207 237.301 223.5 237.301 C 220.793 237.301 218.26099 236.263 216.352 234.372 C 214.45 232.483 213.406 229.988 213.406 227.332 C 213.406 225.787 213.75299 224.311 214.438 222.93399 L 214.439 222.933 M 230.648 234.372 L 214.439 222.933 M 214.945 235.79202 L 214.94402 235.79202 C 212.667 233.53201 211.406 230.527 211.406 227.332 C 211.406 225.479 211.82498 223.698 212.64699 222.04399 L 214.945 235.79202 Z M 214.945 235.79202 C 217.23102 238.057 220.27 239.301 223.5 239.301 C 226.73001 239.301 229.769 238.057 232.055 235.79202 C 234.334 233.536 235.594 230.52599 235.594 227.332 C 235.594 225.661 235.248 224.034 234.57 222.508 C 234.174 221.61302 233.674 220.78102 233.077 220.01698 L 232.194 218.888 L 231.439 220.10599 C 231.09799 220.656 230.685 221.203 230.2 221.747 C 229.861 222.124 229.403 222.343 228.902 222.368 L 228.902 222.368 L 228.896 222.36899 C 228.649 222.383 228.402 222.348 228.169 222.266 C 227.93501 222.18399 227.721 222.056 227.538 221.891 L 227.53502 221.889 C 227.323 221.69801 227.156 221.461 227.048 221.196 C 226.94 220.932 226.89398 220.646 226.91202 220.361 L 226.91202 220.36 C 227.04501 218.253 226.359 215.887 225.007 213.353 L 225.006 213.35 C 224.30002 212.039 223.445 210.9 222.412 209.948 L 221.03401 208.679 L 220.74599 210.53 C 220.66 211.083 220.519 211.62701 220.324 212.152 C 219.83199 213.47202 219.122 214.70398 218.215 215.811 L 218.21301 215.813 C 217.589 216.579 216.877 217.269 216.092 217.87 L 216.09 217.87102 M 214.945 235.79202 L 216.09 217.87102 M 214.439 222.933 C 215.104 221.591 216.099 220.386 217.308 219.458 C 218.216 218.763 219.04 217.964 219.763 217.078 C 220.80801 215.80301 221.62898 214.37901 222.199 212.84901 L 222.199 212.847 M 214.439 222.933 L 222.199 212.847 M 216.09 217.87102 C 214.64299 218.981 213.451 220.42398 212.648 222.043 L 216.09 217.87102 Z M 222.199 212.847 C 222.214 212.80801 222.22798 212.768 222.243 212.72899 M 222.199 212.847 L 222.243 212.72899 M 222.243 212.72899 C 222.60501 213.206 222.938 213.728 223.244 214.296 C 224.5 216.65201 225.017 218.63698 224.91602 220.23302 L 222.243 212.72899 Z M 235.16798 222.23499 L 235.16798 222.234 C 234.466 220.653 233.444 219.234 232.168 218.06601 L 232.168 218.065 L 231.80002 217.728 L 231.636 218.198 C 231.636 218.199 231.636 218.199 231.636 218.199 C 231.26599 219.269 230.60202 220.31499 229.713 221.305 L 229.706 221.312 L 229.7 221.319 C 229.426 221.61198 229.1 221.692 228.899 221.711 C 228.66 221.73201 228.29102 221.68802 227.97299 221.401 C 227.677 221.138 227.544 220.765 227.564 220.413 L 227.564 220.40698 C 227.694 218.298 227.066 215.832 225.582 213.049 L 225.582 213.04698 C 224.39 210.803 222.747 209.072 220.703 207.86499 C 220.703 207.86499 220.703 207.86499 220.703 207.86499 L 220.186 207.561 L 220.214 208.169 L 220.214 208.169 C 220.27701 209.54901 220.12 210.822 219.71 211.92 L 235.16798 222.23499 Z M 235.16798 222.23499 C 235.888 223.852 236.25002 225.565 236.25002 227.332 L 236.25002 227.334 C 236.254 229.02402 235.913 230.697 235.248 232.251 L 235.248 232.252 C 234.608 233.75398 233.68898 235.106 232.516 236.265 L 232.513 236.268 C 231.35202 237.423 229.976 238.342 228.463 238.97101 L 228.463 238.972 C 226.89 239.627 225.22401 239.961 223.5 239.961 C 221.776 239.961 220.111 239.627 218.539 238.96799 L 218.53801 238.96799 M 235.16798 222.23499 L 218.53801 238.96799 M 217.70999 215.388 L 217.70999 215.38899 C 217.113 216.11502 216.437 216.771 215.69402 217.346 L 215.691 217.34698 C 214.164 218.52101 212.923 220.025 212.059 221.747 C 211.19899 223.482 210.75102 225.392 210.75 227.328 L 217.70999 215.388 Z M 217.70999 215.388 C 218.56898 214.343 219.242 213.177 219.71 211.92 L 217.70999 215.388 Z M 218.53801 238.96799 C 217.02199 238.33499 215.66002 237.423 214.484 236.262 C 213.323 235.113 212.395 233.75 211.752 232.24799 M 218.53801 238.96799 L 211.752 232.24799 M 211.752 232.24799 C 211.08601 230.69 210.75 229.038 210.75 227.32901 L 211.752 232.24799 Z"/>
        </g>
    </g>
</svg>
