<svg width="185" height="185" xmlns="http://www.w3.org/2000/svg">
    <defs>
        <linearGradient id="paint0_linear_1464_7391" x1="92.5" y1="0" x2="92.5" y2="185" gradientUnits="userSpaceOnUse">
            <stop offset="0" stop-color="#796cc7"/>
            <stop offset="1" stop-color="#7bc8c9"/>
        </linearGradient>
        <linearGradient id="paint1_linear_1464_7391" x1="92.5046" y1="29.425" x2="108.5" y2="59" gradientUnits="userSpaceOnUse">
            <stop offset="0" stop-color="#9352c1"/>
            <stop offset="1" stop-color="#9274be"/>
        </linearGradient>
        <linearGradient id="paint2_linear_1464_7391" x1="93" y1="76.5" x2="93" y2="154.5" gradientUnits="userSpaceOnUse">
            <stop offset="0" stop-color="#8068b5"/>
            <stop offset="0.4" stop-color="#6173af"/>
            <stop offset="1" stop-color="#6dc2c6"/>
        </linearGradient>
    </defs>
    <path fill="#ffffff" stroke="url(#paint0_linear_1464_7391)" stroke-width="10" d="M 180 92.5 C 180 140.82492 140.82492 180 92.5 180 C 44.175083 180 5 140.82492 5 92.5 C 5 44.175083 44.175083 5 92.5 5 C 140.82492 5 180 44.175083 180 92.5 Z"/>
    <path fill="#713b9c" stroke="none" d="M 82 95 L 104.3 95 C 105.80001 95 107.1 96.2 107.1 97.80001 C 107.1 99.3 105.9 100.600006 104.3 100.600006 L 82 100.600006 C 80.5 100.600006 79.2 99.399994 79.2 97.80001 C 79.2 96.3 80.5 95 82 95 Z"/>
    <path fill="#152675" stroke="none" d="M 77.8 105.49999 L 108.5 105.49999 C 110 105.49999 111.3 106.700005 111.3 108.3 C 111.3 109.80001 110.1 111.1 108.5 111.1 L 77.8 111.1 C 76.3 111.1 75 109.9 75 108.3 C 75 106.700005 76.3 105.49999 77.8 105.49999 Z"/>
    <path fill="#0b4077" stroke="none" d="M 82 115.90001 L 104.3 115.90001 C 105.80001 115.90001 107.1 117.1 107.1 118.700005 C 107.1 120.2 105.9 121.49999 104.3 121.49999 L 82 121.49999 C 80.5 121.49999 79.2 120.3 79.2 118.700005 C 79.2 117.2 80.5 115.90001 82 115.90001 Z"/>
    <path fill="url(#paint1_linear_1464_7391)" fill-rule="evenodd" stroke="none" d="M 92.5091 29.425 C 108.809 29.425 122.009 42.625 122.009 58.925 L 122.009 59.725 L 122.009 69.225 C 118.409004 66.625 114.609 64.425 110.609 62.325 L 110.609 59.425 C 110.609 49.425 102.509 41.325 92.5091 41.325 C 82.5091 41.325 74.4091 49.525 74.4091 59.525 L 74.4091 61.625 C 70.3091 63.425 66.4091 65.825 63.0091 68.825 L 63.0091 59.725 C 62.6091 43.525 75.4091 29.925 91.7091 29.525 C 91.87429 29.525 92.03939 29.4947 92.1879 29.4674 C 92.3091 29.4452 92.4192 29.425 92.5091 29.425 Z"/>
    <path fill="url(#paint2_linear_1464_7391)" fill-rule="evenodd" stroke="none" d="M 93.10181 65.525 C 97.7018 65.525 102.201996 66.325 106.602 67.825 C 113.00199 70.425 118.90199 74.325 123.802 79.225 C 139.202 96.325 137.702 122.725 120.502 138.125 C 103.302 153.525 77.0018 152.025 61.6018 134.825 C 54.801804 127.225 51.0018 117.325 51.0018 107.125 C 50.901794 96.325 55.0018 85.825 62.6018 78.025 C 66.7018 74.525 71.2018 71.525 76.1018 69.225 C 76.5018 69.025 76.9268 68.825 77.3518 68.625 C 77.7768 68.425 78.2018 68.225 78.6018 68.025 L 80.0018 67.525 C 84.3018 66.225 88.7018 65.525 93.10181 65.525 Z M 92.7018 136 C 108.442 136 121.202 123.24 121.202 107.5 C 121.202 91.7599 108.442 79 92.7018 79 C 76.9617 79 64.2018 91.7599 64.2018 107.5 C 64.2018 123.24 76.9617 136 92.7018 136 Z"/>
</svg>
