<svg width="876" height="876" xmlns="http://www.w3.org/2000/svg">
    <path fill="#8237e2" stroke="none" d="M 838 438 C 838 544.0866 795.85724 645.8282 720.8428 720.8428 C 645.8282 795.85724 544.0866 838 438 838 C 331.9134 838 230.17186 795.85724 155.15729 720.8428 C 80.14274 645.8282 38 544.0866 38 438 C 38 331.9134 80.14274 230.17186 155.15729 155.15729 C 230.17186 80.14274 331.9134 38 438 38 C 544.0866 38 645.8282 80.14274 720.8428 155.15729 C 795.85724 230.17186 838 331.9134 838 438 Z"/>
    <path fill="#ffffff" fill-rule="evenodd" stroke="none" d="M 312.74 230.763 C 320.097 221.655 330.17 215.474 341.2 212.886 C 347.682 210.583 354.662 209.329 361.935 209.329 L 610.07 209.329 C 644.273 209.329 672 237.056 672 271.259 L 672 329.254 C 672 332.463 671.756 335.615 671.286 338.692 L 671.53 338.618 L 671.53 341.711 C 671.53 374.231 645.167 400.594 612.647 400.594 L 602.256 400.594 C 596.733 400.594 592.256 405.071 592.256 410.59396 L 592.256 561.882 C 592.256 575.927 587.236 589.509 578.101 600.178 L 540.602 643.976 C 539.859 644.906 539.098 645.825 538.32 646.728 C 526.616 660.308 512.268 667.201 497.232 667.201 L 367.84598 667.201 C 352.811 667.201 338.462 660.308 326.759 646.728 C 314.66 632.69 312.74 615.124 312.74 601.391 L 312.74 577.233 C 312.74 550.944 291.429 529.634 265.141 529.634 C 252.51701 529.634 240.41 524.619 231.483 515.692 L 219.166 503.375 C 209.455 493.664 204 480.49298 204 466.76 L 204 390.696 C 204 378.855 208.058 367.37103 215.498 358.16 C 222.939 348.948 312.74 230.763 312.74 230.763 Z M 341.222 271.259 C 341.222 259.82 350.496 250.547 361.935 250.547 L 610.07 250.547 C 621.509 250.547 630.782 259.82 630.782 271.259 L 630.782 329.254 C 630.782 340.693 621.509 349.966 610.07 349.966 L 556.217 349.966 C 544.778 349.966 535.505 359.24002 535.505 370.679 L 535.505 519.808 C 535.505 531.247 526.232 540.521 514.792 540.521 L 457.21198 540.521 C 445.773 540.521 436.5 531.247 436.5 519.808 L 436.5 370.679 C 436.5 359.24002 427.22604 349.966 415.78696 349.966 L 361.935 349.966 C 350.496 349.966 341.222 340.693 341.222 329.254 L 341.222 271.259 Z"/>
</svg>
