<svg width="220" height="220" xmlns="http://www.w3.org/2000/svg">
    <defs>
        <clipPath id="clip0_4775_18126">
            <path fill="#000000" stroke="none" d="M 0 0 L 220 0 L 220 220 L 0 220 Z"/>
        </clipPath>
    </defs>
    <g clip-path="url(#clip0_4775_18126)">
        <path fill="#ffffff" stroke="none" d="M 110 220 C 170.751 220 220 170.751 220 110 C 220 49.248703 170.751 0 110 0 C 49.248703 0 0 49.248703 0 110 C 0 170.751 49.248703 220 110 220 Z"/>
        <path fill="#b5179e" fill-rule="evenodd" stroke="none" d="M 187.687 88.5065 C 162.51 64.5673 136.626 52 110.172 52 C 83.7186 52 57.8346 64.5673 32.6571 88.5065 C 30.502703 90.5549 30.4182 93.9605 32.4684 96.1131 C 34.5185 98.2657 37.9269 98.3501 40.0813 96.301704 C 64.0177 73.5425 87.3796 62.7606 110.172 62.7606 C 132.945 62.7606 156.287 73.5242 180.20201 96.2438 C 180.577 96.6315 180.88301 97.1651 181.061 97.7211 C 180.998 98.04979 180.96498 98.38909 180.96498 98.7361 C 180.96498 100.007 180.546 100.691 180.205 100.983 C 180.132 101.046 180.06 101.111 179.98999 101.178 C 179.404 101.737 178.818 102.289 178.233 102.834 C 155.943 84.3016 133.207 74.6229 110.039 74.6229 C 85.6287 74.6229 61.6986 85.3665 38.2649 105.889 C 38.2214 105.924 38.1782 105.96 38.1355 105.996 L 38.0774 106.04599 C 36.2835 107.582 34.3276 109.258 32.3559 111.221 C 26.9637 116.279 26.5406 124.703 31.2942 130.48 C 31.3257 130.531 31.3581 130.581 31.391602 130.632 C 31.8542 131.325 32.4064 131.822 32.9275 132.172 C 57.933495 155.776 83.6349 168.162 109.898 168.162 C 136.351 168.162 162.235 155.595 187.413 131.656 C 189.567 129.607 189.652 126.201996 187.601 124.04901 C 185.551 121.897 182.14299 121.812 179.988 123.861 C 156.052 146.62 132.69 157.402 109.898 157.402 C 87.1052 157.402 63.743305 146.62 39.8069 123.861 L 39.7683 123.824 C 38.3096 122.246 38.5742 120.13 39.7472 119.048 C 39.7999 118.999 39.8517 118.949 39.9024 118.899 C 40.4934 118.30799 41.0863 117.744995 41.6877 117.19401 C 64.9817 136.59 88.7637 146.345 112.966 145.502 C 136.163 144.694 158.87 134.179 181.077 114.766 C 181.59 114.477 182.063 114.098 182.474 113.631 C 182.575 113.516 182.67001 113.398 182.76 113.278 C 184.288 111.909 185.814 110.49799 187.338 109.045006 C 189.97098 106.73 191.21802 103.67199 191.60098 100.772 C 191.859 100.144 192 99.4566 192 98.7361 C 192 94.8691 190.329 91.1443 187.783 88.5996 C 187.751 88.5682 187.71901 88.5371 187.687 88.5065 Z M 110.039 85.3835 C 129.582 85.3835 149.539 93.3384 170.029 110.023 C 150.468 126.088 131.338 134.095 112.591 134.748 C 92.21881 135.458 71.3873 127.516 49.9792 110.07901 C 70.4937 93.35621 90.4738 85.3835 110.039 85.3835 Z"/>
        <path fill="#b5179e" fill-rule="evenodd" stroke="none" d="M 110 90 C 98.9543 90 90 98.9543 90 110 C 90 121.046 98.9543 130 110 130 C 121.046 130 130 121.046 130 110 C 130 98.9543 121.046 90 110 90 Z M 110 120 C 115.523 120 120 115.523 120 110 C 120 104.477 115.523 100 110 100 C 104.477 100 100 104.477 100 110 C 100 115.523 104.477 120 110 120 Z"/>
    </g>
</svg>
