<svg width="200" height="200" xmlns="http://www.w3.org/2000/svg">
    <defs>
        <linearGradient id="linearGradient-1" x1="-0.0000000000000002220446" y1="0.5" x2="1" y2="0.5" gradientUnits="userSpaceOnUse" gradientTransform="matrix(199.84961 0 0 182.73776 -0 17.111858)">
            <stop offset="0" stop-color="#929297"/>
            <stop offset="0.78035736" stop-color="#88878d"/>
            <stop offset="1" stop-color="#bab9c6"/>
        </linearGradient>
        <linearGradient id="linearGradient-2" x1="-0.0000000000000001110223" y1="0.5" x2="1" y2="0.5" gradientUnits="userSpaceOnUse" gradientTransform="matrix(199.84961 0 0 182.73776 -0 -0.00000763)">
            <stop offset="0" stop-color="#919fb7"/>
            <stop offset="1" stop-color="#f8fafe"/>
        </linearGradient>
    </defs>
    <g id="RING">
        <g>
            <g transform="matrix(-1 0 -0 -1 199.84961 216.96147)">
                <path id="Combined-Shape-Copy-34" fill="url(#linearGradient-1)" stroke="none" d="M 97.70136 45.66463 C 63.889164 45.52554 33.996918 62.540554 15.904603 88.37136 C 8.578192 98.82813 3.1860204 110.75707 0.25217113 123.628586 C 0.08500895 121.266106 -0 118.88079 -0 116.4755 C -0 61.59848 44.250336 17.111858 98.83574 17.111858 C 158.14246 17.111858 199.84961 58.27477 199.84961 109.05179 C 199.84961 148.587 174.56569 182.29391 139.08607 195.28116 C 130.46327 198.23817 121.652954 199.84961 112.46826 199.84961 C 69.80375 199.84961 32.945248 165.07846 32.945248 122.186066 C 32.945248 114.81712 33.96608 107.6879 38.145416 100.9335 C 36.577087 105.099724 36.35338 108.1916 36.35338 111.33602 C 36.35338 146.97455 66.22666 174.72318 101.67585 174.72318 C 137.12505 174.72318 165.86229 145.83243 165.86229 110.1939 C 165.86229 80.012794 145.2524 54.671104 117.40988 47.61755 C 111.73446 46.47665 105.93212 45.691677 97.70136 45.66463 Z"/>
            </g>
            <path id="Combined-Shape-Copy-41" fill="url(#linearGradient-2)" stroke="none" d="M 97.70136 28.552776 C 63.889164 28.413677 33.996918 45.428696 15.904603 71.259514 C 8.578192 81.71627 3.1860204 93.64521 0.25217113 106.51672 C 0.08500895 104.15424 -0 101.76893 -0 99.363655 C -0 44.48662 44.250336 0 98.83574 0 C 158.14246 0 199.84961 41.16291 199.84961 91.93993 C 199.84961 131.47514 174.56569 165.18205 139.08607 178.1693 C 130.46327 181.12631 121.652954 182.73776 112.46826 182.73776 C 69.80375 182.73776 32.945248 147.9666 32.945248 105.0742 C 32.945248 97.70527 33.96608 90.576035 38.145416 83.82164 C 36.577087 87.98787 36.35338 91.07974 36.35338 94.22415 C 36.35338 129.86269 66.22666 157.61131 101.67585 157.61131 C 137.12505 157.61131 165.86229 128.72057 165.86229 93.08204 C 165.86229 62.90094 145.2524 37.559246 117.40988 30.505692 C 111.73446 29.364796 105.93212 28.579819 97.70136 28.552776 Z"/>
        </g>
    </g>
</svg>
