<svg width="1094" height="1094" xmlns="http://www.w3.org/2000/svg">
    <path fill="#020617" fill-rule="evenodd" stroke="none" d="M 768.157 754.2609 C 780.218 751.0331 784.778 747.80194 790.574 738.30304 C 792.3791 735.34204 794.305 731.773 796.237 727.71906 C 800.502 718.76807 804.79504 707.463 807.877 695.156 C 809.856 687.256 811.3389 678.945 812.545 670.403 C 814.066 659.613 815.145 648.454 816.221 637.295 C 818.337 636.696 817.0689 635.353 813.403 632.106 C 807.608 626.979 795.82697 617.097 790.794 607.316 C 785.75793 597.531 787.466 587.838 797.822 565.801 C 808.175 543.765 827.174 509.38 836.9589 486.10403 C 846.742 462.83496 847.312 450.676 843.98804 438.326 C 840.663 425.977 833.442 413.444 814.44604 394.91602 C 795.445 376.395 764.6699 351.879 726.675 326.236 L 725.13104 325.201 L 724.138 327.807 C 712.97595 357.205 711.267 360.53 705.379 362.14404 C 702.954 362.806 699.822 363.186 696.308 363.17896 C 699.173 360.552 701.78204 355.06403 707.335 342.256 C 715.663 323.045 730.616 287.37 739.683 254.295 C 747.617 225.355 751.046 198.402 750.991 174.907 C 882.852 246.863 972.312 386.77896 972.312 547.577 C 972.312 740.7219 843.2471 903.726 666.657 955.043 C 666.095 929.82196 665.534 904.601 662.259 880.544 C 660.085 864.575 656.717 849.118 652.873 834.453 C 650.927 827.023 648.858 819.794 646.758 812.8011 C 641.1 793.943 635.231 776.821 629.347 759.861 C 653.673 763.199 685.259 763.563 710.7831 762.145 C 736.524 760.722 756.093 757.491 768.157 754.2609 Z"/>
    <path fill="#020617" fill-rule="evenodd" stroke="none" d="M 668.718 142.966 C 648.384 135.794 609.503 124.91001 560.473 123.692 C 511.44797 122.48 452.272 130.934 396.44196 152.596 C 340.612 174.259 288.128 209.13098 258.935 230.963 C 229.734 252.80101 223.831 261.607 221.724 266.764 C 219.611 271.914 221.29399 273.414 234.989 285.214 C 248.692 297.014 274.398 319.114 293.482 328.702 C 312.567 338.283 325.036 335.345 333.278 331.189 C 341.521 327.032 345.54297 321.65 357.738 305.144 C 369.925 288.645 390.29898 261.023 401.782 237.176 C 413.265 213.336 415.857 193.266 421.176 184.36801 C 426.49496 175.464 434.54 177.739 471.025 194.06898 C 507.503 210.406 572.424 240.811 607.274 257.838 C 642.127 274.866 646.909 278.522 653.618 270.019 C 660.327 261.516 668.966 240.853 675.784 220.001 C 682.609 199.148 687.612 178.105 689.224 165.855 C 690.834 153.604 689.048 150.145 668.718 142.966 Z"/>
    <path fill="#020617" fill-rule="evenodd" stroke="none" d="M 210.742 391.965 C 208.84698 402.243 205.867 421.92603 215.257 442.962 C 224.64798 463.998 246.409 486.379 258.125 498.221 C 269.854 510.063 271.538 511.367 269.108 519.898 C 266.684 528.429 260.14 544.195 263.859 557.538 C 267.572 570.888 281.542 581.807 287.974 588.063 C 294.398 594.312 293.299 595.897 289.833 600.476 C 286.374 605.048 280.555 612.62 287.974 621.205 C 295.392 629.792 316.033 639.387 335.892 647.313 C 355.752 655.235 374.815 661.488 386.692 667.112 C 398.57 672.74 403.26202 677.737 412.469 695.701 C 421.67 713.668 435.386 744.602 440.557 773.64795 C 445.735 802.691 442.36 829.852 439.303 844.102 C 436.238 858.351 433.484 859.688 419.528 855.8141 C 405.579 851.939 380.42197 842.85205 364.515 839.803 C 348.60803 836.751 341.951 839.737 337.696 841.273 C 333.455 842.805 331.616 842.888 324.113 839.641 C 316.611 836.39307 303.451 829.81604 294.187 826.35205 C 284.923 822.8871 279.555 822.533 274.849 824.25006 C 270.136 825.967 266.078 829.754 265.078 835.491 C 264.078 841.234 266.142 848.925 259.161 846.1401 C 252.179 843.353 236.166 830.092 218.413 810.765 C 200.654 791.439 181.161 766.05 165.197 724.808 C 149.22 683.569 136.778 626.476 130.79 579.271 C 124.80201 532.078 125.274 494.76904 133.538 457.77 C 141.794 420.77097 157.842 384.074 166.627 364.34204 C 175.412 344.61 176.941 341.841 181.816 345.962 C 186.698 350.08298 194.91902 361.108 200.879 367.921 C 206.846 374.726 210.544 377.326 211.989 379.066 C 213.44 380.80597 212.62999 381.67902 210.742 391.965 Z"/>
    <path fill="#ffffff" fill-rule="evenodd" stroke="none" d="M 332.563 400.425 C 345.574 405.082 367.047 405.83597 399.43903 410.682 C 431.824 415.522 475.14197 424.45502 517.89 440.88998 C 560.63 457.326 602.81 481.26404 631.116 502.73 C 659.425 524.195 673.864 543.195 685.169 561.624 C 696.471 580.053 704.64105 597.905 714.803 610.544 C 724.969 623.179 737.12695 630.584 744.821 634.291 C 752.512 637.994 755.743 637.994 767.334 637.994 C 778.922 637.994 798.87 637.994 808.93695 637.808 C 812.635 637.736 814.9991 637.639 816.227 637.296 C 815.145 648.455 814.069 659.613 812.54706 670.403 C 811.342 678.945 809.859 687.259 807.87994 695.156 C 804.79504 707.463 800.50507 718.76807 796.2399 727.7199 C 794.30695 731.773 792.384 735.34204 790.576 738.30304 C 784.781 747.80194 780.221 751.0331 768.159 754.2609 C 756.095 757.49207 736.527 760.722 710.786 762.145 C 690.9 763.249 667.331 763.27295 646.387 761.65 C 640.214 761.17096 634.267 760.5491 628.714 759.771 C 604.3 756.3519 587.392 749.894 563.547 738.4 C 539.707 726.907 508.929 710.37695 476.25497 696.794 C 451.901 686.67 426.49796 678.183 401.679 670.227 C 393.204 667.511 384.793 664.855 376.515 662.216 C 344.024 651.864 313.626 641.795 298.339 632.106 C 284.503 623.341 283.024 614.89 288.216 604.287 C 288.765 603.167 289.385 602.019 290.076 600.849 C 297.289 588.599 311.921 573.403 322.841 555.826 C 325.37 551.768 327.688 547.591 329.815 543.301 C 336.881 529.035 341.693 513.656 344.024 498.172 C 346.568 481.37 346.187 464.427 343.221 448.929 C 342.63 445.85703 341.946 442.835 341.15 439.89 C 336.374 422.081 327.969 406.78 319.558 391.478 C 322.235 395.219 326.476 398.248 332.563 400.425 Z M 454.233 541.645 C 458.692 555.319 468.393 569.916 482.58102 581.089 C 489.168 586.267 496.72 590.712 504.58203 594.347 C 513.649 598.546 523.117 601.667 531.965 603.618 C 548.478 607.26 562.821 606.816 575.195 604.661 C 587.571 602.505 597.964 598.637 603.958 595.693 C 609.943 592.762 611.518 590.754 610.315 584.59 C 610.098 583.477 609.79 582.23 609.371 580.849 C 607.47 574.586 603.292 565.618 594.965 554.326 C 584.805 540.546 568.47 523.314 550.352 511.923 C 549.979 511.691 549.598 511.45096 549.218 511.21896 C 535.84 503.018 521.553 497.953 508.443 495.178 C 504.103 494.262 499.89 493.593 495.882 493.14203 C 479.43903 491.31 466.442 493.198 459.59396 495.36804 C 452.73996 497.552 452.035 500.024 451.295 507.633 C 450.556 515.234 449.774 527.978 454.233 541.645 Z"/>
    <path fill="#ffffff" fill-rule="evenodd" stroke="none" d="M 469.82196 694.542 C 500.114 707.135 528.646 722.457 550.752 733.112 C 572.852 743.768 588.53 749.756 611.161 752.923 C 616.31 753.644 621.822 754.222 627.543 754.665 C 634.032 773.339 640.521 792.016 646.759 812.8011 C 652.998 833.589 658.986 856.484 662.261 880.544 C 665.535 904.601 666.097 929.821 666.658 955.04193 C 629.016 965.98096 589.215 971.845 548.047 971.845 C 495.268 971.845 444.742 962.208 398.127 944.59894 C 406.764 934.65906 415.401 924.722 422.622 911.298 C 429.84302 897.875 435.655 880.968 438.564 860.2739 C 438.712 859.197 438.86 858.108 438.994 857.01294 C 441.46603 837.034 441.368 813.855 439.529 791.232 C 437.592 767.368 433.717 744.12 426.926 724.003 C 420.128 703.887 410.406 686.9 400.691 669.916 C 423.693 677.288 447.24997 685.156 469.82196 694.542 Z"/>
    <path fill="#ffffff" fill-rule="evenodd" stroke="none" d="M 615.103 259.157 C 582.752 241.221 520.643 206.93399 483.778 190.14598 C 446.913 173.358 435.29602 174.063 428.85 176.578 C 422.40396 179.08601 421.136 183.404 417.684 195.451 C 414.225 207.497 408.589 227.279 394.16104 251.189 C 379.72696 275.099 356.507 303.144 342.22 322.616 C 327.933 342.088 322.579 352.986 319.705 361.412 C 316.824 369.837 316.422 375.78296 319.106 383.00403 C 321.783 390.239 327.553 398.742 352.273 405.01898 C 376.993 411.296 420.678 415.347 467.87802 428.027 C 515.078 440.71497 565.797 462.01797 606.657 491.346 C 647.514 520.666 678.513 558.011 697.097 583.632 C 715.675 609.254 721.839 623.173 735.576 631.184 C 749.314 639.198 770.6241 641.314 785.16 641.38 C 799.69794 641.449 807.458 639.47 811.484 637.998 C 815.51 636.528 815.793 635.565 809.272 630.036 C 802.747 624.508 789.417 614.417 791.3791 589.649 C 793.343 564.872 810.60297 525.428 822.211 500.497 C 833.816 475.565 839.762 465.167 843.90393 453.452 C 848.04004 441.74298 850.36804 428.718 833.744 408.471 C 817.12 388.224 781.5411 360.75 759.61707 344.37003 C 737.69 327.991 729.412 322.708 723.688 323.764 C 717.964 324.821 714.794 332.218 710.391 342.081 C 705.988 351.944 700.349 364.27197 688.9651 366.554 C 677.578 368.837 660.445 361.067 647.676 352.881 C 634.908 344.688 626.506 336.079 625.028 329.605 C 623.554 323.13 629.005 318.784 634.762 310.922 C 640.522 303.06 646.586 291.668 648.32 285.173 C 650.054 278.685 647.453 277.093 615.103 259.157 Z"/>
    <path fill="#ffffff" fill-rule="evenodd" stroke="none" d="M 507.17297 969.9 C 469.13797 966.265 432.562 957.60706 398.127 944.59894 C 406.764 934.65906 415.401 924.722 422.622 911.298 C 429.84302 897.875 435.655 880.968 438.564 860.2739 C 438.712 859.197 438.86 858.108 438.994 857.01294 C 441.46603 837.034 441.368 813.855 439.529 791.232 C 437.592 767.368 433.717 744.12 426.926 724.003 C 420.128 703.887 410.406 686.9 400.691 669.916 C 415.57 674.682 430.674 679.664 445.602 685.12 C 460.593 718.1011 475.613 754.536 486.342 784.501 C 505.891 839.101 511.175 872.209 511.175 913.42395 C 511.175 931.59094 510.146 951.331 507.17297 969.9 Z"/>
    <path fill="#ffffff" fill-rule="evenodd" stroke="none" d="M 328.448 562.759 C 319.085 577.82 306.545 590.839 300.36 601.343 C 299.768 602.35 299.233 603.323 298.768 604.288 C 289.208 594.46 279.648 584.633 272.836 573.854 C 266.017 563.083 261.945 551.36 262.466 541.004 C 262.994 530.648 268.102 521.659 273.216 512.663 C 276.901 515.46 280.536 518.116 284.065 520.617 C 302.924 534.002 318.669 543.012 334.414 552.022 C 332.597 555.693 330.603 559.279 328.448 562.759 Z"/>
    <path fill="#ffffff" fill-rule="evenodd" stroke="none" d="M 334.414 552.022 C 318.669 543.012 302.924 534.002 284.065 520.617 C 280.536 518.116 276.901 515.46 273.216 512.663 C 257.239 500.53897 240.514 485.84998 228.735 470.041 C 214.244 450.584 207.24199 429.414 205.1 413.972 C 202.958 398.53 205.67102 388.801 208.39 379.079 C 218.133 389.132 229.08798 398.692 240.78198 407.843 C 262.113 424.532 285.883 439.84 303.812 450.154 C 321.734 460.474 333.822 465.80698 345.911 471.14697 C 348.454 484.427 348.771 498.939 346.602 513.346 C 344.594 526.618 340.473 539.793 334.414 552.022 Z"/>
    <path fill="#ffffff" fill-rule="evenodd" stroke="none" d="M 334.414 552.022 C 318.669 543.012 302.924 534.002 284.065 520.617 C 280.536 518.116 276.901 515.46 273.216 512.663 C 257.239 500.53897 240.514 485.84998 228.735 470.041 C 216.96402 454.233 210.13698 437.304 206.84 423.229 C 211.84198 430.92203 221.711 443.729 235.195 455.769 C 250.341 469.28 270.039 481.82 289.588 487.069 C 309.13 492.317 328.517 490.274 347.158 484.096 L 347.637 483.934 C 348.40497 493.5 348.095 503.448 346.602 513.346 C 344.594 526.618 340.473 539.793 334.414 552.022 Z"/>
    <path fill="#ffffff" fill-rule="evenodd" stroke="none" d="M 303.812 450.154 C 285.883 439.84 262.113 424.532 240.78198 407.843 C 229.08798 398.692 218.133 389.132 208.39 379.079 C 201.43 371.9 195.09 364.47504 189.546 356.775 C 188.7 355.599 187.869 354.408 187.05202 353.218 C 173.53998 333.359 165.403 311.703 161.493 290.209 C 157.584 268.716 157.915 247.391 159.944 235.422 C 161.979 223.46 165.727 220.853 174.27301 227.60898 C 182.825 234.365 196.17502 250.484 215.795 268.476 C 222.692 274.802 230.363 281.361 238.521 287.765 C 253.555 299.572 265.763 308.596 286.715 319.206 C 307.659 329.822 313.295 330.583 338.233 336.472 C 330.639 346.018 326.102 351.471 317.233 363.89096 C 308.363 376.31097 323.291 401.587 322.615 408.815 C 321.924 416.04996 323.016 418.269 325.63 421.912 C 332.837 435.02197 340.044 448.13196 344.137 463.398 C 344.813 465.927 345.404 468.513 345.911 471.14697 C 333.822 465.80698 321.734 460.474 303.812 450.154 Z"/>
    <path fill="#ffffff" fill-rule="evenodd" stroke="none" d="M 303.812 450.154 C 285.883 439.84 262.113 424.532 240.78198 407.843 C 229.08798 398.692 218.133 389.132 208.39 379.079 C 201.43 371.9 195.09 364.47504 189.546 356.775 C 188.7 355.599 187.869 354.408 187.05202 353.218 C 173.53998 333.359 165.403 311.703 161.493 290.209 C 159.239 277.81 158.394 265.476 158.471 254.95099 C 159.084 255.578 159.718 256.36 160.373 257.332 C 166.072 265.8 173.202 287.758 189.95398 309.16 C 206.707 330.569 233.082 351.40802 260.233 361.158 C 287.376 370.915 302.149 369.597 312.829 369.548 C 323.516 369.49902 318.958 369.555 321.593 369.654 L 320.388 371.33798 C 308.588 387.865 323.291 401.587 322.615 408.815 C 321.924 416.04996 323.016 418.269 325.63 421.912 C 332.837 435.02197 340.044 448.13196 344.137 463.398 C 344.58 465.04697 344.982 466.724 345.34796 468.422 C 344.312 468.795 343.249 469.147 342.15 469.478 C 331.258 464.653 319.881 459.404 303.812 450.154 Z"/>
    <path fill="#ffffff" fill-rule="evenodd" stroke="none" d="M 421.727 854.811 C 408.962 848.6959 382.11398 841.231 366.827 838.707 C 351.53296 836.186 347.813 838.605 345.53104 841.0159 C 343.248 843.43 342.41 845.829 335.288 842.72205 C 328.165 839.616 314.759 830.999 303.53 826.65704 C 292.3 822.314 283.248 822.245 276.689 824.106 C 270.138 825.966 266.08 829.753 266.826 838.6191 C 267.573 847.485 273.125 861.435 284.861 874.685 C 296.598 887.938 314.513 900.49506 334.421 912.02795 C 354.32996 923.564 376.23196 934.081 387.52496 938.9439 C 398.81796 943.80707 399.508 943.01105 405.045 934.093 C 410.58203 925.174 420.973 908.128 426.25 896.169 C 431.526 884.212 431.689 877.341 432.42798 871.51807 C 433.16803 865.69806 434.492 860.931 421.727 854.811 Z"/>
    <path fill="#ffffff" fill-rule="evenodd" stroke="none" d="M 482.58102 581.089 C 468.393 569.916 458.692 555.319 454.233 541.645 C 449.774 527.978 450.556 515.234 451.295 507.633 C 452.035 500.024 452.73996 497.552 459.59396 495.36804 C 466.442 493.198 479.43903 491.31 495.882 493.14203 C 499.89 493.593 504.103 494.262 508.443 495.178 C 501.137 505.16 495.803 516.826 493.15396 529.732 C 488.392 552.853 493.085 575.728 504.58203 594.347 C 496.72 590.712 489.168 586.267 482.58102 581.089 Z"/>
    <path fill="#ffffff" fill-rule="evenodd" stroke="none" d="M 545.687 553.685 C 545.687 577.13 561.404 596.911 582.872 603.062 C 580.42 603.66 577.854 604.196 575.195 604.661 C 562.821 606.816 548.478 607.26 531.965 603.618 C 523.117 601.667 513.649 598.546 504.58203 594.347 C 493.085 575.728 488.392 552.853 493.15396 529.732 C 495.803 516.826 501.137 505.16 508.443 495.178 C 521.919 498.038 536.65 503.307 550.352 511.923 C 553.536 513.924 556.663 516.108 559.706 518.418 C 551.02 527.619 545.687 540.025 545.687 553.685 Z"/>
    <path fill="#ffffff" fill-rule="evenodd" stroke="none" d="M 537.34 530.634 C 529.358 530.634 522.884 537.101 522.884 545.083 C 522.884 553.065 529.358 559.539 537.34 559.539 C 545.322 559.539 551.789 553.065 551.789 545.083 C 551.789 537.101 545.322 530.634 537.34 530.634 Z"/>
    <path fill="#020617" fill-rule="evenodd" stroke="none" d="M 582.872 603.062 C 561.404 596.911 545.687 577.13 545.687 553.685 C 545.687 540.025 551.02 527.619 559.706 518.418 C 574.016 529.267 586.588 542.969 594.965 554.326 C 605.122 568.105 609.11 578.426 610.315 584.59 C 611.518 590.754 609.943 592.762 603.958 595.693 C 599.253 598.003 591.832 600.885 582.872 603.062 Z"/>
    <path fill="#ffffff" fill-rule="evenodd" stroke="none" d="M 469.82196 694.542 C 500.114 707.135 528.646 722.457 550.752 733.112 C 572.852 743.768 588.53 749.756 611.161 752.923 C 616.31 753.644 621.822 754.222 627.543 754.665 C 634.032 773.339 640.521 792.016 646.759 812.8011 C 648.859 819.794 650.929 827.023 652.875 834.453 C 631.564 834.34 601.778 831.707 575.109 822.722 C 542.172 811.626 513.993 790.844 480.002 774.641 C 465.47598 767.712 449.879 761.625 434.89404 755.36206 C 432.851 744.36005 430.237 733.808 426.926 724.003 C 420.128 703.887 410.406 686.9 400.691 669.916 C 423.693 677.288 447.24997 685.156 469.82196 694.542 Z"/>
    <path fill="#ffffff" fill-rule="evenodd" stroke="none" d="M 665.984 364.208 C 656.463 361.623 647.459 356.53598 640.541 351.288 C 633.628 346.047 628.793 340.65 626.426 337.445 C 624.054 334.232 624.153 333.211 631.765 319.333 C 635.463 312.584 640.937 302.806 646.872 291.506 C 653.149 279.558 659.944 265.905 665.701 252.365 C 675.052 230.357 681.659 208.638 686.629 187.088 C 687.606 182.84 688.522 178.599 689.384 174.365 C 694.609 148.645 697.801 123.142 699.672 105.20601 C 701.55005 87.2704 702.1 76.9005 703.515 70.9336 C 704.9291 64.9666 707.199 63.402702 713.16797 68.5665 C 719.1359 73.7304 728.80396 85.629 736.416 102.02899 C 744.0219 118.437 749.572 139.36 750.756 165.052 C 751.4681 180.579 750.591 197.84499 747.781 216.373 C 745.94 228.511 743.276 241.199 739.685 254.295 C 730.61707 287.371 715.664 323.045 707.334 342.256 C 701.94604 354.683 699.329 360.221 696.563 362.94 C 695.055 364.41898 693.5 365.067 691.4249 365.53198 C 685.553 366.864 675.506 366.78604 665.984 364.208 Z"/>
    <path fill="#ffffff" fill-rule="evenodd" stroke="none" d="M 655.383 360.27698 C 649.888 357.713 644.817 354.528 640.541 351.288 C 633.628 346.047 628.793 340.65 626.426 337.445 C 624.054 334.232 624.153 333.211 631.765 319.333 C 635.463 312.584 640.937 302.806 646.872 291.506 C 653.149 279.558 659.944 265.905 665.701 252.365 C 675.052 230.357 681.659 208.638 686.629 187.088 C 687.606 182.84 688.522 178.599 689.384 174.365 C 694.609 148.645 697.801 123.142 699.672 105.20601 C 701.55005 87.2704 702.1 76.9005 703.515 70.9336 C 704.37604 67.2985 705.5561 65.298 707.6939 65.453 C 711.646 80.4724 715.36597 98.3098 716.849 117.324 C 719.45795 150.843 715.105 187.98999 706.689 222.157 C 698.2739 256.331 685.797 287.526 673.172 318.142 C 667.109 332.845 661.014 347.41302 655.383 360.27698 Z"/>
    <path fill="none" stroke="#ffffff" stroke-miterlimit="22.9256" stroke-width="14.9771" stroke-linecap="round" d="M 741.544 825.999 C 741.544 836.613 741.544 847.224 741.544 857.83795 M 753.371 841.918 C 745.488 841.918 737.603 841.918 729.71906 841.918 M 880.912 668.113 C 880.912 685.01 880.912 701.90607 880.912 718.799 M 899.735 693.45807 C 887.186 693.45807 874.635 693.45807 862.086 693.45807 M 346.228 730.969 C 346.228 739.42 346.228 747.868 346.228 756.321 M 355.647 743.64294 C 349.37 743.64294 343.093 743.64294 336.816 743.64294 M 233.44702 693.915 C 233.44702 704.52893 233.44702 715.1451 233.44702 725.756 M 245.268 709.837 C 237.385 709.837 229.495 709.837 221.61899 709.837 M 191.144 533.24 C 191.144 540.482 191.144 547.724 191.144 554.959 M 199.21 544.103 C 193.835 544.103 188.45201 544.103 183.07698 544.103 M 907.43 475.5 C 907.43 483.947 907.43 492.401 907.43 500.85504 M 916.844 488.174 C 910.567 488.174 904.29 488.174 898.012 488.174 M 811.15 284.305 C 811.15 295.887 811.15 307.476 811.15 319.057 M 824.054 301.678 C 815.451 301.678 806.84595 301.678 798.244 301.678 M 618.903 174.336 C 618.903 188.511 618.903 202.68498 618.903 216.859 M 634.699 195.597 C 624.171 195.597 613.642 195.597 603.111 195.597 M 860.745 571.662 C 860.745 580.109 860.745 588.563 860.745 597.016 M 870.161 584.336 C 863.882 584.336 857.605 584.336 851.32806 584.336 M 319.006 250.03902 C 319.006 257.281 319.006 264.523 319.006 271.765 M 327.072 260.902 C 321.697 260.902 316.315 260.902 310.94 260.902"/>
    <path fill="none" stroke="#020617" stroke-miterlimit="22.9256" stroke-width="19.9695" stroke-linecap="round" d="M 594.962 554.328 C 605.122 568.108 609.107 578.428 610.309 584.593 C 611.515 590.757 609.937 592.764 603.952 595.695 C 597.961 598.64 587.568 602.507 575.193 604.663 C 562.818 606.819 548.475 607.263 531.962 603.62 M 594.962 554.328 C 584.802 540.548 568.467 523.317 550.349 511.926 M 594.962 554.328 C 605.12 568.108 609.108 578.428 610.313 584.592 C 611.516 590.756 609.941 592.764 603.956 595.695 C 599.251 598.005 591.831 600.887 582.872 603.063 C 561.403 596.913 545.686 577.132 545.686 553.687 C 545.686 540.027 551.019 527.621 559.705 518.42 C 574.015 529.269 586.585 542.972 594.962 554.328 Z M 550.349 511.926 C 536.647 503.31 521.916 498.04 508.44 495.18 C 501.134 505.156 495.808 516.829 493.14502 529.735 C 488.39 552.856 493.082 575.73 504.572 594.35 C 513.639 598.541 523.114 601.669 531.962 603.62 M 550.349 511.926 C 532.23 500.534 512.328 494.983 495.879 493.144 C 479.429 491.313 466.439 493.2 459.59097 495.37698 C 452.73697 497.554 452.032 500.02704 451.292 507.635 C 450.553 515.237 449.771 527.981 454.23 541.647 C 458.689 555.321 468.39 569.925 482.57803 581.091 C 496.766 592.25 515.449 599.978 531.962 603.62 M 644.854 275.502 C 630.272 267.133 615.643 259.046 601.383 251.48 C 559.304 229.162 520.353 211.303 493.949 199.496 C 467.53897 187.696 453.674 181.95502 442.586 180.003 C 431.497 178.05899 423.19202 179.912 419.867 187.717 C 416.541 195.53 418.19696 209.31 414.562 222.843 C 410.92703 236.376 401.994 249.676 387.087 268.866 C 372.173 288.056 351.271 313.129 337.499 332.41 C 323.726 351.692 317.076 365.183 316.033 376.20096 C 314.991 387.226 319.549 395.771 332.56 400.42798 C 345.572 405.08398 367.045 405.83804 399.437 410.685 C 431.82898 415.525 475.14 424.457 517.888 440.89297 C 560.628 457.32797 602.808 481.266 631.114 502.732 C 659.423 524.197 673.862 543.197 685.167 561.626 C 696.469 580.056 704.639 597.907 714.80096 610.547 C 724.96704 623.181 737.125 630.586 744.8189 634.293 C 752.51 637.997 755.741 637.997 767.332 637.997 C 778.92004 637.997 798.865 637.997 808.935 637.81 C 819.004 637.62 819.197 637.237 813.404 632.108 C 807.608 626.982 795.828 617.099 790.794 607.319 C 785.759 597.534 787.467 587.84 797.823 565.804 C 808.175 543.768 827.174 509.382 836.9589 486.106 C 846.743 462.83704 847.312 450.678 843.98804 438.328 C 840.664 425.979 833.443 413.446 814.44604 394.918 C 795.445 376.39804 764.671 351.882 726.675 326.239 C 726.161 325.894 725.644 325.549 725.132 325.203 M 816.225 637.298 C 814.29 657.29 812.358 677.28 807.878 695.15906 C 803.3981 713.041 796.367 728.80896 790.575 738.305 C 784.779 747.805 780.219 751.0349 768.157 754.263 C 756.093 757.494 736.525 760.72504 710.78394 762.1481 C 685.04 763.576 653.124 763.196 628.712 759.773 C 604.298 756.355 587.39 749.896 563.545 738.402 C 539.706 726.91 508.927 710.379 476.253 696.796 C 443.579 683.213 408.99704 672.574 376.513 662.219 C 344.023 651.867 313.624 641.798 298.337 632.108 C 283.043 622.422 282.853 613.109 290.074 600.852 C 297.288 588.601 311.919 573.405 322.839 555.829 C 333.765 538.259 340.986 518.308 344.023 498.17398 C 347.066 478.033 345.925 457.70898 341.148 439.892 C 336.372 422.083 327.968 406.78198 319.556 391.481 M 400.69 669.919 C 410.405 686.903 420.12604 703.88995 426.925 724.007 C 433.71603 744.12305 437.59003 767.3709 439.52798 791.235 C 441.465 815.099 441.465 839.583 438.563 860.277 C 435.653 880.971 429.841 897.878 422.62 911.302 C 415.399 924.725 406.762 934.663 398.126 944.602 M 627.542 754.669 C 634.03 773.342 640.519 792.0189 646.758 812.804 C 652.996 833.592 658.985 856.4879 662.259 880.547 C 665.533 904.604 666.095 929.825 666.656 955.0461 M 438.992 857.016 C 420.091 851.969 401.19696 846.916 386.64297 842.544 C 372.081 838.171 361.866 834.47205 355.265 833.768 C 348.657 833.063 345.663 835.3531 344.078 841.032 C 342.493 846.713 342.317 855.783 343.68396 863.928 C 345.043 872.074 347.953 879.295 350.855 886.5159 M 341.577 848.2311 C 320.281 838.713 298.978 829.197 285.423 824.87695 C 271.869 820.556 266.057 821.437 263.507 824.874 C 260.95 828.3079 261.654 834.293 263.803 842.359 C 265.938 850.427 269.523 860.5739 273.102 870.72 M 334.301 336.975 C 318.598 333.382 302.888 329.789 282.092 318.06 C 261.296 306.33 235.406 286.471 215.79301 268.479 C 196.17398 250.486 182.82399 234.368 174.271 227.612 C 165.726 220.85602 161.978 223.462 159.942 235.424 C 157.913 247.394 157.582 268.718 161.492 290.212 C 165.402 311.705 173.539 333.361 187.051 353.22 C 200.569 373.08698 219.457 391.157 240.781 407.846 C 262.113 424.535 285.882 439.843 303.811 450.15698 C 321.733 460.477 333.822 465.80997 345.90997 471.14996 M 208.38902 379.082 C 205.66998 388.804 202.957 398.533 205.09901 413.975 C 207.241 429.417 214.243 450.586 228.734 470.044 C 243.21898 489.49496 265.205 507.248 282.909 519.964 C 300.619 532.679 314.054 540.365 327.495 548.051 M 273.215 512.665 C 268.1 521.661 262.993 530.65 262.465 541.006 C 261.943 551.362 266.015 563.084 271.736 572.722 C 277.456 582.366 284.825 589.925 292.194 597.484 M 796.237 727.722 C 777.00995 726.833 757.785 725.946 736.7719 730.061 C 715.758 734.18 692.9619 743.3 668.514 747.56995 C 644.07 751.844 617.974 751.269 595.174 746.43396 C 572.369 741.602 552.857 732.507 539.31 719.59 C 525.756 706.673 518.169 689.936 510.582 673.196 M 747.301 688.66693 C 744.829 684.867 742.361 681.067 740.509 677.03 C 738.657 672.993 737.42096 668.716 736.185 664.442 M 795.241 686.025 C 799.418 683.219 803.598 680.409 806.4849 677.805 C 809.36597 675.202 810.957 672.803 812.545 670.406 M 750.991 174.909 C 882.852 246.864 972.312 386.781 972.312 547.578 C 972.312 781.897 782.359 971.848 548.046 971.848 C 313.729 971.848 123.774 781.897 123.774 547.578 C 123.774 471.798 143.654 400.645 178.469 339.067 M 222.98499 274.91 C 300.809 182.22902 417.548 123.31301 548.046 123.31301 C 599.311 123.31301 648.453 132.401 693.94495 149.069 M 691.4241 365.53497 C 685.551 366.86597 675.505 366.78903 665.983 364.20996 C 656.462 361.625 647.458 356.538 640.542 351.29 C 633.626 346.049 628.792 340.652 626.425 337.44 C 624.053 334.235 624.152 333.213 631.764 319.335 C 639.376 305.457 654.502 278.708 665.7 252.367 C 676.894 226.02 684.154 200.088 689.382 174.367 C 694.608 148.647 697.8 123.145004 699.671 105.209 C 701.546 87.2726 702.09894 76.9027 703.514 70.9357 C 704.927 64.9688 707.198 63.404896 713.167 68.5687 C 719.138 73.7325 728.803 85.6312 736.415 102.031 C 744.02106 118.439 749.5709 139.362 750.755 165.054 C 751.93805 190.746 748.75104 221.21498 739.684 254.29701 C 730.6129 287.373 715.663 323.048 707.333 342.259 C 699.003 361.47 697.299 364.20996 691.4241 365.53497 Z"/>
</svg>
