<svg width="850" height="850" xmlns="http://www.w3.org/2000/svg">
    <path fill="#010101" stroke="none" d="M 0 0 L 0 850 L 850 850 L 850 0 L 0 0 Z"/>
    <path fill="#626262" stroke="none" d="M 210 64 L 162 112 L 136 139 C 156.261 124.72799 173.464 102.53601 191 85 C 196.471 79.5286 208.162 71.5837 210 64 Z"/>
    <path fill="#fefefe" stroke="none" d="M 211 64 L 155 120 C 150.816 124.184006 137.207 133.746 137.207 140 C 137.207 147.319 154.997 159.997 160 165 L 207 212 C 213.984 218.984 224.456 226.444 229.422 235 C 232.11801 239.644 227.523 248.15901 226.269 253 C 222.368 268.058 221 281.43 221 297 C 221 342.757 244.344 383.56 280 411.714 C 328.507 450.015 397.756 457.42697 455.17 474.914 C 480.821 482.726 512.402 487.437 529 511 C 557.465 501.741 586.598 498.91104 616 505.651 C 627.508 508.28897 637.799 513.774 649 517 C 648.49 505.131 645.635 494.325 642.421 483 C 617.201 394.158 514.69 374.40097 438 353.69 C 401.79596 343.913 342.801 336.534 328.185 296 C 315.847 261.784 356.82196 242.721 382 234.68498 C 393.812 230.915 406.783 232 419 232 C 451.82 232 485.492 235.57 506.20102 265 C 511.102 271.966 514.285 280.038 517.079 288 C 519.663 295.366 522.654 302.058 523 310 C 550.687 310 580.564 311.027 608 307.424 C 614.33 306.593 631.229 310.192 634.243 302.867 C 635.681 299.371 634.201 293.687 633.831 290 C 632.606 277.794 629.371 264.707 625.678 253 C 623.584 246.36 617.664 238.565 623.062 232.17 C 643.123 208.404 667.009 186.991 689 165 C 694.003 159.997 711.793 147.319 711.793 140 C 711.793 133.746 698.1829 124.183 694 120 L 638 64 L 637 64 C 616.157 89.069305 590.354 111.362 567.155 134.282 C 561.007 140.356 549.396 157.336 540.845 159.058 C 536.611 159.91 529.119 155.146 525 153.885 C 511.085 149.627 497.16504 146.463 483 143.17 C 455.574 136.793 423.013 138.813 395 140.039 C 376.039 140.87 355.02496 143.632 337 149.796 C 330.738 151.937 314.003 160.986 308 158.784 C 298.358 155.247 288.22 140.219 281 133 C 258.705 110.705 236.751 82.1394 211 64 Z"/>
    <path fill="#626262" stroke="none" d="M 638 64 L 639 65 L 638 64 M 639 65 L 640 66 L 639 65 M 214 66 L 215 67 L 214 66 M 634 66 L 631 70 L 634 66 M 640 66 L 641 67 L 640 66 M 215 67 L 216 68 L 215 67 M 641 67 L 642 68 L 641 67 M 216 68 L 217 69 L 216 68 M 642 68 L 645 71 L 642 68 M 217 69 L 218 70 L 217 69 M 645 71 L 646 72 L 645 71 M 646 72 L 647 73 L 646 72 M 221 73 L 222 74 L 221 73 M 627 73 L 624 77 L 627 73 M 647 73 L 648 74 L 647 73 M 222 74 L 223 75 L 222 74 M 648 74 L 649 75 L 648 74 M 223 75 L 224 76 L 223 75 M 649 75 L 652 78 L 649 75 M 224 76 L 225 77 L 224 76 M 652 78 L 653 79 L 652 78 M 653 79 L 654 80 L 653 79 M 228 80 L 229 81 L 228 80 M 620 80 L 617 84 L 620 80 M 654 80 L 655 81 L 654 80 M 229 81 L 230 82 L 229 81 M 655 81 L 656 82 L 655 81 M 230 82 L 231 83 L 230 82 M 656 82 L 659 85 L 656 82 M 231 83 L 232 84 L 231 83 M 659 85 L 660 86 L 659 85 M 660 86 L 661 87 L 660 86 M 235 87 L 236 88 L 235 87 M 613 87 L 610 91 L 613 87 M 661 87 L 662 88 L 661 87 M 236 88 L 237 89 L 236 88 M 662 88 L 663 89 L 662 88 M 237 89 L 238 90 L 237 89 M 663 89 L 666 92 L 663 89 M 238 90 L 239 91 L 238 90 M 666 92 L 667 93 L 666 92 M 667 93 L 668 94 L 667 93 M 242 94 L 243 95 L 242 94 M 668 94 L 669 95 L 668 94 M 243 95 L 244 96 L 243 95 M 603 98 L 607 95 L 603 98 M 669 95 L 670 96 L 669 95 M 244 96 L 245 97 L 244 96 M 670 96 L 673 99 L 670 96 M 245 97 L 246 98 L 245 97 M 673 99 L 674 100 L 673 99 M 674 100 L 675 101 L 674 100 M 249 101 L 250 102 L 249 101 M 675 101 L 676 102 L 675 101 M 250 102 L 251 103 L 250 102 M 596 105 L 600 102 L 596 105 M 676 102 L 677 103 L 676 102 M 251 103 L 252 104 L 251 103 M 677 103 L 680 106 L 677 103 M 252 104 L 253 105 L 252 104 M 680 106 L 681 107 L 680 106 M 681 107 L 682 108 L 681 107 M 256 108 L 257 109 L 256 108 M 682 108 L 683 109 L 682 108 M 257 109 L 258 110 L 257 109 M 589 112 L 593 109 L 589 112 M 683 109 L 684 110 L 683 109 M 258 110 L 259 111 L 258 110 M 684 110 L 687 113 L 684 110 M 259 111 L 260 112 L 259 111 M 687 113 L 688 114 L 687 113 M 688 114 L 689 115 L 688 114 M 263 115 L 264 116 L 263 115 M 689 115 L 690 116 L 689 115 M 264 116 L 265 117 L 264 116 M 582 119 L 586 116 L 582 119 M 690 116 L 691 117 L 690 116 M 265 117 L 266 118 L 265 117 M 691 117 L 694 120 L 691 117 M 266 118 L 267 119 L 266 118 M 694 120 L 695 121 L 694 120 M 695 121 L 696 122 L 695 121 M 270 122 L 271 123 L 270 122 M 696 122 L 697 123 L 696 122 M 271 123 L 272 124 L 271 123 M 575 126 L 579 123 L 575 126 M 697 123 L 698 124 L 697 123 M 272 124 L 273 125 L 272 124 M 698 124 L 701 127 L 698 124 M 273 125 L 274 126 L 273 125 M 701 127 L 702 128 L 701 127 M 702 128 L 703 129 L 702 128 M 277 129 L 278 130 L 277 129 M 703 129 L 704 130 L 703 129 M 278 130 L 279 131 L 278 130 M 568 133 L 572 130 L 568 133 M 704 130 L 705 131 L 704 130 M 279 131 L 280 132 L 279 131 M 705 131 L 708 134 L 705 131 M 280 132 L 281 133 L 280 132 M 708 134 L 709 135 L 708 134 M 709 135 L 710 136 L 709 135 M 284 136 L 285 137 L 284 136 M 710 136 L 711 137 L 710 136 M 285 137 L 286 138 L 285 137 M 561 140 L 565 137 L 561 140 M 711 137 L 712 138 L 711 137 M 286 138 L 287 139 L 286 138 M 712 138 L 713 141 L 714 141 L 714 138 L 712 138 M 287 139 L 288 140 L 287 139 M 391 139 L 391 140 L 458 140 L 437 139 L 391 139 M 136 141 L 137 142 L 136 141 M 379 141 L 380 142 L 379 141 M 712 141 L 713 142 L 712 141 M 137 142 L 138 143 L 137 142 M 711 142 L 712 143 L 711 142 M 138 143 L 139 144 L 138 143 M 291 143 L 292 144 L 291 143 M 363 143 L 364 144 L 363 143 M 485 143 L 486 144 L 485 143 M 710 143 L 711 144 L 710 143 M 139 144 L 140 145 L 139 144 M 292 144 L 293 145 L 292 144 M 356 144 L 356 145 L 363 145 L 356 144 M 486 144 L 486 145 L 492 145 L 486 144 M 556 144 L 554 147 L 556 144 M 709 144 L 710 145 L 709 144 M 140 145 L 141 146 L 140 145 M 293 145 L 294 146 L 293 145 M 346 146 L 346 147 L 356 146 L 346 146 M 492 145 L 492 146 L 498 146 L 492 145 M 708 145 L 709 146 L 708 145 M 141 146 L 142 147 L 141 146 M 294 146 L 295 147 L 294 146 M 498 146 L 498 147 L 502 147 L 498 146 M 707 146 L 708 147 L 707 146 M 142 147 L 143 148 L 142 147 M 345 147 L 346 148 L 345 147 M 502 147 L 503 148 L 502 147 M 706 147 L 707 148 L 706 147 M 143 148 L 144 149 L 143 148 M 705 148 L 706 149 L 705 148 M 144 149 L 145 150 L 144 149 M 337 149 L 338 150 L 337 149 M 511 149 L 512 150 L 511 149 M 704 149 L 705 150 L 704 149 M 145 150 L 146 151 L 145 150 M 298 150 L 299 151 L 298 150 M 334 150 L 335 151 L 334 150 M 703 150 L 704 151 L 703 150 M 146 151 L 147 152 L 146 151 M 299 151 L 300 152 L 299 151 M 329 151 L 329 152 L 334 152 L 329 151 M 515 151 L 515 152 L 520 152 L 515 151 M 549 151 L 547 154 L 549 151 M 702 151 L 703 152 L 702 151 M 147 152 L 148 153 L 147 152 M 300 152 L 301 153 L 300 152 M 326 152 L 326 153 L 329 153 L 326 152 M 520 152 L 520 153 L 527 154 L 520 152 M 701 152 L 702 153 L 701 152 M 148 153 L 149 154 L 148 153 M 301 153 L 302 154 L 301 153 M 323 155 L 326 154 L 323 155 M 700 153 L 701 154 L 700 153 M 149 154 L 150 155 L 149 154 M 699 154 L 700 155 L 699 154 M 150 155 L 151 156 L 150 155 M 698 155 L 699 156 L 698 155 M 151 156 L 152 157 L 151 156 M 316 156 L 317 157 L 316 156 M 532 156 L 533 157 L 532 156 M 697 156 L 698 157 L 697 156 M 152 157 L 153 158 L 152 157 M 305 157 L 306 158 L 305 157 M 314 157 L 315 158 L 314 157 M 696 157 L 697 158 L 696 157 M 153 158 L 154 159 L 153 158 M 306 158 L 307 159 L 306 158 M 307 159 L 307 160 L 314 159 L 307 159 M 536 158 L 536 159 L 539 159 L 536 158 M 542 158 L 539 159 L 539 160 L 542 158 M 695 158 L 696 159 L 695 158 M 154 159 L 155 160 L 154 159 M 694 159 L 695 160 L 694 159 M 155 160 L 156 161 L 155 160 M 693 160 L 694 161 L 693 160 M 156 161 L 157 162 L 156 161 M 692 161 L 693 162 L 692 161 M 157 162 L 158 163 L 157 162 M 691 162 L 692 163 L 691 162 M 158 163 L 159 164 L 158 163 M 690 163 L 691 164 L 690 163 M 159 164 L 160 165 L 159 164 M 689 164 L 690 165 L 689 164 M 160 165 L 161 166 L 160 165 M 688 165 L 689 166 L 688 165 M 161 166 L 162 167 L 161 166 M 687 166 L 688 167 L 687 166 M 162 167 L 163 168 L 162 167 M 686 167 L 687 168 L 686 167 M 163 168 L 164 169 L 163 168 M 685 168 L 686 169 L 685 168 M 164 169 L 165 170 L 164 169 M 684 169 L 685 170 L 684 169 M 165 170 L 166 171 L 165 170 M 683 170 L 684 171 L 683 170 M 166 171 L 167 172 L 166 171 M 682 171 L 683 172 L 682 171 M 167 172 L 168 173 L 167 172 M 681 172 L 682 173 L 681 172 M 168 173 L 169 174 L 168 173 M 680 173 L 681 174 L 680 173 M 169 174 L 170 175 L 169 174 M 679 174 L 680 175 L 679 174 M 170 175 L 171 176 L 170 175 M 678 175 L 679 176 L 678 175 M 171 176 L 172 177 L 171 176 M 677 176 L 678 177 L 677 176 M 172 177 L 173 178 L 172 177 M 676 177 L 677 178 L 676 177 M 173 178 L 174 179 L 173 178 M 675 178 L 676 179 L 675 178 M 174 179 L 175 180 L 174 179 M 674 179 L 675 180 L 674 179 M 175 180 L 176 181 L 175 180 M 673 180 L 674 181 L 673 180 M 176 181 L 177 182 L 176 181 M 672 181 L 673 182 L 672 181 M 177 182 L 178 183 L 177 182 M 671 182 L 672 183 L 671 182 M 178 183 L 179 184 L 178 183 M 670 183 L 671 184 L 670 183 M 179 184 L 180 185 L 179 184 M 669 184 L 670 185 L 669 184 M 180 185 L 181 186 L 180 185 M 668 185 L 669 186 L 668 185 M 181 186 L 182 187 L 181 186 M 667 186 L 668 187 L 667 186 M 182 187 L 183 188 L 182 187 M 666 187 L 667 188 L 666 187 M 183 188 L 184 189 L 183 188 M 665 188 L 666 189 L 665 188 M 184 189 L 185 190 L 184 189 M 664 189 L 665 190 L 664 189 M 185 190 L 186 191 L 185 190 M 663 190 L 664 191 L 663 190 M 186 191 L 187 192 L 186 191 M 662 191 L 663 192 L 662 191 M 187 192 L 188 193 L 187 192 M 661 192 L 662 193 L 661 192 M 188 193 L 189 194 L 188 193 M 660 193 L 661 194 L 660 193 M 189 194 L 190 195 L 189 194 M 659 194 L 660 195 L 659 194 M 190 195 L 191 196 L 190 195 M 658 195 L 659 196 L 658 195 M 191 196 L 192 197 L 191 196 M 657 196 L 658 197 L 657 196 M 192 197 L 193 198 L 192 197 M 656 197 L 657 198 L 656 197 M 193 198 L 194 199 L 193 198 M 655 198 L 656 199 L 655 198 M 194 199 L 195 200 L 194 199 M 654 199 L 655 200 L 654 199 M 195 200 L 196 201 L 195 200 M 653 200 L 654 201 L 653 200 M 196 201 L 197 202 L 196 201 M 652 201 L 653 202 L 652 201 M 197 202 L 198 203 L 197 202 M 651 202 L 652 203 L 651 202 M 198 203 L 199 204 L 198 203 M 650 203 L 651 204 L 650 203 M 199 204 L 200 205 L 199 204 M 649 204 L 650 205 L 649 204 M 200 205 L 201 206 L 200 205 M 648 205 L 649 206 L 648 205 M 201 206 L 202 207 L 201 206 M 647 206 L 648 207 L 647 206 M 202 207 L 203 208 L 202 207 M 646 207 L 647 208 L 646 207 M 203 208 L 204 209 L 203 208 M 204 209 L 205 210 L 204 209 M 645 209 L 646 210 L 645 209 M 205 210 L 206 211 L 205 210 M 644 210 L 645 211 L 644 210 M 206 211 L 207 212 L 206 211 M 643 211 L 644 212 L 643 211 M 207 212 L 208 213 L 207 212 M 642 212 L 643 213 L 642 212 M 208 213 L 209 214 L 208 213 M 641 213 L 642 214 L 641 213 M 209 214 L 210 215 L 209 214 M 640 214 L 641 215 L 640 214 M 210 215 L 211 216 L 210 215 M 211 216 L 212 217 L 211 216 M 638 216 L 639 217 L 638 216 M 212 217 L 213 218 L 212 217 M 637 217 L 638 218 L 637 217 M 213 218 L 214 219 L 213 218 M 636 218 L 637 219 L 636 218 M 214 219 L 215 220 L 214 219 M 635 219 L 636 220 L 635 219 M 215 220 L 216 221 L 215 220 M 634 220 L 635 221 L 634 220 M 216 221 L 217 222 L 216 221 M 633 221 L 634 222 L 633 221 M 217 222 L 218 223 L 217 222 M 218 223 L 219 224 L 218 223 M 631 223 L 632 224 L 631 223 M 219 224 L 220 225 L 219 224 M 630 224 L 631 225 L 630 224 M 220 225 L 221 226 L 220 225 M 629 225 L 630 226 L 629 225 M 221 226 L 222 227 L 221 226 M 628 226 L 629 227 L 628 226 M 222 227 L 223 228 L 222 227 M 627 227 L 628 228 L 627 227 M 223 228 L 224 229 L 223 228 M 626 228 L 627 229 L 626 228 M 224 229 L 225 230 L 224 229 M 225 230 L 226 231 L 225 230 M 624 230 L 625 231 L 624 230 M 226 231 L 227 232 L 226 231 M 623 231 L 624 232 L 623 231 M 227 232 L 228 233 L 227 232 M 393 232 L 393 233 L 449 233 L 431 232 L 393 232 M 622 232 L 623 233 L 622 232 M 228 233 L 229 234 L 228 233 M 386 233 L 386 234 L 393 234 L 386 233 M 449 233 L 449 234 L 455 234 L 449 233 M 621 233 L 622 234 L 621 233 M 229 234 L 230 235 L 229 234 M 381 234 L 381 235 L 386 235 L 381 234 M 455 234 L 455 235 L 461 235 L 455 234 M 620 234 L 621 235 L 620 234 M 230 235 L 231 236 L 230 235 M 380 235 L 381 236 L 380 235 M 461 235 L 462 236 L 461 235 M 231.333 236.667 L 231.66702 237.333 L 231.333 236.667 M 376 236 L 377 237 L 376 236 M 464 236 L 465 237 L 464 236 M 369 238 L 370 239 L 369 238 M 471 238 L 472 239 L 471 238 M 366 239 L 366 240 L 369 240 L 366 239 M 472 239 L 472 240 L 475 240 L 472 239 M 364.667 240.33298 L 365.333 240.667 L 364.667 240.33298 M 475.667 240.33298 L 476.333 240.667 L 475.667 240.33298 M 360 241 L 360 242 L 364 242 L 360 241 M 477.667 241.33301 L 478.333 241.667 L 477.667 241.33301 M 229 242 L 230 243 L 229 242 M 359 242 L 360 243 L 359 242 M 622 242 L 622 246 L 623 246 L 622 242 M 357 243 L 358 244 L 357 243 M 228 244 L 229 245 L 228 244 M 355 244 L 356 245 L 355 244 M 484 244 L 485 245 L 484 244 M 485 245 L 486 246 L 485 245 M 352.667 246.333 L 353.333 246.66699 L 352.667 246.333 M 486.667 246.333 L 487.33304 246.66699 L 486.667 246.333 M 623 246 L 623 249 L 624 249 L 623 246 M 350.667 247.333 L 351.333 247.66702 L 350.667 247.333 M 488 247 L 489 248 L 488 247 M 226 248 L 226 253 L 227 253 L 226 248 M 349 248 L 350 249 L 349 248 M 489.66702 248.33298 L 490.333 248.667 L 489.66702 248.33298 M 348 249 L 349 250 L 348 249 M 491 249 L 492 250 L 491 249 M 624 249 L 625 250 L 624 249 M 492 250 L 493 251 L 492 250 M 493 251 L 494 252 L 493 251 M 625 251 L 626 252 L 625 251 M 225 253 L 225 256 L 226 256 L 225 253 M 340 254 L 340 255 L 343 255 L 340 254 M 496 254 L 497 255 L 496 254 M 339 255 L 340 256 L 339 255 M 497 255 L 498 256 L 497 255 M 224 256 L 224 261 L 225 261 L 224 256 M 338 256 L 339 257 L 338 256 M 498 256 L 499 257 L 498 256 M 626 256 L 627 257 L 626 256 M 499 257 L 500 258 L 499 257 M 500 258 L 501 259 L 500 258 M 223 261 L 224 262 L 223 261 M 334 261 L 334 263 L 336 261 L 334 261 M 503 261 L 504 262 L 503 261 M 504 262 L 505 263 L 504 262 M 333 263 L 334 264 L 333 263 M 505.333 263.667 L 505.66702 264.333 L 505.333 263.667 M 628 264 L 629 265 L 628 264 M 506 265 L 507 266 L 506 265 M 629 265 L 629 269 L 630 269 L 629 265 M 222 266 L 223 267 L 222 266 M 507.333 266.667 L 507.667 267.333 L 507.333 266.667 M 508 268 L 509 269 L 508 268 M 330 269 L 331 270 L 330 269 M 630 269 L 630 275 L 631 275 L 630 269 M 329 271 L 330 272 L 329 271 M 328 272 L 328 275 L 329 275 L 328 272 M 327 275 L 327 285 L 328 285 L 327 275 M 512 275 L 512 278 L 513 278 L 512 275 M 631 275 L 632 276 L 631 275 M 513.333 278.667 L 513.667 279.333 L 513.333 278.667 M 514.333 280.667 L 514.667 281.333 L 514.333 280.667 M 515 282 L 516 283 L 515 282 M 326 285 L 327 286 L 326 285 M 327 286 L 327 295 L 328 295 L 327 286 M 517 289 L 518 290 L 517 289 M 518 291 L 519 292 L 518 291 M 519 294 L 520 295 L 519 294 M 328 295 L 328 298 L 329 298 L 328 295 M 520 295 L 520 300 L 521 300 L 520 295 M 329 298 L 330 299 L 329 298 M 521 300 L 521 304 L 522 304 L 521 300 M 634 303 L 635 304 L 634 303 M 522 304 L 523 305 L 522 304 M 633 305 L 634 306 L 633 305 M 332 306 L 333 307 L 332 306 M 630 306 L 631 307 L 630 306 M 333 307 L 334 308 L 333 307 M 334.333 308.667 L 334.667 309.333 L 334.333 308.667 M 335 310 L 336 311 L 335 310 M 523 310 L 523 311 L 543 311 L 523 310 M 336 311 L 337 312 L 336 311 M 337 312 L 338 313 L 337 312 M 338 313 L 339 314 L 338 313 M 339 314 L 340 315 L 339 314 M 340 315 L 341 316 L 340 315 M 341 316 L 342 317 L 341 316 M 342 317 L 343 318 L 342 317 M 343 318 L 344 319 L 343 318 M 344 319 L 345 320 L 344 319 M 222 320 L 223 321 L 222 320 M 345.66702 320.333 L 346.333 320.667 L 345.66702 320.333 M 347 321 L 348 322 L 347 321 M 348.667 322.333 L 349.333 322.667 L 348.667 322.333 M 223 326 L 224 327 L 223 326 M 356 326 L 357 327 L 356 326 M 224 327 L 225 336 L 226 336 L 224 327 M 357.667 327.333 L 358.33298 327.667 L 357.667 327.333 M 359.66696 328.333 L 360.33304 328.667 L 359.66696 328.333 M 361.66702 329.333 L 362.333 329.667 L 361.66702 329.333 M 363 330 L 364 331 L 363 330 M 371 333 L 372 334 L 371 333 M 372.667 334.333 L 373.33298 334.667 L 372.667 334.333 M 374 335 L 374 336 L 377 336 L 374 335 M 226 336 L 228 340 L 226 336 M 377 336 L 377 337 L 380 337 L 377 336 M 384 338 L 385 339 L 384 338 M 391 340 L 392 341 L 391 340 M 392 341 L 392 342 L 395 342 L 392 341 M 395 342 L 395 343 L 400 343 L 395 342 M 400 343 L 400 344 L 403 344 L 400 343 M 229 345 L 230 346 L 229 345 M 406 345 L 407 346 L 406 345 M 411 346 L 412 347 L 411 346 M 414 347 L 415 348 L 414 347 M 230 348 L 231 349 L 230 348 M 415 348 L 415 349 L 420 349 L 415 348 M 231.333 349.667 L 231.66702 350.333 L 231.333 349.667 M 420 349 L 420 350 L 424 350 L 420 349 M 424 350 L 424 351 L 427 351 L 424 350 M 232 351 L 233 356 L 234 356 L 232 351 M 432 352 L 433 353 L 432 352 M 441 354 L 442 355 L 441 354 M 442 355 L 442 356 L 446 356 L 442 355 M 446 356 L 446 357 L 451 357 L 446 356 M 451 357 L 451 358 L 454 358 L 451 357 M 454 358 L 455 359 L 454 358 M 236 360 L 237 361 L 236 360 M 463 360 L 464 361 L 463 360 M 468 361 L 469 362 L 468 361 M 237 362 L 238 363 L 237 362 M 469 362 L 469 363 L 473 363 L 469 362 M 238.333 363.667 L 238.66699 364.333 L 238.333 363.667 M 473 363 L 473 364 L 477 364 L 473 363 M 477 364 L 477 365 L 481 365 L 477 364 M 239 365 L 240 369 L 241 369 L 239 365 M 481 365 L 482 366 L 481 365 M 489 367 L 490 368 L 489 367 M 494 369 L 494 370 L 498 370 L 494 369 M 498 370 L 498 371 L 501 371 L 498 370 M 501 371 L 501 372 L 505 372 L 501 371 M 509 373 L 510 374 L 509 373 M 244 374 L 245 375 L 244 374 M 512 374 L 513 375 L 512 374 M 245 375 L 246 376 L 245 375 M 246.333 376.66696 L 246.66699 377.333 L 246.333 376.66696 M 517 376 L 517 377 L 520 377 L 517 376 M 520 377 L 520 378 L 523 378 L 520 377 M 247 378 L 248 379 L 247 378 M 523 378 L 523 379 L 526 379 L 523 378 M 249 380 L 250 381 L 249 380 M 530 380 L 531 381 L 530 380 M 533 381 L 534 382 L 533 381 M 250 382 L 251 383 L 250 382 M 251 383 L 252 384 L 251 383 M 538.667 383.333 L 539.333 383.667 L 538.667 383.333 M 252 384 L 253 385 L 252 384 M 540 384 L 540 385 L 543 385 L 540 384 M 253 385 L 256 389 L 253 385 M 543.667 385.333 L 544.333 385.667 L 543.667 385.333 M 545 386 L 546 387 L 545 386 M 256 389 L 257 390 L 256 389 M 553 389 L 554 390 L 553 389 M 257 390 L 258 391 L 257 390 M 554.667 390.33298 L 555.333 390.667 L 554.667 390.33298 M 258 391 L 259 392 L 258 391 M 556 391 L 556 392 L 559 392 L 556 391 M 259 392 L 260 393 L 259 392 M 559.667 392.33304 L 560.333 392.66696 L 559.667 392.33304 M 260 393 L 263 396 L 260 393 M 566 395 L 567 396 L 566 395 M 263 396 L 264 397 L 263 396 M 568 396 L 569 397 L 568 396 M 264 397 L 265 398 L 264 397 M 569 397 L 570 398 L 569 397 M 265 398 L 266 399 L 265 398 M 570.667 398.333 L 571.333 398.667 L 570.667 398.333 M 266 399 L 267 400 L 266 399 M 572.667 399.333 L 573.333 399.667 L 572.667 399.333 M 267 400 L 270 403 L 267 400 M 574 400 L 575 401 L 574 400 M 270 403 L 271 404 L 270 403 M 580 403 L 581 404 L 580 403 M 271 404 L 272 405 L 271 404 M 581 404 L 582 405 L 581 404 M 272 405 L 273 406 L 272 405 M 582.667 405.33298 L 583.333 405.667 L 582.667 405.33298 M 273 406 L 274 407 L 273 406 M 584 406 L 585 407 L 584 406 M 274 407 L 277 409 L 277 408 L 274 407 M 587 408 L 588 409 L 587 408 M 277 409 L 278 410 L 277 409 M 588 409 L 589 410 L 588 409 M 278 410 L 279 411 L 278 410 M 590 410 L 591 411 L 590 410 M 279 411 L 280 412 L 279 411 M 591 411 L 592 412 L 591 411 M 280 412 L 281 413 L 280 412 M 592 412 L 593 413 L 592 412 M 282 413 L 283 414 L 282 413 M 593 413 L 594 414 L 593 413 M 594 414 L 595 415 L 594 414 M 284.667 415.333 L 285.333 415.667 L 284.667 415.333 M 286 416 L 287 417 L 286 416 M 287.667 417.333 L 288.333 417.667 L 287.667 417.333 M 289 418 L 290 419 L 289 418 M 599 418 L 600 419 L 599 418 M 600 419 L 601 420 L 600 419 M 601 420 L 602 421 L 601 420 M 295 421 L 299 424 L 299 423 L 295 421 M 602 421 L 603 422 L 602 421 M 299.667 424.33304 L 300.333 424.66696 L 299.667 424.33304 M 301 425 L 302 426 L 301 425 M 606 425 L 607 426 L 606 425 M 303 426 L 304 427 L 303 426 M 607 426 L 608 427 L 607 426 M 608 427 L 609 428 L 608 427 M 609 428 L 610 429 L 609 428 M 308 429 L 308 430 L 313 431 L 313 430 L 308 429 M 313.667 431.333 L 314.333 431.667 L 313.667 431.333 M 315 432 L 316 433 L 315 432 M 613 432 L 614 433 L 613 432 M 317 433 L 318 434 L 317 433 M 614 433 L 615 434 L 614 433 M 615 434 L 616 435 L 615 434 M 323 435 L 327 437 L 327 436 L 323 435 M 616.333 435.667 L 616.667 436.333 L 616.333 435.667 M 327.667 437.33298 L 328.333 437.667 L 327.667 437.33298 M 617 437 L 618 438 L 617 437 M 329 438 L 329 439 L 332 439 L 329 438 M 618 438 L 619 439 L 618 438 M 619 439 L 620 440 L 619 439 M 335 440 L 336 441 L 335 440 M 338 441 L 339 442 L 338 441 M 620 441 L 621 442 L 620 441 M 621 442 L 622 443 L 621 442 M 342 443 L 342 444 L 349 445 L 342 443 M 622 443 L 623 444 L 622 443 M 623.333 444.667 L 623.667 445.333 L 623.333 444.667 M 349 445 L 349 446 L 352 446 L 349 445 M 352 446 L 353 447 L 352 446 M 624 446 L 625 447 L 624 446 M 625 447 L 626 448 L 625 447 M 359 448 L 360 449 L 359 448 M 363 450 L 363 451 L 368 451 L 363 450 M 368 451 L 368 452 L 371 452 L 368 451 M 371 452 L 371 453 L 374 453 L 371 452 M 374 453 L 375 454 L 374 453 M 629 453 L 629 456 L 630 456 L 629 453 M 379 454 L 380 455 L 379 454 M 387 456 L 388 457 L 387 456 M 630 456 L 631 457 L 630 456 M 388 457 L 388 458 L 392 458 L 388 457 M 392 458 L 392 459 L 400 460 L 392 458 M 632 459 L 633 460 L 632 459 M 400 460 L 401 461 L 400 460 M 633 461 L 634 462 L 633 461 M 409 462 L 410 463 L 409 462 M 414 463 L 418 465 L 418 464 L 414 463 M 418 465 L 418 466 L 427 467 L 418 465 M 636.333 466.667 L 636.667 467.333 L 636.333 466.667 M 427 467 L 428 468 L 427 467 M 637 468 L 637 471 L 638 471 L 637 468 M 436 469 L 437 470 L 436 469 M 441 471 L 441 472 L 445 472 L 441 471 M 445 472 L 445 473 L 449 473 L 445 472 M 449 473 L 449 474 L 453 474 L 449 473 M 639 474 L 640 475 L 639 474 M 457 475 L 458 476 L 457 475 M 640 476 L 641 477 L 640 476 M 465 477 L 466 478 L 465 477 M 466 478 L 466 479 L 470 479 L 466 478 M 470 479 L 470 480 L 474 480 L 470 479 M 474 480 L 474 481 L 477 481 L 474 480 M 477 481 L 478 482 L 477 481 M 484 483 L 485 484 L 484 483 M 642 483 L 643 484 L 642 483 M 643 484 L 643 487 L 644 487 L 643 484 M 488 485 L 488 486 L 491 486 L 488 485 M 491 486 L 491 487 L 495 487 L 491 486 M 495.667 487.33304 L 496.333 487.66696 L 495.667 487.33304 M 644 487 L 644 492 L 645 492 L 644 487 M 497 488 L 498 489 L 497 488 M 500 489 L 501 490 L 500 489 M 505 491 L 510 494 L 510 493 L 505 491 M 510.667 494.333 L 511.333 494.667 L 510.667 494.333 M 512 495 L 513 496 L 512 495 M 514 496 L 515 497 L 514 496 M 646 496 L 647 497 L 646 496 M 517.667 499.333 L 518.333 499.667 L 517.667 499.333 M 519 500 L 520 501 L 519 500 M 520 501 L 521 502 L 520 501 M 521 502 L 522 503 L 521 502 Z"/>
    <path fill="#ff606b" stroke="none" d="M 565 502 L 565 503 L 568 503 L 565 502 Z"/>
    <path fill="#ff0521" stroke="none" d="M 568 502.428 C 538.358 506.67297 510.811 514.815 487 533.807 C 410.459 594.859 410.873 721.23804 493 777.975 C 508.474 788.664 525.713 796.952 544 801.525 C 563.468 806.39307 584.131 807.426 604 804.572 C 625.844 801.434 646.431 793.393 665 781.56396 C 747.148 729.234 756.745 607.967 686 542.089 C 667.54 524.899 645.273 513.597 621 507.117 C 604.298 502.657 585.266 499.956 568 502.428 Z"/>
    <path fill="#ff606b" stroke="none" d="M 596.667 502.33298 L 597.333 502.667 L 596.667 502.33298 Z"/>
    <path fill="#626262" stroke="none" d="M 647 502 L 648 503 L 647 502 Z"/>
    <path fill="#ff606b" stroke="none" d="M 557 503 L 557 504 L 562 504 L 557 503 M 602 503 L 602 504 L 606 504 L 602 503 M 552.667 504.33304 L 553.333 504.66696 L 552.667 504.33304 M 609.667 504.33304 L 610.333 504.66696 L 609.667 504.33304 M 547 505 L 548 506 L 547 505 M 615 505 L 616 506 L 615 505 Z"/>
    <path fill="#626262" stroke="none" d="M 525 506 L 526 507 L 525 506 Z"/>
    <path fill="#ff606b" stroke="none" d="M 543 506 L 543 507 L 546 507 L 543 506 M 618.667 506.333 L 619.333 506.66702 L 618.667 506.333 Z"/>
    <path fill="#626262" stroke="none" d="M 526 507 L 527 508 L 526 507 Z"/>
    <path fill="#ff606b" stroke="none" d="M 540 507 L 541 508 L 540 507 M 622.667 507.333 L 623.333 507.667 L 622.667 507.333 Z"/>
    <path fill="#626262" stroke="none" d="M 527 508 L 528 509 L 527 508 Z"/>
    <path fill="#ff606b" stroke="none" d="M 536 508 L 537 509 L 536 508 M 626 508 L 627 509 L 626 508 Z"/>
    <path fill="#626262" stroke="none" d="M 528.333 509.667 L 528.667 510.333 L 528.333 509.667 Z"/>
    <path fill="#ff606b" stroke="none" d="M 533.667 509.333 L 534.333 509.667 L 533.667 509.333 M 628.667 509.333 L 629.333 509.667 L 628.667 509.333 M 530 510 L 531 511 L 530 510 M 632 510 L 633 511 L 632 510 M 634.667 511.333 L 635.333 511.667 L 634.667 511.333 Z"/>
    <path fill="#626262" stroke="none" d="M 648 511 L 649 512 L 648 511 M 294 513 L 294 514 L 309 515 C 305.082 511 299.11 511.49002 294 513 Z"/>
    <path fill="#ff606b" stroke="none" d="M 637 512 L 638 513 L 637 512 Z"/>
    <path fill="#fefefe" stroke="none" d="M 211 787 L 212 787 L 280 719 C 286.962 712.03796 298.429 695.10297 308 692.48694 C 312.057 691.378 318.115 695.003 322 696.14 C 334.649 699.8431 347.29703 703.423 360 707.02594 C 385.34604 714.215 414.909 712 441 712 C 432.323 680.21 425.471 650.966 434 618 C 395.562 618 357.03897 608.088 333.514 575 C 323.801 561.338 316.271 545.37 312.576 529 C 311.186 522.841 310.869 513.741 302.996 513.059 C 277.473 510.847 250.516 518.798 225 520.039 C 219.002 520.33 202.332 519.511 201.14902 527.019 C 200.087 533.761 203.01102 540.558 204.374 547 C 207.6 562.247 211.043 577.548 217.062 592 C 219.497 597.847 229.036 612.004 226.787 618 C 223.904 625.686 212.74002 633.26 207 639 L 159 687 C 153.846 692.15393 137.655 703.456 137.117 710.961 C 136.692 716.899 151.058 727.196 155.05 731.155 C 173.736 749.68304 191.75201 769.05994 211 787 Z"/>
    <path fill="#ff606b" stroke="none" d="M 640 513 L 641 514 L 640 513 Z"/>
    <path fill="#626262" stroke="none" d="M 281 514 L 282 515 L 281 514 Z"/>
    <path fill="#ff606b" stroke="none" d="M 642 514 L 643 515 L 642 514 Z"/>
    <path fill="#626262" stroke="none" d="M 268 515 L 269 516 L 268 515 Z"/>
    <path fill="#ff606b" stroke="none" d="M 644 515 L 645 516 L 644 515 Z"/>
    <path fill="#626262" stroke="none" d="M 257 516 L 258 517 L 257 516 M 309 516 L 310 517 L 309 516 M 244 517 L 244 518 L 257 518 L 244 517 Z"/>
    <path fill="#ff606b" stroke="none" d="M 648 517 L 649 518 L 648 517 Z"/>
    <path fill="#626262" stroke="none" d="M 221 519 L 221 520 L 244 519 L 221 519 M 310 519 L 311 520 L 310 519 M 210 521 L 211 522 L 210 521 M 202 522 L 203 523 L 202 522 M 201 523 L 202 524 L 201 523 M 311 524 L 312 529 L 313 529 L 311 524 M 313 529 L 313 534 L 314 534 L 313 529 M 201 534 L 202 535 L 201 534 M 314 534 L 314 537 L 315 537 L 314 534 M 315 537 L 316 538 L 315 537 M 316 540 L 317 541 L 316 540 M 202 541 L 203 542 L 202 541 M 203 542 L 203 547 L 204 547 L 203 542 M 317 544 L 318 545 L 317 544 M 204 547 L 204 553 L 205 553 L 204 547 M 318 547 L 319 548 L 318 547 M 319.333 548.667 L 319.667 549.333 L 319.333 548.667 M 320 550 L 321 556 L 322 556 L 320 550 M 205 553 L 207 558 L 205 553 M 322 556 L 323 557 L 322 556 M 323 558 L 324 559 L 323 558 M 324 560 L 325 561 L 324 560 M 207 562 L 208 563 L 207 562 M 326 563 L 327 564 L 326 563 M 327.333 564.667 L 327.667 565.333 L 327.333 564.667 M 208 566 L 209 567 L 208 566 M 328.333 566.667 L 328.667 567.333 L 328.333 566.667 M 329 568 L 330 569 L 329 568 M 209 570 L 210 571 L 209 570 M 210 571 L 210 574 L 211 574 L 210 571 M 331 572 L 332 573 L 331 572 M 332 573 L 333 576 L 334 576 L 334 573 L 332 573 M 211 574 L 212 582 L 213 582 L 211 574 M 334 576 L 335 577 L 334 576 M 335 577 L 336 578 L 335 577 M 336 578 L 337 579 L 336 578 M 337 580 L 338 581 L 337 580 M 338 581 L 339 582 L 338 581 M 339 582 L 340 583 L 339 582 M 340 583 L 341 584 L 340 583 M 341 584 L 342 585 L 341 584 M 214 585 L 215 586 L 214 585 M 342 585 L 343 586 L 342 585 M 343 586 L 344 587 L 343 586 M 215 587 L 216 588 L 215 587 M 344 587 L 345 588 L 344 587 M 345 588 L 346 589 L 345 588 M 346 589 L 347 590 L 346 589 M 347 590 L 348 591 L 347 590 M 216 591 L 217 592 L 216 591 M 348 591 L 349 592 L 348 591 M 217 592 L 217 595 L 218 595 L 217 592 M 349 592 L 350 593 L 349 592 M 350 593 L 351 594 L 350 593 M 351.667 594.333 L 352.333 594.667 L 351.667 594.333 M 218.333 595.667 L 218.667 596.333 L 218.333 595.667 M 353 595 L 354 596 L 353 595 M 354 596 L 355 597 L 354 596 M 219 597 L 221 600 L 219 597 M 355 597 L 356 598 L 355 597 M 357 598 L 358 599 L 357 598 M 361 600 L 362 601 L 361 600 M 362 601 L 365 603 L 365 602 L 362 601 M 365.667 603.333 L 366.333 603.667 L 365.667 603.333 M 222 605 L 223 606 L 222 605 M 369 605 L 370 606 L 369 605 M 371 606 L 372 607 L 371 606 M 223 607 L 224 608 L 223 607 M 373 607 L 374 608 L 373 607 M 224.33298 608.667 L 224.667 609.333 L 224.33298 608.667 M 374 608 L 374 609 L 378 609 L 374 608 M 378 609 L 378 610 L 381 610 L 378 609 M 225 610 L 226 615 L 227 615 L 225 610 M 381.667 610.333 L 382.333 610.667 L 381.667 610.333 M 383 611 L 384 612 L 383 611 Z"/>
    <path fill="#ff606b" stroke="none" d="M 547 611 L 547 612 L 555 612 L 547 611 M 541.667 612.333 L 542.333 612.667 L 541.667 612.333 Z"/>
    <path fill="#fefefe" stroke="none" d="M 543 612.439 C 520.082 616.047 512.697 634.637 508.6 655 C 506.969 663.109 505.047 673.414 509.367 681 C 516.293 693.163 532.318 695.393 545 693.572 C 567.87 690.28796 575.08 673.309 579.651 653 C 581.61 644.292 583.83 634.418 579.573 626.004 C 573.046 613.108 555.953 610.4 543 612.439 Z"/>
    <path fill="#ff606b" stroke="none" d="M 559 612 L 560 613 L 559 612 Z"/>
    <path fill="#626262" stroke="none" d="M 391 613 L 392 614 L 391 613 Z"/>
    <path fill="#ff606b" stroke="none" d="M 536.667 613.333 L 537.333 613.667 L 536.667 613.333 M 563.667 613.333 L 564.333 613.667 L 563.667 613.333 M 602 613 L 600 617 L 601 617 L 602 613 Z"/>
    <path fill="#fefefe" stroke="none" d="M 603.228 614.028 C 598.714 616.782 598.458 626.286 597.424 631 C 594.288 645.301 591.584 659.695 588.424 674 C 587.476 678.295 584.002 686.438 585.693 690.682 C 587.226 694.529 601.579 694.045 604.486 691.972 C 611.444 687.012 606.215 672.283 612.514 666.603 C 616.459 663.046 626.055 665.179 631 664.961 C 643.788 664.396 655.23 658.339 659.934 646 C 661.251 642.546 662.557 638.714 662.787 635 C 664.167 612.757 638.306 613 623 613 C 617.633 613 607.942 611.152 603.228 614.028 Z"/>
    <path fill="#ff606b" stroke="none" d="M 642.667 613.333 L 643.333 613.667 L 642.667 613.333 Z"/>
    <path fill="#626262" stroke="none" d="M 397 614 L 398 615 L 397 614 Z"/>
    <path fill="#ff606b" stroke="none" d="M 533.667 614.333 L 534.333 614.667 L 533.667 614.333 M 566.667 614.333 L 567.333 614.667 L 566.667 614.333 M 646.667 614.333 L 647.333 614.667 L 646.667 614.333 Z"/>
    <path fill="#626262" stroke="none" d="M 398 615 L 398 616 L 403 616 L 398 615 Z"/>
    <path fill="#ff606b" stroke="none" d="M 568 615 L 569 616 L 568 615 M 650 615 L 651 616 L 650 615 Z"/>
    <path fill="#626262" stroke="none" d="M 403 616 L 403 617 L 417 617 L 403 616 Z"/>
    <path fill="#ff606b" stroke="none" d="M 529 616 L 530 617 L 529 616 M 570 616 L 571 617 L 570 616 M 652 616 L 653 617 L 652 616 Z"/>
    <path fill="#626262" stroke="none" d="M 417 617 L 417 618 L 434 618 L 417 617 Z"/>
    <path fill="#ff606b" stroke="none" d="M 528 617 L 529 618 L 528 617 M 572 617 L 573 618 L 572 617 M 526 618 L 527 619 L 526 618 M 573 618 L 574 619 L 573 618 M 655 618 L 656 619 L 655 618 Z"/>
    <path fill="#626262" stroke="none" d="M 226 619 L 227 620 L 226 619 Z"/>
    <path fill="#ff606b" stroke="none" d="M 433 619 L 434 620 L 433 619 M 525 619 L 526 620 L 525 619 M 574 619 L 575 620 L 574 619 M 656 619 L 657 620 L 656 619 Z"/>
    <path fill="#626262" stroke="none" d="M 225 620 L 226 621 L 225 620 M 224 621 L 225 622 L 224 621 Z"/>
    <path fill="#ff606b" stroke="none" d="M 522 621 L 523 622 L 522 621 M 576 621 L 577 622 L 576 621 M 599 621 L 600 622 L 599 621 M 658 621 L 659 622 L 658 621 Z"/>
    <path fill="#626262" stroke="none" d="M 223 622 L 224 623 L 223 622 Z"/>
    <path fill="#ff606b" stroke="none" d="M 521 622 L 522 623 L 521 622 M 577 622 L 578 623 L 577 622 M 659 622 L 660 623 L 659 622 Z"/>
    <path fill="#626262" stroke="none" d="M 222 623 L 223 624 L 222 623 M 221 624 L 222 625 L 221 624 Z"/>
    <path fill="#ff606b" stroke="none" d="M 432.333 624.667 L 432.667 625.333 L 432.333 624.667 M 598 624 L 598 627 L 599 627 L 598 624 M 519 625 L 520 626 L 519 625 M 579 625 L 580 626 L 579 625 M 661.333 625.667 L 661.667 626.333 L 661.333 625.667 Z"/>
    <path fill="#626262" stroke="none" d="M 219 626 L 220 627 L 219 626 Z"/>
    <path fill="#ff606b" stroke="none" d="M 518 626 L 519 627 L 518 626 Z"/>
    <path fill="#626262" stroke="none" d="M 218 627 L 219 628 L 218 627 Z"/>
    <path fill="#ff606b" stroke="none" d="M 580 627 L 581 628 L 580 627 Z"/>
    <path fill="#626262" stroke="none" d="M 217 628 L 218 629 L 217 628 Z"/>
    <path fill="#ff606b" stroke="none" d="M 517 628 L 518 629 L 517 628 M 547 628 L 547 629 L 553 629 L 547 628 Z"/>
    <path fill="#626262" stroke="none" d="M 216 629 L 217 630 L 216 629 Z"/>
    <path fill="#ff606b" stroke="none" d="M 431 629 L 431 634 L 432 634 L 431 629 M 516 629 L 517 630 L 516 629 M 543.667 629.333 L 544.333 629.667 L 543.667 629.333 Z"/>
    <path fill="#ff0521" stroke="none" d="M 545 629.533 C 528.927 633.44 518.368 683.611 543.996 676.501 C 559.814 672.112 570.138 623.422 545 629.533 Z"/>
    <path fill="#ff606b" stroke="none" d="M 555 629 L 556 630 L 555 629 M 597.333 629.667 L 597.667 630.333 L 597.333 629.667 Z"/>
    <path fill="#ff0521" stroke="none" d="M 619 629 L 615 649 C 620.868 649 628.614 650.315 633.985 647.543 C 639.64 644.624 644.156 634.229 636.891 630.434 C 631.855 627.802 624.494 629 619 629 Z"/>
    <path fill="#ff606b" stroke="none" d="M 634 629 L 634 630 L 637 630 L 634 629 M 662.333 629.667 L 662.667 630.333 L 662.333 629.667 Z"/>
    <path fill="#626262" stroke="none" d="M 215 630 L 216 631 L 215 630 Z"/>
    <path fill="#ff606b" stroke="none" d="M 541 630 L 542 631 L 541 630 M 557 630 L 558 631 L 557 630 M 581.333 630.667 L 581.667 631.333 L 581.333 630.667 M 638 630 L 639 631 L 638 630 Z"/>
    <path fill="#626262" stroke="none" d="M 214 631 L 215 632 L 214 631 Z"/>
    <path fill="#ff606b" stroke="none" d="M 515 631 L 516 632 L 515 631 M 558 631 L 559 632 L 558 631 M 618 631 L 619 632 L 618 631 M 639 631 L 640 632 L 639 631 M 538 632 L 539 633 L 538 632 M 640.333 632.667 L 640.667 633.333 L 640.333 632.667 Z"/>
    <path fill="#626262" stroke="none" d="M 212 633 L 213 634 L 212 633 Z"/>
    <path fill="#ff606b" stroke="none" d="M 514 633 L 515 634 L 514 633 M 537 633 L 538 634 L 537 633 M 559 633 L 560 634 L 559 633 Z"/>
    <path fill="#626262" stroke="none" d="M 211 634 L 212 635 L 211 634 M 210 635 L 211 636 L 210 635 Z"/>
    <path fill="#ff606b" stroke="none" d="M 513 635 L 514 636 L 513 635 M 582 635 L 582 639 L 583 639 L 582 635 M 596 635 L 597 636 L 596 635 Z"/>
    <path fill="#626262" stroke="none" d="M 209 636 L 210 637 L 209 636 Z"/>
    <path fill="#ff606b" stroke="none" d="M 535 636 L 536 637 L 535 636 M 560 636 L 560 642 L 561 642 L 560 636 M 617.333 636.667 L 617.667 637.333 L 617.333 636.667 Z"/>
    <path fill="#626262" stroke="none" d="M 208 637 L 209 638 L 208 637 Z"/>
    <path fill="#ff606b" stroke="none" d="M 430 637 L 430 640 L 431 640 L 430 637 M 662.333 637.667 L 662.667 638.333 L 662.333 637.667 Z"/>
    <path fill="#626262" stroke="none" d="M 207 638 L 208 639 L 207 638 Z"/>
    <path fill="#ff606b" stroke="none" d="M 512 638 L 513 639 L 512 638 M 534 638 L 535 639 L 534 638 M 595 638 L 595 642 L 596 642 L 595 638 M 640 638 L 640 641 L 641 641 L 640 638 Z"/>
    <path fill="#626262" stroke="none" d="M 205 640 L 206 641 L 205 640 Z"/>
    <path fill="#ff606b" stroke="none" d="M 533.333 640.667 L 533.667 641.333 L 533.333 640.667 M 616 640 L 616 643 L 617 643 L 616 640 Z"/>
    <path fill="#626262" stroke="none" d="M 204 641 L 205 642 L 204 641 Z"/>
    <path fill="#ff606b" stroke="none" d="M 511.333 641.667 L 511.667 642.333 L 511.333 641.667 M 661.333 641.667 L 661.667 642.333 L 661.333 641.667 Z"/>
    <path fill="#626262" stroke="none" d="M 203 642 L 204 643 L 203 642 Z"/>
    <path fill="#ff606b" stroke="none" d="M 639 642 L 640 643 L 639 642 Z"/>
    <path fill="#626262" stroke="none" d="M 202 643 L 203 644 L 202 643 Z"/>
    <path fill="#ff606b" stroke="none" d="M 532 643 L 532 646 L 533 646 L 532 643 M 581.333 643.667 L 581.667 644.333 L 581.333 643.667 Z"/>
    <path fill="#626262" stroke="none" d="M 201 644 L 202 645 L 201 644 Z"/>
    <path fill="#ff606b" stroke="none" d="M 594 644 L 595 645 L 594 644 M 660 644 L 661 645 L 660 644 Z"/>
    <path fill="#626262" stroke="none" d="M 200 645 L 201 646 L 200 645 Z"/>
    <path fill="#ff606b" stroke="none" d="M 510.333 645.667 L 510.667 646.333 L 510.333 645.667 M 559 645 L 559 648 L 560 648 L 559 645 M 615 645 L 616 646 L 615 645 M 637 645 L 638 646 L 637 645 Z"/>
    <path fill="#626262" stroke="none" d="M 198 647 L 199 648 L 198 647 Z"/>
    <path fill="#ff606b" stroke="none" d="M 531.333 647.667 L 531.667 648.333 L 531.333 647.667 M 634 647 L 635 648 L 634 647 M 659 647 L 660 648 L 659 647 Z"/>
    <path fill="#626262" stroke="none" d="M 197 648 L 198 649 L 197 648 Z"/>
    <path fill="#ff606b" stroke="none" d="M 632 648 L 633 649 L 632 648 Z"/>
    <path fill="#626262" stroke="none" d="M 196 649 L 197 650 L 196 649 Z"/>
    <path fill="#ff606b" stroke="none" d="M 580.333 649.667 L 580.667 650.333 L 580.333 649.667 M 593.333 649.667 L 593.667 650.333 L 593.333 649.667 M 658 649 L 659 650 L 658 649 Z"/>
    <path fill="#626262" stroke="none" d="M 195 650 L 196 651 L 195 650 Z"/>
    <path fill="#ff606b" stroke="none" d="M 509 650 L 510 651 L 509 650 M 558 650 L 558 653 L 559 653 L 558 650 Z"/>
    <path fill="#626262" stroke="none" d="M 194 651 L 195 652 L 194 651 Z"/>
    <path fill="#ff606b" stroke="none" d="M 657 651 L 658 652 L 657 651 Z"/>
    <path fill="#626262" stroke="none" d="M 193 652 L 194 653 L 193 652 Z"/>
    <path fill="#ff606b" stroke="none" d="M 530.333 652.667 L 530.667 653.333 L 530.333 652.667 M 592 652 L 592 656 L 593 656 L 592 652 M 508 653 L 508 656 L 509 656 L 508 653 M 579 653 L 579 656 L 580 656 L 579 653 Z"/>
    <path fill="#626262" stroke="none" d="M 191 654 L 192 655 L 191 654 Z"/>
    <path fill="#ff606b" stroke="none" d="M 655 654 L 656 655 L 655 654 Z"/>
    <path fill="#626262" stroke="none" d="M 190 655 L 191 656 L 190 655 Z"/>
    <path fill="#ff606b" stroke="none" d="M 654 655 L 655 656 L 654 655 Z"/>
    <path fill="#626262" stroke="none" d="M 189 656 L 190 657 L 189 656 Z"/>
    <path fill="#ff606b" stroke="none" d="M 529 656 L 529 660 L 530 660 L 529 656 M 557 656 L 558 657 L 557 656 M 653 656 L 654 657 L 653 656 Z"/>
    <path fill="#626262" stroke="none" d="M 188 657 L 189 658 L 188 657 Z"/>
    <path fill="#ff606b" stroke="none" d="M 652 657 L 653 658 L 652 657 Z"/>
    <path fill="#626262" stroke="none" d="M 187 658 L 188 659 L 187 658 Z"/>
    <path fill="#ff606b" stroke="none" d="M 578.333 658.667 L 578.667 659.333 L 578.333 658.667 M 591.333 658.667 L 591.667 659.333 L 591.333 658.667 M 651 658 L 652 659 L 651 658 Z"/>
    <path fill="#626262" stroke="none" d="M 186 659 L 187 660 L 186 659 Z"/>
    <path fill="#ff606b" stroke="none" d="M 507.333 659.667 L 507.667 660.333 L 507.333 659.667 M 556 659 L 556 662 L 557 662 L 556 659 M 649 659 L 650 660 L 649 659 M 648 660 L 649 661 L 648 660 Z"/>
    <path fill="#626262" stroke="none" d="M 184 661 L 185 662 L 184 661 Z"/>
    <path fill="#ff606b" stroke="none" d="M 646 661 L 647 662 L 646 661 Z"/>
    <path fill="#626262" stroke="none" d="M 183 662 L 184 663 L 183 662 Z"/>
    <path fill="#ff606b" stroke="none" d="M 528.333 662.667 L 528.667 663.333 L 528.333 662.667 M 577 662 L 577 665 L 578 665 L 577 662 M 643 662 L 644 663 L 643 662 Z"/>
    <path fill="#626262" stroke="none" d="M 182 663 L 183 664 L 182 663 Z"/>
    <path fill="#ff606b" stroke="none" d="M 555.333 663.667 L 555.667 664.333 L 555.333 663.667 M 590.333 663.667 L 590.667 664.333 L 590.333 663.667 M 640.667 663.333 L 641.333 663.667 L 640.667 663.333 Z"/>
    <path fill="#626262" stroke="none" d="M 181 664 L 182 665 L 181 664 Z"/>
    <path fill="#ff606b" stroke="none" d="M 635 664 L 635 665 L 638 665 L 635 664 Z"/>
    <path fill="#626262" stroke="none" d="M 180 665 L 181 666 L 180 665 Z"/>
    <path fill="#ff606b" stroke="none" d="M 612 665 L 612 666 L 627 666 L 612 665 Z"/>
    <path fill="#626262" stroke="none" d="M 179 666 L 180 667 L 179 666 Z"/>
    <path fill="#ff606b" stroke="none" d="M 506 666 L 506 673 L 507 673 L 506 666 M 576 666 L 577 667 L 576 666 M 611 666 L 612 667 L 611 666 M 554 667 L 555 668 L 554 667 M 589 667 L 589 670 L 590 670 L 589 667 Z"/>
    <path fill="#626262" stroke="none" d="M 177 668 L 178 669 L 177 668 Z"/>
    <path fill="#ff606b" stroke="none" d="M 430.333 668.667 L 430.667 669.333 L 430.333 668.667 M 553.333 668.667 L 553.667 669.333 L 553.333 668.667 Z"/>
    <path fill="#626262" stroke="none" d="M 176 669 L 177 670 L 176 669 Z"/>
    <path fill="#ff606b" stroke="none" d="M 575 669 L 576 670 L 575 669 M 610 669 L 610 673 L 611 673 L 610 669 Z"/>
    <path fill="#626262" stroke="none" d="M 175 670 L 176 671 L 175 670 Z"/>
    <path fill="#ff606b" stroke="none" d="M 528 670 L 529 671 L 528 670 M 552 670 L 553 671 L 552 670 Z"/>
    <path fill="#626262" stroke="none" d="M 174 671 L 175 672 L 174 671 Z"/>
    <path fill="#ff606b" stroke="none" d="M 574.333 671.667 L 574.667 672.333 L 574.333 671.667 Z"/>
    <path fill="#626262" stroke="none" d="M 173 672 L 174 673 L 173 672 Z"/>
    <path fill="#ff606b" stroke="none" d="M 529.333 672.667 L 529.667 673.333 L 529.333 672.667 M 550 672 L 551 673 L 550 672 M 588.333 672.667 L 588.667 673.333 L 588.333 672.667 Z"/>
    <path fill="#626262" stroke="none" d="M 172 673 L 173 674 L 172 673 Z"/>
    <path fill="#ff606b" stroke="none" d="M 431 674 L 431 678 L 432 678 L 431 674 M 530 674 L 531 675 L 530 674 M 548 674 L 549 675 L 548 674 M 573 674 L 574 675 L 573 674 Z"/>
    <path fill="#626262" stroke="none" d="M 170 675 L 171 676 L 170 675 Z"/>
    <path fill="#ff606b" stroke="none" d="M 531 675 L 532 676 L 531 675 M 546.667 675.333 L 547.333 675.667 L 546.667 675.333 M 609 675 L 610 676 L 609 675 Z"/>
    <path fill="#626262" stroke="none" d="M 169 676 L 170 677 L 169 676 Z"/>
    <path fill="#ff606b" stroke="none" d="M 533 676 L 534 677 L 533 676 M 545 676 L 546 677 L 545 676 M 587 676 L 587 679 L 588 679 L 587 676 Z"/>
    <path fill="#626262" stroke="none" d="M 168 677 L 169 678 L 168 677 Z"/>
    <path fill="#ff606b" stroke="none" d="M 507 677 L 508 678 L 507 677 M 537 677 L 537 678 L 541 678 L 537 677 M 571 677 L 572 678 L 571 677 Z"/>
    <path fill="#626262" stroke="none" d="M 167 678 L 168 679 L 167 678 M 166 679 L 167 680 L 166 679 Z"/>
    <path fill="#ff606b" stroke="none" d="M 508.333 679.667 L 508.667 680.333 L 508.333 679.667 M 608 679 L 608 682 L 609 682 L 608 679 Z"/>
    <path fill="#626262" stroke="none" d="M 165 680 L 166 681 L 165 680 Z"/>
    <path fill="#ff606b" stroke="none" d="M 569 680 L 570 681 L 569 680 M 432.333 681.667 L 432.667 682.333 L 432.333 681.667 M 509 681 L 510 682 L 509 681 M 568 681 L 569 682 L 568 681 M 586.333 681.667 L 586.667 682.333 L 586.333 681.667 Z"/>
    <path fill="#626262" stroke="none" d="M 163 682 L 164 683 L 163 682 M 162 683 L 163 684 L 162 683 Z"/>
    <path fill="#ff606b" stroke="none" d="M 510 683 L 511 684 L 510 683 Z"/>
    <path fill="#626262" stroke="none" d="M 161 684 L 162 685 L 161 684 Z"/>
    <path fill="#ff606b" stroke="none" d="M 511 684 L 512 685 L 511 684 M 607.333 684.667 L 607.667 685.333 L 607.333 684.667 Z"/>
    <path fill="#626262" stroke="none" d="M 160 685 L 161 686 L 160 685 Z"/>
    <path fill="#ff606b" stroke="none" d="M 512 685 L 513 686 L 512 685 Z"/>
    <path fill="#626262" stroke="none" d="M 159 686 L 160 687 L 159 686 Z"/>
    <path fill="#ff606b" stroke="none" d="M 513 686 L 514 687 L 513 686 M 563 686 L 564 687 L 563 686 M 585.333 686.667 L 585.667 687.33307 L 585.333 686.667 Z"/>
    <path fill="#626262" stroke="none" d="M 158 687 L 159 688 L 158 687 Z"/>
    <path fill="#ff606b" stroke="none" d="M 433 687 L 434 688 L 433 687 M 514 687 L 515 688 L 514 687 M 515 688 L 516 689 L 515 688 M 560.667 688.33307 L 561.333 688.66693 L 560.667 688.33307 Z"/>
    <path fill="#626262" stroke="none" d="M 156 689 L 157 690 L 156 689 Z"/>
    <path fill="#ff606b" stroke="none" d="M 517 689 L 518 690 L 517 689 M 559 689 L 560 690 L 559 689 M 606.333 689.66705 L 606.667 690.33307 L 606.333 689.66705 Z"/>
    <path fill="#626262" stroke="none" d="M 155 690 L 156 691 L 155 690 Z"/>
    <path fill="#ff606b" stroke="none" d="M 434.333 690.66705 L 434.667 691.333 L 434.333 690.66705 M 519 690 L 520 691 L 519 690 M 556 690 L 557 691 L 556 690 M 584 690 L 585 691 L 584 690 Z"/>
    <path fill="#626262" stroke="none" d="M 154 691 L 155 692 L 154 691 M 307 691 L 307 692 L 310 692 L 307 691 Z"/>
    <path fill="#ff606b" stroke="none" d="M 521 691 L 522 692 L 521 691 M 554.667 691.333 L 555.333 691.66705 L 554.667 691.333 Z"/>
    <path fill="#626262" stroke="none" d="M 153 692 L 154 693 L 153 692 M 306 692 L 307 693 L 306 692 M 310 692 L 311 693 L 310 692 Z"/>
    <path fill="#ff606b" stroke="none" d="M 524 692 L 525 693 L 524 692 M 551 692 L 552 693 L 551 692 M 585 692 L 586 693 L 585 692 Z"/>
    <path fill="#626262" stroke="none" d="M 152 693 L 153 694 L 152 693 M 305 693 L 306 694 L 305 693 M 314 693 L 315 694 L 314 693 Z"/>
    <path fill="#ff606b" stroke="none" d="M 527 693 L 527 694 L 530 694 L 527 693 M 545 693 L 545 694 L 548 694 L 545 693 Z"/>
    <path fill="#626262" stroke="none" d="M 151 694 L 152 695 L 151 694 M 316 694 L 317 695 L 316 694 Z"/>
    <path fill="#ff606b" stroke="none" d="M 435.333 694.667 L 435.667 695.333 L 435.333 694.667 M 534 694 L 534 695 L 540 695 L 534 694 Z"/>
    <path fill="#626262" stroke="none" d="M 149 696 L 150 697 L 149 696 M 302 696 L 303 697 L 302 696 M 320 696 L 320 697 L 327 698 L 320 696 M 148 697 L 149 698 L 148 697 M 301 697 L 302 698 L 301 697 M 147 698 L 148 699 L 147 698 M 300 698 L 301 699 L 300 698 M 327 698 L 327 699 L 330 699 L 327 698 Z"/>
    <path fill="#ff606b" stroke="none" d="M 436 698 L 437 699 L 436 698 Z"/>
    <path fill="#626262" stroke="none" d="M 146 699 L 147 700 L 146 699 M 299 699 L 300 700 L 299 699 M 330 699 L 331 700 L 330 699 M 145 700 L 146 701 L 145 700 M 298 700 L 299 701 L 298 700 Z"/>
    <path fill="#ff606b" stroke="none" d="M 437.33298 700.667 L 437.667 701.333 L 437.33298 700.667 Z"/>
    <path fill="#626262" stroke="none" d="M 144 701 L 145 702 L 144 701 M 338 701 L 339 702 L 338 701 M 142 703 L 143 704 L 142 703 M 295 703 L 296 704 L 295 703 M 342 703 L 342 704 L 347 704 L 342 703 M 141 704 L 142 705 L 141 704 M 294 704 L 295 705 L 294 704 M 347 704 L 347 705 L 351 705 L 347 704 Z"/>
    <path fill="#ff606b" stroke="none" d="M 438 704 L 439 705 L 438 704 Z"/>
    <path fill="#626262" stroke="none" d="M 140 705 L 141 706 L 140 705 M 293 705 L 294 706 L 293 705 M 351 705 L 351 706 L 357 706 L 351 705 M 139 706 L 140 707 L 139 706 M 292 706 L 293 707 L 292 706 M 357 706 L 358 707 L 357 706 Z"/>
    <path fill="#ff606b" stroke="none" d="M 439.33304 706.667 L 439.66696 707.333 L 439.33304 706.667 Z"/>
    <path fill="#626262" stroke="none" d="M 138 707 L 139 708 L 138 707 M 291 707 L 292 708 L 291 707 M 137 708 L 138 709 L 137 708 M 374 709 L 375 710 L 374 709 Z"/>
    <path fill="#ff606b" stroke="none" d="M 440 709 L 441 710 L 440 709 Z"/>
    <path fill="#626262" stroke="none" d="M 288 710 L 289 711 L 288 710 M 375 710 L 375 711 L 385 711 L 375 710 M 287 711 L 288 712 L 287 711 M 385 711 L 385 712 L 406 712 L 385 711 M 136 712 L 137 713 L 136 712 M 286 712 L 287 713 L 286 712 M 406 712 L 406 713 L 441 713 L 406 712 Z"/>
    <path fill="#ff606b" stroke="none" d="M 441 712 L 442 713 L 441 712 Z"/>
    <path fill="#626262" stroke="none" d="M 137 713 L 138 714 L 137 713 M 285 713 L 286 714 L 285 713 M 284 714 L 285 715 L 284 714 M 139 715 L 140 716 L 139 715 M 140 716 L 144 720 L 140 716 M 281 717 L 282 718 L 281 717 M 280 718 L 281 719 L 280 718 M 279 719 L 280 720 L 279 719 M 144 720 L 145 721 L 144 720 M 278 720 L 279 721 L 278 720 M 277 721 L 278 722 L 277 721 M 146 722 L 147 723 L 146 722 M 147 723 L 151 727 L 147 723 M 274 724 L 275 725 L 274 724 M 273 725 L 274 726 L 273 725 M 272 726 L 273 727 L 272 726 M 151 727 L 152 728 L 151 727 M 271 727 L 272 728 L 271 727 M 270 728 L 271 729 L 270 728 M 153 729 L 154 730 L 153 729 M 154 730 L 158 734 L 154 730 M 267 731 L 268 732 L 267 731 M 266 732 L 267 733 L 266 732 M 265 733 L 266 734 L 265 733 M 158 734 L 159 735 L 158 734 M 264 734 L 265 735 L 264 734 M 263 735 L 264 736 L 263 735 M 160 736 L 161 737 L 160 736 M 161 737 L 165 741 L 161 737 M 260 738 L 261 739 L 260 738 M 259 739 L 260 740 L 259 739 M 258 740 L 259 741 L 258 740 M 165 741 L 166 742 L 165 741 M 257 741 L 258 742 L 257 741 M 256 742 L 257 743 L 256 742 M 167 743 L 168 744 L 167 743 M 168 744 L 172 748 L 168 744 M 253 745 L 254 746 L 253 745 M 252 746 L 253 747 L 252 746 M 251 747 L 252 748 L 251 747 M 172 748 L 173 749 L 172 748 M 250 748 L 251 749 L 250 748 M 249 749 L 250 750 L 249 749 M 174 750 L 175 751 L 174 750 M 175 751 L 179 755 L 175 751 M 246 752 L 247 753 L 246 752 M 245 753 L 246 754 L 245 753 M 244 754 L 245 755 L 244 754 M 179 755 L 180 756 L 179 755 M 243 755 L 244 756 L 243 755 M 242 756 L 243 757 L 242 756 M 181 757 L 182 758 L 181 757 M 182 758 L 186 762 L 182 758 M 239 759 L 240 760 L 239 759 M 238 760 L 239 761 L 238 760 M 237 761 L 238 762 L 237 761 M 186 762 L 187 763 L 186 762 M 236 762 L 237 763 L 236 762 M 235 763 L 236 764 L 235 763 M 188 764 L 189 765 L 188 764 M 189 765 L 193 769 L 189 765 M 232 766 L 233 767 L 232 766 M 231 767 L 232 768 L 231 767 M 230 768 L 231 769 L 230 768 M 193 769 L 194 770 L 193 769 M 229 769 L 230 770 L 229 769 M 228 770 L 229 771 L 228 770 M 195 771 L 196 772 L 195 771 M 196 772 L 200 776 L 196 772 M 225 773 L 226 774 L 225 773 M 224 774 L 225 775 L 224 774 M 223 775 L 224 776 L 223 775 M 200 776 L 201 777 L 200 776 M 222 776 L 223 777 L 222 776 M 221 777 L 222 778 L 221 777 M 202 778 L 203 779 L 202 778 M 203 779 L 207 783 L 203 779 M 218 780 L 219 781 L 218 780 M 217 781 L 218 782 L 217 781 M 216 782 L 217 783 L 216 782 M 207 783 L 208 784 L 207 783 M 215 783 L 216 784 L 215 783 M 214 784 L 215 785 L 214 784 M 209 785 L 210 786 L 209 785 M 210 786 L 211 787 L 210 786 Z"/>
</svg>
