<svg width="240" height="240" xmlns="http://www.w3.org/2000/svg">
    <defs>
        <linearGradient id="b" x1="120" y1="-256.44" x2="-245.56" y2="-9.981" gradientUnits="userSpaceOnUse">
            <stop offset="0.208" stop-color="#6425d7"/>
            <stop offset="1" stop-color="#c668e8"/>
        </linearGradient>
        <linearGradient id="d" x1="205.2" y1="141.733" x2="149.44" y2="138.908" gradientUnits="userSpaceOnUse">
            <stop offset="0" stop-color="#7532da"/>
            <stop offset="1" stop-color="#8940db"/>
        </linearGradient>
        <filter id="c" x="114" y="114" width="100" height="100" filterUnits="userSpaceOnUse">
            <feFlood color-interpolation-filters="sRGB" flood-color="#000000" flood-opacity="0" result="BackgroundImageFix"/>
            <feBlend color-interpolation-filters="sRGB" in="SourceGraphic" in2="BackgroundImageFix" mode="normal" result="shape"/>
            <feColorMatrix color-interpolation-filters="sRGB" in="SourceAlpha" result="hardAlpha" type="matrix" values="0 0 0 0 0 0 0 0 0 0 0 0 0 0 0 0 0 0 127 0"/>
            <feOffset color-interpolation-filters="sRGB" in="hardAlpha" dx="4" dy="4" result="result4"/>
            <feGaussianBlur color-interpolation-filters="sRGB" in="result4" stdDeviation="2 2" result="result5"/>
            <feComposite color-interpolation-filters="sRGB" in="result5" in2="hardAlpha" operator="arithmetic" k1="0" k2="-1" k3="1" k4="0" result="result6"/>
            <feColorMatrix color-interpolation-filters="sRGB" in="result6" result="result7" type="matrix" values="0 0 0 0 0 0 0 0 0 0 0 0 0 0 0 0 0 0 0.16 0"/>
            <feBlend color-interpolation-filters="sRGB" in="result7" in2="shape" mode="normal" result="effect1_innerShadow_438_379"/>
        </filter>
        <clipPath id="a">
            <path fill="#000000" stroke="none" d="M 0 0 L 240 0 L 240 240 L 0 240 Z"/>
        </clipPath>
    </defs>
    <g clip-path="url(#a)">
        <path fill="url(#b)" stroke="#ffffff" stroke-width="12" d="M 234 120 C 234 182.96045 182.96045 234 120 234 C 57.03954 234 6 182.96045 6 120 C 6 57.03954 57.03954 6 120 6 C 182.96045 6 234 57.03954 234 120 Z"/>
        <path fill="#fffefe" stroke="none" d="M 208 120 C 208 168.60106 168.60106 208 120 208 C 71.39894 208 32 168.60106 32 120 C 32 71.39894 71.39894 32 120 32 C 168.60106 32 208 71.39894 208 120 Z"/>
        <path fill="#1c1c1c" fill-rule="evenodd" stroke="none" d="M 144.903 128.071 C 166.83 131.313 182.13 138.647 182.13 147.175 C 182.13 158.708 154.15 168.057 119.636 168.057 C 85.122 168.057 57.142998 158.708 57.142998 147.175 C 57.142998 138.647 72.442 131.313 94.369 128.071 C 101.90101 129.602 110.502 130.47 119.636 130.47 C 128.541 130.47 136.94 129.645 144.335 128.186 L 144.903 128.071 Z M 135.453 93.736 C 155.313 95.947 169.631 102.20901 169.631 109.588 C 169.631 118.814 147.248 126.293 119.637 126.293 C 92.02501 126.293 69.642 118.814 69.642 109.588 C 69.642 102.20901 83.961 95.948 103.82 93.736 C 108.685 94.531 114.02899 94.971 119.637 94.971 C 125.04799 94.971 130.214 94.561 134.941 93.818 L 135.453 93.736 Z"/>
        <path fill="#1c1c1c" stroke="none" d="M 119.636 91.63 C 140.345 91.63 157.132 86.02 157.132 79.1 C 157.132 72.18 140.345 66.571 119.636 66.571 C 98.928 66.571 82.14 72.181 82.14 79.101 C 82.14 86.021 98.928 91.63 119.636 91.63 Z"/>
        <g filter="url(#c)">
            <path fill="url(#d)" stroke="none" d="M 160.731 114 L 163.269 114 C 189.0778 114 210 134.92218 210 160.731 L 210 163.269 C 210 189.0778 189.0778 210 163.269 210 L 160.731 210 C 134.92218 210 114 189.0778 114 163.269 L 114 160.731 C 114 134.92218 134.92218 114 160.731 114 Z"/>
            <path fill="#f1f1f1" stroke="none" d="M 188.833 158.675 C 188.12912 158.52481 187.42305 158.38513 186.715 158.256 C 186.5091 156.59474 186.14612 154.95674 185.63101 153.364 C 195.164 154.898 201.327 157.337 201.327 160.084 C 201.327 160.115 201.327 160.145 201.325 160.176 C 201.098 164.777 183.578 168.492 162 168.492 C 140.28 168.492 122.673 164.728 122.673 160.085 C 122.673 160.057 122.673 160.028 122.675 160 C 122.800995 157.255 129.079 154.826 138.703 153.311 C 138.18538 154.90155 137.81941 156.5375 137.61 158.197 C 136.76 158.349 135.945 158.509 135.167 158.675 C 134.22897 158.87424 133.29633 159.09798 132.37 159.346 L 132.37 159.347 C 131.467 159.591 130.663 159.838 129.958 160.085 C 131.324 160.563 133.061 161.043 135.167 161.494 C 135.881 161.646 136.626 161.793 137.4 161.933 L 137.4 161.935 C 143.908 163.115 152.497 163.854 162 163.854 C 171.658 163.854 180.37299 163.091 186.91798 161.876 L 186.91798 161.875 C 187.57901 161.752 188.218 161.625 188.833 161.494 C 190.94 161.043 192.677 160.562 194.044 160.084 C 192.677 159.606 190.94 159.125 188.833 158.675 Z M 191.629 145.584 L 191.63 145.519 C 191.63 143.04 185.047 140.893 175.445 139.846 C 177.7397 141.37128 179.76947 143.26155 181.454 145.442 L 181.824 145.519 L 181.556 145.574 L 181.557 145.575 C 176.66498 146.581 169.838 147.233 162.18 147.233 C 154.502 147.233 147.661 146.578 142.766 145.568 L 142.767 145.567 C 142.68965 145.5511 142.61232 145.5351 142.535 145.519 L 142.856 145.452 C 144.53983 143.27014 146.5693 141.37848 148.864 139.852 C 139.29 140.9 132.729 143.044 132.729 145.519 L 132.729 145.52 C 132.729 148.616 146.987 151.077 156.597 151.757 C 158.748 151.91 162.115 151.92 162.115 151.92 C 163.303 151.972 165.468 151.911 167.61 151.764 C 177.27202 151.097 191.487 148.663 191.629 145.584 Z M 132.729 177.65 C 132.729 176.031 135.539 174.55298 140.165 173.43102 C 140.89758 174.90056 141.76816 176.29716 142.765 177.602 L 142.535 177.65 C 142.64 177.673 142.746 177.695 142.853 177.716 C 142.85999 177.72476 142.86665 177.73375 142.873 177.743 L 142.979 177.743 C 147.858 178.729 154.612 179.365 162.18 179.365 C 169.747 179.365 176.501 178.729 181.38002 177.743 L 181.444 177.743 L 181.457 177.72699 L 181.824 177.65 L 181.558 177.595 C 182.55453 176.28944 183.4248 174.89218 184.157 173.422 C 188.805 174.545 191.63 176.027 191.63 177.65 L 191.627 177.743 C 191.4 181.209 178.303 184.003 162.18 184.003 C 146.056 184.003 132.959 181.209 132.732 177.743 C 132.73 177.71205 132.729 177.68105 132.729 177.65 Z"/>
        </g>
    </g>
</svg>
