<svg width="3523" height="3408" xmlns="http://www.w3.org/2000/svg">
    <path fill="#ffffff" stroke="none" d="M 2 1226 C 2 817.3334 2 409.66678 2 2.000109 C 1176.6665 2.000073 2351.333 2.000073 3525.9998 2.000036 C 3525.9998 1137.9996 3525.9998 2273.9993 3526 3409.9993 C 2351.3337 3409.9995 1176.6676 3409.9995 2.000697 3409.9995 C 2 2682.3333 2 1954.6666 2 1226 M 3201.6038 1391.79 C 3201.091 1389.8613 3200.4575 1387.9554 3200.085 1386.0002 C 3197.0515 1370.0782 3194.576 1354.0303 3190.9578 1338.2437 C 3184.296 1309.1764 3177.512 1280.1155 3169.7664 1251.3245 C 3162.4463 1224.1151 3154.258 1197.1162 3145.624 1170.2911 C 3139.8364 1152.3082 3132.4954 1134.83 3126.0422 1117.0558 C 3111.9646 1078.2778 3095.4265 1040.5082 3077.4368 1003.45715 C 3062.6423 972.98724 3045.97 943.4193 3029.8115 913.6245 C 3008.8918 875.052 2985.0496 838.27783 2960.0874 802.2281 C 2937.416 769.4861 2913.7036 737.5052 2888.017 707.0566 C 2867.6975 682.9697 2847.9233 658.30237 2826.0947 635.638 C 2794.926 603.2753 2762.1409 572.46704 2729.9448 541.09875 C 2724.9614 536.2436 2719.5256 531.8368 2714.149 527.4043 C 2700.0793 515.80554 2686.0283 504.17993 2671.7805 492.80267 C 2655.7131 479.97238 2639.6758 467.08325 2623.1824 454.8151 C 2609.087 444.33038 2594.4783 434.5192 2579.8923 424.714 C 2559.7888 411.1997 2539.8271 397.4265 2519.1892 384.7677 C 2496.826 371.05057 2473.9517 358.12857 2450.9377 345.52118 C 2428.5537 333.25903 2405.8855 321.4821 2383.0115 310.15988 C 2366.3403 301.9079 2349.2773 294.39572 2332.1272 287.1759 C 2309.7837 277.7698 2287.3396 268.55496 2264.643 260.04752 C 2243.5122 252.12698 2222.0352 245.11746 2200.6316 237.94165 C 2184.591 232.56386 2168.6184 226.82213 2152.275 222.54352 C 2119.899 214.06781 2087.3848 206.05838 2054.7388 198.69514 C 2032.8112 193.74947 2010.6249 189.83969 1988.4319 186.21573 C 1968.2014 182.91223 1947.8087 180.59793 1927.4825 177.88599 C 1912.7341 175.91824 1898.0182 173.57556 1883.214 172.18924 C 1864.0835 170.39778 1844.8978 168.92929 1825.7025 168.1595 C 1798.1343 167.05396 1770.5372 166.27365 1742.9496 166.1749 C 1722.6993 166.10239 1702.4412 167.26251 1682.1925 168.0312 C 1667.6013 168.5851 1653.0201 169.39355 1638.4354 170.10857 C 1637.4442 170.15717 1636.4641 170.40492 1635.4733 170.50853 C 1624.2896 171.67819 1613.1115 172.90587 1601.9185 173.97885 C 1592.6843 174.86403 1583.3938 175.257 1574.1979 176.4192 C 1561.7383 177.9939 1549.3408 180.06628 1536.9246 181.97702 C 1518.2906 184.84459 1499.5122 187.02036 1481.0679 190.81563 C 1449.9435 197.22003 1418.8972 204.12032 1388.0721 211.82808 C 1359.7805 218.90236 1331.619 226.65685 1303.7689 235.29974 C 1263.4532 247.81119 1223.8063 262.3124 1185.1411 279.33783 C 1155.3367 292.46167 1125.187 304.91476 1096.0223 319.34644 C 1066.8439 333.78494 1038.4285 349.8411 1010.18 366.0612 C 985.4178 380.27963 960.9734 395.13263 937.08795 410.7733 C 915.44403 424.94608 894.62177 440.39188 873.6706 455.59793 C 859.44714 465.9211 845.3853 476.4995 831.6927 487.51273 C 817.4782 498.94565 803.72144 510.95395 789.90015 522.86786 C 774.8226 535.86456 759.2187 548.347 745.0379 562.2695 C 701.3681 605.1442 657.3807 647.75745 619.1302 695.7691 C 601.773 717.5557 583.47675 738.6319 566.87933 760.97595 C 548.89307 785.1898 531.9973 810.2453 515.3356 835.4037 C 493.31424 868.65485 472.83167 902.8433 453.83398 937.9577 C 431.80173 978.6811 411.2086 1020.1154 393.09473 1062.6674 C 379.84998 1093.7811 369.16547 1125.9785 357.07202 1157.5905 C 342.57114 1195.4957 331.88828 1234.5607 321.86227 1273.7913 C 314.73053 1301.6969 308.52002 1329.8499 302.46362 1358.0139 C 299.05746 1373.8536 296.60605 1389.9099 294.0756 1405.924 C 291.39255 1422.9038 288.92532 1439.9236 286.7381 1456.9741 C 284.8858 1471.4133 283.35034 1485.9016 282.0808 1500.4042 C 281.04007 1512.2932 280.70175 1524.2416 279.86383 1536.1505 C 278.67853 1552.9962 276.14035 1569.8387 276.27005 1586.6664 C 276.58292 1627.249 273.84518 1667.8754 277.85995 1708.428 C 279.16568 1721.6168 279.12418 1734.9333 280.01376 1748.1703 C 281.21326 1766.0178 282.64636 1783.8507 284.126 1801.6777 C 284.70065 1808.6011 285.499 1815.5172 286.50748 1822.3906 C 288.1866 1833.8352 290.1588 1845.2363 291.93253 1856.6674 C 294.82346 1875.2988 296.90668 1894.0922 300.67792 1912.542 C 306.97244 1943.3362 313.90817 1974.0157 321.34323 2004.5564 C 331.54587 2046.4651 344.36896 2087.6296 359.14682 2128.1465 C 368.59106 2154.0398 378.36456 2179.831 388.77823 2205.347 C 397.1767 2225.9253 406.6712 2246.0596 415.82693 2266.3245 C 433.77698 2306.0542 454.44287 2344.3757 476.76102 2381.7869 C 490.02454 2404.02 503.68695 2426.0422 517.9523 2447.6428 C 532.20703 2469.2273 547.2117 2490.3296 562.29266 2511.3525 C 584.15076 2541.823 607.23694 2571.3462 632.2172 2599.348 C 648.56915 2617.6775 664.34357 2636.5735 681.4788 2654.1409 C 704.2487 2677.4846 728.0314 2699.8445 751.5039 2722.4973 C 760.82886 2731.4968 770.4365 2740.2063 780.01526 2748.9382 C 785.9015 2754.3044 791.7862 2759.7017 798.0028 2764.6707 C 816.1277 2779.1572 834.20056 2793.7249 852.702 2807.7214 C 874.6447 2824.3218 896.714 2840.7886 919.2892 2856.5078 C 938.0904 2869.5999 957.3911 2882.0457 977.0293 2893.8472 C 1004.6475 2910.4448 1032.5044 2926.6924 1060.7854 2942.125 C 1083.2278 2954.3718 1106.2808 2965.5493 1129.3971 2976.4954 C 1148.6069 2985.5918 1168.1472 2994.0447 1187.8295 3002.0754 C 1207.5055 3010.1038 1227.3295 3017.8794 1247.4628 3024.6538 C 1283.9618 3036.9343 1320.4901 3049.2517 1357.4779 3059.9175 C 1387.3668 3068.5369 1417.8489 3075.2078 1448.2576 3081.8777 C 1470.2139 3086.6938 1492.4485 3090.2834 1514.6218 3094.0515 C 1528.9636 3096.4883 1543.3956 3098.4358 1557.8282 3100.2817 C 1574.225 3102.3787 1590.6527 3104.262 1607.0961 3105.9578 C 1616.9811 3106.9773 1626.9235 3107.4324 1636.8362 3108.1934 C 1653.0111 3109.4348 1669.1665 3111.016 1685.3601 3111.9102 C 1705.5903 3113.027 1725.9436 3110.3013 1746.1299 3113.845 C 1749.3369 3114.4084 1752.7753 3113.8416 1756.0881 3113.5706 C 1761.0254 3113.166 1765.9365 3112.2366 1770.8752 3112.0916 C 1798.4563 3111.2847 1826.0425 3110.6484 1853.6266 3109.943 C 1854.956 3109.909 1856.286 3109.8022 1857.6106 3109.6726 C 1870.1206 3108.453 1882.6283 3107.209 1895.1389 3105.9941 C 1903.3809 3105.1936 1911.6677 3104.7273 1919.8622 3103.59 C 1941.8018 3100.546 1963.742 3097.4675 1985.6068 3093.9368 C 2006.5029 3090.5627 2027.4067 3087.0933 2048.1184 3082.7622 C 2068.8538 3078.426 2089.4436 3073.309 2109.9365 3067.9236 C 2135.5938 3061.1807 2161.4197 3054.818 2186.5745 3046.485 C 2225.932 3033.4475 2265.0732 3019.6355 2303.7568 3004.726 C 2329.7725 2994.6987 2355.1038 2982.7605 2380.2588 2970.6729 C 2406.3557 2958.1326 2432.0652 2944.7434 2457.578 2931.044 C 2476.8875 2920.6743 2495.9358 2909.7375 2514.5327 2898.1428 C 2537.3506 2883.9155 2559.676 2868.8884 2582.0244 2853.923 C 2596.3477 2844.3318 2610.7566 2834.7808 2624.3662 2824.2302 C 2648.9976 2805.136 2673.3564 2785.6633 2697.2722 2765.6824 C 2718.6563 2747.817 2740.0605 2729.8503 2760.075 2710.5002 C 2790.2034 2681.3718 2820.4004 2652.2368 2847.2627 2619.9006 C 2863.3718 2600.5093 2880.7937 2582.1765 2896.3533 2562.3684 C 2918.4736 2534.2083 2940.252 2505.7026 2960.6367 2476.2778 C 2980.2961 2447.8997 2998.7913 2418.6343 3016.3484 2388.9023 C 3035.085 2357.172 3052.906 2324.838 3069.6536 2292.0156 C 3082.7673 2266.315 3094.2212 2239.7124 3105.34 2213.063 C 3117.6118 2183.6501 3129.3772 2153.9814 3140.0544 2123.959 C 3152.62 2088.629 3164.4329 2053.003 3172.9102 2016.3834 C 3179.1829 1989.2852 3186.0684 1962.3243 3192.0085 1935.1552 C 3196.457 1914.8069 3200.0554 1894.2628 3203.615 1873.7338 C 3206.1008 1859.3969 3208.1494 1844.9706 3209.901 1830.5244 C 3211.6533 1816.0696 3212.7827 1801.5394 3214.2056 1787.0442 C 3216.113 1767.6172 3218.261 1748.2107 3219.8801 1728.7595 C 3220.9524 1715.8739 3221.9263 1702.9209 3221.8232 1690.0066 C 3221.4492 1643.0878 3220.696 1596.171 3219.851 1549.2578 C 3219.6902 1540.3333 3218.588 1531.4152 3217.6948 1522.5166 C 3215.8772 1504.4171 3214.0266 1486.3193 3211.956 1468.2472 C 3210.4883 1455.4384 3208.6772 1442.6677 3206.9473 1429.8899 C 3205.306 1417.762 3203.57 1405.6471 3201.6038 1391.79 Z"/>
    <path fill="#e4e5e5" stroke="none" d="M 3201.7397 1392.6582 C 3203.57 1405.6471 3205.306 1417.762 3206.9473 1429.8899 C 3208.6772 1442.6677 3210.4883 1455.4384 3211.956 1468.2472 C 3214.0266 1486.3193 3215.8772 1504.4171 3217.6948 1522.5166 C 3218.588 1531.4152 3219.6902 1540.3333 3219.851 1549.2578 C 3220.696 1596.171 3221.4492 1643.0878 3221.8232 1690.0066 C 3221.9263 1702.9209 3220.9524 1715.8739 3219.8801 1728.7595 C 3218.261 1748.2107 3216.113 1767.6172 3214.2056 1787.0442 C 3212.7827 1801.5394 3211.6533 1816.0696 3209.901 1830.5244 C 3208.1494 1844.9706 3206.1008 1859.3969 3203.615 1873.7338 C 3200.0554 1894.2628 3196.457 1914.8069 3192.0085 1935.1552 C 3186.0684 1962.3243 3179.1829 1989.2852 3172.9102 2016.3834 C 3164.4329 2053.003 3152.62 2088.629 3140.0544 2123.959 C 3129.3772 2153.9814 3117.6118 2183.6501 3105.34 2213.063 C 3094.2212 2239.7124 3082.7673 2266.315 3069.6536 2292.0156 C 3052.906 2324.838 3035.085 2357.172 3016.3484 2388.9023 C 2998.7913 2418.6343 2980.2961 2447.8997 2960.6367 2476.2778 C 2940.252 2505.7026 2918.4736 2534.2083 2896.3533 2562.3684 C 2880.7937 2582.1765 2863.3718 2600.5093 2847.2627 2619.9006 C 2820.4004 2652.2368 2790.2034 2681.3718 2760.075 2710.5002 C 2740.0605 2729.8503 2718.6563 2747.817 2697.2722 2765.6824 C 2673.3564 2785.6633 2648.9976 2805.136 2624.3662 2824.2302 C 2610.7566 2834.7808 2596.3477 2844.3318 2582.0244 2853.923 C 2559.676 2868.8884 2537.3506 2883.9155 2514.5327 2898.1428 C 2495.9358 2909.7375 2476.8875 2920.6743 2457.578 2931.044 C 2432.0652 2944.7434 2406.3557 2958.1326 2380.2588 2970.6729 C 2355.1038 2982.7605 2329.7725 2994.6987 2303.7568 3004.726 C 2265.0732 3019.6355 2225.932 3033.4475 2186.5745 3046.485 C 2161.4197 3054.818 2135.5938 3061.1807 2109.9365 3067.9236 C 2089.4436 3073.309 2068.8538 3078.426 2048.1184 3082.7622 C 2027.4067 3087.0933 2006.5029 3090.5627 1985.6068 3093.9368 C 1963.742 3097.4675 1941.8018 3100.546 1919.8622 3103.59 C 1911.6677 3104.7273 1903.3809 3105.1936 1895.1389 3105.9941 C 1882.6283 3107.209 1870.1206 3108.453 1857.6106 3109.6726 C 1856.286 3109.8022 1854.956 3109.909 1853.6266 3109.943 C 1826.0425 3110.6484 1798.4563 3111.2847 1770.8752 3112.0916 C 1765.9365 3112.2366 1761.0254 3113.166 1756.0881 3113.5706 C 1752.7753 3113.8416 1749.3369 3114.4084 1746.1299 3113.845 C 1725.9436 3110.3013 1705.5903 3113.027 1685.3601 3111.9102 C 1669.1665 3111.016 1653.0111 3109.4348 1636.8362 3108.1934 C 1626.9235 3107.4324 1616.9811 3106.9773 1607.0961 3105.9578 C 1590.6527 3104.262 1574.225 3102.3787 1557.8282 3100.2817 C 1543.3956 3098.4358 1528.9636 3096.4883 1514.6218 3094.0515 C 1492.4485 3090.2834 1470.2139 3086.6938 1448.2576 3081.8777 C 1417.8489 3075.2078 1387.3668 3068.5369 1357.4779 3059.9175 C 1320.4901 3049.2517 1283.9618 3036.9343 1247.4628 3024.6538 C 1227.3295 3017.8794 1207.5055 3010.1038 1187.8295 3002.0754 C 1168.1472 2994.0447 1148.6069 2985.5918 1129.3971 2976.4954 C 1106.2808 2965.5493 1083.2278 2954.3718 1060.7854 2942.125 C 1032.5044 2926.6924 1004.6475 2910.4448 977.0293 2893.8472 C 957.3911 2882.0457 938.0904 2869.5999 919.2892 2856.5078 C 896.714 2840.7886 874.6447 2824.3218 852.702 2807.7214 C 834.20056 2793.7249 816.1277 2779.1572 798.0028 2764.6707 C 791.7862 2759.7017 785.9015 2754.3044 780.01526 2748.9382 C 770.4365 2740.2063 760.82886 2731.4968 751.5039 2722.4973 C 728.0314 2699.8445 704.2487 2677.4846 681.4788 2654.1409 C 664.34357 2636.5735 648.56915 2617.6775 632.2172 2599.348 C 607.23694 2571.3462 584.15076 2541.823 562.29266 2511.3525 C 547.2117 2490.3296 532.20703 2469.2273 517.9523 2447.6428 C 503.68695 2426.0422 490.02454 2404.02 476.76102 2381.7869 C 454.44287 2344.3757 433.77698 2306.0542 415.82693 2266.3245 C 406.6712 2246.0596 397.1767 2225.9253 388.77823 2205.347 C 378.36456 2179.831 368.59106 2154.0398 359.14682 2128.1465 C 344.36896 2087.6296 331.54587 2046.4651 321.34323 2004.5564 C 313.90817 1974.0157 306.97244 1943.3362 300.67792 1912.542 C 296.90668 1894.0922 294.82346 1875.2988 291.93253 1856.6674 C 290.1588 1845.2363 288.1866 1833.8352 286.50748 1822.3906 C 285.499 1815.5172 284.70065 1808.6011 284.126 1801.6777 C 282.64636 1783.8507 281.21326 1766.0178 280.01376 1748.1703 C 279.12418 1734.9333 279.16568 1721.6168 277.85995 1708.428 C 273.84518 1667.8754 276.58292 1627.249 276.27005 1586.6664 C 276.14035 1569.8387 278.67853 1552.9962 279.86383 1536.1505 C 280.70175 1524.2416 281.04007 1512.2932 282.0808 1500.4042 C 283.35034 1485.9016 284.8858 1471.4133 286.7381 1456.9741 C 288.92532 1439.9236 291.39255 1422.9038 294.0756 1405.924 C 296.60605 1389.9099 299.05746 1373.8536 302.46362 1358.0139 C 308.52002 1329.8499 314.73053 1301.6969 321.86227 1273.7913 C 331.88828 1234.5607 342.57114 1195.4957 357.07202 1157.5905 C 369.16547 1125.9785 379.84998 1093.7811 393.09473 1062.6674 C 411.2086 1020.1154 431.80173 978.6811 453.83398 937.9577 C 472.83167 902.8433 493.31424 868.65485 515.3356 835.4037 C 531.9973 810.2453 548.89307 785.1898 566.87933 760.97595 C 583.47675 738.6319 601.773 717.5557 619.1302 695.7691 C 657.3807 647.75745 701.3681 605.1442 745.0379 562.2695 C 759.2187 548.347 774.8226 535.86456 789.90015 522.86786 C 803.72144 510.95395 817.4782 498.94565 831.6927 487.51273 C 845.3853 476.4995 859.44714 465.9211 873.6706 455.59793 C 894.62177 440.39188 915.44403 424.94608 937.08795 410.7733 C 960.9734 395.13263 985.4178 380.27963 1010.18 366.0612 C 1038.4285 349.8411 1066.8439 333.78494 1096.0223 319.34644 C 1125.187 304.91476 1155.3367 292.46167 1185.1411 279.33783 C 1223.8063 262.3124 1263.4532 247.81119 1303.7689 235.29974 C 1331.619 226.65685 1359.7805 218.90236 1388.0721 211.82808 C 1418.8972 204.12032 1449.9435 197.22003 1481.0679 190.81563 C 1499.5122 187.02036 1518.2906 184.84459 1536.9246 181.97702 C 1549.3408 180.06628 1561.7383 177.9939 1574.1979 176.4192 C 1583.3938 175.257 1592.6843 174.86403 1601.9185 173.97885 C 1613.1115 172.90587 1624.2896 171.67819 1635.4733 170.50853 C 1636.4641 170.40492 1637.4442 170.15717 1638.4354 170.10857 C 1653.0201 169.39355 1667.6013 168.5851 1682.1925 168.0312 C 1702.4412 167.26251 1722.6993 166.10239 1742.9496 166.1749 C 1770.5372 166.27365 1798.1343 167.05396 1825.7025 168.1595 C 1844.8978 168.92929 1864.0835 170.39778 1883.214 172.18924 C 1898.0182 173.57556 1912.7341 175.91824 1927.4825 177.88599 C 1947.8087 180.59793 1968.2014 182.91223 1988.4319 186.21573 C 2010.6249 189.83969 2032.8112 193.74947 2054.7388 198.69514 C 2087.3848 206.05838 2119.899 214.06781 2152.275 222.54352 C 2168.6184 226.82213 2184.591 232.56386 2200.6316 237.94165 C 2222.0352 245.11746 2243.5122 252.12698 2264.643 260.04752 C 2287.3396 268.55496 2309.7837 277.7698 2332.1272 287.1759 C 2349.2773 294.39572 2366.3403 301.9079 2383.0115 310.15988 C 2405.8855 321.4821 2428.5537 333.25903 2450.9377 345.52118 C 2473.9517 358.12857 2496.826 371.05057 2519.1892 384.7677 C 2539.8271 397.4265 2559.7888 411.1997 2579.8923 424.714 C 2594.4783 434.5192 2609.087 444.33038 2623.1824 454.8151 C 2639.6758 467.08325 2655.7131 479.97238 2671.7805 492.80267 C 2686.0283 504.17993 2700.0793 515.80554 2714.149 527.4043 C 2719.5256 531.8368 2724.9614 536.2436 2729.9448 541.09875 C 2762.1409 572.46704 2794.926 603.2753 2826.0947 635.638 C 2847.9233 658.30237 2867.6975 682.9697 2888.017 707.0566 C 2913.7036 737.5052 2937.416 769.4861 2960.0874 802.2281 C 2985.0496 838.27783 3008.8918 875.052 3029.8115 913.6245 C 3045.97 943.4193 3062.6423 972.98724 3077.4368 1003.45715 C 3095.4265 1040.5082 3111.9646 1078.2778 3126.0422 1117.0558 C 3132.4954 1134.83 3139.8364 1152.3082 3145.624 1170.2911 C 3154.258 1197.1162 3162.4463 1224.1151 3169.7664 1251.3245 C 3177.512 1280.1155 3184.296 1309.1764 3190.9578 1338.2437 C 3194.576 1354.0303 3197.0515 1370.0782 3200.085 1386.0002 C 3200.4575 1387.9554 3201.091 1389.8613 3201.7397 1392.6582 M 608.94653 2340.0415 C 667.96356 2435.8489 737.6911 2523.0847 818.5215 2601.382 C 958.1386 2736.6248 1119.2933 2837.4316 1302.2839 2903.1194 C 1428.2555 2948.339 1558.2559 2973.6177 1691.8905 2979.4666 C 1781.9766 2983.4084 1871.6847 2978.689 1960.8752 2964.5278 C 2034.701 2952.8066 2107.13 2935.5173 2177.8906 2911.5576 C 2383.899 2841.8027 2563.8945 2729.8462 2714.1309 2572.6682 C 2966.0054 2309.1548 3092.3335 1994.1882 3092.9565 1629.3271 C 3093.0562 1570.9613 3088.4272 1512.8721 3080.3984 1455.0319 C 3070.9504 1386.9677 3056.6062 1319.995 3036.5974 1254.2687 C 2964.052 1015.9629 2835.9263 812.3529 2650.8733 645.86707 C 2418.9026 437.171 2146.409 322.32706 1834.7059 301.6303 C 1762.7415 296.85193 1690.8801 298.50003 1619.0906 305.53564 C 1560.0067 311.32605 1501.5411 320.8025 1443.8538 334.64297 C 1211.7347 390.33362 1008.3169 499.81702 834.41895 663.19183 C 672.36676 815.43774 555.1432 997.1381 482.76328 1207.4916 C 441.0991 1328.5776 417.98865 1453.3003 412.50256 1581.1663 C 409.80133 1644.1254 411.32593 1707.0619 417.5596 1769.8713 C 422.89487 1823.629 431.06293 1876.9058 442.76117 1929.6107 C 475.07785 2075.21 530.3387 2211.582 608.94653 2340.0415 Z"/>
    <path fill="#03343f" stroke="none" d="M 608.55994 2339.4233 C 530.3387 2211.582 475.07785 2075.21 442.76117 1929.6107 C 431.06293 1876.9058 422.89487 1823.629 417.5596 1769.8713 C 411.32593 1707.0619 409.80133 1644.1254 412.50256 1581.1663 C 417.98865 1453.3003 441.0991 1328.5776 482.76328 1207.4916 C 555.1432 997.1381 672.36676 815.43774 834.41895 663.19183 C 1008.3169 499.81702 1211.7347 390.33362 1443.8538 334.64297 C 1501.5411 320.8025 1560.0067 311.32605 1619.0906 305.53564 C 1690.8801 298.50003 1762.7415 296.85193 1834.7059 301.6303 C 2146.409 322.32706 2418.9026 437.171 2650.8733 645.86707 C 2835.9263 812.3529 2964.052 1015.9629 3036.5974 1254.2687 C 3056.6062 1319.995 3070.9504 1386.9677 3080.3984 1455.0319 C 3088.4272 1512.8721 3093.0562 1570.9613 3092.9565 1629.3271 C 3092.3335 1994.1882 2966.0054 2309.1548 2714.1309 2572.6682 C 2563.8945 2729.8462 2383.899 2841.8027 2177.8906 2911.5576 C 2107.13 2935.5173 2034.701 2952.8066 1960.8752 2964.5278 C 1871.6847 2978.689 1781.9766 2983.4084 1691.8905 2979.4666 C 1558.2559 2973.6177 1428.2555 2948.339 1302.2839 2903.1194 C 1119.2933 2837.4316 958.1386 2736.6248 818.5215 2601.382 C 737.6911 2523.0847 667.96356 2435.8489 608.55994 2339.4233 M 2549.0813 713.9097 C 2466.852 643.05 2376.8147 584.1281 2278.8994 537.266 C 2136.9421 469.3254 1987.2927 430.77618 1830.3552 420.5027 C 1766.0723 416.29456 1701.8335 417.4927 1637.6504 423.49194 C 1584.5165 428.45847 1531.8971 436.56577 1479.9401 448.5555 C 1297.534 490.6477 1133.1083 570.11414 987.19415 687.4399 C 722.45435 900.3103 553.5612 1215.4987 532.4605 1567.5361 C 527.27924 1653.9794 531.4539 1740.0657 544.51416 1825.6549 C 555.2823 1896.223 571.93964 1965.4259 595.2932 2032.9211 C 678.6669 2273.8835 822.4373 2471.0447 1027.1959 2622.7717 C 1220.6777 2766.142 1438.6584 2844.0366 1678.8768 2859.459 C 1758.5728 2864.5752 1838.04 2861.1282 1917.2122 2850.4185 C 1990.9778 2840.4404 2063.2844 2824.1577 2133.883 2800.6147 C 2364.4675 2723.7207 2556.3035 2590.5498 2707.715 2400.6145 C 2866.8088 2201.0427 2953.93 1972.857 2971.4963 1718.2766 C 2976.4155 1646.9888 2974.2988 1575.7761 2966.4448 1504.6987 C 2959.1868 1439.0188 2947.0823 1374.2938 2929.0166 1310.7742 C 2861.8445 1074.5966 2735.139 876.16364 2549.0813 713.9097 Z"/>
    <path fill="#fefefe" stroke="none" d="M 2549.6206 714.3685 C 2735.139 876.16364 2861.8445 1074.5966 2929.0166 1310.7742 C 2947.0823 1374.2938 2959.1868 1439.0188 2966.4448 1504.6987 C 2974.2988 1575.7761 2976.4155 1646.9888 2971.4963 1718.2766 C 2953.93 1972.857 2866.8088 2201.0427 2707.715 2400.6145 C 2556.3035 2590.5498 2364.4675 2723.7207 2133.883 2800.6147 C 2063.2844 2824.1577 1990.9778 2840.4404 1917.2122 2850.4185 C 1838.04 2861.1282 1758.5728 2864.5752 1678.8768 2859.459 C 1438.6584 2844.0366 1220.6777 2766.142 1027.1959 2622.7717 C 822.4373 2471.0447 678.6669 2273.8835 595.2932 2032.9211 C 571.93964 1965.4259 555.2823 1896.223 544.51416 1825.6549 C 531.4539 1740.0657 527.27924 1653.9794 532.4605 1567.5361 C 553.5612 1215.4987 722.45435 900.3103 987.19415 687.4399 C 1133.1083 570.11414 1297.534 490.6477 1479.9401 448.5555 C 1531.8971 436.56577 1584.5165 428.45847 1637.6504 423.49194 C 1701.8335 417.4927 1766.0723 416.29456 1830.3552 420.5027 C 1987.2927 430.77618 2136.9421 469.3254 2278.8994 537.266 C 2376.8147 584.1281 2466.852 643.05 2549.6206 714.3685 M 2452.3262 955.6923 C 2442.375 931.7345 2433.7024 907.1445 2422.2292 883.9391 C 2389.7932 818.3334 2345.027 762.074 2289.6125 714.2545 C 2237.3325 669.13983 2178.7205 634.8431 2113.7039 611.69666 C 2037.8741 584.70074 1959.9475 566.6244 1879.922 557.51984 C 1842.1901 553.22705 1804.4005 550.0854 1766.4264 550.1172 C 1742.4603 550.13727 1718.442 550.3347 1694.5427 551.90564 C 1662.6943 553.99915 1630.7167 556.0326 1599.2014 560.7882 C 1562.4183 566.33875 1525.8093 573.6774 1489.5992 582.24536 C 1429.876 596.3768 1371.5999 615.0159 1317.1266 644.1074 C 1272.4913 667.9449 1231.7765 697.14844 1195.0217 731.90564 C 1157.2576 767.61725 1125.211 807.9188 1098.8967 852.69763 C 1079.4539 885.7833 1063.2284 920.3936 1050.0133 957.4883 C 1003.695 957.5303 957.37665 957.59076 911.0583 957.586 C 906.34467 957.5855 902.3871 957.75604 898.87274 962.2172 C 863.5596 1007.04443 831.5215 1054.0532 803.53314 1103.7969 C 802.6893 1105.2968 802.5889 1107.215 802.15234 1108.8978 C 1435.8674 1108.8978 2068.864 1108.8978 2702.9033 1108.8978 C 2701.6848 1106.0546 2701.0095 1103.9446 2699.939 1102.0591 C 2672.2534 1053.3029 2640.7766 1007.1155 2606.148 963.0281 C 2602.5078 958.3938 2598.5442 957.54517 2593.3145 957.55804 C 2550.3274 957.6642 2507.3398 957.62994 2464.3525 957.5971 C 2460.3647 957.5941 2456.377 957.3058 2452.3262 955.6923 M 1650.0431 2724.8987 C 1660.3293 2725.788 1670.603 2726.8699 1680.9037 2727.5361 C 1754.9486 2732.324 1828.7598 2729.6526 1902.2366 2719.5037 C 1974.6423 2709.5024 2045.3798 2692.3599 2114.2917 2667.9023 C 2247.0515 2620.7852 2366.209 2550.5037 2471.9885 2457.5122 C 2474.2227 2455.548 2477.655 2454.2415 2477.8875 2450.7153 C 1993.7974 2450.7153 1510.1993 2450.7153 1024.6736 2450.7153 C 1030.0454 2455.4739 1033.9525 2459 1037.9285 2462.4473 C 1123.1125 2536.305 1217.2743 2595.9316 1320.7999 2640.6611 C 1425.5071 2685.9006 1534.6036 2714.0984 1650.0431 2724.8987 M 2572.2495 1982.2968 C 2615.7969 1982.2968 2659.3445 1982.2968 2703.4292 1982.2968 C 2703.4292 1753.6412 2703.4292 1526.2177 2703.4292 1298.1711 C 2659.0488 1298.1711 2615.2642 1298.1711 2570.2253 1298.1711 C 2570.2253 1311.5619 2570.2253 1324.4597 2570.2253 1337.3577 C 2570.2253 1350.3555 2570.2253 1363.3531 2570.2253 1376.3511 C 2570.2253 1389.3488 2570.2253 1402.3463 2570.2253 1415.3442 C 2570.2253 1428.342 2570.2253 1441.3398 2570.2253 1454.3378 C 2570.2253 1467.3354 2570.2253 1480.333 2570.2253 1493.3309 C 2570.2253 1506.3287 2570.2253 1519.3265 2570.2253 1532.3242 C 2570.2253 1545.6553 2570.2253 1558.9862 2570.2253 1572.3174 C 2570.2253 1585.3152 2570.2253 1598.313 2570.2253 1611.3107 C 2570.2253 1624.3085 2570.2253 1637.3062 2570.2253 1650.3041 C 2570.2253 1663.3019 2570.2263 1676.2997 2570.2253 1689.2974 C 2570.2244 1702.2952 2570.3071 1715.2936 2570.1948 1728.2903 C 2570.084 1741.0934 2570.633 1753.9318 2569.804 1767.151 C 2564.1265 1766.6741 2562.8286 1762.8546 2560.7961 1760.0853 C 2511.9219 1693.488 2463.069 1626.8751 2414.2527 1560.2356 C 2352.054 1475.3276 2289.8398 1390.4312 2227.8267 1305.388 C 2223.6455 1299.6542 2219.204 1297.3525 2212.1091 1297.4104 C 2174.1182 1297.7207 2136.1233 1297.5448 2098.13 1297.5823 C 2094.9075 1297.5854 2091.6855 1297.9219 2088.061 1298.1263 C 2088.061 1526.3685 2088.061 1753.7717 2088.061 1981.7042 C 2132.2075 1981.7042 2175.664 1981.7042 2220.3137 1981.7042 C 2220.3137 1976.9019 2220.314 1972.6583 2220.314 1968.415 C 2220.3123 1825.1062 2220.3105 1681.7975 2220.3086 1538.4885 C 2220.3086 1531.1566 2220.215 1523.8228 2220.3584 1516.4935 C 2220.3997 1514.3859 2221.1177 1512.2914 2222.0315 1507.5824 C 2226.213 1512.8728 2229.1204 1516.3024 2231.7598 1519.927 C 2290.5803 1600.7085 2349.3562 1681.5223 2408.172 1762.3073 C 2459.9307 1833.3981 2511.7131 1904.472 2563.5676 1975.4929 C 2565.4368 1978.053 2568.1877 1979.969 2572.2495 1982.2968 M 902.7915 1743.7987 C 869.89264 1783.5814 837.02155 1823.3868 804.04865 1863.1079 C 801.0603 1866.7079 800.1358 1870.5555 800.14935 1875.0745 C 800.2487 1908.4006 800.2007 1941.7269 800.2742 1975.0533 C 800.279 1977.2635 800.9002 1979.4727 801.21 1981.5192 C 818.8368 1983.593 1356.1322 1982.6766 1363.0862 1980.635 C 1364.9305 1965.6396 1364.2333 1867.1656 1361.9215 1859.2185 C 1235.1503 1859.2185 1108.0623 1859.2185 978.8007 1859.2185 C 983.15607 1853.7073 986.10913 1849.8383 989.1986 1846.0814 C 1024.3154 1803.3789 1059.4788 1760.7141 1094.5787 1717.9976 C 1136.6537 1666.7924 1178.6666 1615.536 1220.7308 1564.3217 C 1260.8967 1515.4186 1301.0634 1466.5157 1341.3323 1417.6974 C 1344.7184 1413.5924 1346.1448 1409.3662 1346.1157 1404.0422 C 1345.9374 1371.3834 1346.044 1338.7231 1345.9913 1306.0632 C 1345.9873 1303.5112 1345.4922 1300.96 1345.2437 1298.5854 C 1330.609 1296.4022 823.16565 1297.1954 816.4124 1299.3073 C 814.52075 1316.5223 815.32794 1408.8011 817.6375 1416.293 C 830.38635 1416.293 843.351 1416.2927 856.31573 1416.2927 C 869.64636 1416.2927 882.97675 1416.2927 896.3074 1416.2927 C 909.3047 1416.2927 922.302 1416.2927 935.2993 1416.2927 C 948.2967 1416.2927 961.2938 1416.2927 974.2912 1416.2927 C 987.62177 1416.2927 1000.9523 1416.2927 1014.2829 1416.2927 C 1027.2802 1416.2927 1040.2775 1416.2927 1053.2748 1416.2927 C 1066.2721 1416.2927 1079.2694 1416.2927 1092.2667 1416.2927 C 1105.5973 1416.2927 1118.9277 1416.2686 1132.2583 1416.2998 C 1145.016 1416.3298 1157.7839 1416.1622 1172.5594 1416.444 C 1169.0703 1420.8379 1167.0875 1423.4126 1165.0236 1425.9208 C 1154.0197 1439.2938 1142.9966 1452.6509 1131.978 1466.0116 C 1093.4116 1512.7764 1054.8499 1559.5447 1016.27606 1606.3032 C 978.7614 1651.7781 941.2338 1697.2423 902.7915 1743.7987 M 1583.7201 1593.2621 C 1606.6528 1631.9371 1629.4885 1670.6704 1652.6129 1709.2305 C 1656.5306 1715.7633 1658.2603 1722.247 1658.2397 1729.8982 C 1658.0266 1809.8827 1658.1088 1889.8678 1658.1091 1969.8529 C 1658.1093 1973.7158 1658.1093 1977.5787 1658.1093 1981.581 C 1703.356 1981.581 1747.1403 1981.581 1791.874 1981.581 C 1791.874 1976.9261 1791.874 1972.9978 1791.874 1969.0692 C 1791.8759 1888.4177 1791.9023 1807.7661 1791.828 1727.1146 C 1791.8225 1721.3405 1792.5986 1716.1262 1795.632 1710.9425 C 1836.5104 1641.0823 1877.2043 1571.114 1917.973 1501.1895 C 1955.89 1436.1563 1993.8497 1371.1481 2031.7452 1306.1023 C 2033.1165 1303.7489 2034.0057 1301.1149 2035.5873 1297.5607 C 2030.6962 1297.5607 2027.3921 1297.5608 2024.0879 1297.5607 C 1982.0958 1297.5605 1940.1008 1297.8066 1898.1138 1297.3556 C 1889.5717 1297.2639 1885.2201 1300.1776 1881.2292 1307.5916 C 1836.548 1390.597 1791.5038 1473.4073 1746.5353 1556.2583 C 1740.239 1567.8589 1733.8259 1579.3961 1726.7267 1592.3093 C 1719.122 1578.4244 1712.3146 1565.8976 1705.4182 1553.4198 C 1674.4822 1497.4476 1643.5231 1441.4884 1612.5676 1385.5271 C 1597.5742 1358.4218 1582.4956 1331.3629 1567.6445 1304.1798 C 1565.1521 1299.6179 1562.3352 1297.41 1556.7858 1297.4362 C 1509.7957 1297.6564 1462.8042 1297.5558 1415.8129 1297.6122 C 1414.0513 1297.6143 1412.2905 1298.237 1409.3771 1298.7888 C 1467.6628 1397.2358 1525.3197 1494.6207 1583.7201 1593.2621 M 2054.8108 2364.6204 C 2058.706 2364.6204 2062.601 2364.6204 2067.6072 2364.6204 C 2067.6072 2312.1675 2067.6072 2260.8203 2067.6072 2209.473 C 2071.0466 2211.2722 2072.792 2213.5503 2074.4814 2215.8691 C 2089.1887 2236.0562 2103.8865 2256.2498 2118.5854 2276.4429 C 2138.3806 2303.6375 2158.1506 2330.8503 2178.0032 2358.003 C 2180.0662 2360.8242 2181.4229 2364.6282 2186.0217 2364.6145 C 2203.9163 2364.5605 2221.8108 2364.5925 2240.1575 2364.5925 C 2240.1575 2278.213 2240.1575 2192.772 2240.1575 2106.9392 C 2220.279 2106.9392 2200.8538 2106.9392 2180.5667 2106.9392 C 2180.5667 2117.8179 2180.5664 2128.0808 2180.5664 2138.3435 C 2180.5664 2148.6711 2180.5664 2158.999 2180.5664 2169.3267 C 2180.5664 2179.6543 2180.5664 2189.9822 2180.5664 2200.3098 C 2180.5664 2210.6375 2180.7385 2220.969 2180.517 2231.292 C 2180.302 2241.3184 2181.4705 2251.4358 2179.558 2262.838 C 2176.7954 2259.2717 2174.9504 2257.001 2173.223 2254.644 C 2139.7534 2208.9807 2106.0356 2163.495 2073.0723 2117.469 C 2066.9038 2108.856 2060.6821 2105.3386 2050.1948 2106.0747 C 2036.3503 2107.0464 2022.3861 2106.314 2008.6543 2106.314 C 2006.5776 2117.857 2006.9917 2357.329 2009.036 2364.6187 C 2023.5682 2364.6187 2038.2084 2364.6187 2054.8108 2364.6204 M 2385 2173.8518 C 2377.3352 2173.8518 2369.6704 2173.825 2362.0056 2173.8586 C 2354.1553 2173.8933 2346.305 2173.9873 2338.672 2174.0537 C 2336.584 2190.3337 2337.3342 2292.8804 2339.462 2299.9207 C 2340.6868 2300.0757 2341.9912 2300.3848 2343.2954 2300.3853 C 2432.9397 2300.4177 2522.5842 2300.3953 2612.2285 2300.516 C 2617.1108 2300.5227 2620.0046 2298.6902 2622.8967 2294.8303 C 2650.0942 2258.5305 2675.0403 2220.7612 2697.669 2181.4583 C 2698.752 2179.5774 2699.3367 2177.4097 2700.7656 2173.8516 C 2595.3228 2173.8516 2491.1614 2173.8516 2385 2173.8518 M 947 2173.8518 C 899.55164 2173.8518 852.1033 2173.8518 803.28723 2173.8518 C 805.11145 2177.8438 805.9918 2180.2732 807.263 2182.477 C 829.5819 2221.168 854.26666 2258.2925 880.86865 2294.172 C 884.4781 2299.04 888.44324 2300.5454 894.26697 2300.5356 C 981.54236 2300.3896 1068.818 2300.446 1156.0936 2300.4185 C 1159.2842 2300.4175 1162.4747 2300.0417 1165.4485 2299.8545 C 1167.5232 2284.6094 1166.7921 2181.3896 1164.7157 2174.6033 C 1164.0938 2174.4102 1163.4719 2174.0486 1162.8497 2174.0479 C 1091.5665 2173.965 1020.28326 2173.9092 947 2173.8518 M 1818.2096 2196.8357 C 1812.2378 2176.674 1802.1647 2158.8113 1787.4205 2143.8293 C 1752.5072 2108.353 1709.9099 2095.8423 1661.4063 2103.878 C 1573.7607 2118.3977 1524.7957 2211.8748 1562.1305 2292.4792 C 1588.337 2349.058 1652.435 2380.2551 1715.3396 2367.047 C 1794.1566 2350.4983 1839.6256 2276.2607 1818.2096 2196.8357 M 1507.5594 2320.4155 C 1511.0895 2317.264 1509.6813 2315.0374 1506.4912 2312.5698 C 1496.2166 2304.6223 1486.1039 2296.4648 1475.9199 2288.4 C 1471.2878 2284.732 1466.6344 2281.0908 1461.8956 2277.3628 C 1457.9607 2281.8528 1454.8401 2285.743 1451.3828 2289.3064 C 1420.9528 2320.6736 1371.3871 2318.249 1344.1537 2284.0356 C 1331.3022 2267.8906 1326.5643 2249.3132 1327.7428 2228.8848 C 1329.4155 2199.8887 1348.9719 2173.6746 1376.4723 2164.0452 C 1404.0245 2154.3977 1434.1586 2162.3337 1453.817 2184.386 C 1455.7305 2186.5325 1457.7745 2188.5623 1460.0751 2190.9792 C 1476.5771 2178.8252 1492.5449 2167.0645 1509.3142 2154.7134 C 1503.1909 2148.0886 1498.2167 2141.7905 1492.3381 2136.4966 C 1455.406 2103.2368 1411.9905 2094.3206 1364.8419 2106.2446 C 1315.1128 2118.8215 1281.3868 2150.4795 1268.338 2200.4163 C 1255.097 2251.0884 1267.5376 2296.3235 1305.6788 2332.9182 C 1359.4457 2384.5051 1453.7557 2383.7542 1507.5594 2320.4155 M 1942.0228 2328.998 C 1942.0228 2304.3638 1942.0228 2279.7295 1942.0228 2255.0952 C 1942.0228 2230.128 1942.0466 2205.161 1942.0161 2180.1936 C 1941.9865 2155.7305 1942.1569 2131.2622 1941.8954 2106.8198 C 1921.3092 2106.8198 1902.1349 2106.8198 1882.7068 2106.8198 C 1882.7068 2192.9604 1882.7068 2278.582 1882.7068 2364.1494 C 1902.649 2364.1494 1921.8519 2364.1494 1942.0228 2364.1494 C 1942.0228 2352.7964 1942.0228 2341.8967 1942.0228 2328.998 Z"/>
    <path fill="#0d3c4e" stroke="none" d="M 2452.3892 957.15015 C 2456.377 957.3058 2460.3647 957.5941 2464.3525 957.5971 C 2507.3398 957.62994 2550.3274 957.6642 2593.3145 957.55804 C 2598.5442 957.54517 2602.5078 958.3938 2606.148 963.0281 C 2640.7766 1007.1155 2672.2534 1053.3029 2699.939 1102.0591 C 2701.0095 1103.9446 2701.6848 1106.0546 2702.9033 1108.8978 C 2068.864 1108.8978 1435.8674 1108.8978 802.15234 1108.8978 C 802.5889 1107.215 802.6893 1105.2968 803.53314 1103.7969 C 831.5215 1054.0532 863.5596 1007.04443 898.87274 962.2172 C 902.3871 957.75604 906.34467 957.5855 911.0583 957.586 C 957.37665 957.59076 1003.695 957.5303 1051.8379 957.5293 C 1086.3907 957.55206 1119.119 957.5339 1152.8138 957.5595 C 1235.7092 957.61145 1317.6381 957.6272 1399.5668 957.5999 C 1402.8752 957.5988 1406.1837 957.1913 1410.4265 957.2378 C 1414.3573 957.5858 1417.3535 957.7422 1420.3496 957.7423 C 1695.9719 957.7543 1971.5942 957.7543 2247.2166 957.755 C 2250.44 957.755 2253.6636 957.755 2256.9639 957.755 C 2256.9639 955.7429 2257.216 954.6981 2256.9187 953.84467 C 2255.8242 950.70306 2254.6104 947.5987 2253.33 944.52673 C 2235.8926 902.6846 2212.7998 864.27405 2182.7786 830.2576 C 2150.3628 793.5286 2112.27 764.413 2066.598 745.8243 C 2040.3429 735.13855 2013.3722 726.68536 1985.9657 719.49976 C 1982.4617 718.581 1977.5747 719.546 1976.6243 714.75995 C 1995.594 717.25165 2013.7959 719.20654 2031.849 722.09296 C 2075.9224 729.13947 2119.3052 739.25 2161.3472 754.36005 C 2177.2156 760.06335 2192.463 767.4956 2208.3604 774.69257 C 2213.1401 777.39465 2217.5525 779.54407 2222.3271 782.2814 C 2227.3767 785.98364 2232.4138 788.682 2236.692 792.28265 C 2258.3667 810.52484 2277.8362 830.945 2295.3564 853.19476 C 2318.5093 882.5975 2337.579 914.4471 2351.3748 949.27435 C 2354.04 956.00256 2357.7104 958.17426 2364.7073 957.8977 C 2377.9807 957.37317 2391.2896 957.808 2404.5828 957.71204 C 2420.5188 957.597 2436.4539 957.34357 2452.3892 957.15015 Z"/>
    <path fill="#02343e" stroke="none" d="M 1649.1315 2724.7666 C 1534.6036 2714.0984 1425.5071 2685.9006 1320.7999 2640.6611 C 1217.2743 2595.9316 1123.1125 2536.305 1037.9285 2462.4473 C 1033.9525 2459 1030.0454 2455.4739 1024.6736 2450.7153 C 1510.1993 2450.7153 1993.7974 2450.7153 2477.8875 2450.7153 C 2477.655 2454.2415 2474.2227 2455.548 2471.9885 2457.5122 C 2366.209 2550.5037 2247.0515 2620.7852 2114.2917 2667.9023 C 2045.3798 2692.3599 1974.6423 2709.5024 1902.2366 2719.5037 C 1828.7598 2729.6526 1754.9486 2732.324 1680.9037 2727.5361 C 1670.603 2726.8699 1660.3293 2725.788 1649.1315 2724.7666 Z"/>
    <path fill="#52a8dd" stroke="none" d="M 2571.3887 1982.2412 C 2568.1877 1979.969 2565.4368 1978.053 2563.5676 1975.4929 C 2511.7131 1904.472 2459.9307 1833.3981 2408.172 1762.3073 C 2349.3562 1681.5223 2290.5803 1600.7085 2231.7598 1519.927 C 2229.1204 1516.3024 2226.213 1512.8728 2222.0315 1507.5824 C 2221.1177 1512.2914 2220.3997 1514.3859 2220.3584 1516.4935 C 2220.215 1523.8228 2220.3086 1531.1566 2220.3086 1538.4885 C 2220.3105 1681.7975 2220.3123 1825.1062 2220.314 1968.415 C 2220.314 1972.6583 2220.3137 1976.9019 2220.3137 1981.7042 C 2175.664 1981.7042 2132.2075 1981.7042 2088.061 1981.7042 C 2088.061 1753.7717 2088.061 1526.3685 2088.061 1298.1263 C 2091.6855 1297.9219 2094.9075 1297.5854 2098.13 1297.5823 C 2136.1233 1297.5448 2174.1182 1297.7207 2212.1091 1297.4104 C 2219.204 1297.3525 2223.6455 1299.6542 2227.8267 1305.388 C 2289.8398 1390.4312 2352.054 1475.3276 2414.2527 1560.2356 C 2463.069 1626.8751 2511.9219 1693.488 2560.7961 1760.0853 C 2562.8286 1762.8546 2564.1265 1766.6741 2569.804 1767.151 C 2570.633 1753.9318 2570.084 1741.0934 2570.1948 1728.2903 C 2570.3071 1715.2936 2570.2244 1702.2952 2570.2253 1689.2974 C 2570.2263 1676.2997 2570.2253 1663.3019 2570.2253 1650.3041 C 2570.2253 1637.3062 2570.2253 1624.3085 2570.2253 1611.3107 C 2570.2253 1598.313 2570.2253 1585.3152 2570.2253 1572.3174 C 2570.2253 1558.9862 2570.2253 1545.6553 2570.2253 1532.3242 C 2570.2253 1519.3265 2570.2253 1506.3287 2570.2253 1493.3309 C 2570.2253 1480.333 2570.2253 1467.3354 2570.2253 1454.3378 C 2570.2253 1441.3398 2570.2253 1428.342 2570.2253 1415.3442 C 2570.2253 1402.3463 2570.2253 1389.3488 2570.2253 1376.3511 C 2570.2253 1363.3531 2570.2253 1350.3555 2570.2253 1337.3577 C 2570.2253 1324.4597 2570.2253 1311.5619 2570.2253 1298.1711 C 2615.2642 1298.1711 2659.0488 1298.1711 2703.4292 1298.1711 C 2703.4292 1526.2177 2703.4292 1753.6412 2703.4292 1982.2968 C 2659.3445 1982.2968 2615.7969 1982.2968 2571.3887 1982.2412 Z"/>
    <path fill="#52a8dd" stroke="none" d="M 903.25183 1743.255 C 941.2338 1697.2423 978.7614 1651.7781 1016.27606 1606.3032 C 1054.8499 1559.5447 1093.4116 1512.7764 1131.978 1466.0116 C 1142.9966 1452.6509 1154.0197 1439.2938 1165.0236 1425.9208 C 1167.0875 1423.4126 1169.0703 1420.8379 1172.5594 1416.444 C 1157.7839 1416.1622 1145.016 1416.3298 1132.2583 1416.2998 C 1118.9277 1416.2686 1105.5973 1416.2927 1092.2667 1416.2927 C 1079.2694 1416.2927 1066.2721 1416.2927 1053.2748 1416.2927 C 1040.2775 1416.2927 1027.2802 1416.2927 1014.2829 1416.2927 C 1000.9523 1416.2927 987.62177 1416.2927 974.2912 1416.2927 C 961.2938 1416.2927 948.2967 1416.2927 935.2993 1416.2927 C 922.302 1416.2927 909.3047 1416.2927 896.3074 1416.2927 C 882.97675 1416.2927 869.64636 1416.2927 856.31573 1416.2927 C 843.351 1416.2927 830.38635 1416.293 817.6375 1416.293 C 815.32794 1408.8011 814.52075 1316.5223 816.4124 1299.3073 C 823.16565 1297.1954 1330.609 1296.4022 1345.2437 1298.5854 C 1345.4922 1300.96 1345.9873 1303.5112 1345.9913 1306.0632 C 1346.044 1338.7231 1345.9374 1371.3834 1346.1157 1404.0422 C 1346.1448 1409.3662 1344.7184 1413.5924 1341.3323 1417.6974 C 1301.0634 1466.5157 1260.8967 1515.4186 1220.7308 1564.3217 C 1178.6666 1615.536 1136.6537 1666.7924 1094.5787 1717.9976 C 1059.4788 1760.7141 1024.3154 1803.3789 989.1986 1846.0814 C 986.10913 1849.8383 983.15607 1853.7073 978.8007 1859.2185 C 1108.0623 1859.2185 1235.1503 1859.2185 1361.9215 1859.2185 C 1364.2333 1867.1656 1364.9305 1965.6396 1363.0862 1980.635 C 1356.1322 1982.6766 818.8368 1983.593 801.21 1981.5192 C 800.9002 1979.4727 800.279 1977.2635 800.2742 1975.0533 C 800.2007 1941.7269 800.2487 1908.4006 800.14935 1875.0745 C 800.1358 1870.5555 801.0603 1866.7079 804.04865 1863.1079 C 837.02155 1823.3868 869.89264 1783.5814 903.25183 1743.255 Z"/>
    <path fill="#52a8dc" stroke="none" d="M 2452.3577 956.42126 C 2436.4539 957.34357 2420.5188 957.597 2404.5828 957.71204 C 2391.2896 957.808 2377.9807 957.37317 2364.7073 957.8977 C 2357.7104 958.17426 2354.04 956.00256 2351.3748 949.27435 C 2337.579 914.4471 2318.5093 882.5975 2295.3564 853.19476 C 2277.8362 830.945 2258.3667 810.52484 2236.692 792.28265 C 2232.4138 788.682 2227.3767 785.98364 2222.1277 781.66437 C 2216.969 777.0782 2212.3718 773.6972 2207.178 769.9971 C 2205.039 768.4145 2203.5654 767.05524 2201.9453 765.90155 C 2164.5273 739.25867 2124.059 718.39136 2080.684 703.45447 C 2002.5621 676.5519 1921.935 661.26215 1839.7554 654.5327 C 1801.9863 651.43994 1764.0999 649.944 1726.0562 651.31354 C 1675.7524 653.12463 1625.8317 657.46204 1576.1656 665.64087 C 1528.7997 673.4409 1482.181 684.2801 1436.5448 699.0289 C 1374.0525 719.22534 1317.366 750.1514 1267.421 793.0565 C 1218.3717 835.1922 1180.3696 885.5232 1154.9277 945.105 C 1153.2754 948.97473 1152.8457 953.3667 1151.8472 957.5157 C 1119.119 957.5339 1086.3907 957.55206 1052.7498 957.3571 C 1063.2284 920.3936 1079.4539 885.7833 1098.8967 852.69763 C 1125.211 807.9188 1157.2576 767.61725 1195.0217 731.90564 C 1231.7765 697.14844 1272.4913 667.9449 1317.1266 644.1074 C 1371.5999 615.0159 1429.876 596.3768 1489.5992 582.24536 C 1525.8093 573.6774 1562.4183 566.33875 1599.2014 560.7882 C 1630.7167 556.0326 1662.6943 553.99915 1694.5427 551.90564 C 1718.442 550.3347 1742.4603 550.13727 1766.4264 550.1172 C 1804.4005 550.0854 1842.1901 553.22705 1879.922 557.51984 C 1959.9475 566.6244 2037.8741 584.70074 2113.7039 611.69666 C 2178.7205 634.8431 2237.3325 669.13983 2289.6125 714.2545 C 2345.027 762.074 2389.7932 818.3334 2422.2292 883.9391 C 2433.7024 907.1445 2442.375 931.7345 2452.3577 956.42126 Z"/>
    <path fill="#52a8dd" stroke="none" d="M 1583.3484 1592.6339 C 1525.3197 1494.6207 1467.6628 1397.2358 1409.3771 1298.7888 C 1412.2905 1298.237 1414.0513 1297.6143 1415.8129 1297.6122 C 1462.8042 1297.5558 1509.7957 1297.6564 1556.7858 1297.4362 C 1562.3352 1297.41 1565.1521 1299.6179 1567.6445 1304.1798 C 1582.4956 1331.3629 1597.5742 1358.4218 1612.5676 1385.5271 C 1643.5231 1441.4884 1674.4822 1497.4476 1705.4182 1553.4198 C 1712.3146 1565.8976 1719.122 1578.4244 1726.7267 1592.3093 C 1733.8259 1579.3961 1740.239 1567.8589 1746.5353 1556.2583 C 1791.5038 1473.4073 1836.548 1390.597 1881.2292 1307.5916 C 1885.2201 1300.1776 1889.5717 1297.2639 1898.1138 1297.3556 C 1940.1008 1297.8066 1982.0958 1297.5605 2024.0879 1297.5607 C 2027.3921 1297.5608 2030.6962 1297.5607 2035.5873 1297.5607 C 2034.0057 1301.1149 2033.1165 1303.7489 2031.7452 1306.1023 C 1993.8497 1371.1481 1955.89 1436.1563 1917.973 1501.1895 C 1877.2043 1571.114 1836.5104 1641.0823 1795.632 1710.9425 C 1792.5986 1716.1262 1791.8225 1721.3405 1791.828 1727.1146 C 1791.9023 1807.7661 1791.8759 1888.4177 1791.874 1969.0692 C 1791.874 1972.9978 1791.874 1976.9261 1791.874 1981.581 C 1747.1403 1981.581 1703.356 1981.581 1658.1093 1981.581 C 1658.1093 1977.5787 1658.1093 1973.7158 1658.1091 1969.8529 C 1658.1088 1889.8678 1658.0266 1809.8827 1658.2397 1729.8982 C 1658.2603 1722.247 1656.5306 1715.7633 1652.6129 1709.2305 C 1629.4885 1670.6704 1606.6528 1631.9371 1583.3484 1592.6339 Z"/>
    <path fill="#04353f" stroke="none" d="M 2053.8296 2364.6196 C 2038.2084 2364.6187 2023.5682 2364.6187 2009.036 2364.6187 C 2006.9917 2357.329 2006.5776 2117.857 2008.6543 2106.314 C 2022.3861 2106.314 2036.3503 2107.0464 2050.1948 2106.0747 C 2060.6821 2105.3386 2066.9038 2108.856 2073.0723 2117.469 C 2106.0356 2163.495 2139.7534 2208.9807 2173.223 2254.644 C 2174.9504 2257.001 2176.7954 2259.2717 2179.558 2262.838 C 2181.4705 2251.4358 2180.302 2241.3184 2180.517 2231.292 C 2180.7385 2220.969 2180.5664 2210.6375 2180.5664 2200.3098 C 2180.5664 2189.9822 2180.5664 2179.6543 2180.5664 2169.3267 C 2180.5664 2158.999 2180.5664 2148.6711 2180.5664 2138.3435 C 2180.5664 2128.0808 2180.5667 2117.8179 2180.5667 2106.9392 C 2200.8538 2106.9392 2220.279 2106.9392 2240.1575 2106.9392 C 2240.1575 2192.772 2240.1575 2278.213 2240.1575 2364.5925 C 2221.8108 2364.5925 2203.9163 2364.5605 2186.0217 2364.6145 C 2181.4229 2364.6282 2180.0662 2360.8242 2178.0032 2358.003 C 2158.1506 2330.8503 2138.3806 2303.6375 2118.5854 2276.4429 C 2103.8865 2256.2498 2089.1887 2236.0562 2074.4814 2215.8691 C 2072.792 2213.5503 2071.0466 2211.2722 2067.6072 2209.473 C 2067.6072 2260.8203 2067.6072 2312.1675 2067.6072 2364.6204 C 2062.601 2364.6204 2058.706 2364.6204 2053.8296 2364.6196 Z"/>
    <path fill="#52a8dc" stroke="none" d="M 2386 2173.8516 C 2491.1614 2173.8516 2595.3228 2173.8516 2700.7656 2173.8516 C 2699.3367 2177.4097 2698.752 2179.5774 2697.669 2181.4583 C 2675.0403 2220.7612 2650.0942 2258.5305 2622.8967 2294.8303 C 2620.0046 2298.6902 2617.1108 2300.5227 2612.2285 2300.516 C 2522.5842 2300.3953 2432.9397 2300.4177 2343.2954 2300.3853 C 2341.9912 2300.3848 2340.6868 2300.0757 2339.462 2299.9207 C 2337.3342 2292.8804 2336.584 2190.3337 2338.672 2174.0537 C 2346.305 2173.9873 2354.1553 2173.8933 2362.0056 2173.8586 C 2369.6704 2173.825 2377.3352 2173.8518 2386 2173.8516 Z"/>
    <path fill="#52a8dd" stroke="none" d="M 948 2173.8516 C 1020.28326 2173.9092 1091.5665 2173.965 1162.8497 2174.0479 C 1163.4719 2174.0486 1164.0938 2174.4102 1164.7137 2174.6096 C 1166.7921 2181.3896 1167.5232 2284.6094 1165.4485 2299.8545 C 1162.4747 2300.0417 1159.2842 2300.4175 1156.0936 2300.4185 C 1068.818 2300.446 981.54236 2300.3896 894.26697 2300.5356 C 888.44324 2300.5454 884.4781 2299.04 880.86865 2294.172 C 854.26666 2258.2925 829.5819 2221.168 807.263 2182.477 C 805.9918 2180.2732 805.11145 2177.8438 803.28723 2173.8518 C 852.1033 2173.8518 899.55164 2173.8518 948 2173.8516 Z"/>
    <path fill="#04353f" stroke="none" d="M 1818.4221 2197.6162 C 1839.6256 2276.2607 1794.1566 2350.4983 1715.3396 2367.047 C 1652.435 2380.2551 1588.337 2349.058 1562.1305 2292.4792 C 1524.7957 2211.8748 1573.7607 2118.3977 1661.4063 2103.878 C 1709.9099 2095.8423 1752.5072 2108.353 1787.4205 2143.8293 C 1802.1647 2158.8113 1812.2378 2176.674 1818.4221 2197.6162 M 1700.629 2309.9976 C 1741.677 2302.286 1768.743 2260.0215 1757.4615 2215.4382 C 1748.4181 2179.7 1713.3134 2155.5764 1677.7239 2160.4253 C 1636.3832 2166.0579 1607.862 2204.8923 1614.4797 2247.3313 C 1622.0184 2295.6775 1664.7772 2317.1128 1700.629 2309.9976 Z"/>
    <path fill="#053540" stroke="none" d="M 1507.0865 2320.9565 C 1453.7557 2383.7542 1359.4457 2384.5051 1305.6788 2332.9182 C 1267.5376 2296.3235 1255.097 2251.0884 1268.338 2200.4163 C 1281.3868 2150.4795 1315.1128 2118.8215 1364.8419 2106.2446 C 1411.9905 2094.3206 1455.406 2103.2368 1492.3381 2136.4966 C 1498.2167 2141.7905 1503.1909 2148.0886 1509.3142 2154.7134 C 1492.5449 2167.0645 1476.5771 2178.8252 1460.0751 2190.9792 C 1457.7745 2188.5623 1455.7305 2186.5325 1453.817 2184.386 C 1434.1586 2162.3337 1404.0245 2154.3977 1376.4723 2164.0452 C 1348.9719 2173.6746 1329.4155 2199.8887 1327.7428 2228.8848 C 1326.5643 2249.3132 1331.3022 2267.8906 1344.1537 2284.0356 C 1371.3871 2318.249 1420.9528 2320.6736 1451.3828 2289.3064 C 1454.8401 2285.743 1457.9607 2281.8528 1461.8956 2277.3628 C 1466.6344 2281.0908 1471.2878 2284.732 1475.9199 2288.4 C 1486.1039 2296.4648 1496.2166 2304.6223 1506.4912 2312.5698 C 1509.6813 2315.0374 1511.0895 2317.264 1507.0865 2320.9565 Z"/>
    <path fill="#04353f" stroke="none" d="M 1942.0228 2329.9976 C 1942.0228 2341.8967 1942.0228 2352.7964 1942.0228 2364.1494 C 1921.8519 2364.1494 1902.649 2364.1494 1882.7068 2364.1494 C 1882.7068 2278.582 1882.7068 2192.9604 1882.7068 2106.8198 C 1902.1349 2106.8198 1921.3092 2106.8198 1941.8954 2106.8198 C 1942.1569 2131.2622 1941.9865 2155.7305 1942.0161 2180.1936 C 1942.0466 2205.161 1942.0228 2230.128 1942.0228 2255.0952 C 1942.0228 2279.7295 1942.0228 2304.3638 1942.0228 2329.9976 Z"/>
    <path fill="#51a8dc" stroke="none" d="M 1975.7888 714.6468 C 1977.5747 719.546 1982.4617 718.581 1985.9657 719.49976 C 2013.3722 726.68536 2040.3429 735.13855 2066.598 745.8243 C 2112.27 764.413 2150.3628 793.5286 2182.7786 830.2576 C 2212.7998 864.27405 2235.8926 902.6846 2253.33 944.52673 C 2254.6104 947.5987 2255.8242 950.70306 2256.9187 953.84467 C 2257.216 954.6981 2256.9639 955.7429 2256.9639 957.755 C 2253.6636 957.755 2250.44 957.755 2247.2166 957.755 C 1971.5942 957.7543 1695.9719 957.7543 1420.3496 957.7423 C 1417.3535 957.7422 1414.3573 957.5858 1410.4482 956.5269 C 1411.5326 950.6221 1413.3525 945.612 1415.5538 940.77545 C 1448.5625 868.24805 1502.5978 815.8469 1571.7723 778.0737 C 1610.9497 756.68054 1653.2206 743.8975 1696.4149 733.5997 C 1742.7948 722.5424 1789.785 715.4674 1837.2985 712.5162 C 1870.488 710.4545 1903.7938 709.91547 1937.0553 712.00055 C 1949.971 712.81024 1962.8778 713.7606 1975.7888 714.6468 Z"/>
    <path fill="#fdfefe" stroke="none" d="M 1976.6243 714.7599 C 1962.8778 713.7606 1949.971 712.81024 1937.0553 712.00055 C 1903.7938 709.91547 1870.488 710.4545 1837.2985 712.5162 C 1789.785 715.4674 1742.7948 722.5424 1696.4149 733.5997 C 1653.2206 743.8975 1610.9497 756.68054 1571.7723 778.0737 C 1502.5978 815.8469 1448.5625 868.24805 1415.5538 940.77545 C 1413.3525 945.612 1411.5326 950.6221 1409.5137 956.2622 C 1406.1837 957.1913 1402.8752 957.5988 1399.5668 957.5999 C 1317.6381 957.6272 1235.7092 957.61145 1152.8138 957.5595 C 1152.8457 953.3667 1153.2754 948.97473 1154.9277 945.105 C 1180.3696 885.5232 1218.3717 835.1922 1267.421 793.0565 C 1317.366 750.1514 1374.0525 719.22534 1436.5448 699.0289 C 1482.181 684.2801 1528.7997 673.4409 1576.1656 665.64087 C 1625.8317 657.46204 1675.7524 653.12463 1726.0562 651.31354 C 1764.0999 649.944 1801.9863 651.43994 1839.7554 654.5327 C 1921.935 661.26215 2002.5621 676.5519 2080.684 703.45447 C 2124.059 718.39136 2164.5273 739.25867 2201.9453 765.90155 C 2203.5654 767.05524 2205.039 768.4145 2207.2544 770.6311 C 2207.9495 772.43616 2207.9712 773.28784 2207.9932 774.13965 C 2192.463 767.4956 2177.2156 760.06335 2161.3472 754.36005 C 2119.3052 739.25 2075.9224 729.13947 2031.849 722.09296 C 2013.7959 719.20654 1995.594 717.25165 1976.6243 714.7599 Z"/>
    <path fill="#b4d5de" stroke="none" d="M 2208.3604 774.69244 C 2207.9712 773.28784 2207.9495 772.43616 2207.8513 770.9502 C 2212.3718 773.6972 2216.969 777.0782 2221.7656 781.0764 C 2217.5525 779.54407 2213.1401 777.39465 2208.3604 774.69244 Z"/>
    <path fill="#fcfdfd" stroke="none" d="M 1699.7914 2310.1035 C 1664.7772 2317.1128 1622.0184 2295.6775 1614.4797 2247.3313 C 1607.862 2204.8923 1636.3832 2166.0579 1677.7239 2160.4253 C 1713.3134 2155.5764 1748.4181 2179.7 1757.4615 2215.4382 C 1768.743 2260.0215 1741.677 2302.286 1699.7914 2310.1035 Z"/>
</svg>
