<svg width="256" height="256" xmlns="http://www.w3.org/2000/svg">
    <path fill="#fcfcff" stroke="none" d="M 0 0 C 84.48 0 168.96 0 256 0 C 256 84.48 256 168.96 256 256 C 171.52 256 87.04 256 0 256 C 0 171.52 0 87.04 0 0 Z"/>
    <path fill="#1d69ff" stroke="none" d="M 0 0 C 84.48 0 168.96 0 256 0 C 256 84.48 256 168.96 256 256 C 171.52 256 87.04 256 0 256 C 0 171.52 0 87.04 0 0 Z M 54 55 C 53.28071 55.644535 52.5614 56.289066 51.820313 56.953125 C 40.952755 66.99143 33.44759 80.88908 28.875 94.8125 C 28.62363 95.542755 28.372265 96.27301 28.11328 97.02539 C 19.41333 123.19357 23.101194 151.556 35 176 C 39.761906 184.99518 45.89929 192.71758 53 200 C 53.824997 200.86626 54.649998 201.7325 55.5 202.625 C 56.325 203.40875 57.15 204.1925 58 205 C 58.877853 205.87012 58.877853 205.87012 59.77344 206.75781 C 79.000435 224.98415 105.033745 232.68817 131.06909 232.47485 C 145.06061 232.06926 158.4243 229.25467 171 223 C 171.59265 222.71109 172.18529 222.42218 172.7959 222.1245 C 181.34013 217.92645 188.79097 213.2831 196 207 C 196.60973 206.52176 197.21945 206.04352 197.84766 205.55078 C 215.86026 191.23096 228.67479 166.2794 231.59766 143.60547 C 234.3669 115.795944 229.46515 87.64392 211.64941 65.30664 C 208.58997 61.7126 205.31886 58.353592 202 55 C 201.33356 54.27297 200.66711 53.545937 199.98047 52.796875 C 190.46529 42.62064 178.66718 36.331352 166 31 C 165.05383 30.599102 164.10765 30.198202 163.13281 29.785156 C 124.30076 14.51736 83.017365 27.057348 54 55 Z"/>
    <g transform="matrix(1 0 0 1 95.48217 65.85474)">
        <path fill="#447bff" stroke="none" d="M 0 0 C 0.79479766 -0.00335861 1.5895953 -0.00671722 2.4084778 -0.01017761 C 5.00614 -0.01958824 7.603738 -0.02162548 10.201416 -0.02270508 C 12.025477 -0.02592375 13.849539 -0.02928827 15.673598 -0.03279114 C 19.485369 -0.03875711 23.297113 -0.04063357 27.108887 -0.04003906 C 31.971735 -0.03993741 36.834435 -0.05360472 41.69725 -0.07081127 C 45.460968 -0.08197527 49.22465 -0.08395695 52.98839 -0.08342934 C 54.78038 -0.08460224 56.57237 -0.08898487 58.36435 -0.0967617 C 80.87625 -0.18534315 80.87625 -0.18534315 87.64282 4.1452637 C 91.92061 10.98972 89.26844 21.732874 88.64283 29.496826 C 88.55404 30.636871 88.465256 31.776917 88.37378 32.951508 C 88.09208 36.558056 87.80504 40.164154 87.51782 43.770267 C 87.32476 46.229866 87.13205 48.689507 86.9397 51.14917 C 86.469795 57.148197 85.99552 63.14686 85.51782 69.14526 C 74.38501 72.8562 74.38501 72.8562 72.4014 73.51395 C 70.69933 74.08443 69.00433 74.67587 67.3103 75.269775 C 43.215355 82.82394 6.837775 80.66597 -16.482178 71.14526 C -19.482178 69.14526 -19.482178 69.14526 -20.17749 66.371826 C -20.319286 65.18331 -20.461084 63.994797 -20.607178 62.770264 C -20.68573 62.121944 -20.764282 61.47363 -20.845215 60.805664 C -21.584396 54.23303 -21.892426 47.63173 -22.14087 41.02466 C -22.27 37.70765 -22.417185 34.522022 -22.982178 31.246824 C -23.741886 26.534267 -23.82844 21.849186 -23.919678 17.082764 C -23.96544 16.102432 -24.011202 15.122101 -24.05835 14.112061 C -24.134329 9.246138 -24.10624 6.9354777 -21.017334 3.02417 C -15.173052 -0.8369079 -6.761007 -0.00420853 0 0 Z"/>
    </g>
    <g transform="matrix(1 0 0 1 134 0)">
        <path fill="#fcfdfe" stroke="none" d="M 0 0 C 40.26 0 80.52 0 122 0 C 122 84.48 122 168.96 122 256 C 81.74 256 41.48 256 0 256 C 0 255.67 0 255.34 0 255 C 0.61931396 254.92484 1.2386279 254.84969 1.876709 254.77222 C 4.7315736 254.42017 7.584449 254.05392 10.4375 253.6875 C 11.89833 253.51057 11.89833 253.51057 13.388672 253.33008 C 19.582832 252.52214 25.154274 251.17738 31 249 C 32.27148 248.56837 33.5436 248.13863 34.816406 247.71095 C 66.33933 236.4692 90.90961 214.70442 105.42577 184.50659 C 106.28861 182.67328 107.1446 180.83678 108 179 C 108.612946 177.8089 108.612946 177.8089 109.23828 176.59375 C 112.38368 170.27866 113.66907 163.447 115.16797 156.59766 C 116 153 116 153 117 151 C 121.97312 116.081604 115.44075 81.11503 94.4375 52.4375 C 92.98258 50.605476 91.50423 48.791763 90 47 C 89.28199 46.142773 88.56399 45.285545 87.82422 44.402344 C 74.699326 29.319204 59.754776 19.275814 41.82959 10.86377 C 40.20511 10.096834 38.595467 9.298644 36.98828 8.496094 C 25.470133 3.1145318 12.498976 2.345852 0 1 C 0 0.67 0 0.34 0 0 Z"/>
    </g>
    <g transform="matrix(1 0 0 1 66.44531 141.64063)">
        <path fill="#447cff" stroke="none" d="M 0 0 C 2.8264697 1.1451293 4.498264 2.0876417 6.5546875 4.359375 C 7.3986874 7.9291496 7.6878376 11.391042 8.003906 15.042969 C 8.570763 18.45617 8.945989 19.623251 11.492187 21.859375 C 13.396801 23.178226 13.396801 23.178226 15.554688 24.359375 C 16.37453 24.867266 17.194374 25.375154 18.039063 25.898438 C 28.45912 32.01194 39.355873 35.47343 51.42578 35.597656 C 52.18456 35.60573 52.94334 35.6138 53.725113 35.622116 C 55.331287 35.63591 56.93749 35.646652 58.5437 35.65454 C 60.16 35.665985 61.776268 35.68631 63.392334 35.716064 C 77.489746 35.97501 89.459274 34.061398 102.117195 27.359375 C 102.77525 27.029375 103.43332 26.699373 104.11133 26.359375 C 110.86864 22.993677 110.86864 22.993677 115.55468 17.359375 C 115.55468 16.414492 115.55468 15.469609 115.55468 14.496094 C 115.55468 5.484375 115.55468 5.484375 118.30469 2.390625 C 122.72561 -0.24965297 127.37998 -1.5227638 132.53516 -1.1796875 C 135.36345 -0.42474467 137.11375 1.050474 138.74219 3.4648438 C 141.04448 8.833156 139.89468 14.032377 137.99219 19.359375 C 131.47455 34.109814 119.005264 42.474724 104.55469 48.35937 C 90.68026 53.310627 76.25511 54.69932 61.617188 54.60938 C 60.362286 54.617115 59.107384 54.624844 57.81445 54.632813 C 45.818127 54.608067 34.231224 53.366634 22.804688 49.609375 C 21.993948 49.34552 21.183208 49.081665 20.3479 48.809814 C 6.248982 44.043125 -4.9318604 35.30334 -12.445312 22.359375 C -13.064063 21.43125 -13.682812 20.503124 -14.3203125 19.546875 C -16.099762 14.505099 -16.212748 9.635491 -15.445312 4.359375 C -11.554782 -1.9627393 -6.5050745 -1.7042048 0 0 Z"/>
    </g>
    <g transform="matrix(1 0 0 1 0 135)">
        <path fill="#fcfdff" stroke="none" d="M 0 0 C 0.33 0 0.66 0 1 0 C 1.0747656 0.98355466 1.1495312 1.9671093 1.2265625 2.9804688 C 3.689271 30.55943 14.155072 55.867847 32 77 C 32.665157 77.81211 33.33031 78.62422 34.015625 79.46094 C 44.289253 91.52294 57.01112 99.83471 71 107 C 72.68803 107.86624 72.68803 107.86624 74.41016 108.75 C 88.09674 115.40205 102.08193 117.90066 117 120 C 117 120.33 117 120.659996 117 121 C 78.39 121 39.78 121 0 121 C 0 81.07 0 41.14 0 0 Z"/>
    </g>
    <path fill="#fdfdff" stroke="none" d="M 0 0 C 38.61 0 77.22 0 117 0 C 117 0.33 117 0.66 117 1 C 115.238495 1.2378321 115.238495 1.2378321 113.44141 1.4804688 C 86.7271 5.2688403 64.824455 14.553427 44 32 C 43.31164 32.55301 42.62328 33.106014 41.914063 33.67578 C 16.575186 54.657978 5.253725 86.494774 1 118 C 0.67 118 0.34 118 0 118 C 0 79.06 0 40.12 0 0 Z"/>
    <g transform="matrix(1 0 0 1 112 1)">
        <path fill="#286fff" stroke="none" d="M 0 0 C 0 0.66 0 1.32 0 2 C -1.03125 2.12375 -2.0625 2.2475 -3.125 2.375 C -6.947696 2.877283 -6.947696 2.877283 -10.25 4.125 C -13 5 -13 5 -16 4 C -15.34 4 -14.68 4 -14 4 C -14 3.34 -14 2.68 -14 2 C -12.4177 1.6617984 -10.834106 1.3296406 -9.25 1 C -8.368281 0.814375 -7.4865627 0.62875 -6.578125 0.4375 C -4 0 -4 0 0 0 Z"/>
    </g>
    <g transform="matrix(1 0 0 1 48 195)">
        <path fill="#3372ff" stroke="none" d="M 0 0 C 2.0411978 1.6159483 4.0407295 3.285638 6 5 C 6 5.66 6 6.32 6 7 C 7.32 7.66 8.64 8.32 10 9 C 10 9.99 10 10.98 10 12 C 2.1582031 5.5546875 2.1582031 5.5546875 0 2 C 0 1.34 0 0.68 0 0 Z"/>
    </g>
    <g transform="matrix(1 0 0 1 244 81)">
        <path fill="#3072ff" stroke="none" d="M 0 0 C 2.1292028 2.1292028 2.5108428 3.1023042 3.25 5.9375 C 3.4407814 6.6271486 3.6315625 7.316797 3.8281252 8.027344 C 4 10 4 10 2 13 C 1.4660583 11.588222 0.94834894 10.170298 0.4375 8.75 C 0.14746094 7.961094 -0.14257813 7.1721873 -0.44140625 6.3593745 C -1.0452284 3.8089654 -0.8473932 2.4467778 0 0 Z"/>
    </g>
</svg>
