<svg width="592.96" height="715.71" xmlns="http://www.w3.org/2000/svg">
    <path fill="#ff4e17" stroke="none" d="M 428.43002 318.8 C 436.53 302.4 442.18 281.83 442.18 256.23 C 442.18 221.11 428.14 189.32 402.63998 166.71 C 377.48004 144.4 343.44 132.61 304.2 132.61 L 168.98 131.98 C 142.88 131.98 121.72 153.14 121.72 179.23999 L 121.72 580.01 L 358.27 580.01 C 446.59998 580.01 498.23 506.33 498.23 439.87003 C 498.23 389.38 470.19998 343.18 428.44 318.8 Z M 304.19 167.17 C 367.67 167.17 407.62 205.22 407.62 256.23 C 407.62 324.69 356.03 356 303.83 356 C 254.79 356 214.4 315.61 214.4 253.01 L 214.4 218.45 C 214.4 195.75998 200.82999 175.39 179.83 168.68 L 179.83 167.17 L 304.18 167.17 Z"/>
</svg>
