<svg width="24" height="25" xmlns="http://www.w3.org/2000/svg">
    <defs>
        <clipPath id="a">
            <path fill="#000000" stroke="none" transform="matrix(1 0 0 1 0 0.5)" d="M 0 0 L 24 0 L 24 24 L 0 24 Z"/>
        </clipPath>
    </defs>
    <g clip-path="url(#a)">
        <path fill="#f1efed" stroke="none" d="M 24 12.5 C 24 19.127417 18.627417 24.499998 12 24.499998 C 5.372583 24.499998 0 19.127417 0 12.5 C -0 5.872583 5.372583 0.5 12 0.5 C 18.627417 0.5 24 5.872583 24 12.5 Z"/>
        <path fill="#483e5e" stroke="none" d="M 16.955 6.474 C 16.955 6.583 16.75 6.738 16.564 6.856 C 16.378 6.974 16.192 7.089 15.985 6.966 C 15.81711 6.8596015 15.636753 6.7742925 15.448 6.712 C 15.305846 6.6725135 15.160694 6.644754 15.013999 6.629 C 14.868 6.6110005 14.84 6.452 14.804 6.239 L 14.788 6.155 L 14.772 6.069 C 14.712999 5.779 14.608 5.259 14.967 5.303 C 15.365 5.351 15.971001 5.6710005 16.411 5.9530005 C 16.851 6.236 16.955 6.366 16.955 6.474 Z"/>
        <path fill="#483e5e" stroke="none" d="M 12.254 7.544 C 12.471001 6.97 12.583 6.76 12.871 6.4 C 13.157999 6.04 13.381 5.938 13.657 5.846 C 13.921 5.758 14.082 5.784 14.127 5.952 C 14.172 6.12 14.227 6.48 14.227 6.586 L 14.227 6.6 C 14.227 6.7 14.227 6.787 14.006 7.01 C 13.736243 7.2797575 13.589408 7.648653 13.6 8.03 C 13.6 8.492 13.709 8.677 13.979 9.003 C 14.249 9.328 14.797 9.457 15.202 9.415 C 15.608 9.373 15.911 9.212 16.137 8.895 C 16.363 8.576 16.445 8.209 16.465 7.92 C 16.483 7.68 16.585 7.6050005 16.805 7.442 C 16.856781 7.40427 16.908117 7.365934 16.959 7.327 C 17.287 7.0729995 17.493 6.925 17.656 6.938 C 17.82 6.952 17.901 6.974 18.334 7.1389995 C 18.761 7.302 19.007 7.471 19.132 7.557 L 19.136 7.56 C 19.259 7.6449995 19.196 7.7109995 19.012 7.838 C 18.942 7.886 18.863 7.938 18.78 7.992 C 18.64 8.083 18.49 8.182 18.355 8.28 C 18.271 8.342 18.185 8.4 18.101 8.457 C 17.916 8.583 17.747 8.697 17.656 8.812 C 17.426 9.1 17.348 9.415 17.471 9.829 C 17.548 10.086 17.651 10.245 17.808 10.486 C 17.904 10.633 18.018 10.809 18.16 11.056 C 18.804 12.185999 18.582 13.979 18.027 15.249999 C 17.471 16.52 16.423 17.473 15.354999 18.024 C 14.287001 18.574 13.384 18.808 12.48 18.85 C 11.576 18.892 10.898 18.786 10.59 18.68 C 10.282 18.575 9.988 18.053 10.881999 17.841 C 11.776 17.629 12.393 17.468 13.297 16.791 C 14.200999 16.113 14.717 15.424 15.087 14.682999 C 15.457 13.942 15.493 13.167001 15.329001 12.765001 C 15.165 12.362 14.648999 11.97 13.929 11.695001 C 13.211 11.418999 12.679 11.175 12.185999 10.859 C 11.719 10.562 11.515 10.125 11.617 9.617 C 11.72 9.109 11.973 8.287 12.254 7.544 Z"/>
        <path fill="#483e5e" stroke="none" d="M 14.495 8.575 C 14.758 8.845 15.373 8.848 15.636 8.548 C 15.9 8.248 15.9 7.721 15.636 7.4809995 C 15.373 7.241 14.846 7.12 14.495 7.451 C 14.142999 7.781 14.231 8.305 14.495 8.575 Z M 8.798 15.239 C 8.694 15.266 8.615 15.414 8.462 15.697 L 8.31 15.973999 C 8.049 16.441 7.804 16.782 7.336 17.302 C 6.868 17.822 6.574 18.037 5.83 18.504 L 5.81 18.516 C 5.082 18.973 4.868 19.107 4.817 19.246 C 4.767 19.385 4.797 19.568 5.343 19.654 C 5.89 19.74 6.346 19.76 7.137 19.204 C 7.35 19.054 7.551 18.904 7.747 18.759 C 8.277 18.367 8.769 18.003 9.367 17.715 C 9.919 17.448 10.216 17.373 10.632 17.267 C 10.832 17.217 11.061 17.158 11.359 17.069 C 12.276 16.793 13.112 16.251 13.689 15.593001 C 14.128133 15.099478 14.462245 14.521756 14.670999 13.895 C 14.788 13.518 14.804999 13.015 14.492 12.765001 C 14.194 12.525 14.033 12.452 13.375 12.200999 L 13.204 12.136 C 12.633001 11.92 12.398 11.831 11.927 11.448 C 11.808134 11.351487 11.693049 11.250412 11.582 11.145001 C 11.424 10.997 11.369001 10.945 11.165 10.918 C 10.86 10.876 10.628 11.342001 10.525 11.576 C 10.447 11.751 10.435 12.062 10.639 12.353 L 10.693 12.43 C 10.881 12.700999 11.084 12.995 11.598 13.292999 C 12.16 13.619 12.421999 13.672 12.804999 13.737001 C 13.189 13.802001 13.339001 13.895 13.234999 14.081001 C 13.132 14.266 12.926 14.357001 12.576 14.357001 C 12.226 14.357001 11.731 14.192 11.236 13.895 C 10.936326 13.71872 10.672147 13.488112 10.457 13.215 C 10.281 12.988 10.175 12.955 10.011 12.955 C 9.847 12.955 9.712 13.062 9.516 13.359 C 9.32 13.656 9.176 13.978 9.156 14.152 C 9.135 14.326999 9.116 14.522 9.426 14.755 C 9.735 14.988 10.002 15.115001 10.352 15.179 C 10.702 15.242 10.969 15.354001 10.712 15.593001 C 10.456 15.832 10.145 15.779 9.897 15.715 C 9.65 15.652 9.291 15.454 9.156 15.365 L 9.12 15.341 C 9.004 15.262999 8.919 15.206 8.798 15.239 Z"/>
    </g>
</svg>
