<svg width="256" height="256" xmlns="http://www.w3.org/2000/svg">
    <path fill="#000000" stroke="none" d="M 148 257 C 98.66667 257 49.83334 257 1.000006 257 C 1.000004 171.66667 1.000004 86.33335 1.000002 1.000018 C 86.33332 1.000012 171.66664 1.000012 257 1.000006 C 257 86.33332 257 171.66663 257 256.99997 C 220.83333 257 184.66667 257 148 257 M 87.9224 83.63178 C 87.09718 85.15454 86.27195 86.6773 84.89394 88.66814 C 77.56116 100.93431 70.51695 113.38795 62.737106 125.3637 C 60.05978 129.485 61.58974 130.57831 64.76077 132.37868 C 71.47062 136.18823 78.03089 140.26024 84.6795 144.17883 C 98.387085 152.25789 112.07361 160.37488 125.89132 168.26158 C 127.24885 169.03639 129.7927 168.95518 131.21735 168.19948 C 144.414 161.1994 157.52124 154.02776 170.58134 146.7743 C 179.42705 141.86147 188.15543 136.73746 197.20511 131.55392 C 196.44617 129.91078 195.74454 128.39177 194.82674 126.26707 C 194.23259 125.46139 193.63844 124.655716 192.79312 123.21966 C 191.54059 121.44025 190.28804 119.66084 188.90399 117.389854 C 188.61836 117.22316 188.33273 117.05646 188.00198 116.196175 C 187.01563 114.747505 186.02924 113.29883 185.03279 111.157394 C 184.03745 109.71788 183.04211 108.2784 182.04321 106.18942 C 181.3768 105.427376 180.71036 104.66532 179.99117 103.2142 C 179.34113 102.09282 178.69107 100.971436 177.88097 99.38158 C 177.67172 99.10398 177.39635 98.93275 177.02821 98.24596 C 176.7119 97.77001 176.39558 97.29408 176.06613 96.167534 C 175.3938 95.39514 174.72145 94.62274 174.03362 93.22898 C 173.70468 92.770096 173.37575 92.3112 172.74593 91.226654 C 170.84845 88.10292 168.95099 84.97919 166.99982 81.153725 C 165.35092 78.728355 163.70203 76.30298 161.98947 73.16558 C 160.02303 70.04844 158.05656 66.931305 156.06148 63.10187 C 154.05429 60.018326 152.04709 56.93478 149.73665 53.231937 C 147.84158 50.103504 145.94652 46.97508 143.73798 43.230366 C 138.81108 34.79017 133.8842 26.349972 128.66559 17.410013 C 124.73081 23.840656 121.35356 29.360113 117.31921 35.14245 C 115.87113 37.60365 114.42305 40.06485 113.021095 42.50084 C 113.021095 42.50084 112.99611 42.45459 112.48797 43.002426 C 107.39235 51.483624 102.29672 59.964817 96.7129 68.85835 C 95.95829 70.30517 95.20369 71.75198 93.901794 73.65921 C 92.99744 75.26041 92.09308 76.861595 90.69888 78.870255 C 89.94889 80.31303 89.198875 81.7558 87.9224 83.63178 M 163 161.99939 C 163 161.99939 162.94057 161.92084 162.24113 161.99136 C 160.80788 162.96745 159.37462 163.94353 158.02025 164.88263 C 158.02025 164.88263 157.95915 164.82053 157.23055 164.98459 C 148.89032 169.75058 140.6109 174.6294 132.15819 179.18677 C 130.48161 180.0907 127.61533 180.67894 126.18539 179.86095 C 109.350174 170.23048 92.78897 160.1179 75.88694 150.60991 C 72.4257 148.66284 69.0671 144.64217 63.525387 146.58662 C 65.62577 149.33263 67.381836 151.6285 69.08726 154.64343 C 72.690956 160.01352 76.17065 165.47223 79.92915 170.73169 C 84.83272 177.5935 89.9572 184.29742 95.018776 191.77411 C 98.325005 196.53923 101.63123 201.30434 105.226456 206.68703 C 108.11715 210.82207 111.007835 214.95706 114.22882 219.68723 C 116.81527 223.12839 119.401726 226.56955 122.05742 230.70892 C 124.09019 233.66992 126.122955 236.63089 128.63698 240.29291 C 130.9707 236.9038 132.98586 233.97733 135.55655 230.6668 C 138.38615 226.45583 141.21574 222.24484 144.63936 217.70763 C 147.10007 214.15715 149.56079 210.60669 152.567 206.65796 C 157.41736 199.80008 162.26773 192.94217 167.66364 185.68419 C 170.01839 182.37544 172.42236 179.10043 174.71742 175.75078 C 179.2012 169.20671 183.62418 162.62096 188.02063 155.99089 C 188.02063 155.99089 188.05571 156.0614 188.6762 155.82729 C 189.71669 154.2123 190.75716 152.59732 192.11627 150.36896 C 193.92955 148.08122 195.7428 145.79349 197.55606 143.50574 C 197.30319 143.0833 197.05035 142.66086 196.79749 142.2384 C 187.52898 147.86992 178.26045 153.50142 168.35056 159.25127 C 167.22098 159.88388 166.09142 160.51648 164.34125 161.0071 C 163.87573 161.31065 163.41022 161.61421 163 161.99939 Z"/>
    <path fill="#fdfdfe" stroke="none" d="M 195.04294 126.87276 C 195.74454 128.39177 196.44617 129.91078 197.20511 131.55392 C 188.15543 136.73746 179.42705 141.86147 170.58134 146.7743 C 157.52124 154.02776 144.414 161.1994 131.21735 168.19948 C 129.7927 168.95518 127.24885 169.03639 125.89132 168.26158 C 112.07361 160.37488 98.387085 152.25789 84.6795 144.17883 C 78.03089 140.26024 71.47062 136.18823 64.76077 132.37868 C 61.58974 130.57831 60.05978 129.485 62.737106 125.3637 C 70.51695 113.38795 77.56116 100.93431 85.40527 88.73129 C 86.08611 88.9817 86.25561 89.16894 86.28774 89.68559 C 85.80324 91.336235 85.45612 92.657455 84.963844 94.18088 C 84.81868 94.38309 84.63106 94.8442 84.287926 94.83792 C 82.86058 96.52928 81.77636 98.226906 80.497894 100.04345 C 80.10406 100.409966 80.00502 100.692795 79.74663 101.208206 C 78.89829 102.57843 78.30984 103.75129 77.476944 105.09891 C 76.79935 106.15634 76.366196 107.039024 75.670105 108.11971 C 74.59312 109.86797 73.779076 111.418175 72.699295 113.16069 C 71.62738 114.90198 70.82119 116.450966 69.76683 118.15799 C 69.3186 118.85761 69.118546 119.399216 68.62221 120.11901 C 67.22998 122.2321 66.13403 124.16702 65.03808 126.10194 C 65.276245 126.57267 65.51441 127.043396 65.75257 127.51413 C 77.40349 124.200035 89.845 130.30202 101.46626 123.42528 C 102.52057 125.40242 103.63448 127.49135 104.64135 129.37955 C 105.974846 128.32156 106.84642 127.476616 107.85668 126.85821 C 110.54857 125.210396 113.300156 123.66011 116.34151 122.00011 C 117.77158 120.98369 118.88817 120.03821 120.33765 119.01167 C 123.16039 116.98695 125.65026 115.04329 128.50977 113.050514 C 130.53586 113.37075 132.19232 113.7401 134.04285 114.392044 C 137.14851 116.14642 140.06012 117.618195 143.13374 119.37833 C 144.86176 120.44985 146.42773 121.23303 148.1963 122.29015 C 151.92784 124.3583 155.4568 126.15249 159.2209 128.25847 C 161.34187 129.04599 163.21811 129.88124 165.11531 129.93199 C 171.53607 130.10373 177.99147 130.35132 184.379 129.85977 C 187.98889 129.58197 191.49184 127.91435 195.04294 126.87276 M 129.02603 140.90218 C 129.11136 144.25696 129.19669 147.61176 129.19846 151.61966 C 129.37105 152.47652 129.54364 153.33339 129.47188 154.76892 C 129.35614 155.82089 129.24039 156.87288 129.04991 158.73602 C 129.19853 160.09499 129.34715 161.45396 129.51888 163.02423 C 143.68324 156.30644 156.3261 148.38066 168.33214 139.42908 C 168.41455 139.36763 167.40614 137.84315 166.82225 136.31548 C 163.65482 134.81363 160.4874 133.3118 156.87553 131.2895 C 154.26416 129.51651 151.65277 127.743515 148.60117 125.44051 C 145.60657 123.91215 142.61197 122.38378 139.38802 120.73836 C 139.38802 125.67956 139.38802 129.92665 139.19337 134.84157 C 138.79149 136.91675 138.38959 138.99191 137.35675 140.66966 C 134.61322 140.44296 131.86969 140.21626 129.02603 140.90218 M 110.174324 133.86952 C 109.77587 134.59404 109.10329 135.29391 109.03551 136.04814 C 108.89033 137.66393 109.05761 139.30782 109.09693 140.94019 C 110.87251 140.63719 112.76384 140.61003 114.38168 139.9311 C 115.40555 139.50143 116.021614 138.1 116.76616 137.20018 C 114.540054 135.81705 112.632256 134.63168 110.174324 133.86952 Z"/>
    <path fill="#f9fcfd" stroke="none" d="M 69.1379 153.92435 C 67.381836 151.6285 65.62577 149.33263 63.525387 146.58662 C 69.0671 144.64217 72.4257 148.66284 75.88694 150.60991 C 92.78897 160.1179 109.350174 170.23048 126.18539 179.86095 C 127.61533 180.67894 130.48161 180.0907 132.15819 179.18677 C 140.6109 174.6294 148.89032 169.75058 157.874 165.14111 C 158.27794 165.71613 158.03845 166.13463 157.46794 166.68112 C 154.03291 168.76517 150.92888 170.72124 147.48389 172.77324 C 142.34113 175.87791 137.53937 178.88667 132.3783 181.95975 C 127.47045 183.91818 129.4999 187.78345 129.24329 191.44093 C 129.2089 195.25578 129.26341 198.62007 129.15808 202.26868 C 128.0481 202.34915 127.09793 202.14528 126.07286 201.60092 C 122.890755 197.55183 119.78354 193.84325 115.90318 189.21184 C 115.90318 194.79016 115.90318 198.90173 115.808334 203.3791 C 115.62352 205.20036 115.53357 206.65582 115.3938 208.91728 C 113.004776 206.39998 111.27509 204.57744 109.50168 202.71646 C 109.457954 202.67804 109.37331 202.5981 109.40718 202.29097 C 108.97951 201.63649 108.51796 201.28917 108.03147 200.97276 C 108.00653 201.00368 108.06534 200.9478 108.082756 200.61406 C 107.07179 199.1745 106.04341 198.06868 105.00641 196.98207 C 104.99777 197.00125 105.037796 196.9882 105.00601 196.6676 C 104.02703 195.61624 103.07986 194.88547 102.04138 193.82864 C 100.6212 192.01227 99.29229 190.52191 97.92381 188.68454 C 89.81189 178.00665 81.783905 167.64047 73.61637 157.38547 C 72.47473 155.95206 70.64768 155.06454 69.1379 153.92435 Z"/>
    <path fill="#96c5e4" stroke="none" d="M 72.965034 112.96838 C 73.779076 111.418175 74.59312 109.86797 75.92447 108.410095 C 79.69649 108.33567 82.95445 107.97908 86.20537 108.03459 C 101.28384 108.29208 116.358925 108.79725 131.43794 108.95788 C 147.05414 109.12422 162.67392 109.04562 178.29056 108.90346 C 179.54881 108.89198 180.795 107.5582 182.04678 106.8389 C 183.04211 108.2784 184.03745 109.71788 184.95764 111.891495 C 183.91954 113.07805 182.96721 113.89269 181.99171 113.92149 C 177.25684 114.06125 172.5157 113.98183 167.77684 113.99574 C 156.46747 114.028946 145.15814 114.07097 133.84879 114.10944 C 132.19232 113.7401 130.53586 113.37075 128.0282 113.01632 C 114.2768 113.020996 101.376625 113.0126 88.47643 112.99961 C 83.30596 112.99439 78.135506 112.97911 72.965034 112.96838 Z"/>
    <path fill="#7fb9de" stroke="none" d="M 182.04501 106.51415 C 180.795 107.5582 179.54881 108.89198 178.29056 108.90346 C 162.67392 109.04562 147.05414 109.12422 131.43794 108.95788 C 116.358925 108.79725 101.28384 108.29208 86.20537 108.03459 C 82.95445 107.97908 79.69649 108.33567 76.18741 108.21207 C 76.366196 107.039024 76.79935 106.15634 77.92417 105.11628 C 79.901955 104.67041 81.186935 104.13688 82.47436 104.1309 C 97.08308 104.06305 111.69382 103.955025 126.29999 104.1536 C 129.87033 104.20214 133.41634 105.79445 136.99031 105.86856 C 148.35713 106.10429 159.73471 106.09836 171.10161 105.86626 C 174.0945 105.805145 177.06377 104.58901 180.04391 103.903275 C 180.71036 104.66532 181.3768 105.427376 182.04501 106.51415 Z"/>
    <path fill="#308ac7" stroke="none" d="M 167.05351 81.85545 C 168.95099 84.97919 170.84845 88.10292 172.81264 91.926346 C 169.80122 92.7517 166.72346 92.974724 163.64493 92.9858 C 151.76257 93.028564 139.87997 93.003654 127.99873 93.00198 C 128 93 127.99604 93.0025 127.99854 92.552185 C 128.00325 89.39994 128.00545 86.69801 128.46654 83.99736 C 140.21368 83.999054 151.50307 84.07539 162.78874 83.90509 C 164.22032 83.8835 165.6324 82.570274 167.05351 81.85545 Z"/>
    <path fill="#235ca4" stroke="none" d="M 117.97631 34.87957 C 121.35356 29.360113 124.73081 23.840656 128.66559 17.410013 C 133.8842 26.349972 138.81108 34.79017 143.90079 43.901382 C 143.477 45.380222 142.86958 46.900322 142.3071 46.88387 C 137.54185 46.7445 132.78482 46.324986 128.01593 45.659035 C 127.998085 44.887634 127.989624 44.446754 127.99057 43.537483 C 127.99996 37.643867 127.99996 32.218643 127.99996 26.793415 C 127.47778 26.694393 126.955605 26.59537 126.43341 26.496347 C 123.60616 31.968681 120.77889 37.441017 117.64355 42.970917 C 116.57197 43.70488 115.808464 44.381275 114.753006 45.03578 C 114.07143 45.00481 113.6818 44.995728 113.45842 44.51537 C 113.41516 43.514256 113.205635 42.98442 112.99611 42.45459 C 112.99611 42.45459 113.021095 42.50084 113.3804 42.71557 C 115.15192 40.24672 116.56411 37.563145 117.97631 34.87957 Z"/>
    <path fill="#6eafd9" stroke="none" d="M 180.01755 103.55875 C 177.06377 104.58901 174.0945 105.805145 171.10161 105.86626 C 159.73471 106.09836 148.35713 106.10429 136.99031 105.86856 C 133.41634 105.79445 129.87033 104.20214 126.29999 104.1536 C 111.69382 103.955025 97.08308 104.06305 82.47436 104.1309 C 81.186935 104.13688 79.901955 104.67041 78.16862 104.94153 C 78.30984 103.75129 78.89829 102.57843 79.99878 101.46838 C 83.60755 101.35414 86.70363 101.03885 89.80113 101.02418 C 102.535995 100.96386 115.27129 100.99496 128.46674 100.99533 C 133.61447 101.32775 138.30193 101.65728 143.45363 101.99233 C 147.94855 101.99447 151.9792 101.99106 156.45885 101.98853 C 159.60188 101.98892 162.29591 101.98841 165.36742 101.99301 C 166.49982 101.99483 167.25478 101.99152 168.44595 101.98912 C 170.9179 101.9891 172.9536 101.988174 175.355 101.98572 C 176.49413 101.272804 177.26756 100.56143 178.04103 99.85005 C 178.69107 100.971436 179.34113 102.09282 180.01755 103.55875 Z"/>
    <path fill="#2c81c1" stroke="none" d="M 167.02667 81.504585 C 165.6324 82.570274 164.22032 83.8835 162.78874 83.90509 C 151.50307 84.07539 140.21368 83.999054 128.46417 83.59827 C 127.99844 82.13326 127.99396 81.06862 127.99366 79.58648 C 128.0032 77.77718 128.00856 76.38538 128.43611 75.005875 C 138.8968 75.337234 148.93431 75.718925 158.97537 75.87943 C 159.99037 75.89565 161.02672 74.57686 162.05315 73.87761 C 163.70203 76.30298 165.35092 78.728355 167.02667 81.504585 Z"/>
    <path fill="#2979bb" stroke="none" d="M 162.0213 73.52159 C 161.02672 74.57686 159.99037 75.89565 158.97537 75.87943 C 148.93431 75.718925 138.8968 75.337234 128.43204 74.562775 C 127.997345 71.74056 127.98891 69.373764 127.990234 66.75278 C 128.0068 66.329155 128.01363 66.159706 128.4422 66.00366 C 136.43384 66.314445 144.0043 66.786964 151.57309 66.76108 C 153.0821 66.75591 154.5846 64.845856 156.0901 63.814163 C 158.05656 66.931305 160.02303 70.04844 162.0213 73.52159 Z"/>
    <path fill="#54a1d3" stroke="none" d="M 142.98936 101.98681 C 138.30193 101.65728 133.61447 101.32775 128.37334 100.59987 C 126.822266 99.80138 125.81926 99.03989 124.828354 99.05533 C 110.11534 99.28456 95.40393 99.61671 80.69214 99.92452 C 81.77636 98.226906 82.86058 96.52928 84.685486 95.0023 C 88.99839 95.11909 92.573586 94.94524 96.14226 95.03392 C 106.76508 95.29788 117.385345 95.665 128.00331 95.99591 C 128 96 128.0076 95.993484 128.09592 96.39087 C 129.34598 97.19234 130.50565 97.9409 131.66977 97.94791 C 145.27959 98.02977 158.89024 98.0296 172.50009 97.94862 C 173.69536 97.94151 174.88632 97.21207 176.07928 96.81814 C 176.39558 97.29408 176.7119 97.77001 176.87268 98.83499 C 176.14119 100.27843 175.56528 101.13284 174.98932 101.98726 C 172.9536 101.988174 170.9179 101.9891 168.39307 101.65671 C 166.93263 101.5449 165.96129 101.7664 164.98996 101.987885 C 162.29591 101.98841 159.60188 101.98892 156.3735 101.60974 C 151.95831 99.31278 145.08035 99.71785 142.98936 101.98681 Z"/>
    <path fill="#2670b4" stroke="none" d="M 156.07579 63.458015 C 154.5846 64.845856 153.0821 66.75591 151.57309 66.76108 C 144.0043 66.786964 136.43384 66.314445 128.43665 65.55055 C 128.01384 62.05304 128.01833 59.02202 128.4541 55.993835 C 132.12341 56.33011 135.56302 57.503273 138.549 56.786556 C 142.36842 55.86978 147.11346 58.125744 150.0399 53.851234 C 152.04709 56.93478 154.05429 60.018326 156.07579 63.458015 Z"/>
    <path fill="#d7e9f5" stroke="none" d="M 158.98576 127.94668 C 155.4568 126.15249 151.92784 124.3583 148.49046 121.99137 C 150.21909 121.27959 151.85568 121.026215 153.49323 121.02018 C 163.62018 120.982864 173.74733 120.999626 183.87439 121.00221 C 186.22845 121.0028 188.73912 121.27716 189.03549 117.88144 C 190.28804 119.66084 191.54059 121.44025 192.82068 123.93919 C 191.2214 125.10456 189.60063 125.90788 187.9667 125.93558 C 180.03403 126.07001 172.09494 125.883026 164.16515 126.08533 C 162.424 126.129745 160.71147 127.296684 158.98576 127.94668 Z"/>
    <path fill="#aed2ea" stroke="none" d="M 134.04285 114.392044 C 145.15814 114.07097 156.46747 114.028946 167.77684 113.99574 C 172.5157 113.98183 177.25684 114.06125 181.99171 113.92149 C 182.96721 113.89269 183.91954 113.07805 184.96268 112.237885 C 186.02924 113.29883 187.01563 114.747505 187.73969 116.856964 C 174.51912 117.67763 161.56006 117.79638 148.60344 118.04292 C 146.72023 118.07875 144.84868 118.72576 142.97173 119.08996 C 140.06012 117.618195 137.14851 116.14642 134.04285 114.392044 Z"/>
    <path fill="#2166ad" stroke="none" d="M 149.88828 53.541584 C 147.11346 58.125744 142.36842 55.86978 138.549 56.786556 C 135.56302 57.503273 132.12341 56.33011 128.44598 55.663048 C 127.997696 54.888184 127.9888 54.446934 127.98829 53.56098 C 128.00623 50.74069 128.01578 48.365116 128.02531 45.98955 C 132.78482 46.324986 137.54185 46.7445 142.3071 46.88387 C 142.86958 46.900322 143.477 45.380222 144.05753 44.209526 C 145.94652 46.97508 147.84158 50.103504 149.88828 53.541584 Z"/>
    <path fill="#235ca4" stroke="none" d="M 168.99193 159.13293 C 178.26045 153.50142 187.52898 147.86992 196.79749 142.2384 C 197.05035 142.66086 197.30319 143.0833 197.55606 143.50574 C 195.7428 145.79349 193.92955 148.08122 191.61699 150.72629 C 190.09705 152.74287 189.07637 154.40215 188.05571 156.0614 C 188.05571 156.0614 188.02063 155.99089 187.69437 156.0271 C 184.91685 158.38582 182.46558 160.70833 179.78018 162.72906 C 177.34178 161.95227 175.1041 161.59164 172.94531 160.96095 C 171.56711 160.55833 170.3057 159.75604 168.99193 159.13293 Z"/>
    <path fill="#3e5f94" stroke="none" d="M 69.11258 154.28389 C 70.64768 155.06454 72.47473 155.95206 73.61637 157.38547 C 81.783905 167.64047 89.81189 178.00665 97.56627 188.67198 C 96.49443 189.69409 95.74053 190.38168 94.986626 191.0693 C 89.9572 184.29742 84.83272 177.5935 79.92915 170.73169 C 76.17065 165.47223 72.690956 160.01352 69.11258 154.28389 Z"/>
    <path fill="#162951" stroke="none" d="M 152.02151 207.05621 C 149.56079 210.60669 147.10007 214.15715 143.9361 217.81056 C 140.19838 217.61504 137.16393 217.31664 134.09802 216.73784 C 134.11197 216.08403 134.15736 215.71066 134.44873 215.09174 C 134.9013 213.95573 135.10793 213.06522 135.34567 212.1791 C 135.37679 212.18341 135.43938 212.1893 135.66113 211.94005 C 136.64594 209.58618 137.40901 207.48157 138.43378 205.33675 C 139.04597 205.26828 139.3965 205.24005 139.74942 205.1835 C 139.75183 205.15517 139.79384 205.1935 139.8602 205.48677 C 140.50893 206.27457 141.09131 206.76901 141.7092 207.27467 C 141.74472 207.28592 141.81409 207.31303 141.96333 207.61203 C 142.78441 207.62358 143.45624 207.33612 144.38692 206.91957 C 145.34177 206.12814 146.03778 205.46585 147.10045 204.87646 C 148.98524 205.65172 150.50337 206.35399 152.02151 207.05621 Z"/>
    <path fill="#c3deef" stroke="none" d="M 143.13374 119.37833 C 144.84868 118.72576 146.72023 118.07875 148.60344 118.04292 C 161.56006 117.79638 174.51912 117.67763 187.76224 117.203766 C 188.33273 117.05646 188.61836 117.22316 188.96976 117.63566 C 188.73912 121.27716 186.22845 121.0028 183.87439 121.00221 C 173.74733 120.999626 163.62018 120.982864 153.49323 121.02018 C 151.85568 121.026215 150.21909 121.27959 148.28789 121.717415 C 146.42773 121.23303 144.86176 120.44985 143.13374 119.37833 Z"/>
    <path fill="#2b4070" stroke="none" d="M 152.29425 206.85709 C 150.50337 206.35399 148.98524 205.65172 147.19476 204.5675 C 147.94221 202.79108 148.962 201.39658 150.28229 199.8512 C 153.16568 195.93547 155.74858 192.1706 158.62184 188.27504 C 160.25266 187.0852 161.59314 186.0261 163.29971 184.983 C 164.81657 185.36078 165.96733 185.72252 167.11809 186.08424 C 162.26773 192.94217 157.41736 199.80008 152.29425 206.85709 Z"/>
    <path fill="#f1f8fb" stroke="none" d="M 159.2209 128.25847 C 160.71147 127.296684 162.424 126.129745 164.16515 126.08533 C 172.09494 125.883026 180.03403 126.07001 187.9667 125.93558 C 189.60063 125.90788 191.2214 125.10456 192.94626 124.25438 C 193.63844 124.655716 194.23259 125.46139 194.93484 126.569916 C 191.49184 127.91435 187.98889 129.58197 184.379 129.85977 C 177.99147 130.35132 171.53607 130.10373 165.11531 129.93199 C 163.21811 129.88124 161.34187 129.04599 159.2209 128.25847 Z"/>
    <path fill="#2166ad" stroke="none" d="M 168.67123 159.19211 C 170.3057 159.75604 171.56711 160.55833 172.94531 160.96095 C 175.1041 161.59164 177.34178 161.95227 179.64378 163.02884 C 178.17905 165.42899 176.61664 167.22754 174.66562 168.85611 C 171.21516 168.4572 168.1391 168.34206 165.09578 167.96353 C 162.64297 167.65846 160.22974 167.0352 157.79895 166.55312 C 158.03845 166.13463 158.27794 165.71613 158.2383 165.05908 C 157.95915 164.82053 158.02025 164.88263 158.23454 165.25546 C 159.94608 164.39247 161.44333 163.15666 162.94057 161.92084 C 162.94057 161.92084 163 161.99939 163.18402 162.28085 C 163.89932 162.09123 164.43057 161.62015 164.96185 161.14908 C 166.09142 160.51648 167.22098 159.88388 168.67123 159.19211 Z"/>
    <path fill="#3f93cb" stroke="none" d="M 127.99747 93.00397 C 139.87997 93.003654 151.76257 93.028564 163.64493 92.9858 C 166.72346 92.974724 169.80122 92.7517 172.96309 92.23917 C 173.37575 92.3112 173.70468 92.770096 173.95113 93.943146 C 172.57002 95.104126 171.26001 95.95591 169.97513 95.91953 C 166.5345 95.82216 163.0997 95.024284 159.67139 95.07688 C 149.1146 95.23882 138.56189 95.66808 128.0076 95.993484 C 128.0076 95.993484 128 96 128.00156 95.62255 C 128.00122 94.498055 127.99935 93.75102 127.99747 93.00397 Z"/>
    <path fill="#3c5388" stroke="none" d="M 175.0542 169.02611 C 176.61664 167.22754 178.17905 165.42899 179.87791 163.33063 C 182.46558 160.70833 184.91685 158.38582 187.72021 156.05789 C 183.62418 162.62096 179.2012 169.20671 174.71742 175.75078 C 172.42236 179.10043 170.01839 182.37544 167.39087 185.88422 C 165.96733 185.72252 164.81657 185.36078 163.32222 184.74416 C 162.97862 184.48933 163.01813 184.01082 163.3122 183.8566 C 165.39304 181.45592 167.1798 179.20943 169.24223 176.78314 C 171.36334 174.07759 173.20879 171.55185 175.0542 169.02611 Z"/>
    <path fill="#0e1d3d" stroke="none" d="M 134.12946 217.01822 C 137.16393 217.31664 140.19838 217.61504 143.6391 217.97366 C 141.21574 222.24484 138.38615 226.45583 135.20511 230.47786 C 132.90727 229.86139 130.96089 229.43384 129.16776 228.70518 C 129.5756 227.33003 129.83018 226.25598 130.38908 224.98413 C 131.28258 223.24728 131.87177 221.70822 132.65395 219.93408 C 133.27446 218.8054 133.70197 217.91183 134.12946 217.01822 Z"/>
    <path fill="#499bd0" stroke="none" d="M 128.09592 96.39087 C 138.56189 95.66808 149.1146 95.23882 159.67139 95.07688 C 163.0997 95.024284 166.5345 95.82216 169.97513 95.91953 C 171.26001 95.95591 172.57002 95.104126 173.95885 94.25384 C 174.72145 94.62274 175.3938 95.39514 176.07271 96.49283 C 174.88632 97.21207 173.69536 97.94151 172.50009 97.94862 C 158.89024 98.0296 145.27959 98.02977 131.66977 97.94791 C 130.50565 97.9409 129.34598 97.19234 128.09592 96.39087 Z"/>
    <path fill="#061129" stroke="none" d="M 129.01451 229.00627 C 130.96089 229.43384 132.90727 229.86139 134.92734 230.66992 C 132.98586 233.97733 130.9707 236.9038 128.63698 240.29291 C 126.122955 236.63089 124.09019 233.66992 122.38115 230.19931 C 124.516914 229.43864 126.32893 229.18755 128.3594 228.95316 C 128.57785 228.96983 129.01451 229.00627 129.01451 229.00627 Z"/>
    <path fill="#0e1d3d" stroke="none" d="M 128.14096 228.93646 C 126.32893 229.18755 124.516914 229.43864 122.346535 229.85022 C 119.401726 226.56955 116.81527 223.12839 114.37594 219.22574 C 115.97618 218.18698 117.429306 217.60968 119.15016 217.20041 C 120.28724 218.28473 121.15658 219.20102 122.096054 220.3696 C 122.63522 221.1294 123.10426 221.6369 123.6713 222.43773 C 124.187195 223.16164 124.60508 223.59221 125.11806 224.3339 C 126.18908 226.07547 127.16502 227.50597 128.14096 228.93646 Z"/>
    <path fill="#2b4070" stroke="none" d="M 95.00271 191.4217 C 95.74053 190.38168 96.49443 189.69409 97.605865 189.01903 C 99.29229 190.52191 100.6212 192.01227 102.11346 194.13467 C 103.19712 195.50725 104.11746 196.24774 105.037796 196.9882 C 105.037796 196.9882 104.99777 197.00125 104.93681 197.35016 C 105.939 198.78197 107.002174 199.8649 108.06534 200.9478 C 108.06534 200.9478 108.00653 201.00368 107.97223 201.3096 C 108.41639 201.94304 108.89485 202.27058 109.37331 202.5981 C 109.37331 202.5981 109.457954 202.67804 109.25551 203.0022 C 108.95874 203.55861 108.86441 203.79083 108.45788 204.06258 C 107.07627 204.75789 106.006874 205.41367 104.93747 206.06946 C 101.63123 201.30434 98.325005 196.53923 95.00271 191.4217 Z"/>
    <path fill="#162951" stroke="none" d="M 105.08197 206.37823 C 106.006874 205.41367 107.07627 204.75789 108.640915 204.36266 C 111.903404 207.84392 114.670654 211.06462 117.580215 214.56015 C 118.10918 215.56743 118.4958 216.29993 118.88242 217.03241 C 117.429306 217.60968 115.97618 218.18698 114.21079 218.92816 C 111.007835 214.95706 108.11715 210.82207 105.08197 206.37823 Z"/>
    <path fill="#fdfdfe" stroke="none" d="M 112.742035 42.728508 C 113.205635 42.98442 113.41516 43.514256 113.231026 44.786285 C 109.861855 50.640907 106.88635 55.75333 103.65742 61.028088 C 103.17554 61.739418 102.947075 62.288406 102.46721 63.045185 C 100.84012 65.194855 99.464424 67.13672 97.87298 68.91183 C 97.50518 68.645386 97.353134 68.5457 97.2011 68.446014 C 102.29672 59.964817 107.39235 51.483624 112.742035 42.728508 Z"/>
    <path fill="#fdfdfe" stroke="none" d="M 117.647766 35.01101 C 116.56411 37.563145 115.15192 40.24672 113.357346 42.728172 C 114.42305 40.06485 115.87113 37.60365 117.647766 35.01101 Z"/>
    <path fill="#3c5388" stroke="none" d="M 188.36597 155.94434 C 189.07637 154.40215 190.09705 152.74287 191.45764 151.03297 C 190.75716 152.59732 189.71669 154.2123 188.36597 155.94434 Z"/>
    <path fill="#fdfdfe" stroke="none" d="M 91.18873 78.46279 C 92.09308 76.861595 92.99744 75.26041 94.39587 73.71527 C 95.04972 73.95156 95.2095 74.13178 95.27699 74.61777 C 94.754425 75.88579 94.324165 76.84806 93.65281 77.94017 C 93.06314 78.484634 92.714554 78.899254 92.07667 79.09417 C 91.58782 78.737236 91.38826 78.60001 91.18873 78.46279 Z"/>
    <path fill="#f9fcfd" stroke="none" d="M 162.59085 161.9561 C 161.44333 163.15666 159.94608 164.39247 158.1951 165.27396 C 159.37462 163.94353 160.80788 162.96745 162.59085 161.9561 Z"/>
    <path fill="#fdfdfe" stroke="none" d="M 85.68167 88.49725 C 86.27195 86.6773 87.09718 85.15454 88.412506 83.70706 C 89.06668 83.96623 89.23076 84.15013 89.279 84.640884 C 88.25046 86.41722 87.337776 87.886696 86.425095 89.35618 C 86.25561 89.16894 86.08611 88.9817 85.68167 88.49725 Z"/>
    <path fill="#fdfdfe" stroke="none" d="M 88.675735 83.49045 C 89.198875 81.7558 89.94889 80.31303 90.9438 78.66652 C 91.38826 78.60001 91.58782 78.737236 91.97399 79.40486 C 91.238686 81.40151 90.31676 82.86777 89.39483 84.33402 C 89.23076 84.15013 89.06668 83.96623 88.675735 83.49045 Z"/>
    <path fill="#fdfdfe" stroke="none" d="M 94.669495 73.48506 C 95.20369 71.75198 95.95829 70.30517 96.957 68.65218 C 97.353134 68.5457 97.50518 68.645386 97.82213 69.2458 C 97.11446 71.26835 96.24188 72.79018 95.3693 74.31201 C 95.2095 74.13178 95.04972 73.95156 94.669495 73.48506 Z"/>
    <path fill="#61a8d6" stroke="none" d="M 175.355 101.98572 C 175.56528 101.13284 176.14119 100.27843 176.88599 99.14594 C 177.39635 98.93275 177.67172 99.10398 177.961 99.615814 C 177.26756 100.56143 176.49413 101.272804 175.355 101.98572 Z"/>
    <path fill="#f9fcfd" stroke="none" d="M 164.65155 161.0781 C 164.43057 161.62015 163.89932 162.09123 163.15637 162.24004 C 163.41022 161.61421 163.87573 161.31065 164.65155 161.0781 Z"/>
    <path fill="#aed2ea" stroke="none" d="M 72.699295 113.16069 C 78.135506 112.97911 83.30596 112.99439 88.47643 112.99961 C 101.376625 113.0126 114.2768 113.020996 127.658554 113.065445 C 125.65026 115.04329 123.16039 116.98695 120.27983 118.646866 C 119.5593 118.024216 119.22636 117.38599 118.90006 117.38938 C 102.60469 117.5583 86.309875 117.78212 70.01501 117.99996 C 70.82119 116.450966 71.62738 114.90198 72.699295 113.16069 Z"/>
    <path fill="#d7e9f5" stroke="none" d="M 116.028 122.07105 C 113.300156 123.66011 110.54857 125.210396 107.85668 126.85821 C 106.84642 127.476616 105.974846 128.32156 104.64135 129.37955 C 103.63448 127.49135 102.52057 125.40242 101.46626 123.42528 C 89.845 130.30202 77.40349 124.200035 65.75257 127.51413 C 65.51441 127.043396 65.276245 126.57267 65.03808 126.10194 C 66.13403 124.16702 67.22998 122.2321 68.92508 120.422806 C 83.14494 120.69941 96.76631 120.81171 110.38558 121.046104 C 112.271706 121.07857 114.14745 121.7145 116.028 122.07105 Z"/>
    <path fill="#d4dbf1" stroke="none" d="M 166.90707 137.00183 C 167.40614 137.84315 168.41455 139.36763 168.33214 139.42908 C 156.3261 148.38066 143.68324 156.30644 129.51888 163.02423 C 129.34715 161.45396 129.19853 160.09499 129.45833 158.3479 C 132.46066 157.04974 135.032 156.0679 137.65288 155.24365 C 144.52496 153.08246 151.28714 150.84677 152.38144 142.0302 C 158.00658 144.39453 159.23636 143.94522 161.04428 138.75565 C 163.14061 137.95787 165.02383 137.47986 166.90707 137.00183 Z"/>
    <path fill="#c3deef" stroke="none" d="M 116.34151 122.00011 C 114.14745 121.7145 112.271706 121.07857 110.38558 121.046104 C 96.76631 120.81171 83.14494 120.69941 69.22136 120.24464 C 69.118546 119.399216 69.3186 118.85761 69.76683 118.15799 C 86.309875 117.78212 102.60469 117.5583 118.90006 117.38938 C 119.22636 117.38599 119.5593 118.024216 119.946945 118.72793 C 118.88817 120.03821 117.77158 120.98369 116.34151 122.00011 Z"/>
    <path fill="#90a3d7" stroke="none" d="M 160.8312 139.07538 C 159.23636 143.94522 158.00658 144.39453 151.99796 142.00949 C 149.81769 143.46596 148.41873 144.98277 146.93533 146.41197 C 145.0433 148.23491 142.54497 151.82095 141.24878 151.44063 C 136.55249 150.06265 133.48659 153.18668 129.71623 154.19025 C 129.54364 153.33339 129.37105 152.47652 129.5806 151.29144 C 132.31279 149.63243 134.66286 148.30164 137.33646 147.11426 C 141.44165 147.4054 145.51102 147.95473 144.99734 141.68292 C 146.36574 139.2112 147.68437 137.09357 149.36752 134.98425 C 151.09164 135.74039 152.37726 136.78758 153.83278 137.14742 C 155.15012 137.47307 156.65291 137.04858 158.37268 137.0137 C 159.39137 137.74014 160.1113 138.40776 160.8312 139.07538 Z"/>
    <path fill="#499bd0" stroke="none" d="M 127.99873 93.00198 C 127.99935 93.75102 128.00122 94.498055 128.00485 95.618454 C 117.385345 95.665 106.76508 95.29788 96.14226 95.03392 C 92.573586 94.94524 88.99839 95.11909 85.02862 95.00856 C 84.63106 94.8442 84.81868 94.38309 85.27135 94.15712 C 86.48044 93.61836 87.23688 93.30557 88.46265 92.99575 C 101.95332 92.999985 114.97468 93.00124 127.99604 93.0025 C 127.99604 93.0025 128 93 127.99873 93.00198 Z"/>
    <path fill="#61a8d6" stroke="none" d="M 80.497894 100.04345 C 95.40393 99.61671 110.11534 99.28456 124.828354 99.05533 C 125.81926 99.03989 126.822266 99.80138 127.91304 100.596985 C 115.27129 100.99496 102.535995 100.96386 89.80113 101.02418 C 86.70363 101.03885 83.60755 101.35414 80.25867 101.27103 C 80.00502 100.692795 80.10406 100.409966 80.497894 100.04345 Z"/>
    <path fill="#719bcf" stroke="none" d="M 139.38802 134.17374 C 139.38802 129.92665 139.38802 125.67956 139.38802 120.73836 C 142.61197 122.38378 145.60657 123.91215 148.53824 125.95628 C 148.30014 127.98588 148.12497 129.4997 147.58882 131.04974 C 144.61456 132.11525 142.0013 133.1445 139.38802 134.17374 Z"/>
    <path fill="#b7c3e7" stroke="none" d="M 129.59406 154.47958 C 133.48659 153.18668 136.55249 150.06265 141.24878 151.44063 C 142.54497 151.82095 145.0433 148.23491 146.93533 146.41197 C 148.41873 144.98277 149.81769 143.46596 151.63763 142.00876 C 151.28714 150.84677 144.52496 153.08246 137.65288 155.24365 C 135.032 156.0679 132.46066 157.04974 129.4957 157.9423 C 129.24039 156.87288 129.35614 155.82089 129.59406 154.47958 Z"/>
    <path fill="#8099d5" stroke="none" d="M 139.2907 134.50766 C 142.0013 133.1445 144.61456 132.11525 147.60779 131.39734 C 148.32616 132.79776 148.6646 133.88686 149.00302 134.97595 C 147.68437 137.09357 146.36574 139.2112 144.62314 141.7201 C 141.99681 142.54771 139.51022 144.67465 137.9877 141.0671 C 138.38959 138.99191 138.79149 136.91675 139.2907 134.50766 Z"/>
    <path fill="#5677bc" stroke="none" d="M 149.36752 134.98425 C 148.6646 133.88686 148.32616 132.79776 147.96875 131.36108 C 148.12497 129.4997 148.30014 127.98588 148.75836 126.2213 C 151.65277 127.743515 154.26416 129.51651 157.15302 131.92166 C 157.64497 134.02083 157.85945 135.48785 158.07393 136.95488 C 156.65291 137.04858 155.15012 137.47307 153.83278 137.14742 C 152.37726 136.78758 151.09164 135.74039 149.36752 134.98425 Z"/>
    <path fill="#719bcf" stroke="none" d="M 137.67223 140.86838 C 139.51022 144.67465 141.99681 142.54771 144.5734 142.07419 C 145.51102 147.95473 141.44165 147.4054 137.18494 146.82054 C 134.18199 144.25214 131.65408 142.12085 129.12616 139.98956 C 131.86969 140.21626 134.61322 140.44296 137.67223 140.86838 Z"/>
    <path fill="#8099d5" stroke="none" d="M 129.0761 140.44586 C 131.65408 142.12085 134.18199 144.25214 136.86142 146.67712 C 134.66286 148.30164 132.31279 149.63243 129.62236 150.96489 C 129.19669 147.61176 129.11136 144.25696 129.0761 140.44586 Z"/>
    <path fill="#308ac7" stroke="none" d="M 87.99332 92.992775 C 87.23688 93.30557 86.48044 93.61836 85.416504 93.95491 C 85.45612 92.657455 85.80324 91.336235 86.28774 89.68559 C 87.337776 87.886696 88.25046 86.41722 89.278984 84.640884 C 90.31676 82.86777 91.238686 81.40151 92.26329 79.624565 C 92.714554 78.899254 93.06314 78.484634 93.7811 78.18905 C 94.43531 78.54136 94.72018 78.774635 95.00615 79.258606 C 95.01005 79.67641 95.012825 79.84352 94.87292 80.32653 C 92.484566 84.75921 90.23894 88.87599 87.99332 92.992775 Z"/>
    <path fill="#f1f8fb" stroke="none" d="M 110.44939 133.65793 C 112.632256 134.63168 114.540054 135.81705 116.76616 137.20018 C 116.021614 138.1 115.40555 139.50143 114.38168 139.9311 C 112.76384 140.61003 110.87251 140.63719 109.09693 140.94019 C 109.05761 139.30782 108.89033 137.66393 109.03551 136.04814 C 109.10329 135.29391 109.77587 134.59404 110.44939 133.65793 Z"/>
    <path fill="#b7c3e7" stroke="none" d="M 158.37268 137.0137 C 157.85945 135.48785 157.64497 134.02083 157.37523 132.18188 C 160.4874 133.3118 163.65482 134.81363 166.86465 136.65866 C 165.02383 137.47986 163.14061 137.95787 161.04428 138.75565 C 160.1113 138.40776 159.39137 137.74014 158.37268 137.0137 Z"/>
    <path fill="#1c7abb" stroke="none" d="M 168.96655 176.96295 C 167.1798 179.20943 165.39304 181.45592 162.98953 183.71547 C 161.2468 183.48283 160.12077 183.23717 158.95958 182.644 C 156.6414 179.33527 155.05026 174.51762 149.63547 178.9865 C 147.15175 179.99454 145.03618 180.98799 142.46527 181.98668 C 138.91916 181.95978 135.82837 181.92761 132.7376 181.89546 C 137.53937 178.88667 142.34113 175.87791 147.71985 173.10544 C 153.30635 173.8947 158.33356 174.32767 163.31657 175.06094 C 165.25131 175.34569 167.08618 176.30884 168.96655 176.96295 Z"/>
    <path fill="#196db2" stroke="none" d="M 169.24223 176.78314 C 167.08618 176.30884 165.25131 175.34569 163.31657 175.06094 C 158.33356 174.32767 153.30635 173.8947 148.06082 173.00954 C 150.92888 170.72124 154.03291 168.76517 157.46794 166.68112 C 160.22974 167.0352 162.64297 167.65846 165.09578 167.96353 C 168.1391 168.34206 171.21516 168.4572 174.66562 168.85611 C 173.20879 171.55185 171.36334 174.07759 169.24223 176.78314 Z"/>
    <path fill="#1995cf" stroke="none" d="M 129.31792 201.98434 C 129.26341 198.62007 129.2089 195.25578 129.66911 191.4422 C 133.47882 190.65236 136.77377 190.31186 140.45804 189.97229 C 141.89076 189.9848 142.93417 189.99635 143.97455 190.37534 C 143.66873 192.16116 143.36595 193.57956 142.78421 195.2107 C 141.5429 197.65598 140.58055 199.88855 139.52217 202.3439 C 136.74924 201.13622 134.24878 193.17717 131.65308 201.99207 C 130.65228 201.99094 129.98509 201.98764 129.31792 201.98434 Z"/>
    <path fill="#1885c4" stroke="none" d="M 140.06876 189.97136 C 136.77377 190.31186 133.47882 190.65236 129.75803 190.99161 C 129.4999 187.78345 127.47045 183.91818 132.3783 181.95975 C 135.82837 181.92761 138.91916 181.95978 142.48914 182.38826 C 142.98274 183.85538 142.99715 184.92609 143.00824 186.24973 C 143.0087 186.67119 143.01245 186.83975 142.6459 187.01517 C 141.53998 188.00516 140.80437 188.98824 140.06876 189.97136 Z"/>
    <path fill="#2daadb" stroke="none" d="M 117.437904 214.28535 C 114.670654 211.06462 111.903404 207.84392 108.95312 204.32312 C 108.86441 203.79083 108.95874 203.55861 109.29924 203.04062 C 111.27509 204.57744 113.004776 206.39998 115.3938 208.91728 C 115.53357 206.65582 115.62352 205.20036 116.16201 203.32518 C 117.538925 201.92407 118.467316 200.94266 119.34695 200.0128 C 121.06074 200.7609 122.51379 201.39517 123.97177 202.44452 C 123.708435 205.63878 123.93133 208.04657 127.37598 208.82883 C 128.04645 208.98108 128.46608 210.23785 128.55745 210.98215 C 125.58694 210.97917 123.06036 210.97917 120.340775 210.97917 C 120.98076 208.26657 121.428795 206.36755 121.87683 204.46854 C 116.52146 206.62967 118.295425 210.43884 118.56729 214.05824 C 117.939255 214.18141 117.68857 214.2334 117.437904 214.28535 Z"/>
    <path fill="#1ba5db" stroke="none" d="M 129.0014 210.98514 C 128.46608 210.23785 128.04645 208.98108 127.37598 208.82883 C 123.93133 208.04657 123.708435 205.63878 124.33577 202.4303 C 125.17915 201.9812 125.66346 201.96133 126.147766 201.9414 C 127.09793 202.14528 128.0481 202.34915 129.15808 202.26868 C 129.98509 201.98764 130.65228 201.99094 131.6571 202.2445 C 131.99629 202.66298 131.99785 202.83118 131.862 203.05334 C 131.8166 203.07173 131.90862 203.03618 132.32767 202.97604 C 133.37361 203.35155 134.71619 203.76782 134.70625 204.1489 C 134.65613 206.07361 134.25395 207.98917 133.81438 210.17563 C 132.09972 210.59752 130.99138 214.57602 129.0014 210.98514 Z"/>
    <path fill="#1995cf" stroke="none" d="M 126.07286 201.60092 C 125.66346 201.96133 125.17915 201.9812 124.33084 202.01529 C 122.51379 201.39517 121.06074 200.7609 119.34695 200.0128 C 118.467316 200.94266 117.538925 201.92407 116.256874 202.95938 C 115.90318 198.90173 115.90318 194.79016 115.90318 189.21184 C 119.78354 193.84325 122.890755 197.55183 126.07286 201.60092 Z"/>
    <path fill="#2daadb" stroke="none" d="M 108.082756 200.61406 C 107.002174 199.8649 105.939 198.78197 104.94544 197.33096 C 106.04341 198.06868 107.07179 199.1745 108.082756 200.61406 Z"/>
    <path fill="#2daadb" stroke="none" d="M 105.00601 196.6676 C 104.11746 196.24774 103.19712 195.50725 102.20472 194.46074 C 103.07986 194.88547 104.02703 195.61624 105.00601 196.6676 Z"/>
    <path fill="#2daadb" stroke="none" d="M 109.40719 202.29097 C 108.89485 202.27058 108.41639 201.94304 107.99718 201.27869 C 108.51796 201.28917 108.97951 201.63649 109.40719 202.29097 Z"/>
    <path fill="#3f93cb" stroke="none" d="M 88.46265 92.99575 C 90.23894 88.87599 92.484566 84.75921 95.27422 80.37371 C 99.52514 80.126785 103.23221 80.18035 106.93894 80.16353 C 113.955894 80.13168 120.97263 80.05943 127.98949 80.00397 C 127.99396 81.06862 127.99844 82.13326 128.00528 83.597 C 128.00545 86.69801 128.00325 89.39994 127.99854 92.552185 C 114.97468 93.00124 101.95332 92.999985 88.46265 92.99575 Z"/>
    <path fill="#397ebb" stroke="none" d="M 128.01593 45.659035 C 128.01578 48.365116 128.00623 50.74069 127.52294 53.558895 C 121.696686 53.999683 116.34417 53.997826 111.03139 53.644314 C 112.39574 50.547665 113.72034 47.80267 115.044945 45.05767 C 115.808464 44.381275 116.57197 43.70488 117.925026 43.2797 C 121.67012 43.689243 124.82564 43.847557 127.98117 44.00587 C 127.989624 44.446754 127.998085 44.887634 128.01593 45.659035 Z"/>
    <path fill="#3574b5" stroke="none" d="M 127.99057 43.537483 C 124.82564 43.847557 121.67012 43.689243 118.23311 43.222137 C 120.77889 37.441017 123.60616 31.968681 126.43341 26.496347 C 126.955605 26.59537 127.47778 26.694393 127.99996 26.793415 C 127.99996 32.218643 127.99996 37.643867 127.99057 43.537483 Z"/>
    <path fill="#2670b4" stroke="none" d="M 114.753006 45.03578 C 113.72034 47.80267 112.39574 50.547665 110.72818 53.802933 C 109.28673 56.134247 108.357506 58.095974 107.01358 59.71306 C 106.40219 60.448715 104.97047 60.502605 103.91084 60.865746 C 106.88635 55.75333 109.861855 50.640907 113.06476 45.25757 C 113.6818 44.995728 114.07143 45.00481 114.753006 45.03578 Z"/>
    <path fill="#61a8d6" stroke="none" d="M 143.45363 101.99233 C 145.08035 99.71785 151.95831 99.31278 155.9245 101.60883 C 151.9792 101.99106 147.94855 101.99447 143.45363 101.99233 Z"/>
    <path fill="#61a8d6" stroke="none" d="M 165.36742 101.993004 C 165.96129 101.7664 166.93263 101.5449 167.95685 101.655815 C 167.25478 101.99152 166.49982 101.99483 165.36742 101.993004 Z"/>
    <path fill="#3e8bc6" stroke="none" d="M 127.99366 79.58647 C 120.97263 80.05943 113.955894 80.13168 106.93894 80.16353 C 103.23221 80.18035 99.52514 80.126785 95.416916 80.057816 C 95.012825 79.84352 95.01005 79.67641 95.30897 79.098434 C 98.396935 74.78566 101.18322 70.88374 104.44001 66.98758 C 112.60052 66.99787 120.29049 67.00241 127.98047 67.00696 C 127.98891 69.373764 127.997345 71.74056 128.00986 74.550476 C 128.00856 76.38538 128.0032 77.77718 127.99366 79.58647 Z"/>
    <path fill="#3c85c1" stroke="none" d="M 127.990234 66.75278 C 120.29049 67.00241 112.60052 66.99787 104.446785 66.5989 C 103.56156 65.082115 103.1401 63.95975 102.71862 62.83739 C 102.947075 62.288406 103.17554 61.739418 103.65742 61.02809 C 104.97047 60.502605 106.40219 60.448715 107.01358 59.71306 C 108.357506 58.095974 109.28673 56.134247 110.68845 54.154587 C 116.34417 53.997826 121.696686 53.999683 127.51455 54.00362 C 127.9888 54.446934 127.997696 54.888184 128.01471 55.66021 C 128.01833 59.02202 128.01384 62.05304 128.01491 65.537155 C 128.01363 66.159706 128.0068 66.329155 127.990234 66.75278 Z"/>
    <path fill="#2daadb" stroke="none" d="M 133.97527 209.90794 C 134.25395 207.98917 134.65613 206.07361 134.70625 204.1489 C 134.71619 203.76782 133.37361 203.35155 132.32736 202.97574 C 132 203 131.99939 202.9994 131.99939 202.9994 C 131.99785 202.83118 131.99629 202.66298 131.99072 202.24234 C 134.24878 193.17717 136.74924 201.13622 139.52217 202.3439 C 140.58055 199.88855 141.5429 197.65598 143.11787 195.26447 C 144.53107 195.9589 145.33162 196.81224 146.24017 197.78073 C 146.9137 195.92659 147.45045 194.44896 148.39029 192.98079 C 149.86867 192.98756 150.94398 192.98486 151.97392 193.34726 C 151.27963 195.80891 150.63072 197.90549 149.9818 200.00208 C 148.962 201.39658 147.94221 202.79108 146.8281 204.49454 C 146.03778 205.46585 145.34177 206.12814 143.99712 206.91759 C 142.83702 207.13412 142.32555 207.22356 141.81409 207.31302 C 141.81409 207.31303 141.74472 207.28592 141.77715 206.91911 C 141.13766 206.09933 140.46574 205.64642 139.79384 205.1935 C 139.79384 205.1935 139.75183 205.15517 139.90002 204.90094 C 139.9491 204.14824 139.84999 203.6498 139.75089 203.15132 C 139.22462 203.8932 138.69835 204.6351 138.17207 205.37697 C 137.40901 207.48157 136.64594 209.58618 135.5079 211.62785 C 134.74704 211.01257 134.36115 210.46024 133.97527 209.90794 Z"/>
    <path fill="#56c0e8" stroke="none" d="M 133.81438 210.17563 C 134.36115 210.46024 134.74704 211.01257 135.28615 211.8771 C 135.43938 212.1893 135.37679 212.18341 135.00064 212.32635 C 134.48392 213.4253 134.34334 214.38129 134.20276 215.33728 C 134.15736 215.71066 134.11197 216.08403 134.09802 216.73784 C 133.70197 217.91183 133.27446 218.8054 132.2211 219.89252 C 130.72734 220.08496 129.85944 220.08386 128.74323 219.92119 C 127.99907 219.15831 127.50322 218.55699 127.03051 217.71939 C 127.05365 217.4831 127.08941 217.00847 127.44458 216.93716 C 129.7166 214.74486 128.4676 214.12346 126.40048 214.05106 C 123.9175 213.96413 121.430115 214.00279 118.94465 213.98706 C 118.295425 210.43884 116.52146 206.62967 121.87683 204.46854 C 121.428795 206.36755 120.98076 208.26657 120.340775 210.97917 C 123.06036 210.97917 125.58694 210.97917 128.55745 210.98215 C 130.99138 214.57602 132.09972 210.59752 133.81438 210.17563 Z"/>
    <path fill="#1995cf" stroke="none" d="M 138.43378 205.33675 C 138.69835 204.6351 139.22462 203.8932 139.75089 203.15132 C 139.84999 203.6498 139.9491 204.14824 139.89761 204.92928 C 139.3965 205.24005 139.04597 205.26828 138.43378 205.33675 Z"/>
    <path fill="#1995cf" stroke="none" d="M 139.8602 205.48677 C 140.46574 205.64642 141.13766 206.09933 141.74164 206.90787 C 141.09131 206.76901 140.50893 206.27457 139.8602 205.48677 Z"/>
    <path fill="#2daadb" stroke="none" d="M 134.44873 215.09174 C 134.34334 214.38129 134.48392 213.4253 134.96951 212.32202 C 135.10793 213.06522 134.9013 213.95573 134.44873 215.09174 Z"/>
    <path fill="#1995cf" stroke="none" d="M 141.96333 207.61203 C 142.32555 207.22356 142.83702 207.13412 143.73828 207.04666 C 143.45624 207.33612 142.78441 207.62358 141.96333 207.61203 Z"/>
    <path fill="#1885c4" stroke="none" d="M 150.28229 199.8512 C 150.63072 197.90549 151.27963 195.80891 152.24435 193.12239 C 153.381 189.83487 154.3491 187.31352 158.07877 188.09393 C 158.16554 188.1958 158.3315 188.40575 158.3315 188.40575 C 155.74858 192.1706 153.16568 195.93547 150.28229 199.8512 Z"/>
    <path fill="#1885c4" stroke="none" d="M 158.99477 182.99146 C 160.12077 183.23717 161.2468 183.48283 162.69547 183.86966 C 163.01813 184.01082 162.97862 184.48933 162.95612 184.72815 C 161.59314 186.0261 160.25266 187.0852 158.62184 188.27504 C 158.3315 188.40575 158.16554 188.1958 158.07948 187.71967 C 157.99174 186.49434 157.99007 185.74516 158.2349 184.82907 C 158.65251 184.10524 158.82364 183.54834 158.99477 182.99146 Z"/>
    <path fill="#aed2ea" stroke="none" d="M 127.00736 217.95567 C 127.50322 218.55699 127.99907 219.15831 128.73784 220.29791 C 129.34875 222.2848 129.71675 223.73335 130.08476 225.18192 C 129.83018 226.25598 129.5756 227.33003 129.16776 228.70518 C 129.01451 229.00627 128.57785 228.96983 128.3594 228.95316 C 127.16502 227.50597 126.18908 226.07547 125.35028 224.12773 C 124.84938 223.12181 124.21134 222.63312 123.57331 222.14442 C 123.10426 221.6369 122.63522 221.1294 122.18136 220.36092 C 122.19651 220.09995 122.30528 219.96571 122.62301 219.91383 C 124.29629 219.22655 125.651825 218.5911 127.00736 217.95567 Z"/>
    <path fill="#96c5e4" stroke="none" d="M 130.38908 224.98413 C 129.71675 223.73335 129.34875 222.2848 128.98615 220.45947 C 129.85944 220.08386 130.72734 220.08496 132.0281 220.12762 C 131.87177 221.70822 131.28258 223.24728 130.38908 224.98413 Z"/>
    <path fill="#7fb9de" stroke="none" d="M 118.56729 214.05824 C 121.430115 214.00279 123.9175 213.96413 126.40048 214.05106 C 128.4676 214.12346 129.7166 214.74486 127.17433 216.66597 C 123.28959 215.39566 121.38501 215.96799 122.30528 219.96571 C 122.30528 219.96571 122.19651 220.09995 122.11121 220.10864 C 121.15658 219.20102 120.28724 218.28473 119.15016 217.20041 C 118.4958 216.29993 118.10918 215.56743 117.580215 214.56015 C 117.68857 214.2334 117.939255 214.18141 118.56729 214.05824 Z"/>
    <path fill="#96c5e4" stroke="none" d="M 123.6713 222.43773 C 124.21134 222.63312 124.84938 223.12181 125.25518 223.81664 C 124.60508 223.59221 124.187195 223.16164 123.6713 222.43773 Z"/>
    <path fill="#2979bb" stroke="none" d="M 102.46721 63.045185 C 103.1401 63.95975 103.56156 65.082115 103.97627 66.593155 C 101.18322 70.88374 98.396935 74.78566 95.307846 78.84774 C 94.72018 78.774635 94.43531 78.54136 94.02217 78.05921 C 94.324165 76.84806 94.754425 75.88579 95.27699 74.61777 C 96.24188 72.79018 97.11446 71.26835 98.0379 69.41255 C 99.464424 67.13672 100.84012 65.194855 102.46721 63.045185 Z"/>
    <path fill="#3f93cb" stroke="none" d="M 143.01154 185.99683 C 142.99715 184.92609 142.98274 183.85538 142.94449 182.38303 C 145.03618 180.98799 147.15175 179.99454 149.81873 179.26024 C 151.9128 181.01215 153.45549 182.50491 154.99054 184.34802 C 154.0172 185.14265 153.08313 185.68605 152.078 186.00677 C 150.7535 186.42935 149.37321 186.67708 147.72758 186.86562 C 145.96269 186.48645 144.4871 186.24165 143.01154 185.99683 Z"/>
    <path fill="#2c81c1" stroke="none" d="M 154.99817 183.99767 C 153.45549 182.50491 151.9128 181.01215 150.18687 179.24565 C 155.05026 174.51762 156.6414 179.33527 158.95958 182.64398 C 158.82364 183.54834 158.65251 184.10524 157.91711 184.80493 C 156.56795 184.63106 155.78307 184.31436 154.99817 183.99767 Z"/>
    <path fill="#499bd0" stroke="none" d="M 143.00824 186.24973 C 144.4871 186.24165 145.96269 186.48645 147.72305 187.29288 C 148.00096 189.56009 147.9941 191.26572 147.98721 192.9713 C 147.45045 194.44896 146.9137 195.92659 146.24017 197.78073 C 145.33162 196.81224 144.53107 195.9589 143.39685 195.05177 C 143.36595 193.57956 143.66873 192.16116 143.98116 190.03769 C 143.66594 188.55789 143.34106 187.78308 143.0162 187.0083 C 143.01245 186.83975 143.0087 186.67119 143.00824 186.24973 Z"/>
    <path fill="#3f93cb" stroke="none" d="M 142.6459 187.01517 C 143.34106 187.78308 143.66594 188.55789 143.98419 189.6703 C 142.93417 189.99635 141.89076 189.9848 140.45805 189.97229 C 140.80437 188.98824 141.53998 188.00516 142.6459 187.01517 Z"/>
    <path fill="#2daadb" stroke="none" d="M 132.0003 203.0003 C 131.90862 203.03618 131.8166 203.07173 131.862 203.05334 C 131.99939 202.9994 132 203 132.0003 203.0003 Z"/>
    <path fill="#308ac7" stroke="none" d="M 148.39029 192.98079 C 147.9941 191.26572 148.00096 189.56009 148.01237 187.42723 C 149.37321 186.67708 150.7535 186.42935 152.078 186.00677 C 153.08313 185.68605 154.0172 185.14265 154.99054 184.34802 C 155.78307 184.31436 156.56795 184.63106 157.67062 184.97186 C 157.99007 185.74516 157.99174 186.49434 157.9927 187.6178 C 154.3491 187.31352 153.381 189.83487 152.28973 192.7573 C 150.94398 192.98486 149.86867 192.98756 148.39029 192.98079 Z"/>
    <path fill="#96c5e4" stroke="none" d="M 122.62301 219.91383 C 121.38501 215.96799 123.28959 215.39566 126.81916 216.73727 C 127.08941 217.00847 127.05365 217.4831 127.03051 217.71939 C 125.651825 218.5911 124.29629 219.22655 122.62301 219.91383 Z"/>
</svg>
