<svg width="299.83" height="299.83" xmlns="http://www.w3.org/2000/svg">
    <g id="Ellipse_528">
        <path fill="#ffffff" stroke="none" d="M 299.83002 149.91 C 299.83002 232.70302 232.71301 299.82 149.92 299.82 C 67.12699 299.82 0.00999451 232.70302 0.00999451 149.91 C 0.00999451 67.117 67.12699 0 149.92 0 C 232.71301 -0.00000843 299.83002 67.11699 299.83002 149.91 Z"/>
    </g>
    <g id="Path_11311">
        <path fill="#2188c6" stroke="none" d="M 238.72 64.31 C 228.14998 53.510002 215.72 44.72 202 38.37 C 203.91 34.63 205.1 30.57 205.56 26.4 L 204.95 26.150002 C 202.97002 29.86 200.78 33.44 198.34 36.85 C 195.65 40.69 192.75 44.369995 189.67998 47.9 L 196.74002 48.03 C 187.67 66.73 162.13 74.79 162.13 74.79 C 162.03 80.58 153.11 90.8 153.11 90.8 C 163.3 87.90001 172.90001 83.3 181.53998 77.18 C 242.5 80.36 257.16 116.16 261.3 122.92 C 261.88 123.89 261.43 124.77 261.3 124.62 C 247.73 103.45 228.06 96.39 226.74 97.61001 L 233.14 105.61001 C 217.07999 97.76 199.69998 92.96 181.86 91.46001 C 181.86 91.46001 224.17 99.079994 247.16002 129.57 C 258.7 144.69 266.32 162.42 269.34 181.18 C 269.47 182.2 269.57 182.98 269.59 183.57 C 272.36 173.38002 273.83 162.89 273.96 152.34 C 274.44 119.46001 261.74 87.77 238.69 64.35 L 238.69 64.32 Z M 172.76001 29.09 L 171.01 28.79 L 169.49 28.54 L 169.26 28.54 L 166.54 28.16 L 166.36 28.16 L 164.86 27.96 C 163.87 27.83 162.9 27.73 161.91 27.659998 L 161.55 27.659998 L 160.43 27.56 C 159.26 27.46 158.09 27.38 156.92 27.310001 C 155.9 27.260002 154.89 27.21 153.85 27.180002 L 152.25 27.180002 L 148.97 27.150002 C 147.39 27.150002 145.82 27.2 144.24 27.28 L 142.69 27.36 C 89.61001 30.38 44.360004 66.87 30.13 118.1 C 27.28 128.62 25.84 139.44 25.81 150.34 C 25.73 152.73 25.86 155.12 26.14 157.48 C 26.290003 158.52 26.52 159.59 26.83 160.61 C 26.83 160.74 26.91 160.84 26.93 160.97 C 28.99 167.27 31.76 173.92998 35.24 179.60002 C 37.32 183.30998 39.64 186.86998 42.2 190.27002 C 43.27 191.74 44.41 193.17 45.630005 194.51 L 46.01 194.92 L 46.47 195.43 C 46.900005 195.91 47.33 196.39998 47.77 196.83 L 48.049995 197.13002 C 54.35 203.53 61.69 208.83998 69.75 212.77998 C 82.12 218.88 95.590004 222.49 109.39 223.38 C 114.17 223.74 118.99 223.74 123.77 223.38 L 124.48 223.38 C 129.64 223.02 134.75 221.98 139.65 220.28 C 143.77 219.03 147.63 217.05 151.06 214.44 C 155.38 211.29 159.11 207.38 162.04 202.9 C 166.38 196.45 168.8 188.87 169.05 181.1 C 169.84 162.73 151.44 142 125.4 139.45 L 125.4 139.45 C 124.56 139.37 123.72 139.3 122.86 139.27 L 118.01 139.27 L 116.61 139.32 L 115.42 139.4 L 114.35 139.5 C 113.64 139.55 112.95 139.65 112.24 139.75 C 110.439995 139.98 108.61 140.28 106.75 140.66 C 89.73 144.45 95.57 158.12 95.75 158.55 C 91.74 158.17 87.8 157.33 83.96 156.09 L 83.78 156.04 L 83.02 155.79 C 78.93 154.34 75.17 152.11 71.97 149.18 L 71.92 149.18 L 71.62 148.88 C 69.54 146.8 67.76 144.43 66.33 141.84 L 66.28 141.84 C 63.92 143.29 61.66 144.89 59.44 146.57 C 57.84 137.85 57.56 128.94 58.6 120.12 C 60.73 110.16 76.69 98.27 76.69 98.27 C 76.69 98.27 74.63 108.51 83.75 108.659996 C 92.87 108.81 103.57 94.53 103.98 95.8 C 104.39 97.07 112.7 97.2 112.7 97.2 C 112.7 97.2 108.96 97.2 105.76 90.47 C 102.56 83.74 112.72001 74 129.47 68.08 C 140.75 63.53 150.94 56.649998 159.38 47.88 C 163.52 48.360004 164.56 60 164.56 60 C 175.59 53.34 185.57002 45.08 194.16 35.45 L 194.16 35.45 C 187.22002 32.71 180.08 30.62 172.77 29.17 L 172.8 29.17 L 172.77 29.12 Z M 139.83 112.59 L 139.83 112.62"/>
    </g>
    <g id="Path_11313">
        <path fill="#162b4e" stroke="none" d="M 223.27 243.78 C 212.09 258.21 196.16 268.22 178.3 272.01 C 175.17001 272.62 172 273.13 168.82 273.53 L 167.55 273.68 L 166.33 273.81 L 165.95 273.81 C 143.82 275.72 121.560005 272.49 100.9 264.38 C 93.66 261.53 86.76999 257.93 80.32 253.61 C 73.43 248.91 67.03 243.55 61.21 237.6 C 41.21 215.44 28.94 187.42 26.22 157.69 C 26.370003 158.73 26.6 159.77 26.91 160.82 C 28.97 167.27 31.79 173.42 35.32 179.19 C 37.4 182.9 39.72 186.46002 42.28 189.86 C 43.350002 191.33 44.489998 192.73 45.71 194.1 L 46.09 194.51 L 46.55 195.02 C 46.98 195.49998 47.410004 195.96 47.85 196.42 L 48.13 196.72 C 54.429996 203.12001 61.77 208.43 69.83 212.37 C 82.2 218.47002 95.67 222.08 109.47 222.97 C 114.25001 223.33 119.05 223.33 123.84999 222.97 L 124.59 222.97 C 129.75 222.61 134.86 221.55 139.76 219.87001 C 143.88 218.61998 147.74 216.64 151.17 214.03001 C 155.49 210.88 159.2 206.97 162.12 202.49 C 166.46 196.01001 168.88 188.46 169.13 180.69 C 169.49 161.35 148.9 139.27 119.84 139.35 C 119.18 139.35 118.51999 139.35 117.86 139.4 L 116.46 139.4 L 115.11 139.5 C 114.35 139.55 113.61001 139.63 112.85 139.73 L 112.670006 139.73 C 110.759995 139.98 108.85999 140.31 106.93 140.75 C 96.98999 142.96 94.83999 148.55 94.81 152.9 C 94.81 154.86 95.19 156.81 95.93 158.64 L 95.84999 158.64 C 91.84 158.26 87.90001 157.42 84.06 156.18 L 83.88 156.13 L 83.12 155.88 C 79.03 154.43 75.27 152.2 72.07 149.27 L 72.02 149.27 L 71.72 148.99 C 70.6 147.9 69.61 146.73 68.7 145.48 C 67.89 144.34 67.12 143.17 66.44 141.92 C 82.07 132.19 100.01 126.78 118.4 126.22 L 120.31 126.14 C 122.9 126.06 125.490005 126.09 128.09 126.189995 C 132.18 126.34 136.27 126.67 140.39 127.23 C 146.62 127.96999 152.74 129.29 158.71 131.17 L 158.79 131.17 L 158.79 131.12 L 158.84 131.12 C 157.37 128.43 155.59 125.94 153.58 123.62 C 151.06 120.670006 144.48 112.9 140.09 112.95 L 140.09 112.95 L 141.39 112.87 C 144.08 112.77 146.8 112.77 149.52 112.920006 C 176.28 113.83 201.32999 126.18 218.38 146.82 L 218.71002 147.18 L 219.12001 147.71 C 223.94998 154.19 227.98999 161.25 231.11 168.7 L 231.11 168.7 C 234.18 177.57002 236.19 186.77 237.08 196.09 C 238.86 213.19 233.93 230.32 223.33 243.86002 L 223.29999 243.78 Z"/>
    </g>
    <g id="Path_11315">
        <path fill="#21326f" stroke="none" d="M 223.27 243.78 C 212.09 258.21 196.16 268.22 178.3 272.01 C 175.17001 272.62 172.02 273.13 168.85 273.53 L 167.58 273.68 L 166.36 273.81 L 165.98 273.81 C 165.12 273.89 164.28 273.96 163.41 274.01 C 154.97 274.62 146.51 274.44 138.1 273.5 C 125.27 272.66 112.69 269.59 100.93 264.38 L 99.99 263.87 C 101.57 263.79 103.22 263.87 104.82 263.9 C 126.06 263.8 146.49 255.87 162.25 241.62 C 178.99 227.52 189.01 207.04 189.87 185.19002 C 189.87 182.98 189.79001 180.74002 189.62 178.51 L 189.51999 177.49 L 189.09 178.43 C 183.98 189.94 174.15 198.65999 162.13 202.36998 L 161.85 202.45 C 164.26 199.02 166.09 195.23 167.26 191.22 C 168.33 187.75998 168.91 184.18 169.04 180.57 C 169.37 162.12 150.62 141.16 123.66 139.38 L 123.3 139.38 L 121.85 139.3 L 116.44 139.3 C 115.98 139.3 115.52999 139.35 115.07 139.4 C 114.33 139.45 113.57 139.53 112.81 139.63 L 112.63 139.63 C 110.72 139.86 108.73999 140.21 106.759995 140.65 C 89.76 144.44 95.58001 158.11 95.76 158.54 L 95.76 158.54 C 83.61 158.67 72.36 152.24 66.26 141.74 C 81.91 132.01 99.88 126.57001 118.3 126.04 L 120.21 125.96 C 122.8 125.87999 125.39 125.91 127.99 126.01 C 132.06 126.16 136.12 126.51999 140.21 127.05 C 146.46 127.79 152.61 129.11 158.61 130.99 L 158.66 130.99 C 157.16 128.32 155.41 125.810005 153.4 123.49 C 150.91 120.53999 144.38 112.87 139.98 112.82 L 139.85 112.82 C 140.31 112.82 140.82 112.77 141.25 112.73999 C 143.94 112.64 146.66 112.64 149.38 112.79001 C 176.09 113.73 201.14 126.05001 218.16 146.69 L 218.49 147.05 C 218.64 147.23 218.82 147.41 218.97002 147.58 C 224.31001 153.73 228.37 160.87 230.96 168.57 L 230.96 168.57 C 234.03 177.44002 236.02 186.64 236.93 195.96 C 238.76 213.09 233.86 230.24 223.26 243.81 L 223.29 243.78 Z"/>
    </g>
    <path fill="#162b4e" stroke="none" d="M 208.81 11.23 C 208.81 11.23 196.36 43.470005 188.08 47.08 C 179.82 50.69 195.22002 47.66 195.22002 47.66 L 163.48 71.62 C 163.48 71.62 156.87 87.32 153.11 90.31999 C 153.11 90.31999 176.26 87.5 195.00998 63.69 C 212.62 41.36 208.78 11.19 208.78 11.19 L 208.81 11.22 Z"/>
    <path fill="#ffffff" stroke="none" d="M 163.81 60.17 C 163.81 60.17 192.09 44.7 208.89 11.03 C 208.89 11.03 201.93 35.22 189.71 46.680004 L 197.71 45.43 C 197.71 45.43 185.41 65.17 162.87 73.61 C 162.87 73.61 162.84 64.44 163.81 60.14 L 163.81 60.17 Z"/>
    <g>
        <path fill="#3a9dd7" stroke="none" d="M 71.98 119.3 C 74.52 118.63999 75.79 120.28999 76.38 121.82 L 76.51 121.82 C 76.84 119.89 76.89 115.54 73.03 116.53 C 69.17 117.52 66.02 123.90001 66.02 123.90001 L 66.55 123.8 C 68.1 122.02 69.98 119.81 71.99 119.3 Z"/>
        <path fill="#162b4e" stroke="none" d="M 73.41 113.71 C 69.24 114.62 66.02 123.90001 66.02 123.90001 L 66.55 122.91 C 67.62 121.08 70.11 117.29 73.03 116.53 C 76.08 115.74 76.69 118.28 76.64 120.32 C 76.64 120.28999 76.69 120.27 76.69 120.21999 C 77.1 117.73 78.6 112.57 73.41 113.72 Z"/>
    </g>
    <g>
        <path fill="#162b4e" stroke="none" d="M 119.68 90.81 C 119.68 90.81 119.15 85.35 123.67 82.4 C 128.19 79.45 134.98 77.52 139.09 75.72 C 143.2 73.92 148.24 71.4 148.31 70.26 C 148.31 70.26 146.99 78.67 142.8 82.51 C 138.61 86.35 134.14 90.9 119.68 90.79 L 119.68 90.82001 Z"/>
        <path fill="#2797d2" stroke="none" d="M 125.27 89.16001 C 128.09 88.12 131.95 86.31 134.37 83.7 C 136.78 81.08 137.8 79.1 138.23 77.93 C 138.66 76.74 138.61 76.08 138.61 75.97 C 134.44 77.72 128.01 79.6 123.67 82.45 C 119.399994 85.25 119.66 90.28 119.68 90.81 C 119.78001 90.81 122.27 90.28 125.27 89.16001 Z"/>
    </g>
    <path fill="#162b4e" stroke="none" d="M 261.33 124.63 C 261.33 124.63 242.43 111.87 229.44 112.28 C 204.59 96.48 192.93 94.189995 181.9 91.44 C 182.28001 90.68 213.41 95.020004 233.18 105.59 L 226.52 97.38 C 226.52 97.38 236.84 96.62 253.5 114.46 C 264.38 126.12001 261.33 124.600006 261.33 124.600006 L 261.33 124.63 Z"/>
</svg>
