<svg width="256" height="256" xmlns="http://www.w3.org/2000/svg">
    <g id="surface1">
        <path fill="#e80303" stroke="none" d="M 0 0 C 84.48047 0 168.96094 0 256 0 C 256 84.48047 256 168.96094 256 256 C 171.51953 256 87.039055 256 0 256 C 0 171.51953 0 87.039055 0 0 Z M 0 0"/>
        <path fill="#fefefe" stroke="none" d="M 102.875 63.94922 C 103.359375 63.945313 103.83984 63.945313 104.32422 63.941406 C 105.90234 63.9375 107.47656 63.933594 109.05469 63.929688 C 109.60157 63.929688 110.14844 63.92578 110.69531 63.92578 C 113.26953 63.921875 115.84375 63.91797 118.41797 63.914063 C 121.37109 63.910152 124.32032 63.902348 127.26953 63.890625 C 129.5664 63.882813 131.85938 63.878906 134.15234 63.878906 C 135.51563 63.875 136.8789 63.875 138.24219 63.867188 C 157.33594 63.765625 173.53127 69.15625 187.30469 82.71484 C 189.26564 84.67578 190.99217 86.68359 192.58594 88.95313 C 192.70313 89.11719 192.82031 89.28125 192.9414 89.453125 C 202.0547 102.32031 206.15625 118.64063 203.70702 134.33203 C 200.69531 150.51953 192.0625 164.66406 178.49611 174.08984 C 168.3711 180.82813 156.27344 184.73045 144.10547 184.69531 C 143.76172 184.69531 143.41797 184.69531 143.0625 184.69531 C 142.11328 184.69531 141.16797 184.69531 140.22266 184.69531 C 139.19531 184.6914 138.17188 184.69531 137.14844 184.69531 C 135.375 184.69531 133.60547 184.6914 131.83203 184.6914 C 129.26953 184.6875 126.71094 184.6875 124.14844 184.6875 C 119.99219 184.6875 115.83594 184.68361 111.67968 184.68361 C 107.640625 184.67969 103.60548 184.67969 99.57031 184.67578 C 99.32031 184.67578 99.07031 184.67578 98.81641 184.67578 C 97.56641 184.67578 96.31641 184.67578 95.06641 184.67578 C 84.71094 184.67186 74.35547 184.66797 64 184.66016 C 64 174.10156 64 163.53906 64 152.66016 C 66.42578 152.65625 68.85156 152.64844 71.35156 152.64453 C 79.12109 152.625 86.89063 152.60156 94.66016 152.57813 C 95.86719 152.57422 97.07422 152.57031 98.28516 152.5664 C 98.64453 152.5664 98.64453 152.5664 99.01172 152.5664 C 102.90234 152.55469 106.789055 152.54297 110.67578 152.53516 C 114.66797 152.52734 118.66406 152.51563 122.65624 152.5 C 125.11719 152.49219 127.578125 152.48828 130.03906 152.48047 C 131.73047 152.48047 133.42188 152.47266 135.10938 152.46875 C 136.08594 152.46484 137.0586 152.46094 138.03125 152.46094 C 139.08984 152.45703 140.15234 152.45313 141.21094 152.44922 C 141.51172 152.44922 141.8164 152.44922 142.1289 152.44922 C 145.39844 152.42578 148.52344 151.91797 151.61328 150.86328 C 152.01172 150.72656 152.01172 150.72656 152.41797 150.58984 C 159.33203 148.14063 164.76172 143.13281 167.92578 136.51563 C 170.97656 129.77344 171.26172 121.83984 168.73438 114.86328 C 167.46875 111.83594 165.95313 109.0625 163.8164 106.57031 C 163.625 106.33594 163.4336 106.09766 163.23438 105.85938 C 158.5664 100.3711 151.82422 97.17969 144.73438 96.29297 C 143.26953 96.21094 141.80469 96.19922 140.33984 96.19922 C 139.91016 96.195305 139.48047 96.19141 139.05078 96.19141 C 137.89453 96.18359 136.73828 96.179695 135.58203 96.17578 C 134.85547 96.17578 134.13281 96.171875 133.41016 96.16797 C 131.13672 96.16016 128.86719 96.15625 126.59375 96.15234 C 123.984375 96.15234 121.37109 96.140625 118.75782 96.125 C 116.73047 96.109375 114.703125 96.10547 112.67578 96.10547 C 111.46875 96.10156 110.26172 96.10156 109.05469 96.08984 C 107.92188 96.07812 106.78516 96.07812 105.65234 96.08203 C 105.23437 96.08594 104.82031 96.08203 104.40625 96.07422 C 101.76953 96.03906 99.79688 96.27344 97.76172 98.05469 C 96.16797 99.61719 96.11719 101.34376 96.09375 103.49219 C 96.09375 103.89844 96.09766 104.30469 96.10156 104.71093 C 96.09766 105.14844 96.09375 105.58203 96.08984 106.01562 C 96.08203 107.1875 96.08203 108.359375 96.08594 109.535164 C 96.08594 110.76172 96.07812 111.98829 96.07422 113.21876 C 96.06251 115.53907 96.05859 117.86328 96.05859 120.18751 C 96.054695 123.328125 96.04297 126.46875 96.03125 129.60938 C 96.01171 134.55078 96.00781 139.4961 96 144.4414 C 85.44141 144.4414 74.87891 144.4414 64 144.4414 C 63.964848 133.01953 63.964848 133.01953 63.95703 128.21094 C 63.953125 124.89844 63.945313 121.58594 63.933594 118.27343 C 63.92578 115.859375 63.91797 113.44531 63.91797 111.03126 C 63.914063 109.75391 63.914063 108.48047 63.906246 107.203125 C 63.843746 94.47656 66.08203 84.03906 75.15625 74.57031 C 82.6875 67 92.38281 63.964848 102.875 63.94922 Z M 102.875 63.94922"/>
    </g>
</svg>
