<svg width="750" height="750" xmlns="http://www.w3.org/2000/svg">
    <defs>
        <linearGradient id="paint0_linear_1_253" x1="267.426" y1="36.6624" x2="490.021" y2="736.76" gradientUnits="userSpaceOnUse">
            <stop offset="0.15709" stop-color="#ff1dff"/>
            <stop offset="1" stop-color="#672eeb"/>
        </linearGradient>
    </defs>
    <path fill="url(#paint0_linear_1_253)" stroke="none" d="M 375 750 C 582.107 750 750 582.107 750 375 C 750 167.893 582.107 0 375 0 C 167.893 0 0 167.893 0 375 C 0 582.107 167.893 750 375 750 Z"/>
    <g opacity="0.25">
        <path fill="#000000" stroke="none" d="M 607.578 246.64601 C 588.938 227.621 564.473 215.696 538.263 212.861 C 512.054 210.027 485.684 216.454 463.554 231.07 C 487.527 258.853 500.243 294.911 499.12 331.92 C 497.997 368.929 483.12 404.114 457.51 430.329 L 387.73904 501.568 L 411.152 525.473 L 420.733 515.69 L 444.688 540.15 L 435.108 549.933 L 454.27402 569.501 L 607.582 412.971 C 629.181 390.913 641.315 360.999 641.314 329.807 C 641.314 298.616 629.179 268.703 607.578 246.64601 Z"/>
    </g>
    <g opacity="0.25">
        <path fill="#000000" stroke="none" d="M 438.12103 244.235 C 427.426 233.315 414.729 224.65201 400.755 218.742 C 386.78 212.83202 371.803 209.79 356.67703 209.79 C 341.551 209.79 326.574 212.83202 312.599 218.742 C 298.625 224.65201 285.928 233.315 275.232 244.235 L 121.924 400.76703 L 141.09 420.33002 L 150.67 410.548 L 174.627 435.009 L 165.046 444.79 L 189.002 469.25 L 198.583 459.467 L 227.32901 488.81903 L 217.749 498.601 L 241.70598 523.061 L 251.287 513.278 L 275.243 537.734 L 265.662 547.517 L 284.828 567.085 L 438.136 410.553 C 459.732 388.49402 471.862 358.58 471.86 327.391 C 471.857 296.201 459.72098 266.29 438.12103 244.235 Z"/>
    </g>
    <path fill="#d7d7d7" stroke="none" d="M 594.331 233.12398 C 575.692 214.098 551.227 202.173 525.017 199.339 C 498.808 196.504 472.43802 202.931 450.309 217.547 C 474.281 245.33 486.99698 281.389 485.874 318.398 C 484.75098 355.407 469.87296 390.592 444.263 416.807 L 374.492 488.04498 L 397.90503 511.95004 L 407.48596 502.16904 L 431.44202 526.627 L 421.861 536.409 L 441.027 555.978 L 594.336 399.447 C 615.935 377.38998 628.069 347.47504 628.068 316.284 C 628.067 285.093 615.932 255.18001 594.331 233.12398 Z"/>
    <path fill="#ffffff" stroke="none" d="M 594.331 233.12398 C 575.692 214.098 551.227 202.173 525.017 199.339 C 498.808 196.504 472.43802 202.931 450.309 217.547 C 474.281 245.33 486.99698 281.389 485.874 318.398 C 484.75098 355.407 469.87296 390.592 444.263 416.807 L 374.492 488.044 L 384.66296 498.43 L 394.24304 488.64697 L 431.44202 526.627 L 421.861 536.409 L 427.78003 542.453 L 581.09 385.922 C 626.071 339.99 639.312 279.05 594.331 233.12398 Z"/>
    <path fill="#d7d7d7" stroke="none" d="M 424.894 230.71 C 414.19897 219.789 401.502 211.12698 387.52704 205.217 C 373.55304 199.30699 358.57602 196.265 343.45 196.265 C 328.324 196.265 313.347 199.30699 299.372 205.217 C 285.398 211.12698 272.7 219.789 262.005 230.71 L 108.696 387.241 L 127.856995 406.81 L 137.438 397.027 L 161.394 421.489 L 151.813 431.271 L 175.77 455.73 L 185.35 445.949 L 214.097 475.30002 L 204.516 485.081 L 228.47302 509.54095 L 238.053 499.758 L 262.01 524.218 L 252.429 534.001 L 271.595 553.569 L 424.903 397.03796 C 446.50098 374.979 458.63303 345.063 458.631 313.872 C 458.63004 282.681 446.494 252.76701 424.894 230.71 Z"/>
    <path fill="#ffffff" stroke="none" d="M 424.894 230.71 C 414.19897 219.789 401.502 211.12698 387.52704 205.217 C 373.55304 199.30699 358.57602 196.265 343.45 196.265 C 328.324 196.265 313.347 199.30699 299.372 205.217 C 285.398 211.12698 272.701 219.789 262.005 230.71 L 108.696 387.241 L 114.615 393.284 L 124.19601 383.502 L 161.394 421.483 L 151.813 431.266 L 162.522 442.2 L 172.103 432.418 L 214.092 475.28897 L 204.512 485.071 L 215.22101 496.006 L 224.801 486.22302 L 262 524.205 L 252.419 533.987 L 258.338 540.029 L 411.647 383.498 C 456.63297 337.575 469.876 276.636 424.894 230.71 Z"/>
</svg>
