<svg width="200" height="200" xmlns="http://www.w3.org/2000/svg">
    <defs>
        <radialGradient id="paint0_radial_1699_34147" cx="0" cy="0" r="1" fx="0" fy="0" gradientUnits="userSpaceOnUse" gradientTransform="matrix(200.0002 200.0002 -134.47545 134.47545 0 0)">
            <stop offset="0" stop-color="#79a5c6"/>
            <stop offset="0.616783" stop-color="#2a4874"/>
        </radialGradient>
        <filter id="filter0_d_1699_34147" x="47.6" y="49.6001" width="104.796" height="101.2" filterUnits="userSpaceOnUse">
            <feFlood color-interpolation-filters="sRGB" flood-color="#000000" flood-opacity="0" result="BackgroundImageFix"/>
            <feColorMatrix color-interpolation-filters="sRGB" in="SourceAlpha" result="hardAlpha" type="matrix" values="0 0 0 0 0 0 0 0 0 0 0 0 0 0 0 0 0 0 127 0"/>
            <feOffset color-interpolation-filters="sRGB" in="hardAlpha" dx="0" dy="4" result="result3"/>
            <feGaussianBlur color-interpolation-filters="sRGB" in="result3" stdDeviation="2 2" result="result4"/>
            <feComposite color-interpolation-filters="sRGB" in="result4" in2="hardAlpha" operator="out" result="result5"/>
            <feColorMatrix color-interpolation-filters="sRGB" in="result5" result="result6" type="matrix" values="0 0 0 0 0 0 0 0 0 0 0 0 0 0 0 0 0 0 0.25 0"/>
            <feBlend color-interpolation-filters="sRGB" in="result6" in2="BackgroundImageFix" mode="normal" result="effect1_dropShadow_1699_34147"/>
            <feBlend color-interpolation-filters="sRGB" in="SourceGraphic" in2="effect1_dropShadow_1699_34147" mode="normal" result="shape"/>
        </filter>
        <clipPath id="clip0_1699_34147">
            <path fill="#000000" stroke="none" d="M 0 0 L 200 0 L 200 200 L 0 200 Z"/>
        </clipPath>
    </defs>
    <g clip-path="url(#clip0_1699_34147)">
        <path fill="url(#paint0_radial_1699_34147)" stroke="none" d="M 100 200 C 155.228 200 200 155.228 200 100 C 200 44.771503 155.228 0 100 0 C 44.771503 0 0 44.771503 0 100 C 0 155.228 44.771503 200 100 200 Z"/>
        <g filter="url(#filter0_d_1699_34147)">
            <path fill="#ffffff" stroke="none" d="M 93.49559 52.298103 C 92.45279 53.3461 91.6872 54.6205 91.2464 56.006504 L 62.9948 131.258 L 51.6 131.258 L 51.6 142.8 L 73.1804 142.8 L 81.4964 119.848 L 85.454 108.31 L 99.8408 67.4545 L 126.374 142.8 L 148.396 142.8 L 148.396 131.258 L 136.956 131.258 L 108.707 56.0041 C 108.26599 54.6193 107.50099 53.3453 106.458 52.298103 C 104.73999 50.5705 102.408 49.6001 99.9772 49.6001 C 97.546 49.6001 95.2148 50.5705 93.49559 52.298103 Z"/>
        </g>
    </g>
</svg>
