<svg width="1395.32" height="1395.32" xmlns="http://www.w3.org/2000/svg">
    <g id="Layer_1-2">
        <g>
            <path fill="#89ff55" stroke="none" d="M 1395.32 697.66 C 1395.32 882.691 1321.8167 1060.1434 1190.9801 1190.9801 C 1060.1434 1321.8167 882.691 1395.32 697.66 1395.32 C 512.629 1395.32 335.1765 1321.8167 204.33987 1190.9801 C 73.50325 1060.1434 0 882.691 0 697.66 C 0 512.629 73.50325 335.1765 204.33987 204.33987 C 335.1765 73.50325 512.629 0 697.66 0 C 882.691 0 1060.1434 73.50325 1190.9801 204.33987 C 1321.8167 335.1765 1395.32 512.629 1395.32 697.66 Z"/>
            <g>
                <path fill="#000000" stroke="none" d="M 709.81 788.71 C 708.12 783.31006 706.01996 777.94 703.49994 772.63007 C 679.83 722.89 623.9 695.27 570.05 706.86 C 498.93 722.17004 458.49 794.92 480.56 862.18 C 490.51 892.52 511.37997 916.22 537.37 930.37006 C 566.56 946.25 584.97 975.78 586.99 1008.95 C 588.04 1026.14 592.05 1043.52 599.36 1060.46 C 628.75 1128.55 705.04 1165.67 776.81 1146.98 C 862.49994 1124.67 910.39 1035.23 883.21 952.4 C 866.52 901.53 825.54 865.44 777.3499 852.76 C 745.39 844.35004 719.68 820.24994 709.81 788.71 Z"/>
                <path fill="#000000" stroke="none" d="M 920.8 527.79 C 920.8 589.4471 870.8171 639.43 809.16 639.43 C 747.50287 639.43 697.51996 589.4471 697.51996 527.79 C 697.51996 466.1329 747.50287 416.14996 809.16 416.14996 C 870.8171 416.14996 920.8 466.1329 920.8 527.79 Z"/>
                <path fill="#000000" stroke="none" d="M 674.82996 290.37 C 674.82996 316.25006 653.85004 337.22998 627.97 337.22998 C 602.0899 337.22998 581.11 316.25006 581.11 290.37 C 581.11 264.48993 602.0899 243.51001 627.97 243.50998 C 653.85004 243.51001 674.82996 264.48993 674.82996 290.37 Z"/>
            </g>
        </g>
    </g>
</svg>
