<svg width="1000" height="1000" xmlns="http://www.w3.org/2000/svg">
    <defs>
        <linearGradient id="linearGradient129281" x1="731.98584" y1="689.01733" x2="874.766" y2="659.1066" gradientUnits="userSpaceOnUse" gradientTransform="matrix(1 0 0 1 72.12489 -16.970564)">
            <stop offset="0" stop-color="#f0ff9b"/>
            <stop offset="1" stop-color="#f0ff9b" stop-opacity="0"/>
        </linearGradient>
        <linearGradient id="linearGradient129469" x1="216.99101" y1="479.66312" x2="137.66711" y2="353.79114" gradientUnits="userSpaceOnUse" gradientTransform="matrix(1 0 0 1 72.12489 -16.970564)">
            <stop offset="0" stop-color="#f0ff9b"/>
            <stop offset="1" stop-color="#f0ff9b" stop-opacity="0"/>
        </linearGradient>
        <linearGradient id="linearGradient129657" x1="609.6637" y1="638.2812" x2="737.8696" y2="674.81177" gradientUnits="userSpaceOnUse" gradientTransform="matrix(1 0 0 1 72.12489 -16.970564)">
            <stop offset="0" stop-color="#f0ff9b"/>
            <stop offset="1" stop-color="#f0ff9b" stop-opacity="0"/>
        </linearGradient>
        <linearGradient id="linearGradient129839" x1="339.2679" y1="529.5792" x2="235.58159" y2="434.7565" gradientUnits="userSpaceOnUse" gradientTransform="matrix(1 0 0 1 72.12489 -16.970564)">
            <stop offset="0" stop-color="#f0ff9b"/>
            <stop offset="1" stop-color="#f0ff9b" stop-opacity="0"/>
        </linearGradient>
        <linearGradient id="linearGradient130043" x1="385.13416" y1="798.9288" x2="277.3659" y2="1058.3134" gradientUnits="userSpaceOnUse" gradientTransform="matrix(1 0 0 1 72.12489 -16.970564)">
            <stop offset="0" stop-color="#f0ff9b"/>
            <stop offset="1" stop-color="#f0ff9b" stop-opacity="0"/>
        </linearGradient>
        <linearGradient id="linearGradient130225" x1="635.33545" y1="191.16678" x2="710.64233" y2="10.854552" gradientUnits="userSpaceOnUse" gradientTransform="matrix(1 0 0 1 72.12489 -16.970564)">
            <stop offset="0" stop-color="#f0ff9b"/>
            <stop offset="1" stop-color="#f0ff9b" stop-opacity="0"/>
        </linearGradient>
    </defs>
    <g transform="matrix(3.7795274 0 0 3.7795274 0 0)">
        <g id="layer1">
            <g transform="matrix(0 -1 1 0 0 0)">
                <path id="circle13892" fill="#232832" stroke="none" d="M 0 132.29167 C 0 205.35434 -59.229 264.58334 -132.29167 264.58334 C -205.35434 264.58334 -264.58334 205.35434 -264.58334 132.29167 C -264.58334 59.229 -205.35434 0 -132.29167 0 C -59.229 0 0 59.229 0 132.29167 Z"/>
            </g>
            <g id="g13890" transform="matrix(0.22316046 0 0 -0.22316046 0.4688979 248.97585)">
                <path id="path39170" fill="url(#linearGradient129281)" stroke="none" d="M 794.7763 704.0607 C 786.7675 704.02606 778.5138 703.7459 770.079 703.2682 C 786.61847 696.08594 798.45087 685.70935 804.1102 672.0465 L 815.8789 643.63586 C 895.47876 644.6865 953.7867 624.32513 971.62103 582.4083 L 971.6315 582.4083 L 946.89185 642.13586 C 929.64325 683.7778 872.7752 704.38995 794.7764 704.05334 Z"/>
                <path id="path46558" fill="url(#linearGradient129469)" stroke="none" d="M 289.8622 503.48697 C 223.35597 443.5593 190.92657 382.3389 209.78214 336.81702 L 234.52187 277.08508 L 234.53217 277.08508 C 217.4383 319.49655 244.6577 375.37122 302.18304 431.1193 L 289.50336 461.72717 C 284.33856 474.19604 284.73083 488.36035 289.86227 503.48697 Z"/>
                <path id="rect40323" fill="url(#linearGradient129657)" stroke="none" d="M 697.92004 715.264 C 648.4449 715.05035 586.7815 702.71826 522.6295 678.3953 L 527.922 666.97394 C 540.65106 670.30804 553.7519 672.0126 566.9103 672.0467 C 572.86945 672.0372 578.82306 671.68506 584.7418 670.992 C 584.9249 670.97284 585.10803 670.9533 585.29114 670.9334 C 591.13696 670.2335 596.9383 669.202 602.6671 667.84406 C 602.8782 667.7942 603.0891 667.7439 603.2999 667.6932 C 609.06964 666.3062 614.7552 664.59 620.32874 662.55304 C 620.4 662.52625 620.4713 662.4994 620.5426 662.4725 C 643.4026 654.06696 663.9679 640.40796 680.5807 622.5965 C 761.6666 634.57697 824.4733 621.8157 840.4963 584.15607 L 840.5052 584.15607 L 804.1008 672.04376 C 792.0609 701.11066 752.3666 715.49896 697.92163 715.264 Z"/>
                <path id="path46688" fill="url(#linearGradient129839)" stroke="none" d="M 482.84833 664.7088 C 352.11456 605.5535 266.5923 517.0394 289.5036 461.72684 L 325.90936 373.84503 L 325.91956 373.84503 C 310.63046 411.77753 345.9612 465.1632 411.68033 513.9998 C 411.54086 515.79126 411.43237 517.585 411.35513 519.38025 C 411.35953 519.39087 411.36395 519.40155 411.36832 519.41223 C 411.49002 574.4566 440.70935 625.3332 488.19205 653.1773 Z"/>
                <path id="path8969" fill="url(#linearGradient130043)" stroke="none" d="M 385.5897 1056.3999 L 313.39194 1026.2856 L 538.1862 507.51657 C 558.79663 521.0905 581.41046 525.4195 601.12616 533.5878 Z"/>
                <path id="path9138" fill="url(#linearGradient130225)" stroke="none" d="M 773.547 -10.657422 L 793.86414 -2.245422 L 641.9923 407.85376 L 591.7043 385.22095 L 773.547 -10.657422"/>
                <g id="g2819" transform="matrix(1 0 0 1 527.8302 623.9515)">
                    <path id="path2817" fill="#f0ff9b" stroke="none" d="M 0 0 C 59.3 21.582998 124.868 -8.992 146.451 -68.291 C 168.034 -127.591 137.459 -193.159 78.16 -214.74199 C 18.86 -236.32498 -46.708 -205.75 -68.291 -146.451 C -89.874 -87.151 -59.3 -21.582998 0 0"/>
                </g>
                <path id="rect2487" fill="#f0ff9b" stroke="none" d="M 946.8909 642.1361 L 946.8809 642.1321 C 980.4689 558.79724 843.6027 423.3881 640.5484 339.28006 C 437.4939 255.17256 244.969 254.14275 209.792 336.8206 L 209.78201 336.8166 L 234.5218 277.08905 C 234.5218 277.08807 234.5218 277.08704 234.5218 277.08606 C 269.0188 193.80199 461.99188 194.63437 665.53894 278.94635 C 869.08594 363.25836 1006.1282 499.12088 971.63116 582.4049 Z"/>
                <path id="rect2292" fill="#f0ff9b" stroke="none" d="M 804.1107 672.0468 L 804.10065 672.04376 C 827.5467 613.8738 732.011 519.3563 590.273 460.64633 L 590.283 460.64633 C 448.545 401.93634 314.15732 401.2185 289.60342 458.92953 L 289.5934 458.92654 L 325.9977 371.0388 C 350.0777 312.9048 484.77658 313.48615 626.8575 372.3381 C 768.93866 431.1891 864.5967 526.02496 840.5167 584.15894 Z"/>
            </g>
        </g>
    </g>
</svg>
