<svg width="500" height="500" xmlns="http://www.w3.org/2000/svg">
    <path fill="#2b2b2b" stroke="none" d="M 0 0 C 165 0 330 0 500 0 C 500 165 500 330 500 500 C 335 500 170 500 0 500 C 0 335 0 170 0 0 Z"/>
    <g transform="matrix(1 0 0 1 330.9375 165.6875)">
        <path fill="#836c61" stroke="none" d="M 0 0 C 1.185293 -0.01611328 2.370586 -0.03222656 3.5917969 -0.04882812 C 14.3024 -0.05470339 23.843832 1.7371162 33.375 6.6875 C 35.130703 7.596289 35.130703 7.596289 36.921875 8.5234375 C 39.499256 9.991647 41.7916 11.496505 44.125 13.312501 C 45.094376 13.972501 46.063747 14.632499 47.062504 15.312501 C 48.712498 14.9825 50.3625 14.6525 52.0625 14.312501 C 53.5475 8.8675 53.5475 8.8675 55.062504 3.3124998 C 56.712498 3.3124998 58.3625 3.3124998 60.0625 3.3124998 C 60.147022 15.46615 59.879433 27.601145 59.5625 39.75 C 59.51415 41.6569 59.465973 43.563797 59.41797 45.470703 C 59.301453 50.084686 59.182632 54.69861 59.062504 59.3125 C 57.412502 59.3125 55.762497 59.3125 54.0625 59.3125 C 53.807266 57.572266 53.807266 57.572266 53.546875 55.796875 C 51.27195 40.86567 48.748672 26.109882 36.375 16 C 24.603014 8.129587 13.013815 6.6079564 -0.7734375 8.753906 C -10.215554 11.387761 -16.535574 18.221737 -21.375 26.421875 C -31.528074 45.205063 -33.348812 64.51102 -33.25 85.5 C -33.248177 86.30721 -33.246353 87.11443 -33.244476 87.946106 C -33.16265 109.52233 -32.490036 135.46388 -17.058594 152.3711 C -11.509699 157.59422 -6.0256104 160.36333 1.625 160.6875 C 6.8821483 160.48775 11.233516 159.26341 14.9375 155.3125 C 17.223967 151.24767 17.237867 147.49973 17.265625 142.96875 C 17.271324 142.24442 17.277025 141.52008 17.282898 140.7738 C 17.292343 139.23724 17.29888 137.70065 17.302734 136.16406 C 17.31235 133.84859 17.343338 131.53403 17.375 129.21875 C 17.675224 115.1682 17.675224 115.1682 12 102.75 C 7.8195148 100.70424 3.623975 100.06162 -0.9375 99.3125 C -2.2743485 98.99355 -3.6091814 98.66529 -4.9375 98.3125 C -4.9375 96.9925 -4.9375 95.6725 -4.9375 94.3125 C 20.4725 94.3125 45.8825 94.3125 72.0625 94.3125 C 71.7325 95.9625 71.4025 97.6125 71.0625 99.3125 C 69.40177 99.99383 67.73473 100.65992 66.0625 101.3125 C 64.19614 104.92292 63.79821 107.99266 63.743652 112.02076 C 63.72378 113.14153 63.703915 114.26232 63.68344 115.41707 C 63.67189 116.616196 63.66034 117.815315 63.648434 119.05078 C 63.62907 120.28668 63.609707 121.52258 63.58975 122.79594 C 63.540173 126.06902 63.49887 129.34206 63.461605 132.6153 C 63.421474 135.96043 63.370266 139.30539 63.320316 142.65039 C 63.22433 149.20432 63.139263 155.75832 63.062504 162.3125 C 61.7425 162.3125 60.4225 162.3125 59.062504 162.3125 C 58.64678 161.13881 58.64678 161.13881 58.22266 159.9414 C 57.860428 158.92949 57.498203 157.91757 57.125004 156.875 C 56.765347 155.86566 56.405704 154.85632 56.035152 153.8164 C 55.29372 151.40936 55.29372 151.40936 54.0625 150.3125 C 47.52605 150.27272 42.27619 152.22868 36.5 155.0625 C 28.209196 158.94647 19.871649 161.85143 11.0625 164.3125 C 10.433196 164.49281 9.803891 164.67311 9.155518 164.85889 C 5.0454173 165.74965 0.81362695 165.50314 -3.375 165.5 C -4.3611326 165.49992 -5.3472657 165.49983 -6.3632813 165.49976 C -13.75291 165.44217 -20.685879 164.77348 -27.9375 163.3125 C -32.273514 162.47926 -36.355232 162.19064 -40.769043 162.19897 C -41.42341 162.19882 -42.077774 162.19868 -42.75197 162.19853 C -44.894577 162.19922 -47.03709 162.20699 -49.179688 162.21484 C -50.67327 162.2167 -52.16685 162.21814 -53.66043 162.21913 C -57.57635 162.22293 -61.49224 162.23274 -65.40814 162.24384 C -69.41011 162.25409 -73.41209 162.25864 -77.41406 162.26367 C -85.255226 162.27437 -93.09636 162.29143 -100.9375 162.3125 C -100.9375 160.6625 -100.9375 159.0125 -100.9375 157.3125 C -99.70773 157.16554 -99.70773 157.16554 -98.453125 157.01563 C -96.83664 156.79132 -96.83664 156.79132 -95.1875 156.5625 C -93.58649 156.35367 -93.58649 156.35367 -91.953125 156.14063 C -88.48481 155.18819 -87.15103 154.10527 -84.9375 151.3125 C -83.68223 147.54668 -83.77512 144.01738 -83.76953 140.09375 C -83.766205 139.28064 -83.76287 138.46751 -83.759445 137.62976 C -83.75438 135.90488 -83.75204 134.17998 -83.7522 132.45508 C -83.75003 129.85008 -83.731926 127.24554 -83.71289 124.640625 C -83.687256 116.88446 -83.825874 109.59556 -85.4812 101.98682 C -86.45195 96.29739 -86.22323 90.50474 -86.1875 84.75 C -86.195244 83.50025 -86.20297 82.25051 -86.21094 80.96289 C -86.19982 75.6693 -86.15988 70.64399 -84.92969 65.48047 C -83.24914 58.185837 -83.72772 50.628845 -83.8125 43.187504 C -83.822556 41.643234 -83.83167 40.098965 -83.83984 38.554688 C -83.861664 34.807156 -83.896065 31.059872 -83.9375 27.3125 C -84.27669 28.200666 -84.61587 29.088829 -84.96533 30.003906 C -96.33531 59.75453 -107.96908 89.399994 -119.64496 119.03168 C -120.88706 122.18448 -122.12849 125.33754 -123.36963 128.49072 C -125.16993 133.06438 -126.971214 137.63762 -128.77368 142.21042 C -129.41942 143.84877 -130.06494 145.48723 -130.7102 147.12576 C -131.5832 149.34203 -132.45741 151.55782 -133.33203 153.77344 C -134.05676 155.61108 -134.05676 155.61108 -134.79614 157.48584 C -135.9375 160.3125 -135.9375 160.3125 -136.9375 162.3125 C -138.2575 162.3125 -139.5775 162.3125 -140.9375 162.3125 C -152.17528 136.9118 -163.38298 111.49823 -174.53859 86.06134 C -177.29752 79.77063 -180.05843 73.48081 -182.82031 67.19141 C -183.22437 66.271255 -183.62842 65.351105 -184.04472 64.403076 C -185.6123 60.833294 -187.17992 57.26352 -188.74759 53.693787 C -189.81488 51.26335 -190.88208 48.832855 -191.9492 46.402344 C -192.2496 45.71838 -192.55002 45.034412 -192.85953 44.329727 C -196.22647 36.660652 -199.5812 28.986237 -202.93752 21.3125 C -202.98442 35.543297 -203.01945 49.77408 -203.04112 64.00494 C -203.05151 70.614 -203.06563 77.223 -203.08838 83.83203 C -203.11023 90.218704 -203.1221 96.605316 -203.12726 102.99201 C -203.13094 105.41986 -203.1381 107.84771 -203.14896 110.275536 C -204.72348 132.64954 -204.72348 132.64954 -196.9375 152.3125 C -192.05733 155.56595 -186.62785 156.35661 -180.9375 157.3125 C -180.9375 158.9625 -180.9375 160.6125 -180.9375 162.3125 C -195.45749 162.3125 -209.9775 162.3125 -224.9375 162.3125 C -224.9375 160.6625 -224.9375 159.0125 -224.9375 157.3125 C -224.03258 156.9838 -224.03258 156.9838 -223.10936 156.64844 C -217.67485 154.49216 -214.49464 152.8359 -211.9375 147.3125 C -209.90819 139.99403 -209.64546 132.8081 -209.66283 125.256836 C -209.65773 124.094574 -209.65262 122.932335 -209.64735 121.73486 C -209.63354 117.92215 -209.6344 114.10961 -209.63672 110.296875 C -209.63382 108.30848 -209.6309 106.320076 -209.62732 104.33168 C -209.61626 98.09383 -209.61575 91.856026 -209.62183 85.618164 C -209.6279 79.19576 -209.61551 72.773575 -209.59424 66.35121 C -209.57663 60.818886 -209.57063 55.28663 -209.57391 49.754288 C -209.57568 46.4577 -209.5718 43.161304 -209.55919 39.86474 C -209.54686 36.193184 -209.55359 32.522133 -209.56519 28.850586 C -209.55754 27.765781 -209.54991 26.680973 -209.54202 25.563295 C -209.58032 20.08395 -209.75703 16.005182 -212.9375 11.312501 C -214.77876 10.022946 -214.77876 10.022946 -216.87502 9.5 C -217.54402 9.287305 -218.21304 9.07461 -218.90234 8.855469 C -220.90932 8.320021 -222.91945 7.804592 -224.9375 7.3125 C -224.9375 5.9925 -224.9375 4.6725 -224.9375 3.3124998 C -203.4875 3.3124998 -182.0375 3.3124998 -159.9375 3.3124998 C -150.74155 21.70442 -150.74155 21.70442 -147.27344 29.593752 C -146.8782 30.484478 -146.48299 31.375204 -146.07578 32.292923 C -144.81761 35.131145 -143.56491 37.971733 -142.3125 40.8125 C -141.43678 42.791374 -140.5608 44.770134 -139.68457 46.74878 C -132.38405 63.24738 -125.13795 79.76999 -117.9375 96.31251 C -116.275986 93.82023 -115.278015 91.87329 -114.220215 89.12452 C -113.891075 88.27465 -113.56192 87.42479 -113.222786 86.54918 C -112.86826 85.62287 -112.51372 84.69656 -112.14844 83.74219 C -111.77242 82.76871 -111.39642 81.79523 -111.00901 80.79225 C -109.77359 77.59191 -108.543106 74.389694 -107.3125 71.1875 C -106.031 67.864784 -104.748184 64.54258 -103.46535 61.220383 C -102.590935 58.95558 -101.71694 56.690617 -100.84337 54.42549 C -96.50878 43.188644 -92.1336 31.967794 -87.75 20.75 C -87.0545 18.96925 -86.35902 17.18849 -85.663574 15.407715 C -84.08881 11.375741 -82.51339 7.3440294 -80.9375 3.3124998 C -80.26035 3.304413 -79.583206 3.2963264 -78.885544 3.2879941 C -71.7955 3.2014937 -64.70573 3.1019738 -57.61597 2.9951172 C -54.975063 2.9569907 -52.334106 2.9221103 -49.69312 2.890625 C -45.882477 2.8446183 -42.072163 2.7866838 -38.26172 2.7265625 C -37.093563 2.7150111 -35.925404 2.7034597 -34.721848 2.6915588 C -28.418928 2.5797732 -22.51881 2.009553 -16.340378 0.7631836 C -10.949402 -0.24794754 -5.464424 -0.01480874 0 0 Z"/>
    </g>
    <g transform="matrix(1 0 0 1 330.9375 165.6875)">
        <path fill="#514f4f" stroke="none" d="M 0 0 C 1.185293 -0.01611328 2.370586 -0.03222656 3.5917969 -0.04882812 C 14.3024 -0.05470339 23.843832 1.7371162 33.375 6.6875 C 35.130703 7.596289 35.130703 7.596289 36.921875 8.5234375 C 39.499256 9.991647 41.7916 11.496505 44.125 13.312501 C 45.579063 14.3025 45.579063 14.3025 47.062504 15.312501 C 49.5375 14.8175 49.5375 14.8175 52.0625 14.312501 C 53.0525 10.6825 54.0425 7.0525 55.062504 3.3124998 C 56.712498 3.3124998 58.3625 3.3124998 60.0625 3.3124998 C 60.147022 15.46615 59.879433 27.601145 59.5625 39.75 C 59.51415 41.6569 59.465973 43.563797 59.41797 45.470703 C 59.301453 50.084686 59.182632 54.69861 59.062504 59.3125 C 57.412502 59.3125 55.762497 59.3125 54.0625 59.3125 C 53.892345 58.152344 53.722187 56.99219 53.546875 55.796875 C 51.27195 40.86567 48.748672 26.109882 36.375 16 C 24.603014 8.129587 13.013815 6.6079564 -0.7734375 8.753906 C -10.215554 11.387761 -16.535574 18.221737 -21.375 26.421875 C -31.528074 45.205063 -33.348812 64.51102 -33.25 85.5 C -33.248177 86.30721 -33.246353 87.11443 -33.244476 87.946106 C -33.16265 109.52233 -32.490036 135.46388 -17.058594 152.3711 C -11.509699 157.59422 -6.0256104 160.36333 1.625 160.6875 C 6.8821483 160.48775 11.233516 159.26341 14.9375 155.3125 C 17.223967 151.24767 17.237867 147.49973 17.265625 142.96875 C 17.274176 141.88225 17.274176 141.88225 17.282898 140.7738 C 17.292343 139.23724 17.29888 137.70065 17.302734 136.16406 C 17.31235 133.84859 17.343338 131.53403 17.375 129.21875 C 17.675224 115.1682 17.675224 115.1682 12 102.75 C 7.8195148 100.70424 3.623975 100.06162 -0.9375 99.3125 C -2.2743485 98.99355 -3.6091814 98.66529 -4.9375 98.3125 C -4.9375 96.9925 -4.9375 95.6725 -4.9375 94.3125 C 20.4725 94.3125 45.8825 94.3125 72.0625 94.3125 C 71.7325 95.9625 71.4025 97.6125 71.0625 99.3125 C 69.40177 99.99383 67.73473 100.65992 66.0625 101.3125 C 64.19614 104.92292 63.79821 107.99266 63.743652 112.02076 C 63.72378 113.14153 63.703915 114.26232 63.68344 115.41707 C 63.67189 116.616196 63.66034 117.815315 63.648434 119.05078 C 63.62907 120.28668 63.609707 121.52258 63.58975 122.79594 C 63.540173 126.06902 63.49887 129.34206 63.461605 132.6153 C 63.421474 135.96043 63.370266 139.30539 63.320316 142.65039 C 63.22433 149.20432 63.139263 155.75832 63.062504 162.3125 C 61.7425 162.3125 60.4225 162.3125 59.062504 162.3125 C 58.78535 161.53004 58.5082 160.74757 58.22266 159.9414 C 57.860428 158.92949 57.498203 157.91757 57.125004 156.875 C 56.765347 155.86566 56.405704 154.85632 56.035152 153.8164 C 55.29372 151.40936 55.29372 151.40936 54.0625 150.3125 C 47.52605 150.27272 42.27619 152.22868 36.5 155.0625 C 28.209196 158.94647 19.871649 161.85143 11.0625 164.3125 C 10.433196 164.49281 9.803891 164.67311 9.155518 164.85889 C 5.0453258 165.74968 0.8137074 165.5028 -3.375 165.5 C -4.3567824 165.50064 -5.3385644 165.50128 -6.350098 165.50195 C -13.7210045 165.44856 -20.71073 164.83966 -27.9375 163.3125 C -27.9375 162.9825 -27.9375 162.6525 -27.9375 162.3125 C -25.627499 162.3125 -23.3175 162.3125 -20.9375 162.3125 C -20.9375 160.6625 -20.9375 159.0125 -20.9375 157.3125 C -21.989374 157.35374 -23.04125 157.395 -24.125 157.4375 C -28.677645 157.28824 -31.480774 156.82126 -34.6875 153.5 C -36.967484 149.51003 -37.06361 145.37799 -37.07794 140.861 C -37.083652 139.77881 -37.089363 138.69662 -37.095245 137.58165 C -37.096363 136.40437 -37.09748 135.22711 -37.098633 134.01416 C -37.1036 132.76646 -37.108562 131.51877 -37.113678 130.23326 C -37.125763 126.817894 -37.13324 123.40258 -37.137688 119.9872 C -37.140625 117.8512 -37.14473 115.7152 -37.149193 113.579216 C -37.162857 106.88953 -37.172527 100.19985 -37.176395 93.51016 C -37.180878 85.799774 -37.198433 78.08957 -37.227394 70.379234 C -37.249035 64.41049 -37.2591 58.4418 -37.260437 52.473015 C -37.261482 48.911964 -37.26735 45.351074 -37.285255 41.79006 C -37.304848 37.816525 -37.300438 33.84321 -37.293945 29.869629 C -37.307766 28.109797 -37.307766 28.109797 -37.32187 26.314407 C -37.29073 20.232304 -37.046642 15.615407 -33.9375 10.3125 C -30.775093 8.204229 -29.430925 7.974325 -25.75 7.6875 C -24.848944 7.6127343 -23.947891 7.5379686 -23.01953 7.4609375 C -22.33246 7.4119534 -21.645391 7.362969 -20.9375 7.3125 C -20.9375 5.9925 -20.9375 4.6725 -20.9375 3.3124998 C -22.2575 2.9825 -23.5775 2.6525 -24.9375 2.3125 C -16.57897 0.4520906 -8.547507 -0.02316398 0 0 Z"/>
    </g>
    <g transform="matrix(1 0 0 1 248 189)">
        <path fill="#746259" stroke="none" d="M 0 0 C 0.33 0 0.66 0 1 0 C 1 39.6 1 79.2 1 120 C 0.67 120 0.34 120 0 120 C -0.01981934 119.05794 -0.03963867 118.11587 -0.06005859 117.14526 C -0.13887466 113.59832 -0.2255853 110.05175 -0.3173828 106.50513 C -0.35530284 104.97981 -0.39021483 103.454414 -0.421875 101.92896 C -0.5872926 94.05353 -0.95278424 86.49352 -2.559082 78.755615 C -3.475786 73.02647 -3.2859268 67.22471 -3.25 61.4375 C -3.2577343 60.187756 -3.2654688 58.93801 -3.2734375 57.65039 C -3.2623694 52.384754 -3.235849 47.389034 -1.9882813 42.257813 C -0.1970393 34.48804 -0.8307438 26.36006 -0.9375 18.4375 C -0.96513087 15.947117 -0.9897766 13.456788 -1.0086823 10.966325 C -1.0209388 9.426018 -1.038542 7.885742 -1.0619965 6.3455663 C -1.0789016 4.563671 -1.0446988 2.7814145 -1 1 C -0.67 0.67 -0.34 0.34 0 0 Z"/>
    </g>
    <g transform="matrix(1 0 0 1 247 226)">
        <path fill="#4e4c4c" stroke="none" d="M 0 0 C 0.33 0 0.66 0 1 0 C 1 16.5 1 33 1 50 C 0.67 50 0.34 50 0 50 C -1.9385127 41.434555 -2.3043914 33.19905 -2.25 24.437498 C -2.2577343 23.187754 -2.2654688 21.938007 -2.2734375 20.65039 C -2.258464 13.526781 -1.7639606 6.9121947 0 0 Z"/>
    </g>
</svg>
