<svg width="256" height="256" xmlns="http://www.w3.org/2000/svg">
    <g transform="matrix(1 0 0 1 0 0.00000763)">
        <path id="Ellipse_64" fill="#2b61d1" stroke="none" d="M 256 128 C 256 198.69243 198.69243 256 128 256 C 57.307552 256 0 198.69243 0 128 C 0 57.307552 57.307552 0 128 0 C 198.69243 0 256 57.307552 256 128 Z"/>
        <g id="Group_179" transform="matrix(0.762672 0 0 0.762672 57.841038 47.080505)">
            <g transform="matrix(1 0 0 1 -32.311 13.286)">
                <path id="Path_73" fill="#ffffff" stroke="none" d="M 144.555 190.421 L 125.33101 201.528 L 84.031 177.687 L 102.787 166.855 L 103.25599 166.579 L 103.973 166.992 Z"/>
            </g>
            <g transform="matrix(1 0 0 1 -46.5 -36.06)">
                <path id="Path_74" fill="#ffffff" stroke="none" d="M 232.54 89.76401 L 232.54 112.116 L 191.887 88.647 L 180.862 82.28 L 169.837 88.647 L 118.16 118.483 L 107.13501 124.85 L 107.13501 138.01 L 87.25 126.531 L 76.225 120.164 L 65.2 126.531 L 46.5 137.321 L 46.5 89.76401 L 139.52 36.064 Z"/>
            </g>
            <g transform="matrix(1 0 0 1 -23.815002 -16.396)">
                <path id="Path_75" fill="#ffffff" stroke="none" d="M 209.856 117.919 L 209.856 177.59001 L 158.178 207.425 L 158.109 207.384 L 106.50001 177.59001 L 106.50001 117.919 L 158.178 88.07 Z"/>
            </g>
            <g transform="matrix(1 0 0 1 -46.5 -5.9990005)">
                <path id="Path_76" fill="#ffffff" stroke="none" d="M 105.94999 132.727 L 105.94999 167.041 L 76.225 184.212 L 46.5 167.041 L 46.5 132.727 L 76.225 115.57 Z"/>
            </g>
        </g>
    </g>
</svg>
