<svg width="80" height="80" xmlns="http://www.w3.org/2000/svg">
    <path fill="#ffffff" stroke="none" d="M 80 40 C 80 62.09139 62.09139 80 40 80 C 17.90861 80 0 62.09139 0 40 C -0 17.90861 17.90861 0 40 0 C 62.09139 0 80 17.90861 80 40 Z"/>
    <path fill="#000000" stroke="none" d="M 44.0391 17.2715 L 44.0391 28.1917 L 53.5196 22.723898 L 44.0391 17.2715 Z"/>
    <g opacity="0.9">
        <path fill="#000000" stroke="none" d="M 53.519497 22.7227 L 53.519497 33.6429 L 63.0001 28.1904 L 53.519497 22.7227 Z"/>
    </g>
    <g opacity="0.8">
        <path fill="#000000" stroke="none" d="M 44.0542 28.1914 L 44.0542 39.1116 L 53.5194 33.6439 L 44.0542 28.1914 Z"/>
    </g>
    <g opacity="0.8">
        <path fill="#000000" stroke="none" d="M 53.519497 33.6445 L 53.519497 44.564804 L 63.0001 39.1123 L 53.519497 33.6445 Z"/>
    </g>
    <g opacity="0.8">
        <path fill="#000000" stroke="none" d="M 44.0542 39.1133 L 44.0542 50.0335 L 53.5194 44.565697 L 44.0542 39.1133 Z"/>
    </g>
    <path fill="#000000" stroke="none" d="M 53.519497 44.5625 L 53.519497 55.4827 L 63.0001 50.0303 L 53.519497 44.5625 Z"/>
    <g opacity="0.5">
        <path fill="#000000" stroke="none" d="M 19.5332 27.8242 L 19.5332 38.7444 L 29.0137 33.2767 L 19.5332 27.8242 Z"/>
    </g>
    <g opacity="0.2">
        <path fill="#000000" stroke="none" d="M 31.495098 31.882797 L 31.495098 42.803 L 40.9603 37.3353 L 31.495098 31.882797 Z"/>
    </g>
    <g opacity="0.4">
        <path fill="#000000" stroke="none" d="M 24.464798 38.791 L 24.464798 49.7112 L 33.9454 44.243504 L 24.464798 38.791 Z"/>
    </g>
    <g opacity="0.9">
        <path fill="#000000" stroke="none" d="M 30.7139 47.0312 L 30.7139 57.9515 L 40.1791 52.483704 L 30.7139 47.0312 Z"/>
    </g>
    <g opacity="0.7">
        <path fill="#000000" stroke="none" d="M 43.9624 51.7324 L 43.9624 62.6526 L 53.4429 57.184895 L 43.9624 51.7324 Z"/>
    </g>
    <g opacity="0.9">
        <path fill="#000000" stroke="none" d="M 33.0723 26.4922 L 33.0723 37.4124 L 42.5375 31.96 L 33.0723 26.4922 Z"/>
    </g>
    <g opacity="0.8">
        <path fill="#000000" stroke="none" d="M 44.0385 17.2715 L 44.0385 28.1917 L 34.5732 22.723898 L 44.0385 17.2715 Z"/>
    </g>
    <g opacity="0.7">
        <path fill="#000000" stroke="none" d="M 33.0728 21.8965 L 33.0728 32.8167 L 23.5923 27.364302 L 33.0728 21.8965 Z"/>
    </g>
    <g opacity="0.6">
        <path fill="#000000" stroke="none" d="M 42.5528 27.3184 L 42.5528 38.2386 L 33.0723 32.7708 L 42.5528 27.3184 Z"/>
    </g>
    <path fill="#000000" stroke="none" d="M 31.4491 31.882797 L 31.4491 42.803 L 21.9839 37.3353 L 31.4491 31.882797 Z"/>
    <g opacity="0.6">
        <path fill="#000000" stroke="none" d="M 44.053802 39.1133 L 44.053802 50.0335 L 34.5732 44.565697 L 44.053802 39.1133 Z"/>
    </g>
    <g opacity="0.65">
        <path fill="#000000" stroke="none" d="M 24.4652 41.6543 L 24.4652 52.5592 L 15 47.1068 L 24.4652 41.6543 Z"/>
    </g>
    <path fill="#000000" stroke="none" d="M 63.0001 28.1914 L 63.0001 39.1116 L 53.519497 33.6439 L 63.0001 28.1914 Z"/>
    <g opacity="0.95">
        <path fill="#000000" stroke="none" d="M 53.5194 33.6445 L 53.5194 44.564804 L 44.0542 39.1123 L 53.5194 33.6445 Z"/>
    </g>
    <g opacity="0.9">
        <path fill="#000000" stroke="none" d="M 62.9999 39.1133 L 62.9999 50.0335 L 53.5347 44.565697 L 62.9999 39.1133 Z"/>
    </g>
    <g opacity="0.7">
        <path fill="#000000" stroke="none" d="M 53.5196 44.5625 L 53.5196 55.4827 L 44.0391 50.0303 L 53.5196 44.5625 Z"/>
    </g>
    <g opacity="0.4">
        <path fill="#000000" stroke="none" d="M 41.9405 49.1289 L 41.9405 60.0491 L 32.46 54.5967 L 41.9405 49.1289 Z"/>
    </g>
    <path fill="#000000" stroke="none" d="M 53.5194 22.7227 L 53.5194 33.6429 L 44.0542 28.1904 L 53.5194 22.7227 Z"/>
</svg>
