<svg width="512" height="512" xmlns="http://www.w3.org/2000/svg">
    <g>
        <path fill="#f6b506" fill-rule="evenodd" stroke="none" d="M -0.5 -0.5 C 170.167 -0.5 340.833 -0.5 511.5 -0.5 C 511.5 170.167 511.5 340.833 511.5 511.5 C 486.83298 511.5 462.167 511.5 437.5 511.5 C 436.955 506.951 435.955 502.61804 434.5 498.5 C 434.675 496.379 434.34097 494.379 433.5 492.5 C 433.326 490.139 432.99298 487.806 432.5 485.5 C 432.96796 478.683 431.302 472.683 427.5 467.5 C 427.5 467.167 427.5 466.833 427.5 466.5 C 426.42398 458.19803 424.424 450.198 421.5 442.5 C 424.482 442.037 427.482 441.704 430.5 441.50003 C 430.259 438.001 431.092 437.668 433 440.50003 C 434.365 439.407 434.699 438.074 434 436.5 C 433.094 439.12103 432.594 438.954 432.5 436 C 433.86 433.73004 434.52704 431.22998 434.5 428.5 C 437.547 429.14502 439.713 428.14502 441 425.50003 C 441.309 426.76602 441.809 427.933 442.5 429 C 443.6 429.432 444.267 428.932 444.5 427.5 C 443.211 418.34396 443.211 409.01 444.5 399.5 C 451.124 393.29697 453.79095 385.63 452.5 376.50003 C 451.167 374.167 451.167 371.833 452.5 369.5 C 460.829 365.491 465.16296 358.825 465.5 349.5 C 465.707 346.255 464.207 344.255 461 343.5 C 460.517 342.552 460.35098 341.552 460.5 340.5 C 455.453 340.337 450.453 340.671 445.5 341.5 C 445.739 339.533 445.406 337.699 444.5 336 C 445.849 335.228 446.68198 334.061 447 332.5 C 447.333 332.833 447.667 333.167 448 333.5 C 449.989 328.039 452.15497 322.706 454.49997 317.5 C 457.501 314.668 460.667 312.002 464 309.5 C 465.515 305.144 467.015 300.81 468.5 296.5 C 470.335 295.878 471.502 294.544 472 292.5 C 472.414 292.957 472.914 293.291 473.50003 293.5 C 476.28598 287.156 477.11996 280.489 476 273.5 C 474.01196 270.444 471.178 268.777 467.5 268.5 C 466.833 268.5 466.5 268.167 466.5 267.5 C 466.069 264.551 464.902 261.884 463 259.5 C 463.789 252.108 461.28903 246.274 455.49997 242 C 457.50003 241.667 459.5 241.33301 461.5 241 C 460.663 239.989 460.33 238.822 460.5 237.5 C 458.234 237.141 456.40103 237.808 455 239.5 C 452.595 238.726 450.09497 238.226 447.5 238 C 444.88 235.601 441.88 233.934 438.49997 233 C 441.121 232.09401 440.954 231.59398 438 231.5 C 435.914 232.418 433.74704 233.085 431.5 233.5 C 431.63104 232.62398 431.29797 231.95699 430.5 231.5 C 427.59 231.15198 425.59 229.652 424.50003 227 C 426.929 226.549 427.096 225.715 425 224.5 C 423.27402 225.576 421.441 225.743 419.5 225 C 417.88602 222.873 415.88596 221.37302 413.5 220.50002 C 410.815 217.81 408.482 214.80998 406.49997 211.49998 C 406.858 209.07999 407.691 207.08 409 205.5 C 407.66696 206.16699 406.33298 206.833 405 207.5 C 404.308 206.97499 403.808 206.308 403.5 205.5 C 404.681 203.80202 404.681 202.135 403.5 200.5 C 401.52698 198.527 399.527 196.52701 397.5 194.5 C 396.675 193.61401 395.675 193.281 394.5 193.5 C 396.086 190.729 396.586 187.729 396 184.5 C 395.902 186.619 395.069 188.286 393.50003 189.5 C 390.65 187.135 388.816 184.13501 388 180.50002 C 385.09 179.55 383.923 177.55 384.5 174.5 C 383.5 174.5 382.5 174.5 381.5 174.5 C 378.583 170.334 375.916 166.001 373.5 161.5 C 373.5 159.167 373.5 156.833 373.5 154.5 C 372.178 154.67 371.01096 154.337 370 153.5 C 369.667 151.833 369.333 150.167 369 148.5 C 368.667 148.833 368.333 149.167 368 149.5 C 364.696 146.137 362.863 142.137 362.5 137.5 C 360.43503 137.483 358.43497 137.15 356.5 136.5 C 349.461 125.77 341.461 115.77 332.5 106.50001 C 331.545 104.25399 330.878 101.92099 330.5 99.5 C 329.127 99.65671 327.793 99.49 326.5 99 C 321.955 94.953 317.622 90.7864 313.5 86.50001 C 311.257 85.5258 308.924 85.1924 306.5 85.5 C 292.596 79.6234 278.096 77.9568 263 80.5 C 251.238 80.5801 240.405 77.4135 230.5 71 C 222.432 66.642 214.765 61.808598 207.5 56.5 C 207.61098 55.8826 207.944 55.3826 208.5 55 C 206.058 53.890003 203.89102 52.39 202 50.5 C 202.204 47.9265 201.704 45.2599 200.5 42.5 C 200 42.1667 199.5 41.8333 199 41.5 C 197.073 42.861 194.906 43.6943 192.5 44 C 194.769 44.7581 196.936 44.5914 199 43.5 C 199.49 44.7932 199.657 46.1266 199.5 47.5 C 192.48099 46.9948 185.48102 46.3281 178.5 45.5 C 171.492 45.3337 164.492 45.5004 157.5 46 C 155.618 46.198105 153.952 46.6981 152.5 47.5 C 152.167 47.5 151.833 47.5 151.5 47.5 C 148.848 47.4095 146.515 48.076202 144.5 49.5 C 124.435 54.336597 110.102 66.0032 101.49999 84.5 C 99.60311 86.6975 98.6031 89.3642 98.50001 92.5 C 96.4088 100.009 94.0754 107.343 91.5 114.50001 C 90.8826 114.61099 90.3826 114.944 90 115.5 C 88.984695 119.44 88.4847 123.44 88.5 127.5 C 86.9258 134.815 84.5925 141.815 81.5 148.5 C 80.5041 148.414 79.6708 148.748 79 149.5 C 78.5298 151.774 77.5298 153.774 76 155.5 C 75.0862 154.346 74.2529 154.513 73.5 156 C 74.0585 156.725 74.3918 157.558 74.5 158.5 C 73.1064 160.646 72.4397 162.979 72.5 165.5 C 69.8127 165.336 67.146 165.503 64.5 166 C 65.7932 166.49 67.1266 166.657 68.5 166.5 C 68.4249 169.206 68.0916 171.87299 67.5 174.5 C 65.8333 174.5 64.1667 174.5 62.5 174.5 C 62.3187 177.397 62.6521 180.23 63.5 183 C 62.305405 190.488 61.1387 197.988 60 205.5 C 59.333298 206.16699 58.666702 206.833 58 207.5 C 57.5006 212.823 57.334 218.156 57.5 223.5 C 56.7741 231.244 55.7741 238.911 54.5 246.5 C 53.541603 246.953 52.7083 247.619 52 248.5 C 51.5132 260.837 51.013195 273.171 50.5 285.5 C 50.674297 292.535 50.3409 299.535 49.5 306.5 C 47.530197 314.769 46.8636 323.435 47.5 332.5 C 46.5044 345.656 46.1711 358.99 46.5 372.5 C 44.3428 374.412 42.0094 376.07898 39.5 377.50003 C 35.9517 378.702 32.285 379.369 28.499998 379.5 C 28.499998 381.5 28.499998 383.5 28.499998 385.5 C 27.1667 385.5 25.8333 385.5 24.499998 385.5 C 23.676098 389.065 21.3428 391.06497 17.5 391.49997 C 18.3094 393.071 18.6427 394.738 18.5 396.5 C 11.7398 405.919 5.4065 415.58603 -0.5 425.50003 C -0.5 283.5 -0.5 141.5 -0.5 -0.5 Z"/>
    </g>
    <g>
        <path fill="#e3ab29" fill-rule="evenodd" stroke="none" d="M 207.5 56.5 C 198.676 50.7806 189.009 47.4473 178.5 46.5 C 178.5 46.1667 178.5 45.8333 178.5 45.5 C 185.48102 46.3281 192.48099 46.9948 199.5 47.5 C 199.657 46.1266 199.49 44.7932 199 43.5 C 196.936 44.5914 194.769 44.7581 192.5 44 C 194.906 43.6943 197.073 42.861 199 41.5 C 199.5 41.8333 200 42.1667 200.5 42.5 C 201.704 45.2599 202.204 47.9265 202 50.5 C 203.89102 52.39 206.058 53.890003 208.5 55 C 207.944 55.3826 207.61098 55.8826 207.5 56.5 Z"/>
    </g>
    <g>
        <path fill="#694f1d" fill-rule="evenodd" stroke="none" d="M 178.5 45.5 C 178.5 45.8333 178.5 46.1667 178.5 46.5 C 169.815 46.464 161.149 46.797398 152.5 47.5 C 153.952 46.6981 155.618 46.198105 157.5 46 C 164.492 45.5004 171.492 45.3337 178.5 45.5 Z"/>
    </g>
    <g>
        <path fill="#5f3f18" fill-rule="evenodd" stroke="none" d="M 151.5 47.5 C 149.485 48.9238 147.152 49.590504 144.5 49.5 C 146.515 48.076202 148.848 47.4095 151.5 47.5 Z"/>
    </g>
    <g>
        <path fill="#dcac2d" fill-rule="evenodd" stroke="none" d="M 306.5 85.5 C 308.924 85.1924 311.257 85.5258 313.5 86.50001 C 317.622 90.7864 321.955 94.953 326.5 99 C 327.793 99.49 329.127 99.65671 330.5 99.5 C 330.878 101.92099 331.545 104.25399 332.5 106.50001 C 324.526 98.5298 315.859 91.5298 306.5 85.5 Z"/>
    </g>
    <g>
        <path fill="#a28237" fill-rule="evenodd" stroke="none" d="M 101.49999 84.5 C 101.097 87.485504 100.097 90.1522 98.50001 92.5 C 98.6031 89.3642 99.60311 86.6975 101.49999 84.5 Z"/>
    </g>
    <g>
        <path fill="#ce9d34" fill-rule="evenodd" stroke="none" d="M 91.5 114.50001 C 90.6604 118.985 89.66039 123.319 88.5 127.5 C 88.4847 123.44 88.984695 119.44 90 115.5 C 90.3826 114.944 90.8826 114.61099 91.5 114.50001 Z"/>
    </g>
    <g>
        <path fill="#e2b02e" fill-rule="evenodd" stroke="none" d="M 356.5 136.5 C 358.43497 137.15 360.43503 137.483 362.5 137.5 C 362.863 142.137 364.696 146.137 368 149.5 C 368.333 149.167 368.667 148.833 369 148.5 C 369.333 150.167 369.667 151.833 370 153.5 C 371.01096 154.337 372.178 154.67 373.5 154.5 C 373.5 156.833 373.5 159.167 373.5 161.5 C 368.257 152.916 362.59097 144.583 356.5 136.5 Z"/>
    </g>
    <g>
        <path fill="#ecb322" fill-rule="evenodd" stroke="none" d="M 81.5 148.5 C 77.2662 158.633 72.7662 168.633 68 178.5 C 65.7684 184.687 64.2684 191.021 63.5 197.5 C 61.7345 200.123 61.067905 203.123 61.5 206.5 C 60.2625 212.303 58.9291 217.96999 57.5 223.5 C 57.334 218.156 57.5006 212.823 58 207.5 C 58.666702 206.833 59.333298 206.16699 60 205.5 C 61.1387 197.988 62.305405 190.488 63.5 183 C 62.6521 180.23 62.3187 177.397 62.5 174.5 C 64.1667 174.5 65.8333 174.5 67.5 174.5 C 68.0916 171.87299 68.4249 169.206 68.5 166.5 C 67.1266 166.657 65.7932 166.49 64.5 166 C 67.146 165.503 69.8127 165.336 72.5 165.5 C 72.4397 162.979 73.1064 160.646 74.5 158.5 C 74.3918 157.558 74.0585 156.725 73.5 156 C 74.2529 154.513 75.0862 154.346 76 155.5 C 77.5298 153.774 78.5298 151.774 79 149.5 C 79.6708 148.748 80.5041 148.414 81.5 148.5 Z"/>
    </g>
    <g>
        <path fill="#e9b223" fill-rule="evenodd" stroke="none" d="M 381.5 174.5 C 382.5 174.5 383.5 174.5 384.5 174.5 C 383.923 177.55 385.09 179.55 388 180.50002 C 388.816 184.13501 390.65 187.135 393.50003 189.5 C 395.069 188.286 395.902 186.619 396 184.5 C 396.586 187.729 396.086 190.729 394.5 193.5 C 395.675 193.281 396.675 193.61401 397.5 194.5 C 399.527 196.52701 401.52698 198.527 403.5 200.5 C 404.681 202.135 404.681 203.80202 403.5 205.5 C 403.808 206.308 404.308 206.97499 405 207.5 C 406.33298 206.833 407.66696 206.16699 409 205.5 C 407.691 207.08 406.858 209.07999 406.49997 211.49998 C 396.94196 200.068 388.608 187.735 381.5 174.5 Z"/>
    </g>
    <g>
        <path fill="#5c5c64" fill-rule="evenodd" stroke="none" d="M 127.5 59.5 C 119.74601 71.2858 112.58 83.9524 106 97.49999 C 96.55111 128.034 85.2177 157.701 72 186.5 C 59.3852 246.741 53.7185 307.741 55 369.5 C 54.583103 370.75598 53.7498 371.42297 52.5 371.5 C 51.5 371.167 50.8333 370.5 50.5 369.5 C 50.728004 323.334 53.5613 277.334 59 231.5 C 61.8794 214.317 65.5461 197.317 70 180.50002 C 76.8838 166.066 83.2172 151.4 89 136.5 C 92.5759 119.949 96.9092 103.615 102 87.5 C 107.21499 75.1209 115.715004 65.7876 127.5 59.5 Z"/>
    </g>
    <g>
        <path fill="#9a7835" fill-rule="evenodd" stroke="none" d="M 63.5 197.5 C 63.3239 200.727 62.6572 203.727 61.5 206.5 C 61.067905 203.123 61.7345 200.123 63.5 197.5 Z"/>
    </g>
    <g>
        <path fill="#d5a634" fill-rule="evenodd" stroke="none" d="M 413.5 220.50002 C 415.88596 221.37302 417.88602 222.873 419.5 225 C 421.441 225.743 423.27402 225.576 425 224.5 C 427.096 225.715 426.929 226.549 424.50003 227 C 425.59 229.652 427.59 231.15198 430.5 231.5 C 431.29797 231.95699 431.63104 232.62398 431.5 233.5 C 424.377 230.709 418.37704 226.375 413.5 220.50002 Z"/>
    </g>
    <g>
        <path fill="#e8b125" fill-rule="evenodd" stroke="none" d="M 466.5 267.5 C 462.201 262.771 460.36798 257.104 461 250.5 C 457.07904 245.586 452.246 241.753 446.5 239 C 441.216 237.608 436.216 235.775 431.5 233.5 C 433.74704 233.085 435.914 232.418 438 231.5 C 440.954 231.59398 441.121 232.09401 438.49997 233 C 441.88 233.934 444.88 235.601 447.5 238 C 450.09497 238.226 452.595 238.726 455 239.5 C 456.40103 237.808 458.234 237.141 460.5 237.5 C 460.33 238.822 460.663 239.989 461.5 241 C 459.5 241.33301 457.50003 241.667 455.49997 242 C 461.28903 246.274 463.789 252.108 463 259.5 C 464.902 261.884 466.069 264.551 466.5 267.5 Z"/>
    </g>
    <g>
        <path fill="#deaa2f" fill-rule="evenodd" stroke="none" d="M 54.5 246.5 C 53.5158 259.678 52.1824 272.678 50.5 285.5 C 51.013195 273.171 51.5132 260.837 52 248.5 C 52.7083 247.619 53.541603 246.953 54.5 246.5 Z"/>
    </g>
    <g>
        <path fill="#393a40" fill-rule="evenodd" stroke="none" d="M 201.5 56.5 C 175.994 57.254105 155.161 67.2541 139 86.50001 C 134.082 97.5016 130.082 108.835 127 120.5 C 119.748 153.111 112.91501 185.77798 106.50001 218.5 C 101.553 220.279 98.0532 223.613 96 228.50002 C 88.8976 246.747 88.731 265.08 95.5 283.5 C 94.7054 323.94 102.705 362.44 119.5 399 C 118.74799 399.67102 118.414 400.504 118.50001 401.5 C 105.938 397.09 93.6049 392.09 81.5 386.5 C 74.8261 382.661 67.8261 379.661 60.5 377.50003 C 58.2597 375.03397 55.593002 373.034 52.5 371.5 C 53.7498 371.42297 54.583103 370.75598 55 369.5 C 53.7185 307.741 59.3852 246.741 72 186.5 C 85.2177 157.701 96.55111 128.034 106 97.49999 C 112.58 83.9524 119.74601 71.2858 127.5 59.5 C 146.182 48.5274 166.182 45.360806 187.49998 50 C 192.60101 51.5194 197.268 53.686096 201.5 56.5 Z"/>
    </g>
    <g>
        <path fill="#1c130e" fill-rule="evenodd" stroke="none" d="M 178.5 46.5 C 189.009 47.4473 198.676 50.7806 207.5 56.5 C 214.765 61.808598 222.432 66.642 230.5 71 C 240.405 77.4135 251.238 80.5801 263 80.5 C 278.096 77.9568 292.596 79.6234 306.5 85.5 C 315.859 91.5298 324.526 98.5298 332.5 106.50001 C 341.461 115.77 349.461 125.77 356.5 136.5 C 362.59097 144.583 368.257 152.916 373.5 161.5 C 375.916 166.001 378.583 170.334 381.5 174.5 C 388.608 187.735 396.94196 200.068 406.49997 211.49998 C 408.482 214.80998 410.815 217.81 413.5 220.50002 C 418.37704 226.375 424.377 230.709 431.5 233.5 C 436.216 235.775 441.216 237.608 446.5 239 C 452.246 241.753 457.07904 245.586 461 250.5 C 460.36798 257.104 462.201 262.771 466.5 267.5 C 466.5 268.167 466.833 268.5 467.5 268.5 C 468.976 270.5 470.809 272.167 473 273.5 C 474.822 277.787 474.822 282.121 473 286.5 C 471.214 289.736 469.714 293.07 468.5 296.5 C 463.841 303.495 459.174 310.495 454.49997 317.5 C 445.788 327.585 439.12103 338.918 434.5 351.5 C 433.662 351.158 433.328 350.492 433.5 349.5 C 435.104 344.28802 437.27097 339.288 440 334.5 C 449.08304 320.933 457.91595 307.266 466.5 293.5 C 474.338 283.554 473.171 274.888 463 267.5 C 461.546 264.929 460.38 262.262 459.5 259.5 C 460.216 254.649 458.883 250.482 455.49997 247 C 451.334 244.083 447.00104 241.416 442.5 239 C 435.483 237.384 428.816 234.88399 422.49997 231.5 C 417.265 227.773 412.432 223.44 408 218.5 C 389.92096 192.68 372.588 166.347 356 139.5 C 344.267 122.43301 330.434 107.266 314.5 94 C 300.836 83.7274 285.503 79.894 268.5 82.5 C 258.923 83.5651 249.59001 82.3984 240.5 79 C 227.095 72.0716 214.09499 64.5716 201.5 56.5 C 197.268 53.686096 192.60101 51.5194 187.49998 50 C 166.182 45.360806 146.182 48.5274 127.5 59.5 C 115.715004 65.7876 107.21499 75.1209 102 87.5 C 96.9092 103.615 92.5759 119.949 89 136.5 C 83.2172 151.4 76.8838 166.066 70 180.50002 C 65.5461 197.317 61.8794 214.317 59 231.5 C 53.5613 277.334 50.728004 323.334 50.5 369.5 C 49.596 370.209 49.2627 371.209 49.5 372.5 C 43.2264 376.441 37.5597 381.10803 32.5 386.5 C 29.910803 387.419 27.910803 389.086 26.499998 391.49997 C 15.0131 403.136 6.0131407 416.469 -0.5 431.5 C -0.5 429.5 -0.5 427.5 -0.5 425.50003 C 5.4065 415.58603 11.7398 405.919 18.5 396.5 C 25.227001 389.76797 32.227 383.435 39.5 377.50003 C 42.0094 376.07898 44.3428 374.412 46.5 372.5 C 48.0265 371.50797 48.693195 370.008 48.5 368 C 47.5736 356.18896 47.2403 344.35602 47.5 332.5 C 48.574196 324.014 49.2409 315.347 49.5 306.5 C 50.3409 299.535 50.674297 292.535 50.5 285.5 C 52.1824 272.678 53.5158 259.678 54.5 246.5 C 55.7741 238.911 56.7741 231.244 57.5 223.5 C 58.9291 217.96999 60.2625 212.303 61.5 206.5 C 62.6572 203.727 63.3239 200.727 63.5 197.5 C 64.2684 191.021 65.7684 184.687 68 178.5 C 72.7662 168.633 77.2662 158.633 81.5 148.5 C 84.5925 141.815 86.9258 134.815 88.5 127.5 C 89.66039 123.319 90.6604 118.985 91.5 114.50001 C 94.0754 107.343 96.4088 100.009 98.50001 92.5 C 100.097 90.1522 101.097 87.485504 101.49999 84.5 C 110.102 66.0032 124.435 54.336597 144.5 49.5 C 147.152 49.590504 149.485 48.9238 151.5 47.5 C 151.833 47.5 152.167 47.5 152.5 47.5 C 161.149 46.797398 169.815 46.464 178.5 46.5 Z"/>
    </g>
    <g>
        <path fill="#4b515e" fill-rule="evenodd" stroke="none" d="M 271.5 230.5 C 272.114 233.188 273.78 235.02101 276.5 236 C 281.167 236.333 285.833 236.667 290.5 237 C 324.203 247.86801 358.70303 255.035 394 258.5 C 414.551 256.892 435.051 257.225 455.49997 259.5 C 456.593 263.454 458.26004 267.12 460.5 270.5 C 458.821 270.108 457.154 269.608 455.49997 269 C 427.08798 269.199 398.754 267.865 370.5 265 C 345.206 260.601 319.873 256.434 294.5 252.50002 C 288.68 251.114 282.68 249.947 276.5 249 C 272.257 248.10802 268.257 246.608 264.5 244.50002 C 269.866 241.43 272.199 236.76402 271.5 230.5 Z"/>
    </g>
    <g>
        <path fill="#030303" fill-rule="evenodd" stroke="none" d="M 289.5 253.5 C 290.919 252.549 292.585 252.21602 294.5 252.50002 C 319.873 256.434 345.206 260.601 370.5 265 C 398.754 267.865 427.08798 269.199 455.49997 269 C 457.154 269.608 458.821 270.108 460.5 270.5 C 461.167 270.5 461.5 270.833 461.5 271.5 C 459.74097 271.954 457.741 271.954 455.49997 271.5 C 454.167 271.5 452.833 271.5 451.5 271.5 C 436.342 270.504 421.009 270.17 405.5 270.5 C 405.232 272.099 405.566 273.432 406.49997 274.5 C 406.49997 280.167 406.49997 285.833 406.49997 291.5 C 406.431 304.707 403.09802 317.041 396.5 328.5 C 396.624 329.107 396.957 329.44 397.5 329.5 C 396.791 330.404 395.791 330.737 394.5 330.5 C 393.833 330.5 393.16702 330.5 392.50003 330.5 C 389.727 329.343 386.727 328.676 383.5 328.5 C 382.791 327.596 381.791 327.263 380.5 327.5 C 380.412 332.013 378.912 336.013 376 339.5 C 372.82 341.662 369.654 343.662 366.5 345.50003 C 364.666 346.494 362.999 346.494 361.50003 345.50003 C 368.065 342.763 373.231 338.43 377 332.5 C 378.494 327.474 377.327 323.308 373.5 320 C 368.13403 317.151 362.468 315.151 356.5 314 C 347.167 313.667 337.833 313.333 328.5 313 C 323.655 311.131 318.655 309.965 313.5 309.5 C 306.48 307.935 299.48 308.435 292.5 311 C 288.153 314.737 287.319 319.237 290 324.5 C 293.465 328.967 297.298 333.133 301.5 337 C 298.539 336.69 295.872 335.524 293.5 333.5 C 291.675 331.197 289.842 328.864 288 326.5 C 285.453 321.92 285.119 317.253 287 312.5 C 288.074 311.382 289.24 310.382 290.5 309.5 C 287.212 308.555 283.879 307.888 280.5 307.5 C 278.901 307.768 277.568 307.434 276.5 306.5 C 275.794 304.124 274.127 302.79 271.5 302.5 C 269.515 290.94 272.349 280.607 280 271.5 C 282.372 269.297 284.539 266.963 286.5 264.5 C 290.972 261.427 295.639 258.593 300.5 256 C 296.827 255.02599 293.16 254.193 289.5 253.5 Z"/>
    </g>
    <g>
        <path fill="#212122" fill-rule="evenodd" stroke="none" d="M 266.5 247.5 C 264.631 249.635 263.964 252.302 264.5 255.5 C 263.818 271.022 261.818 286.355 258.5 301.5 C 262.876 303.43 267.209 303.763 271.5 302.5 C 274.127 302.79 275.794 304.124 276.5 306.5 C 268.602 306.214 260.935 305.214 253.5 303.5 C 254.552 303.649 255.552 303.483 256.5 303 C 254.618 302.802 252.952 302.302 251.49998 301.5 C 253.167 301.5 254.833 301.5 256.5 301.5 C 259.07 287.273 260.737 272.94 261.5 258.5 C 262.468 256.393 262.802 254.059 262.5 251.49998 C 263.451 250.081 263.784 248.415 263.5 246.5 C 264.791 246.26302 265.791 246.596 266.5 247.5 Z"/>
    </g>
    <g>
        <path fill="#fafaf9" fill-rule="evenodd" stroke="none" d="M 232.5 250.5 C 242.061 252.48198 251.728 253.48201 261.5 253.5 C 261.5 255.16702 261.5 256.833 261.5 258.5 C 260.737 272.94 259.07 287.273 256.5 301.5 C 254.833 301.5 253.167 301.5 251.49998 301.5 C 242.49701 301.125 233.49698 300.625 224.5 300 C 230.27002 293.284 233.437 285.45 234 276.5 C 234.915 267.723 234.41501 259.057 232.5 250.5 Z"/>
    </g>
    <g>
        <path fill="#b0b0b3" fill-rule="evenodd" stroke="none" d="M 262.5 251.49998 C 262.802 254.059 262.468 256.393 261.5 258.5 C 261.5 256.833 261.5 255.16702 261.5 253.5 C 251.728 253.48201 242.061 252.48198 232.5 250.5 C 232.011 249.00502 231.345 247.671 230.5 246.5 C 230.36899 245.761 230.53598 245.094 231 244.50002 C 237.238 245.583 243.572 246.25 250 246.5 C 254.173 246.62602 258.173 245.959 262 244.50002 C 262.497 246.80998 262.663 249.143 262.5 251.49998 Z"/>
    </g>
    <g>
        <path fill="#979dae" fill-rule="evenodd" stroke="none" d="M 403.5 229.5 C 403.735 228.903 404.235 228.57 405 228.50002 C 410.12704 229.56 415.127 230.89302 420 232.5 C 420.671 231.748 421.504 231.414 422.49997 231.5 C 428.816 234.88399 435.483 237.384 442.5 239 C 447.00104 241.416 451.334 244.083 455.49997 247 C 458.883 250.482 460.216 254.649 459.5 259.5 C 458.16702 259.5 456.83304 259.5 455.49997 259.5 C 455.267 256.651 453.934 254.484 451.5 253 C 441.764 249.198 432.097 245.19798 422.49997 241 C 415.806 237.658 409.473 233.825 403.5 229.5 Z"/>
    </g>
    <g>
        <path fill="#030304" fill-rule="evenodd" stroke="none" d="M 108.5 234.5 C 114.791 235.96602 121.124 237.466 127.5 239 C 153.163 238.51 178.82901 238.17699 204.50002 238 C 213.529 239.456 222.529 240.95598 231.5 242.5 C 230.722 243.156 230.056 243.989 229.5 245 C 229.57 245.765 229.90298 246.265 230.5 246.5 C 231.345 247.671 232.011 249.00502 232.5 250.5 C 234.41501 259.057 234.915 267.723 234 276.5 C 233.437 285.45 230.27002 293.284 224.5 300 C 233.49698 300.625 242.49701 301.125 251.49998 301.5 C 252.952 302.302 254.618 302.802 256.5 303 C 255.552 303.483 254.552 303.649 253.5 303.5 C 239.171 302.769 224.83699 302.603 210.5 303 C 201.927 303.428 193.594 304.928 185.5 307.5 C 179.12698 309.186 173.46 312.186 168.5 316.5 C 167.479 315.998 167.312 315.332 168 314.5 C 170.383 311.727 173.217 309.561 176.5 308 C 156.792 304.141 138.792 296.474 122.50001 285 C 113.643 277.433 107.14299 268.266 103 257.5 C 100.52799 250.221 101.02801 243.221 104.5 236.50002 C 105.577 235.29501 106.91 234.62802 108.5 234.5 Z"/>
    </g>
    <g>
        <path fill="#f1f1f1" fill-rule="evenodd" stroke="none" d="M 152.5 249.5 C 154.981 249.32301 156.814 250.323 158 252.50002 C 160.457 266.286 157.624 278.786 149.5 290 C 146.854 290.497 144.187 290.664 141.5 290.5 C 143.631 285.563 145.798 280.563 148 275.5 C 148.333 268.833 148.667 262.167 149 255.5 C 149.564 253.11302 150.73 251.113 152.5 249.5 Z"/>
    </g>
    <g>
        <path fill="#f4f4f3" fill-rule="evenodd" stroke="none" d="M 120.5 240.5 C 114.211 249.07999 111.378 258.747 112 269.5 C 106.876 261.962 104.043 253.628 103.5 244.50002 C 108.554 241.151 114.22 239.818 120.5 240.5 Z"/>
    </g>
    <g>
        <path fill="#a7a8a7" fill-rule="evenodd" stroke="none" d="M 120.5 240.5 C 114.22 239.818 108.554 241.151 103.5 244.50002 C 103.368 238.127 106.368 235.62701 112.5 237 C 115.309 238.093 117.976006 239.26 120.5 240.5 Z"/>
    </g>
    <g>
        <path fill="#4b515e" fill-rule="evenodd" stroke="none" d="M 231.5 242.5 C 222.529 240.95598 213.529 239.456 204.50002 238 C 178.82901 238.17699 153.163 238.51 127.5 239 C 121.124 237.466 114.791 235.96602 108.5 234.5 C 113.631 231.558 119.298 230.22499 125.49999 230.5 C 130.846 230.652 136.179 230.98499 141.5 231.5 C 174.234 227.365 206.901 227.532 239.5 232 C 245.88002 229.81398 251.213 226.147 255.5 221 C 247.942 216.148 239.609 213.48201 230.5 213 C 221.173 212.50002 211.83899 212.334 202.5 212.50002 C 222.21098 207.74501 241.211 210.245 259.5 220 C 262.63 222.128 265.463 224.628 268 227.49998 C 268.667 230.833 268.667 234.167 268 237.5 C 265.592 239.956 262.759 241.78902 259.5 243 C 250.14801 243.65102 240.814 243.484 231.5 242.5 Z"/>
    </g>
    <g>
        <path fill="#6c7487" fill-rule="evenodd" stroke="none" d="M 287.5 214.5 C 283.818 214.33499 280.152 214.501 276.5 215 C 269.57 220.022 270.403 223.522 279 225.5 C 283.067 224.696 286.9 223.363 290.5 221.5 C 291.452 219.955 291.785 218.28798 291.5 216.5 C 301.769 224.486 313.436 227.652 326.5 226 C 337.282 221.625 348.449 219.125 360 218.5 C 369.659 218.37401 378.826 220.374 387.5 224.5 C 387.918 225.222 388.58398 225.722 389.5 226 C 393.17 226.548 396.83698 227.048 400.5 227.49998 C 401.5 228.167 402.5 228.833 403.5 229.5 C 409.473 233.825 415.806 237.658 422.49997 241 C 432.097 245.19798 441.764 249.198 451.5 253 C 453.934 254.484 455.267 256.651 455.49997 259.5 C 435.051 257.225 414.551 256.892 394 258.5 C 358.70303 255.035 324.203 247.86801 290.5 237 C 285.833 236.667 281.167 236.333 276.5 236 C 273.78 235.02101 272.114 233.188 271.5 230.5 C 270.572 227.477 269.238 224.643 267.5 222 C 268.76 218.406 271.093 215.739 274.5 214 C 279.02 213.186 283.354 213.353 287.5 214.5 Z"/>
    </g>
    <g>
        <path fill="#0f1014" fill-rule="evenodd" stroke="none" d="M 387.5 224.5 C 378.826 220.374 369.659 218.37401 360 218.5 C 348.449 219.125 337.282 221.625 326.5 226 C 313.436 227.652 301.769 224.486 291.5 216.5 C 290.167 215.833 288.833 215.16702 287.5 214.5 C 283.354 213.353 279.02 213.186 274.5 214 C 271.093 215.739 268.76 218.406 267.5 222 C 269.238 224.643 270.572 227.477 271.5 230.5 C 272.199 236.76402 269.866 241.43 264.5 244.50002 C 268.257 246.608 272.257 248.10802 276.5 249 C 282.68 249.947 288.68 251.114 294.5 252.50002 C 292.585 252.21602 290.919 252.549 289.5 253.5 C 281.349 253.213 273.683 251.213 266.5 247.5 C 265.791 246.596 264.791 246.26302 263.5 246.5 C 263.784 248.415 263.451 250.081 262.5 251.49998 C 262.663 249.143 262.497 246.80998 262 244.50002 C 258.173 245.959 254.173 246.62602 250 246.5 C 243.572 246.25 237.238 245.583 231 244.50002 C 230.53598 245.094 230.36899 245.761 230.5 246.5 C 229.90298 246.265 229.57 245.765 229.5 245 C 230.056 243.989 230.722 243.156 231.5 242.5 C 240.814 243.484 250.14801 243.65102 259.5 243 C 262.759 241.78902 265.592 239.956 268 237.5 C 268.667 234.167 268.667 230.833 268 227.49998 C 265.463 224.628 262.63 222.128 259.5 220 C 241.211 210.245 222.21098 207.74501 202.5 212.50002 C 194.09598 215.60098 185.42899 217.76799 176.5 219 C 163.859 220.152 151.192 220.652 138.5 220.50002 C 144.5 219.833 150.5 219.167 156.5 218.5 C 173.81099 218.00398 190.47798 214.504 206.5 208 C 221.841 206.70099 236.841 208.367 251.49998 213 C 256.744 215.203 261.578 218.036 266 221.5 C 268.785 214.009 274.285 210.342 282.5 210.5 C 288.273 211.38701 293.273 213.887 297.5 218 C 306.56 223.089 316.227 224.75499 326.5 223 C 337.12 218.76102 348.12 216.261 359.49997 215.5 C 370.144 215.217 379.81104 218.05 388.5 224 C 388.272 224.39902 387.938 224.565 387.5 224.5 Z"/>
    </g>
    <g>
        <path fill="#959cae" fill-rule="evenodd" stroke="none" d="M 287.5 214.5 C 288.833 215.16702 290.167 215.833 291.5 216.5 C 291.785 218.28798 291.452 219.955 290.5 221.5 C 286.9 223.363 283.067 224.696 279 225.5 C 270.403 223.522 269.57 220.022 276.5 215 C 280.152 214.501 283.818 214.33499 287.5 214.5 Z"/>
    </g>
    <g>
        <path fill="#52525a" fill-rule="evenodd" stroke="none" d="M 76.5 190.5 C 76.6973 197.032 80.0306 200.03198 86.50001 199.5 C 86.50001 198.5 86.50001 197.5 86.50001 196.50002 C 88.95011 198.62901 90.6167 201.29602 91.5 204.50002 C 93.0624 208.657 93.729 212.99002 93.49999 217.5 C 91.7988 217.966 90.2988 217.966 89 217.5 C 87.36749 209.707 83.2008 203.707 76.5 199.5 C 75.52 196.91399 75.1866 194.24701 75.5 191.5 C 75.5 190.833 75.8333 190.5 76.5 190.5 Z"/>
    </g>
    <g>
        <path fill="#090a0d" fill-rule="evenodd" stroke="none" d="M 91.5 204.50002 C 90.6167 201.29602 88.95011 198.62901 86.50001 196.50002 C 84.7548 191.357 81.4214 189.357 76.5 190.5 C 75.8333 190.5 75.5 190.833 75.5 191.5 C 76.5864 213.329 73.4197 234.663 66 255.5 C 65.502 258.482 65.3354 261.482 65.5 264.5 C 67.8273 264.753 69.8273 264.086 71.5 262.5 C 76.1903 256.977 80.6903 251.311 85 245.5 C 83.3199 252.55801 79.8199 258.725 74.5 264 C 71.3426 267.77 67.8426 268.27 64 265.5 C 63.2592 255.453 64.9259 245.786 69 236.50002 C 71.5886 221.614 72.9219 206.614 73 191.5 C 75.5307 187.21002 79.0307 186.37698 83.5 189 C 88.9287 193.12799 91.59529 198.295 91.5 204.50002 Z"/>
    </g>
    <g>
        <path fill="#84848d" fill-rule="evenodd" stroke="none" d="M 86.50001 196.50002 C 86.50001 197.5 86.50001 198.5 86.50001 199.5 C 80.0306 200.03198 76.6973 197.032 76.5 190.5 C 81.4214 189.357 84.7548 191.357 86.50001 196.50002 Z"/>
    </g>
    <g>
        <path fill="#848791" fill-rule="evenodd" stroke="none" d="M 268.5 82.5 C 285.503 79.894 300.836 83.7274 314.5 94 C 330.434 107.266 344.267 122.43301 356 139.5 C 372.588 166.347 389.92096 192.68 408 218.5 C 412.432 223.44 417.265 227.773 422.49997 231.5 C 421.504 231.414 420.671 231.748 420 232.5 C 415.127 230.89302 410.12704 229.56 405 228.50002 C 404.235 228.57 403.735 228.903 403.5 229.5 C 402.5 228.833 401.5 228.167 400.5 227.49998 C 381.554 199.381 362.388 171.381 343 143.5 C 330.833 126 316 111.167 298.5 99 C 291.2 94.8523 283.867 91.019 276.5 87.5 C 281.705 87.8664 286.705 87.0331 291.5 85 C 285.279 84.3907 279.279 84.8907 273.5 86.50001 C 270.946 85.3944 268.279 84.561 265.5 84 C 266.737 83.7679 267.737 83.2679 268.5 82.5 Z"/>
    </g>
    <g>
        <path fill="#8a83a1" fill-rule="evenodd" stroke="none" d="M 276.5 87.5 C 275.391 87.4431 274.391 87.10981 273.5 86.50001 C 279.279 84.8907 285.279 84.3907 291.5 85 C 286.705 87.0331 281.705 87.8664 276.5 87.5 Z"/>
    </g>
    <g>
        <path fill="#52525a" fill-rule="evenodd" stroke="none" d="M 201.5 56.5 C 214.09499 64.5716 227.095 72.0716 240.5 79 C 249.59001 82.3984 258.923 83.5651 268.5 82.5 C 267.737 83.2679 266.737 83.7679 265.5 84 C 268.279 84.561 270.946 85.3944 273.5 86.50001 C 274.391 87.10981 275.391 87.4431 276.5 87.5 C 283.867 91.019 291.2 94.8523 298.5 99 C 316 111.167 330.833 126 343 143.5 C 362.388 171.381 381.554 199.381 400.5 227.49998 C 396.83698 227.048 393.17 226.548 389.5 226 C 388.58398 225.722 387.918 225.222 387.5 224.5 C 387.938 224.565 388.272 224.39902 388.5 224 C 379.81104 218.05 370.144 215.217 359.49997 215.5 C 348.12 216.261 337.12 218.76102 326.5 223 C 316.227 224.75499 306.56 223.089 297.5 218 C 293.273 213.887 288.273 211.38701 282.5 210.5 C 274.285 210.342 268.785 214.009 266 221.5 C 261.578 218.036 256.744 215.203 251.49998 213 C 236.841 208.367 221.841 206.70099 206.5 208 C 190.47798 214.504 173.81099 218.00398 156.5 218.5 C 147.651 218.174 138.984 218.507 130.5 219.49998 C 122.592 217.29 114.592 216.95702 106.50001 218.5 C 112.91501 185.77798 119.748 153.111 127 120.5 C 130.082 108.835 134.082 97.5016 139 86.50001 C 155.161 67.2541 175.994 57.254105 201.5 56.5 Z"/>
    </g>
    <g>
        <path fill="#b1b0b3" fill-rule="evenodd" stroke="none" d="M 266.5 247.5 C 273.683 251.213 281.349 253.213 289.5 253.5 C 293.16 254.193 296.827 255.02599 300.5 256 C 295.639 258.593 290.972 261.427 286.5 264.5 C 286.389 263.883 286.056 263.383 285.5 263 C 278.053 261.554 271.053 259.054 264.5 255.5 C 263.964 252.302 264.631 249.635 266.5 247.5 Z"/>
    </g>
    <g>
        <path fill="#f5f6f5" fill-rule="evenodd" stroke="none" d="M 264.5 255.5 C 271.053 259.054 278.053 261.554 285.5 263 C 286.056 263.383 286.389 263.883 286.5 264.5 C 284.539 266.963 282.372 269.297 280 271.5 C 272.349 280.607 269.515 290.94 271.5 302.5 C 267.209 303.763 262.876 303.43 258.5 301.5 C 261.818 286.355 263.818 271.022 264.5 255.5 Z"/>
    </g>
    <g>
        <path fill="#363638" fill-rule="evenodd" stroke="none" d="M 451.5 271.5 C 436.5 271.5 421.5 271.5 406.49997 271.5 C 406.49997 272.5 406.49997 273.5 406.49997 274.5 C 405.566 273.432 405.232 272.099 405.5 270.5 C 421.009 270.17 436.342 270.504 451.5 271.5 Z"/>
    </g>
    <g>
        <path fill="#f0f0f0" fill-rule="evenodd" stroke="none" d="M 320.5 268.5 C 323.044 268.104 325.211 268.771 327 270.5 C 329.059 282.77 327.059 294.437 321 305.5 C 317.875 306.787 314.709 306.787 311.5 305.5 C 315.761 295.629 317.594 285.295 317 274.5 C 317.926 272.308 319.093 270.308 320.5 268.5 Z"/>
    </g>
    <g>
        <path fill="#b0b0b2" fill-rule="evenodd" stroke="none" d="M 451.5 271.5 C 452.833 271.5 454.167 271.5 455.49997 271.5 C 466.32904 274.41 468.329 280.41 461.5 289.5 C 455.134 287.265 448.46704 285.765 441.50003 285 C 430.13098 284.497 418.798 283.664 407.49997 282.5 C 407.81 285.713 407.477 288.713 406.49997 291.5 C 406.49997 285.833 406.49997 280.167 406.49997 274.5 C 406.49997 273.5 406.49997 272.5 406.49997 271.5 C 421.5 271.5 436.5 271.5 451.5 271.5 Z"/>
    </g>
    <g>
        <path fill="#fafafa" fill-rule="evenodd" stroke="none" d="M 461.5 289.5 C 452.001 313.781 434.33502 328.448 408.50003 333.5 C 404.81003 332.16 401.144 330.826 397.5 329.5 C 396.957 329.44 396.624 329.107 396.5 328.5 C 403.09802 317.041 406.431 304.707 406.49997 291.5 C 407.477 288.713 407.81 285.713 407.49997 282.5 C 418.798 283.664 430.13098 284.497 441.50003 285 C 448.46704 285.765 455.134 287.265 461.5 289.5 Z"/>
    </g>
    <g>
        <path fill="#676b77" fill-rule="evenodd" stroke="none" d="M 455.49997 259.5 C 456.83304 259.5 458.16702 259.5 459.5 259.5 C 460.38 262.262 461.546 264.929 463 267.5 C 473.171 274.888 474.338 283.554 466.5 293.5 C 465.5 292.833 464.5 292.167 463.5 291.5 C 465.529 287.578 466.862 283.412 467.5 279 C 467.168 275.167 465.16803 272.667 461.5 271.5 C 461.5 270.833 461.167 270.5 460.5 270.5 C 458.26004 267.12 456.593 263.454 455.49997 259.5 Z"/>
    </g>
    <g>
        <path fill="#e6b22a" fill-rule="evenodd" stroke="none" d="M 467.5 268.5 C 471.178 268.777 474.01196 270.444 476 273.5 C 477.11996 280.489 476.28598 287.156 473.50003 293.5 C 472.914 293.291 472.414 292.957 472 292.5 C 471.502 294.544 470.335 295.878 468.5 296.5 C 469.714 293.07 471.214 289.736 473 286.5 C 474.822 282.121 474.822 277.787 473 273.5 C 470.809 272.167 468.976 270.5 467.5 268.5 Z"/>
    </g>
    <g>
        <path fill="#52525a" fill-rule="evenodd" stroke="none" d="M 95.5 283.5 C 98.0268 287.679 101.36001 291.179 105.49999 294 C 113.408 298.254 121.408 302.421 129.5 306.5 C 140.374 315.591 147.707 326.924 151.5 340.5 C 149.528 343.084 148.528 346.084 148.5 349.5 C 145.56 375.903 152.893 399.07 170.5 419 C 168.575 418.865 166.575 418.698 164.5 418.5 C 148.915 413.36798 133.582 407.70096 118.50001 401.5 C 118.414 400.504 118.74799 399.67102 119.5 399 C 102.705 362.44 94.7054 323.94 95.5 283.5 Z"/>
    </g>
    <g>
        <path fill="#6c7487" fill-rule="evenodd" stroke="none" d="M 202.5 212.50002 C 211.83899 212.334 221.173 212.50002 230.5 213 C 239.609 213.48201 247.942 216.148 255.5 221 C 251.213 226.147 245.88002 229.81398 239.5 232 C 206.901 227.532 174.234 227.365 141.5 231.5 C 136.179 230.98499 130.846 230.652 125.49999 230.5 C 119.298 230.22499 113.631 231.558 108.5 234.5 C 106.91 234.62802 105.577 235.29501 104.5 236.50002 C 101.02801 243.221 100.52799 250.221 103 257.5 C 107.14299 268.266 113.643 277.433 122.50001 285 C 138.792 296.474 156.792 304.141 176.5 308 C 173.217 309.561 170.383 311.727 168 314.5 C 167.312 315.332 167.479 315.998 168.5 316.5 C 173.46 312.186 179.12698 309.186 185.5 307.5 C 202.314 307.468 219.314 307.635 236.50002 308 C 250.149 310.03 263.815 311.864 277.5 313.5 C 278.159 323.847 283.492 330.514 293.5 333.5 C 295.872 335.524 298.539 336.69 301.5 337 C 297.298 333.133 293.465 328.967 290 324.5 C 287.319 319.237 288.153 314.737 292.5 311 C 299.48 308.435 306.48 307.935 313.5 309.5 C 310.813 309.336 308.146 309.503 305.5 310 C 309.558 310.34 313.558 311.007 317.5 312 C 322.811 314.993 328.478 316.993 334.5 318 C 345.225 318.097 355.891 318.763 366.5 320 C 368.667 321.5 370.5 323.333 372 325.5 C 372.667 328.167 372.667 330.833 372 333.5 C 367.827 338.006 363.327 342.173 358.49997 346 C 359.577 346.47 360.577 346.303 361.50003 345.50003 C 362.999 346.494 364.666 346.494 366.5 345.50003 C 371.222 345.139 375.556 343.639 379.5 341 C 381.977 339.357 384.31 337.524 386.5 335.5 C 387.386 334.675 387.719 333.675 387.5 332.5 C 385.80103 332.66 384.13403 332.494 382.5 332 C 381.01498 330.244 381.348 329.077 383.5 328.5 C 386.727 328.676 389.727 329.343 392.50003 330.5 C 389.5 330.167 388.167 331.5 388.5 334.5 C 393.06 335.298 397.394 336.798 401.5 339 C 408.071 344.104 414.737 348.937 421.5 353.5 C 411.084 355.633 400.41696 356.8 389.5 357 C 356.16898 358.52203 322.836 358.855 289.5 358 C 283.847 358.994 278.847 361.327 274.5 365 C 271.885 368.062 270.219 371.562 269.5 375.49997 C 267.559 377.011 267.059 379.011 268 381.5 C 269.209 385.276 271.376 388.27603 274.5 390.49997 C 274.351 391.552 274.517 392.552 275 393.50003 C 287.77 407.974 303.604 417.474 322.5 422 C 333.009 424.74 343.676 426.74 354.5 428 C 375.55396 428.99203 396.554 428.49203 417.5 426.5 C 412.982 431.179 407.982 435.346 402.5 439 C 394.005 443.41302 385.672 448.08 377.50003 453 C 378 453.167 378.5 453.33298 379 453.5 C 382.10504 452.633 385.272 452.299 388.5 452.5 C 385.45 454.10104 382.116 455.10104 378.5 455.49997 C 376.304 455.41 374.137 455.077 372 454.49997 C 332.514 461.24 294.347 456.74 257.5 441 C 235.906 430.531 215.90599 417.531 197.5 402 C 178.882 384.84903 163.549 365.349 151.5 343.5 C 151.5 342.5 151.5 341.5 151.5 340.5 C 147.707 326.924 140.374 315.591 129.5 306.5 C 121.408 302.421 113.408 298.254 105.49999 294 C 101.36001 291.179 98.0268 287.679 95.5 283.5 C 88.731 265.08 88.8976 246.747 96 228.50002 C 98.0532 223.613 101.553 220.279 106.50001 218.5 C 114.592 216.95702 122.592 217.29 130.5 219.49998 C 133.054 220.388 135.721 220.721 138.5 220.50002 C 151.192 220.652 163.859 220.152 176.5 219 C 185.42899 217.76799 194.09598 215.60098 202.5 212.50002 Z"/>
    </g>
    <g>
        <path fill="#2d2d36" fill-rule="evenodd" stroke="none" d="M 130.5 219.49998 C 138.984 218.507 147.651 218.174 156.5 218.5 C 150.5 219.167 144.5 219.833 138.5 220.50002 C 135.721 220.721 133.054 220.388 130.5 219.49998 Z"/>
    </g>
    <g>
        <path fill="#959cb0" fill-rule="evenodd" stroke="none" d="M 225.5 214.5 C 231.011 214.20502 236.344 215.038 241.5 217 C 242.406 218.699 242.739 220.533 242.5 222.5 C 236.824 222.666 231.157 222.499 225.5 222 C 221.58098 219.50699 221.58098 217.007 225.5 214.5 Z"/>
    </g>
    <g>
        <path fill="#9097a9" fill-rule="evenodd" stroke="none" d="M 253.5 303.5 C 260.935 305.214 268.602 306.214 276.5 306.5 C 277.568 307.434 278.901 307.768 280.5 307.5 C 279.486 309.574 278.486 311.574 277.5 313.5 C 263.815 311.864 250.149 310.03 236.50002 308 C 219.314 307.635 202.314 307.468 185.5 307.5 C 193.594 304.928 201.927 303.428 210.5 303 C 224.83699 302.603 239.171 302.769 253.5 303.5 Z"/>
    </g>
    <g>
        <path fill="#ddab33" fill-rule="evenodd" stroke="none" d="M 468.5 296.5 C 467.015 300.81 465.515 305.144 464 309.5 C 460.667 312.002 457.501 314.668 454.49997 317.5 C 459.174 310.495 463.841 303.495 468.5 296.5 Z"/>
    </g>
    <g>
        <path fill="#daae34" fill-rule="evenodd" stroke="none" d="M 49.5 306.5 C 49.2409 315.347 48.574196 324.014 47.5 332.5 C 46.8636 323.435 47.530197 314.769 49.5 306.5 Z"/>
    </g>
    <g>
        <path fill="#9499ab" fill-rule="evenodd" stroke="none" d="M 313.5 309.5 C 318.655 309.965 323.655 311.131 328.5 313 C 337.833 313.333 347.167 313.667 356.5 314 C 362.468 315.151 368.13403 317.151 373.5 320 C 377.327 323.308 378.494 327.474 377 332.5 C 373.231 338.43 368.065 342.763 361.50003 345.50003 C 360.577 346.303 359.577 346.47 358.49997 346 C 363.327 342.173 367.827 338.006 372 333.5 C 372.667 330.833 372.667 328.167 372 325.5 C 370.5 323.333 368.667 321.5 366.5 320 C 355.891 318.763 345.225 318.097 334.5 318 C 328.478 316.993 322.811 314.993 317.5 312 C 313.558 311.007 309.558 310.34 305.5 310 C 308.146 309.503 310.813 309.336 313.5 309.5 Z"/>
    </g>
    <g>
        <path fill="#040507" fill-rule="evenodd" stroke="none" d="M 334.5 329.5 C 334.67 330.822 334.337 331.989 333.5 333 C 323.915 334.754 315.415 332.587 308 326.5 C 307.51 325.207 307.343 323.873 307.5 322.5 C 317.784 319.252 326.784 321.585 334.5 329.5 Z"/>
    </g>
    <g>
        <path fill="#06070a" fill-rule="evenodd" stroke="none" d="M 366.5 326.5 C 366.703 328.39 366.037 329.89 364.5 331 C 358.678 333.06 352.678 333.893 346.5 333.5 C 345.188 332.855 344.188 331.855 343.5 330.5 C 344.84796 327.987 346.84802 326.153 349.5 325 C 354.5 324.333 359.49997 324.333 364.5 325 C 365.044 325.717 365.711 326.217 366.5 326.5 Z"/>
    </g>
    <g>
        <path fill="#505462" fill-rule="evenodd" stroke="none" d="M 280.5 307.5 C 283.879 307.888 287.212 308.555 290.5 309.5 C 289.24 310.382 288.074 311.382 287 312.5 C 285.119 317.253 285.453 321.92 288 326.5 C 289.842 328.864 291.675 331.197 293.5 333.5 C 283.492 330.514 278.159 323.847 277.5 313.5 C 278.486 311.574 279.486 309.574 280.5 307.5 Z"/>
    </g>
    <g>
        <path fill="#4b4f5e" fill-rule="evenodd" stroke="none" d="M 307.5 322.5 C 307.343 323.873 307.51 325.207 308 326.5 C 315.415 332.587 323.915 334.754 333.5 333 C 334.337 331.989 334.67 330.822 334.5 329.5 C 336.2 333.073 335.533 336.239 332.5 339 C 322.212 341.348 313.712 338.515 307 330.5 C 306.199 327.633 306.366 324.966 307.5 322.5 Z"/>
    </g>
    <g>
        <path fill="#484b58" fill-rule="evenodd" stroke="none" d="M 366.5 326.5 C 368.147 329.752 367.48 332.586 364.5 335 C 359.589 336.492 354.589 336.826 349.5 336 C 348.429 335.148 347.429 334.315 346.5 333.5 C 352.678 333.893 358.678 333.06 364.5 331 C 366.037 329.89 366.703 328.39 366.5 326.5 Z"/>
    </g>
    <g>
        <path fill="#6c7383" fill-rule="evenodd" stroke="none" d="M 441.50003 322.5 C 435.935 329.63 431.935 337.63 429.5 346.5 C 423.988 342.497 418.32098 338.663 412.5 335 C 422.927 332.449 432.594 328.283 441.50003 322.5 Z"/>
    </g>
    <g>
        <path fill="#9499aa" fill-rule="evenodd" stroke="none" d="M 463.5 291.5 C 464.5 292.167 465.5 292.833 466.5 293.5 C 457.91595 307.266 449.08304 320.933 440 334.5 C 437.27097 339.288 435.104 344.28802 433.5 349.5 C 432.167 348.5 430.833 347.5 429.5 346.5 C 431.935 337.63 435.935 329.63 441.50003 322.5 C 450.577 313.324 457.90997 302.991 463.5 291.5 Z"/>
    </g>
    <g>
        <path fill="#eeb21f" fill-rule="evenodd" stroke="none" d="M 454.49997 317.5 C 452.15497 322.706 449.989 328.039 448 333.5 C 447.667 333.167 447.333 332.833 447 332.5 C 446.68198 334.061 445.849 335.228 444.5 336 C 445.406 337.699 445.739 339.533 445.5 341.5 C 450.453 340.671 455.453 340.337 460.5 340.5 C 460.35098 341.552 460.517 342.552 461 343.5 C 464.207 344.255 465.707 346.255 465.5 349.5 C 462.561 347.37396 459.228 346.374 455.49997 346.5 C 448.368 347.7 441.368 349.367 434.5 351.5 C 439.12103 338.918 445.788 327.585 454.49997 317.5 Z"/>
    </g>
    <g>
        <path fill="#4e515f" fill-rule="evenodd" stroke="none" d="M 383.5 328.5 C 381.348 329.077 381.01498 330.244 382.5 332 C 384.13403 332.494 385.80103 332.66 387.5 332.5 C 387.719 333.675 387.386 334.675 386.5 335.5 C 384.31 337.524 381.977 339.357 379.5 341 C 375.556 343.639 371.222 345.139 366.5 345.50003 C 369.654 343.662 372.82 341.662 376 339.5 C 378.912 336.013 380.412 332.013 380.5 327.5 C 381.791 327.263 382.791 327.596 383.5 328.5 Z"/>
    </g>
    <g>
        <path fill="#959cad" fill-rule="evenodd" stroke="none" d="M 392.50003 330.5 C 393.16702 330.5 393.833 330.5 394.5 330.5 C 407.96298 335.233 420.297 342.066 431.5 351 C 428.321 352.461 424.988 353.29504 421.5 353.5 C 414.737 348.937 408.071 344.104 401.5 339 C 397.394 336.798 393.06 335.298 388.5 334.5 C 388.167 331.5 389.5 330.167 392.50003 330.5 Z"/>
    </g>
    <g>
        <path fill="#0f0f13" fill-rule="evenodd" stroke="none" d="M 455.49997 271.5 C 457.741 271.954 459.74097 271.954 461.5 271.5 C 465.16803 272.667 467.168 275.167 467.5 279 C 466.862 283.412 465.529 287.578 463.5 291.5 C 457.90997 302.991 450.577 313.324 441.50003 322.5 C 432.594 328.283 422.927 332.449 412.5 335 C 418.32098 338.663 423.988 342.497 429.5 346.5 C 430.833 347.5 432.167 348.5 433.5 349.5 C 433.328 350.492 433.662 351.158 434.5 351.5 C 441.368 349.367 448.368 347.7 455.49997 346.5 C 459.228 346.374 462.561 347.37396 465.5 349.5 C 465.16296 358.825 460.829 365.491 452.5 369.5 C 450.326 369.75003 448.659 370.75 447.5 372.5 C 447.5 373.167 447.167 373.5 446.5 373.5 C 443.66998 372.541 441.004 372.874 438.49997 374.49997 C 395.784 382.464 353.11703 382.298 310.5 374 C 309.058 373.623 308.058 372.79004 307.5 371.5 C 353.46802 380.069 399.135 379.402 444.5 369.5 C 452.12396 368.105 457.957 364.10498 462 357.5 C 463.401 349.251 459.901 346.084 451.5 348 C 443.76096 351.31497 435.761 353.81503 427.5 355.5 C 414.882 357.32703 402.216 358.827 389.5 360 C 356.17 361.54504 322.837 361.87897 289.5 361 C 271.619 364.25497 267.619 373.422 277.5 388.5 C 280.029 392.189 283.362 395.022 287.5 397 C 293.084 398.647 298.751 399.813 304.5 400.5 C 339.08 409.24298 374.08 411.74304 409.50003 408 C 417.546 407.22302 425.213 405.39 432.5 402.5 C 434.5 401.833 436.5 401.167 438.49997 400.5 C 438.328 401.492 438.662 402.158 439.49997 402.5 C 436.167 404.167 432.833 405.83298 429.5 407.49997 C 401.693 412.519 373.693 413.68497 345.50003 411 C 327.467 407.883 309.467 404.55 291.5 401 C 284.493 399.505 278.826 396.005 274.5 390.49997 C 272.248 385.743 270.581 380.743 269.5 375.49997 C 270.219 371.562 271.885 368.062 274.5 365 C 278.847 361.327 283.847 358.994 289.5 358 C 322.836 358.855 356.16898 358.52203 389.5 357 C 400.41696 356.8 411.084 355.633 421.5 353.5 C 424.988 353.29504 428.321 352.461 431.5 351 C 420.297 342.066 407.96298 335.233 394.5 330.5 C 395.791 330.737 396.791 330.404 397.5 329.5 C 401.144 330.826 404.81003 332.16 408.50003 333.5 C 434.33502 328.448 452.001 313.781 461.5 289.5 C 468.329 280.41 466.32904 274.41 455.49997 271.5 Z"/>
    </g>
    <g>
        <path fill="#7c7e8a" fill-rule="evenodd" stroke="none" d="M 444.5 369.5 C 443.262 369.19 443.262 368.69 444.5 368 C 447.939 365.861 451.106 363.361 454 360.50003 C 454.781 359.05603 454.614 357.72296 453.5 356.5 C 450.706 355.014 447.706 354.34695 444.5 354.5 C 439.941 354.765 435.441 355.432 431 356.5 C 429.615 356.486 428.449 356.15198 427.5 355.5 C 435.761 353.81503 443.76096 351.31497 451.5 348 C 459.901 346.084 463.401 349.251 462 357.5 C 457.957 364.10498 452.12396 368.105 444.5 369.5 Z"/>
    </g>
    <g>
        <path fill="#4b4b53" fill-rule="evenodd" stroke="none" d="M 444.5 369.5 C 399.135 379.402 353.46802 380.069 307.5 371.5 C 306.624 371.369 305.957 371.702 305.5 372.5 C 306 373.5 306.5 374.49997 307 375.49997 C 322.101 384.86603 338.601 390.366 356.5 392 C 372.833 392.66696 389.167 392.66696 405.5 392 C 417.184 390.164 428.85 388.33002 440.50003 386.5 C 440.649 387.552 440.48303 388.552 440 389.5 C 436.45 393.383 433.283 397.54898 430.5 402 C 431.094 402.464 431.761 402.631 432.5 402.5 C 425.213 405.39 417.546 407.22302 409.50003 408 C 374.08 411.74304 339.08 409.24298 304.5 400.5 C 295.19 397.348 286.19 393.34796 277.5 388.5 C 267.619 373.422 271.619 364.25497 289.5 361 C 322.837 361.87897 356.17 361.54504 389.5 360 C 402.216 358.827 414.882 357.32703 427.5 355.5 C 428.449 356.15198 429.615 356.486 431 356.5 C 435.441 355.432 439.941 354.765 444.5 354.5 C 447.706 354.34695 450.706 355.014 453.5 356.5 C 454.614 357.72296 454.781 359.05603 454 360.50003 C 451.106 363.361 447.939 365.861 444.5 368 C 443.262 368.69 443.262 369.19 444.5 369.5 Z"/>
    </g>
    <g>
        <path fill="#e2ba34" fill-rule="evenodd" stroke="none" d="M 47.5 332.5 C 47.2403 344.35602 47.5736 356.18896 48.5 368 C 48.693195 370.008 48.0265 371.50797 46.5 372.5 C 46.1711 358.99 46.5044 345.656 47.5 332.5 Z"/>
    </g>
    <g>
        <path fill="#7f828c" fill-rule="evenodd" stroke="none" d="M 279.5 369.5 C 281.39 369.297 282.89 369.963 284 371.5 C 284.769 374.099 284.602 376.59897 283.5 379 C 281.633 379.711 280.133 379.211 279 377.50003 C 278.278 374.739 278.445 372.07297 279.5 369.5 Z"/>
    </g>
    <g>
        <path fill="#cea441" fill-rule="evenodd" stroke="none" d="M 452.5 369.5 C 451.167 371.833 451.167 374.167 452.5 376.50003 C 451.24 374.633 449.573 373.3 447.5 372.5 C 448.659 370.75 450.326 369.75003 452.5 369.5 Z"/>
    </g>
    <g>
        <path fill="#0b0e28" fill-rule="evenodd" stroke="none" d="M 50.5 369.5 C 50.8333 370.5 51.5 371.167 52.5 371.5 C 55.593002 373.034 58.2597 375.03397 60.5 377.50003 C 58.2278 376.68097 55.8945 376.015 53.5 375.49997 C 52.454895 374.122 51.1216 373.122 49.5 372.5 C 49.2627 371.209 49.596 370.209 50.5 369.5 Z"/>
    </g>
    <g>
        <path fill="#34353b" fill-rule="evenodd" stroke="none" d="M 307.5 371.5 C 308.058 372.79004 309.058 373.623 310.5 374 C 353.11703 382.298 395.784 382.464 438.49997 374.49997 C 439.422 378.112 440.089 381.779 440.50003 385.5 C 440.50003 385.833 440.50003 386.167 440.50003 386.5 C 428.85 388.33002 417.184 390.164 405.5 392 C 389.167 392.66696 372.833 392.66696 356.5 392 C 338.601 390.366 322.101 384.86603 307 375.49997 C 306.5 374.49997 306 373.5 305.5 372.5 C 305.957 371.702 306.624 371.369 307.5 371.5 Z"/>
    </g>
    <g>
        <path fill="#5a5b65" fill-rule="evenodd" stroke="none" d="M 446.5 373.5 C 449.142 376.192 450.142 379.525 449.5 383.5 C 446.58298 384.41696 443.583 385.084 440.50003 385.5 C 440.089 381.779 439.422 378.112 438.49997 374.49997 C 441.004 372.874 443.66998 372.541 446.5 373.5 Z"/>
    </g>
    <g>
        <path fill="#0e3aa7" fill-rule="evenodd" stroke="none" d="M 53.5 375.49997 C 55.8945 376.015 58.2278 376.68097 60.5 377.50003 C 61.3065 378.728 62.3065 379.728 63.5 380.5 C 60.681904 379.03 57.6819 378.03 54.5 377.50003 C 54.5 378.833 54.5 380.167 54.5 381.5 C 52.2821 381.386 50.2821 380.72 48.5 379.5 C 49.8062 378.533 50.4729 377.199 50.5 375.49997 C 51.5 375.49997 52.5 375.49997 53.5 375.49997 Z"/>
    </g>
    <g>
        <path fill="#2f54a5" fill-rule="evenodd" stroke="none" d="M 49.5 372.5 C 51.1216 373.122 52.454895 374.122 53.5 375.49997 C 52.5 375.49997 51.5 375.49997 50.5 375.49997 C 50.4729 377.199 49.8062 378.533 48.5 379.5 C 47.5 380.167 46.5 380.833 45.5 381.5 C 41.1508 380.57703 37.8175 381.91 35.5 385.5 C 34.675 386.38602 33.675 386.719 32.5 386.5 C 37.5597 381.10803 43.2264 376.441 49.5 372.5 Z"/>
    </g>
    <g>
        <path fill="#494e59" fill-rule="evenodd" stroke="none" d="M 269.5 375.49997 C 270.581 380.743 272.248 385.743 274.5 390.49997 C 271.376 388.27603 269.209 385.276 268 381.5 C 267.059 379.011 267.559 377.011 269.5 375.49997 Z"/>
    </g>
    <g>
        <path fill="#0132b9" fill-rule="evenodd" stroke="none" d="M 63.5 380.5 C 65.674 380.75 67.3406 381.75 68.5 383.5 C 69.2341 384.708 69.5674 386.041 69.5 387.5 C 74.0806 387.75903 78.414 388.75903 82.5 390.49997 C 84.9538 391.227 87.2872 392.227 89.49999 393.50003 C 91.7512 394.015 93.75119 395.015 95.5 396.5 C 99.6645 399.153 104.331 400.82 109.49999 401.5 C 109.953 402.458 110.619 403.292 111.5 404 C 114.27901 404.561 116.946 405.394 119.5 406.49997 C 125.174995 407.424 130.509 409.091 135.5 411.5 C 135.804 412.15 136.137 412.817 136.5 413.5 C 134.234 414.314 131.9 414.814 129.5 415 C 130.226 416.39697 131.393 417.23096 133 417.5 C 135.472 416.678 137.972 416.011 140.5 415.5 C 140.5 416.833 140.5 418.167 140.5 419.5 C 142.455 418.68002 143.955 417.67996 145 416.5 C 149.341 419.29602 154.174 420.629 159.5 420.5 C 159.833 422.49997 160.167 424.50003 160.5 426.5 C 162.787 426.72397 164.953 427.391 167 428.5 C 167.5 428.167 168 427.833 168.5 427.5 C 167.5 426.833 166.5 426.16702 165.5 425.50003 C 166.333 425.16702 167.167 424.83304 168 424.50003 C 170.544 425.071 173.044 425.738 175.5 426.5 C 177.5 426.5 179.49998 426.5 181.5 426.5 C 186.854 430.01498 192.85399 432.01505 199.5 432.5 C 200.78 433.93103 202.447 434.59802 204.50002 434.5 C 204.62 435.586 205.28699 436.253 206.5 436.5 C 209.783 437.32703 213.11601 437.66 216.5 437.5 C 221.079 438.814 225.746 440.148 230.5 441.50003 C 231.671 442.34503 233.00502 443.011 234.5 443.5 C 238.052 445.916 242.05199 447.582 246.5 448.5 C 245.167 449.167 243.833 449.833 242.5 450.5 C 245.62198 451.45905 248.788 451.45905 252 450.5 C 255.83 451.25 259.663 451.917 263.5 452.5 C 263.833 452.5 264.167 452.5 264.5 452.5 C 266.496 456.07 269.329 457.403 273 456.50003 C 274.627 456.625 276.127 457.125 277.5 458 C 275.956 458.29 274.623 458.956 273.5 460 C 276.694 460.592 279.861 460.426 283 459.5 C 290.717 461.322 298.55 462.322 306.5 462.5 C 309.311 463.475 312.311 464.142 315.5 464.5 C 332.393 465.941 349.393 465.441 366.5 463 C 368.437 462.878 369.77002 462.045 370.5 460.5 C 376.657 460.771 382.32303 459.438 387.5 456.50003 C 389.547 456.489 391.547 456.156 393.50003 455.49997 C 395.175 455.868 396.175 456.868 396.5 458.5 C 397.782 463.726 399.616 468.726 402 473.50003 C 402.495 475.473 402.662 477.47296 402.5 479.5 C 401.423 478.982 400.256 478.64798 399 478.5 C 361.747 488.725 323.914 491.225 285.5 486 C 275.473 483.60696 265.473 481.107 255.5 478.5 C 250.38802 474.041 244.388 471.041 237.5 469.5 C 236.385 467.545 235.05202 465.712 233.5 464 C 229.346 462.619 225.346 461.119 221.5 459.5 C 221.762 458.022 221.429 456.689 220.50002 455.49997 C 216.89499 455.20303 214.22902 453.537 212.50002 450.5 C 203.506 449.15698 194.506 448.157 185.5 447.5 C 182.42998 447.632 179.43 447.299 176.5 446.5 C 175.942 445.21002 174.942 444.377 173.5 444 C 169.5 443.667 165.5 443.333 161.5 443 C 157.637 441.268 153.637 439.934 149.5 439 C 141.969 438.93 134.635 437.763 127.5 435.5 C 121.991 433.721 116.32399 432.054 110.50001 430.5 C 107.481 431.309 104.815 432.642 102.50001 434.5 C 102.509 436.308 102.009 437.975 101 439.49997 C 95.2836 447.157 89.28361 454.49 83 461.5 C 81.939 466.23096 79.6057 470.231 76 473.50003 C 73.2783 480.611 70.2783 487.611 67 494.5 C 66.1407 500.241 64.974 505.90698 63.5 511.5 C 42.1667 511.5 20.8333 511.5 -0.5 511.5 C -0.5 488.50003 -0.5 465.5 -0.5 442.5 C 4.22709 436.704 7.06042 430.03796 8 422.49997 C 9.01127 421.663 10.1779 421.33002 11.5 421.5 C 16.2557 415.91098 20.4224 409.911 24 403.5 C 31.3145 396.352 38.4811 389.018 45.5 381.5 C 46.5 380.833 47.5 380.167 48.5 379.5 C 50.2821 380.72 52.2821 381.386 54.5 381.5 C 54.5 380.167 54.5 378.833 54.5 377.50003 C 57.6819 378.03 60.681904 379.03 63.5 380.5 Z"/>
    </g>
    <g>
        <path fill="#102e99" fill-rule="evenodd" stroke="none" d="M 68.5 383.5 C 72.1181 384.538 75.7847 385.705 79.5 387 C 80.7101 388.03897 81.7101 389.20596 82.5 390.49997 C 78.414 388.75903 74.0806 387.75903 69.5 387.5 C 69.5674 386.041 69.2341 384.708 68.5 383.5 Z"/>
    </g>
    <g>
        <path fill="#0b0b28" fill-rule="evenodd" stroke="none" d="M 60.5 377.50003 C 67.8261 379.661 74.8261 382.661 81.5 386.5 C 83.2094 388.81302 85.5428 390.313 88.5 391 C 89.2524 391.671 89.5858 392.504 89.49999 393.50003 C 87.2872 392.227 84.9538 391.227 82.5 390.49997 C 81.7101 389.20596 80.7101 388.03897 79.5 387 C 75.7847 385.705 72.1181 384.538 68.5 383.5 C 67.3406 381.75 65.674 380.75 63.5 380.5 C 62.3065 379.728 61.3065 378.728 60.5 377.50003 Z"/>
    </g>
    <g>
        <path fill="#daa82d" fill-rule="evenodd" stroke="none" d="M 39.5 377.50003 C 32.227 383.435 25.227001 389.76797 18.5 396.5 C 18.6427 394.738 18.3094 393.071 17.5 391.49997 C 21.3428 391.06497 23.676098 389.065 24.499998 385.5 C 25.8333 385.5 27.1667 385.5 28.499998 385.5 C 28.499998 383.5 28.499998 381.5 28.499998 379.5 C 32.285 379.369 35.9517 378.702 39.5 377.50003 Z"/>
    </g>
    <g>
        <path fill="#343339" fill-rule="evenodd" stroke="none" d="M 277.5 388.5 C 286.19 393.34796 295.19 397.348 304.5 400.5 C 298.751 399.813 293.084 398.647 287.5 397 C 283.362 395.022 280.029 392.189 277.5 388.5 Z"/>
    </g>
    <g>
        <path fill="#2f58b8" fill-rule="evenodd" stroke="none" d="M 45.5 381.5 C 38.4811 389.018 31.3145 396.352 24 403.5 C 20.4224 409.911 16.2557 415.91098 11.5 421.5 C 11.5 419.5 11.5 417.5 11.5 415.5 C 12.5 415.5 13.5 415.5 14.5 415.5 C 14.690601 412.017 15.357299 408.68396 16.5 405.5 C 21.118 406.02502 22.118 404.69196 19.5 401.5 C 20.2888 399.512 21.4555 399.179 23 400.5 C 23.9386 397.4 25.1052 394.4 26.499998 391.49997 C 27.910803 389.086 29.910803 387.419 32.5 386.5 C 33.675 386.719 34.675 386.38602 35.5 385.5 C 37.8175 381.91 41.1508 380.57703 45.5 381.5 Z"/>
    </g>
    <g>
        <path fill="#02164b" fill-rule="evenodd" stroke="none" d="M 89.49999 393.50003 C 94.0416 393.41296 98.0416 394.747 101.49999 397.5 C 99.5 397.167 97.49999 396.833 95.5 396.5 C 93.75119 395.015 91.7512 394.015 89.49999 393.50003 Z"/>
    </g>
    <g>
        <path fill="#7d808c" fill-rule="evenodd" stroke="none" d="M 449.5 383.5 C 448.618 391.035 444.951 396.701 438.49997 400.5 C 436.5 401.167 434.5 401.833 432.5 402.5 C 431.761 402.631 431.094 402.464 430.5 402 C 433.283 397.54898 436.45 393.383 440 389.5 C 440.48303 388.552 440.649 387.552 440.50003 386.5 C 440.50003 386.167 440.50003 385.833 440.50003 385.5 C 443.583 385.084 446.58298 384.41696 449.5 383.5 Z"/>
    </g>
    <g>
        <path fill="#0f2981" fill-rule="evenodd" stroke="none" d="M 95.5 396.5 C 97.49999 396.833 99.5 397.167 101.49999 397.5 C 104.404 398.285 107.07 399.619 109.49999 401.5 C 104.331 400.82 99.6645 399.153 95.5 396.5 Z"/>
    </g>
    <g>
        <path fill="#122a85" fill-rule="evenodd" stroke="none" d="M 109.49999 401.5 C 111.921 402.891 114.588 403.72504 117.49999 404 C 118.381 404.70804 119.047 405.54202 119.5 406.49997 C 116.946 405.394 114.27901 404.561 111.5 404 C 110.619 403.292 109.953 402.458 109.49999 401.5 Z"/>
    </g>
    <g>
        <path fill="#39393f" fill-rule="evenodd" stroke="none" d="M 148.5 349.5 C 147.106 371.832 154.772 390.332 171.5 405 C 186.94 417.74796 203.94 428.081 222.5 436 C 217.76501 435.371 213.098 434.205 208.5 432.5 C 193.56302 428.347 178.896 423.68097 164.5 418.5 C 166.575 418.698 168.575 418.865 170.5 419 C 152.893 399.07 145.56 375.903 148.5 349.5 Z"/>
    </g>
    <g>
        <path fill="#4c525f" fill-rule="evenodd" stroke="none" d="M 274.5 390.49997 C 278.826 396.005 284.493 399.505 291.5 401 C 309.467 404.55 327.467 407.883 345.50003 411 C 373.693 413.68497 401.693 412.519 429.5 407.49997 C 426.68997 413.78604 423.357 419.786 419.5 425.50003 C 418.833 425.833 418.167 426.16702 417.5 426.5 C 396.554 428.49203 375.55396 428.99203 354.5 428 C 343.676 426.74 333.009 424.74 322.5 422 C 303.604 417.474 287.77 407.974 275 393.50003 C 274.517 392.552 274.351 391.552 274.5 390.49997 Z"/>
    </g>
    <g>
        <path fill="#696d7b" fill-rule="evenodd" stroke="none" d="M 439.49997 402.5 C 440.49704 402.47 441.16403 402.97 441.50003 404 C 441.016 411.83997 438.34998 418.673 433.5 424.50003 C 433.565 424.06198 433.399 423.728 433 423.49997 C 428.661 425.022 424.16098 425.689 419.5 425.50003 C 423.357 419.786 426.68997 413.78604 429.5 407.49997 C 432.833 405.83298 436.167 404.167 439.49997 402.5 Z"/>
    </g>
    <g>
        <path fill="#08236d" fill-rule="evenodd" stroke="none" d="M 137.5 411.5 C 140.912 412.075 143.912 413.40796 146.5 415.5 C 143.784 415.322 141.117 414.822 138.5 414 C 137.748 413.329 137.414 412.496 137.5 411.5 Z"/>
    </g>
    <g>
        <path fill="#0833a4" fill-rule="evenodd" stroke="none" d="M 135.5 411.5 C 136.167 411.5 136.833 411.5 137.5 411.5 C 137.414 412.496 137.748 413.329 138.5 414 C 141.117 414.822 143.784 415.322 146.5 415.5 C 150.941 417.021 155.274 418.687 159.5 420.5 C 154.174 420.629 149.341 419.29602 145 416.5 C 143.955 417.67996 142.455 418.68002 140.5 419.5 C 140.5 418.167 140.5 416.833 140.5 415.5 C 137.972 416.011 135.472 416.678 133 417.5 C 131.393 417.23096 130.226 416.39697 129.5 415 C 131.9 414.814 134.234 414.314 136.5 413.5 C 136.137 412.817 135.804 412.15 135.5 411.5 Z"/>
    </g>
    <g>
        <path fill="#3053a7" fill-rule="evenodd" stroke="none" d="M 26.499998 391.49997 C 25.1052 394.4 23.9386 397.4 23 400.5 C 21.4555 399.179 20.2888 399.512 19.5 401.5 C 22.118 404.69196 21.118 406.02502 16.5 405.5 C 15.357299 408.68396 14.690601 412.017 14.5 415.5 C 13.5 415.5 12.5 415.5 11.5 415.5 C 11.5 417.5 11.5 419.5 11.5 421.5 C 10.1779 421.33002 9.01127 421.663 8 422.49997 C 7.06042 430.03796 4.22709 436.704 -0.5 442.5 C -0.5 438.83298 -0.5 435.167 -0.5 431.5 C 6.0131407 416.469 15.0131 403.136 26.499998 391.49997 Z"/>
    </g>
    <g>
        <path fill="#e5ad22" fill-rule="evenodd" stroke="none" d="M 444.5 399.5 C 443.211 409.01 443.211 418.34396 444.5 427.5 C 444.267 428.932 443.6 429.432 442.5 429 C 441.809 427.933 441.309 426.76602 441 425.50003 C 439.713 428.14502 437.547 429.14502 434.5 428.5 C 437.129 424.481 439.295 420.148 441 415.5 C 441.99496 410.547 442.66196 405.547 443 400.5 C 443.383 399.944 443.883 399.611 444.5 399.5 Z"/>
    </g>
    <g>
        <path fill="#0a2ea0" fill-rule="evenodd" stroke="none" d="M 159.5 420.5 C 163.84 421.50204 168.174 422.66904 172.50002 424 C 173.942 424.377 174.942 425.21 175.5 426.5 C 173.044 425.738 170.544 425.071 168 424.50003 C 167.167 424.83304 166.333 425.16702 165.5 425.50003 C 166.5 426.16702 167.5 426.833 168.5 427.5 C 168 427.833 167.5 428.167 167 428.5 C 164.953 427.391 162.787 426.72397 160.5 426.5 C 160.167 424.50003 159.833 422.49997 159.5 420.5 Z"/>
    </g>
    <g>
        <path fill="#09081a" fill-rule="evenodd" stroke="none" d="M 81.5 386.5 C 93.6049 392.09 105.938 397.09 118.50001 401.5 C 133.582 407.70096 148.915 413.36798 164.5 418.5 C 178.896 423.68097 193.56302 428.347 208.5 432.5 C 210.36401 434.014 212.364 435.34695 214.5 436.5 C 211.167 435.833 207.833 435.167 204.50002 434.5 C 202.447 434.59802 200.78 433.93103 199.5 432.5 C 193.697 430.208 187.697 428.208 181.5 426.5 C 179.49998 426.5 177.5 426.5 175.5 426.5 C 174.942 425.21 173.942 424.377 172.50002 424 C 168.174 422.66904 163.84 421.50204 159.5 420.5 C 155.274 418.687 150.941 417.021 146.5 415.5 C 143.912 413.40796 140.912 412.075 137.5 411.5 C 136.833 411.5 136.167 411.5 135.5 411.5 C 130.509 409.091 125.174995 407.424 119.5 406.49997 C 119.047 405.54202 118.381 404.70804 117.49999 404 C 114.588 403.72504 111.921 402.891 109.49999 401.5 C 107.07 399.619 104.404 398.285 101.49999 397.5 C 98.0416 394.747 94.0416 393.41296 89.49999 393.50003 C 89.5858 392.504 89.2524 391.671 88.5 391 C 85.5428 390.313 83.2094 388.81302 81.5 386.5 Z"/>
    </g>
    <g>
        <path fill="#02144a" fill-rule="evenodd" stroke="none" d="M 181.5 426.5 C 187.697 428.208 193.697 430.208 199.5 432.5 C 192.85399 432.01505 186.854 430.01498 181.5 426.5 Z"/>
    </g>
    <g>
        <path fill="#0a0a10" fill-rule="evenodd" stroke="none" d="M 151.5 340.5 C 151.5 341.5 151.5 342.5 151.5 343.5 C 148.401 360.431 151.901 376.098 162 390.49997 C 171.698 401.875 182.865 411.375 195.49998 419 C 210.701 427.934 226.368 435.767 242.5 442.5 C 238.481 442.354 234.481 442.021 230.5 441.50003 C 225.746 440.148 221.079 438.814 216.5 437.5 C 216.158 436.662 215.49202 436.328 214.5 436.5 C 212.364 435.34695 210.36401 434.014 208.5 432.5 C 213.098 434.205 217.76501 435.371 222.5 436 C 203.94 428.081 186.94 417.74796 171.5 405 C 154.772 390.332 147.106 371.832 148.5 349.5 C 148.528 346.084 149.528 343.084 151.5 340.5 Z"/>
    </g>
    <g>
        <path fill="#969caf" fill-rule="evenodd" stroke="none" d="M 433.5 424.50003 C 430.542 429.126 426.87604 433.12598 422.49997 436.5 C 411.75497 440.953 401.421 445.95297 391.49997 451.5 C 390.79102 452.404 389.79095 452.73697 388.5 452.5 C 385.272 452.299 382.10504 452.633 379 453.5 C 378.5 453.33298 378 453.167 377.50003 453 C 385.672 448.08 394.005 443.41302 402.5 439 C 407.982 435.346 412.982 431.179 417.5 426.5 C 418.167 426.16702 418.833 425.833 419.5 425.50003 C 424.16098 425.689 428.661 425.022 433 423.49997 C 433.399 423.728 433.565 424.06198 433.5 424.50003 Z"/>
    </g>
    <g>
        <path fill="#4b505f" fill-rule="evenodd" stroke="none" d="M 151.5 343.5 C 163.549 365.349 178.882 384.84903 197.5 402 C 215.90599 417.531 235.906 430.531 257.5 441 C 294.347 456.74 332.514 461.24 372 454.49997 C 374.137 455.077 376.304 455.41 378.5 455.49997 C 366.197 459.051 353.52997 461.218 340.5 462 C 333.5 462.667 326.5 462.667 319.5 462 C 293.22 457.856 267.553 451.356 242.5 442.5 C 226.368 435.767 210.701 427.934 195.49998 419 C 182.865 411.375 171.698 401.875 162 390.49997 C 151.901 376.098 148.401 360.431 151.5 343.5 Z"/>
    </g>
    <g>
        <path fill="#0047fe" fill-rule="evenodd" stroke="none" d="M 127.5 435.5 C 127.721 436.735 128.388 437.735 129.5 438.49997 C 145.336 440.417 161.003 443.084 176.5 446.5 C 179.43 447.299 182.42998 447.632 185.5 447.5 C 193.305 449.588 201.305 451.422 209.5 453 C 211.108 455.609 213.44101 456.942 216.5 457 C 223.192 461.68 230.192 465.84604 237.5 469.5 C 244.388 471.041 250.38802 474.041 255.5 478.5 C 260.3 482.599 265.966 484.432 272.5 484 C 276.97 486.047 281.637 487.714 286.5 489 C 313.073 492.465 339.573 492.299 366 488.50003 C 366.333 488.83304 366.667 489.16702 367 489.50003 C 375.06 485.727 383.56 483.56 392.50003 483 C 395.53998 480.969 398.707 480.469 402 481.5 C 404.463 489.00302 405.463 496.67 405 504.50003 C 407.238 506.309 408.405 508.64203 408.50003 511.5 C 293.5 511.5 178.5 511.5 63.5 511.5 C 64.974 505.90698 66.1407 500.241 67 494.5 C 70.2783 487.611 73.2783 480.611 76 473.50003 C 79.6057 470.231 81.939 466.23096 83 461.5 C 89.28361 454.49 95.2836 447.157 101 439.49997 C 102.009 437.975 102.509 436.308 102.50001 434.5 C 104.815 432.642 107.481 431.309 110.50001 430.5 C 116.32399 432.054 121.991 433.721 127.5 435.5 Z"/>
    </g>
    <g>
        <path fill="#0a2474" fill-rule="evenodd" stroke="none" d="M 204.50002 434.5 C 207.833 435.167 211.167 435.833 214.5 436.5 C 215.49202 436.328 216.158 436.662 216.5 437.5 C 213.11601 437.66 209.783 437.32703 206.5 436.5 C 205.28699 436.253 204.62 435.586 204.50002 434.5 Z"/>
    </g>
    <g>
        <path fill="#e5af27" fill-rule="evenodd" stroke="none" d="M 434.5 428.5 C 434.52704 431.22998 433.86 433.73004 432.5 436 C 432.594 438.954 433.094 439.12103 434 436.5 C 434.699 438.074 434.365 439.407 433 440.50003 C 431.092 437.668 430.259 438.001 430.5 441.50003 C 427.482 441.704 424.482 442.037 421.5 442.5 C 424.424 450.198 426.42398 458.19803 427.5 466.5 C 425.269 458.619 422.269 450.953 418.5 443.5 C 424.48303 439.18304 429.816 434.183 434.5 428.5 Z"/>
    </g>
    <g>
        <path fill="#023ad5" fill-rule="evenodd" stroke="none" d="M 127.5 435.5 C 134.635 437.763 141.969 438.93 149.5 439 C 153.637 439.934 157.637 441.268 161.5 443 C 165.5 443.333 169.5 443.667 173.5 444 C 174.942 444.377 175.942 445.21002 176.5 446.5 C 161.003 443.084 145.336 440.417 129.5 438.49997 C 128.388 437.735 127.721 436.735 127.5 435.5 Z"/>
    </g>
    <g>
        <path fill="#6d707c" fill-rule="evenodd" stroke="none" d="M 422.49997 436.5 C 420.833 437.83298 419.167 439.16696 417.5 440.50003 C 409.319 445.256 400.652 448.922 391.49997 451.5 C 401.421 445.95297 411.75497 440.953 422.49997 436.5 Z"/>
    </g>
    <g>
        <path fill="#0b2d9b" fill-rule="evenodd" stroke="none" d="M 234.5 443.5 C 237.247 443.18698 239.914 443.52 242.5 444.5 C 249.844 446.434 256.844 449.101 263.5 452.5 C 259.663 451.917 255.83 451.25 252 450.5 C 248.788 451.45905 245.62198 451.45905 242.5 450.5 C 243.833 449.833 245.167 449.167 246.5 448.5 C 242.05199 447.582 238.052 445.916 234.5 443.5 Z"/>
    </g>
    <g>
        <path fill="#0134c9" fill-rule="evenodd" stroke="none" d="M 185.5 447.5 C 194.506 448.157 203.506 449.15698 212.50002 450.5 C 214.22902 453.537 216.89499 455.20303 220.50002 455.49997 C 221.429 456.689 221.762 458.022 221.5 459.5 C 225.346 461.119 229.346 462.619 233.5 464 C 235.05202 465.712 236.385 467.545 237.5 469.5 C 230.192 465.84604 223.192 461.68 216.5 457 C 213.44101 456.942 211.108 455.609 209.5 453 C 201.305 451.422 193.305 449.588 185.5 447.5 Z"/>
    </g>
    <g>
        <path fill="#2f55ab" fill-rule="evenodd" stroke="none" d="M 417.5 444.5 C 418.454 449.19397 420.288 453.528 423 457.50003 C 424.81 463.763 426.31 470.096 427.5 476.5 C 426.542 474.69803 425.875 472.69797 425.50003 470.49997 C 424.544 469.34103 423.544 468.17404 422.49997 467 C 421.243 462.13904 419.91 457.306 418.5 452.5 C 417.833 451.167 417.167 451.167 416.5 452.5 C 418.116 455.267 417.449 457.267 414.5 458.5 C 413.67603 455.215 413.17603 451.882 413 448.5 C 412.333 449.167 411.667 449.833 411 450.5 C 410.788 453.758 410.288 456.924 409.50003 460 C 405.21698 459.54602 400.88303 459.04596 396.5 458.5 C 396.175 456.868 395.175 455.868 393.50003 455.49997 C 391.547 456.156 389.547 456.489 387.5 456.50003 C 397.356 452.32104 407.35602 448.321 417.5 444.5 Z"/>
    </g>
    <g>
        <path fill="#0c256e" fill-rule="evenodd" stroke="none" d="M 280.5 457.50003 C 285.261 457.124 289.595 458.124 293.5 460.5 C 289.015 459.66 284.681 458.66 280.5 457.50003 Z"/>
    </g>
    <g>
        <path fill="#0b2f9e" fill-rule="evenodd" stroke="none" d="M 264.5 452.5 C 270.301 452.99103 275.634 454.65802 280.5 457.50003 C 284.681 458.66 289.015 459.66 293.5 460.5 C 298.049 460.624 302.382 461.291 306.5 462.5 C 298.55 462.322 290.717 461.322 283 459.5 C 279.861 460.426 276.694 460.592 273.5 460 C 274.623 458.956 275.956 458.29 277.5 458 C 276.127 457.125 274.627 456.625 273 456.50003 C 269.329 457.403 266.496 456.07 264.5 452.5 Z"/>
    </g>
    <g>
        <path fill="#090a1a" fill-rule="evenodd" stroke="none" d="M 417.5 440.50003 C 417.5 441.833 417.5 443.167 417.5 444.5 C 407.35602 448.321 397.356 452.32104 387.5 456.50003 C 381.539 457.088 375.87302 458.421 370.5 460.5 C 361.691 461.50604 353.024 462.506 344.50003 463.5 C 331.813 463.68198 319.147 463.34897 306.5 462.5 C 302.382 461.291 298.049 460.624 293.5 460.5 C 289.595 458.124 285.261 457.124 280.5 457.50003 C 275.634 454.65802 270.301 452.99103 264.5 452.5 C 264.167 452.5 263.833 452.5 263.5 452.5 C 256.844 449.101 249.844 446.434 242.5 444.5 C 239.914 443.52 237.247 443.18698 234.5 443.5 C 233.00502 443.011 231.671 442.34503 230.5 441.50003 C 234.481 442.021 238.481 442.354 242.5 442.5 C 267.553 451.356 293.22 457.856 319.5 462 C 326.5 462.667 333.5 462.667 340.5 462 C 353.52997 461.218 366.197 459.051 378.5 455.49997 C 382.116 455.10104 385.45 454.10104 388.5 452.5 C 389.79095 452.73697 390.79102 452.404 391.49997 451.5 C 400.652 448.922 409.319 445.256 417.5 440.50003 Z"/>
    </g>
    <g>
        <path fill="#0e2372" fill-rule="evenodd" stroke="none" d="M 387.5 456.50003 C 382.32303 459.438 376.657 460.771 370.5 460.5 C 375.87302 458.421 381.539 457.088 387.5 456.50003 Z"/>
    </g>
    <g>
        <path fill="#2e59bb" fill-rule="evenodd" stroke="none" d="M 425.50003 470.49997 C 418.309 473.025 410.97498 475.025 403.5 476.5 C 403.5 477.5 403.5 478.5 403.5 479.5 C 403.167 479.5 402.833 479.5 402.5 479.5 C 402.662 477.47296 402.495 475.473 402 473.50003 C 399.616 468.726 397.782 463.726 396.5 458.5 C 400.88303 459.04596 405.21698 459.54602 409.50003 460 C 410.288 456.924 410.788 453.758 411 450.5 C 411.667 449.833 412.333 449.167 413 448.5 C 413.17603 451.882 413.67603 455.215 414.5 458.5 C 417.449 457.267 418.116 455.267 416.5 452.5 C 417.167 451.167 417.833 451.167 418.5 452.5 C 419.91 457.306 421.243 462.13904 422.49997 467 C 423.544 468.17404 424.544 469.34103 425.50003 470.49997 Z"/>
    </g>
    <g>
        <path fill="#091c5e" fill-rule="evenodd" stroke="none" d="M 306.5 462.5 C 319.147 463.34897 331.813 463.68198 344.50003 463.5 C 335.014 464.494 325.348 464.827 315.5 464.5 C 312.311 464.142 309.311 463.475 306.5 462.5 Z"/>
    </g>
    <g>
        <path fill="#102f98" fill-rule="evenodd" stroke="none" d="M 370.5 460.5 C 369.77002 462.045 368.437 462.878 366.5 463 C 349.393 465.441 332.393 465.941 315.5 464.5 C 325.348 464.827 335.014 464.494 344.50003 463.5 C 353.024 462.506 361.691 461.50604 370.5 460.5 Z"/>
    </g>
    <g>
        <path fill="#daaa35" fill-rule="evenodd" stroke="none" d="M 427.5 467.5 C 431.302 472.683 432.96796 478.683 432.5 485.5 C 430.847 479.60602 429.18 473.606 427.5 467.5 Z"/>
    </g>
    <g>
        <path fill="#1c110e" fill-rule="evenodd" stroke="none" d="M 447.5 372.5 C 449.573 373.3 451.24 374.633 452.5 376.50003 C 453.79095 385.63 451.124 393.29697 444.5 399.5 C 443.883 399.611 443.383 399.944 443 400.5 C 442.66196 405.547 441.99496 410.547 441 415.5 C 439.295 420.148 437.129 424.481 434.5 428.5 C 429.816 434.183 424.48303 439.18304 418.5 443.5 C 422.269 450.953 425.269 458.619 427.5 466.5 C 427.5 466.833 427.5 467.167 427.5 467.5 C 429.18 473.606 430.847 479.60602 432.5 485.5 C 432.99298 487.806 433.326 490.139 433.5 492.5 C 432.833 492.5 432.167 492.5 431.5 492.5 C 431.59 489.84796 430.924 487.515 429.5 485.5 C 429.58 482.219 428.913 479.21896 427.5 476.5 C 426.31 470.096 424.81 463.763 423 457.50003 C 420.288 453.528 418.454 449.19397 417.5 444.5 C 417.5 443.167 417.5 441.833 417.5 440.50003 C 419.167 439.16696 420.833 437.83298 422.49997 436.5 C 426.87604 433.12598 430.542 429.126 433.5 424.50003 C 438.34998 418.673 441.016 411.83997 441.50003 404 C 441.16403 402.97 440.49704 402.47 439.49997 402.5 C 438.662 402.158 438.328 401.492 438.49997 400.5 C 444.951 396.701 448.618 391.035 449.5 383.5 C 450.142 379.525 449.142 376.192 446.5 373.5 C 447.167 373.5 447.5 373.167 447.5 372.5 Z"/>
    </g>
    <g>
        <path fill="#4580fb" fill-rule="evenodd" stroke="none" d="M 425.50003 470.49997 C 425.875 472.69797 426.542 474.69803 427.5 476.5 C 428.073 488.41803 429.739 500.085 432.5 511.5 C 425.16702 511.5 417.833 511.5 410.5 511.5 C 408.81 500.69 406.476 490.02298 403.5 479.5 C 403.5 478.5 403.5 477.5 403.5 476.5 C 410.97498 475.025 418.309 473.025 425.50003 470.49997 Z"/>
    </g>
    <g>
        <path fill="#0645eb" fill-rule="evenodd" stroke="none" d="M 255.5 478.5 C 265.473 481.107 275.473 483.60696 285.5 486 C 323.914 491.225 361.747 488.725 399 478.5 C 400.256 478.64798 401.423 478.982 402.5 479.5 C 402.833 479.5 403.167 479.5 403.5 479.5 C 406.476 490.02298 408.81 500.69 410.5 511.5 C 409.833 511.5 409.16702 511.5 408.50003 511.5 C 408.405 508.64203 407.238 506.309 405 504.50003 C 405.463 496.67 404.463 489.00302 402 481.5 C 398.707 480.469 395.53998 480.969 392.50003 483 C 383.56 483.56 375.06 485.727 367 489.50003 C 366.667 489.16702 366.333 488.83304 366 488.50003 C 339.573 492.299 313.073 492.465 286.5 489 C 281.637 487.714 276.97 486.047 272.5 484 C 265.966 484.432 260.3 482.599 255.5 478.5 Z"/>
    </g>
    <g>
        <path fill="#14265a" fill-rule="evenodd" stroke="none" d="M 429.5 485.5 C 430.924 487.515 431.59 489.84796 431.5 492.5 C 430.076 490.485 429.41 488.152 429.5 485.5 Z"/>
    </g>
    <g>
        <path fill="#4a71cd" fill-rule="evenodd" stroke="none" d="M 427.5 476.5 C 428.913 479.21896 429.58 482.219 429.5 485.5 C 429.41 488.152 430.076 490.485 431.5 492.5 C 432.392 498.853 433.392 505.186 434.5 511.5 C 433.833 511.5 433.167 511.5 432.5 511.5 C 429.739 500.085 428.073 488.41803 427.5 476.5 Z"/>
    </g>
    <g>
        <path fill="#191424" fill-rule="evenodd" stroke="none" d="M 431.5 492.5 C 432.167 492.5 432.833 492.5 433.5 492.5 C 434.34097 494.379 434.675 496.379 434.5 498.5 C 434.467 502.869 434.8 507.202 435.5 511.5 C 435.167 511.5 434.833 511.5 434.5 511.5 C 433.392 505.186 432.392 498.853 431.5 492.5 Z"/>
    </g>
    <g>
        <path fill="#2d1f0e" fill-rule="evenodd" stroke="none" d="M 434.5 498.5 C 435.955 502.61804 436.955 506.951 437.5 511.5 C 436.833 511.5 436.167 511.5 435.5 511.5 C 434.8 507.202 434.467 502.869 434.5 498.5 Z"/>
    </g>
</svg>
