<svg width="400" height="400" xmlns="http://www.w3.org/2000/svg">
    <defs>
        <linearGradient id="paint0_linear_60_302" x1="200" y1="0" x2="200" y2="400" gradientUnits="userSpaceOnUse">
            <stop offset="0" stop-color="#ffffff"/>
            <stop offset="1" stop-color="#ffffff" stop-opacity="0"/>
        </linearGradient>
    </defs>
    <path fill="#ffffff" stroke="none" d="M 200 0 L 200 0 C 310.45694 0 400 89.54305 400 200 L 400 200 C 400 310.45694 310.45694 400 200 400 L 200 400 C 89.54305 400 0 310.45694 0 200 L 0 200 C -0 89.54305 89.54305 0 200 0 Z"/>
    <g style="mix-blend-mode:overlay;isolation:auto">
        <path fill="none" stroke="url(#paint0_linear_60_302)" stroke-opacity="0.5" stroke-width="2" d="M 200 1 L 200 1 C 309.90466 1 399 90.09534 399 200 L 399 200 C 399 309.90466 309.90466 399 200 399 L 200 399 C 90.09534 399 1 309.90466 1 200 L 1 200 C 1 90.09534 90.09534 1 200 1 Z"/>
    </g>
    <path fill="#000000" stroke="none" d="M 251.46898 272.595 C 241.585 272.595 232.674 271.118 224.737 268.165 C 216.949 265.212 210.80899 261.133 206.316 255.93 C 201.824 250.58598 199.57701 244.46901 199.57701 237.579 C 199.57701 236.594 199.727 234.83598 200.02602 232.305 L 237.09201 232.305 C 236.792 236.66399 238.14 240.18 241.135 242.852 C 244.28 245.38301 248.698 246.649 254.389 246.649 C 259.181 246.649 263.15 245.805 266.295 244.118 C 269.44 242.43 271.012 240.039 271.012 236.946 C 271.012 233.993 269.29 231.672 265.846 229.985 C 262.551 228.15698 257.01 225.97699 249.222 223.446 C 241.135 220.91399 234.321 218.45302 228.77998 216.063 C 223.38899 213.531 218.746 209.945 214.853 205.305 C 210.95898 200.664 209.012 194.828 209.012 187.797 C 209.012 180.906 211.183 174.719 215.527 169.234 C 219.87001 163.609 225.935 159.25 233.722 156.156 C 241.66 153.062 250.79501 151.515 261.128 151.515 C 271.462 151.515 280.447 153.132 288.085 156.367 C 295.723 159.461 301.638 163.82 305.831 169.445 C 310.025 175.07 312.121 181.398 312.121 188.43 L 311.897 191.59398 L 277.078 191.59398 C 277.377 187.375 276.029 184 273.034 181.469 C 270.039 178.937 265.771 177.67198 260.23 177.67198 C 255.887 177.67198 252.292 178.515 249.44702 180.203 C 246.751 181.89001 245.403 184.211 245.403 187.164 C 245.403 190.258 247.20102 192.859 250.79501 194.96898 C 254.539 196.937 260.305 199.188 268.092 201.719 C 276.179 204.25002 282.843 206.781 288.085 209.31302 C 293.476 211.703 298.044 215.149 301.788 219.649 C 305.682 224.00798 307.628 229.493 307.628 236.102 C 307.628 243.696 305.157 250.235 300.215 255.719 C 295.423 261.204 288.759 265.423 280.223 268.376 C 271.836 271.188 262.251 272.595 251.46898 272.595 Z"/>
    <path fill="#000000" stroke="none" d="M 200.26602 78.7878 L 124.926 321.212 L 87.8788 321.212 L 162.994 78.7878 L 200.26602 78.7878 Z"/>
</svg>
