<svg width="3000" height="3000" xmlns="http://www.w3.org/2000/svg">
    <defs>
        <linearGradient id="SVGID_1_" x1="728.3016" y1="-729.7038" x2="3728.2993" y2="-729.7038" gradientUnits="userSpaceOnUse" gradientTransform="matrix(0.7071 -0.7071 0.7071 0.7071 440.3318 3591.6245)">
            <stop offset="0" stop-color="#00f9ff"/>
            <stop offset="1" stop-color="#ff0095"/>
        </linearGradient>
    </defs>
    <g>
        <path fill="#000000" stroke="none" d="M 3000 1500 C 3000 1897.8247 2841.9646 2279.3557 2560.6602 2560.6602 C 2279.3557 2841.9646 1897.8247 3000 1500 3000 C 1102.1753 3000 720.6444 2841.9646 439.3398 2560.6602 C 158.03526 2279.3557 0 1897.8247 0 1500 C 0 1102.1753 158.03526 720.6444 439.3398 439.3398 C 720.6444 158.03526 1102.1753 0 1500 0 C 1897.8247 0 2279.3557 158.03526 2560.6602 439.3398 C 2841.9646 720.6444 3000 1102.1753 3000 1500 Z"/>
        <path fill="url(#SVGID_1_)" stroke="none" d="M 439.3 439.3 C -146.5 1025.1 -146.5 1974.8 439.3 2560.6 C 1025.1 3146.3997 1974.8 3146.3997 2560.6 2560.6 C 3146.3997 1974.8 3146.3997 1025.1 2560.6 439.3 C 1974.8 -146.5 1025.1 -146.4 439.3 439.3 Z M 2475.9 2475.9 C 1937.8 3014 1062.3 3014 524.2 2475.9 C -13.9 1937.8 -13.9 1062.3 524.2 524.2 C 1062.3 -13.9 1937.8 -13.9 2475.9 524.2 C 3014 1062.3 3014 1937.8 2475.9 2475.9 Z"/>
        <path fill="#ffffff" stroke="none" d="M 1161.5 1693.1 L 955.7 1693.1 L 1163.6 734.7999 L 2285.2 734.7999 L 2000.2 1107.8 L 1523.2 1107.8 L 1474.4001 1334.1 L 1827.2999 1334.1 L 936.1 2499.2 Z"/>
    </g>
</svg>
