<svg width="264" height="264" xmlns="http://www.w3.org/2000/svg">
    <defs>
        <linearGradient id="c" x1="238.349" y1="16.213" x2="37.9" y2="231.401" gradientUnits="userSpaceOnUse">
            <stop offset="0" stop-color="#5d24c6"/>
            <stop offset="1" stop-color="#9c4ed6"/>
        </linearGradient>
        <filter id="a" x="0" y="0" width="264" height="264" filterUnits="userSpaceOnUse">
            <feFlood color-interpolation-filters="sRGB" flood-color="#000000" flood-opacity="0" result="BackgroundImageFix"/>
            <feColorMatrix color-interpolation-filters="sRGB" in="SourceAlpha" result="hardAlpha" type="matrix" values="0 0 0 0 0 0 0 0 0 0 0 0 0 0 0 0 0 0 127 0"/>
            <feOffset color-interpolation-filters="sRGB" in="hardAlpha" dx="0" dy="4" result="result3"/>
            <feGaussianBlur color-interpolation-filters="sRGB" in="result3" stdDeviation="2 2" result="result4"/>
            <feComposite color-interpolation-filters="sRGB" in="result4" in2="hardAlpha" operator="out" result="result5"/>
            <feColorMatrix color-interpolation-filters="sRGB" in="result5" result="result6" type="matrix" values="0 0 0 0 0 0 0 0 0 0 0 0 0 0 0 0 0 0 0.25 0"/>
            <feBlend color-interpolation-filters="sRGB" in="result6" in2="BackgroundImageFix" mode="normal" result="effect1_dropShadow_10_1251"/>
            <feBlend color-interpolation-filters="sRGB" in="SourceGraphic" in2="effect1_dropShadow_10_1251" mode="normal" result="shape"/>
        </filter>
        <clipPath id="b">
            <path fill="#000000" stroke="none" d="M 132 0 L 132 0 C 202.69244 0 260 57.307552 260 128 L 260 128 C 260 198.69243 202.69244 256 132 256 L 132 256 C 61.307552 256 4 198.69243 4 128 L 4 128 C 4 57.307552 61.307552 0 132 0 Z"/>
        </clipPath>
    </defs>
    <g filter="url(#a)">
        <g clip-path="url(#b)">
            <path fill="url(#c)" stroke="none" d="M 132 0 L 132 0 C 202.69244 0 260 57.307552 260 128 L 260 128 C 260 198.69243 202.69244 256 132 256 L 132 256 C 61.307552 256 4 198.69243 4 128 L 4 128 C 4 57.307552 61.307552 0 132 0 Z"/>
            <path fill="#f1f1f1" stroke="none" d="M 200.867 120.538 C 199.03389 120.146675 197.19504 119.78298 195.351 119.447 C 194.8155 115.12145 193.87129 110.856384 192.531 106.709 C 217.351 110.704 233.4 117.05499 233.4 124.20801 C 233.4 124.28701 233.39798 124.367004 233.394 124.447 C 232.802 136.427 187.18498 146.1 131 146.1 C 74.446 146.1 28.6 136.3 28.6 124.211 C 28.6 124.135994 28.602 124.062 28.605 123.988 C 28.934 116.842 45.282 110.51499 70.341 106.571 C 68.992386 110.71253 68.03946 114.97259 67.495 119.29401 C 65.36754 119.673096 63.24657 120.08783 61.133 120.538 C 58.690075 121.05624 56.261234 121.63877 53.849003 122.285 L 53.849003 122.289 C 51.73322 122.85313 49.63852 123.49355 47.569 124.209 C 51.127 125.453 55.649 126.705 61.133 127.877 C 63.064888 128.28908 65.00313 128.67079 66.947 129.022 L 66.947 129.026 C 83.893 132.1 106.25701 134.023 131 134.023 C 156.148 134.023 178.838 132.037 195.881 128.874 L 195.881 128.87 C 197.60199 128.551 199.265 128.22 200.867 127.877 C 206.353 126.704 210.876 125.452 214.435 124.20801 C 210.876 122.963 206.353 121.711 200.867 120.538 Z M 208.147 86.453 C 208.14899 86.396 208.151 86.339 208.151 86.282 C 208.151 79.828 191.00899 74.237 166.009 71.512 C 171.98358 75.4831 177.26834 80.40475 181.65402 86.08199 C 181.97798 86.148 182.299 86.215 182.617 86.282 L 181.919 86.427 L 181.92102 86.43 C 169.183 89.049 151.409 90.747 131.467 90.747 C 111.476 90.747 93.664 89.04001 80.92 86.41101 L 80.922 86.408 L 80.319 86.282 C 80.594 86.22399 80.872 86.16599 81.152 86.109 C 85.53611 80.427315 90.820625 75.50153 96.796 71.527 C 71.866 74.257 54.785 79.839 54.785 86.282 L 54.785 86.285 C 54.785 94.347 91.91 100.755 116.933 102.52699 C 122.53199 102.923 131.299 102.951 131.299 102.951 C 134.394 103.08499 140.03 102.927 145.606 102.543 C 170.765 100.808 207.777 94.47 208.147 86.453 Z M 54.785 169.946 C 54.785 165.73 62.102 161.881 74.147 158.96 C 76.05445 162.78665 78.32131 166.42334 80.917 169.821 L 80.318 169.946 C 80.591 170.004 80.867 170.061 81.145 170.118 L 81.199 170.188 L 81.474 170.188 C 94.17799 172.754 111.764 174.411 131.467 174.411 C 151.171 174.411 168.757 172.754 181.461 170.188 L 181.628 170.188 L 181.662 170.144 C 181.983 170.079 182.302 170.013 182.617 169.946 L 181.925 169.802 C 184.51903 166.40257 186.78452 162.76459 188.69098 158.937 C 200.794 161.861 208.151 165.718 208.151 169.946 C 208.151 170.027 208.148 170.108 208.143 170.188 C 207.551 179.212 173.449 186.488 131.467 186.488 C 89.487 186.488 55.384 179.212 54.791996 170.188 C 54.786953 170.10744 54.78462 170.02672 54.785 169.946 Z"/>
        </g>
    </g>
</svg>
