<svg width="288" height="288" xmlns="http://www.w3.org/2000/svg">
    <path fill="#ffffff" stroke="none" d="M 250 144 C 250 208.61731 202.76602 261 144.5 261 C 86.233955 261 39 208.61731 39 144 C 39 79.38268 86.233955 27 144.5 27 C 202.76602 27 250 79.38268 250 144 Z"/>
    <path fill="#f00a19" stroke="none" d="M 161.33 137.025 C 164.542 142.707 169.204 143.17 172.313 138.452 C 176.391 132.272 179.848 125.167 181.318 117.98 C 182.258 113.37701 181.923 106.791 176.558 103.409 C 172.84901 101.05701 167.591 101.30999 165.619 104.567 C 162.389 109.889 157.333 114.963 158.757 122.857 C 160.125 127.02701 158.667 132.315 161.33 137.025 Z M 126.671005 134.766 C 129.995 134.522 132.486 133.438 134.052 129.624 C 136.672 123.255 140 117.243 138.443 109.761 C 138.799 105.328995 139.176 100.73999 136.582 96.3385 C 132.684 89.7218 127.80399 90.283104 123.41699 94.937096 C 115.552 103.27701 114.25701 118.97401 119.38099 129.615 C 121.006 133.001 123.001 135.036 126.671005 134.766 Z M 193.70299 140.38 C 191.872 138.623 187.73 141.884 185.984 144.884 C 184.325 147.725 184.599 150.982 187.03502 152.821 C 191.13 155.902 188.622 158.503 187.73 161.82 C 183.01198 179.52802 169.65 187.344 153.491 190.96101 C 142.178 193.503 130.355 190.057 121.495 183.98 C 111.889 177.385 106.057 166.204 100.804 155.315 C 97.0129 147.468 93.8995 140.843 103.827 135.285 C 107.103 133.45 109.072 130.142 107.387 126.011 C 105.65 121.756 101.739 121.533 98.2136 122.175 C 93.7082 123.066 89.0326 122.336 85.014 120.114 C 82.1322 118.597 78.8044 117.629 76.0341 120.757 C 73.2638 123.885 75.2965 126.881 76.077 129.971 C 77.2391 134.548 82.1579 137.127 82.1665 142.429 C 82.1879 157.393 87.7757 169.585 97.077194 181.82 C 108.326004 196.622 121.843 203.968 139.395 207.68298 C 146.424 209.17 151.913 205.21498 160.194 207.117 C 173.37198 207.58 182.87901 196.987 192.24098 188.206 C 201.603 179.42499 201.615 163.487 214.17998 156.099 C 218.18602 153.742 218.04 149.161 216.226 145.308 C 211.08 134.436 200.518 146.903 193.70299 140.38 Z M 271.752 117.239 C 270.526 107.596 267.271 98.4298 265.354 88.9547 C 261.863 71.7443 247.956 59.1794 236.99002 45.8345 C 232.62502 40.5248 227.316 34.4352 221.411 31.4739 C 204.077 22.7873 185.221 16.8177 166.116 14.585 C 148.156 12.4851 129.875 16.2991 112.49 21.870201 C 107.43801 23.485802 101.927 22.6416 97.1458 26.4257 C 84.3836 36.5393 69.8931 44.2917 58.2244 55.9824 C 54.0194 60.2298 50.1174 64.7663 46.547096 69.5587 C 39.2825 79.1881 35.869 91.58589 27.6781 100.20801 C 26.490198 101.455 25.8641 103.127 25.3967 104.781 C 23.5999 111.209 23.2525 117.63699 20.7438 123.885 C 18.1322 130.442 15.233201 136.566 16.1852 143.86 C 16.97 149.859 18.1579 155.542 17.9821 161.602 C 20.7224 176.768 21.700102 192.195 26.931898 206.865 C 29.196198 213.216 33.7934 217.887 37.4471 222.99498 C 49.4117 239.743 61.0333 257.459 83.4616 262.198 C 86.634995 262.867 89.8941 263.762 92.7459 265.262 C 110.903 274.827 130.698 274.189 149.996 272.83 C 174.315 271.116 196.09198 261.217 214.429 244.894 C 218.546 241.22998 224.387 240.48398 227.633 235.688 C 235.40799 224.212 246.017 214.72798 251.588 201.69598 C 257.099 188.79698 262.082 175.71802 267.957 162.999 C 270.067 158.435 270.586 153.695 270.684 148.878 C 270.74 146.114 270.654 143.307 270.646 140.521 C 270.616 132.769 272.708 124.92701 271.735 117.2 L 271.752 117.239 Z M 239.679 147.348 C 234.868 175.90599 223.559 202.845 197.43 220.389 C 183.70699 229.603 170.782 239.09099 152.899 239.45102 C 145.918 239.593 139.013 245.134 130.865 243.462 C 113.91801 240.655 98.929794 234.583 83.543 225.211 C 64.3182 213.498 61.1362 193.897 50.4924 178.101 C 49.5661 176.729 48.957104 174.244 49.574696 172.877 C 55.0081 161.07 48.2882 149.277 49.6733 137.14 C 50.9598 126.122 55.784298 117.24701 59.811096 108.063 C 65.4117 95.3014 74.8205 84.5535 85.1126 74.8812 C 98.3637 62.4192 112.331 50.5485 131.316 49.2928 C 138.829 48.8 144.64 43.9789 152.217 44.416 C 180.838 46.0702 203.948 55.9524 222.264 79.9638 C 238.191 100.812004 243.629 123.761 239.662 147.31 L 239.679 147.348 Z"/>
</svg>
