<svg width="256" height="256" xmlns="http://www.w3.org/2000/svg">
    <defs>
        <linearGradient id="paint0_linear_6423_40363" x1="2.21722" y1="21.0232" x2="29.9326" y2="10.9444" gradientUnits="userSpaceOnUse" gradientTransform="matrix(7.9999995 0 0 8 -0.00011281 -0.00000519)">
            <stop offset="0" stop-color="#29bcfa"/>
            <stop offset="0.43" stop-color="#6464e4"/>
            <stop offset="1" stop-color="#b45afa"/>
        </linearGradient>
        <linearGradient id="paint1_linear_6423_40363" x1="17" y1="-2" x2="16" y2="32" gradientUnits="userSpaceOnUse" gradientTransform="matrix(7.9999995 0 0 8 -0.00011281 -0.00000519)">
            <stop offset="0" stop-color="#33117b" stop-opacity="0"/>
            <stop offset="0.827261" stop-color="#33117b"/>
        </linearGradient>
    </defs>
    <path id="rect1" fill="url(#paint0_linear_6423_40363)" stroke="none" d="M 128 0 L 128 0 C 198.69243 0 256 57.307552 256 128 L 256 128 C 256 198.69243 198.69243 256 128 256 L 128 256 C 57.307552 256 0 198.69243 0 128 L 0 128 C 0 57.307552 57.307552 0 128 0 Z"/>
    <path id="rect2" fill="url(#paint1_linear_6423_40363)" fill-opacity="0.66" stroke="none" d="M 128 0 L 128 0 C 198.69243 0 256 57.307552 256 128 L 256 128 C 256 198.69243 198.69243 256 128 256 L 128 256 C 57.307552 256 0 198.69243 0 128 L 0 128 C 0 57.307552 57.307552 0 128 0 Z"/>
    <path id="path2" fill="#d7cdff" fill-rule="evenodd" stroke="none" d="M 187.54709 185.25041 C 187.5631 185.35599 187.571 185.46399 187.571 185.57278 C 187.574 186.41519 187.1414 187.19841 186.42378 187.6408 L 128.951 223.0792 C 128.1742 223.55759 127.1966 223.56079 126.4222 223.08319 L 69.413895 188.08604 C 68.69629 187.64363 68.25998 186.86285 68.262856 186.02045 C 68.262856 185.94844 68.265854 185.87325 68.27086 185.80125 C 68.262856 185.72127 68.262856 185.64845 68.262856 185.57005 L 68.25986 141.84525 C 68.25986 141.78925 68.262856 141.73965 68.265854 141.68925 C 68.22586 141.05565 68.43306 140.41325 68.88184 139.91565 C 69.64666 139.06845 70.8993 138.87325 71.88282 139.44604 L 127.90234 171.95805 L 183.40475 139.76045 C 183.49435 139.70445 183.59033 139.66045 183.68555 139.61885 C 184.09193 139.30444 184.60074 139.11806 185.15674 139.11806 C 186.48633 139.11806 187.56874 140.19965 187.56874 141.53085 L 187.57175 184.91165 C 187.57175 185.02844 187.56375 185.13965 187.54784 185.25085 Z M 73.08622 181.75359 L 89.64549 171.7488 L 73.08366 148.95518 Z M 92.4911 175.6688 C 87.8975 178.44238 75.3135 186.04478 75.3135 186.04478 L 119.928696 213.43678 Z M 136.2135 212.9336 L 180.51909 185.61198 L 163.3999 175.31839 Z M 166.23589 171.39279 L 182.7455 181.31999 L 182.74348 148.55199 Z M 126.69031 176.8328 L 79.33086 149.344 L 127.8975 216.19998 L 176.01512 149.62239 L 129.1111 176.8328 C 128.3639 177.26639 127.4375 177.26639 126.69031 176.8328 Z M 70.58925 130.1088 C 69.29494 130.06079 68.257576 129.0024 68.257416 127.69599 L 68.25242 70.8615 C 68.25242 70.71991 68.26842 70.5807 68.29242 70.447105 C 68.26852 70.3167 68.25242 70.183105 68.25242 70.047104 C 68.24942 69.204865 68.68603 68.42103 69.403145 67.98183 L 126.87866 32.731987 C 127.64987 32.256786 128.62427 32.256786 129.39548 32.729286 L 186.40427 67.53425 C 187.12427 67.97345 187.56107 68.757286 187.56107 69.599525 C 187.56107 69.63953 187.55807 69.671524 187.55807 69.705124 C 187.55807 69.745125 187.56107 69.77713 187.56107 69.81633 L 187.56609 127.39849 C 187.56609 128.41609 186.93246 129.2889 186.04126 129.6417 L 129.06206 160.98569 C 128.33887 161.38329 127.45966 161.38329 126.73646 160.98569 Z M 73.077736 74.302704 L 73.080734 120.03519 L 93.577705 86.62798 Z M 182.7375 73.8691 L 162.0471 86.36959 L 182.7407 120.0936 Z M 159.5247 82.25599 C 164.8295 79.050545 180.50151 69.58279 180.50151 69.58279 L 134.5231 41.510227 Z M 120.93429 42.035667 L 75.313255 70.01639 L 96.1007 82.516785 Z M 74.591415 126.80319 L 127.89911 156.1184 L 181.19589 126.8008 L 127.8903 39.925747 Z"/>
</svg>
