<svg width="623.04" height="551.66" xmlns="http://www.w3.org/2000/svg">
    <path fill="#000000" stroke="none" d="M 407.43 92.600006 C 407.43 76.88 393.42996 62.29 377.69 62.29 C 360.85004 62.29 346.82 76.88 346.82 92.600006 C 346.82 108.87 360.82 123.46001 377.69 123.46001 C 393.4 123.46001 407.43 108.87 407.43 92.600006 Z M 490.49 425.38998 L 408.55 244.12 C 447.84 236.83 583.09 181.83 603.29 62.29 C 606.1 46.580006 596 37 580.28 37 L 493.28 37 C 463 37 455.69 0 416.41 0 L 223.92 0 C 161.06 53.31 125.15 137.49 125.15 203.72 C 125.15 234.58 133 262.08 149.84 279.48 L 139.74 314.83 C 107.74 308.66 80.81 305.83 59.49 305.83 C 37.6 305.85 0 308.66 0 331.67 C 0 369.82996 111.12 452.33002 277.79 505.67 C 376 537.1 469.16 551.67 534.26 551.67 C 584.26 551.67 617.32 542.67 622.37 527.54 C 629.67 504.52002 576.35 465.8 490.49 425.38998 Z M 152.65 409.11 L 181.83 298 C 189.3615 299.82565 197.08046 300.76535 204.83 300.8 C 267.12 300.8 296.83 243.56 296.83 177.9 C 296.83 126.83 278.32 71.27 243.52 34.23 L 402.93997 34.23 C 434.37 34.23 439.94 67.91 469.16 67.91 L 518.55 67.91 C 512.94 85.3 523.6 110 547.17 113.36001 C 510.17004 178.46002 400.7 215.5 356.92004 218.35999 L 481 503.4 C 399.57 505.64 227.85002 455.69 152.65 409.11 Z"/>
</svg>
