<svg width="256" height="256" xmlns="http://www.w3.org/2000/svg">
    <defs>
        <clipPath id="b3789ee3af">
            <path fill="#000000" stroke="none" d="M 66.70703 39.992188 L 124.45703 39.992188 L 124.45703 114.99219 L 66.70703 114.99219 Z M 66.70703 39.992188"/>
        </clipPath>
        <clipPath id="641393d507">
            <path fill="#000000" stroke="none" d="M 69.578125 66.10547 L 114.27734 66.10547 L 114.27734 110.80469 L 69.578125 110.80469 Z M 69.578125 66.10547"/>
        </clipPath>
        <clipPath id="647645816b">
            <path fill="#000000" stroke="none" d="M 91.92578 66.10547 C 79.58594 66.10547 69.578125 76.109375 69.578125 88.45312 C 69.578125 100.796875 79.58594 110.80469 91.92578 110.80469 C 104.26952 110.80469 114.27734 100.796875 114.27734 88.45312 C 114.27734 76.109375 104.26952 66.10547 91.92578 66.10547 Z M 91.92578 66.10547"/>
        </clipPath>
        <clipPath id="16055d7235">
            <path fill="#000000" stroke="none" d="M 52.058594 64.78516 L 140 64.78516 L 140 119.375 L 52.058594 119.375 Z M 52.058594 64.78516"/>
        </clipPath>
        <clipPath id="39382349d6">
            <path fill="#000000" stroke="none" d="M 96 64.78516 C 71.73047 64.78516 52.058594 77.00391 52.058594 92.07812 C 52.058594 107.15626 71.73047 119.375 96 119.375 C 120.26952 119.375 139.9414 107.15626 139.9414 92.07812 C 139.9414 77.00391 120.26952 64.78516 96 64.78516 Z M 96 64.78516"/>
        </clipPath>
        <clipPath id="4f767d4462">
            <path fill="#000000" stroke="none" d="M 52.058594 64.78516 L 139.8086 64.78516 L 139.8086 119.53516 L 52.058594 119.53516 Z M 52.058594 64.78516"/>
        </clipPath>
        <clipPath id="d2195f0028">
            <path fill="#000000" stroke="none" d="M 95.9961 64.78516 C 71.73047 64.78516 52.058594 77.00391 52.058594 92.07812 C 52.058594 107.15234 71.73047 119.371086 95.9961 119.371086 C 120.265625 119.371086 139.9336 107.15234 139.9336 92.07812 C 139.9336 77.00391 120.265625 64.78516 95.9961 64.78516 Z M 95.9961 64.78516"/>
        </clipPath>
        <clipPath id="a4a029ca47">
            <path fill="#000000" stroke="none" d="M 51.097656 92.08203 L 138.84766 92.08203 L 138.84766 137.07813 L 51.097656 137.07813 Z M 51.097656 92.08203"/>
        </clipPath>
        <clipPath id="e930ac2680">
            <path fill="#000000" stroke="none" d="M 95.039055 92.08203 C 70.76953 92.08203 51.097656 102.234375 51.097656 114.76172 C 51.097656 127.28907 70.76953 137.4414 95.039055 137.4414 C 119.30468 137.4414 138.97656 127.28907 138.97656 114.76172 C 138.97656 102.234375 119.30468 92.08203 95.039055 92.08203 Z M 95.039055 92.08203"/>
        </clipPath>
        <clipPath id="d2456a74ea">
            <path fill="#000000" stroke="none" d="M 75.31641 77.70703 L 116.56641 77.70703 L 116.56641 106.95704 L 75.31641 106.95704 Z M 75.31641 77.70703"/>
        </clipPath>
        <clipPath id="618dea2cd2">
            <path fill="#000000" stroke="none" d="M 72.99219 69.23047 L 118.74219 69.23047 L 118.74219 114.98046 L 72.99219 114.98046 Z M 72.99219 69.23047"/>
        </clipPath>
        <clipPath id="9294020e7d">
            <path fill="#000000" stroke="none" d="M 13.718749 13.648439 L 177.96875 13.648439 L 177.96875 178.64844 L 13.718749 178.64844 Z M 13.718749 13.648439"/>
        </clipPath>
        <clipPath id="2cefad128b">
            <path fill="#000000" stroke="none" d="M 95.9961 13.648439 C 50.554684 13.648439 13.718749 50.51953 13.718749 95.9961 C 13.718749 141.47656 50.554684 178.34375 95.9961 178.34375 C 141.4336 178.34375 178.27344 141.47656 178.27344 95.9961 C 178.27344 50.51953 141.4336 13.648439 95.9961 13.648439 Z M 95.9961 13.648439"/>
        </clipPath>
        <clipPath id="c28d0c7100">
            <path fill="#000000" stroke="none" d="M 52.058594 110.80469 L 139.8086 110.80469 L 139.8086 155.80469 L 52.058594 155.80469 Z M 52.058594 110.80469"/>
        </clipPath>
        <clipPath id="52bba64555">
            <path fill="#000000" stroke="none" d="M 95.9961 110.80469 C 71.73047 110.80469 52.058594 120.95703 52.058594 133.48438 C 52.058594 146.01172 71.73047 156.16406 95.9961 156.16406 C 120.265625 156.16406 139.9375 146.01172 139.9375 133.48438 C 139.9375 120.95703 120.265625 110.80469 95.9961 110.80469 Z M 95.9961 110.80469"/>
        </clipPath>
    </defs>
    <g transform="matrix(1.3333334 0 0 1.3333334 0 0)">
        <path fill="#ffffff" stroke="none" d="M -19.2 -19.2 L 211.2 -19.2 L 211.2 211.2 L -19.2 211.2 Z"/>
        <path fill="#000000" stroke="none" d="M -19.2 -19.2 L 211.2 -19.2 L 211.2 211.2 L -19.2 211.2 Z"/>
        <g clip-path="url(#b3789ee3af)">
            <path fill="#ffffff" stroke="none" d="M 118.43359 68.88281 L 118.43359 62.749996 C 118.43359 50.203125 108.22266 39.992188 95.67578 39.992188 C 83.12891 39.992188 72.91406 50.19922 72.91406 62.749996 L 72.91406 68.88281 C 69.47656 68.97656 66.71875 71.77734 66.71875 75.234375 L 66.71875 108.38673 C 66.71875 108.80469 66.75781 109.21876 66.83984 109.62891 C 66.921875 110.03906 67.04297 110.4375 67.203125 110.82423 C 67.36328 111.21094 67.55859 111.578125 67.78906 111.92578 C 68.02344 112.27344 68.28516 112.59374 68.58203 112.890625 C 68.87891 113.1875 69.19922 113.44922 69.546875 113.683586 C 69.89453 113.91406 70.26172 114.11328 70.64844 114.27343 C 71.03516 114.43359 71.43359 114.55078 71.84375 114.63282 C 72.25391 114.714836 72.66797 114.75782 73.08594 114.75782 L 118.26562 114.75782 C 118.68359 114.75782 119.09765 114.714836 119.50781 114.63282 C 119.91797 114.55469 120.31641 114.43359 120.70313 114.27343 C 121.08984 114.11328 121.45703 113.91406 121.80469 113.683586 C 122.15234 113.44922 122.47266 113.1875 122.76953 112.890625 C 123.0625 112.59766 123.328125 112.27344 123.56249 111.92578 C 123.79297 111.578125 123.98829 111.21094 124.14844 110.82423 C 124.30859 110.4375 124.42969 110.03906 124.51173 109.62891 C 124.59374 109.21876 124.63281 108.80469 124.63281 108.38673 L 124.63281 75.234375 C 124.63281 71.77734 121.87109 68.97656 118.43359 68.88281 Z M 100.88672 87.23046 C 100.85547 87.42578 100.74609 87.8789 100.734375 87.91016 C 100.34766 89.25781 99.41797 90.36719 98.21094 91.039055 L 100.253914 99.7539 C 100.31641 99.93749 100.33203 100.1211 100.30469 100.31251 C 100.27344 100.503914 100.20703 100.67578 100.09375 100.83203 C 99.984375 100.98828 99.84375 101.11328 99.67578 101.203125 C 99.50391 101.29296 99.32422 101.33984 99.13281 101.34376 L 92.359375 101.34376 C 92.16406 101.33984 91.984375 101.29296 91.81641 101.203125 C 91.64453 101.11328 91.50781 100.98828 91.39453 100.83203 C 91.28516 100.67578 91.21485 100.503914 91.1875 100.31251 C 91.16016 100.1211 91.17578 99.93749 91.234375 99.7539 L 93.140625 91.039055 C 91.93359 90.36719 91.00391 89.25781 90.61719 87.91016 C 90.60547 87.8789 90.49609 87.42578 90.464836 87.23046 C 90.42969 86.98828 90.41406 86.74219 90.41406 86.49609 C 90.41016 86.14844 90.44531 85.80859 90.51172 85.46875 C 90.58202 85.12891 90.67969 84.80078 90.8125 84.48047 C 90.94531 84.16016 91.10546 83.859375 91.29687 83.57031 C 91.49219 83.28516 91.70703 83.015625 91.953125 82.77344 C 92.19922 82.52734 92.46484 82.30859 92.75 82.11719 C 93.03906 81.92578 93.33984 81.76172 93.66016 81.63281 C 93.98047 81.5 94.3086 81.39844 94.64843 81.33203 C 94.98828 81.265625 95.328125 81.23047 95.67578 81.23047 C 96.01953 81.23047 96.36328 81.265625 96.70313 81.33203 C 97.04296 81.39844 97.37109 81.5 97.6914 81.63281 C 98.007805 81.76172 98.3125 81.92578 98.60156 82.11719 C 98.88672 82.30859 99.15234 82.52734 99.39844 82.77344 C 99.640625 83.015625 99.859375 83.28516 100.05078 83.57031 C 100.2461 83.859375 100.40625 84.16016 100.53906 84.48047 C 100.671875 84.80078 100.76954 85.12891 100.83984 85.46875 C 100.90625 85.80859 100.9375 86.14844 100.9375 86.49609 C 100.9375 86.74219 100.921875 86.98828 100.88672 87.23046 Z M 110.66406 68.86719 L 80.6875 68.86719 L 80.6875 62.749996 C 80.6875 54.48437 87.40626 47.757813 95.67578 47.757813 C 103.945305 47.757813 110.66406 54.48437 110.66406 62.749996 Z M 110.66406 68.86719"/>
        </g>
        <g clip-path="url(#641393d507)">
            <g clip-path="url(#647645816b)">
                <path fill="#000000" stroke="none" d="M 69.578125 66.10547 L 114.27734 66.10547 L 114.27734 110.80469 L 69.578125 110.80469 Z M 69.578125 66.10547"/>
            </g>
        </g>
        <g clip-path="url(#16055d7235)">
            <g clip-path="url(#39382349d6)">
                <path fill="#ffffff" stroke="none" d="M 52.058594 64.78516 L 139.91406 64.78516 L 139.91406 119.375 L 52.058594 119.375 Z M 52.058594 64.78516"/>
            </g>
        </g>
        <g clip-path="url(#4f767d4462)">
            <g clip-path="url(#d2195f0028)">
                <g transform="matrix(0.75 0 0 0.75 52.06041 64.78398)">
                    <path fill="none" stroke="#ffffff" stroke-width="6" d="M 58.580914 0.00157053 C 26.22675 0.00157053 -0.0024184 16.293238 -0.0024184 36.392197 C -0.0024184 56.491158 26.22675 72.78282 58.580914 72.78282 C 90.94029 72.78282 117.16426 56.491158 117.16426 36.392197 C 117.16426 16.293238 90.94029 0.00157053 58.580914 0.00157053 Z M 58.580914 0.00157053"/>
                </g>
            </g>
        </g>
        <g clip-path="url(#a4a029ca47)">
            <g clip-path="url(#e930ac2680)">
                <g transform="matrix(0.75 0 0 0.75 51.097927 92.08023)">
                    <path fill="none" stroke="#ffffff" stroke-width="6" d="M 58.58818 0.00239814 C 26.228802 0.00239814 -0.00036288 13.538856 -0.00036288 30.241982 C -0.00036288 46.945107 26.228802 60.48156 58.58818 60.48156 C 90.942345 60.48156 117.17151 46.945107 117.17151 30.241982 C 117.17151 13.538856 90.942345 0.00239814 58.58818 0.00239814 Z M 58.58818 0.00239814"/>
                </g>
            </g>
        </g>
        <g clip-path="url(#d2456a74ea)">
            <path fill="#000000" stroke="none" d="M 116.671875 92.234375 C 116.671875 92.71093 116.640625 93.18359 116.57422 93.65625 C 116.50781 94.12891 116.40625 94.59766 116.27344 95.06641 C 116.14452 95.53125 115.97656 95.99219 115.78125 96.44922 C 115.58594 96.90235 115.35546 97.34766 115.09765 97.78906 C 114.839836 98.22656 114.55078 98.65624 114.23047 99.078125 C 113.91016 99.496086 113.5625 99.90234 113.1875 100.296875 C 112.8125 100.69532 112.40625 101.07422 111.98047 101.44141 C 111.55078 101.808586 111.09375 102.16016 110.61719 102.49609 C 110.13672 102.83594 109.63672 103.15234 109.11328 103.453125 C 108.58984 103.75781 108.046875 104.03906 107.48048 104.30469 C 106.91797 104.56641 106.33984 104.8125 105.74218 105.03515 C 105.14453 105.25781 104.53125 105.46094 103.90625 105.64453 C 103.28126 105.828125 102.64453 105.98828 101.99609 106.12501 C 101.34766 106.26172 100.69141 106.37891 100.02734 106.46875 C 99.36327 106.5625 98.69531 106.63282 98.01953 106.67969 C 97.34766 106.72656 96.671875 106.75 95.9961 106.75 C 95.31641 106.75 94.64063 106.72656 93.96875 106.67969 C 93.29296 106.63282 92.625 106.5625 91.96094 106.46875 C 91.29687 106.37891 90.64063 106.26172 89.992195 106.12501 C 89.34376 105.98828 88.70703 105.828125 88.08203 105.64453 C 87.45703 105.46094 86.84375 105.25781 86.24609 105.03515 C 85.64844 104.8125 85.07031 104.56641 84.50781 104.30469 C 83.94531 104.03906 83.39844 103.75781 82.875 103.453125 C 82.35156 103.15234 81.85156 102.83594 81.375 102.49609 C 80.89453 102.16016 80.44141 101.808586 80.01172 101.44141 C 79.58203 101.07422 79.17969 100.69532 78.80078 100.296875 C 78.42578 99.90234 78.078125 99.496086 77.75781 99.078125 C 77.4375 98.65624 77.14844 98.22656 76.890625 97.78906 C 76.63281 97.34766 76.40234 96.90235 76.20703 96.44922 C 76.01172 95.99219 75.84766 95.53125 75.71484 95.06641 C 75.58203 94.59766 75.484375 94.12891 75.41797 93.65625 C 75.35156 93.18359 75.31641 92.71093 75.31641 92.234375 C 75.31641 91.75781 75.35156 91.28516 75.41797 90.8125 C 75.484375 90.33594 75.58203 89.867195 75.71484 89.40234 C 75.84766 88.9375 76.01172 88.47656 76.20703 88.01953 C 76.40234 87.56641 76.63281 87.11719 76.890625 86.67969 C 77.14844 86.23828 77.4375 85.80859 77.75781 85.390625 C 78.078125 84.97266 78.42578 84.56641 78.80078 84.16797 C 79.17969 83.77344 79.58203 83.390625 80.01172 83.02344 C 80.44141 82.65625 80.89453 82.30469 81.375 81.96875 C 81.85156 81.63281 82.35156 81.31641 82.875 81.01172 C 83.39844 80.71094 83.94531 80.42969 84.50781 80.16406 C 85.07031 79.89844 85.64844 79.65625 86.24609 79.43359 C 86.84375 79.20703 87.45703 79.00391 88.08203 78.82422 C 88.70703 78.640625 89.34376 78.48047 89.992195 78.34375 C 90.64063 78.203125 91.29687 78.08984 91.96094 77.99609 C 92.625 77.90234 93.29296 77.83594 93.96875 77.78906 C 94.64063 77.74219 95.31641 77.71875 95.9961 77.71875 C 96.671875 77.71875 97.34766 77.74219 98.01953 77.78906 C 98.69531 77.83594 99.36327 77.90234 100.02734 77.99609 C 100.69141 78.08984 101.34766 78.203125 101.99609 78.34375 C 102.64453 78.48047 103.28126 78.640625 103.90625 78.82422 C 104.53125 79.00391 105.14453 79.20703 105.74218 79.43359 C 106.33984 79.65625 106.91797 79.89844 107.48048 80.16406 C 108.046875 80.42969 108.58984 80.71094 109.11328 81.01172 C 109.63672 81.31641 110.13672 81.63281 110.61719 81.96875 C 111.09375 82.30469 111.55078 82.65625 111.98047 83.02344 C 112.40625 83.390625 112.8125 83.77344 113.1875 84.16797 C 113.5625 84.56641 113.91016 84.97266 114.23047 85.390625 C 114.55078 85.80859 114.839836 86.23828 115.09765 86.67969 C 115.35546 87.11719 115.58594 87.56641 115.78125 88.01953 C 115.97656 88.47656 116.14452 88.9375 116.27344 89.40234 C 116.40625 89.867195 116.50781 90.33594 116.57422 90.8125 C 116.640625 91.28516 116.671875 91.75781 116.671875 92.234375 Z M 116.671875 92.234375"/>
        </g>
        <g clip-path="url(#618dea2cd2)">
            <path fill="#ffffff" stroke="none" d="M 95.9961 69.23047 C 83.28906 69.23047 72.99219 79.52734 72.99219 92.234375 C 72.99219 104.9375 83.28906 115.23827 95.9961 115.23827 C 97.38672 115.23827 98.75 115.11328 100.07422 114.875 C 108.88281 113.30077 115.95703 106.70704 118.22656 98.15625 C 118.73047 96.265625 118.99609 94.28125 118.99609 92.234375 C 119 79.52734 108.69922 69.23047 95.9961 69.23047 Z M 103.08204 87.55859 C 103.08204 90.19921 101.63672 92.503914 99.49219 93.72266 L 102.796875 103.9961 L 89.19141 103.9961 L 92.49609 93.72266 C 90.35156 92.503914 88.90625 90.19921 88.90625 87.55859 C 88.90625 83.64453 92.07812 80.46875 95.9961 80.46875 C 98.40234 80.46875 100.53125 81.671875 101.8125 83.50781 C 102.61328 84.65625 103.08204 86.05469 103.08204 87.55859 Z M 103.08204 87.55859"/>
        </g>
        <g clip-path="url(#9294020e7d)">
            <g clip-path="url(#2cefad128b)">
                <g transform="matrix(0.75 0 0 0.75 13.717484 13.650099)">
                    <path fill="none" stroke="#ffffff" stroke-width="10" d="M 109.70482 -0.00221532 C 49.11628 -0.00221532 0.00168722 49.159245 0.00168722 109.79467 C 0.00168722 170.43529 49.11628 219.59155 109.70482 219.59155 C 170.28816 219.59155 219.40796 170.43529 219.40796 109.79467 C 219.40796 49.159245 170.28816 -0.00221532 109.70482 -0.00221532 Z M 109.70482 -0.00221532"/>
                </g>
            </g>
        </g>
        <g clip-path="url(#c28d0c7100)">
            <g clip-path="url(#52bba64555)">
                <g transform="matrix(0.75 0 0 0.75 52.05845 110.803535)">
                    <path fill="none" stroke="#ffffff" stroke-width="6" d="M 58.58353 0.00153497 C 26.229362 0.00153497 0.00019601 13.537993 0.00019601 30.24112 C 0.00019601 46.944244 26.229362 60.4807 58.58353 60.4807 C 90.9429 60.4807 117.17207 46.944244 117.17207 30.24112 C 117.17207 13.537993 90.9429 0.00153497 58.58353 0.00153497 Z M 58.58353 0.00153497"/>
                </g>
            </g>
        </g>
    </g>
</svg>
