<svg width="300" height="300" xmlns="http://www.w3.org/2000/svg">
    <defs>
        <clipPath id="clip0_1122_283">
            <path fill="#000000" stroke="none" d="M 0 0 L 300 0 L 300 300 L 0 300 Z"/>
        </clipPath>
    </defs>
    <g clip-path="url(#clip0_1122_283)">
        <path fill="#2470ff" stroke="none" d="M 150 300 C 232.843 300 300 232.843 300 150 C 300 67.1573 232.843 0 150 0 C 67.1573 0 0 67.1573 0 150 C 0 232.843 67.1573 300 150 300 Z"/>
        <g opacity="0.8">
            <path fill="#ffffff" stroke="none" d="M 87.4323 177.29901 L 87.4323 221.974 C 87.4323 224.725 89.7598 225.866 90.48391 226.125 C 91.208 226.437 93.63901 227.111 95.811295 225.088 L 129.608 192.609 C 132.486 189.843 135.264 186.93602 137.352 183.535 C 138.334 181.936 138.741 181.035 138.741 181.035 C 140.811 176.832 140.811 172.785 138.793 168.737 C 135.794 162.718 128.138 156.595 116.604 150.784 L 96.89749 161.784 C 91.053 165.105 87.4323 170.969 87.4323 177.29901 Z"/>
        </g>
        <path fill="#ffffff" stroke="none" d="M 68 77.9327 L 68 124.788 C 68 130.651 71.931 135.84 77.5172 137.5 C 96.55111 143 129.705 154.831 137.723 172.213 C 138.756 174.49602 139.377 176.728 139.585 179.06201 C 144.913 169.359 147.343 158.203 146.206 146.892 C 144.653 130.858 136.17 116.27799 122.93 106.99 L 75.7068 73.9373 C 74.8791 73.3146 73.8964 73.0033 72.9137 73.0033 C 72.0861 73.0033 71.362 73.159 70.5862 73.5741 C 69.0344 74.4562 68 76.0647 68 77.9327 Z"/>
        <g opacity="0.8">
            <path fill="#ffffff" stroke="none" d="M 213.136 177.29901 L 213.136 221.974 C 213.136 224.725 210.80899 225.866 210.084 226.125 C 209.361 226.437 206.928 227.111 204.75702 225.088 L 170.173 191.854 C 167.819 189.591 165.571 187.198 163.798 184.456 C 162.393 182.285 161.827 181.035 161.827 181.035 C 159.758 176.832 159.758 172.785 161.774 168.737 C 164.775 162.718 172.43 156.595 183.963 150.784 L 203.67 161.784 C 209.567 165.105 213.136 170.969 213.136 177.29901 Z"/>
        </g>
        <path fill="#ffffff" stroke="none" d="M 232.6 77.9294 L 232.6 124.784 C 232.6 130.648 228.668 135.836 223.082 137.497 C 204.04799 142.997 170.895 154.828 162.877 172.21 C 161.842 174.493 161.221 176.72401 161.015 179.05902 C 155.687 169.356 153.257 158.2 154.394 146.889 C 155.945 130.855 164.428 116.27501 177.67 106.987 L 224.893 73.934 C 225.721 73.3113 226.70302 73 227.686 73 C 228.513 73 229.238 73.1557 230.012 73.5708 C 231.565 74.4529 232.6 76.0614 232.6 77.9294 Z"/>
    </g>
</svg>
