<svg width="256" height="256" xmlns="http://www.w3.org/2000/svg">
    <g id="XMLID_1_">
        <g>
            <path fill="#f7e342" stroke="none" d="M 135.8 50.5 C 143.5 50.6 151.2 50.6 158.9 50.5 C 160.7 50.5 161.6 50.900005 161.6 52.900005 C 161.6 67.1 161.6 81.5 161.6 95.7 C 161.2 96 160.7 96.3 160.3 96.600006 C 159.5 95.399994 158.9 94.19999 158 93.299995 C 151.8 87.3 144.5 83.3 136.1 81.4 C 134.3 81 133.3 80.5 133.3 78.3 C 133.4 69.8 133.4 61.4 133.3 52.900005 C 133.2 51.099995 133.9 50.5 135.8 50.5 Z"/>
            <path fill="#f7e342" stroke="none" d="M 22.1 50.5 C 29.3 50.6 36.5 50.6 43.8 50.5 C 46.6 50.4 47.4 51.3 47.4 54.1 C 47.3 69.4 47.4 84.6 47.4 99.90001 C 47.4 101.6 47.4 103.399994 47.4 105.80001 C 63.9 91.399994 81.4 86.19999 96.5 90.700005 C 96.4 91.90001 95.3 92.2 94.700005 92.9 C 88.9 98.4 84.7 104.9 82.5 112.600006 C 81.9 114.8 81.1 115.7 78.5 115.2 C 67.6 113.49999 58.1 116.4 50.300003 124.3 C 48.4 126.4 47.5 128.4 47.5 131.2 C 47.6 152.9 47.5 174.4 47.6 196.10002 C 47.6 199.69998 47 201.20001 43 201 C 36.2 200.6 29.3 200.70001 22.499998 201 C 20.1 201 19 200.5 19 197.8 C 19.1 149.9 19.1 101.9 19 54 C 18.7 50.900005 19.7 50.4 22.1 50.5 Z"/>
            <path fill="#000000" stroke="none" d="M 123.6 120.3 L 131.3 120.09999 L 127.1 133 L 119.399994 133.4 Z"/>
            <path fill="#f7e342" stroke="none" d="M 170.7 131 C 170.7 131 193.9 102.700005 201.20001 94.19999 C 202.2 93 203 92 204.8 92 C 215.4 92 226.2 92 236.8 92 C 237.2 93.80001 235.60002 94.6 234.9 95.5 C 222.5 109.9 210 124.2 197.5 138.4 C 195.60002 140.6 195.4 141.9 197.2 144.3 C 210.5 161.9 223.6 179.4 236.7 197.1 C 237.5 198 238.4 198.9 238.6 200.70001 C 227.60002 200.70001 216.70001 200.70001 205.9 200.70001 C 203.7 200.70001 203 199.5 201.9 198 C 193.6 185.8 175.2 159.5 174.5 159.8 C 173.9 159.9 161.8 171.5 161.8 171.5 C 161.8 171.5 161.5 195.09999 161.7 198.2 C 161.8 200.1 160.9 200.8 159.1 200.8 C 151.4 200.70001 143.7 200.70001 136 200.8 C 133.7 200.8 133.3 199.80002 133.3 197.9 C 133.3 190.2 133.4 182.5 133.3 174.79999 C 133.3 172.50002 134.2 171.7 136.4 171.2 C 150 167.7 159.3 160.3 165.2 149 C 166.9 145.8 168.3 142.3 169.4 138.6 C 169.5 138 170.7 131 170.7 131 Z"/>
            <path fill="#f7e342" stroke="none" d="M 131.3 120.09999 L 123.6 120.4 L 119.399994 133.5 L 127.1 133.1 L 131.3 120.09999 Z M 146.8 114.8 L 145.5 120.09999 L 137.8 120.2 L 133.4 133.4 L 140.7 133.3 L 139 139.2 L 131.1 139.5 L 126.50001 152.3 L 120.5 152.4 L 125.1 138.9 L 117.80001 138.8 L 113.299995 152 L 106.8 152 L 111.2 138.7 L 103.5 138.7 L 105.6 133.3 L 113 133 L 117.49999 120.09999 L 109.9 120.2 L 111.1 114.19999 L 119.2 113.9 L 123.7 101 L 129.9 101.299995 L 125.49999 114.6 L 133.1 114.50001 L 137.6 101.4 L 143.8 101.4 L 139.6 114.700005 L 146.8 114.8 Z"/>
            <path fill="#f7e342" stroke="none" d="M 120.9 174.6 C 120.8 182.4 120.8 190.2 120.9 198.1 C 120.9 200.30002 120 200.8 118 200.8 C 110.3 200.70001 102.6 200.70001 94.9 200.8 C 92.8 200.8 92.3 200 92.3 198.2 C 92.3 185.3 92.3 172.2 92.3 158.3 C 94.50001 160.1 96.09999 161.5 97.7 162.8 C 103.6 167.4 110.1 170.4 117.6 171.6 C 119.399994 171.7 120.9 172 120.9 174.6 Z"/>
            <path fill="#000000" stroke="none" d="M 43.6 50.5 C 36.4 50.8 29.2 50.6 21.9 50.5 C 19.5 50.5 18.4 51 18.4 53.699997 C 18.5 101.6 18.5 149.6 18.4 197.5 C 18.4 200.30002 19.4 200.70001 21.9 200.70001 C 28.7 200.6 35.6 200.4 42.4 200.70001 C 46.4 201 47.099995 199.4 47 195.8 C 46.900005 174.1 47 152.6 46.900005 130.9 C 46.900005 128.1 47.8 126 49.699997 124 C 57.5 116.09999 67 113.2 77.9 114.9 C 80.6 115.3 81.2 114.50001 81.9 112.3 C 84.2 104.600006 88.4 98.19999 94.1 92.600006 C 94.700005 92 95.8 91.6 95.90001 90.4 C 81 85.9 63.6 91.2 47.2 105.49999 C 47.2 103.1 47.2 101.4 47.2 99.6 C 47.2 84.3 47.2 69.1 47.2 53.8 C 47.2 51.3 46.6 50.4 43.6 50.5 Z M 0.1 0.1 C 84.5 0.1 168.9 0.1 253.40001 0 C 255.6 0 256.1 0.5 256.1 2.7 C 256 87.1 256 171.5 256 256 C 171.89998 256 87.8 256 3.7 256.1 C 0.8 256.1 0.1 255.4 0.1 252.50002 C 0.1 168.3 0.1 84.2 0.1 0.1 Z M 120.9 198 C 120.8 190.2 120.8 182.4 120.9 174.5 C 120.9 171.89998 119.399994 171.8 117.7 171.4 C 110.4 170.1 103.7 167.2 97.80001 162.6 C 96.09999 161.3 94.6 160 92.4 158.1 C 92.4 171.89998 92.4 185 92.4 198 C 92.4 199.9 92.9 200.70001 95 200.6 C 102.700005 200.5 110.4 200.5 118.1 200.6 C 120 200.70001 120.9 200.1 120.9 198 Z M 161.6 95.7 C 161.6 81.5 161.6 67.1 161.6 52.900005 C 161.6 50.8 160.7 50.5 158.9 50.5 C 151.2 50.6 143.5 50.6 135.8 50.5 C 133.9 50.5 133.2 51.3 133.2 53.099995 C 133.2 61.6 133.3 70 133.2 78.5 C 133.2 80.7 134.1 81.2 136 81.6 C 144.5 83.4 151.8 87.399994 157.9 93.49999 C 158.8 94.4 159.4 95.7 160.2 96.8 C 160.7 96.4 161.2 96 161.6 95.7 Z M 201.20001 94.19999 C 194 102.700005 170.7 131 170.7 131 C 170.7 131 169.4 137.9 169.3 138.4 C 168.1 142.2 166.7 145.7 165.1 148.8 C 159.2 160.1 149.8 167.5 136.3 171 C 134.1 171.5 133.2 172.3 133.2 174.6 C 133.3 182.3 133.3 190 133.2 197.7 C 133.2 199.6 133.6 200.6 135.9 200.6 C 143.6 200.5 151.3 200.5 159 200.6 C 160.9 200.6 161.7 200 161.6 198 C 161.5 194.9 161.7 171.3 161.7 171.3 C 161.7 171.3 173.9 159.8 174.4 159.6 C 175.2 159.5 193.4 185.6 201.8 197.8 C 202.8 199.2 203.60002 200.5 205.8 200.5 C 216.6 200.4 227.3 200.5 238.5 200.5 C 238.2 198.7 237.3 197.8 236.6 196.90001 C 223.5 179.2 210.5 161.7 197.1 144.1 C 195.3 141.7 195.4 140.3 197.40001 138.2 C 210 124 222.4 109.6 234.8 95.3 C 235.60002 94.4 237.1 93.80001 236.7 91.8 C 225.9 91.8 215.29999 91.8 204.7 91.8 C 203 91.90001 202.2 93 201.20001 94.19999 Z M 145.5 120.09999 L 146.8 114.8 L 139.5 114.700005 L 143.7 101.4 L 137.5 101.4 L 133 114.50001 L 125.4 114.6 L 129.9 101.7 L 123.7 101.4 L 119.2 114.3 L 111.1 114.6 L 109.9 120.600006 L 117.49999 120.5 L 113 133.4 L 105.6 133.7 L 103.5 139.1 L 111.2 139.1 L 106.8 152.4 L 113.299995 152.4 L 117.80001 139.2 L 125.1 139.3 L 120.5 152.8 L 126.50001 152.7 L 131.1 139.9 L 139 139.6 L 140.7 133.7 L 133.4 133.8 L 137.8 120.600006 L 145.5 120.09999 Z"/>
        </g>
    </g>
</svg>
