<svg width="200" height="200" xmlns="http://www.w3.org/2000/svg">
    <g>
        <path fill="#0a2e3d" stroke="none" d="M 105.49999 126.6 C 104.9 128.8 102.9 130.4 100.600006 130.4 C 98.3 130.4 96.2 128.8 95.7 126.6 L 81.2 69 C 79 60.2 71 53.6 61.5 53.6 C 52 53.6 41.2 62.7 41.2 73.9 L 41.2 78.5 C 41.2 82.7 44.6 86.19999 48.900005 86.19999 C 53.2 86.19999 56.6 82.8 56.6 78.5 L 56.6 73.9 C 56.6 71.2 58.8 69 61.5 69 C 64.2 69 65.8 70.6 66.3 72.7 L 81.1 131.2 C 83.4 139.9 91.3 146.3 100.7 146.3 C 110.1 146.3 118 139.9 120.3 131.2 L 135.1 72.7 C 135.6 70.6 137.6 69 139.9 69 C 142.2 69 144.8 71.2 144.8 73.9 L 144.8 138.6 C 144.8 142.8 148.2 146.3 152.5 146.3 C 156.8 146.3 160.2 142.9 160.2 138.6 L 160.2 73.9 C 160.2 62.7 151.1 53.6 139.9 53.6 C 128.7 53.6 122.4 60.2 120.2 69 L 105.7 126.6 Z"/>
        <path fill="#0a2e3d" stroke="none" d="M 56.4 138.7 C 56.4 142.9 53 146.4 48.7 146.4 C 44.4 146.4 41 143 41 138.7 L 41 121.49999 C 41 117.299995 44.4 113.80001 48.7 113.80001 C 53 113.80001 56.4 117.2 56.4 121.49999 L 56.4 138.7 Z"/>
    </g>
    <path fill="#f5bb39" stroke="none" d="M 43.5 94.700005 C 44.4 93.80001 45.3 93 46 92.3 L 46 92.3 C 47.5 90.8 49.9 90.8 51.4 92.3 L 51.4 92.3 C 52.1 93 52.900005 93.80001 53.9 94.700005 L 53.9 94.700005 C 54.8 95.7 55.6 96.5 56.300003 97.2 L 56.300003 97.2 C 57.699997 98.8 57.699997 101.2 56.300003 102.700005 L 56.300003 102.700005 C 55.699997 103.5 54.900005 104.3 53.9 105.2 L 53.9 105.2 C 53 106.19999 52.1 106.9 51.5 107.6 L 51.5 107.6 C 50 109.1 47.6 109.1 46.1 107.6 L 46.1 107.6 C 45.4 106.9 44.6 106.1 43.6 105.2 L 43.6 105.2 C 42.6 104.2 41.9 103.399994 41.2 102.700005 L 41.2 102.700005 C 39.8 101.1 39.8 98.700005 41.2 97.2 L 41.2 97.2 C 41.8 96.4 42.6 95.6 43.6 94.700005 L 43.6 94.700005 Z"/>
</svg>
