<svg width="256" height="256" xmlns="http://www.w3.org/2000/svg">
    <path fill="#ffffff" stroke="none" d="M 256 128 C 256 198.69243 198.69243 256 128 256 C 57.307552 256 0 198.69243 0 128 C 0 57.307552 57.307552 0 128 0 C 198.69243 0 256 57.307552 256 128 Z"/>
    <path fill="#3800d6" stroke="none" d="M 185.345 71.2214 C 185.345 71.2214 192.971 52.2868 191.98502 47.9476 C 191.065 43.7399 190.999 42.425 184.096 37.2969 C 181.334 38.546 176.404 40.3211 172.393 39.5322 C 166.476 38.4145 163.452 36.3764 160.625 33.8781 C 157.798 31.3798 156.286 27.698 156.023 25.5285 C 155.957 25.0025 156.549 24.608 157.009 24.9367 C 159.441 26.7119 161.414 29.9334 168.317 32.2345 C 172.262 33.5494 175.483 33.1549 177.455 32.4975 C 168.711 26.4489 156.023 18.165 148.462 15.6667 C 138.797 12.5109 134.458 18.691 134.458 18.691 L 125.385 33.0234 C 125.385 33.0234 140.638 35.2588 156.22 44.0029 C 171.736 52.681202 185.345 71.2214 185.345 71.2214 Z"/>
    <path fill="#3800d6" stroke="none" d="M 209.67 92.7202 C 207.763 92.9832 204.871 92.9832 200.992 91.997 C 185.80498 87.7236 176.469 62.6747 150.171 46.8958 C 108.159 25.1999 85.6088 44.7919 85.6088 44.7919 C 82.716 46.764305 85.6745 48.0135 85.6745 48.0135 L 99.481 54.9825 L 105.99 58.4012 C 105.99 58.4012 101.848 63.7266 93.4325 59.650394 C 90.6712 58.467 85.1486 58.1382 80.8751 61.9515 C 76.2072 64.5155 78.2453 71.9447 74.8266 76.6784 C 71.4736 81.412 64.7675 80.6231 64.0443 87.460594 C 63.4526 94.4296 68.9752 95.7445 69.1067 100.938 C 69.2382 106.131996 67.3316 109.091 66.8056 110.471 C 66.6084 111.062996 66.4769 111.786 66.4769 112.51 C 66.5427 113.496 67.0029 114.482 67.6603 115.271 C 68.1863 115.863 68.6465 116.257 69.1725 116.58599 C 71.4078 118.098 73.3144 120.07 74.5636 122.437 C 74.7608 122.83201 74.9581 123.226 75.221 123.62 C 75.4183 123.949 75.6155 124.344 75.8785 124.804 C 77.3249 127.368 77.9166 130.392 77.3906 133.351 C 77.2591 134.14 77.3249 135.06 77.5879 135.915 C 78.1138 137.493 79.4945 138.676 81.1381 139.136 C 83.5707 139.728 85.6745 141.174 87.1209 143.213 C 87.25241 143.344 87.3182 143.541 87.4497 143.673 C 89.422 146.434 89.02749 150.773 89.8165 153.929 C 90.60541 157.085 93.2352 158.071 97.04851 160.241 C 100.862 162.41 101.65101 165.829 100.073 167.473 C 98.4949 169.116 89.159 165.106 85.4116 169.576 C 82.6502 172.13998 83.8337 173.784 82.453 178.649 C 81.0724 183.58 76.8647 179.964 74.6293 183.383 C 72.394 186.80202 72.0653 190.483 73.1829 197.781 C 74.3006 205.079 81.4011 215.138 81.4011 215.138 C 81.4011 215.138 77.5879 201.85701 85.8718 190.483 C 92.90651 182.199 98.2976 181.08202 106.253 180.95 C 114.27401 180.753 126.10801 187.985 128.54 202.18602 C 129.79 211.588 124.661 217.044 124.267 217.57002 C 123.34699 218.622 115.786 226.972 105.727 221.384 C 102.966 219.477 100.533005 217.50502 98.8893 213.69101 C 97.7059 210.207 97.3772 205.539 99.3495 202.383 C 100.993 199.753 103.623 198.965 104.41201 198.899 C 105.595 198.767 108.159 198.833 109.803 200.082 C 111.447 201.331 113.222 203.172 112.893 206.32802 C 112.563995 209.48401 109.277 210.404 108.028 210.141 C 106.976 209.944 107.699 210.075 107.962 210.141 C 105.924 210.01 105.004 208.432 104.609 207.314 C 104.543 207.051 104.149 207.117 104.08299 207.38 C 103.491 211.71901 106.779 214.48 108.751 214.941 C 110.921 215.401 114.142006 215.33502 116.772 212.63998 C 119.07299 210.338 120.322 208.366 120.322 203.304 C 120.322 199.162 118.613 196.269 115.786 193.77098 C 112.104 190.35199 107.23899 189.03699 103.886 189.3 C 100.729996 189.563 95.20761 190.878 91.5916 196.598 C 88.2386 201.85701 86.792206 209.089 89.6192 217.17601 L 89.7507 217.43898 C 96.1938 232.495 111.249 236.30798 121.63699 236.30798 C 123.741 236.30798 125.648 236.176 127.226 235.913 C 127.55399 235.848 134.983 234.73001 142.215 230.259 C 151.157 224.342 156.482 215.795 156.482 202.581 C 156.482 185.027 148.79 173.324 133.011 155.047 C 129.987 151.299 117.69201 136.112 115.457 133.154 C 104.47799 118.953 92.1833 102.253 98.2976 89.56439 C 98.4949 89.17 98.69209 88.8413 98.8893 88.4468 C 108.028 71.6818 133.8 75.8237 128.146 76.8756 C 118.35 78.5193 112.49901 82.8584 110.723 84.7651 C 108.948 86.6717 107.962 88.3153 106.779 91.40529 C 104.741 96.467705 106.384 104.291 110.723 111.129 C 129.592 137.887 157.468 171.22 160.887 179.241 C 165.292 189.36601 165.949 197.387 165.884 202.318 C 165.818 207.248 164.635 215.138 164.635 215.138 C 164.635 215.138 171.143 209.944 174.233 203.632 C 177.32301 197.32098 177.849 194.297 176.929 191.93 C 175.94298 189.563 173.51 189.497 172.52402 185.618 C 171.538 181.73901 174.299 178.321 171.406 172.13998 C 170.157 169.445 163.517 165.5 160.098 161.161 C 156.679 156.822 150.434 149.064 145.766 142.818 C 137.35 131.641 134.589 127.827995 129.724 121.517 C 134.983 123.095 141.558 125.26399 156.679 118.22899 C 170.683 125.395996 180.282 125.001 183.63498 124.804 C 186.988 124.60701 190.144 123.095 192.576 121.188 C 194.154 119.939 195.338 117.44 196.061 115.79699 C 196.324 115.204994 195.732 114.679 195.14 114.876 C 183.372 119.742 172.52402 115.79699 159.178 108.368 L 156.811 107.053 L 154.444 108.301994 C 140.44 115.79699 125.713 109.94499 124.397995 109.42 C 123.873 109.157 119.86199 107.053 118.08699 103.502 C 116.31199 99.9522 115.91701 96.2047 117.232 93.049 C 118.284004 90.4849 120.782 88.7755 124.859 87.92081 C 128.212 87.5263 132.551 88.7755 136.035 90.1562 C 136.824 90.4849 137.548 89.6959 137.219 88.972694 C 136.824 87.92081 136.561 86.8032 136.561 85.6197 C 136.561 83.6474 137.219 81.8723 138.271 80.4259 L 142.939 82.5955 C 142.15 83.3844 141.689 84.5678 141.821 85.8827 C 142.018 87.5921 143.465 89.0385 145.174 89.2357 C 147.475 89.56439 149.382 87.8551 149.579 85.6855 L 153.984 87.7236 C 153.195 90.9451 150.697 93.4434 147.475 94.2324 C 146.818 94.36391 146.752 95.21849 147.409 95.415794 C 153.392 98.2428 170.88 106.39499 170.88 106.39499 C 170.88 106.39499 181.005 112.04901 189.881 110.932 C 198.428 110.471 202.241 103.7 197.178 104.35701 C 192.116 105.015 180.14998 99.820694 180.14998 99.820694 L 172.12999 96.0732 L 175.483 90.87941 C 175.483 90.87941 186.922 97.38811 197.04698 99.6235 C 203.753 101.07 208.28899 97.2566 210.59 94.4953 C 211.314 93.7721 210.656 92.5887 209.67 92.7202 Z M 116.04901 69.9066 C 111.774994 70.4326 105.267 72.4049 101.585 74.1801 C 100.204 74.8375 99.0208 75.495 98.0346 76.0867 C 94.8131 78.1905 91.9203 81.3463 89.6192 85.6855 C 80.6121 103.174 97.1142 124.60701 110.39499 141.832 C 112.63 144.725 114.668 147.42 116.509 149.919 C 119.336 153.798 122.426 157.611 125.45 161.227 C 133.208 170.76 141.755 180.885 145.437 192.127 C 146.423 196.07199 146.555 199.753 146.094 202.712 C 144.517 211.916 136.496 215.072 136.496 215.072 C 137.679 211.259 138.336 206.32802 137.613 200.674 L 137.613 200.542 C 135.181 187.328 124.464 175.62498 124.464 175.62498 C 121.9 172.206 119.139 168.656 116.904 165.763 C 94.3529 136.77 92.1176 133.482 86.792206 123.818 L 86.7265 123.686 C 86.595 123.423 86.3977 123.095 86.20051 122.766 C 83.1105 117.57199 74.8266 103.7 78.4426 89.17 C 79.2972 85.817 80.8094 82.7927 82.979 80.1629 C 96.1938 63.0034 121.506 68.8547 116.04901 69.9066 Z"/>
</svg>
