<svg width="256" height="256" xmlns="http://www.w3.org/2000/svg">
    <g id="Icons-+-illo">
        <g id="phunwallet_icons" transform="matrix(1 0 0 1 -255 -120)">
            <g id="labels" transform="matrix(1 0 0 1 54 28)"/>
            <g id="phun_mark_purple" transform="matrix(1 0 0 1 255 120)">
                <g id="logo_pc_mark">
                    <path fill="#4c20f0" stroke="none" d="M 128 0 C 198.69243 0 256 57.307552 256 128 C 256 198.69243 198.69243 256 128 256 C 57.307552 256 0 198.69243 0 128 C 0 57.307552 57.307552 0 128 0 Z M 19.91364 111.662834 C 15.483872 140.7856 22.748692 169.90836 40.290577 193.52621 C 57.832462 217.14406 83.34793 232.59332 112.40721 237.03278 C 117.90012 237.92064 123.39304 238.2758 128.88596 238.2758 C 152.27513 238.2758 174.95557 230.81755 194.09215 216.61133 C 217.65854 199.03113 233.07411 173.4599 237.50389 144.33716 C 238.21265 141.14076 236.08638 138.12193 232.89693 137.5892 C 229.70749 137.05647 226.69525 139.36497 226.16367 142.56139 C 222.26549 168.48773 208.4446 191.57285 187.3589 207.1997 C 166.27321 222.82655 140.40335 229.39693 114.356316 225.49023 C 88.48646 221.5835 65.45166 207.73242 49.85888 186.60068 C 34.26609 165.46892 27.710033 139.54256 31.608229 113.438614 C 39.581814 59.810123 89.7268 22.518787 143.2384 30.687365 C 146.42784 31.220097 149.44008 28.911589 149.97165 25.715185 C 150.50322 22.518787 148.19975 19.499962 145.01031 18.96723 C 84.94265 9.910761 28.950369 51.641544 19.91364 111.662834 Z M 169.46263 129.95335 L 168.57668 136.16858 L 171.23454 136.52373 C 168.39949 150.3748 157.94524 162.45009 143.06122 168.31017 C 128.53157 173.99265 113.64755 172.39445 102.66173 164.0483 L 104.07925 162.27252 L 99.117905 158.54338 L 90.96713 169.5532 L 95.928474 173.28232 L 97.52319 171.15141 C 110.8125 181.27336 129.06314 183.40428 146.25064 176.6563 C 146.60503 176.47874 146.78223 176.47874 147.1366 176.30116 C 164.32411 169.19804 176.72746 154.63667 179.91689 137.94435 L 182.04318 138.29951 L 182.92914 132.08429 L 169.46263 129.95335 Z M 77.146255 102.60638 C 70.76739 105.6252 67.932335 113.26103 70.94458 119.83142 C 73.95682 126.22422 81.57602 129.06546 88.13207 126.046646 C 94.51095 123.027824 97.34599 115.39198 94.333755 108.821594 C 91.32151 102.25122 83.52512 99.587555 77.146255 102.60638 Z M 146.60503 74.371506 C 140.22617 77.39033 137.39111 85.02617 140.40335 91.59656 C 143.41559 97.98934 151.0348 100.8306 157.59085 97.811775 C 163.96973 94.79295 166.80478 87.157104 163.79253 80.58672 C 160.6031 74.193924 152.9839 71.352684 146.60503 74.371506 Z"/>
                </g>
            </g>
        </g>
    </g>
</svg>
