<svg width="300" height="300" xmlns="http://www.w3.org/2000/svg">
    <defs>
        <linearGradient id="d34755d1-041f-4b26-9ed3-5ed8fad8a841" x1="0" y1="0" x2="1" y2="0" gradientUnits="userSpaceOnUse" gradientTransform="matrix(72.09044 35.65419 -33.616325 76.460655 9.957 8.636)">
            <stop offset="0" stop-color="#006678"/>
            <stop offset="1" stop-color="#4fa8ff"/>
        </linearGradient>
    </defs>
    <path fill="#ffffff" stroke="none" d="M 0 0 L 300 0 L 300 300 L 0 300 Z"/>
    <g id="ce3b93c2-6cdb-bd3f-85ad-1a845740df6c" transform="matrix(0.85 0 0 0.85 23.192299 20.412832)">
        <g transform="matrix(3 0 0 3 0 0)">
            <path fill="url(#d34755d1-041f-4b26-9ed3-5ed8fad8a841)" stroke="none" d="M 13.572 36.355 C 11.575329 36.355553 9.957 37.974327 9.957 39.971 L 9.957 61.664997 C 9.956735 62.62384 10.337515 63.543484 11.015516 64.22148 C 11.693518 64.89948 12.613161 65.280266 13.572 65.28 C 14.53093 65.280266 15.450677 64.89952 16.128838 64.22154 C 16.806997 63.54357 17.188 62.62393 17.188 61.664997 L 17.188 39.971 C 17.187449 37.974167 15.568833 36.355553 13.572 36.355 Z M 25.625002 20.688 C 24.666069 20.688 23.746428 21.069002 23.068455 21.747162 C 22.390482 22.425323 22.009735 23.34507 22.01 24.304 L 22.01 77.333 C 22.009735 78.29184 22.390514 79.21148 23.068516 79.88948 C 23.746517 80.56748 24.66616 80.948265 25.625002 80.948 C 26.583931 80.948265 27.503677 80.56752 28.181837 79.88954 C 28.859999 79.21157 29.241 78.29193 29.241 77.333 L 29.241 24.304 C 29.240448 22.307167 27.621834 20.688553 25.625002 20.688 Z M 37.677 8.636 C 35.67994 8.636 34.061 10.254938 34.061 12.252 L 34.061 89.385 C 34.061 91.382065 35.67994 93.001 37.677 93.001 C 39.67406 93.001 41.293 91.382065 41.293 89.385 L 41.293 12.252 C 41.292446 10.255167 39.673832 8.636552 37.677 8.636 Z M 49.729 29.728 C 47.73233 29.728 46.113552 31.346329 46.113 33.343 L 46.113 68.294 C 46.113 70.29079 47.731716 71.9095 49.7285 71.9095 C 51.725285 71.9095 53.344 70.29079 53.344 68.294 L 53.344 33.343 C 53.34345 31.346718 51.72528 29.728554 49.729 29.728 Z M 61.78 8.636 C 59.783325 8.636552 58.165 10.255329 58.165 12.252 L 58.165 89.385 C 58.165 91.3815 59.78349 93 61.78 93 C 63.77651 93 65.395 91.3815 65.395 89.385 L 65.395 12.252 C 65.39526 11.293069 65.01452 10.3733225 64.33655 9.695163 C 63.658573 9.017002 62.73893 8.636 61.78 8.636 Z M 73.833 26.714003 C 71.83633 26.714552 70.218 28.333328 70.218 30.33 L 70.218 71.306 C 70.18714 72.61778 70.86933 73.84335 72.0005 74.508316 C 73.13168 75.17328 74.53432 75.17328 75.6655 74.508316 C 76.79667 73.84335 77.47886 72.61778 77.448 71.306 L 77.448 30.33 C 77.44745 28.333557 75.829445 26.715103 73.833 26.714003 Z M 85.885 36.958 C 83.88817 36.958553 82.269554 38.577168 82.269 40.574 L 82.269 61.063 C 82.30209 63.036343 83.91137 64.618645 85.884995 64.61837 C 87.85862 64.618095 89.46745 63.03535 89.49999 61.062 L 89.49999 40.574 C 89.49945 38.577557 87.88144 36.959103 85.885 36.958 Z"/>
        </g>
    </g>
</svg>
