<svg width="1792.426" height="1792.426" xmlns="http://www.w3.org/2000/svg">
    <g id="Calque_3">
        <path fill="#ae8e50" stroke="none" d="M 1780.4031 896.213 C 1780.4031 1130.9205 1687.1658 1356.0151 1521.2025 1521.9785 C 1355.2391 1687.9418 1130.1445 1781.1791 895.4371 1781.1791 C 660.72943 1781.1791 435.63486 1687.9418 269.67157 1521.9784 C 103.70825 1356.0151 10.4710245 1130.9205 10.471008 896.213 C 10.471008 661.50543 103.70823 436.41086 269.67154 270.44754 C 435.63486 104.48423 660.72943 11.247009 895.4371 11.247009 C 1130.1447 11.246993 1355.2391 104.48421 1521.2025 270.44754 C 1687.1658 436.41086 1780.4031 661.50543 1780.4031 896.213 Z"/>
        <path fill="#ffffff" stroke="none" d="M 579.781 1233.299 C 579.781 1255.9924 570.76605 1277.7566 554.7193 1293.8032 C 538.67255 1309.85 516.9085 1318.865 494.215 1318.865 C 471.52148 1318.865 449.75742 1309.85 433.71066 1293.8032 C 417.66397 1277.7566 408.649 1255.9924 408.649 1233.299 C 408.649 1210.6055 417.66397 1188.8413 433.71066 1172.7947 C 449.75742 1156.7479 471.52148 1147.7329 494.215 1147.7329 C 516.9085 1147.7329 538.67255 1156.7479 554.7193 1172.7947 C 570.76605 1188.8413 579.781 1210.6055 579.781 1233.299 Z"/>
        <path fill="#ffffff" stroke="none" d="M 1262.482 1228.818 C 1248.565 1226.408 1237.369 1220.966 1228.923 1212.491 C 1220.448 1204.044 1214.101 1191.627 1209.875 1175.305 C 1205.626 1158.978 1203.527 1136.303 1203.527 1107.281 C 1203.527 1041.976 1204.433 976.389 1206.248 910.462 C 1208.059 844.562 1208.969 772.909 1208.969 695.503 C 1208.969 642.301 1200.806 596.952 1184.479 559.452 C 1168.152 521.983 1145.166 491.428 1115.549 467.845 C 1085.902 444.262 1050.843 427.03 1010.337 416.145 C 969.808 405.263 925.36395 399.82 877.0101 399.82 C 818.963 399.82 760.602 410.705 701.958 432.471 C 643.288 454.24002 588.584 485.701 537.793 526.799 L 561.376 635.638 L 574.074 635.638 C 582.518 622.346 594.933 609.959 611.26 598.452 C 627.587 586.973 645.725 576.399 665.681 566.706 C 685.635 557.043 706.4959 549.474 728.263 544.031 C 750.032 538.589 771.174 535.87 791.75305 535.87 C 846.1741 535.87 888.802 551.289 919.63995 582.125 C 950.478 612.963 965.895 650.151 965.895 693.687 C 965.895 709.41693 963.773 722.709 959.547 733.594 C 955.298 744.47894 945.941 754.455 931.43 763.524 C 916.919 772.595 894.8381 781.664 865.219 790.735 C 835.572 799.8041 795.382 810.4051 744.59 822.479 C 703.462 832.17206 666.587 843.96497 633.935 857.852 C 601.284 871.769 573.167 889.004 549.584 909.551 C 526.001 930.129 507.861 954.89996 495.163 983.925 C 482.46503 1012.94995 476.117 1047.415 476.117 1087.322 C 476.117 1091.56 476.232 1095.79 476.438 1100.016 C 482.441 1099.199 488.567 1098.768 494.79498 1098.768 C 569.333 1098.768 629.757 1159.193 629.757 1233.73 C 629.757 1257.603 623.551 1280.022 612.676 1299.478 C 614.308 1300.119 615.946 1300.756 617.608 1301.371 C 650.262 1313.444 689.544 1319.513 735.518 1319.513 C 791.13 1319.513 837.3871 1308.006 874.29 1285.048 C 911.165 1262.09 943.5029 1231.252 971.337 1192.533 C 985.853 1233.657 1006.99493 1265.094 1034.829 1286.859 C 1062.635 1308.628 1098.913 1319.513 1143.668 1319.513 C 1171.469 1319.513 1197.464 1315.882 1221.667 1308.628 C 1245.846 1301.37 1275.463 1290.49 1310.555 1275.974 L 1310.555 1232.44 C 1292.41 1232.445 1276.371 1231.256 1262.482 1228.818 Z M 968.6141 901.391 C 967.992 928.60205 967.708 968.226 967.708 1020.209 C 967.708 1079.475 955.29596 1124.23 930.522 1154.442 C 905.72 1184.686 873.38 1199.791 833.473 1199.791 C 802.01 1199.791 776.928 1188.001 758.191 1164.421 C 739.429 1140.836 730.074 1106.685 730.074 1061.93 C 730.074 1015.986 737.615 980.925 752.749 956.72003 C 767.857 932.541 787.216 913.495 810.799 899.578 C 834.379 885.6891 860.372 874.182 888.8 865.111 C 917.2 856.042 944.128 844.252 969.52405 829.7379 C 969.52405 850.316 969.2131 874.182 968.6141 901.391 Z"/>
    </g>
</svg>
