<svg width="284" height="283" xmlns="http://www.w3.org/2000/svg">
    <g transform="matrix(0.7071068 -0.7071068 0.7071068 0.7071068 -58.7 142)">
        <path fill="#ffffff" stroke="none" d="M 283.1 141.9 C 283.1 219.82738 219.92738 283 142 283 C 64.07262 283 0.8999939 219.82738 0.8999939 141.9 C 0.8999939 63.972607 64.07262 0.79998773 142 0.79998773 C 219.92738 0.79998773 283.1 63.972607 283.1 141.9 Z"/>
    </g>
    <path fill="#222323" fill-rule="evenodd" stroke="none" d="M 135.5 52.5 C 135.5 52.5 143.3 46.1 152.8 50.4 L 220.2 89 C 225.8 91.7 229.5 99.1 226.5 114.9 C 221.2 138.8 202.4 144.3 202.4 144.3 C 202.4 144.3 202.59999 97 202.59999 91.399994 L 202.59999 91.399994 C 202.59999 91.399994 135.6 52.7 135.6 52.7 L 135.8 52.7 C 135.8 52.6 135.5 52.4 135.5 52.4 Z M 134.6 111.2 L 134.6 61.8 C 134.6 61.8 194.3 96 194.3 96 L 194.3 145.3 L 134.6 111.1 Z M 78.6 145.5 L 140 181.2 L 140 236.50002 C 140 236.50002 78.6 200.70001 78.6 200.70001 L 78.6 145.5 Z M 149.8 236.39998 L 149.8 181.1 C 149.8 181.1 198.7 153.1 198.7 153.1 L 198.7 208.30002 L 149.8 236.39998 Z M 144.9 176 L 87.3 142.7 L 130.4 117.80001 L 188 151.1 L 144.9 176 Z"/>
</svg>
