<svg width="256" height="256" xmlns="http://www.w3.org/2000/svg">
    <defs>
        <linearGradient id="paint0_linear_6815_8" x1="191.989" y1="30.2194" x2="64.1682" y2="226.065" gradientUnits="userSpaceOnUse">
            <stop offset="0" stop-color="#fe01fa"/>
            <stop offset="0.316319" stop-color="#ff0f6f"/>
            <stop offset="0.519531" stop-color="#ff3d3d"/>
            <stop offset="0.708633" stop-color="#ff851f"/>
            <stop offset="1" stop-color="#ffdb01"/>
        </linearGradient>
        <linearGradient id="paint1_linear_6815_8" x1="167.574" y1="73.1314" x2="100.514" y2="190.013" gradientUnits="userSpaceOnUse">
            <stop offset="0" stop-color="#fe01fa"/>
            <stop offset="0.316319" stop-color="#ff0f6f"/>
            <stop offset="0.519531" stop-color="#ff3d3d"/>
            <stop offset="0.708633" stop-color="#ff851f"/>
            <stop offset="1" stop-color="#ffdb01"/>
        </linearGradient>
    </defs>
    <path fill="url(#paint0_linear_6815_8)" fill-rule="evenodd" stroke="none" d="M 128 256 C 198.692 256 256 198.692 256 128 C 256 57.3076 198.692 0 128 0 C 57.3076 0 0 57.3076 0 128 C 0 198.692 57.3076 256 128 256 Z M 128 235.52 C 187.382 235.52 235.52 187.382 235.52 128 C 235.52 68.6183 187.382 20.48 128 20.48 C 68.6183 20.48 20.48 68.6183 20.48 128 C 20.48 187.382 68.6183 235.52 128 235.52 Z"/>
    <path fill="url(#paint1_linear_6815_8)" stroke="none" d="M 84.1671 195.458 L 73.2031 176.461 C 72.8626 175.757 72.8626 174.935 73.2031 174.231 L 85.3847 153.126 C 85.8176 152.463 86.53929 152.045 87.3294 152 L 111.681 152 C 112.472 152.046 113.196 152.463 113.632 153.126 L 125.807 174.231 C 126.16 174.941 126.16 175.77498 125.807 176.48398 L 113.597 197.57799 C 113.161 198.223 112.45599 198.635 111.681 198.698 L 89.80501 198.698 C 87.5255 198.551 85.4431 197.354 84.1671 195.458 Z M 163.224 152.017 L 138.987 109.968 C 138.389 109.068 137.405 108.5 136.327 108.431 L 87.7968 108.431 C 86.7192 108.5 85.7354 109.068 85.1366 109.968 L 60.8714 152.04 C 60.3929 153.008 60.3929 154.145 60.8714 155.113 L 68.0096 167.45 L 80.4509 145.894 C 81.1324 144.854 82.2631 144.195 83.5035 144.115 L 115.47201 144.115 C 116.722 144.185 117.864 144.846 118.548 145.894 L 134.538 173.61899 C 135.104 174.738 135.104 176.059 134.538 177.177 L 122.097 198.733 L 136.31 198.733 C 137.39 198.669 138.377 198.097 138.97 197.19101 L 163.224 155.124 C 163.714 154.147 163.714 152.995 163.224 152.017 Z M 207.253 124.194 L 170.062 59.6415 C 168.777 57.6777 166.633 56.4443 164.291 56.3203 L 89.8511 56.3203 C 87.5089 56.4443 85.3658 57.6777 84.0806 59.6415 L 46.872 124.194 C 45.8161 126.278 45.8161 128.741 46.872 130.825 L 55.4067 145.617 L 80.1277 102.71901 C 80.9754 101.424 82.3867 100.61 83.9305 100.524 L 140.142 100.524 C 141.684 100.61 143.093 101.424995 143.939 102.71901 L 172.035 151.428 C 172.734 152.808 172.734 154.438 172.035 155.818 L 147.291 198.698 L 164.314 198.698 C 166.657 198.575 168.8 197.341 170.085 195.37701 L 207.29298 130.831 C 208.34401 128.745 208.34401 126.285 207.29298 124.2 L 207.253 124.194 Z"/>
</svg>
