<svg width="256" height="256" xmlns="http://www.w3.org/2000/svg">
    <g>
        <path fill="#194798" stroke="none" d="M 255 128 C 254.79999 198.2 198.3 255 127.90001 255 C 57.5 255 1 198 1 127.90001 C 1 57.9 58 0.9 128 1 C 198.2 1 254.9 57.699997 255 128 Z M 238.5 128.3 C 238.2 67 189.40001 17.7 127.90001 17.7 C 66.4 17.7 17.5 66.9 17.5 128.3 C 17.5 189.7 66.6 238.9 127.90001 238.9 C 189.2 238.9 238.3 189.7 238.6 128.3 Z"/>
        <path fill="#ffffff" stroke="none" d="M 128 17.7 C 189.40001 17.7 238.3 67 238.6 128.3 C 238.3 189.7 189.3 238.9 127.90001 238.9 C 66.5 238.9 17.5 189.7 17.5 128.3 C 17.5 66.9 66.7 17.7 128 17.7 Z"/>
    </g>
    <path fill="#194798" stroke="none" d="M 128.1 23.7 C 186 23.9 232.4 70.6 232.1 128.3 C 231.80002 185.9 185.3 232.19998 127.7 232.1 C 70 231.9 23.500002 184.9 23.7 127.5 C 24 69.9 70.6 23.7 128 23.6 Z M 154.6 102.1 C 154.3 101.7 154.2 101.299995 154 101.1 C 149.4 94.50001 143.2 90.19999 135.1 88.9 C 134 88.7 133.8 88.3 133.8 87.2 L 133.8 77.8 C 133.8 76.8 133.5 76.6 132.6 76.6 L 123.3 76.6 C 122.3 76.6 122.1 76.9 122.1 77.8 L 122.1 87.8 C 122.1 88.5 121.9 88.8 121.1 89 C 120 89.299995 118.8 89.6 117.80001 90 C 107.7 93.6 101.80001 103.2 103.2 113.80001 C 104.2 121.1 108.4 126 115.1 128.9 C 118.50001 130.4 122.19999 131.3 125.7 132.3 C 129.7 133.3 133.8 134.3 137.3 136.8 C 140.4 139 141.8 142 141.4 145.8 C 141 149.4 138.5 151.6 135.4 153 C 132.3 154.3 129 154.4 125.7 153.8 C 120.09999 152.8 116 149.4 112.9 144.9 C 112.600006 144.4 112.09999 143.9 111.8 143.3 C 108.2 145.4 104.8 147.4 101.299995 149.5 C 100.600006 149.9 101 150.4 101.299995 150.8 C 105.299995 159.3 111.90001 164.7 121.2 166.3 C 122.1 166.5 122.19999 166.8 122.19999 167.6 L 122.19999 178.2 C 122.19999 179.2 122.50001 179.60002 123.6 179.49998 L 131.7 179.49998 C 134.1 179.49998 133.8 179.7 133.8 177.4 L 133.8 166.7 C 134.7 166.5 135.5 166.4 136.3 166.2 C 145.8 164 155.2 156.6 155.7 145 C 156 139.1 154.5 133.7 150 129.5 C 147.6 127.2 144.7 125.49999 141.5 124.3 C 137.6 122.9 133.6 121.9 129.6 120.600006 C 126.4 119.6 123.1 118.700005 120.3 116.600006 C 117.6 114.700005 116.5 112 117 108.7 C 117.4 105.6 119.399994 103.6 122.1 102.6 C 123.399994 102.1 124.9 101.80001 126.3 101.7 C 131.7 101.4 136.7 102.50001 140.7 106.50001 C 141.7 107.5 142.4 108.4 143.4 109.49999 C 147.1 107.1 150.7 104.7 154.5 102.3 Z M 86.9 196.39998 L 101.49999 196.39998 C 102.8 196.2 103.6 195.4 103.8 194.2 C 104 193.1 103.3 192 102.1 191.5 C 99.1 190 96.09999 188.6 93.2 187 C 86.3 182.9 80.3 177.7 75.2 171.5 C 72.1 167.7 69.4 163.6 67.2 159.2 C 66.7 158.1 65.8 157.3 64.5 157.3 C 63.2 157.3 62.6 158.2 62.1 159.2 C 60.4 163 58.8 166.6 57.2 170.4 C 55.699997 173.8 55.099995 177.3 55.8 181.1 C 57.4 190.2 65 196.6 74.2 196.6 L 86.9 196.6 Z M 169.7 196.39998 L 180.6 196.39998 C 182.6 196.39998 184.70001 196.39998 186.59999 195.89998 C 195.89998 194 202.3 184.5 200.70001 175.29999 C 199.6 169.2 196.2 163.9 193.9 158.3 C 193.4 157.1 191.6 156.8 190.6 157.7 C 190 158.1 189.6 158.8 189.2 159.5 C 185.5 166.4 181 172.6 175.2 178 C 169.1 183.80002 162.1 188.2 154.3 191.5 C 153.8 191.80002 153.2 192.30002 152.9 192.9 C 152 194.7 153.3 196.50002 155.5 196.50002 L 169.6 196.50002 L 169.6 196.50002 Z M 128.2 37.3 C 120.7 37.6 114.9 41 111.5 47.9 C 109.80001 51.4 108.4 55.099995 106.700005 58.6 C 106.19999 59.699997 106.1 60.900005 107 61.8 C 107.90001 62.8 108.9 62.8 110.1 62.4 C 114.6 61 119.2 60.4 123.8 60 C 127.3 59.8 130.8 60 134.2 60.300003 C 138.2 60.7 142.2 61.5 146.2 62.300003 C 147.4 62.6 148.5 62.7 149.4 61.8 C 150.4 60.8 150.2 59.699997 149.7 58.5 C 148.1 55 146.6 51.4 145 48 C 141.7 41 135.9 37.7 128.2 37.3 L 128.2 37.3 Z"/>
</svg>
