<svg width="682.6667" height="682.6667" xmlns="http://www.w3.org/2000/svg">
    <g transform="matrix(1.3333334 0 0 1.3333334 0 0)">
        <g transform="matrix(0.1 0 0 -0.1 0 512)">
            <path fill="#000000" stroke="none" d="M 0 2560 L 0 0 L 2560 0 L 5120 0 L 5120 2560 L 5120 5120 L 2560 5120 L 0 5120 L 0 2560 Z M 3700 2965 C 4279 2058 4782 1271 4816 1217 C 4869 1136 4876 1120 4860 1120 C 4849 1120 4136 1068 3275 1005 L 1709 890 L 997 1154 C 606 1299 277 1420 267 1422 C 257 1423 249 1430 250 1435 C 251 1446 2641 4622 2645 4618 C 2646 4616 3121 3873 3700 2965 Z"/>
            <path fill="#000000" stroke="none" d="M 2166 3812 C 1908 3471 1697 3188 1698 3184 C 1699 3173 3354 2691 3358 2700 C 3359 2703 3203 3081 3010 3539 C 2817 3998 2654 4386 2647 4402 C 2635 4432 2634 4431 2166 3812 Z"/>
            <path fill="#000000" stroke="none" d="M 2903 4030 C 2932 3953 3483 2654 3491 2644 C 3496 2637 3533 2612 3573 2589 C 3953 2363 3992 2341 3978 2362 C 3970 2375 3728 2754 3440 3205 C 3153 3656 2913 4030 2907 4035 C 2900 4042 2899 4040 2903 4030 Z"/>
            <path fill="#000000" stroke="none" d="M 1608 3073 C 1580 3041 458 1556 453 1545 C 451 1537 472 1536 527 1542 C 1209 1615 1457 1636 2130 1680 C 2916 1732 3726 1793 3735 1801 C 3740 1806 3424 2560 3411 2573 C 3403 2581 1655 3090 1634 3090 C 1628 3090 1616 3082 1608 3073 Z"/>
            <path fill="#000000" stroke="none" d="M 3594 2388 C 3791 1916 3844 1793 3856 1781 C 3869 1766 4643 1302 4648 1305 C 4650 1307 4528 1500 4378 1735 L 4105 2162 L 3848 2315 C 3707 2400 3582 2474 3571 2480 C 3553 2489 3557 2476 3594 2388 Z"/>
        </g>
    </g>
</svg>
