<svg width="48" height="48" xmlns="http://www.w3.org/2000/svg">
    <path fill="#00ff00" stroke="none" d="M 48 24 C 48 37.254833 37.254833 48 24 48 C 10.745166 48 0 37.254833 0 24 C -0 10.745166 10.745166 0 24 0 C 37.254833 0 48 10.745166 48 24 Z"/>
    <path fill="#000000" stroke="none" d="M 24.0017 9.60001 C 21.1535 9.5996 18.3691 10.4438 16.0007 12.026001 C 13.6323 13.6081 11.7863 15.8571 10.6961 18.4884 C 9.60598 21.1197 9.32065 24.0153 9.87621 26.808798 C 10.4318 29.6023 11.8033 32.1683 13.817301 34.1823 C 15.8313 36.1963 18.3973 37.5678 21.1908 38.1234 C 23.984299 38.679 26.8799 38.3936 29.511198 37.3035 C 32.1426 36.2133 34.3915 34.3673 35.9736 31.9989 C 37.5558 29.6305 38.4 26.8462 38.3996 23.9979 C 38.3996 20.1794 36.8827 16.5172 34.1826 13.8171 C 31.4824 11.1168995 27.8203 9.60001 24.0017 9.60001 Z M 24.0017 35.2552 C 21.1544 35.2577 18.4122 34.1801 16.3285 32.2397 C 14.2448 30.2993 12.9747 27.6408 12.7746 24.8005 C 12.5745 21.9603 13.459399 19.1499 15.2505 16.9366 C 17.0416 14.7233 19.6056 13.2718 22.4251 12.8752 L 22.4251 19.7586 C 21.4282 20.1284 20.5929 20.837 20.0655 21.7603 C 19.5381 22.6836 19.352 23.763 19.5399 24.8096 C 19.7277 25.8562 20.2776 26.8035 21.0932 27.485802 C 21.9088 28.168 22.9383 28.541798 24.0017 28.541798 C 25.065 28.541798 26.0945 28.168 26.9102 27.485802 C 27.725798 26.8035 28.275599 25.8562 28.4635 24.8096 C 28.6514 23.763 28.4653 22.6836 27.937899 21.7603 C 27.4104 20.837 26.5752 20.1284 25.5782 19.7586 L 25.5782 12.8648 C 28.3977 13.2615 30.9618 14.7129 32.7529 16.9263 C 34.544 19.1396 35.4288 21.95 35.2288 24.790201 C 35.0287 27.6304 33.7586 30.288998 31.6749 32.2293 C 29.591198 34.1697 26.848902 35.2474 24.0017 35.2448 L 24.0017 35.2552 Z"/>
</svg>
