<svg width="40" height="40" xmlns="http://www.w3.org/2000/svg">
    <defs>
        <linearGradient id="a" x1="0" y1="0" x2="47.059" y2="11.765" gradientUnits="userSpaceOnUse">
            <stop offset="0" stop-color="#6046ff"/>
            <stop offset="1" stop-color="#22d49f"/>
        </linearGradient>
    </defs>
    <path fill="#0b0f14" stroke="none" d="M 40 20 C 40 31.046001 31.046001 40 20 40 C 8.954 40 0 31.046001 0 20 C 0 8.954 8.954 0 20 0 C 31.046001 0 40 8.954 40 20 Z"/>
    <path fill="url(#a)" fill-rule="evenodd" stroke="none" d="M 20 38 C 29.941 38 38 29.941 38 20 C 38 10.059 29.941 2 20 2 C 10.059 2 2 10.059 2 20 C 2 29.941 10.059 38 20 38 Z M 20 40 C 31.046001 40 40 31.046001 40 20 C 40 8.954 31.046001 0 20 0 C 8.954 0 0 8.954 0 20 C 0 31.046001 8.954 40 20 40 Z"/>
    <path fill="#9488f0" fill-rule="evenodd" stroke="none" d="M 20.164 10 C 18.966 10 18.03 10.451 17.411 11.184 C 16.811 11.894001 16.561 12.804 16.561 13.673001 C 16.561 14.590999 16.938 15.623 17.521 16.429 C 18.091 17.219 19.003 17.975 20.164 17.975 C 21.324 17.975 22.235 17.223 22.807 16.433 C 23.391 15.628 23.768 14.595 23.768 13.673001 C 23.768 12.806 23.528 11.895 22.931 11.182999 C 22.311 10.445 21.373 10 20.164 10 Z M 18.204 13.673001 C 18.204 13.073 18.378 12.542 18.687 12.176 C 18.977 11.832999 19.432 11.576 20.164 11.576 C 20.917 11.576 21.369 11.834 21.651001 12.170001 C 21.953999 12.531 22.125 13.062 22.125 13.673001 C 22.125 14.227 21.881 14.951 21.459 15.534 C 21.024 16.134 20.545 16.4 20.164 16.4 C 19.785 16.4 19.306 16.133 18.87 15.531 C 18.447 14.946001 18.203 14.221 18.203 13.673001 Z"/>
    <path fill="#9488f0" stroke="none" d="M 14.682999 21.535 C 13.019 21.357 11.642999 22.635 11.642999 23.942001 C 11.642999 25.241999 12.712 26.423002 14.722999 26.423002 C 15.446001 26.423002 16.184 26.119 16.996 25.552998 C 17.941 24.893 18.725 24.117 19.51 23.340002 C 20.297 22.561 21.085 21.782001 22.036999 21.117 C 22.980999 20.457 24.06 19.945 25.277 19.945 C 28.051 19.945 30 21.698 30 24 C 30 26.296 27.721 28.248 25.136 27.973 C 24.098 27.863 22.88 27.527002 21.901 26.612999 L 23.047 25.483 C 23.67 26.066 24.485 26.32 25.315998 26.407 C 26.980999 26.585 28.357 25.307001 28.357 24 C 28.357 22.7 27.288 21.519 25.277 21.519 C 24.554003 21.519 23.815002 21.823 23.003998 22.389 C 22.059 23.049002 21.275 23.825 20.49 24.602 C 19.703 25.38 18.915 26.16 17.963 26.825 C 17.019 27.485 15.94 27.997 14.722999 27.997 C 11.949001 27.997 10 26.244 10 23.941 C 10 21.645 12.279 19.693 14.864 19.968 C 15.902 20.078 17.12 20.414 18.099 21.328 L 16.953 22.458 C 16.33 21.875 15.515 21.621 14.684 21.534 Z"/>
</svg>
