<svg width="283.46" height="283.46" xmlns="http://www.w3.org/2000/svg">
    <g>
        <g>
            <path fill="#ffffff" stroke="none" d="M 141.73 283.46 C 122.6 283.46 104.04 279.71 86.56 272.32 C 69.68 265.18 54.529995 254.96 41.51 241.95 C 28.499998 228.94 18.28 213.78001 11.14 196.90001 C 3.75 179.42 0 160.86 0 141.73 C 0 122.6 3.75 104.04 11.14 86.56 C 18.28 69.68 28.499998 54.529995 41.51 41.51 C 54.529995 28.499998 69.68 18.28 86.56 11.14 C 104.04 3.75 122.6 0 141.73 0 C 160.86 0 179.42 3.75 196.90001 11.14 C 213.78001 18.28 228.93 28.499998 241.95 41.51 C 254.96 54.520004 265.18 69.68 272.32 86.56 C 279.71 104.04 283.46 122.6 283.46 141.73 C 283.46 160.86 279.71 179.42 272.32 196.90001 C 265.18 213.78001 254.96 228.93 241.95 241.95 C 228.94 254.96 213.78001 265.18 196.90001 272.32 C 179.42 279.72 160.86 283.46 141.73 283.46 Z"/>
        </g>
        <g>
            <path fill="#000000" stroke="none" d="M 275.95 141.73 C 275.95 215.85767 215.85767 275.95 141.73 275.95 C 67.60233 275.95 7.509986 215.85767 7.509994 141.73 C 7.509994 67.60233 67.60233 7.509994 141.73 7.509994 C 215.85767 7.509986 275.95 67.60233 275.95 141.73 Z"/>
        </g>
        <path fill="#ffffff" stroke="none" d="M 225.65 141.73 C 225.65 134.69 223.94998 128.05 220.85 122.29 L 240.69002 102.450005 L 223.99 85.75 L 203.75998 105.98 C 203.61002 105.91 203.47 105.84 203.32 105.77 C 196.03 102.4 187.84 101.34 179.61002 102.71 C 171.17 104.12 162.88 108.11 155.65 114.25001 C 150.95 118.25001 145.71 122.72 141.65 126.189995 C 137.46 122.61 132.21 118.130005 127.649994 114.25001 C 120.41999 108.11 112.14 104.12 103.69 102.71 C 95.47 101.34 87.270004 102.4 79.98 105.77 C 79.87 105.82 79.76 105.87999 79.65 105.93001 L 59.479996 85.75 L 42.78 102.450005 L 62.520004 122.189995 C 59.379997 127.98 57.66 134.65 57.66 141.73 C 57.66 148.81 59.379997 155.49 62.520004 161.27 L 42.78 181.01 L 59.479996 197.71 L 79.66 177.53 C 79.77 177.58002 79.88 177.64 79.99 177.69 C 87.27999 181.06 95.47 182.12 103.7 180.75002 C 112.14 179.34 120.43 175.35 127.66 169.21 C 132.09 165.44 137.35 160.96 141.66 157.27 C 145.85 160.85 151.1 165.33 155.66 169.21 C 162.89 175.35 171.17 179.34 179.62001 180.75002 C 181.96 181.14001 184.29 181.33 186.59999 181.33 C 192.43 181.33 198.11 180.10002 203.33 177.69 C 203.48 177.62 203.62001 177.55 203.77 177.47998 L 224 197.71 L 240.70001 181.01 L 220.86 161.17 C 223.94998 155.41 225.65 148.78 225.65 141.73 Z M 112.36 151.22 C 105 157.47 96.61 159.36 89.91 156.26 C 84.42 153.72 81.28 148.43 81.28 141.74 C 81.28 135.05 84.43 129.75 89.91 127.22 C 92.03001 126.24 94.33 125.76 96.71 125.76 C 101.83 125.76 107.340004 127.99 112.36 132.26 C 115.93 135.29 119.92 138.69 123.49 141.74 C 119.84 144.84 115.84 148.25 112.36 151.22 Z M 170.95 151.22 C 167.38 148.19 163.39 144.79 159.82 141.74 C 163.31 138.76 167.29 135.36 170.95 132.26 C 178.31 126.01 186.7 124.12 193.4 127.22 C 198.89 129.76 202.03 135.05 202.03 141.74 C 202.03 148.43 198.88 153.73 193.4 156.26 C 186.7 159.36 178.31 157.47 170.95 151.22 Z"/>
    </g>
</svg>
