<svg width="32" height="32" xmlns="http://www.w3.org/2000/svg">
    <defs>
        <mask id="mask0_10528_202864" mask-type="alpha" maskUnits="userSpaceOnUse" x="4" y="4" width="24" height="24">
            <path fill="#c4c4c4" stroke="none" d="M 28 16 C 28 22.627419 22.627419 28 16 28 C 9.372583 28 4 22.627419 4 16 C 4 9.372583 9.372583 4 16 4 C 22.627419 4 28 9.372583 28 16 Z"/>
        </mask>
    </defs>
    <path fill="#ff4339" stroke="none" d="M 16 0 L 16 0 C 24.836554 0 32 7.163444 32 16 L 32 16 C 32 24.836554 24.836554 32 16 32 L 16 32 C 7.163444 32 0 24.836554 0 16 L 0 16 C 0 7.163444 7.163444 0 16 0 Z"/>
    <path fill="#ffffff" stroke="none" d="M 16.0604 14.384601 L 15.945 14.384601 C 14.3873 14.384601 13.1758 15.653899 13.1758 17.2693 L 13.1758 20.3846 L 16.0027 18.25 L 18.8296 20.3846 L 18.8296 17.2693 C 18.8296 15.7116 17.5604 14.4423 16.0604 14.384601 Z"/>
    <g mask="url(#mask0_10528_202864)">
        <path fill="#ffffff" stroke="none" d="M 4 4 L 4 27.192299 L 11.211501 21.8269 L 11.211501 15.711501 L 9.88462 14.6731 L 16 10.0577 L 22.1154 14.6731 L 20.7885 15.711501 L 20.7885 21.8269 L 28 27.192299 L 28 4 L 4 4 Z"/>
    </g>
</svg>
