<svg width="120" height="120" xmlns="http://www.w3.org/2000/svg">
    <defs>
        <linearGradient id="paint0_linear_3509_2404" x1="85.9692" y1="104.98" x2="34.0314" y2="15.021" gradientUnits="userSpaceOnUse">
            <stop offset="0" stop-color="#6d71e5"/>
            <stop offset="0.552528" stop-color="#f03a44"/>
        </linearGradient>
    </defs>
    <path fill="url(#paint0_linear_3509_2404)" stroke="none" d="M 8.0625 36.9089 L 8.0625 83.0942 C 8.0625 87.3591 10.3382 91.3016 14.032401 93.434 L 54.0305 116.52799 C 57.7246 118.66 62.275997 118.66 65.9702 116.52799 L 105.968 93.434 C 109.662 91.3016 111.938 87.3591 111.938 83.0942 L 111.938 36.9089 C 111.938 32.6441 109.662 28.7016 105.968 26.569098 L 65.9702 3.4753 C 62.275997 1.3428699 57.7246 1.3428699 54.0305 3.4753 L 14.032401 26.5667 C 10.3382 28.7016 8.0625 32.6417 8.0625 36.9089 Z"/>
    <path fill="#ffffff" stroke="none" d="M 57.9328 25.0579 L 31.3172 39.9254 C 29.688602 40.8359 28.6875 42.5142 28.6875 44.3307 L 28.6875 74.0658 C 28.6875 75.8823 29.688602 77.5606 31.3172 78.4711 L 53.531498 89.9955 L 53.531498 60.0508 L 43.2017 60.0508 C 40.2998 60.0508 37.9423 57.7744 37.9423 54.962505 L 37.9423 46.1607 L 57.0839 46.138397 L 57.0839 49.7359 L 64.2718 49.7359 L 64.2718 46.2143 L 82.8736 46.1607 L 82.8736 54.962505 C 82.8736 57.77 80.5207 60.0508 77.6142 60.0508 L 67.5797 60.0508 L 67.5797 90 L 89.8078 78.4756 C 91.4364 77.565 92.43751 75.8868 92.43751 74.0702 L 92.43751 44.3307 C 92.43751 42.5142 91.4364 40.8359 89.8078 39.9254 L 63.192204 25.0579 C 61.5636 24.1474 59.5614 24.1474 57.9328 25.0579 Z"/>
</svg>
