<svg width="56" height="57" xmlns="http://www.w3.org/2000/svg">
    <defs>
        <linearGradient id="paint0_linear_543_3906" x1="30.8929" y1="-6.00786" x2="30.8929" y2="50.5578" gradientUnits="userSpaceOnUse">
            <stop offset="0" stop-color="#ff96d5"/>
            <stop offset="1" stop-color="#ffd390"/>
        </linearGradient>
        <linearGradient id="paint1_linear_543_3906" x1="28.1019" y1="12.2002" x2="28.1019" y2="45.7706" gradientUnits="userSpaceOnUse">
            <stop offset="0" stop-color="#0c0c02"/>
            <stop offset="1" stop-color="#43003e"/>
        </linearGradient>
    </defs>
    <path fill="#f4f7fe" stroke="none" d="M 56 28 C 56 43.46397 43.46397 56 28 56 C 12.536027 56 0 43.46397 0 28 C -0 12.536027 12.536027 0 28 0 C 43.46397 0 56 12.536027 56 28 Z"/>
    <path fill="#4318ff" stroke="none" d="M 27.9472 28.145 C 30.9714 28.145 33.4208 25.695498 33.4208 22.6714 C 33.4208 19.6472 30.9714 17.1978 27.9472 17.1978 C 24.9231 17.1978 22.4736 19.6472 22.4736 22.6714 C 22.4736 25.695498 24.9231 28.145 27.9472 28.145 Z M 27.9472 30.8818 C 24.293602 30.8818 17 32.7154 17 36.3554 L 17 37.7238 C 17 38.4764 17.6158 39.0922 18.3684 39.0922 L 37.526 39.0922 C 38.2787 39.0922 38.8944 38.4764 38.8944 37.7238 L 38.8944 36.3554 C 38.8944 32.7154 31.6009 30.8818 27.9472 30.8818 Z"/>
    <path fill="url(#paint0_linear_543_3906)" stroke="none" d="M 28 57 C 43.464 57 56 44.464 56 29 C 56 13.536 43.464 1 28 1 C 12.536 1 0 13.536 0 29 C 0 44.464 12.536 57 28 57 Z"/>
    <path fill="url(#paint1_linear_543_3906)" stroke="none" d="M 28.019798 41.5785 C 29.6104 42.3087 32.6005 42.1868 35.992 42.7351 C 39.3835 43.2833 41.8834 47.4708 42.5603 44.9931 C 43.5124 41.5081 41.1575 34.9846 39.1119 29.6493 C 39.04 29.4617 41.2022 29.3498 42.5603 26.759 C 43.3644 25.2249 43.347797 21.3872 43.8836 20.0507 C 45.5496 15.8946 43.5967 16.9294 43.410297 16.5037 C 43.295403 16.2413 44.042095 12.263799 42.8584 14.2056 C 42.6087 14.6151 40.3423 20.6634 39.8132 21.7888 C 38.6264 24.3132 37.5715 24.5488 37.5001 24.358 C 37.008 23.7447 36.6761 22.8883 36.5044 21.7888 C 35.687 16.5558 32.2202 12.2002 26.9353 12.2002 C 21.650402 12.2002 17.3662 16.4932 17.3662 21.7888 C 17.0682 22.661 16.9193 23.5174 16.9193 24.358 C 16.9193 24.7039 14.8944 26.341398 13.8575 27.4659 C 12.2042 29.2589 11.6645 31.156301 11.6525 31.7463 C 11.6456995 32.1039 11.9132 35.3743 13.357699 34.6078 C 13.4566 34.5554 13.6077 34.1879 13.8136 33.691 C 14.0994 33.0011 14.4881 32.0258 14.9922 31.3346 C 15.7169 30.3407 16.806 30.0727 16.9193 30.0745 C 16.8961 33.3356 16.8961 35.1377 16.9193 35.4809 C 17.1185 38.4353 17.7556 39.3834 19.3096 41.5785 C 20.323 43.010098 21.8185 43.5975 23.3366 42.7351 C 23.9615 42.3801 25.7434 40.5334 28.019798 41.5785 Z"/>
    <path fill="#ffffff" stroke="none" d="M 30.890099 24.581 C 33.0041 24.581 34.7178 22.8452 34.7178 20.7041 C 34.7178 18.5629 33.0041 16.8271 30.890099 16.8271 C 28.7762 16.8271 27.0625 18.5629 27.0625 20.7041 C 27.0625 22.8452 28.7762 24.581 30.890099 24.581 Z"/>
    <path fill="#160b0d" stroke="none" d="M 30.8383 23.418098 C 32.1573 22.989498 32.9268 21.7197 32.5571 20.5819 C 32.1874 19.4442 30.8185 18.8692 29.4995 19.2978 C 28.180601 19.7263 27.411001 20.9961 27.7807 22.133902 C 28.1504 23.2717 29.5193 23.8466 30.8383 23.418098 Z"/>
    <path fill="#ffffff" stroke="none" d="M 31.5409 21.2625 C 31.8316 21.2625 32.0673 21.0267 32.0673 20.736 C 32.0673 20.4452 31.8316 20.2095 31.5409 20.2095 C 31.2503 20.2095 31.014599 20.4452 31.014599 20.736 C 31.014599 21.0267 31.2503 21.2625 31.5409 21.2625 Z"/>
    <path fill="#ffffff" stroke="none" d="M 21.1939 24.581 C 21.8457 24.581 22.3741 24.0738 22.3741 23.4482 C 22.3741 22.8226 21.8457 22.3154 21.1939 22.3154 C 20.5421 22.3154 20.0137 22.8226 20.0137 23.4482 C 20.0137 24.0738 20.5421 24.581 21.1939 24.581 Z"/>
    <path fill="#ffffff" stroke="none" d="M 25.5122 33.55 C 27.2507 35.6219 29.7597 36.3788 31.1161 35.2407 C 32.4726 34.1025 32.1628 31.5002 30.4243 29.4283 C 28.6857 27.356401 26.176798 26.599398 24.8203 27.7376 C 23.4639 28.8758 23.7736 31.4781 25.5122 33.55 Z"/>
    <path fill="#000000" stroke="none" d="M 21.6884 23.3683 C 21.8206 23.3683 21.9277 23.261099 21.9277 23.129002 C 21.9277 22.9968 21.8206 22.8896 21.6884 22.8896 C 21.556297 22.8896 21.4492 22.9968 21.4492 23.129002 C 21.4492 23.261099 21.556297 23.3683 21.6884 23.3683 Z"/>
</svg>
