<svg width="32" height="32" xmlns="http://www.w3.org/2000/svg">
    <path fill="#5814fb" fill-rule="evenodd" stroke="none" d="M 32 16 C 32 13.905899 31.5834 11.8118 30.7821 9.87712 C 29.9808 7.9424 28.794598 6.16704 27.3136 4.6864 C 25.833 3.20544 24.0576 2.0192 22.1229 1.21792 C 20.1882 0.41664 18.0941 0 16 0 C 13.905899 0 11.8118 0.41664 9.87712 1.21792 C 7.9424 2.0192 6.16704 3.20544 4.6864 4.6864 C 3.20544 6.16704 2.0192 7.9424 1.21792 9.87712 C 0.41664 11.8118 0 13.905899 0 16 C 0 18.0941 0.41664 20.1882 1.21792 22.1229 C 2.0192 24.0576 3.20544 25.833 4.6864 27.3136 C 6.16704 28.794598 7.9424 29.9808 9.87712 30.7821 C 11.8118 31.5834 13.905899 32 16 32 C 18.0941 32 20.1882 31.5834 22.1229 30.7821 C 24.0576 29.9808 25.833 28.794598 27.3136 27.3136 C 28.794598 25.833 29.9808 24.0576 30.7821 22.1229 C 31.5834 20.1882 32 18.0941 32 16 Z"/>
    <path fill="#ffffff" stroke="none" d="M 8.06617 7.96306 C 7.98023 8.05023 7.9768996 8.19344 8.06264 8.2808 L 14.1152 14.4483 C 14.1564 14.4902 14.179401 14.546601 14.179401 14.6054 L 14.179401 19.9072 C 14.179401 19.9873 14.2222 20.0613 14.291499 20.1014 L 15.8946 21.027 C 15.964 21.067 16.0494 21.067 16.1187 21.027 L 17.7218 20.1014 C 17.7912 20.0613 17.8339 19.9873 17.8339 19.9072 L 17.8339 14.6054 C 17.8339 14.546601 17.857 14.4902 17.8981 14.4483 L 23.9358 8.296 C 24.021402 8.20876 24.021402 8.06899 23.935701 7.98178 L 21.6637 5.66858 C 21.575901 5.57919 21.4318 5.5792603 21.3439 5.66856 C 21.0072 6.01064 20.9462 6.07218 20.4508 6.57194 C 19.8971 7.1305 18.8008 8.23648 16.1705 10.8933 C 16.0828 10.9818 15.9289 10.9791 15.841199 10.8907 L 10.6572 5.67171 C 10.5693 5.58323 10.4162 5.57962 10.3286 5.66842 L 8.06617 7.96306 Z"/>
    <path fill="#ffffff" stroke="none" d="M 9.46566 18.5824 C 9.36124 18.5213 9.24749 18.6461 9.31796 18.7445 L 15.9169 27.954802 C 15.9616 28.0172 16.0544 28.0172 16.0991 27.954802 L 22.7032 18.7444 C 22.7737 18.646 22.659998 18.5212 22.5556 18.5822 L 16.0646 22.3778 C 16.0296 22.398201 15.9864 22.398201 15.9514 22.3778 L 9.46566 18.5824 Z"/>
    <path fill="#ffffff" stroke="none" d="M 17.4784 7.92015 C 17.5052 7.96408 17.4986 8.02057 17.4625 8.05718 C 17.0038 8.52219 16.5446 8.98662 16.0837 9.44943 C 16.0399 9.49338 15.9688 9.49339 15.924999 9.44947 C 15.4655 8.98855 15.007701 8.52601 14.5504 8.0629 C 14.5143 8.0263 14.507701 7.96979 14.5344 7.92584 L 15.912299 5.66137 C 15.9559 5.58961 16.0601 5.5896 16.1037 5.66136 L 17.4784 7.92015 Z"/>
    <path fill="#ffffff" stroke="none" d="M 20.7492 13.2944 C 20.7112 13.232 20.6246 13.2221 20.5735 13.2742 L 18.9522 14.9262 C 18.9317 14.9472 18.9201 14.9754 18.9201 15.0048 L 18.9201 19.1993 C 18.9201 19.2859 19.0141 19.3398 19.0888 19.296 L 22.9077 17.0605 C 22.9618 17.0288 22.979399 16.959 22.9468 16.9054 L 20.7492 13.2944 Z"/>
    <path fill="#ffffff" stroke="none" d="M 13.088 19.1943 C 13.088 19.2809 12.994 19.3348 12.9193 19.2911 L 9.10976 17.0605 C 9.05569 17.0288 9.03806 16.959 9.07064 16.9054 L 11.2644 13.3 C 11.3024 13.2376 11.389 13.227601 11.4401 13.2797 L 13.055901 14.9262 C 13.076501 14.9472 13.088 14.9754 13.088 15.0047 L 13.088 19.1943 Z"/>
</svg>
