<svg width="256" height="256" xmlns="http://www.w3.org/2000/svg">
    <path fill="#ffffff" fill-rule="evenodd" stroke="none" d="M 256 128 C 256 198.692 198.692 256 128 256 C 57.3076 256 0 198.692 0 128 C 0 57.3076 57.3076 0 128 0 C 198.692 0 256 57.3076 256 128 Z"/>
    <path fill="#000000" fill-rule="evenodd" stroke="none" d="M 177.321 97.162994 C 177.321 97.2085 177.321 97.254 177.31999 97.2996 L 177.31999 97.0035 L 134.625 97.0035 C 134.223 91.7158 129.806 87.55049 124.41499 87.55049 C 118.759995 87.55049 114.175 92.135 114.175 97.7903 C 114.175 102.864 117.865 107.076 122.708 107.88801 L 122.708 147.415 C 92.5465 147.414 68.0962 124.845 68.0962 97.0033 C 68.0962 69.1618 92.547 46.5918 122.709 46.5918 C 152.87 46.5918 177.321 69.1618 177.321 97.0033 C 177.321 97.0566 177.321 97.1098 177.321 97.162994 Z"/>
    <path fill="#000000" fill-rule="evenodd" stroke="none" d="M 78.8491 159.39 C 78.8491 159.302 78.8494 159.214 78.8499 159.126 L 78.8499 159.39 L 121.545 159.39 C 121.94701 164.677 126.365 168.842 131.755 168.842 C 137.41 168.842 141.995 164.258 141.995 158.603 C 141.995 153.529 138.305 149.317 133.462 148.504 L 133.462 108.979 C 163.624 108.979 188.074 131.549 188.074 159.39 C 188.074 187.232 163.623 209.80199 133.462 209.80199 C 103.3 209.80199 78.8491 187.232 78.8491 159.39 Z"/>
</svg>
