<svg width="256" height="256" xmlns="http://www.w3.org/2000/svg">
    <defs>
        <radialGradient id="paint0_radial_203_1599" cx="0" cy="0" r="1" fx="0" fy="0" gradientUnits="userSpaceOnUse" gradientTransform="matrix(157.49979 196.49979 -260.54422 208.8331 26 43.5)">
            <stop offset="0" stop-color="#939eff"/>
            <stop offset="0.502367" stop-color="#6b00ad"/>
            <stop offset="1" stop-color="#300056"/>
        </radialGradient>
        <radialGradient id="paint1_radial_203_1599" cx="0" cy="0" r="1" fx="0" fy="0" gradientUnits="userSpaceOnUse" gradientTransform="matrix(-3.390623 120.60935 -120.60935 -3.390623 131.391 131.391)">
            <stop offset="0.852926" stop-color="#ffffff" stop-opacity="0"/>
            <stop offset="1" stop-color="#ffffff"/>
        </radialGradient>
        <radialGradient id="paint2_radial_203_1599" cx="0" cy="0" r="1" fx="0" fy="0" gradientUnits="userSpaceOnUse" gradientTransform="matrix(3.0000215 127.49972 -127.49972 3.0000215 125 124.5)">
            <stop offset="0.88242" stop-color="#170125" stop-opacity="0"/>
            <stop offset="0.951061" stop-color="#010b25" stop-opacity="0.4178"/>
            <stop offset="1" stop-color="#170125"/>
        </radialGradient>
        <filter id="filter0_d_203_1599" x="22.3511" y="7.45847" width="208.442" height="238.083" filterUnits="userSpaceOnUse">
            <feFlood color-interpolation-filters="sRGB" flood-color="#000000" flood-opacity="0" result="BackgroundImageFix"/>
            <feColorMatrix color-interpolation-filters="sRGB" in="SourceAlpha" result="hardAlpha" type="matrix" values="0 0 0 0 0 0 0 0 0 0 0 0 0 0 0 0 0 0 127 0"/>
            <feOffset color-interpolation-filters="sRGB" in="hardAlpha" dx="0" dy="0" result="result3"/>
            <feGaussianBlur color-interpolation-filters="sRGB" in="result3" stdDeviation="16 16" result="result4"/>
            <feComposite color-interpolation-filters="sRGB" in="result4" in2="hardAlpha" operator="out" result="result5"/>
            <feColorMatrix color-interpolation-filters="sRGB" in="result5" result="result6" type="matrix" values="0 0 0 0 0.23385 0 0 0 0 0.0152546 0 0 0 0 0.270283 0 0 0 0.6 0"/>
            <feBlend color-interpolation-filters="sRGB" in="result6" in2="BackgroundImageFix" mode="normal" result="effect1_dropShadow_203_1599"/>
            <feBlend color-interpolation-filters="sRGB" in="SourceGraphic" in2="effect1_dropShadow_203_1599" mode="normal" result="shape"/>
        </filter>
    </defs>
    <path fill="url(#paint0_radial_203_1599)" stroke="none" d="M 252 128 C 252 196.48329 196.48329 252 128 252 C 59.516685 252 4 196.48329 4 128 C 4 59.516685 59.516685 4 128 4 C 196.48329 4 252 59.516685 252 128 Z"/>
    <g filter="url(#filter0_d_203_1599)">
        <path fill="#ffffff" stroke="none" d="M 176.73799 139.998 C 168.63 138.402 148.943 138.943 129.235 140.669 C 109.58899 142.39 90.0453 145.286 82.3374 148.268 C 67.405 154.064 70.8816 160.367 73.2825 169.32 C 77.9065 186.618 86.9286 200.102 99.42601 207.048 C 110.746 213.34901 125.258 214.135 135.575 213.231 C 145.892 212.327 160.047 209.03 170.103 200.856 C 181.2 191.781 187.814 176.989 189.306 159.156 C 190.056 149.927 192.449 143.11 176.73799 139.998 Z M 159.811 179.256 C 157.867 181.233 154.695 181.262 152.72 179.316 L 145.098 171.88 L 133.55 187.914 L 119.39701 174.131 L 113.17999 182.779 C 111.572 185.04 108.443 185.56302 106.186 183.953 C 103.928 182.343 103.406 179.21002 105.01399 176.95001 L 118.056 158.79 L 132.209 172.573 L 143.757 156.539 L 159.751 172.155 C 161.726 174.101 161.755 177.278 159.811 179.256 Z"/>
        <path fill="#ffffff" stroke="none" d="M 121.522 52.3941 C 141.915 50.6699 154.019 55.9676 158.278 58.3996 C 170.125 65.0288 179.276 78.564 184.083 96.5314 C 184.277 97.3248 185.16498 100.364 185.725 102.496 C 186.013 103.65499 185.503 104.947 184.429 105.477 C 183.535 105.93001 182.281 106.538 180.656 107.179 C 172.167 110.478 147.619 113.813 127.108 115.61 C 98.6269 118.105 79.3746 117.922 72.9108 116.618 C 71.1995 116.269 69.9261 115.944 68.8997 115.598 C 67.7445 115.2 66.9622 114.085 67.1066 112.888 C 67.2881 110.69001 67.5739 107.548 67.6889 106.728 C 69.1781 88.14651 75.8428 73.2258 86.3602 64.6374 C 97.694 55.4164 114.726 52.9894 121.522 52.3941 Z M 120.425 39.8364 C 107.88301 40.935 90.6774 44.9357 78.4146 54.9237 C 64.9301 65.8914 56.9186 83.922 55.0819 105.65 C 54.1342 116.89101 51.2428 125.123 70.3761 128.933 C 80.1953 130.877 104.229 130.206 128.138 128.111 C 152.047 126.01699 175.832 122.50001 185.164 118.877 C 203.34601 111.798996 199.071 104.195 196.188 93.2893 C 190.61201 72.2103 179.60002 55.9084 164.351 47.3954 C 150.604 39.6859 132.966 38.7377 120.425 39.8364 Z"/>
        <path fill="#ffffff" stroke="none" d="M 138.919 101.174 C 135.151 101.504 130.895 99.819496 126.285995 96.2338 C 126.01699 96.00801 125.749 95.7822 125.48501 95.6183 C 122.61 99.0492 118.223 102.987 113.28099 103.42 C 105.311 104.118 97.763 99.66751 94.5651 92.280594 C 93.4732 89.758194 94.64551 86.78811 97.1646 85.6948 C 99.68369 84.6014 102.65 85.7753 103.742 88.29759 C 105.21801 91.659 108.63601 93.728294 112.343 93.4035 C 114.31999 93.2304 118.36599 88.9489 120.54499 85.3919 L 124.085 79.5964 L 128.577 84.6884 C 131.748 88.2129 136.252 91.3091 138.044 91.1521 C 141.689 90.8328 144.758 88.1953 145.629 84.6282 C 146.267 81.9543 148.985 80.2826 151.655 80.9213 C 154.325 81.5601 155.995 84.2812 155.357 86.9551 C 153.551 94.7804 146.951 100.47001 138.919 101.174 Z"/>
    </g>
    <path fill="none" stroke="url(#paint1_radial_203_1599)" stroke-opacity="0.15" stroke-width="32.9375" d="M 235.53099 128 C 235.53099 187.38774 187.38774 235.53099 128 235.53099 C 68.61227 235.53099 20.468998 187.38773 20.469002 128 C 20.469002 68.61227 68.61227 20.469002 128 20.469002 C 187.38773 20.468998 235.53099 68.61227 235.53099 128 Z"/>
    <path fill="none" stroke="url(#paint2_radial_203_1599)" stroke-opacity="0.6" stroke-width="32.9375" d="M 235.53099 128 C 235.53099 187.38774 187.38774 235.53099 128 235.53099 C 68.61227 235.53099 20.468998 187.38773 20.469002 128 C 20.469002 68.61227 68.61227 20.469002 128 20.469002 C 187.38773 20.468998 235.53099 68.61227 235.53099 128 Z"/>
</svg>
