<svg width="256" height="256" xmlns="http://www.w3.org/2000/svg">
    <defs>
        <clipPath id="SVGID_00000162348788714572766890000009170481695801325210_">
            <path fill="#000000" stroke="none" d="M 0 0 L 250 0 L 250 142.4 L 0 142.4 Z"/>
        </clipPath>
    </defs>
    <g transform="matrix(1.024 0 0 1.024 0 55.0912)">
        <g>
            <g>
                <g>
                    <g>
                        <g>
                            <g id="white-logo" clip-path="url(#SVGID_00000162348788714572766890000009170481695801325210_)">
                                <g>
                                    <g>
                                        <g>
                                            <g>
                                                <g>
                                                    <g>
                                                        <g>
                                                            <path fill="#ffffff" stroke="none" d="M 13.1 108.3 C 12.4 104.7 11.6 101.2 11.2 97.6 C 10.3 89.49999 9.4 81.3 9.8 73 C 10.2 65.9 11.9 59.2 14.9 52.900005 C 15 52.6 15.3 52.300003 15.6 52.1 C 20.5 47.5 25.4 43 30.3 38.3 C 31.500002 37.2 32.6 36.1 33.1 34.4 C 33.5 33 35.2 32.2 36.8 32.2 C 38.1 32.2 39.4 32.2 40.7 32.3 C 41.4 32.3 41.8 32.1 42.1 31.500002 C 43.6 28.499998 45.2 25.6 46.8 22.7 C 48.1 20.3 50.300003 19 52.6 18 C 56.300003 16.4 60 15.1 63.699997 13.6 C 65.7 12.8 67.6 11.6 69.5 10.6 C 71 9.8 72.5 9.1 74.1 8.4 C 76.5 7.3 78.5 8 80.6 9.4 C 83.3 11.2 86.19999 12.9 88.9 14.7 C 90.19999 15.5 91.399994 16.6 92.7 17.4 C 93.80001 18.1 94.9 18.5 96 19.1 C 97 19.7 97.9 20.3 98.8 21 C 100.7 22.7 102.6 24.499998 104.5 26.2 C 105.1 26.8 105.80001 27.3 106.50001 27.9 C 107.2 26.499998 109.4 26.6 109.299995 24.499998 C 109.4 24.4 109.4 24.3 109.49999 24.3 C 111.8 23.3 112.2 23.6 112.8 26 C 113 26.8 113.299995 27.500002 113.6 28.499998 C 113.7 28.3 113.7 28.4 113.6 28.499998 C 112.8 29.3 111.399994 30.2 111.399994 31 C 111.5 32.5 112.3 33.9 113 35.4 C 114.1 37.8 115.5 40.1 116.3 42.5 C 117.299995 45.699997 117.80001 49.2 118.4 52.5 C 118.8 54.6 119.1 56.7 119.399994 58.7 C 119.5 59.099995 119.5 59.5 119.5 59.9 C 119.5 61.8 119.2 62.1 117.2 62.1 C 115.90001 62 114.6 62 113.299995 62 C 112.3 62.1 111.7 61.699997 111.5 60.7 C 111 59.3 110.3 57.8 110.1 56.300003 C 109.9 55 110.3 53.6 110.19999 52.300003 C 110.19999 49.9 110.19999 47.4 109.9 44.900005 C 109.80001 43.8 109.299995 42.6 108.7 41.6 C 107.7 39.7 106.6 37.8 105.49999 36 C 104.9 35 104.09999 34.1 105.2 32.7 C 103.2 35 102 32.6 100.3 32.1 C 100.4 32.4 100.4 32.6 100.4 32.8 C 102 37.9 103.8 42.9 105.2 48 C 106 51.2 106 54.5 106.4 57.8 C 106.6 59.5 123.6 61 124.9 62.4 C 123.2 63.3 107.5 63.099995 102.700005 63.9 C 102.1 63.699997 101.4 63.699997 100.8 63.9 C 99.1 64.3 86.700005 67.2 85.2 66.8 C 84.8 66.7 95.3 61.8 95.3 61.2 C 95.399994 58.7 94.19999 57 92.2 55.6 C 88.9 53.3 85.6 51.099995 81.5 50.5 C 79.4 50.2 77.4 50.300003 75.6 51.4 C 73.6 52.6 71.5 53.099995 69.2 52.900005 C 66.8 52.7 64.5 53.2 62.8 55.4 C 61.8 56.7 60.4 57.8 59.099995 58.8 C 57 60.5 54.900005 62.1 53 63.9 C 52.8 64.5 52.7 65.1 52.4 65.6 C 51.2 68.1 49.8 70.5 48.7 73.1 C 47.3 76.4 46.2 79.7 44.900005 83 C 44.6 83.7 44.7 84.2 45.099995 84.9 C 48.1 89.1 51.9 92.5 55.9 95.6 C 51 93.49999 47.5 89.6 44 85.3 C 42.7 89.2 40.5 92.5 40.4 96.4 C 40.2 99.90001 39.3 103.1 37.9 106.3 C 37.5 107.3 37.6 108 38.3 108.9 C 45.9 119.2 55.4 127.3 66.1 134.2 C 66.5 134.4 66.8 134.7 67.2 134.9 C 67.1 135 67.1 135.1 67 135.2 C 64.4 133.8 61.8 132.5 59.3 131 C 53.9 127.90001 49 124.2 44.4 120 C 40.8 116.7 38.1 112.8 35.3 108.9 C 35.1 108.600006 35 108.09999 35.1 107.8 C 37.2 103.399994 37.2 98.50001 38 93.80001 C 38.6 90.4 40.2 87.399994 41.7 84.4 C 42.2 83.4 42.2 82.8 41.5 81.8 C 39.2 78.8 37.1 75.7 34.9 72.6 C 34.6 72.2 34.5 71.5 34.6 70.9 C 36.3 61.5 38.1 52.1 39.9 42.7 C 40.2 41.3 40 39.8 41.5 38.8 C 41.5 38.7 41.4 38.5 41.4 38.4 C 40.2 38.3 39 38.2 37.8 38.1 C 37.1 38 36.3 37.9 35.4 37.7 C 35.3 39.5 33.6 40 32.2 40.7 C 28.499998 42.4 25.8 45.4 23 48.2 C 22.6 48.7 22.1 49.2 21.6 49.5 C 15.8 53.4 14.2 59.6 13 65.8 C 10.6 79.5 11.4 93.299995 13.5 107 C 13.5 107.2 13.5 107.5 13.6 107.7 C 13.4 108.3 13.2 108.3 13.1 108.3 Z M 87.399994 50 C 87.5 49.8 87.6 49.699997 87.7 49.5 C 87 49 86.4 48.300003 85.7 48 C 83.7 47.099995 82.2 45.699997 81.2 43.8 C 80.7 42.9 80 42.6 79 42.7 C 78.1 42.8 77.1 42.8 76.1 43 C 73.5 43.5 70.9 43.2 68.3 42.7 C 67 42.5 65.6 42.4 64.3 42.5 C 60.6 42.8 57.3 42.2 54.300003 39.9 C 53.4 39.2 52.2 38.7 51.099995 38.4 C 50.5 38.2 49.5 38.4 49 38.8 C 47.4 39.9 45.8 41.1 44.300003 42.4 C 43.9 42.8 43.5 43.4 43.3 44 C 42.4 47.699997 41.5 51.5 40.6 55.3 C 39.3 60.6 38.1 66 36.8 71.3 C 36.7 71.8 36.7 72.5 37 73 C 37.8 74.4 38.6 75.7 39.5 77 C 40.6 78.7 41.7 80.3 43.099995 82.2 C 43.9 80 44.7 78.3 45.099995 76.4 C 46.1 72.5 47.3 68.7 49.5 65.4 C 50.4 64.1 50.5 63.2 49.3 61.9 C 48 60.5 48.1 60.1 49.6 58.8 C 49.9 58.5 50.5 58.6 50.900005 58.5 C 51.2 58.4 51.5 58.4 51.699997 58.2 C 54 55.9 56.4 53.8 59.5 52.6 C 62.4 51.5 65.2 49.9 68.1 48.6 C 69.4 48 70.9 47.3 72.3 47.2 C 75.4 47.099995 78.6 47.3 81.6 48.5 C 83.5 49 85.5 49.4 87.399994 50 Z M 92.7 25.500002 C 91.8 24.8 91.1 24.3 90.4 23.8 C 88.5 22.1 86.50001 20.5 84.6 18.7 C 83.2 17.4 82 16 80.3 14.9 C 77.7 13.2 75.3 13.5 72.9 14.5 C 66.3 17.1 59.8 20.1 53.099995 22.7 C 48.4 24.499998 46.4 28.7 43.3 32.1 C 45.6 32.3 47.9 32.3 50.2 32.2 C 50.5 32.2 50.8 32 51 31.8 C 54.8 28.7 58.6 25.6 61.699997 21.8 C 61.9 21.6 62.300003 21.3 62.4 21.4 C 63.6 22 64 21 64.5 20.4 C 64.9 20 65.2 19.5 65.6 19 C 65.8 19.6 65.9 20 66 20.4 C 66.6 20 67.2 19.7 67.7 19.3 C 67.9 19.7 68.1 20 68.3 20.3 C 69 21.9 70.2 22.8 71.9 23.2 C 74.7 23.9 77.5 24.7 80.2 25.500002 C 80.3 25.500002 80.4 25.4 80.5 25.4 C 80.4 25 80.4 24.6 80.3 23.9 C 82.9 24.6 85.4 25.1 87.7 25.7 C 89.49999 26.3 90.9 26.2 92.7 25.500002 Z M 56.900005 32.9 C 64.4 34.2 71.5 35.5 78.7 36.7 C 78.5 35.4 78.5 34 77.3 33.2 C 77.3 33.2 77.3 33 77.3 32.7 C 78.9 33.7 80.3 34.5 81.7 35.5 C 82.6 36.1 83.2 35.8 83.6 35 C 84 34.3 84.3 33.6 84.7 32.7 C 83.6 32.2 82.4 31.4 81.2 31.2 C 77.3 30.6 73.4 30.2 69.5 29.7 C 68.9 29.6 68.3 29.3 67.8 28.9 C 66.7 28.1 65.6 27.2 64.5 26.3 C 64.4 26.6 64.1 26.8 64.2 27 C 64.3 28.1 63.6 28.6 62.8 29.1 C 60.900005 30.2 59.099995 31.4 56.900005 32.9 Z M 87.90001 33.4 C 88.3 36.3 88.9 39.1 91.2 41.2 C 92.5 42.3 94 43.3 94.700005 44.900005 C 95 45.699997 95.6 46.300003 96 47 C 97.6 49.4 99.2 51.8 100.8 54.300003 C 100.9 54.2 101 54.2 101.1 54.1 C 101 53.699997 100.9 53.3 100.8 52.900005 C 100.09999 51 99.3 49.099995 98.6 47.2 C 97 43.099995 95.1 39.2 92.2 35.9 C 91.1 34.4 89.9 33.3 87.90001 33.4 Z"/>
                                                        </g>
                                                    </g>
                                                </g>
                                            </g>
                                        </g>
                                    </g>
                                </g>
                                <g>
                                    <path fill="#ffffff" stroke="none" d="M 145.4 72.9 C 148.2 72 151 71.1 154.2 70 C 153.9 70.8 153.8 71.1 153.6 71.7 C 155 71.5 156.4 71.3 157.7 71.2 C 158.3 71.1 159.1 71.2 159.5 71.5 C 161.1 73 162.7 74.6 164.2 76.3 C 164.6 76.8 164.7 77.7 164.5 78.4 C 163.9 80.9 163.3 83.4 162.5 85.8 C 162 87.1 161 88.2 160.1 89.6 C 160 89.299995 160 89.49999 160.1 89.49999 C 163.1 90.4 162.6 92.7 162.2 94.9 C 161.6 97.80001 161.3 100.8 160.1 103.399994 C 158.9 106.1 158.8 109 157.9 111.6 C 157.8 111.7 157.7 111.90001 157.6 112 C 157.4 112 157.2 112 157 112 C 156.9 107.399994 156.8 102.8 156.6 98.3 C 156.5 96.7 156.6 95 156.2 93.49999 C 156 92.8 154.7 92.4 153.9 91.90001 C 153.5 92.5 152.9 93 152.9 93.6 C 152.7 96.09999 152.6 98.700005 152.8 101.2 C 152.9 102 153.8 102.8 154.6 104 C 150.8 103.8 147.2 103.7 143.6 103.5 C 143.5 103.399994 143.4 103.3 143.3 103.1 C 146.3 102.19999 145.7 99.2 147.1 97.299995 C 147.2 97.1 147.2 96.9 147.2 96.600006 C 147.4 93.2 147.5 89.7 147.7 86.3 C 147.9 83 148 79.6 148.2 76.3 C 148.3 74.9 148 74 146.4 73.8 C 146.1 73.8 145.9 73.6 145.7 73.5 C 145.4 73.3 145.4 73.1 145.4 72.9 Z M 154.9 86.50001 C 159.3 82.9 159.9 79.3 156.3 77.3 C 156.1 78.4 155.9 79.5 155.7 80.5 C 155.2 79.7 155.1 78.9 154.8 78.2 C 154.6 77.7 154.1 77.3 153.8 76.9 C 153.5 77.4 153.1 77.9 153 78.5 C 152.8 80.4 152.8 82.3 152.7 84.2 C 152.7 85.3 152.7 86.50001 152.7 87.6 C 152.8 87.6 153 87.6 153.1 87.6 C 153.5 86.9 153.8 86.19999 154.3 85.2 C 154.6 85.7 154.8 86.1 154.9 86.50001 Z"/>
                                    <path fill="#ffffff" stroke="none" d="M 146 69.2 C 145.6 69.7 145.4 70.1 145.1 70.3 C 143 71.4 142.8 73.2 142.7 75.2 C 142.4 81.2 142.1 87.1 141.6 93.1 C 141.4 95.2 140.6 97.2 140 99.3 C 139.7 99.1 139.4 98.9 139 98.6 C 138.6 99.90001 138.3 101.2 137.9 102.4 C 137.7 102.4 137.5 102.4 137.3 102.4 C 137 99.3 136.6 96.09999 136.2 92.9 C 135.9 93.1 135.6 93.4 135.1 93.80001 C 135 93.49999 134.8 93.1 134.5 92.3 C 133.7 93.7 133.1 94.8 132.3 96.09999 C 132.2 94.9 132.2 93.9 132.1 92.600006 C 130.9 95.5 131.4 98.50001 129.1 101.1 C 129 99.7 129 98.700005 128.9 97.2 C 127.399994 99.2 126.1 100.9 124.7 102.8 C 124.600006 101.7 124.5 100.9 124.600006 100 C 124.600006 98.8 124.9 97.49999 122.8 97.6 C 126.9 95.7 126.9 91.8 127.8 88.5 C 128.5 86.19999 129.4 84 130.1 81.7 C 130.4 80.7 130.5 79.7 130.9 78.8 C 131.5 77.1 132 75.3 132.7 73.6 C 133.4 72.1 133.3 71.3 131.8 70.6 C 131.2 70.3 130.7 70 130.1 69.7 C 130.2 69.5 130.2 69.4 130.2 69.2 C 135.4 69.2 140.6 69.2 146 69.2 Z M 138.3 74.4 C 138.1 74.4 137.9 74.3 137.7 74.3 C 136.4 78.7 135.2 83.1 133.9 87.5 C 136.8 88 137.4 87.6 137.5 84.7 C 137.6 83.6 137.7 82.5 137.8 81.5 C 137.9 79.2 138.1 76.8 138.3 74.4 Z"/>
                                    <path fill="#ffffff" stroke="none" d="M 121.80001 67.8 C 121.2 71.4 120.7 74.7 120.09999 78 C 120 78.1 119.90001 78.1 119.7 78.2 C 119.2 77.2 118.700005 76.2 118.19999 75.2 C 118 75.5 117.7 75.8 117.4 76.3 C 116.9 75.1 116.4 74 115.8 72.8 C 115.5 73.4 115.3 73.7 115.1 74.2 C 114.700005 73.8 114.19999 73.5 113.4 72.8 C 112.9 76.4 113.299995 79.6 113.7 82.9 C 116.4 82.8 115.6 79.9 117.49999 78.9 C 117.80001 82.8 118 86.6 118.3 90.19999 C 118.1 90.3 118 90.3 117.80001 90.3 C 117.4 89.6 117 88.9 116.5 88.2 C 116 87.6 115.399994 87.2 114.700005 86.700005 C 113.299995 89.299995 114 93.9 116 96.09999 C 117.80001 95.7 118.700005 94.6 118.9 92.8 C 119 91.7 119.399994 90.700005 119.8 89.299995 C 121.4 91.7 121.80001 98 121.1 102.1 C 119.5 101.4 117.9 100.600006 116.3 99.8 C 114.4 98.8 114.4 98.8 113.49999 100.8 C 113.4 101 113.299995 101.2 113.1 101.49999 C 111.5 98.6 109 100.2 106.50001 100.2 C 106.8 99.5 106.9 98.9 107.3 98.6 C 108.600006 97.6 108.600006 96.3 108.5 94.8 C 108.2 88.5 108 82.3 107.8 76 C 107.7 73.7 106.9 71.8 104.600006 70.6 C 110.1 68.7 115.90001 68.6 121.80001 67.8 Z"/>
                                    <path fill="#ffffff" stroke="none" d="M 93.6 107.3 C 93.299995 106.1 93.1 104.8 92.7 103.6 C 90.50001 95.90001 89.4 88 88.7 80.1 C 88.5 77.7 88.5 75.3 85.7 74.3 C 85.6 74.3 85.6 74 85.4 73.6 C 91.1 72.6 96.600006 71.5 102.4 70.5 C 102.1 73.6 101.80001 76.4 101.49999 79.5 C 101 78.9 100.4 78.6 100.2 78 C 99.5 76.3 98 75.8 96.3 76.7 C 94.700005 77.5 93.9 78.7 94.19999 80.5 C 94.4 82.2 94.6 83.9 94.8 85.6 C 97.4 85.2 96.7 82.5 98.6 81.4 C 98.9 85.3 99.2 89 99.5 92.7 C 99.3 92.7 99.2 92.8 99 92.8 C 98.50001 92 98.1 91.1 97.4 90.4 C 97 90 96.4 89.80001 95.8 89.6 C 95.6 90.1 95.2 90.6 95.2 91.1 C 95.3 93 95.399994 94.9 95.5 96.7 C 95.90001 100.3 95.2 103.8 93.6 107.3 Z"/>
                                </g>
                                <g>
                                    <g>
                                        <g>
                                            <g>
                                                <g>
                                                    <g>
                                                        <g>
                                                            <path fill="#ffffff" stroke="none" d="M 237.8 108.3 C 237.8 108.09999 237.8 107.8 237.9 107.6 C 239.9 93.9 240.8 80.1 238.4 66.4 C 237.3 60.1 235.7 54 229.8 50.1 C 229.3 49.699997 228.8 49.2 228.39998 48.8 C 225.6 46 222.9 43 219.2 41.3 C 217.7 40.6 216 40.1 216 38.3 C 215.1 38.4 214.4 38.6 213.6 38.7 C 212.39998 38.8 211.2 38.9 210 39 C 210 39.1 209.9 39.3 209.9 39.4 C 211.3 40.3 211.2 41.9 211.49998 43.3 C 213.3 52.7 215.1 62.1 216.8 71.5 C 216.9 72 216.8 72.7 216.5 73.2 C 214.4 76.3 212.2 79.4 209.9 82.4 C 209.20001 83.3 209.20001 83.9 209.7 85 C 211.2 88 212.8 91 213.40001 94.4 C 214.2 99.1 214.2 104 216.30002 108.4 C 216.4 108.7 216.30002 109.2 216.1 109.49999 C 213.3 113.4 210.59999 117.299995 207 120.600006 C 202.4 124.8 197.40001 128.4 192.1 131.6 C 189.6 133.1 187 134.4 184.4 135.8 C 184.30002 135.7 184.30002 135.6 184.19998 135.5 C 184.6 135.3 184.9 135 185.3 134.8 C 196 128 205.5 119.8 213.1 109.49999 C 213.8 108.600006 213.9 107.90001 213.5 106.9 C 212.10002 103.8 211.2 100.5 211 97 C 210.8 93 208.70001 89.7 207.4 85.9 C 203.89998 90.19999 200.4 94.1 195.49998 96.3 C 199.5 93.1 203.3 89.80001 206.3 85.6 C 206.79999 84.9 206.79999 84.4 206.5 83.7 C 205.2 80.4 204.10002 77 202.7 73.8 C 201.6 71.2 200.19998 68.8 199 66.3 C 198.7 65.7 198.6 65.1 198.4 64.6 C 196.6 62.8 194.4 61.2 192.30002 59.5 C 191 58.4 189.6 57.4 188.6 56.1 C 186.9 53.9 184.70001 53.3 182.2 53.6 C 179.8 53.8 177.8 53.3 175.80002 52.1 C 173.9 51 172 50.900005 169.9 51.2 C 165.8 51.8 162.5 54 159.2 56.300003 C 157.1 57.699997 156 59.4 156.1 61.9 C 156.1 62.5 166.7 67.3 166.2 67.5 C 164.7 68 152.4 65 150.6 64.6 C 150 64.5 149.2 64.4 148.7 64.6 C 143.9 63.8 128.1 64 126.50001 63.099995 C 127.8 61.699997 144.8 60.2 145 58.5 C 145.3 55.2 145.3 51.9 146.2 48.7 C 147.5 43.6 149.4 38.6 151 33.5 C 151.1 33.3 151.1 33.1 151.1 32.8 C 149.4 33.2 148.2 35.7 146.2 33.4 C 147.2 34.8 146.5 35.7 145.9 36.7 C 144.8 38.5 143.7 40.4 142.7 42.3 C 142.2 43.3 141.6 44.5 141.5 45.6 C 141.3 48 141.3 50.5 141.2 53 C 141.2 54.300003 141.5 55.699997 141.3 57 C 141.1 58.5 140.3 59.9 139.9 61.4 C 139.6 62.300003 139.1 62.7 138.1 62.7 C 136.8 62.6 135.5 62.7 134.2 62.8 C 132.3 62.900005 132 62.6 131.9 60.6 C 131.9 60.2 131.9 59.8 132 59.4 C 132.3 57.3 132.6 55.2 133 53.2 C 133.6 49.9 134.1 46.5 135.1 43.2 C 135.8 40.7 137.3 38.5 138.4 36.1 C 139 34.7 139.9 33.2 140 31.7 C 140 30.9 138.6 30.1 137.8 29.2 C 137.7 29.1 137.7 29 137.8 29.2 C 138.1 28.2 138.5 27.500002 138.6 26.7 C 139.1 24.3 139.6 24 141.9 25 C 142 25.1 142.1 25.2 142.1 25.2 C 141.9 27.3 144.2 27.1 144.9 28.6 C 145.7 28 146.3 27.500002 146.9 26.9 C 148.8 25.2 150.7 23.4 152.6 21.7 C 153.4 21 154.4 20.3 155.4 19.8 C 156.5 19.2 157.7 18.7 158.7 18.1 C 160 17.3 161.2 16.2 162.5 15.4 C 165.2 13.6 168.1 11.9 170.8 10.1 C 172.90001 8.7 174.9 8 177.3 9.1 C 178.8 9.8 180.39998 10.5 181.9 11.3 C 183.80002 12.3 185.7 13.4 187.7 14.3 C 191.4 15.9 195.09999 17.1 198.79999 18.7 C 201.1 19.7 203.4 21 204.6 23.4 C 206.2 26.3 207.80002 29.2 209.3 32.2 C 209.6 32.9 210 33.1 210.7 33 C 212 32.9 213.3 32.9 214.6 32.9 C 216.30002 32.9 217.9 33.7 218.3 35.1 C 218.8 36.9 220 37.9 221.1 39 C 225.9 43.6 230.9 48.2 235.8 52.8 C 236 53 236.3 53.3 236.50002 53.6 C 239.5 60 241.20001 66.7 241.6 73.7 C 242 82 241.1 90.19999 240.19998 98.4 C 239.80002 102 239 105.49999 238.3 109.1 C 238 108.3 237.9 108.3 237.8 108.3 Z M 169.6 48.300003 C 172.6 47.099995 175.69998 46.900005 178.9 47 C 180.3 47.099995 181.8 47.8 183.1 48.4 C 186 49.699997 188.8 51.3 191.69998 52.4 C 194.9 53.6 197.2 55.699997 199.5 58 C 199.69998 58.2 200 58.2 200.30002 58.300003 C 200.70001 58.4 201.3 58.4 201.6 58.6 C 203.09999 59.9 203.2 60.300003 201.9 61.699997 C 200.8 63 200.9 63.8 201.7 65.2 C 203.89998 68.6 205.1 72.4 206.1 76.2 C 206.6 78 207.4 79.8 208.1 82 C 209.4 80.1 210.5 78.4 211.7 76.8 C 212.6 75.5 213.5 74.2 214.2 72.8 C 214.5 72.3 214.5 71.6 214.4 71.1 C 213.2 65.8 211.89998 60.4 210.59999 55.099995 C 209.7 51.3 208.9 47.6 207.9 43.8 C 207.80002 43.2 207.29999 42.6 206.9 42.2 C 205.40001 40.9 203.8 39.7 202.2 38.6 C 201.6 38.2 200.70001 38 200.1 38.2 C 199 38.5 197.8 39 196.90001 39.7 C 193.9 42 190.6 42.6 186.9 42.3 C 185.6 42.2 184.19998 42.3 182.9 42.5 C 180.3 42.9 177.7 43.3 175.1 42.8 C 174.2 42.6 173.2 42.6 172.2 42.5 C 171.3 42.4 170.5 42.7 170 43.6 C 169 45.5 167.5 46.900005 165.5 47.8 C 164.8 48.1 164.2 48.8 163.5 49.3 C 163.6 49.5 163.7 49.6 163.8 49.8 C 165.8 49.4 167.8 49 169.6 48.300003 Z M 163.3 25.8 C 165.7 25.1 168.1 24.6 170.7 24 C 170.6 24.7 170.6 25.1 170.5 25.500002 C 170.6 25.500002 170.7 25.6 170.8 25.6 C 173.6 24.8 176.30002 24 179.09999 23.3 C 180.8 22.9 182 22 182.7 20.4 C 182.79999 20.1 183 19.8 183.29999 19.4 C 183.9 19.7 184.4 20.1 185 20.5 C 185.20001 20 185.3 19.6 185.4 19.1 C 185.8 19.6 186.1 20.1 186.5 20.5 C 187.09999 21.1 187.49998 22.1 188.6 21.500002 C 188.7 21.4 189.1 21.7 189.3 21.9 C 192.4 25.8 196.10002 28.9 200 31.9 C 200.19998 32.1 200.5 32.3 200.8 32.3 C 203.09999 32.3 205.3 32.3 207.69998 32.2 C 204.6 28.8 202.59999 24.6 197.9 22.8 C 191.2 20.2 184.70001 17.2 178.1 14.6 C 175.69998 13.6 173.3 13.3 170.7 15 C 169 16.1 167.8 17.4 166.4 18.8 C 164.6 20.6 162.6 22.2 160.6 23.9 C 159.9 24.499998 159.2 25 158.3 25.6 C 160.3 26.2 161.8 26.3 163.3 25.8 Z M 188.50002 28.9 C 187.7 28.4 187 27.9 187.09999 26.8 C 187.09999 26.6 186.9 26.4 186.8 26.1 C 185.7 27 184.6 27.9 183.5 28.7 C 183 29.1 182.4 29.4 181.8 29.500002 C 177.9 30 174 30.4 170.1 31 C 168.9 31.2 167.7 32 166.6 32.5 C 167 33.4 167.3 34.2 167.7 34.8 C 168.1 35.6 168.7 35.9 169.6 35.3 C 171 34.4 172.39998 33.5 174 32.5 C 174 32.9 174.1 33 174 33 C 172.8 33.9 172.8 35.2 172.6 36.5 C 179.7 35.3 186.9 34 194.4 32.7 C 192.19998 31.4 190.4 30.2 188.50002 28.9 Z M 159 35.7 C 156.1 39.1 154.1 42.9 152.6 47 C 151.9 48.900005 151.1 50.8 150.4 52.7 C 150.2 53.099995 150.2 53.5 150.1 53.9 C 150.2 54 150.3 54 150.4 54.1 C 152 51.699997 153.6 49.3 155.2 46.8 C 155.6 46.1 156.2 45.4 156.5 44.7 C 157.2 43 158.7 42.1 160 41 C 162.3 38.9 162.9 36.1 163.3 33.2 C 161.3 33.3 160.2 34.4 159 35.7 Z"/>
                                                        </g>
                                                    </g>
                                                </g>
                                            </g>
                                        </g>
                                    </g>
                                </g>
                            </g>
                        </g>
                    </g>
                </g>
            </g>
        </g>
    </g>
</svg>
