<svg width="196.83" height="196.83" xmlns="http://www.w3.org/2000/svg">
    <g id="Layer_2">
        <g id="Layer_1-2">
            <g id="PAGE1">
                <g id="ROUND_BLACK">
                    <path fill="#000000" stroke="none" d="M 196.82 98.41 C 196.82 152.76035 152.76035 196.82 98.41 196.82 C 44.059658 196.82 0 152.76035 0 98.41 C -0 44.059658 44.059658 0 98.41 0 C 152.76035 0 196.82 44.059658 196.82 98.41 Z"/>
                    <path fill="#f271b5" stroke="none" d="M 166.59 98.41 L 166.59 88.52 C 166.59 87.99 166.59 87.99 166.08 87.98 L 161.08 87.98 C 160.88347 87.99006 160.68654 87.99006 160.49 87.98 C 160.14691 87.97767 159.8196 87.83552 159.58368 87.586395 C 159.34778 87.33728 159.22365 87.00271 159.24 86.66 L 159.24 86.24 C 159.24 85.34 159.24 84.44 159.24 83.54 C 159.17 82.38 159.65 81.63 161.06 81.77 L 179.56 81.77 C 180.239 81.762695 180.80742 82.283005 180.86 82.96 C 180.86908 83.09985 180.86908 83.24015 180.86 83.38 L 180.86 86.67 C 180.87128 87.38591 180.30568 87.97823 179.59 88 C 179.39 88 179.2 88 179 88 L 173.85 88 C 173.77853 87.994194 173.70801 88.01936 173.65636 88.0691 C 173.6047 88.118835 173.57689 88.18836 173.58 88.26 C 173.58 88.49 173.58 88.71 173.58 88.93 Q 173.58 98.439995 173.58 107.93 C 173.58 108.93 173.48 108.85 174.46 108.85 L 179.53 108.85 C 179.88792 108.844604 180.23293 108.98373 180.48698 109.23591 C 180.74106 109.48809 180.88274 109.83204 180.87999 110.189995 L 180.87999 113.48001 C 180.87999 114.62 180.41 115.079994 179.3 115.079994 L 161.22 115.079994 C 160.97 115.079994 160.71 115.079994 160.46 115.079994 C 159.80783 115.05897 159.28557 114.53232 159.27 113.87999 C 159.27 112.61 159.27 111.35 159.27 110.08 C 159.2854 109.45951 159.75377 108.94429 160.37 108.87 C 160.59302 108.85328 160.81699 108.85328 161.04 108.87 L 165.69 108.87 C 165.92 108.87 166.14 108.87 166.36 108.87 C 166.47218 108.870125 166.56465 108.78206 166.57 108.670006 L 166.57 108.670006 C 166.57 108.41999 166.57 108.16 166.57 107.91 Q 166.59 103.14001 166.59 98.41 Z"/>
                    <path fill="#f271b5" stroke="none" d="M 130 100.24 L 130 86.73 C 129.98862 86.37214 130.12648 86.02564 130.3806 85.77343 C 130.63472 85.5212 130.98224 85.38594 131.34 85.4 C 131.79 85.4 132.24 85.4 132.69 85.4 L 133.37 85.4 C 133.45392 85.40602 133.53632 85.3753 133.59581 85.3158 C 133.65529 85.25631 133.68602 85.17392 133.68 85.09 L 133.68 84.33 C 133.68 83.88 133.68 83.43 133.68 82.98 C 133.67929 82.63679 133.82085 82.30863 134.071 82.07365 C 134.32115 81.83865 134.6575 81.71786 135 81.74 C 135.2 81.74 135.39 81.74 135.59 81.74 L 150.38 81.74 C 150.7175 81.72874 151.04457 81.85787 151.28336 82.09665 C 151.52213 82.335434 151.65126 82.6625 151.64 83 C 151.64 83.48 151.64 84 151.64 84.43 C 151.64 84.86 151.46 85.29 151.76 85.56 C 152.06 85.83 152.46 85.63 152.82 85.64 C 153.18 85.65 153.82 85.64 154.26 85.64 C 154.60355 85.623024 154.9385 85.75068 155.18362 85.99199 C 155.42874 86.2333 155.5616 86.56622 155.55 86.91 C 155.55 87.14001 155.55 87.36 155.55 87.590004 L 155.55 113.78 C 155.55565 114.122025 155.42088 114.45142 155.17712 114.69141 C 154.93336 114.93138 154.6019 115.06099 154.26 115.05 C 153.33 115.05 152.4 115.05 151.47 115.05 C 151.19 115.05 150.91 115.05 150.62 115.05 C 149.93765 115.051315 149.37231 114.52103 149.33 113.84 C 149.31746 113.61351 149.31746 113.38648 149.33 113.16001 L 149.33 104.16 C 149.33 103.84 149.27 103.8 148.91 103.78001 L 136.6 103.78001 C 136.53104 103.7773 136.46382 103.80213 136.41316 103.84902 C 136.36252 103.89592 136.3326 103.96103 136.33 104.03001 C 136.33 104.03001 136.33 104.03001 136.33 104.03001 C 136.33 104.26 136.33 104.48 136.33 104.71 L 136.33 113.71 C 136.34201 114.06805 136.20224 114.41451 135.94513 114.663994 C 135.68803 114.913475 135.33752 115.04278 134.98 115.020004 C 134.53 115.020004 134.08 115.020004 133.63 115.020004 C 132.93 115.020004 132.22 115.020004 131.52 115.020004 C 131.11842 115.07061 130.71617 114.93128 130.43193 114.64313 C 130.14769 114.354965 130.0139 113.95085 130.07 113.549995 C 130.07 111.07 130.07 108.55 130.07 106.12001 Q 130 103.2 130 100.24 Z M 143 96.9 L 149.07 96.9 C 149.21547 96.90579 149.33932 96.7952 149.35 96.65 L 149.35 96.65 C 149.35 96.47001 149.35 96.31 149.35 96.14 L 149.35 88.7 C 149.35 87.93 149.35 87.96 148.61 87.96 L 136.89 87.96 C 136.7 87.96 136.57 88.04 136.56 88.25 L 136.56 88.76 Q 136.56 92.43 136.56 96.09999 C 136.56 96.28 136.56 96.44 136.56 96.61 C 136.5599 96.755295 136.6748 96.87462 136.82 96.88 L 143 96.88 Z"/>
                    <path fill="#fcfdfd" stroke="none" d="M 93.22 111.52 L 93.22 113.72 C 93.239525 114.06358 93.11653 114.40002 92.88 114.65 C 92.67586 114.88823 92.38326 115.03274 92.07 115.05 L 76.45 115.05 C 75.79735 115.03384 75.27519 114.50283 75.27 113.85 C 75.27 113.26 75.27 112.670006 75.27 112.08 C 75.30528 111.802635 75.28832 111.52112 75.22 111.25 C 75.03651 111.17481 74.836105 111.15062 74.64 111.18 C 74.05 111.18 73.46 111.18 72.87 111.18 C 72.45765 111.23997 72.04103 111.10322 71.74443 110.81054 C 71.44783 110.517876 71.305534 110.10311 71.36 109.69 C 71.36714 109.57678 71.36714 109.46321 71.36 109.35 L 71.36 87.22 C 71.36 86.99 71.36 86.76999 71.36 86.54 C 71.410194 85.92429 71.91269 85.443275 72.53 85.42 C 72.75 85.42 72.98 85.42 73.21 85.42 L 74.86 85.42 C 74.98946 85.248695 75.04362 85.032074 75.01 84.82 L 75.01 83.13 C 74.989296 82.69844 75.17489 82.282715 75.51 82.01 C 75.69906 81.83707 75.94389 81.73771 76.2 81.73 L 91.72 81.73 C 92.298294 81.73717 92.787704 82.15907 92.88 82.73 C 92.90005 82.95288 92.90005 83.17712 92.88 83.4 L 92.88 85.49 C 93.07 85.67 93.27 85.61 93.46 85.61 L 95.32 85.61 C 96.32 85.61 96.8 86.1 96.81 87.13 C 96.81 88.82 96.81 90.509995 96.81 92.2 C 96.87751 92.77786 96.567215 93.33398 96.04 93.58 C 95.831985 93.66964 95.60626 93.710686 95.38 93.7 C 94.31 93.7 93.240005 93.7 92.16999 93.7 C 91.79695 93.731544 91.42919 93.59556 91.166405 93.3289 C 90.90361 93.062256 90.77301 92.69255 90.81 92.32 C 90.81 91.32 90.81 90.24 90.81 89.19 L 90.81 88.3 C 90.81 88.02 90.75 87.98 90.46 87.96999 L 77.84 87.96999 C 77.7869 87.964424 77.73378 87.98031 77.69246 88.014114 C 77.65114 88.04792 77.625046 88.09685 77.62 88.15001 L 77.62 88.15001 C 77.62 88.350006 77.62 88.53999 77.62 88.73999 L 77.62 108 C 77.62 108.9 77.54 108.81 78.43 108.81 L 90 108.81 C 90.31 108.81 90.37001 108.76 90.37001 108.48 L 90.37001 103.92 C 90.37001 103.72 90.28 103.61 90.06999 103.61 L 84.83 103.61 C 84.575676 103.61622 84.32131 103.59948 84.07 103.56 C 83.507614 103.44578 83.095245 102.96331 83.07 102.38999 C 83.07 102.28 83.07 102.16 83.07 102.05001 L 83.07 98.86 C 83.05999 98.72018 83.05999 98.57981 83.07 98.439995 C 83.16195 97.930626 83.56062 97.53195 84.07 97.44 C 84.32276 97.41588 84.57724 97.41588 84.83 97.44 L 95.1 97.44 C 95.2965 97.428635 95.4935 97.428635 95.69 97.44 C 96.30374 97.49245 96.796425 97.96842 96.87 98.58 C 96.88423 98.776405 96.88423 98.973595 96.87 99.17 L 96.87 109.99 C 96.91673 110.39055 96.78061 110.79084 96.49935 111.07984 C 96.21811 111.36885 95.82167 111.51582 95.42 111.48 C 94.97 111.48 94.51999 111.48 94.06999 111.48 C 93.78724 111.42959 93.49677 111.44326 93.22 111.52 Z"/>
                    <path fill="#fcfdfd" stroke="none" d="M 107 85.43 C 107.84999 85.43 108.61 85.43 109.37 85.43 C 109.8953 85.41725 110.36677 85.75054 110.53 86.25001 C 110.592606 86.46756 110.61961 86.69382 110.61 86.92 C 110.61 87.68 110.61 88.44 110.61 89.21 C 110.61 89.54 110.67 89.6 111 89.61001 C 111.649994 89.61001 112.3 89.61001 112.94 89.61001 C 113.13622 89.591125 113.33379 89.591125 113.53 89.61001 C 114.078964 89.712975 114.489624 90.17292 114.53 90.73 C 114.53 91.12 114.53 91.52 114.53 91.91 C 114.47091 92.40858 114.50483 92.91379 114.63 93.4 C 115.09936 93.47545 115.57595 93.49558 116.05 93.46 C 116.39 93.46 116.729996 93.46 117.05 93.46 C 117.40946 93.43972 117.760635 93.572975 118.016174 93.8266 C 118.271706 94.08024 118.40758 94.43039 118.38999 94.79 C 118.38999 95.44 118.38999 96.09 118.38999 96.729996 C 118.38999 97.08 118.38999 97.13 118.759995 97.12 C 120.21 97.12 119.96 97.37 119.96 95.94 C 119.96 91.83001 119.96 87.72 119.96 83.6 C 119.96 83.37 119.96 83.15 119.96 82.92 C 119.96786 82.5911 120.10611 82.27881 120.3443 82.051865 C 120.58249 81.82493 120.90111 81.70195 121.23001 81.71 C 122.08 81.71 122.92 81.71 123.77 81.71 C 124.14 81.71 124.5 81.71 124.87 81.71 C 125.229095 81.682076 125.58353 81.80556 125.847534 82.050575 C 126.11154 82.295586 126.261086 82.63982 126.26 83 C 126.26 83.18 126.26 83.34 126.26 83.51 L 126.26 113.34 C 126.26 113.52 126.26 113.68001 126.26 113.85 C 126.24364 114.53252 125.6827 115.07565 125 115.07 Q 123.14001 115.07 121.28 115.07 C 120.93504 115.07944 120.60223 114.942345 120.364 114.69267 C 120.12577 114.443016 120.00441 114.10413 120.03001 113.76 C 120.03001 113.2 120.03001 112.63 120.03001 112.07 L 120.03001 104.47001 C 120.03001 104.27 120.03001 104.08 120.03001 103.88 C 120.02465 103.76242 119.927704 103.669876 119.81 103.67 C 119.36 103.67 118.91 103.67 118.46 103.67 C 118.15025 103.68781 117.83975 103.68781 117.53 103.67 C 116.93925 103.62751 116.467834 103.16035 116.41999 102.57001 C 116.40343 102.34698 116.40343 102.12303 116.41999 101.9 L 116.41999 99.73 C 116.42849 99.66891 116.4121 99.60697 116.3745 99.55808 C 116.3369 99.50919 116.281235 99.477455 116.21999 99.47 L 114.22 99.47 C 113.99709 99.48963 113.7729 99.48963 113.549995 99.47 C 112.94252 99.37324 112.491714 98.85503 112.48 98.24 C 112.48 97.54 112.48 96.83 112.48 96.13 C 112.48 95.64 112.48 95.63 111.95 95.63 L 110 95.63 C 109.74565 95.64366 109.491776 95.595634 109.26 95.49 C 108.80617 95.29764 108.510994 94.85293 108.51 94.36 C 108.51 93.77 108.51 93.17999 108.51 92.59 C 108.51 92.45 108.51 92.31 108.51 92.16999 C 108.51274 92.11525 108.49289 92.06177 108.45508 92.022064 C 108.41727 91.98237 108.36482 91.95993 108.31 91.96 L 107.2 91.96 C 107.08954 91.96 107 92.04954 107 92.16 L 107 92.16 C 107 92.409996 107 92.670006 107 92.920006 L 107 113.10999 C 107 113.36001 107 113.619995 107 113.869995 C 106.994736 114.19888 106.85903 114.5122 106.62272 114.741005 C 106.38641 114.9698 106.06888 115.095345 105.74 115.08999 Q 103.84 115.08999 101.94 115.08999 C 101.28499 115.09008 100.75092 114.56492 100.73999 113.91 C 100.73999 113.71 100.73999 113.52 100.73999 113.32 L 100.73999 83.56 C 100.72748 83.3335 100.72748 83.10649 100.73999 82.88 C 100.78804 82.22737 101.34623 81.73119 102 81.76 Q 103.94 81.76 105.89 81.76 C 106.52138 81.83116 106.99892 82.36463 107 83 C 107 83.33 107 83.68 107 84 C 107 84.32 107 84.88 107 85.43 Z"/>
                    <path fill="#fcfdfd" stroke="none" d="M 41.32 98.31 L 41.32 83.69 C 41.32 83.46 41.32 83.24 41.32 83.01 C 41.31699 82.66525 41.45538 82.33432 41.702915 82.094345 C 41.95045 81.85437 42.285507 81.7263 42.63 81.74 Q 44.45 81.74 46.26 81.74 C 46.616875 81.716125 46.966667 81.84751 47.219578 82.100426 C 47.472485 82.35333 47.603874 82.70313 47.58 83.06 C 47.58 83.68 47.58 84.29 47.58 84.92 C 47.58 85.39 47.58 85.41 48.049995 85.42 L 49.82 85.42 C 50.206127 85.374466 50.591843 85.50831 50.866764 85.78323 C 51.141693 86.05816 51.275536 86.44387 51.23 86.83 C 51.23 87.56 51.23 88.28999 51.23 89.03 C 51.21827 89.16468 51.315727 89.284294 51.45 89.299995 L 56 89.299995 C 56.740005 89.299995 56.72 89.299995 56.71 88.53999 L 56.71 87 C 56.69774 86.83022 56.69774 86.659775 56.71 86.49 C 56.783707 85.877426 57.293343 85.41026 57.91 85.39 C 58.64 85.39 59.37 85.39 60.109997 85.39 C 60.6 85.39 60.620003 85.39 60.620003 84.86 C 60.620003 84.33 60.620003 83.86 60.620003 83.34 C 60.618107 83.114746 60.641586 82.89 60.69 82.67 C 60.80185 82.12617 61.27491 81.73195 61.83 81.72 C 63.099995 81.72 64.37 81.72 65.63 81.72 C 66.2807 81.73032 66.80875 82.249565 66.83 82.9 C 66.83 83.12 66.83 83.35 66.83 83.58 L 66.83 113.240005 C 66.83 113.42 66.83 113.58 66.83 113.74999 C 66.84118 114.45866 66.27855 115.0436 65.57 115.06 C 65.06 115.06 64.57 115.06 64.05 115.06 C 63.350002 115.06 62.64 115.06 61.94 115.06 C 61.592556 115.065346 61.25722 114.93243 61.00779 114.6905 C 60.758354 114.44857 60.615265 114.11745 60.61 113.77 C 60.61 113.77 60.61 113.77 60.61 113.77 L 60.61 92.62 C 60.61 92.18 60.61 92.16999 60.109997 92.16 L 59.6 92.16 C 59.319996 92.16 59.250004 92.24 59.24 92.51 C 59.23 92.78 59.24 93.299995 59.24 93.69 C 59.24 93.92 59.24 94.14 59.24 94.37001 C 59.228333 94.99013 58.75678 95.504555 58.14 95.57 C 57.943615 95.584816 57.746387 95.584816 57.55 95.57 C 55.319996 95.57 53.099995 95.57 50.88 95.57 C 49.78 95.57 49.05 95.04 49.13 93.84 C 49.13 93.45 49.13 93.05 49.13 92.659996 C 49.13 91.76 49.2 91.88 48.29 91.87 L 47.87 91.87 C 47.80467 91.86449 47.739918 91.88595 47.690807 91.92938 C 47.641697 91.97283 47.6125 92.03448 47.61 92.09999 L 47.61 92.09999 C 47.61 92.350006 47.61 92.61 47.61 92.85999 L 47.61 113.1 C 47.61 113.35 47.61 113.61001 47.61 113.86 C 47.599678 114.5107 47.080433 115.03874 46.429996 115.06 C 45.84 115.06 45.250004 115.06 44.66 115.06 C 44.07 115.06 43.31 115.06 42.66 115.06 C 41.95434 115.03868 41.390373 114.465904 41.38 113.76 L 41.38 113.08 Q 41.32 105.7 41.32 98.31 Z"/>
                    <path fill="#fcfdfd" stroke="none" d="M 23.340002 98.31 L 23.340002 88.93 C 23.340002 88.68 23.340002 88.41999 23.340002 88.16999 C 23.342737 88.12755 23.328453 88.08575 23.300306 88.053856 C 23.27216 88.02196 23.232466 88.00257 23.19 88 C 22.99347 87.98967 22.796532 87.98967 22.6 88 L 17.84 88 C 17.613543 88.01377 17.386457 88.01377 17.16 88 C 16.475582 87.94669 15.959789 87.35531 16 86.67 C 16 85.46 16 84.25 16 83.04 C 15.9934845 82.683525 16.137112 82.34073 16.395788 82.09537 C 16.654465 81.850006 17.004366 81.72468 17.36 81.75 L 35.68 81.75 C 35.91 81.75 36.13 81.75 36.36 81.75 C 37.008717 81.76845 37.53916 82.27302 37.59 82.92 C 37.59455 83.00327 37.59455 83.08673 37.59 83.17 C 37.59 84.3 37.59 85.42 37.59 86.55 C 37.644985 86.941666 37.515823 87.336754 37.240097 87.6203 C 36.96437 87.90385 36.573048 88.044 36.18 88 C 34.6 88 33.03 88 31.450003 88 C 31.1 88 30.65 87.84999 30.390001 88.09 C 30.13 88.33 30.290003 88.78 30.290003 89.15 L 30.290003 108.41999 C 30.290003 108.88 30.290003 108.89 30.769999 108.89 L 35.77 108.89 C 35.99313 108.87656 36.21687 108.87656 36.44 108.89 C 37.08069 108.955185 37.57318 109.48622 37.59 110.130005 L 37.59 113.59 C 37.59 114.59 37.12 115.06 36.09 115.08999 L 18 115.08999 C 17.75 115.08999 17.49 115.08999 17.24 115.08999 C 16.540098 115.052574 15.9936495 114.47087 16 113.77 L 16 113 C 16 112.07 16 111.14001 16 110.21 C 15.980171 109.8515 16.111824 109.50117 16.362839 109.24444 C 16.613853 108.98772 16.96115 108.84823 17.32 108.85999 C 17.57 108.85999 17.83 108.85999 18.08 108.85999 L 22.48 108.85999 C 22.703192 108.871315 22.92681 108.871315 23.150002 108.85999 C 23.207472 108.860054 23.262459 108.83657 23.302143 108.795006 C 23.341827 108.753426 23.362736 108.69742 23.36 108.64 C 23.36 108.409996 23.36 108.19 23.36 107.96999 Z"/>
                </g>
            </g>
        </g>
    </g>
</svg>
