<svg width="256" height="256" xmlns="http://www.w3.org/2000/svg">
    <defs>
        <linearGradient id="paint0_linear_636_221" x1="72.7431" y1="127.5" x2="175.517" y2="127.5" gradientUnits="userSpaceOnUse">
            <stop offset="0" stop-color="#1061f0"/>
            <stop offset="0.345" stop-color="#643f9c"/>
            <stop offset="0.595" stop-color="#ab2255"/>
            <stop offset="0.975" stop-color="#ef0711"/>
        </linearGradient>
        <linearGradient id="paint1_linear_636_221" x1="72.7431" y1="127.5" x2="175.517" y2="127.5" gradientUnits="userSpaceOnUse">
            <stop offset="0" stop-color="#1061f0"/>
            <stop offset="0.345" stop-color="#643f9c"/>
            <stop offset="0.595" stop-color="#ab2255"/>
            <stop offset="0.975" stop-color="#ef0711"/>
        </linearGradient>
        <linearGradient id="paint2_linear_636_221" x1="72.7431" y1="127.5" x2="175.517" y2="127.5" gradientUnits="userSpaceOnUse">
            <stop offset="0" stop-color="#1061f0"/>
            <stop offset="0.345" stop-color="#643f9c"/>
            <stop offset="0.595" stop-color="#ab2255"/>
            <stop offset="0.975" stop-color="#ef0711"/>
        </linearGradient>
    </defs>
    <path fill="#000000" stroke="none" d="M 0 0 L 256 0 L 256 256 L 0 256 Z"/>
    <path fill="url(#paint0_linear_636_221)" stroke="none" d="M 136.336 127.5 C 136.336 99.1033 158.913 76 186.674 76 C 214.43399 76 237 99.10341 237 127.5 C 237 155.897 214.423 179 186.674 179 C 158.924 179 136.347 155.897 136.347 127.5 L 136.336 127.5 Z M 217.93599 127.5 C 217.93599 109.86299 203.90802 95.509 186.674 95.509 C 169.439 95.509 155.412 109.86299 155.412 127.5 C 155.412 145.137 169.439 159.491 186.674 159.491 C 203.90802 159.491 217.93599 145.137 217.93599 127.5 Z"/>
    <path fill="url(#paint1_linear_636_221)" stroke="none" d="M 20 127.5 C 20 99.1033 42.5793 76 70.3319 76 C 98.0845 76 120.664 99.1033 120.664 127.5 C 120.664 155.897 98.0845 179 70.3319 179 C 42.5793 179 20 155.897 20 127.5 Z M 101.609 127.5 C 101.609 109.86299 87.5799 95.509 70.3432 95.509 C 53.1066 95.509 39.0778 109.86299 39.0778 127.5 C 39.0778 145.137 53.1066 159.491 70.3432 159.491 C 87.5799 159.491 101.609 145.137 101.609 127.5 Z"/>
    <path fill="url(#paint2_linear_636_221)" stroke="none" d="M 145.981 137.8 L 145.981 117.2 L 109.211006 117.2 L 109.211006 137.8 L 145.981 137.8 Z"/>
</svg>
