<svg width="150" height="150" xmlns="http://www.w3.org/2000/svg">
    <defs>
        <linearGradient id="linear-gradient" x1="23.92" y1="126.65" x2="125.23" y2="25.34" gradientUnits="userSpaceOnUse" gradientTransform="matrix(0 1 -1 0 150.57 -0.57)">
            <stop offset="0.04" stop-color="#ffc100"/>
            <stop offset="1" stop-color="#00c800"/>
        </linearGradient>
    </defs>
    <g transform="matrix(0 -1 1 0 0.57 150.57)">
        <path fill="url(#linear-gradient)" stroke="none" d="M 75.57 3.18 L 75.57 3.18 C 115.23509 3.18 147.39 35.334908 147.39 75 L 147.39 74.99999 C 147.39 114.665085 115.23509 146.81999 75.57 146.81999 L 75.57 146.81999 C 35.904907 146.81999 3.75 114.665085 3.75 74.99999 L 3.75 75 C 3.7499998 35.334908 35.904907 3.18 75.57 3.18 Z"/>
    </g>
    <path fill="#160f29" stroke="none" d="M 75.57 12.5 L 75.57001 12.5 C 110.0878 12.5 138.07 40.482204 138.07 75 L 138.07 75 C 138.07 109.51781 110.0878 137.5 75.57001 137.5 L 75.57 137.5 C 41.052204 137.5 13.07 109.51781 13.07 75 L 13.07 75 C 13.07 40.482204 41.052204 12.5 75.57 12.5 Z"/>
    <g>
        <g transform="matrix(0.7071068 -0.7071068 0.7071068 0.7071068 -47.44 82.26)">
            <path fill="#ffffff" stroke="none" d="M 64.97 87.79 L 86.18 87.79 L 86.18 109 L 64.97 109 Z"/>
        </g>
        <path fill="#ffffff" stroke="none" d="M 120.57 68.4 L 105.57 53.4 L 90.57001 68.4 L 75.57 53.4 L 45.570004 53.4 L 30.57 68.4 L 45.570004 83.4 L 60.57 68.4 L 75.57 83.4 L 105.57 83.4 L 105.57 83.4 L 105.57 83.4 L 120.57 68.4 Z"/>
    </g>
</svg>
