<svg width="256" height="256" xmlns="http://www.w3.org/2000/svg">
    <defs>
        <clipPath id="clip0_5337_17064">
            <path fill="#000000" stroke="none" transform="matrix(1 0 0 1 3 0)" d="M 0 0 L 249.311 0 L 249.311 256 L 0 256 Z"/>
        </clipPath>
    </defs>
    <g clip-path="url(#clip0_5337_17064)">
        <path fill="#14c8ff" stroke="none" d="M 240.838 70.1004 L 165.37 7.16977 C 157.508 0.609282 143.182 -1.91743 133.549 1.5584 L 41.0804 34.8739 C 31.448 38.3497 22.1043 49.3865 20.3343 59.4228 L 3.35917 155.701 C 1.58918 165.737 6.56566 179.30098 14.4536 185.861 L 89.947296 248.82402 C 97.8096 255.384 112.135994 257.911 121.769 254.435 L 214.244 221.094 C 223.876 217.618 233.22 206.582 234.99 196.545 L 251.965 100.267 C 253.703 90.25001 248.726 76.6673 240.838 70.1004 Z M 162.177 113.33 L 126.87301 113.318 L 120.319 147.383 C 118.28 157.952 117.722 163.89 128.323 163.89 L 152.173 163.89 L 147.17 185.51501 L 118.658 185.51501 C 101.792 185.51501 90.8195 169.361 95.206 146.594 C 96.931 137.648 102.158 113.40101 102.158 113.40101 L 86.715195 113.369 L 89.9601 96.4962 C 113.534 87.13971 124.225006 68.0226 124.225006 68.0226 L 135.659 68.0226 L 130.631 93.82201 L 165.941 93.7643 L 162.177 113.33 Z"/>
        <path fill="#ffffff" stroke="none" d="M 120.319 147.383 C 118.28 157.952 117.722 163.89 128.323 163.89 L 152.173 163.89 L 147.17 185.51501 L 118.658 185.51501 C 101.792 185.51501 90.8195 169.361 95.206 146.594 C 96.9311 137.648 102.158 113.40101 102.158 113.40101 L 86.715195 113.369 L 89.960205 96.4962 C 113.534 87.13971 124.225006 68.0226 124.225006 68.0226 L 135.659 68.0226 L 130.631 93.82201 L 165.941 93.7643 L 162.177 113.33 L 126.87301 113.318 L 120.319 147.383 Z"/>
    </g>
</svg>
