<svg width="256" height="256" xmlns="http://www.w3.org/2000/svg">
    <g id="Artboard">
        <path id="Oval" fill="#000000" fill-rule="evenodd" stroke="none" d="M 256 128 C 256 198.69243 198.69243 256 128 256 C 57.307552 256 0 198.69243 0 128 C 0 57.307552 57.307552 0 128 0 C 198.69243 0 256 57.307552 256 128 Z"/>
        <g id="VitaDAO-Icon" transform="matrix(1 0 0 1 38 62)">
            <path id="Path" fill="#ffdd35" stroke="none" d="M 42.221897 5.1160336 L 43.750957 6.1924386 C 71.9067 26.220634 109.60588 26.15005 137.7089 6.033625 L 137.7089 6.033625 C 160.9611 -10.6241865 190.47014 16.162422 176.3044 41.06091 L 127.91941 126.04398 C 111.25796 155.31868 69.21767 155.31868 52.556217 126.04398 L 3.6966846 40.196255 C -10.451489 15.350706 18.952106 -11.435902 42.221897 5.1160336 Z"/>
        </g>
    </g>
</svg>
