<svg width="24" height="24" xmlns="http://www.w3.org/2000/svg">
    <defs>
        <clipPath id="_clip1">
            <path fill="#000000" clip-rule="evenodd" stroke="none" d="M 190.107 167.501 L 369.27896 167.501 L 369.27896 328.29102 L 190.107 328.29102 Z"/>
        </clipPath>
    </defs>
    <g transform="matrix(1 0 0 1 -26.7688 -0.118677)">
        <g id="Gem-Co-Outline-3" transform="matrix(0.13395 0 0 0.149263 1.3041 -24.883)">
            <path fill="none" stroke="none" visibility="hidden" d="M 190.107 167.501 L 369.27896 167.501 L 369.27896 328.29102 L 190.107 328.29102 Z"/>
            <g clip-path="url(#_clip1)">
                <g transform="matrix(7.4655004 0 0 6.6995697 -9.73573 166.706)">
                    <path fill="#000000" fill-rule="evenodd" stroke="none" d="M 38.782 0.164 C 45.396996 0.164 50.769005 5.535 50.769005 12.151 C 50.769005 18.767 45.396996 24.137999 38.782 24.137999 C 32.166 24.137999 26.793999 18.767 26.793999 12.151 C 26.793999 5.535 32.166 0.164 38.782 0.164 Z M 28.230001 9.797 C 28.066 10.545 27.98 11.322 27.98 12.119 C 27.98 12.993 28.084 13.843 28.28 14.657 C 29.008 14.779 29.683 14.934001 30.315 15.139 C 30.721 14.222001 30.923 13.317999 30.923 12.104 C 30.923 10.913 30.755001 10.068 30.416 9.253 C 29.739 9.484 29.013 9.658 28.230001 9.797 Z M 28.475 15.358 C 28.668 15.972 28.915 16.563 29.208998 17.124 C 29.522 16.627 29.793 16.178 30.02 15.747001 C 29.558998 15.607 29.054998 15.488 28.475 15.358 Z M 29.612999 17.828 C 30.493 19.238 31.689999 20.431 33.103 21.307 C 33.697 20.885 34.277 20.52 34.862 20.221 C 34.501 19.298 34.006 18.523 33.156 17.673 C 32.293 16.81 31.562 16.328 30.72 15.99 C 30.416 16.602 30.044 17.208 29.612999 17.828 Z M 33.732 21.668 C 34.29 21.964 34.878 22.213 35.488 22.408 C 35.357 21.834 35.23 21.325 35.085 20.859 C 34.665 21.084 34.228 21.354 33.732 21.668 Z M 36.274 22.627 C 37.078 22.819 37.918 22.92 38.782 22.92 C 39.614 22.92 40.425 22.826 41.204 22.647 C 41.327 21.914 41.483 21.234 41.691 20.597 C 40.78 20.197 39.88 19.998 38.675 19.998 C 37.448 19.998 36.589 20.176 35.751 20.536 C 35.971 21.186 36.138 21.88 36.274 22.627 Z M 41.903 22.462 C 42.534 22.271 43.142002 22.024 43.719006 21.727 C 43.204 21.403 42.742 21.124 42.299 20.891 C 42.156 21.359 42.035 21.870998 41.903 22.462 Z M 44.426 21.328 C 45.86 20.446 47.073 19.239 47.961998 17.81 C 47.531 17.21 47.159 16.625 46.853 16.035 C 45.891 16.399 45.094997 16.897 44.219 17.773 C 43.362003 18.631 42.881 19.358 42.544 20.193 C 43.17 20.503 43.790005 20.884 44.426 21.328 Z M 48.321 17.187 C 48.621 16.624 48.872 16.032 49.07 15.415 C 48.485 15.547 47.968 15.674 47.495 15.817999 C 47.725 16.241 48.001 16.683 48.321 17.187 Z M 49.288 14.636 C 49.481003 13.828 49.583 12.985 49.583 12.119 C 49.583 11.277001 49.487003 10.457 49.304 9.67 C 48.545 9.548 47.841 9.393 47.185005 9.184 C 46.795 10.083 46.6 10.975 46.6 12.166 C 46.6 13.421999 46.787 14.292999 47.165 15.151 C 47.824 14.934001 48.529 14.769 49.288 14.636 Z M 49.119003 8.979 C 48.92 8.323 48.66 7.693 48.345 7.097 C 48.006 7.634 47.716995 8.113 47.477 8.574 C 47.963 8.718 48.499 8.842 49.119003 8.979 Z M 47.943 6.396 C 46.959003 4.826 45.582005 3.526 43.951 2.634 L 44.498 2.965 C 43.858 3.429 43.235 3.828 42.607 4.151 C 42.965004 5.045 43.456997 5.802 44.285 6.6310005 C 45.167 7.5130005 45.911 7.996 46.776 8.335 C 47.093 7.69 47.485 7.052 47.943 6.396 Z M 43.892 2.602 C 43.271 2.268 42.614 1.992 41.928 1.783 C 42.075 2.434 42.215 3 42.38 3.515 C 42.844 3.265 43.329 2.961 43.892 2.602 Z M 41.151 1.578 C 40.388 1.407 39.595 1.317 38.782 1.317 C 37.765 1.317 36.781 1.458 35.848 1.721 L 36.293 1.611 C 36.168 2.399 36.008 3.127 35.789 3.804 C 36.688 4.194 37.579 4.388 38.769 4.388 C 40.006 4.388 40.87 4.206 41.716 3.84 C 41.473 3.141 41.294 2.391 41.151 1.578 Z M 35.606 1.792 C 34.923 2.002 34.269 2.278 33.652 2.612 C 34.209 2.965 34.705 3.265 35.18 3.513 C 35.332 3.006 35.461 2.446 35.606 1.792 Z M 32.962 3.019 C 31.588999 3.9 30.427 5.083 29.572 6.474 C 30.029 7.112 30.420002 7.733 30.735003 8.361 C 31.643 8.001 32.409 7.508 33.248 6.669 C 34.118 5.799 34.6 5.063 34.938 4.212 C 34.281 3.889 33.63 3.488 32.962 3.019 Z M 29.214998 7.102 C 28.895002 7.709 28.632 8.351 28.432 9.019 C 29.054998 8.878 29.602 8.742 30.1 8.585 C 29.858 8.127 29.563 7.6510005 29.214998 7.102 Z M 31.036 9.018 C 31.436 9.988 31.653 10.991 31.656998 12.104 C 31.662 13.295 31.427 14.358 30.996002 15.387 C 31.989 15.792 32.87 16.354 33.676 17.154 C 34.513 17.985 35.096 18.894 35.518 19.915 C 36.51 19.496 37.534 19.268 38.675 19.264 C 39.859 19.259 40.917 19.491 41.94 19.917 C 42.345 18.932 42.904 18.056 43.699997 17.254 C 44.553 16.395 45.487003 15.803 46.541 15.379001 C 46.107 14.369001 45.87 13.328 45.866 12.166 C 45.862 10.997 46.088 9.951 46.504 8.94 C 45.488 8.533 44.588 7.966 43.766 7.15 C 42.948 6.338 42.372 5.452 41.953 4.459 C 40.952 4.886 39.92 5.118 38.769 5.122 C 37.6 5.126 36.554 4.901 35.543 4.485 C 35.137 5.4869995 34.573 6.376 33.767 7.188 C 32.943 8.017 32.045 8.597 31.036 9.018 Z"/>
                </g>
            </g>
        </g>
    </g>
</svg>
