<svg width="96" height="96" xmlns="http://www.w3.org/2000/svg">
    <path fill="#0b53bf" stroke="none" d="M 48 95 C 73.9574 95 95 73.9574 95 48 C 95 22.0426 73.9574 1 48 1 C 22.0426 1 1 22.0426 1 48 C 1 73.9574 22.0426 95 48 95 Z"/>
    <path fill="#ffffff" stroke="none" d="M 56.460896 13.7778 L 56.460896 19.8291 C 68.5341 23.471601 77.3759 34.6928 77.3759 47.9997 C 77.3759 61.3066 68.5341 72.5278 56.460896 76.1703 L 56.460896 82.2216 C 71.8534 78.4616 83.2509 64.5672 83.2509 47.9997 C 83.2509 31.4322 71.8534 17.5378 56.460896 13.7778 Z"/>
    <path fill="#ffffff" stroke="none" d="M 18.625 47.9997 C 18.625 34.6928 27.4669 23.471601 39.54 19.8291 L 39.54 13.7778 C 24.1475 17.5378 12.750001 31.4322 12.750001 47.9997 C 12.750001 64.5672 24.1475 78.4616 39.54 82.2216 L 39.54 76.1703 C 27.4669 72.5572 18.625 61.3066 18.625 47.9997 Z"/>
    <path fill="#ffffff" stroke="none" d="M 60.6319 54.5506 C 60.6319 42.5362 41.8025 47.4713 41.8025 40.8325 C 41.8025 38.4531 43.7119 36.9256 47.354397 36.9256 C 51.701897 36.9256 53.2 39.0406 53.670002 41.89 L 59.6625 41.89 C 59.1279 36.5426 56.0588 33.1662 50.938206 32.1604 L 50.938206 27.437498 L 45.063206 27.437498 L 45.063206 31.9918 C 39.4534 32.7062 35.9275 35.973 35.9275 40.8325 C 35.9275 52.9056 54.7863 48.3819 54.7863 54.903103 C 54.7863 57.3706 52.4069 59.0156 48.3825 59.0156 C 43.124405 59.0156 41.3913 56.695 40.745 53.4931 L 34.8994 53.4931 C 35.2781 59.3502 38.8897 63.0159 45.063206 63.930702 L 45.063206 68.5625 L 50.938206 68.5625 L 50.938206 63.9923 C 56.9633 63.2139 60.6319 59.708904 60.6319 54.5506 Z"/>
</svg>
