<svg width="2000" height="2000" xmlns="http://www.w3.org/2000/svg">
    <path fill="#2775ca" stroke="none" d="M 1000 2000 C 1554.17 2000 2000 1554.17 2000 1000 C 2000 445.83 1554.17 0 1000 0 C 445.83 0 0 445.83 0 1000 C 0 1554.17 445.83 2000 1000 2000 Z"/>
    <path fill="#ffffff" stroke="none" d="M 1275 1158.33 C 1275 1012.5 1187.5 962.50006 1012.5 941.67 C 887.5 925 862.49994 891.67 862.49994 833.3301 C 862.49994 774.99 904.17 737.50006 987.5 737.50006 C 1062.5 737.50006 1104.17 762.5 1125 825 C 1129.17 837.5 1141.67 845.82996 1154.17 845.82996 L 1220.83 845.82996 C 1237.5 845.82996 1250 833.3301 1250 816.67 L 1250 812.5 C 1233.33 720.8301 1158.33 650 1062.5 641.67 L 1062.5 541.67 C 1062.5 525 1050 512.5 1029.17 508.33 L 966.67 508.33 C 950 508.33 937.5 520.83 933.33 541.67 L 933.33 637.5 C 808.33 654.17 729.17 737.50006 729.17 841.67 C 729.17 979.17004 812.5 1033.33 987.5 1054.17 C 1104.17 1075 1141.67 1100 1141.67 1166.67 C 1141.67 1233.34 1083.33 1279.17 1004.17 1279.17 C 895.83 1279.17 858.33 1233.33 845.82996 1170.83 C 841.67 1154.17 829.17 1145.83 816.67 1145.83 L 745.83 1145.83 C 729.17 1145.83 716.67 1158.33 716.67 1175 L 716.67 1179.17 C 733.32996 1283.33 800 1358.33 937.5 1379.17 L 937.5 1479.1699 C 937.5 1495.8301 950 1508.3298 970.83 1512.4999 L 1033.33 1512.4999 C 1050 1512.4999 1062.5 1500 1066.67 1479.1699 L 1066.67 1379.17 C 1191.67 1358.33 1275 1270.83 1275 1158.33 Z"/>
    <path fill="#ffffff" stroke="none" d="M 787.5 1595.83 C 462.5 1479.1699 295.83 1116.67 416.67 795.83 C 479.17 620.83 616.67 487.49997 787.5 425 C 804.17 416.67 812.5 404.17 812.5 383.33 L 812.5 325 C 812.5 308.33 804.17 295.83 787.5 291.67 C 783.33 291.67 775 291.67 770.83 295.83 C 375 420.83002 158.33 841.67 283.33 1237.5 C 358.33 1470.8301 537.5 1650 770.83 1725 C 787.5 1733.3298 804.17 1725 808.33 1708.3301 C 812.5 1704.1699 812.5 1700 812.5 1691.6702 L 812.5 1633.33 C 812.5 1620.83 800 1604.17 787.5 1595.83 Z M 1229.17 295.83 C 1212.5 287.5 1195.83 295.83 1191.67 312.5 C 1187.5 316.67 1187.5 320.83 1187.5 329.17 L 1187.5 387.5 C 1187.5 404.17 1200 420.83002 1212.5 429.17004 C 1537.5 545.83 1704.1699 908.33 1583.33 1229.17 C 1520.8298 1404.17 1383.33 1537.5 1212.5 1600 C 1195.83 1608.33 1187.5 1620.83 1187.5 1641.67 L 1187.5 1700 C 1187.5 1716.6699 1195.83 1729.1699 1212.5 1733.3298 C 1216.67 1733.3298 1225 1733.3298 1229.17 1729.1699 C 1625 1604.17 1841.67 1183.33 1716.6699 787.5 C 1641.67 550 1458.33 370.82996 1229.17 295.83 Z"/>
</svg>
