<svg width="201" height="201" xmlns="http://www.w3.org/2000/svg">
    <path fill="#00e2ed" stroke="none" d="M 200.76999 100.804 C 200.76999 156.03247 155.99847 200.804 100.77 200.804 C 45.541523 200.804 0.76999664 156.03247 0.76999664 100.804 C 0.76999664 45.575527 45.541523 0.80400085 100.77 0.80400085 C 155.99847 0.80400515 200.76999 45.575527 200.76999 100.804 Z"/>
    <path fill="#232323" stroke="none" d="M 170.687 106.87 C 168.695 106.893 166.522 107.441 164.333 108.746 L 108.883 143.857 L 109.436 144.196 C 110.996 145.123 113.04799 145.771 115.32 145.725 C 117.312 145.71 119.493 145.169 121.681 143.857 L 132.579 136.954 L 177.108 108.724 L 176.54 108.368996 C 174.973 107.481 172.959 106.855 170.687 106.87 Z"/>
    <path fill="#232323" stroke="none" d="M 134.109 88.6977 L 152.594 100.40299 L 134.109 112.125 C 135.449 108.48 136.237 104.527 136.237 100.40299 C 136.237 96.2726 135.449 92.350006 134.109 88.6977 Z M 72.9645 88.6977 C 71.6316 92.350006 70.8366 96.2878 70.8366 100.40299 C 70.8366 104.527 71.6015 108.465 72.9645 112.109 L 54.486496 100.40299 L 72.9645 88.6977 Z M 103.543 74.0345 C 117.856 74.0345 129.367 85.802 129.367 100.404 C 129.367 115.013 117.833 126.757 103.543 126.757 C 89.2153 126.757 77.6891 114.99 77.6891 100.404 C 77.6891 85.8178 89.2378 74.0345 103.543 74.0345 Z M 103.543 61.216797 L 100.34 63.232 L 87.6782 71.2547 C 86.7694 71.772 85.9061 72.3202 85.0503 72.9302 L 41.7109 100.402 L 85.0503 127.861 C 85.92121 128.463 86.8147 129.027 87.7386 129.559 L 103.55899 139.559 L 119.11399 129.698 C 119.151 129.668 119.197 129.629 119.235 129.613 C 120.204 129.073 121.143 128.463 122.052 127.814 L 165.385 100.40299 L 122.038 72.9452 C 121.174995 72.3429 120.289 71.7561 119.357 71.2387 L 103.543 61.216797 Z"/>
    <path fill="#232323" stroke="none" d="M 90.0832 55.1302 C 88.0916 55.1456 85.9182 55.6939 83.722 56.9988 L 72.8245 63.9173 L 28.2793 92.138596 C 31.1646 94.0999 36.0416 95.1114 41.0702 92.138596 L 96.5205 57.0127 L 95.9676 56.6729 C 94.4076 55.7309 92.3779 55.0916 90.0832 55.1302 Z"/>
</svg>
