<svg width="256" height="238" xmlns="http://www.w3.org/2000/svg">
    <path fill="#8d8fc6" stroke="none" d="M 74.5 28.33 L 21.29 120.5 L 74.5 212.67 L 180.94 212.67 L 182.7 209.67 L 234.16 120.53999 L 180.94 28.33 Z M 84.65 40.54 L 163.48 40.54 L 111.649994 56.93 C 112.59699 58.470387 113.273415 60.161453 113.65 61.93 L 173.31 43.12 L 185.22 101 C 186.96335 100.499596 188.76636 100.23722 190.58 100.21999 L 180.58 52.31 L 218.45 117.84 L 210.83 117.84 C 210.92952 118.72987 210.9796 119.62458 210.98001 120.52 C 210.98157 121.415474 210.93147 122.310295 210.83 123.2 L 218.45 123.2 L 179.35002 190.95 L 190.27002 140.82 C 188.4852 140.77652 186.71364 140.50087 185 140 L 172.12 199 L 113.74999 179.47 C 113.43789 181.21265 112.86478 182.89825 112.05 184.47 L 159.55 200.39 L 84.65 200.39 L 88.65 193.54 C 86.97067 192.90707 85.38333 192.05289 83.93 191 L 80 197.78001 L 42.67 133.13 L 79.67 165.79 C 80.6892 164.30441 81.89961 162.95952 83.27 161.79 L 36.69 120.659996 L 85 77.79 C 83.72013 76.523224 82.64406 75.06597 81.81 73.47 L 42.35 108.47001 L 80 43.219997 L 85.56 52.91 C 86.92009 51.70965 88.45844 50.72794 90.12001 50 Z M 112.89 71.71 C 112.26128 73.39511 111.35548 74.963356 110.21 76.35 L 172.21 112.16 C 172.94295 110.52527 173.89502 108.9979 175.04 107.62 Z M 92.89 82.22 L 92.89 157.55 C 93.70869 157.44005 94.53397 157.3866 95.36 157.39 C 96.32753 157.3785 97.2943 157.44875 98.25001 157.6 L 98.25001 82.6 C 97.82036 82.62476 97.38964 82.62476 96.96 82.6 C 95.589645 82.602585 94.2237 82.44485 92.89 82.13 Z M 172.23 128.85 L 110.15 164.66 C 111.26774 166.0803 112.17071 167.65715 112.83 169.34 L 175.05998 133.34 C 173.91519 131.96562 172.96309 130.44159 172.23 128.81 Z"/>
    <path fill="#579fd6" stroke="none" d="M 97 48.580006 C 90.08901 48.555737 83.846146 52.703354 81.19021 59.08366 C 78.53426 65.46397 79.99003 72.8163 84.87686 77.70314 C 89.763695 82.58997 97.116035 84.04574 103.496346 81.38979 C 109.87664 78.73386 114.02426 72.49098 114 65.58 C 113.95622 56.20936 106.37064 48.623783 97 48.580006 Z M 97 53.94 C 101.73312 53.940002 105.99999 56.791702 107.81035 61.164917 C 109.6207 65.53813 108.61786 70.5713 105.26961 73.91669 C 101.92135 77.26208 96.88734 78.260605 92.51566 76.44652 C 88.144005 74.63243 85.29595 70.36311 85.3 65.63 C 85.28931 62.52462 86.518875 59.543484 88.71566 57.348576 C 90.91244 55.153667 93.89464 53.926655 97 53.94 Z"/>
    <path fill="#f27046" stroke="none" d="M 95.37 157.39 C 87.78897 157.37787 80.94824 161.93683 78.041504 168.93848 C 75.13476 175.94011 76.73531 184.00348 82.09592 189.36407 C 87.45651 194.72469 95.51989 196.32523 102.52153 193.4185 C 109.52317 190.51176 114.08213 183.67104 114.06999 176.09 C 114.048 165.77141 105.6886 157.412 95.37 157.39 Z M 95.37 162.7 C 100.79342 162.68787 105.68938 165.94604 107.772316 170.95354 C 109.855255 175.96103 108.714386 181.7303 104.88231 185.56812 C 101.05023 189.40591 95.28265 190.5554 90.272064 188.47997 C 85.26146 186.40451 81.995964 181.51343 82 176.09 C 81.994675 172.53539 83.40507 169.12497 85.919495 166.61243 C 88.43393 164.09987 91.84538 162.69202 95.399994 162.7 Z"/>
    <path fill="#eb407a" stroke="none" d="M 190.73 100.2 C 182.5167 100.18787 175.10538 105.12611 171.95387 112.71072 C 168.80237 120.29534 170.53172 129.03165 176.33513 134.84363 C 182.1385 140.65561 190.87225 142.3979 198.46155 139.25761 C 206.0508 136.11732 210.99998 128.71332 211 120.5 C 210.978 109.297745 201.90224 100.222 190.7 100.2 Z M 190.73 105.560005 C 198.98114 105.560005 205.66998 112.24886 205.66998 120.5 C 205.66998 128.75113 198.98114 135.44 190.73 135.44 C 182.47887 135.44 175.79 128.75113 175.79 120.5 C 175.77396 116.532776 177.34285 112.723404 180.14815 109.91813 C 182.95338 107.112854 186.76277 105.54397 190.73 105.560005 Z"/>
</svg>
