<svg width="256" height="257" xmlns="http://www.w3.org/2000/svg">
    <path fill="#141417" fill-rule="evenodd" stroke="none" d="M 146.554 161.566 C 155.068 156.45 161.281 148.031 163.828 138.157 C 166.376 128.284 165.049 117.763 160.14 108.905 C 155.211 100.056 147.106 93.6016 137.603 90.9572 C 128.101 88.3128 117.977 89.6949 109.453995 94.8003 C 105.225 97.3174 101.518 100.68199 98.54921 104.7 C 95.5805 108.717995 93.40861 113.308 92.159706 118.205 C 90.88531 123.09401 90.5569 128.197 91.1934 133.219 C 91.83001 138.241 93.41889 143.082 95.868 147.461 C 100.80201 156.305 108.907 162.755 118.408 165.399 C 127.908 168.043 138.029 166.664 146.554 161.566 L 146.554 161.566 Z M 100.51601 78.716 C 126.76499 62.9774 160.465 72.3549 175.614 99.63159 C 182.884 112.753 184.84802 128.337 181.07501 142.963 C 177.303 157.588 168.102 170.06 155.492 177.642 C 142.865 185.209 127.864006 187.259 113.78399 183.34099 C 99.70449 179.422 87.6956 169.857 80.3944 156.743 C 76.7656 150.256 74.412 143.084 73.47 135.643 C 72.528 128.203 73.0163 120.642 74.9068 113.4 C 76.7562 106.145 79.972 99.3439 84.3679 93.39041 C 88.7638 87.4368 94.2524 82.449 100.51601 78.716 L 100.51601 78.716 Z M 64.2806 166.406 C 77.4178 190.053 72.3458 219.481 53.6794 237.156 C 48.727303 233.519 44.031403 229.518 39.6277 225.18599 C 46.6153 219.45198 51.386303 211.297 53.07 202.20999 C 54.7536 193.123 53.237595 183.71 48.7987 175.688 C 46.3718 171.295 43.1306 167.445 39.2629 164.363 C 35.3952 161.28 30.9776 159.025 26.266003 157.729 C 18.5477 155.56 10.3596 156.066 2.9433897 159.172 C 1.5395 153.05 0.555894 146.831 0 140.564 C 10.0131 137.221 20.7417 136.954 30.8973 139.795 C 37.8783 141.718 44.4232 145.061 50.1534 149.63 C 55.8836 154.199 60.6852 159.904 64.2806 166.415 L 64.2806 166.406 Z M 186.248 46.6166 C 188.95499 36.0585 194.539 26.5383 202.32898 19.2016 C 207.279 22.8381 211.975 26.8353 216.381 31.1632 C 210.084 36.2821 205.563 43.3938 203.50102 51.422005 C 202.228 56.3097 201.9 61.4114 202.537 66.4318 C 203.173 71.4521 204.762 76.2913 207.21 80.6693 C 209.635 85.0636 212.876 88.9139 216.744 91.9968 C 220.612 95.079704 225.03 97.33399 229.742 98.629 C 237.558 100.816 245.665 100.25399 253.057 97.1684 C 254.47 103.322 255.45102 109.519005 256 115.724 C 250.65 117.547 245.059 118.49501 239.429 118.533 C 234.597 118.53 229.786 117.868004 225.119 116.563 C 218.13802 114.642 211.59302 111.30101 205.86302 106.733 C 200.133 102.16599 195.331 96.4616 191.736 89.9516 C 188.107 83.4657 185.753 76.2952 184.811 68.8562 C 183.869 61.417202 184.35802 53.857796 186.248 46.6166 L 186.248 46.6166 Z M 128.004 204.624 C 154.278 204.624 176.27899 223.88899 181.684 249.524 C 176.113 252.194 170.426 254.398 164.68 256.179 C 163.388 247.022 158.973 238.654 152.241 232.59802 C 145.509 226.54199 136.907 223.203 128.004 223.189 C 119.10601 223.20401 110.509995 226.541 103.78001 232.59102 C 97.0496 238.641 92.6338 247.003 91.3365 256.153 C 85.5256 254.359 79.8437 252.14102 74.333 249.51501 C 79.7376 223.881 101.73 204.624 128.004 204.624 L 128.004 204.624 Z M 128.004 51.7331 C 101.73 51.7331 79.7293 32.4597 74.3247 6.83374 C 79.8956 4.16311 85.5828 1.9592 91.3282 0.17878 C 92.6221 9.33358 97.0375 17.7004 103.77 23.7543 C 110.502 29.808199 119.10199 33.1461 128.004 33.1597 C 146.629 33.1597 162.061 18.8127 164.672 0.204708 C 170.487 1.9934899 176.172 4.21169 181.684 6.8423896 C 176.27899 32.4683 154.278 51.7245 128.004 51.7245 L 128.004 51.7331 Z M 225.119 139.803 C 235.262 136.959 245.98 137.22 255.983 140.555 C 255.41702 146.825 254.42699 153.046 253.02298 159.172 C 245.618 156.084 237.44801 155.578 229.742 157.729 C 225.03 159.024 220.61299 161.279 216.745 164.362 C 212.877 167.445 209.636 171.294 207.21 175.688 C 204.762 180.067 203.17499 184.90602 202.53801 189.926 C 201.902 194.94601 202.229 200.048 203.50102 204.936 C 205.558 212.959 210.074 220.06798 216.364 225.18599 C 212.00699 229.464 207.326 233.47401 202.31198 237.14702 C 194.527 229.816 188.94499 220.30101 186.24 209.75 C 182.44 195.014 184.386 179.621 191.72801 166.406 C 199.07 153.191 210.93498 143.744 225.111 139.795 L 225.119 139.803 Z M 30.889002 116.563 C 26.2198 117.868004 21.4061 118.53 16.5711 118.533 C 10.9495 118.496 5.36767 117.551 0.024944 115.733 C 0.590341 109.484 1.5797899 103.287 2.98496 97.1943 C 10.3601 100.25399 18.4502 100.80701 26.266003 98.629 C 30.978003 97.3335 35.3959 95.07911 39.2637 91.9962 C 43.131603 88.91329 46.3725 85.0633 48.7987 80.6693 C 51.2469 76.293 52.8354 71.4552 53.4719 66.4363 C 54.1085 61.4173 53.780502 56.3169 52.5071 51.4306 C 50.4485 43.4057 45.93 36.2967 39.636 31.1805 C 44.0419 26.850298 48.7376 22.8502 53.687702 19.2102 C 61.473995 26.544798 67.0553 36.0621 69.76 46.6166 C 71.6479 53.8581 72.135 61.417 71.193 68.8556 C 70.251 76.2942 67.8987 83.4646 64.2723 89.9516 C 60.6764 96.46099 55.8745 102.164 50.1443 106.732 C 44.414196 111.3 37.8695 114.641 30.889002 116.563 Z"/>
</svg>
