<svg width="50" height="50" xmlns="http://www.w3.org/2000/svg">
    <defs>
        <clipPath id="SVGID_2_">
            <path fill="#000000" stroke="none" d="M 50 25 C 50 38.807117 38.807117 50 25 50 C 11.192882 50 0 38.807117 0 25 C -0 11.192882 11.192882 0 25 0 C 38.807117 0 50 11.192882 50 25 Z"/>
        </clipPath>
        <clipPath id="SVGID_4_">
            <path fill="#000000" stroke="none" d="M -21.8 -1.3 L 71.899994 -1.3 L 71.899994 51.3 L -21.8 51.3 Z"/>
        </clipPath>
        <clipPath id="SVGID_6_">
            <path fill="#000000" stroke="none" d="M -21.8 -1.3 L 71.899994 -1.3 L 71.899994 51.3 L -21.8 51.3 Z"/>
        </clipPath>
    </defs>
    <g>
        <g clip-path="url(#SVGID_2_)">
            <g>
                <g>
                    <g clip-path="url(#SVGID_4_)">
                        <g clip-path="url(#SVGID_6_)">
                            <path fill="#000000" stroke="none" d="M 50.2 25.2 C 50.1 39.2 38.7 50.4 24.8 50.300003 C 17.9 50.300003 11.7 47.5 7.2 42.9 C 2.6 38.3 -0.3 31.9 -0.2 24.8 C -0.1 10.8 11.3 -0.4 25.2 -0.3 C 39.1 -0.2 50.300003 11.2 50.2 25.2"/>
                        </g>
                        <g clip-path="url(#SVGID_6_)">
                            <path fill="#ffffff" stroke="none" d="M 12.9 33.6 L 7.3 43.099995 C 7.3 43.099995 9.6 46.2 16.1 48.7 L 19.3 40 L 21.500002 34.2 L 23.7 27.7 C 23.7 27.7 24.499998 25.6 24.499998 25.6 L 24.6 25.4 C 24.6 25.4 24.6 25.3 24.7 25.3 L 24.8 25.2 L 24.8 25.2 C 24.8 25.2 24.8 25.2 24.9 25.2 L 25 25.2 L 25.1 25.2 L 25.2 25.4 L 25.4 26 L 25.8 27.2 L 27.3 31.8 L 28.6 35.9 L 30.7 42.2 L 32.3 46.6 L 33 49 C 33 49 38.1 47.6 42.4 43.3 L 39.3 38.6 L 37.3 35.1 L 35.2 31.1 L 33.5 27.6 L 32.1 24.4 L 31 21.1 L 30 18 L 28.9 14.5 L 27.8 10.8 L 26.8 7.1 L 25.7 3 L 25 0.8 L 23.8 4.7 L 22.1 10.2 L 20.8 14.3 L 19.2 19 L 17.9 22.8 L 16.4 26.4 L 14.8 29.9 L 12.9 33.6 Z"/>
                        </g>
                    </g>
                </g>
            </g>
        </g>
    </g>
</svg>
