<svg width="972.04" height="972.04" xmlns="http://www.w3.org/2000/svg">
    <path fill="#ffffff" stroke="none" d="M 972.02 486.01996 C 972.02 614.9152 920.8166 738.53125 829.6739 829.6739 C 738.53125 920.8166 614.9152 972.02 486.01996 972.02 C 357.12476 972.02 233.50876 920.8166 142.36609 829.6739 C 51.2234 738.5312 0.01998092 614.9152 0.01998901 486.01996 C 0.01998901 357.1248 51.223415 233.50879 142.36609 142.36609 C 233.50879 51.223415 357.1248 0.01998901 486.01996 0.01998901 C 614.9152 0.01998092 738.5312 51.2234 829.6739 142.36609 C 920.8166 233.50876 972.02 357.12476 972.02 486.01996 Z"/>
    <path fill="#2898c4" stroke="none" d="M 486.01996 29.99 C 547.6 29.99 607.31 42.04 663.52 65.81 C 717.82 88.78 766.58997 121.66 808.4799 163.55 C 850.37 205.44 883.2601 254.21 906.22003 308.51 C 929.99 364.71002 942.0399 424.43 942.0399 486.01 C 942.0399 547.59 929.99 607.3 906.22003 663.51 C 883.25 717.81 850.37 766.58 808.4799 808.47 C 766.58997 850.36 717.82 883.25 663.52 906.21 C 607.32 929.98 547.6 942.03 486.01996 942.03 C 424.44 942.03 364.72 929.98 308.52 906.21 C 254.22 883.24 205.45 850.36 163.56 808.47 C 121.67 766.58 88.78 717.81 65.82 663.51 C 42.05 607.31 30 547.59 30 486.01 C 30 424.43 42.05 364.71002 65.82 308.51 C 88.79001 254.21 121.67 205.44 163.56 163.55 C 205.45 121.66 254.22 88.77 308.52 65.81 C 364.72 42.04 424.44 29.99 486.01996 29.99 M 486.01996 -0 C 217.6 0 0 217.6 0 486.01996 C 0 754.44 217.6 972.0399 486.01996 972.0399 C 754.44 972.0399 972.0399 754.44 972.0399 486.01996 C 972.0399 217.6 754.44 0 486.01996 0 L 486.01996 0 Z"/>
    <path fill="#2898c4" stroke="none" d="M 486.01996 29.99 C 547.6 29.99 607.31 42.04 663.52 65.81 C 717.82 88.78 766.58997 121.66 808.4799 163.55 C 850.37 205.44 883.2601 254.21 906.22003 308.51 C 929.99 364.71002 942.0399 424.43 942.0399 486.01 C 942.0399 547.59 929.99 607.3 906.22003 663.51 C 883.25 717.81 850.37 766.58 808.4799 808.47 C 766.58997 850.36 717.82 883.25 663.52 906.21 C 607.32 929.98 547.6 942.03 486.01996 942.03 C 424.44 942.03 364.72 929.98 308.52 906.21 C 254.22 883.24 205.45 850.36 163.56 808.47 C 121.67 766.58 88.78 717.81 65.82 663.51 C 42.05 607.31 30 547.59 30 486.01 C 30 424.43 42.05 364.71002 65.82 308.51 C 88.79001 254.21 121.67 205.44 163.56 163.55 C 205.45 121.66 254.22 88.77 308.52 65.81 C 364.72 42.04 424.44 29.99 486.01996 29.99 M 486.01996 -0 C 217.6 0 0 217.6 0 486.01996 C 0 754.44 217.6 972.0399 486.01996 972.0399 C 754.44 972.0399 972.0399 754.44 972.0399 486.01996 C 972.0399 217.6 754.44 0 486.01996 0 L 486.01996 0 Z"/>
    <path fill="#2898c4" stroke="none" d="M 486.01996 29.99 C 547.6 29.99 607.31 42.04 663.52 65.81 C 717.82 88.78 766.58997 121.66 808.4799 163.55 C 850.37 205.44 883.2601 254.21 906.22003 308.51 C 929.99 364.71002 942.0399 424.43 942.0399 486.01 C 942.0399 547.59 929.99 607.3 906.22003 663.51 C 883.25 717.81 850.37 766.58 808.4799 808.47 C 766.58997 850.36 717.82 883.25 663.52 906.21 C 607.32 929.98 547.6 942.03 486.01996 942.03 C 424.44 942.03 364.72 929.98 308.52 906.21 C 254.22 883.24 205.45 850.36 163.56 808.47 C 121.67 766.58 88.78 717.81 65.82 663.51 C 42.05 607.31 30 547.59 30 486.01 C 30 424.43 42.05 364.71002 65.82 308.51 C 88.79001 254.21 121.67 205.44 163.56 163.55 C 205.45 121.66 254.22 88.77 308.52 65.81 C 364.72 42.04 424.44 29.99 486.01996 29.99 M 486.01996 -0 C 217.6 0 0 217.6 0 486.01996 C 0 754.44 217.6 972.0399 486.01996 972.0399 C 754.44 972.0399 972.0399 754.44 972.0399 486.01996 C 972.0399 217.6 754.44 0 486.01996 0 L 486.01996 0 Z"/>
    <path fill="#2898c4" stroke="none" d="M 486.01996 29.99 C 547.6 29.99 607.31 42.04 663.52 65.81 C 717.82 88.78 766.58997 121.66 808.4799 163.55 C 850.37 205.44 883.2601 254.21 906.22003 308.51 C 929.99 364.71002 942.0399 424.43 942.0399 486.01 C 942.0399 547.59 929.99 607.3 906.22003 663.51 C 883.25 717.81 850.37 766.58 808.4799 808.47 C 766.58997 850.36 717.82 883.25 663.52 906.21 C 607.32 929.98 547.6 942.03 486.01996 942.03 C 424.44 942.03 364.72 929.98 308.52 906.21 C 254.22 883.24 205.45 850.36 163.56 808.47 C 121.67 766.58 88.78 717.81 65.82 663.51 C 42.05 607.31 30 547.59 30 486.01 C 30 424.43 42.05 364.71002 65.82 308.51 C 88.79001 254.21 121.67 205.44 163.56 163.55 C 205.45 121.66 254.22 88.77 308.52 65.81 C 364.72 42.04 424.44 29.99 486.01996 29.99 M 486.01996 -0 C 217.6 0 0 217.6 0 486.01996 C 0 754.44 217.6 972.0399 486.01996 972.0399 C 754.44 972.0399 972.0399 754.44 972.0399 486.01996 C 972.0399 217.6 754.44 0 486.01996 0 L 486.01996 0 Z"/>
    <path fill="#2898c4" stroke="none" d="M 486.01996 85.52 C 540.1 85.52 592.55 96.09999 641.9 116.979996 C 689.59 137.15 732.42004 166.03 769.21 202.82 C 806 239.61 834.88 282.44 855.05 330.13 C 875.93 379.49 886.50995 431.93 886.50995 486.01 C 886.50995 540.09 875.93 592.54 855.05 641.89 C 834.88 689.58 806 732.4099 769.21 769.2001 C 732.42004 805.99 689.59 834.87 641.9 855.04 C 592.54 875.92004 540.1 886.5 486.01996 886.5 C 431.94 886.5 379.49 875.92004 330.14 855.04 C 282.45 834.87 239.62 805.99 202.83 769.2001 C 166.04 732.4099 137.16 689.58 116.98999 641.89 C 96.11 592.53 85.53 540.09 85.53 486.01 C 85.53 431.93 96.11 379.48 116.98999 330.13 C 137.16 282.44 166.04 239.61 202.83 202.82 C 239.62 166.03 282.45 137.15 330.14 116.979996 C 379.5 96.09999 431.94 85.52 486.01996 85.52 M 486.01996 55.53 C 248.27 55.53 55.53 248.27 55.53 486.01996 C 55.53 723.77 248.27 916.51 486.01996 916.51 C 723.77 916.51 916.51 723.77 916.51 486.01996 C 916.51 248.27 723.77997 55.53 486.01996 55.53 L 486.01996 55.53 Z"/>
    <path fill="#2898c4" stroke="none" d="M 486.01996 85.52 C 540.1 85.52 592.55 96.09999 641.9 116.979996 C 689.59 137.15 732.42004 166.03 769.21 202.82 C 806 239.61 834.88 282.44 855.05 330.13 C 875.93 379.49 886.50995 431.93 886.50995 486.01 C 886.50995 540.09 875.93 592.54 855.05 641.89 C 834.88 689.58 806 732.4099 769.21 769.2001 C 732.42004 805.99 689.59 834.87 641.9 855.04 C 592.54 875.92004 540.1 886.5 486.01996 886.5 C 431.94 886.5 379.49 875.92004 330.14 855.04 C 282.45 834.87 239.62 805.99 202.83 769.2001 C 166.04 732.4099 137.16 689.58 116.98999 641.89 C 96.11 592.53 85.53 540.09 85.53 486.01 C 85.53 431.93 96.11 379.48 116.98999 330.13 C 137.16 282.44 166.04 239.61 202.83 202.82 C 239.62 166.03 282.45 137.15 330.14 116.979996 C 379.5 96.09999 431.94 85.52 486.01996 85.52 M 486.01996 55.53 C 248.27 55.53 55.53 248.27 55.53 486.01996 C 55.53 723.77 248.27 916.51 486.01996 916.51 C 723.77 916.51 916.51 723.77 916.51 486.01996 C 916.51 248.27 723.77997 55.53 486.01996 55.53 L 486.01996 55.53 Z"/>
    <path fill="#6fbee1" stroke="none" d="M 260.07 176.66 L 410.7 264.05 L 260.07 354.89 L 260.07 176.66 Z"/>
    <path fill="#79c1df" stroke="none" d="M 561.34 173.35 L 711.97 260.74 L 561.34 351.58 L 561.34 173.35 Z"/>
    <path fill="#6fbee1" stroke="none" d="M 260.07 354.93 L 410.7 442.33 L 260.07 533.17 L 260.07 354.93 Z"/>
    <path fill="#31afdd" stroke="none" d="M 561.34 351.58 L 711.97 438.97 L 561.34 529.81 L 561.34 351.58 Z"/>
    <path fill="#1192c3" stroke="none" d="M 561.34 529.48 L 711.97 616.87 L 561.34 707.71 L 561.34 529.48 Z"/>
    <path fill="#1f9fd0" stroke="none" d="M 410.7 442.28003 L 561.34 529.67 L 410.7 620.51 L 410.7 442.28003 Z"/>
    <path fill="#34afdd" stroke="none" d="M 260.07 532.59 L 410.7 619.98 L 260.07 710.83 L 260.07 532.59 Z"/>
    <path fill="#94cee4" stroke="none" d="M 410.7 442.28003 L 260.07 354.89 L 410.7 264.05 L 410.7 442.28003 Z"/>
    <path fill="#4db4dd" stroke="none" d="M 711.97 438.96 L 561.34 351.57 L 711.97 260.73 L 711.97 438.96 Z"/>
    <path fill="#23a1d3" stroke="none" d="M 711.97 617.2 L 561.34 529.8 L 711.97 438.96 L 711.97 617.2 Z"/>
    <path fill="#4fb5dd" stroke="none" d="M 561.34 529.81 L 410.7 442.42 L 561.34 351.58 L 561.34 529.81 Z"/>
    <path fill="#4db4dd" stroke="none" d="M 410.7 620.51 L 260.07 533.12 L 410.7 442.28003 L 410.7 620.51 Z"/>
    <path fill="#1ea1d2" stroke="none" d="M 410.7 797.98004 L 260.07 710.59 L 410.7 619.75 L 410.7 797.98004 Z"/>
    <path fill="#1ba3d1" stroke="none" d="M 711.97 795.53 L 561.34 708.14 L 711.97 617.3 L 711.97 795.53 Z"/>
    <path fill="#d2ebf5" stroke="none" d="M 583.8 707.57 C 583.24 707.57 582.68 707.57 582.12 707.55 C 567.2 707.26 553.48 703.09 541.34 695.16003 C 529.27 687.28 519.6 676.69 512.59 663.69 C 505.57 650.68 502.17 636.18 502.47 620.6 C 502.70004 608.79 505.05 597.63 509.44998 587.43 C 513.84 577.25 519.88 568.21 527.41 560.55 C 534.95 552.88 543.79 546.84 553.7 542.6 C 557.07 541.16 560.6 539.96 564.23 539.02 L 567.13 413.77 C 567.18 411.7 568.87 410.05997 570.92 410.05997 C 570.95 410.05997 642.64 411.72 642.64 411.72 C 654.97 412.01 666.18 415.32004 675.95 421.58 C 685.68 427.81 693.44 436.19 699.02997 446.51 C 704.62994 456.85004 707.31995 468.43 707.03 480.93 C 706.74 493.65 703.45 505.2 697.26 515.27 C 691.0901 525.32 682.83 533.3 672.72 539.01 C 663.04 544.48 652.41 547.25 641.12 547.25 L 641.12 547.25 C 640.58 547.25 640.03 547.25 639.48 547.23 L 623.21 546.85 C 631.61 551.73 638.96 558.08 645.11 565.75 C 652.2 574.61 657.51 584.96 660.88 596.52 C 664.25 608.06 665.34 620.51 664.12 633.52 C 663.94 635.47 662.3 636.96 660.34 636.96 C 660.31 636.96 566.7 635.12 566.7 635.12 C 566.02 635.11 565.36 634.91 564.79 634.56 C 564.16 634.37 563.59 634.03 563.13 633.54 C 562.43 632.81 562.06 631.84 562.08 630.83 L 563.43 572.41 C 563.21 572.53 562.98 572.65 562.76 572.78 C 555.99 576.57 550.28 581.82 545.8 588.39 C 541.3 594.97 538.41 602.49 537.19 610.75 C 536.66 613.82 536.37 617.15 536.3 620.72 C 536.02 635.04 540.34 648.44 547.56 655.69 C 547.67 655.8 547.78 655.92 547.88 656.05 C 551.53 660.78 555.98 664.73 561.1 667.78 C 567.51 671.6 574.81 673.66 582.8 673.91 C 583.08 673.91 583.4 673.91 583.72 673.91 C 591.87 673.91 599.4 671.83 606.12 667.74 C 613.18 663.44 619.03 657.35 623.5 649.66 C 624.19 648.47 625.45 647.77 626.78 647.77 C 627.09 647.77 627.4 647.81 627.72 647.89 L 654.11 654.61 C 655.21 654.89 656.13 655.65 656.61 656.67 C 657.09 657.7 657.09 658.89 656.61 659.91 C 649.87 674.1 639.76 685.77 626.57 694.61 C 613.75 703.19 599.36 707.55 583.79 707.55 Z M 630.28 608.3 C 629.24 601.84 626.95 595.78 623.44 590.24 C 619.16 583.49 613.57 577.95 606.85 573.79 C 603.8 571.9 600.56 570.42 597.18 569.36 L 596.3 607.62 L 630.29 608.29 Z M 597.91 537.68 C 604.67 538.83 611.13 540.83 617.16 543.66 C 617.12 543.42 617.1 543.16 617.1 542.91 L 617.7 516.86 C 617.75 514.8 619.44 513.15 621.49 513.15 C 621.52 513.15 637.95 513.53 637.95 513.53 C 638.25 513.53 638.55 513.54 638.84 513.54 C 644.8 513.54 650.38 512.1 655.42 509.27 C 660.74 506.28003 665.09 502.09003 668.33 496.81 C 671.56 491.55 673.27 485.48 673.43 478.74997 C 673.59 471.92 672.16 465.72 669.18 460.31998 C 666.19 454.9 662.04 450.51004 656.86 447.26996 C 651.71 444.06003 645.9 442.35 639.6 442.21 L 600.14 441.29996 L 597.91 537.7 Z"/>
    <path fill="#2898c4" stroke="none" d="M 570.92 413.86002 L 642.55 415.52 C 654.23 415.79 664.68 418.88004 673.91 424.77997 C 683.13 430.68 690.4 438.53 695.7 448.32 C 701 458.11 703.52 468.95 703.25 480.84 C 702.9699 492.93 699.89996 503.75 694.04 513.28 C 688.18 522.82 680.46 530.29 670.87 535.7 C 661.72 540.87 651.81 543.45 641.13 543.45 C 640.62 543.45 640.1 543.45 639.58 543.43 L 620.89 543 L 621.49 516.95 L 637.85 517.33 C 638.18 517.33 638.5 517.34 638.83 517.34 C 645.48 517.34 651.63 515.75 657.27 512.58 C 663.19 509.25 667.95 504.66 671.55 498.78998 C 675.15 492.93 677.04 486.27 677.21 478.83 C 677.38 471.29 675.81 464.5 672.48 458.48 C 669.15 452.46002 664.61 447.65 658.85 444.05 C 653.09 440.45 646.7 438.57004 639.67 438.41 L 596.41 437.41 L 594.66 513.02 L 594.58 516.33 L 594.01 540.95 C 602.37 542 610.16 544.36 617.4 548.02 C 627.08 552.92 635.32 559.62 642.14 568.13 C 648.95 576.64 653.98 586.46 657.23 597.59 C 660.48 608.72 661.51 620.58 660.33 633.17 L 619 632.36 L 598.53 631.96 L 584.78 631.69 L 584.78 631.69 C 584.78 631.69 566.76 631.34 566.76 631.34 L 566.76 630.96 C 566.76 630.96 565.86 630.94 565.86 630.94 L 567.35 566.52 C 565.14 567.34 562.99 568.32 560.9 569.49 C 553.58 573.59 547.5 579.18 542.65 586.27 C 537.8 593.36 534.73 601.34 533.42 610.21 C 532.85 613.55 532.56 617.05 532.49 620.66 C 532.18 636.62 537.17 650.66 544.86 658.38 C 548.8 663.49 553.55 667.72 559.14 671.05 C 566.14 675.22 573.98 677.44 582.67 677.72 C 583.02 677.72 583.37 677.73 583.72 677.73 C 592.61 677.73 600.74 675.49 608.09 671 C 615.73 666.34 621.96 659.87 626.77 651.59 L 653.16 658.31 C 646.69 671.94 637.11 683 624.43 691.49 C 612.19 699.69 598.63 703.79 583.75 703.79 C 583.22 703.79 582.68 703.79 582.15 703.7701 C 567.88 703.49 554.96 699.56 543.37 692 C 531.78 684.43 522.62 674.4 515.88 661.91 C 509.14 649.42 505.92 635.68 506.22 620.69 C 506.44 609.32 508.66998 598.74 512.89 588.94 C 517.12 579.15 522.84 570.57 530.07 563.22 C 537.3 555.86 545.66 550.16 555.15 546.11 C 559.29 544.34 563.55 543 567.92 542.04 L 570.89 413.87 M 634.53 612.19 C 633.87 603.49 631.24 595.5 626.62 588.22 C 622 580.94 616.07 575.06 608.82 570.58 C 604.02 567.61 598.9 565.61 593.47 564.53 L 592.39 611.36 L 617.06 611.84 L 617.06 611.84 C 617.06 611.84 619.41 611.89 619.41 611.89 L 634.54 612.19 M 570.9 406.28 C 566.79 406.28 563.41 409.55997 563.32 413.69003 L 560.49 536.13 C 557.65 536.98 554.87 537.98 552.2 539.12 C 541.83 543.55 532.58 549.87 524.69 557.89 C 516.84 565.88 510.54 575.31 505.96 585.93 C 501.36 596.59 498.91 608.23 498.67 620.53 C 498.35 636.78 501.91 651.91 509.24 665.5 C 516.55 679.06 526.65 690.11 539.26 698.3401 C 552.01 706.6599 566.4 711.04 582.04 711.3499 C 582.63 711.36005 583.21 711.37 583.79 711.37 C 600.13 711.37 615.23 706.80005 628.69 697.79 C 642.46 688.57007 653.01 676.38 660.05 661.56 C 661.02 659.51 661.03 657.13 660.06 655.08 C 659.1 653.03 657.26 651.51 655.06 650.95 L 628.67 644.23 C 628.05 644.07 627.42 643.99 626.8 643.99 C 624.14 643.99 621.62 645.39 620.24 647.76 C 616.09 654.9 610.68 660.53 604.16 664.51 C 597.96 668.29 591.28 670.13 583.74 670.13 C 583.46 670.13 583.17 670.13 582.89 670.13 C 575.47 669.89 568.98 668.06 563.05 664.53 C 558.34 661.73 554.25 658.1 550.9 653.74 C 550.7 653.49 550.49 653.24 550.26 653.02 C 543.73 646.47 539.84 634.13 540.1 620.8 C 540.17 617.41 540.44 614.28 540.92 611.48 C 540.92 611.42 540.94 611.37 540.95 611.31 C 542.09 603.63 544.77 596.64 548.94 590.54 C 551.9 586.21 555.43 582.49 559.48 579.45 L 558.29 630.75 C 558.21 634.08 560.29 636.95 563.25 638.05 C 564.26 638.58 565.41 638.89 566.63 638.92 L 584.65 639.27 L 598.4 639.54 L 618.87 639.94 L 660.2 640.75 C 660.25 640.75 660.3 640.75 660.35 640.75 C 664.26 640.75 667.54 637.77 667.9 633.87 C 669.16 620.38 668.03 607.46 664.53 595.46 C 661.02 583.42 655.48 572.63 648.08 563.38 C 644.38 558.76 640.27 554.61 635.77 550.94 L 639.4 551.02 C 639.98 551.03 640.55 551.04 641.12 551.04 C 653.07 551.04 664.33 548.1 674.59 542.31 C 685.26 536.28 693.98 527.85 700.49 517.25 C 707.03 506.6 710.51 494.41 710.82 481.00998 C 711.12 467.85 708.27997 455.62997 702.36 444.7 C 696.46 433.80997 688.25995 424.96 677.98 418.38004 C 667.61 411.75 655.74 408.23 642.71 407.93 L 571.08 406.27 C 571.02 406.27 570.96 406.27 570.9 406.27 L 570.9 406.27 Z M 601.76 534.57 L 602.18 516.51 L 602.26 513.2 L 603.83 445.18 L 639.5 446.01 C 645.19 446.14 650.21 447.61 654.84 450.5 C 659.53 453.43 663.13 457.25 665.84 462.16 C 668.53 467.03003 669.77 472.43 669.62 478.67004 C 669.48 484.8 667.99 490.09 665.08 494.83 C 662.14 499.62 658.37 503.26 653.55 505.97 C 649.02 508.52 644.2 509.76 638.82 509.76 C 638.55 509.76 638.29 509.76 638.02 509.76 L 621.65 509.38 C 621.59 509.38 621.53 509.38 621.47 509.38 C 619.52 509.38 617.64 510.13 616.23 511.48 C 614.77 512.87 613.93 514.78 613.88 516.79 L 613.39 537.98 C 609.63 536.56 605.74 535.42 601.74 534.57 L 601.74 534.57 Z M 600.16 603.93 L 600.83 574.87 C 602.2 575.51 603.54 576.23 604.84 577.04 C 611.07 580.89 616.25 586.03 620.22 592.29 C 622.66 596.14 624.44 600.16 625.57 604.42 L 619.55 604.3 L 617.2 604.25 L 600.15 603.92 L 600.15 603.92 Z"/>
</svg>
