<svg width="954.6667" height="954.6667" xmlns="http://www.w3.org/2000/svg">
    <g transform="matrix(1.3333334 0 0 1.3333334 0 0)">
        <g transform="matrix(0.1 0 0 -0.1 0 716)">
            <path fill="#000000" stroke="none" d="M 0 3580 L 0 0 L 3580 0 L 7160 0 L 7160 3580 L 7160 7160 L 3580 7160 L 0 7160 L 0 3580 Z M 3563 4339 C 3556 4333 3386 4254 3291 4213 C 3273 4205 3260 4197 3262 4195 C 3265 4192 3331 4219 3409 4255 C 3488 4291 3556 4320 3561 4320 C 3566 4320 3570 3925 3570 3405 C 3570 2902 3567 2490 3564 2490 C 3558 2490 3336 2619 3220 2690 C 3195 2705 3096 2764 3000 2820 C 2904 2876 2794 2942 2755 2965 C 2717 2988 2606 3053 2510 3110 C 1980 3422 1827 3515 1828 3525 C 1828 3531 1875 3556 1932 3582 C 1988 3608 2069 3645 2110 3664 C 2151 3683 2281 3742 2397 3794 C 2514 3847 2645 3906 2687 3926 C 2790 3973 3176 4148 3219 4167 C 3237 4175 3250 4183 3248 4185 C 3246 4188 3109 4129 2944 4054 C 2780 3979 2508 3856 2340 3780 C 2172 3704 1989 3621 1933 3594 C 1876 3568 1827 3549 1824 3552 C 1821 3556 1877 3654 1948 3772 C 2282 4324 2322 4392 2327 4409 C 2330 4422 2306 4441 2228 4488 C 1974 4640 1370 5006 1352 5020 C 1331 5035 1334 5041 1498 5312 C 1590 5465 1670 5590 1677 5590 C 1683 5590 1883 5472 2122 5328 C 2659 5004 2666 5000 2678 5000 C 2684 5000 2716 5046 2750 5103 C 2807 5197 2895 5344 3390 6165 L 3565 6454 L 3568 5400 C 3569 4820 3567 4343 3563 4339 Z M 3669 6335 C 3696 6291 3849 6037 4010 5770 C 4171 5503 4341 5222 4387 5145 C 4433 5068 4475 5004 4480 5002 C 4491 4998 4508 5008 5064 5343 C 5288 5479 5477 5590 5484 5590 C 5490 5590 5570 5465 5662 5312 C 5825 5041 5829 5035 5809 5020 C 5786 5003 5094 4583 4932 4488 C 4857 4444 4830 4423 4833 4411 C 4836 4402 4917 4265 5013 4105 C 5110 3946 5223 3757 5266 3687 C 5308 3617 5340 3557 5336 3553 C 5333 3550 5262 3578 5179 3616 C 5095 3654 5022 3686 5016 3688 C 4986 3697 5060 3659 5189 3600 C 5269 3564 5335 3530 5336 3525 C 5338 3519 5217 3443 5067 3355 C 4917 3268 4752 3171 4700 3140 C 4648 3109 4526 3037 4430 2980 C 4334 2923 4224 2858 4185 2835 C 4147 2811 4036 2746 3940 2690 C 3844 2633 3729 2565 3685 2539 C 3642 2512 3602 2490 3598 2490 C 3594 2490 3590 2902 3590 3405 C 3590 3962 3594 4320 3599 4320 C 3604 4320 3652 4300 3706 4275 C 3759 4250 3805 4231 3807 4233 C 3809 4235 3761 4260 3700 4288 L 3590 4339 L 3590 5397 C 3591 6354 3592 6453 3606 6435 C 3615 6424 3643 6379 3669 6335 Z M 1862 3151 C 1897 3132 2042 3046 2233 2933 C 2294 2897 2406 2831 2480 2787 C 2619 2705 2745 2631 2935 2518 C 2996 2482 3158 2387 3295 2306 C 3433 2225 3551 2153 3558 2146 C 3567 2137 3570 1983 3568 1420 L 3565 705 L 3537 745 C 3444 875 3125 1324 3052 1428 C 3004 1495 2911 1626 2844 1719 L 2724 1887 L 2350 1623 L 1976 1358 L 1953 1387 C 1940 1402 1913 1440 1893 1470 C 1872 1500 1816 1580 1768 1646 C 1719 1713 1680 1772 1680 1776 C 1681 1781 1725 1816 1778 1854 C 2113 2090 2397 2293 2408 2304 C 2418 2314 2376 2379 2184 2651 C 1811 3177 1815 3170 1824 3170 C 1827 3170 1844 3162 1862 3151 Z M 5327 3156 C 5324 3148 5190 2957 5029 2730 C 4747 2331 4738 2317 4756 2300 C 4773 2284 5355 1870 5443 1811 C 5463 1798 5480 1782 5480 1777 C 5480 1772 5441 1713 5393 1646 C 5344 1580 5288 1500 5267 1470 C 5247 1440 5220 1402 5207 1386 L 5184 1358 L 4890 1567 C 4728 1682 4559 1801 4514 1832 L 4433 1889 L 4240 1617 C 4134 1467 4006 1287 3956 1217 C 3906 1147 3836 1048 3800 997 C 3764 946 3706 865 3670 815 C 3635 766 3603 721 3598 716 C 3594 710 3590 1030 3590 1426 L 3590 2146 L 3643 2176 C 3671 2193 3823 2282 3980 2375 C 4588 2734 4660 2777 4830 2877 C 5210 3102 5325 3170 5329 3170 C 5331 3170 5330 3164 5327 3156 Z"/>
            <path fill="#000000" stroke="none" d="M 3854 4210 C 3876 4198 4006 4137 4144 4075 C 4282 4013 4424 3948 4460 3932 C 4683 3828 4994 3691 4998 3694 C 5000 3697 4987 3705 4969 3713 C 4911 3738 4539 3906 4455 3945 C 4319 4009 3846 4222 3830 4227 C 3822 4229 3833 4221 3854 4210 Z"/>
        </g>
    </g>
</svg>
