<svg width="32" height="32" xmlns="http://www.w3.org/2000/svg">
    <g id="Page-1">
        <g id="Artboard备份" transform="matrix(1 0 0 1 -1650 -3959)">
            <g id="DF" transform="matrix(1 0 0 1 1650 3959)">
                <path id="Fill-504" fill="#ffffff" stroke="none" d="M 16 32 C 11.174239 32 6.847505 29.863642 3.9139612 26.48508 C 1.4757792 23.67703 0 20.010878 0 16 C 0 7.16336 7.16336 0 16 0 C 24.83664 0 32 7.16336 32 16 C 32 24.83664 24.83664 32 16 32 Z"/>
                <g id="编组-2" transform="matrix(1 0 0 1 6 4)">
                    <path id="Fill-1" fill="#fa9c00" stroke="none" d="M 0 20.166666 L 0 4.5833335 L 9.787446 4.5833335 C 13.488827 4.5833335 16.5 7.8202777 16.5 11.798936 C 16.5 15.777597 13.488827 19.014542 9.787446 19.014542 L 8.611953 19.014542 L 8.611953 15.950165 L 9.787446 15.950165 C 11.908019 15.950165 13.6333685 14.087949 13.6333685 11.798936 C 13.6333685 9.510015 11.908019 7.6477976 9.787446 7.6477976 L 2.8665457 7.6477976 L 2.8665457 20.166666 L 0 20.166666 Z"/>
                    <path id="Fill-3" fill="#242a47" stroke="none" d="M 4.286801 23.833334 L 4.286801 9.505958 L 7.1873083 9.505958 L 7.1873083 20.825308 L 10.579354 20.825308 C 15.277265 20.825308 19.099405 16.829048 19.099405 11.916667 C 19.099405 7.0044584 15.277265 3.0079386 10.579354 3.0079386 L 3.666667 3.0079386 L 3.666667 0 L 10.579354 0 C 16.876667 0 22 5.3457556 22 11.91658 C 22 18.487577 16.876667 23.833334 10.579354 23.833334 L 4.286801 23.833334 Z"/>
                </g>
            </g>
        </g>
    </g>
</svg>
