<svg width="595.28" height="608.19" xmlns="http://www.w3.org/2000/svg">
    <g>
        <path fill="#ffffff" stroke="none" d="M 582.65 303.36 C 582.65 461.33 454.59003 589.39 296.62 589.39 C 138.65 589.39 10.6 461.33 10.6 303.36 C 10.6 145.39 138.66 17.33 296.62 17.33 C 454.58 17.33 582.65 145.39 582.65 303.36"/>
        <path fill="#000000" stroke="none" d="M 48.83 303.36 C 48.83 272.86 73.55 248.13 104.05 248.13 C 134.55 248.13 159.29 223.41002 159.29 192.91 C 159.29 162.41 184.02 137.67 214.53001 137.67 C 245.02998 137.67 269.75 162.4 269.75 192.91 C 269.75 223.42001 245.02998 248.13 214.53001 248.13 C 184.03 248.13 159.29 272.86 159.29 303.37 C 159.29 333.88 184.03 358.59003 214.53001 358.59003 C 245.02998 358.59003 269.75 383.33 269.75 413.83 C 269.75 444.33 245.02998 469.05 214.53001 469.05 C 184.03 469.05 159.29 444.33 159.29 413.83 C 159.29 383.33 134.55 358.59003 104.05 358.59003 C 73.55 358.59003 48.83 333.87 48.83 303.36"/>
        <path fill="#000000" stroke="none" d="M 543.94 303.35 C 543.94 333.85 519.22 358.58 488.72 358.58 C 458.22 358.58 433.48 383.3 433.48 413.8 C 433.48 444.3 408.74 469.04 378.24 469.04 C 347.74 469.04 323.02 444.31 323.02 413.8 C 323.02 383.29 347.74 358.58 378.24 358.58 C 408.74 358.58 433.48 333.85 433.48 303.35 C 433.48 272.85 408.74 248.13 378.24 248.13 C 347.74 248.13 323.02 223.39 323.02 192.89 C 323.02 162.39 347.74 137.67 378.24 137.67 C 408.74 137.67 433.48 162.39 433.48 192.89 C 433.48 223.39 458.21 248.13 488.72 248.13 C 519.22 248.13 543.94 272.85 543.94 303.35"/>
        <path fill="#000000" stroke="none" d="M 350.59998 303.36 C 350.59998 333.01 326.56 357.05 296.91 357.05 C 267.26 357.05 243.22002 333.02 243.22002 303.36 C 243.22002 273.71 267.25 249.67 296.91 249.67 C 326.56 249.67 350.59998 273.71 350.59998 303.36"/>
    </g>
</svg>
