<svg width="256" height="256" xmlns="http://www.w3.org/2000/svg">
    <g>
        <path fill="#040000" stroke="none" d="M 255 128 C 255 198.14017 198.14017 255 128 255 C 57.859837 255 1 198.14017 1 128 C 1 57.859837 57.859837 1 128 1 C 198.14017 1 255 57.859837 255 128 Z"/>
        <path fill="#0c1433" stroke="none" d="M 255 128 C 255 198.14017 198.14017 255 128 255 C 57.859837 255 1 198.14017 1 128 C 1 57.859837 57.859837 1 128 1 C 198.14017 1 255 57.859837 255 128 Z"/>
        <g>
            <path fill="#6fc8ef" stroke="none" d="M 68.882 47.152 L 108.294 70.017 L 68.882 93.78399 Z"/>
            <path fill="#7acbeb" stroke="none" d="M 147.706 46.286 L 187.118 69.152 L 147.706 92.919 Z"/>
            <path fill="#6fc8ef" stroke="none" d="M 68.882 93.79599 L 108.294 116.661 L 68.882 140.429 Z"/>
            <path fill="#24bbee" stroke="none" d="M 147.706 92.919 L 187.118 115.784 L 147.706 139.552 Z"/>
            <path fill="#009dd2" stroke="none" d="M 147.706 139.464 L 187.118 162.329 L 147.706 186.09702 Z"/>
            <path fill="#0eabe1" stroke="none" d="M 108.294 116.649 L 147.706 139.514 L 108.294 163.282 Z"/>
            <path fill="#29bbee" stroke="none" d="M 68.882 140.279 L 108.294 163.144 L 68.882 186.91098 Z"/>
            <path fill="#97d5ee" stroke="none" d="M 108.294 116.649 L 68.882 93.78399 L 108.294 70.016 Z"/>
            <path fill="#4abfed" stroke="none" d="M 187.118 115.781 L 147.706 92.916 L 187.118 69.149 Z"/>
            <path fill="#0eade4" stroke="none" d="M 187.118 162.414 L 147.706 139.549 L 187.118 115.781 Z"/>
            <path fill="#4cc0ec" stroke="none" d="M 147.706 139.552 L 108.294 116.68699 L 147.706 92.919 Z"/>
            <path fill="#4abfed" stroke="none" d="M 108.294 163.282 L 68.882 140.417 L 108.294 116.649 Z"/>
            <path fill="#04ade3" stroke="none" d="M 108.294 209.71402 L 68.882 186.849 L 108.294 163.081 Z"/>
            <path fill="#06afe2" stroke="none" d="M 187.118 209.074 L 147.706 186.209 L 187.118 162.442 Z"/>
        </g>
    </g>
</svg>
