<svg width="1080" height="1080" xmlns="http://www.w3.org/2000/svg">
    <defs>
        <clipPath id="b98407f7d7">
            <path fill="#000000" stroke="none" d="M 311 437 L 573 437 L 573 724.72656 L 311 724.72656 Z M 311 437"/>
        </clipPath>
    </defs>
    <g transform="matrix(1.3333334 0 0 1.3333334 0 0)">
        <path fill="#ffffff" stroke="none" d="M -81 -81 L 891 -81 L 891 891 L -81 891 Z"/>
        <path fill="#ffffff" stroke="none" d="M -81 -81 L 891 -81 L 891 891 L -81 891 Z"/>
        <path fill="#00f6ff" stroke="none" d="M -81 -81 L 891 -81 L 891 891 L -81 891 Z"/>
        <g clip-path="url(#b98407f7d7)">
            <path fill="#000000" stroke="none" d="M 311.32422 527.2383 L 392.1875 724.2852 L 572.1328 540.7969 L 435.68356 540.7969 L 399.24997 437.53906 Z M 311.32422 527.2383"/>
        </g>
        <path fill="#000000" stroke="none" d="M 529.9336 304.3789 L 426.76172 409.4961 L 460.59378 505.32422 L 732 505.32422 L 661.1758 304.3789 Z M 529.9336 304.3789"/>
        <path fill="#000000" stroke="none" d="M 81 304.3789 L 151.82422 505.32422 L 283.0664 505.32422 L 386.05078 400.39453 L 352.21878 304.3789 Z M 81 304.3789"/>
        <path fill="#000000" stroke="none" d="M 420.8125 85.41406 L 240.86719 268.90625 L 377.3164 268.90625 L 413.75 372.16406 L 501.67578 282.64844 Z M 420.8125 85.41406"/>
    </g>
</svg>
