<svg width="61" height="61" xmlns="http://www.w3.org/2000/svg">
    <g transform="matrix(1 0 0 1 1 1)">
        <path fill="#1a82ff" stroke="#ffffff" d="M 29 0 L 30.005 0 C 46.022 0 59.005 12.984 59.005 29 L 59.005 30.005 C 59.005 46.022 46.022 59.005 30.005 59.005 L 29 59.005 C 12.984 59.005 0 46.022 0 30.005 L 0 29 C 0 12.984 12.984 0 29 0 Z"/>
    </g>
    <g transform="matrix(1 0 0 1 1 1)">
        <path fill="#ffffff" stroke="none" d="M 37.82 25.947 C 38.037 27.03 38.15 28.219 38.15 29.502998 C 38.15 36.413 34.908 40.539 29.478998 40.539 C 27.214 40.539 25.303 39.814 23.862001 38.432 L 42.764 19.504 C 42.258 18.606 41.681 17.767 41.031 16.999 C 40.757 16.677 40.471 16.376 40.177 16.083 L 40.179 16.081 C 40.14 16.042 40.099 16.006 40.061 15.968 C 39.974 15.883 39.889 15.794 39.801 15.711 L 39.796 15.716 C 37.052 13.153 33.523 11.8 29.48 11.8 C 24.806 11.8 20.82 13.598 17.951 17 C 15.254 20.197 13.769 24.638 13.769 29.502 C 13.769 32.734 14.428 35.776 15.659 38.392 L 21.144 32.902 C 20.954 31.861 20.857 30.727 20.857 29.502 C 20.857 26.321 21.502998 23.749 22.778 21.857 C 24.274 19.638 26.591 18.465 29.48 18.465 C 31.728 18.465 33.6 19.175 35.023 20.495 L 16.16 39.385 C 16.678 40.328 17.277 41.205 17.951 42.005 C 18.086 42.165 18.226 42.318 18.366 42.47 L 18.37 42.475 C 18.531 42.651 18.697 42.822 18.865 42.989 L 18.928 43.051994 C 18.982 43.105 19.034 43.162 19.088 43.212 L 19.094 43.208004 C 21.84 45.823 25.395 47.203 29.48 47.203 C 34.156 47.203 38.15 45.406 41.032 42.005 C 43.744 38.802 45.238 34.362 45.238 29.502 C 45.238 26.219 44.554996 23.131 43.277 20.484 L 37.821 25.946 Z"/>
    </g>
</svg>
