<svg width="256" height="256" xmlns="http://www.w3.org/2000/svg">
    <g transform="matrix(0.125 0 0 0.125 0 0)">
        <path fill="#fdfdfd" stroke="none" d="M 0 0 L 2048 0 L 2048 2048 L 0 2048 Z"/>
        <path fill="#fdfdfd" stroke="none" d="M 0 0 L 2048 0 L 2048 2048 L 0 2048 Z M 984 47 L 951 49 L 909 53 L 872 58 L 832 65 L 792 74 L 761 82 L 731 91 L 695 103 L 663 115 L 632 128 L 604 141 L 579 153 L 549 169 L 525 183 L 502 197 L 475 215 L 459 226 L 441 239 L 423 253 L 409 264 L 396 275 L 385 284 L 373 295 L 365 302 L 352 314 L 339 327 L 331 334 L 319 347 L 306 360 L 299 368 L 289 379 L 280 390 L 271 400 L 260 414 L 248 429 L 236 445 L 223 463 L 203 493 L 189 515 L 175 539 L 165 557 L 151 583 L 136 614 L 121 648 L 107 684 L 93 724 L 80 768 L 71 804 L 62 848 L 55 893 L 51 927 L 48 963 L 47 984 L 47 1064 L 49 1097 L 53 1139 L 58 1176 L 64 1211 L 73 1252 L 80 1280 L 91 1317 L 103 1353 L 115 1385 L 128 1416 L 146 1455 L 156 1475 L 168 1497 L 183 1523 L 197 1546 L 215 1573 L 226 1589 L 239 1607 L 253 1625 L 264 1639 L 275 1652 L 284 1663 L 295 1675 L 302 1683 L 314 1696 L 323 1705 L 324 1707 L 326 1707 L 326 1709 L 328 1709 L 330 1713 L 337 1720 L 345 1727 L 360 1742 L 368 1749 L 379 1759 L 390 1768 L 400 1777 L 414 1788 L 429 1800 L 445 1812 L 463 1825 L 493 1845 L 512 1857 L 527 1866 L 553 1881 L 585 1898 L 614 1912 L 648 1927 L 684 1941 L 721 1954 L 754 1964 L 784 1972 L 818 1980 L 859 1988 L 900 1994 L 938 1998 L 963 2000 L 985 2001 L 1063 2001 L 1097 1999 L 1139 1995 L 1176 1990 L 1216 1983 L 1256 1974 L 1287 1966 L 1317 1957 L 1353 1945 L 1385 1933 L 1416 1920 L 1444 1907 L 1469 1895 L 1499 1879 L 1523 1865 L 1546 1851 L 1579 1829 L 1596 1817 L 1612 1805 L 1629 1792 L 1645 1779 L 1658 1768 L 1672 1756 L 1685 1744 L 1695 1735 L 1709 1721 L 1717 1714 L 1718 1711 L 1720 1711 L 1727 1703 L 1741 1689 L 1748 1681 L 1759 1669 L 1768 1658 L 1777 1648 L 1788 1634 L 1800 1619 L 1812 1603 L 1836 1569 L 1847 1552 L 1862 1528 L 1877 1502 L 1890 1478 L 1902 1455 L 1917 1423 L 1931 1390 L 1942 1361 L 1955 1324 L 1968 1280 L 1977 1244 L 1985 1205 L 1991 1169 L 1996 1131 L 2000 1085 L 2001 1064 L 2001 984 L 1999 951 L 1995 909 L 1990 872 L 1984 837 L 1975 796 L 1968 768 L 1957 731 L 1945 695 L 1933 663 L 1920 632 L 1907 604 L 1895 579 L 1879 549 L 1865 525 L 1851 502 L 1829 469 L 1817 452 L 1805 436 L 1792 419 L 1779 403 L 1768 390 L 1756 376 L 1744 363 L 1735 353 L 1721 339 L 1714 331 L 1711 330 L 1711 328 L 1703 321 L 1688 306 L 1680 299 L 1669 289 L 1658 280 L 1648 271 L 1634 260 L 1619 248 L 1603 236 L 1585 223 L 1555 203 L 1533 189 L 1509 175 L 1491 165 L 1465 151 L 1434 136 L 1400 121 L 1364 107 L 1324 93 L 1280 80 L 1244 71 L 1200 62 L 1155 55 L 1121 51 L 1085 48 L 1064 47 Z"/>
        <g transform="matrix(1 0 0 1 984 47)">
            <path fill="#6d6d71" stroke="none" d="M 0 0 L 80 0 L 113 2 L 155 6 L 192 11 L 232 18 L 272 27 L 303 35 L 333 44 L 369 56 L 401 68 L 432 81 L 460 94 L 485 106 L 515 122 L 539 136 L 562 150 L 589 168 L 605 179 L 623 192 L 641 206 L 655 217 L 668 228 L 679 237 L 691 248 L 699 255 L 712 267 L 725 280 L 727 281 L 727 283 L 731 285 L 746 301 L 758 313 L 765 321 L 775 332 L 784 343 L 793 353 L 804 367 L 816 382 L 828 398 L 852 432 L 863 449 L 878 473 L 893 499 L 906 523 L 918 546 L 933 578 L 947 611 L 958 640 L 971 677 L 984 721 L 993 757 L 1001 796 L 1007 832 L 1012 870 L 1016 916 L 1017 937 L 1017 1017 L 1015 1050 L 1011 1092 L 1006 1129 L 1000 1164 L 991 1205 L 984 1233 L 973 1270 L 961 1306 L 949 1338 L 936 1369 L 923 1397 L 911 1422 L 895 1452 L 881 1476 L 867 1499 L 845 1532 L 833 1549 L 821 1565 L 808 1582 L 795 1598 L 784 1611 L 772 1625 L 760 1638 L 749 1650 L 737 1662 L 736 1664 L 734 1664 L 732 1668 L 716 1683 L 704 1695 L 696 1702 L 685 1712 L 674 1721 L 664 1730 L 650 1741 L 635 1753 L 619 1765 L 601 1778 L 568 1800 L 544 1815 L 518 1830 L 494 1843 L 471 1855 L 439 1870 L 406 1884 L 369 1898 L 333 1910 L 303 1919 L 272 1927 L 232 1936 L 192 1943 L 147 1949 L 101 1953 L 79 1954 L 1 1954 L -33 1952 L -75 1948 L -112 1943 L -147 1937 L -188 1928 L -216 1921 L -253 1910 L -289 1898 L -321 1886 L -352 1873 L -380 1860 L -405 1848 L -435 1832 L -459 1818 L -482 1804 L -509 1786 L -525 1775 L -543 1762 L -561 1748 L -575 1737 L -588 1726 L -599 1717 L -611 1706 L -619 1699 L -632 1687 L -645 1674 L -653 1667 L -656 1664 L -656 1662 L -658 1662 L -658 1660 L -660 1660 L -667 1652 L -678 1641 L -685 1633 L -695 1622 L -704 1611 L -713 1601 L -724 1587 L -736 1572 L -748 1556 L -761 1538 L -781 1508 L -795 1486 L -809 1462 L -819 1444 L -833 1418 L -848 1387 L -863 1353 L -877 1317 L -891 1277 L -904 1233 L -913 1197 L -921 1158 L -927 1122 L -932 1084 L -936 1038 L -937 1017 L -937 937 L -935 904 L -931 862 L -926 825 L -919 785 L -910 745 L -902 714 L -893 684 L -881 648 L -869 616 L -856 585 L -843 557 L -831 532 L -815 502 L -801 478 L -787 455 L -769 428 L -758 412 L -745 394 L -731 376 L -720 362 L -709 349 L -700 338 L -689 326 L -682 318 L -670 305 L -657 292 L -650 284 L -637 272 L -624 259 L -616 252 L -605 242 L -594 233 L -584 224 L -570 213 L -555 201 L -539 189 L -521 176 L -491 156 L -469 142 L -445 128 L -427 118 L -401 104 L -370 89 L -336 74 L -300 60 L -263 47 L -230 37 L -200 29 L -166 21 L -125 13 L -84 7 L -46 3 L -21 1 Z M 5 85 L -41 88 L -85 93 L -122 99 L -161 107 L -200 117 L -230 126 L -271 140 L -299 151 L -329 164 L -362 180 L -391 195 L -415 209 L -435 221 L -462 239 L -482 253 L -501 267 L -517 280 L -531 291 L -546 304 L -557 314 L -565 321 L -581 336 L -610 365 L -617 373 L -630 387 L -639 398 L -648 408 L -670 436 L -684 455 L -696 472 L -710 493 L -722 512 L -735 534 L -751 563 L -769 599 L -784 633 L -795 661 L -805 689 L -816 723 L -826 760 L -833 790 L -841 832 L -846 868 L -850 908 L -852 942 L -852 1012 L -849 1058 L -844 1102 L -838 1139 L -830 1178 L -820 1217 L -811 1247 L -797 1288 L -786 1316 L -773 1346 L -757 1379 L -743 1406 L -730 1429 L -714 1455 L -696 1482 L -684 1499 L -670 1518 L -657 1534 L -646 1548 L -633 1563 L -623 1574 L -616 1582 L -601 1598 L -572 1627 L -564 1634 L -550 1647 L -539 1656 L -529 1665 L -501 1687 L -482 1701 L -465 1713 L -444 1727 L -425 1739 L -403 1752 L -374 1768 L -338 1786 L -304 1801 L -276 1812 L -248 1822 L -214 1833 L -177 1843 L -147 1850 L -105 1858 L -69 1863 L -29 1867 L 5 1869 L 75 1869 L 121 1866 L 165 1861 L 202 1855 L 241 1847 L 280 1837 L 310 1828 L 351 1814 L 379 1803 L 411 1789 L 440 1775 L 460 1765 L 483 1752 L 510 1736 L 535 1720 L 555 1706 L 573 1693 L 591 1679 L 607 1666 L 618 1657 L 628 1648 L 636 1641 L 646 1632 L 661 1618 L 690 1589 L 697 1581 L 710 1567 L 719 1556 L 728 1546 L 750 1518 L 764 1499 L 776 1482 L 790 1461 L 802 1442 L 815 1420 L 831 1391 L 849 1355 L 864 1321 L 875 1293 L 885 1265 L 896 1231 L 906 1194 L 913 1164 L 921 1122 L 926 1086 L 929 1058 L 932 1011 L 932 943 L 929 896 L 924 852 L 918 815 L 910 776 L 900 737 L 891 707 L 877 666 L 866 638 L 853 608 L 837 575 L 822 546 L 808 522 L 794 499 L 776 472 L 764 455 L 750 436 L 737 420 L 726 406 L 713 391 L 703 380 L 696 372 L 681 356 L 652 327 L 644 320 L 630 307 L 619 298 L 609 289 L 581 267 L 562 253 L 545 241 L 524 227 L 505 215 L 483 202 L 454 186 L 418 168 L 384 153 L 356 142 L 328 132 L 291 120 L 249 109 L 212 101 L 185 96 L 149 91 L 109 87 L 75 85 Z"/>
        </g>
        <g transform="matrix(1 0 0 1 1026 456)">
            <path fill="#2a924d" stroke="none" d="M 0 0 L 18 0 L 36 3 L 54 9 L 69 17 L 81 26 L 91 35 L 102 49 L 110 63 L 115 75 L 120 94 L 121 102 L 121 122 L 119 136 L 114 153 L 106 169 L 98 181 L 87 193 L 77 202 L 63 211 L 52 217 L 60 217 L 72 220 L 82 226 L 90 234 L 96 246 L 98 257 L 97 268 L 93 279 L 86 288 L 79 294 L 69 299 L 65 300 L 46 300 L 34 295 L 27 289 L 26 291 L 19 357 L 18 373 L 23 367 L 33 360 L 41 356 L 49 354 L 67 354 L 79 358 L 89 364 L 99 374 L 106 388 L 108 397 L 108 410 L 105 422 L 100 432 L 90 443 L 80 449 L 70 453 L 64 454 L 52 454 L 40 451 L 29 445 L 19 436 L 14 429 L 14 427 L 12 427 L 12 440 L 8 501 L 5 560 L 3 619 L 3 640 L 12 629 L 24 617 L 35 608 L 50 597 L 65 588 L 82 579 L 105 570 L 127 563 L 132 562 L 131 552 L 131 539 L 135 523 L 141 512 L 150 502 L 157 496 L 169 490 L 181 487 L 198 487 L 210 490 L 222 496 L 232 505 L 239 513 L 245 526 L 248 538 L 248 552 L 244 568 L 238 579 L 228 590 L 214 599 L 201 603 L 194 604 L 185 604 L 171 601 L 162 597 L 151 590 L 146 585 L 134 588 L 114 595 L 96 603 L 75 615 L 61 625 L 48 636 L 38 645 L 31 653 L 23 663 L 34 656 L 45 652 L 55 650 L 66 650 L 83 654 L 94 660 L 106 671 L 113 681 L 118 694 L 120 706 L 119 721 L 115 733 L 109 744 L 99 755 L 88 762 L 79 766 L 71 768 L 50 768 L 37 764 L 28 759 L 18 751 L 10 741 L 4 728 L 2 719 L 2 825 L 10 818 L 26 805 L 41 795 L 62 783 L 86 772 L 102 767 L 112 765 L 113 755 L 118 741 L 126 726 L 137 713 L 147 704 L 160 696 L 173 690 L 190 686 L 218 686 L 234 690 L 248 696 L 260 704 L 270 713 L 279 723 L 287 736 L 292 748 L 296 763 L 297 771 L 297 786 L 294 803 L 289 817 L 282 830 L 274 840 L 269 846 L 255 857 L 240 865 L 225 870 L 212 872 L 196 872 L 179 869 L 165 864 L 151 856 L 141 848 L 131 838 L 121 823 L 115 809 L 113 802 L 113 798 L 97 806 L 81 815 L 68 825 L 58 834 L 51 841 L 40 856 L 31 872 L 23 892 L 17 916 L 14 938 L 13 954 L 13 968 L 16 1023 L 21 1062 L 30 1116 L 41 1176 L 50 1230 L 55 1268 L 58 1298 L 60 1337 L 60 1353 L 59 1371 L 56 1376 L 51 1380 L 36 1387 L 12 1394 L -2 1396 L -39 1396 L -57 1393 L -74 1390 L -89 1386 L -97 1382 L -104 1374 L -105 1372 L -105 1358 L -94 1255 L -86 1174 L -78 1088 L -71 1006 L -69 953 L -69 893 L -71 855 L -76 815 L -82 787 L -88 765 L -98 739 L -107 720 L -119 700 L -131 684 L -143 670 L -161 652 L -183 634 L -185 634 L -192 642 L -202 651 L -215 659 L -226 664 L -239 668 L -256 670 L -274 669 L -290 665 L -306 658 L -317 651 L -329 640 L -337 631 L -345 618 L -351 604 L -354 593 L -355 586 L -355 562 L -352 547 L -347 534 L -340 521 L -329 507 L -319 498 L -305 489 L -292 483 L -276 479 L -269 478 L -250 478 L -234 481 L -218 487 L -204 495 L -190 507 L -179 521 L -171 536 L -166 551 L -164 563 L -164 585 L -167 600 L -169 606 L -162 606 L -158 608 L -154 614 L -140 624 L -126 636 L -116 645 L -93 668 L -84 679 L -74 692 L -62 710 L -50 731 L -49 729 L -42 638 L -42 610 L -46 564 L -50 533 L -57 496 L -64 470 L -71 449 L -80 429 L -89 413 L -99 399 L -112 385 L -125 375 L -129 373 L -132 370 L -144 375 L -162 379 L -189 379 L -210 374 L -225 367 L -239 358 L -251 347 L -259 338 L -267 325 L -274 309 L -278 293 L -279 285 L -279 267 L -276 249 L -269 230 L -260 215 L -248 202 L -241 195 L -231 188 L -216 180 L -201 175 L -182 172 L -168 172 L -150 175 L -135 180 L -120 188 L -108 197 L -95 210 L -86 223 L -78 240 L -74 254 L -72 267 L -72 285 L -75 302 L -80 317 L -88 332 L -98 345 L -98 348 L -87 359 L -74 376 L -63 394 L -51 417 L -41 442 L -31 472 L -30 476 L -29 474 L -20 368 L -11 272 L -6 223 L -17 222 L -35 216 L -52 207 L -64 198 L -78 184 L -87 171 L -95 156 L -100 141 L -103 125 L -103 100 L -99 80 L -93 65 L -85 50 L -77 40 L -68 30 L -54 19 L -40 11 L -25 5 L -8 1 Z"/>
        </g>
        <g transform="matrix(1 0 0 1 508 728)">
            <path fill="#2a924d" stroke="none" d="M 0 0 L 9 0 L 25 2 L 43 8 L 56 15 L 69 25 L 76 32 L 85 44 L 93 60 L 97 72 L 99 83 L 99 108 L 95 126 L 88 141 L 79 155 L 70 165 L 60 173 L 47 181 L 31 187 L 17 190 L -8 190 L -25 186 L -40 180 L -55 170 L -66 160 L -76 147 L -84 131 L -89 115 L -90 109 L -90 82 L -86 65 L -81 53 L -74 41 L -65 30 L -58 23 L -44 13 L -29 6 L -15 2 Z"/>
        </g>
        <g transform="matrix(1 0 0 1 1331 794)">
            <path fill="#2a924d" stroke="none" d="M 0 0 L 9 0 L 25 2 L 40 7 L 55 15 L 65 23 L 75 33 L 85 48 L 91 63 L 94 74 L 95 82 L 95 99 L 92 115 L 87 128 L 82 138 L 73 150 L 63 160 L 53 167 L 37 175 L 24 179 L 8 181 L -9 180 L -25 176 L -38 170 L -52 161 L -66 147 L -75 133 L -80 122 L -84 108 L -85 102 L -85 79 L -81 61 L -73 44 L -65 33 L -57 24 L -44 14 L -28 6 L -15 2 Z"/>
        </g>
        <g transform="matrix(1 0 0 1 1306 300)">
            <path fill="#2a924d" stroke="none" d="M 0 0 L 22 0 L 36 3 L 49 8 L 60 14 L 69 21 L 78 29 L 89 44 L 96 59 L 100 75 L 101 83 L 101 97 L 98 114 L 92 130 L 83 144 L 74 154 L 67 161 L 56 168 L 44 174 L 31 178 L 18 180 L 4 180 L -9 178 L -25 173 L -41 164 L -54 153 L -63 142 L -71 128 L -76 115 L -79 99 L -79 80 L -76 65 L -71 52 L -64 39 L -55 28 L -48 21 L -35 12 L -23 6 L -11 2 Z"/>
        </g>
        <g transform="matrix(1 0 0 1 520 1129)">
            <path fill="#fe9416" stroke="none" d="M 0 0 L 14 0 L 30 3 L 45 9 L 56 16 L 68 27 L 77 39 L 84 54 L 88 70 L 88 93 L 84 108 L 79 120 L 71 132 L 64 140 L 51 150 L 35 158 L 19 162 L -5 162 L -21 158 L -37 150 L -47 142 L -57 132 L -65 120 L -71 105 L -74 90 L -74 71 L -70 54 L -62 38 L -53 26 L -46 19 L -31 9 L -16 3 Z"/>
        </g>
        <g transform="matrix(1 0 0 1 933 307)">
            <path fill="#fe9416" stroke="none" d="M 0 0 L 25 0 L 40 4 L 52 9 L 65 18 L 76 29 L 85 43 L 90 55 L 93 66 L 94 73 L 94 88 L 91 104 L 85 119 L 77 131 L 69 140 L 59 148 L 48 154 L 36 159 L 28 161 L 19 162 L 6 162 L -10 159 L -23 154 L -35 147 L -47 136 L -55 126 L -62 114 L -67 98 L -68 92 L -68 69 L -64 53 L -56 37 L -49 27 L -47 27 L -45 23 L -33 13 L -18 5 L -5 1 Z"/>
        </g>
        <g transform="matrix(1 0 0 1 514 513)">
            <path fill="#2a924d" stroke="none" d="M 0 0 L 18 1 L 35 6 L 49 14 L 62 25 L 72 39 L 78 52 L 81 62 L 82 69 L 82 88 L 78 105 L 70 121 L 62 131 L 54 139 L 40 148 L 28 153 L 15 156 L -6 156 L -22 152 L -38 144 L -46 138 L -53 132 L -62 120 L -69 106 L -73 92 L -74 83 L -74 73 L -71 56 L -66 44 L -60 33 L -49 21 L -38 12 L -21 4 L -9 1 Z"/>
        </g>
        <g transform="matrix(1 0 0 1 1339 500)">
            <path fill="#2a924d" stroke="none" d="M 0 0 L 20 0 L 36 4 L 52 12 L 61 19 L 71 29 L 79 42 L 84 54 L 87 68 L 87 86 L 84 100 L 79 112 L 72 124 L 64 133 L 62 133 L 62 135 L 51 143 L 37 150 L 22 154 L -3 154 L -18 150 L -35 141 L -47 130 L -54 122 L -60 112 L -65 99 L -68 82 L -68 72 L -65 56 L -60 43 L -53 31 L -42 19 L -30 10 L -14 3 Z"/>
        </g>
        <g transform="matrix(1 0 0 1 1666 874)">
            <path fill="#2a924d" stroke="none" d="M 0 0 L 12 0 L 28 3 L 42 9 L 53 17 L 64 28 L 72 41 L 77 55 L 79 66 L 79 80 L 76 95 L 70 109 L 62 120 L 51 131 L 38 139 L 24 144 L 14 146 L -1 146 L -19 142 L -33 135 L -43 127 L -51 119 L -58 108 L -63 97 L -66 86 L -67 69 L -64 52 L -59 40 L -53 30 L -44 20 L -36 13 L -25 7 L -12 2 Z"/>
        </g>
        <g transform="matrix(1 0 0 1 1098 305)">
            <path fill="#2a924d" stroke="none" d="M 0 0 L 15 0 L 30 3 L 40 7 L 52 15 L 62 24 L 69 34 L 75 46 L 79 61 L 79 81 L 75 96 L 67 112 L 56 124 L 46 132 L 34 138 L 20 142 L -4 142 L -21 137 L -33 130 L -43 121 L -51 112 L -57 102 L -62 87 L -63 82 L -63 61 L -60 48 L -52 32 L -44 22 L -34 13 L -22 6 L -11 2 Z"/>
        </g>
        <g transform="matrix(1 0 0 1 574 357)">
            <path fill="#2a924d" stroke="none" d="M 0 0 L 21 0 L 33 3 L 49 11 L 61 22 L 69 32 L 75 45 L 78 56 L 79 72 L 76 89 L 71 100 L 65 110 L 61 115 L 59 115 L 57 119 L 46 127 L 36 132 L 23 136 L 6 137 L -10 134 L -22 129 L -33 122 L -44 111 L -52 98 L -56 88 L -58 79 L -58 58 L -54 43 L -48 31 L -40 21 L -30 12 L -20 6 L -10 2 Z"/>
        </g>
        <g transform="matrix(1 0 0 1 736 382)">
            <path fill="#2a924d" stroke="none" d="M 0 0 L 22 0 L 38 5 L 49 11 L 61 22 L 69 33 L 74 45 L 77 57 L 77 73 L 74 87 L 66 103 L 58 113 L 48 121 L 34 128 L 18 132 L 4 132 L -10 129 L -26 121 L -35 114 L -43 105 L -50 93 L -54 81 L -55 76 L -55 55 L -50 39 L -44 28 L -35 18 L -27 11 L -19 6 L -5 1 Z"/>
        </g>
        <g transform="matrix(1 0 0 1 793 232)">
            <path fill="#2a924d" stroke="none" d="M 0 0 L 19 0 L 34 4 L 47 11 L 57 20 L 64 28 L 71 42 L 74 53 L 75 69 L 72 84 L 67 96 L 60 106 L 49 117 L 37 124 L 25 128 L 20 129 L -1 129 L -15 125 L -26 119 L -37 110 L -45 100 L -51 88 L -55 72 L -55 57 L -51 41 L -44 28 L -36 18 L -26 10 L -12 3 Z"/>
        </g>
        <g transform="matrix(1 0 0 1 814 1132)">
            <path fill="#2a924d" stroke="none" d="M 0 0 L 11 0 L 23 2 L 36 7 L 46 14 L 55 22 L 62 32 L 67 43 L 70 54 L 70 76 L 66 90 L 60 101 L 51 112 L 39 121 L 26 127 L 18 129 L 3 130 L -11 128 L -24 123 L -37 114 L -45 106 L -53 93 L -58 78 L -59 72 L -59 57 L -55 41 L -48 28 L -37 16 L -26 8 L -15 3 Z"/>
        </g>
        <g transform="matrix(1 0 0 1 1167 714)">
            <path fill="#fe9416" stroke="none" d="M 0 0 L 12 0 L 24 2 L 37 7 L 47 14 L 58 25 L 65 37 L 69 49 L 70 54 L 70 72 L 67 84 L 59 100 L 48 112 L 37 119 L 25 124 L 16 126 L -1 126 L -17 122 L -28 116 L -38 107 L -46 98 L -53 83 L -56 68 L -56 59 L -53 43 L -45 27 L -34 15 L -24 8 L -13 3 Z"/>
        </g>
        <g transform="matrix(1 0 0 1 1316 1008)">
            <path fill="#fe9416" stroke="none" d="M 0 0 L 15 1 L 28 5 L 39 11 L 51 22 L 58 32 L 63 43 L 66 56 L 66 71 L 63 84 L 56 98 L 48 108 L 37 117 L 24 123 L 12 126 L -6 126 L -18 123 L -34 115 L -45 105 L -54 91 L -58 81 L -60 71 L -60 56 L -56 40 L -51 30 L -44 21 L -37 14 L -26 7 L -13 2 Z"/>
        </g>
        <g transform="matrix(1 0 0 1 363 630)">
            <path fill="#2a924d" stroke="none" d="M 0 0 L 14 0 L 30 4 L 42 10 L 52 19 L 60 28 L 66 40 L 69 51 L 69 74 L 65 87 L 59 98 L 48 110 L 38 117 L 27 122 L 18 124 L -4 124 L -17 120 L -28 114 L -38 105 L -44 98 L -52 82 L -55 68 L -55 57 L -52 43 L -47 31 L -37 18 L -27 10 L -13 3 Z"/>
        </g>
        <g transform="matrix(1 0 0 1 1562 1047)">
            <path fill="#2a924d" stroke="none" d="M 0 0 L 23 0 L 36 4 L 47 10 L 59 21 L 66 31 L 71 42 L 74 57 L 74 67 L 71 81 L 67 91 L 59 102 L 54 107 L 46 114 L 34 120 L 18 124 L 5 124 L -11 120 L -23 114 L -31 108 L -38 100 L -45 89 L -50 74 L -51 59 L -49 45 L -44 33 L -37 22 L -28 13 L -17 6 L -8 2 Z"/>
        </g>
        <g transform="matrix(1 0 0 1 647 658)">
            <path fill="#fe9416" stroke="none" d="M 0 0 L 13 0 L 26 3 L 38 8 L 48 16 L 56 24 L 63 36 L 67 48 L 68 54 L 68 69 L 64 85 L 56 99 L 44 111 L 30 119 L 15 123 L -2 123 L -17 119 L -28 113 L -38 104 L -45 96 L -52 82 L -55 68 L -55 55 L -53 45 L -48 32 L -40 21 L -32 13 L -19 5 L -6 1 Z"/>
        </g>
        <g transform="matrix(1 0 0 1 1193 583)">
            <path fill="#fe9416" stroke="none" d="M 0 0 L 20 0 L 31 3 L 45 10 L 57 21 L 64 31 L 69 43 L 71 51 L 71 71 L 68 83 L 61 96 L 52 106 L 45 112 L 29 120 L 21 122 L -1 122 L -14 118 L -24 113 L -36 102 L -43 93 L -49 80 L -51 72 L -51 50 L -47 37 L -41 26 L -32 16 L -25 10 L -9 2 Z"/>
        </g>
        <g transform="matrix(1 0 0 1 722 802)">
            <path fill="#2a924d" stroke="none" d="M 0 0 L 19 0 L 31 3 L 46 11 L 53 17 L 61 27 L 68 42 L 70 51 L 70 71 L 66 84 L 60 95 L 53 104 L 43 112 L 28 119 L 20 121 L -1 121 L -14 117 L -24 112 L -34 103 L -42 94 L -48 82 L -51 71 L -51 50 L -47 37 L -42 27 L -34 17 L -22 8 L -12 3 Z"/>
        </g>
        <g transform="matrix(1 0 0 1 1000 196)">
            <path fill="#2a924d" stroke="none" d="M 0 0 L 21 0 L 34 4 L 45 10 L 55 19 L 62 28 L 67 38 L 70 48 L 71 64 L 69 76 L 64 88 L 57 99 L 50 106 L 36 115 L 24 119 L 19 120 L 2 120 L -13 116 L -25 109 L -35 100 L -44 87 L -49 72 L -50 65 L -50 55 L -47 40 L -40 26 L -31 16 L -23 9 L -8 2 Z"/>
        </g>
        <g transform="matrix(1 0 0 1 1500 816)">
            <path fill="#2a924d" stroke="none" d="M 0 0 L 18 0 L 32 4 L 43 10 L 53 19 L 61 29 L 67 43 L 69 53 L 69 67 L 65 83 L 59 94 L 50 104 L 42 111 L 30 117 L 18 120 L -1 120 L -12 117 L -26 110 L -38 99 L -45 88 L -49 79 L -51 71 L -51 49 L -47 36 L -40 24 L -31 14 L -17 5 L -5 1 Z"/>
        </g>
        <g transform="matrix(1 0 0 1 1304 664)">
            <path fill="#2a924d" stroke="none" d="M 0 0 L 12 0 L 28 4 L 39 10 L 51 21 L 57 30 L 62 41 L 64 50 L 64 67 L 61 79 L 55 91 L 46 101 L 38 108 L 26 114 L 14 117 L -3 117 L -17 113 L -28 107 L -40 96 L -47 85 L -52 71 L -53 63 L -53 54 L -50 39 L -44 27 L -36 17 L -26 9 L -14 3 Z"/>
        </g>
        <g transform="matrix(1 0 0 1 1454 417)">
            <path fill="#2a924d" stroke="none" d="M 0 0 L 18 0 L 30 3 L 43 10 L 54 20 L 61 31 L 66 43 L 67 48 L 67 68 L 63 82 L 57 92 L 48 102 L 39 109 L 28 114 L 13 117 L 5 117 L -10 114 L -24 107 L -34 98 L -40 91 L -46 79 L -49 68 L -50 57 L -48 43 L -43 31 L -36 20 L -29 13 L -18 6 L -9 2 Z"/>
        </g>
        <g transform="matrix(1 0 0 1 592 1018)">
            <path fill="#2a924d" stroke="none" d="M 0 0 L 21 0 L 34 4 L 46 11 L 58 23 L 66 39 L 69 52 L 69 64 L 65 80 L 59 91 L 50 101 L 43 107 L 31 113 L 20 116 L 0 116 L -13 112 L -24 106 L -34 97 L -43 83 L -47 72 L -48 66 L -48 50 L -45 38 L -38 24 L -28 13 L -17 6 L -5 1 Z"/>
        </g>
        <g transform="matrix(1 0 0 1 1195 200)">
            <path fill="#2a924d" stroke="none" d="M 0 0 L 20 0 L 34 4 L 46 11 L 57 22 L 63 32 L 67 42 L 69 51 L 69 65 L 66 78 L 58 93 L 51 101 L 38 110 L 25 115 L 21 116 L 0 116 L -13 112 L -24 106 L -33 98 L -42 85 L -46 75 L -48 66 L -48 50 L -45 38 L -39 26 L -30 15 L -19 7 L -8 2 Z"/>
        </g>
        <g transform="matrix(1 0 0 1 1481 569)">
            <path fill="#fe9416" stroke="none" d="M 0 0 L 13 0 L 28 4 L 38 9 L 48 18 L 54 25 L 60 37 L 63 49 L 63 64 L 60 76 L 54 88 L 45 98 L 38 104 L 26 110 L 15 113 L -2 113 L -18 108 L -29 101 L -38 92 L -44 82 L -48 72 L -50 62 L -50 51 L -48 41 L -43 29 L -36 19 L -26 10 L -12 3 Z"/>
        </g>
        <g transform="matrix(1 0 0 1 860 856)">
            <path fill="#2a924d" stroke="none" d="M 0 0 L 20 0 L 33 4 L 43 10 L 53 19 L 60 30 L 64 40 L 66 52 L 65 66 L 61 78 L 56 87 L 47 97 L 39 103 L 29 108 L 16 111 L 4 111 L -12 107 L -24 100 L -35 89 L -42 77 L -46 61 L -46 52 L -44 40 L -39 28 L -32 18 L -22 9 L -8 2 Z"/>
        </g>
        <g transform="matrix(1 0 0 1 686 1126)">
            <path fill="#2a924d" stroke="none" d="M 0 0 L 12 0 L 25 3 L 37 9 L 49 20 L 56 31 L 60 44 L 61 57 L 58 73 L 51 86 L 42 96 L 32 103 L 18 108 L 11 109 L 1 109 L -15 105 L -27 98 L -37 88 L -43 78 L -47 67 L -48 62 L -48 47 L -45 35 L -39 24 L -30 14 L -21 7 L -9 2 Z"/>
        </g>
        <g transform="matrix(1 0 0 1 470 936)">
            <path fill="#2a924d" stroke="none" d="M 0 0 L 15 0 L 29 4 L 39 10 L 48 18 L 55 29 L 59 39 L 61 51 L 60 64 L 56 76 L 50 86 L 44 93 L 34 100 L 23 105 L 13 107 L 2 107 L -8 105 L -20 100 L -29 93 L -38 83 L -44 70 L -46 62 L -46 45 L -42 31 L -35 20 L -25 10 L -9 2 Z"/>
        </g>
        <g transform="matrix(1 0 0 1 614 898)">
            <path fill="#2a924d" stroke="none" d="M 0 0 L 15 0 L 28 4 L 38 10 L 45 16 L 52 26 L 57 39 L 58 46 L 58 55 L 55 69 L 49 80 L 40 90 L 30 96 L 20 100 L 16 101 L -2 101 L -14 97 L -24 91 L -34 81 L -42 65 L -43 60 L -43 41 L -39 29 L -33 19 L -24 10 L -14 4 L -5 1 Z"/>
        </g>
        <g transform="matrix(1 0 0 1 919 989)">
            <path fill="#fe9416" stroke="none" d="M 0 0 L 17 0 L 30 4 L 41 11 L 49 19 L 55 29 L 58 38 L 59 44 L 59 57 L 56 69 L 50 80 L 43 88 L 33 95 L 20 100 L 5 101 L -6 99 L -16 95 L -25 88 L -33 80 L -40 66 L -42 56 L -42 44 L -39 32 L -33 21 L -24 11 L -13 4 Z"/>
        </g>
        <g transform="matrix(1 0 0 1 856 486)">
            <path fill="#2a924d" stroke="none" d="M 0 0 L 12 0 L 24 3 L 35 9 L 45 18 L 51 28 L 55 39 L 56 45 L 56 55 L 53 68 L 47 79 L 39 88 L 28 95 L 17 99 L 10 100 L 2 100 L -12 97 L -23 91 L -32 83 L -39 72 L -43 61 L -44 55 L -44 45 L -41 32 L -35 21 L -26 11 L -12 3 Z"/>
        </g>
        <g transform="matrix(1 0 0 1 703 540)">
            <path fill="#2a924d" stroke="none" d="M 0 0 L 16 0 L 29 4 L 39 10 L 48 19 L 54 29 L 57 38 L 58 44 L 58 56 L 55 68 L 49 79 L 42 87 L 32 94 L 22 98 L 18 99 L -1 99 L -14 95 L -24 88 L -32 80 L -38 70 L -41 60 L -42 46 L -39 32 L -32 19 L -23 10 L -11 3 Z"/>
        </g>
        <g transform="matrix(1 0 0 1 1196 440)">
            <path fill="#2a924d" stroke="none" d="M 0 0 L 10 0 L 20 2 L 36 10 L 45 19 L 51 29 L 55 42 L 55 58 L 51 71 L 44 82 L 36 90 L 26 96 L 17 99 L 11 100 L 0 100 L -13 97 L -24 91 L -31 85 L -40 72 L -44 60 L -44 40 L -40 29 L -34 19 L -25 10 L -15 4 L -6 1 Z"/>
        </g>
        <g transform="matrix(1 0 0 1 1437 953)">
            <path fill="#2a924d" stroke="none" d="M 0 0 L 19 0 L 32 5 L 41 11 L 48 18 L 54 28 L 57 37 L 58 42 L 58 54 L 55 66 L 49 77 L 42 85 L 31 92 L 20 96 L 16 97 L 3 97 L -8 94 L -18 89 L -28 80 L -34 71 L -38 61 L -39 57 L -39 39 L -35 27 L -28 16 L -19 8 L -7 2 Z"/>
        </g>
        <g transform="matrix(1 0 0 1 1504 1183)">
            <path fill="#2a924d" stroke="none" d="M 0 0 L 18 0 L 30 4 L 40 11 L 48 20 L 53 30 L 55 38 L 55 54 L 51 66 L 45 75 L 41 80 L 31 87 L 21 91 L 16 92 L 2 92 L -11 88 L -22 81 L -30 72 L -36 59 L -37 54 L -37 38 L -33 25 L -26 15 L -17 7 L -7 2 Z"/>
        </g>
        <g transform="matrix(1 0 0 1 1094 929)">
            <path fill="#2a924d" stroke="none" d="M 0 0 L 10 0 L 22 3 L 32 9 L 38 14 L 45 25 L 48 32 L 49 37 L 49 52 L 45 64 L 38 74 L 29 82 L 18 87 L 14 88 L -4 88 L -15 84 L -24 78 L -33 68 L -38 56 L -39 52 L -39 37 L -36 27 L -31 18 L -25 11 L -14 4 L -6 1 Z"/>
        </g>
        <g transform="matrix(1 0 0 1 1367 1168)">
            <path fill="#2a924d" stroke="none" d="M 0 0 L 12 0 L 25 4 L 36 12 L 43 21 L 47 31 L 48 35 L 48 49 L 44 62 L 38 70 L 31 77 L 19 83 L 8 85 L -3 84 L -14 80 L -25 72 L -32 62 L -35 55 L -36 50 L -36 34 L -32 23 L -26 14 L -18 7 L -8 2 Z"/>
        </g>
        <g transform="matrix(1 0 0 1 1536 939)">
            <path fill="#2a924d" stroke="none" d="M 0 0 L 18 0 L 29 4 L 37 10 L 45 19 L 49 27 L 51 35 L 51 49 L 47 61 L 39 72 L 30 79 L 20 83 L 15 84 L 3 84 L -10 80 L -20 73 L -27 65 L -32 54 L -33 50 L -33 33 L -28 20 L -21 11 L -11 4 Z"/>
        </g>
        <g transform="matrix(1 0 0 1 1434 1086)">
            <path fill="#2a924d" stroke="none" d="M 0 0 L 12 1 L 23 5 L 31 11 L 39 20 L 44 32 L 45 36 L 45 49 L 42 59 L 36 69 L 34 72 L 32 72 L 32 74 L 21 81 L 8 85 L -2 85 L -14 82 L -25 75 L -33 66 L -37 58 L -39 52 L -39 33 L -34 21 L -27 12 L -19 6 L -7 1 Z"/>
        </g>
        <g transform="matrix(1 0 0 1 1163 1052)">
            <path fill="#2a924d" stroke="none" d="M 0 0 L 11 0 L 24 4 L 34 11 L 41 19 L 46 31 L 47 35 L 47 48 L 43 61 L 35 72 L 27 78 L 19 82 L 9 84 L 1 84 L -11 81 L -22 74 L -30 65 L -34 57 L -36 51 L -36 33 L -31 20 L -22 10 L -13 4 Z"/>
        </g>
        <g transform="matrix(1 0 0 1 1418 725)">
            <path fill="#2a924d" stroke="none" d="M 0 0 L 15 0 L 27 4 L 35 10 L 42 17 L 47 27 L 49 35 L 49 47 L 46 57 L 40 67 L 33 74 L 24 79 L 14 82 L 1 82 L -11 78 L -22 70 L -28 62 L -32 53 L -33 49 L -33 33 L -29 22 L -23 13 L -15 6 L -4 1 Z"/>
        </g>
        <g transform="matrix(1 0 0 1 1169 863)">
            <path fill="#2a924d" stroke="none" d="M 0 0 L 17 0 L 28 4 L 36 10 L 44 19 L 49 31 L 50 37 L 50 45 L 47 57 L 40 68 L 32 75 L 22 80 L 13 82 L 5 82 L -5 80 L -15 75 L -22 69 L -28 60 L -32 50 L -32 32 L -28 21 L -22 13 L -13 5 L -4 1 Z"/>
        </g>
        <g transform="matrix(1 0 0 1 367 1014)">
            <path fill="#2a924d" stroke="none" d="M 0 0 L 8 0 L 20 3 L 31 10 L 38 18 L 43 28 L 45 38 L 44 51 L 40 61 L 36 67 L 32 72 L 23 78 L 13 82 L -6 82 L -18 77 L -28 68 L -34 59 L -37 50 L -37 32 L -32 20 L -26 12 L -18 6 L -6 1 Z"/>
        </g>
        <g transform="matrix(1 0 0 1 472 1048)">
            <path fill="#2a924d" stroke="none" d="M 0 0 L 12 1 L 22 5 L 31 12 L 38 23 L 40 29 L 41 40 L 39 50 L 34 60 L 28 67 L 18 73 L 7 76 L -2 76 L -12 73 L -22 67 L -29 59 L -34 48 L -35 43 L -35 33 L -32 23 L -26 13 L -18 6 L -6 1 Z"/>
        </g>
        <g transform="matrix(1 0 0 1 1606 799)">
            <path fill="#2a924d" stroke="none" d="M 0 0 L 13 1 L 22 5 L 30 11 L 36 18 L 40 27 L 41 31 L 41 45 L 37 56 L 31 64 L 23 71 L 13 75 L 0 76 L -12 73 L -21 67 L -29 58 L -33 49 L -34 45 L -34 31 L -30 20 L -24 12 L -17 6 L -9 2 Z"/>
        </g>
        <g transform="matrix(1 0 0 1 1527 721)">
            <path fill="#2a924d" stroke="none" d="M 0 0 L 16 0 L 26 4 L 35 12 L 41 24 L 42 29 L 42 38 L 39 48 L 33 57 L 24 64 L 16 67 L 0 67 L -10 63 L -19 55 L -25 43 L -26 39 L -26 28 L -23 18 L -16 9 L -8 3 Z"/>
        </g>
    </g>
</svg>
