<svg width="256" height="256" xmlns="http://www.w3.org/2000/svg">
    <g id="g460" transform="matrix(0.32 0 0 0.32 -35.839996 -35.839993)">
        <g id="g5" transform="matrix(25.46392 0 0 25.522413 104.58999 103.65415)">
            <g id="g7">
                <g id="g9">
                    <path id="path11" fill="#fb8a61" stroke="none" d="M 11.141 11.328 L 11.141 16.427 C 11.141 19.242 13.424999 21.525997 16.243 21.525997 C 19.058 21.525997 21.342 19.243 21.342 16.427 C 21.342 13.611 19.059 11.328 16.243 11.328 C 16.237 11.328 16.228 11.328 16.222 11.328 L 16.222 11.328 Z"/>
                    <path id="path13" fill="#fb8a61" stroke="none" d="M 17.047 0.327 L 14.991 0.327 L 11.14 0.327 L 11.14 6.226 L 16.221 6.226 L 16.221 6.226 C 16.227 6.226 16.236 6.226 16.242 6.226 C 21.875 6.226 26.441002 10.794 26.441002 16.426 C 26.441002 22.057999 21.875 26.626 16.242 26.626 C 10.607 26.626 6.044 22.057999 6.044 16.426 L 6.044 11.326999 L 0.291 11.326999 L 0.291 15.993 L 0.328 15.993 C 0.337 24.653 7.357 31.672 16.019 31.672 C 24.685 31.672 31.708002 24.648 31.708002 15.979 C 31.709 7.661 25.233002 0.855 17.047 0.327 Z"/>
                </g>
            </g>
        </g>
        <path id="rect15" fill="#fb8a61" stroke="none" d="M 112.00559 112.0097 L 257.0481 112.0097 L 257.0481 263.66388 L 112.00559 263.66388 Z"/>
    </g>
</svg>
