<svg width="1807.8217" height="1807.8217" xmlns="http://www.w3.org/2000/svg">
    <defs>
        <radialGradient id="radial-gradient" cx="399.7" cy="984.99" r="815.27" fx="-207.13538" fy="667.8809" gradientUnits="userSpaceOnUse" gradientTransform="matrix(0.9344516 0 0 0.96194273 -170.36488 -210.06516)">
            <stop offset="0.33" stop-color="#00b7b0"/>
            <stop offset="0.96" stop-color="#0084c3"/>
        </radialGradient>
        <radialGradient id="radial-gradient-2" cx="569.32" cy="1978" r="1152.54" fx="569.32" fy="1978" gradientUnits="userSpaceOnUse" gradientTransform="matrix(0.9344516 0 0 0.96194273 -170.36488 -210.06516)">
            <stop offset="0.24" stop-color="#00b8ae"/>
            <stop offset="0.53" stop-color="#00aab7"/>
            <stop offset="1" stop-color="#008acb"/>
        </radialGradient>
        <radialGradient id="radial-gradient-3" cx="1220.1" cy="1254.94" r="940.12" fx="1220.1" fy="1254.94" gradientUnits="userSpaceOnUse" gradientTransform="matrix(0.9344516 0 0 0.96194273 -170.36488 -210.06516)">
            <stop offset="0.13" stop-color="#58c4c1"/>
            <stop offset="0.71" stop-color="#1b9abf"/>
            <stop offset="0.95" stop-color="#0088be"/>
        </radialGradient>
        <radialGradient id="radial-gradient-4" cx="1370.19" cy="884.13" r="876.09" fx="1160.2882" fy="671.25757" gradientUnits="userSpaceOnUse" gradientTransform="matrix(0.9344516 0 0 0.96194273 -170.36488 -210.06516)">
            <stop offset="0.13" stop-color="#6bc6c4"/>
            <stop offset="0.61" stop-color="#2ea0bd"/>
            <stop offset="0.96" stop-color="#0084b8"/>
        </radialGradient>
    </defs>
    <path id="path1228" fill="url(#radial-gradient)" stroke="none" d="M 4.377567 134.24301 C 8.479818 137.2539 11.22709 139.05273 13.722082 141.169 C 106.85887 218.38419 199.81812 295.82056 289.26382 377.52798 C 319.51202 405.16455 347.82593 435.05212 376.87805 464.1028 Q 573.32776 660.3391 765.93695 860.529 Q 784.0092 879.31586 801.9694 898.22754 C 804.3149 900.6998 806.45483 903.374 809.28613 906.63495 C 806.7818 909.42456 804.8662 911.8199 802.6796 913.93604 C 756.55505 958.3875 710.91644 1003.4448 664.1004 1047.194 Q 575.22473 1130.2194 484.73242 1211.417 C 448.44766 1244.123 410.9668 1275.4824 371.51425 1304.1771 C 365.5244 1308.5251 359.3103 1312.5364 353.19904 1316.6823 C 350.2648 1318.1829 349.82565 1318.5005 351.37683 1314.9797 C 352.8159 1312.4305 354.11478 1309.7948 355.70337 1307.3611 C 377.78445 1273.5103 402.6502 1241.8625 427.8617 1210.4935 C 506.8976 1112.1636 589.83954 1017.37384 672.2862 922.1415 C 685.7984 906.5196 686.1161 909.56885 671.35175 894.6491 C 543.6122 765.84503 418.54523 634.3859 297.7393 498.74234 C 200.1078 389.11935 105.29833 276.88953 18.926973 157.48357 C 14.469643 151.32713 10.180512 145.0264 5.8446565 138.74492 C 5.3961143 138.06194 5.312007 137.11925 4.377567 134.24301 Z"/>
    <path id="path1230" fill="url(#radial-gradient-2)" stroke="none" d="M 189.16539 1792.2958 C 190.98755 1789.5542 192.66022 1786.678 194.65994 1784.0903 C 217.1335 1754.9819 239.18657 1725.5177 262.26752 1696.919 C 333.28586 1608.8629 407.81772 1523.904 482.92896 1439.5128 Q 638.21606 1265.0356 800.5865 1097.523 Q 853.5978 1042.6055 906.6373 987.70746 C 909.8704 984.3598 913.4962 981.40674 917.59845 977.6744 C 920.598 980.36786 923.2612 982.4841 925.5787 984.8697 C 1040.2452 1104.9587 1151.0806 1228.6165 1253.674 1359.893 C 1273.1759 1384.8456 1291.5192 1410.77 1310.3392 1436.2808 C 1312.2079 1438.7625 1313.5817 1441.5616 1315.5533 1444.8228 C 1311.0774 1446.256 1308.8534 1443.6685 1306.5546 1441.9369 C 1281.773 1423.0829 1256.5614 1404.7675 1232.3872 1385.1245 C 1164.6581 1330.0918 1099.4521 1271.9424 1034.2834 1213.7448 Q 984.1968 1168.9856 934.1569 1124.1494 C 926.5972 1117.4159 925.9432 1117.4159 918.7759 1124.3322 C 862.3911 1179.163 806.42676 1234.4073 749.54663 1288.6514 Q 620.3868 1411.7705 490.07748 1533.7736 C 437.02866 1583.2847 382.94257 1631.6609 328.7818 1679.912 C 287.1146 1717.0333 244.73721 1753.3274 200.2947 1786.957 C 197.16428 1789.3232 193.94041 1791.5453 190.75395 1793.8444 Z"/>
    <path id="path1232" fill="url(#radial-gradient-3)" stroke="none" d="M 1471.0834 493.4613 C 1465.1779 502.3785 1461.1973 509.81433 1454.7961 518.3083 C 1427.7623 554.3138 1401.0839 590.62714 1373.1062 625.8535 C 1301.1534 716.45886 1226.874 805.0153 1151.4261 892.53284 C 1150.8 893.2448 1150.1835 893.97565 1149.5573 894.7068 C 1144.2964 901.1808 1144.2404 902.0273 1150.1461 908.1741 C 1167.611 926.451 1185.2067 944.62195 1202.6436 962.9374 C 1340.8864 1108.0851 1476.7931 1255.4932 1608.3265 1407.1241 C 1665.571 1473.1232 1721.9836 1539.8722 1774.528 1609.9498 C 1782.7043 1620.8488 1790.5444 1632.0746 1798.4873 1643.1082 C 1799.9559 1645.0381 1800.802 1647.3923 1800.9075 1649.8416 C 1797.9828 1647.783 1794.9832 1645.8207 1792.133 1643.6466 C 1746.784 1609.1417 1703.3601 1572.2129 1660.4502 1534.5242 C 1550.5493 1437.8871 1444.2458 1337.1718 1338.9987 1235.2346 Q 1199.1581 1099.8026 1063.3354 960.11896 C 1048.571 944.94916 1033.9563 929.6156 1019.3042 914.3113 C 1017.155 912.06995 1015.2393 909.58826 1012.5853 906.4811 C 1014.89355 903.7973 1016.7065 901.3251 1018.8649 899.2183 C 1068.7179 850.3806 1117.9167 800.80194 1168.6857 753.00305 Q 1255.1691 671.565 1344.1008 592.8877 C 1381.3668 559.89307 1420.6418 529.3033 1459.0385 497.65536 C 1462.6267 494.71182 1464.0096 493.8076 1467.7662 491.04684 C 1471.364 488.5554 1472.317 489.26724 1472.317 489.26724 C 1472.317 489.26724 1472.9991 489.72897 1471.0834 493.4613 Z"/>
    <path id="path1234" fill="url(#radial-gradient-4)" stroke="none" d="M 1630.8188 37.308064 C 1603.841 74.48714 1493.6785 206.79274 1420.567 290.703 C 1259.29 475.9347 1092.8079 655.9527 916.72003 827.5631 C 913.0943 824.2157 910.2817 821.79156 907.64655 819.18475 C 859.2606 771.0203 813.9678 719.82574 769.23553 668.1597 C 697.5911 585.3364 627.7689 500.9067 560.85284 413.9279 C 549.34973 398.84464 538.1363 383.45355 526.82947 368.1298 C 524.45593 364.9073 522.4188 361.39618 520.23224 358.06784 L 521.6619 356.39407 C 524.6428 358.31796 527.7826 360.00137 530.56726 362.16574 C 571.97284 394.5159 613.911 426.183 654.5877 459.47583 Q 770.1513 554.04443 879.06165 656.67413 C 888.04175 665.0911 896.8162 673.75824 905.60944 682.358 C 915.06604 691.57336 914.954 691.54456 924.0555 682.4541 C 973.5814 632.8179 1022.79895 582.8353 1072.764 533.6704 C 1195.4482 412.93698 1320.8798 295.29138 1450.7687 182.8018 C 1508.4055 132.8962 1567.6311 84.93375 1626.1556 36.11515 C 1635.603 28.977535 1634.0612 32.81569 1630.8188 37.30796 Z"/>
</svg>
