<svg width="1280" height="1280" xmlns="http://www.w3.org/2000/svg">
    <defs>
        <linearGradient id="a" x1="624.962" y1="1083.723" x2="624.962" y2="207.107" gradientUnits="userSpaceOnUse">
            <stop offset="0.09" stop-color="#d5d5d8"/>
            <stop offset="0.338" stop-color="#6358ff"/>
            <stop offset="0.572" stop-color="#00ffff"/>
            <stop offset="0.715" stop-color="#00ffff"/>
            <stop offset="1" stop-color="#695dff"/>
        </linearGradient>
    </defs>
    <path fill="#000000" stroke="none" d="M 640 1280 C 286.5 1280 0 993.50006 0 640 C 0 286.5 286.5 0 640 0 C 993.50006 0 1280 286.5 1280 640 C 1280 993.50006 993.50006 1280 640 1280 Z"/>
    <path fill="url(#a)" stroke="none" d="M 776.8 332.2 L 813.6 199.1 C 743.5 179.8 669.5 179.2 599.1 197.5 C 528.7 215.80002 464.39996 252.3 412.5 303.3 C 360.7 354.3 323.1 418.1 303.7 488.1 C 284.3 558.2 283.6 632.2 301.8 702.6 L 168.5 737.2001 C 186.7 807.7 223.2 872.1 274.2 924 C 325.2 975.9 389 1013.5 459.1 1032.9 C 529.2 1052.3 603.2 1053 673.7 1034.8 C 744.2 1016.6 808.6 980.1 860.49994 929.0999 L 957.49994 1027.6 C 1009.4 976.5 1046.9 912.7001 1066.3 842.5 C 1085.7 772.3 1086.3 698.2 1067.9 627.8 C 1049.6 557.3 1013 492.9 961.9 441 C 910.9 389 847 351.5 776.8 332.2 Z M 932.80005 805.4 C 920 852 895.2001 894.3 860.8 928.2001 L 763.89996 829.7999 C 729.4 863.7999 686.5 888.1 639.6 900.3 C 592.7 912.5 543.4 912.1 496.60004 899.3 C 449.90002 886.4 407.3 861.49994 373.3 827 C 339.3 792.5 314.9 749.6 302.6 702.7 L 435.9 668.1 C 423.70004 621.2 424.1 571.8 437 525.1 C 449.90002 478.3 474.9 435.8 509.5 401.8 C 544.1 367.8 587 343.4 633.9 331.2 C 680.9 319 730.2 319.4 776.9 332.3 L 740 465.40002 C 775 475 807.8 491.5 836.4 513.8 C 865 536.1 889 563.8 906.9 595.4 C 924.8 627 936.3 661.8 940.8 697.8 C 945.2999 733.7999 942.6 770.4 932.9 805.4 L 932.80005 805.4 Z"/>
</svg>
