<svg width="500" height="500" xmlns="http://www.w3.org/2000/svg">
    <path fill="#15b555" stroke="none" d="M 250 0 L 250 0 C 388.07117 0 500 111.92881 500 250 L 500 250 C 500 388.07117 388.07117 500 250 500 L 250 500 C 111.92881 500 0 388.07117 0 250 L 0 250 C -0 111.92881 111.92881 0 250 0 Z"/>
    <path fill="#f7b852" stroke="none" d="M 278.16 98.28 L 250 70 L 221.85 98.28 L 188.44 79.28 C 188.44 79.28 194.59 115.37 196.51001 122.1 C 199.89 133.86 219.73 140.87 250.01 140.87 C 280.29 140.87 300.13 133.87 303.5 122.1 C 305.43 115.37 311.57 79.28 311.57 79.28 Z"/>
    <g transform="matrix(0.05076725 -0.99871045 0.99871045 0.05076725 -251.07 462.29)">
        <path fill="#f7b852" stroke="none" d="M 126.01 363.24 C 126.01 371.3144 122.28053 377.86 117.68001 377.86 C 113.07947 377.86 109.35 371.3144 109.35 363.24 C 109.35 355.1656 113.07947 348.62 117.68001 348.62 C 122.28053 348.62 126.01 355.1656 126.01 363.24 Z"/>
    </g>
    <g transform="matrix(0.95985425 -0.2804992 0.2804992 0.95985425 -103.7 44.19)">
        <path fill="#f7b852" stroke="none" d="M 117.17999 384.45004 C 117.179985 389.05054 110.63439 392.77997 102.56 392.77997 C 94.4856 392.77997 87.94002 389.05054 87.939995 384.45004 C 87.94002 379.8495 94.4856 376.12003 102.56 376.12003 C 110.63439 376.12003 117.179985 379.8495 117.17999 384.45004 Z"/>
    </g>
    <g transform="matrix(0.67661893 -0.73633325 0.73633325 0.67661893 -269.54 212.24002)">
        <path fill="#f7b852" stroke="none" d="M 121.490005 413 C 121.48999 417.60052 114.9444 421.33002 106.87 421.33002 C 98.79561 421.33002 92.25002 417.60052 92.25 413 C 92.25002 408.39948 98.79561 404.67 106.87 404.67 C 114.9444 404.67 121.48999 408.39948 121.490005 413 Z"/>
    </g>
    <g transform="matrix(0.34677196 -0.9379494 0.9379494 0.34677196 -300.19 401.57)">
        <path fill="#f7b852" stroke="none" d="M 152.81 416.29 C 152.80998 420.89053 146.26439 424.62 138.19 424.62 C 130.1156 424.62 123.570015 420.89053 123.57 416.29 C 123.570015 411.68948 130.1156 407.96 138.19 407.96 C 146.26439 407.96 152.80998 411.68948 152.81 416.29 Z"/>
    </g>
    <g transform="matrix(0.9983318 -0.05773827 0.05773827 0.9983318 -22.91 9.92)">
        <path fill="#f7b852" stroke="none" d="M 168.72 401.7 C 168.72 409.7744 164.99052 416.32 160.39 416.32 C 155.78947 416.32 152.06 409.7744 152.06 401.7 C 152.06 393.6256 155.78947 387.08002 160.39 387.08002 C 164.99052 387.08002 168.72 393.6256 168.72 401.7 Z"/>
    </g>
    <path fill="#ffffff" stroke="none" d="M 185.51 288.74 L 197.55 288.74 C 204.62477 288.74 210.35999 294.47522 210.35999 301.55 L 210.35999 318.84 C 210.35999 325.91476 204.62477 331.65 197.55 331.65 L 185.51 331.65 C 178.43524 331.65 172.7 325.91476 172.7 318.84 L 172.7 301.55 C 172.7 294.47522 178.43524 288.74 185.51 288.74 Z"/>
    <path fill="#ffffff" stroke="none" d="M 302.47 288.74 L 314.51 288.74 C 321.58478 288.74 327.32 294.47522 327.32 301.55 L 327.32 318.84 C 327.32 325.91476 321.58478 331.65 314.51 331.65 L 302.47 331.65 C 295.39523 331.65 289.66 325.91476 289.66 318.84 L 289.66 301.55 C 289.66 294.47522 295.39523 288.74 302.47 288.74 Z"/>
    <path fill="#ffffff" stroke="none" d="M 166.6 186.20999 C 186.96002 189.81 201.25 153.88 190.02002 150.61 C 175.53 146.4 161.6 141.92 155.58 129.61 C 149.3 116.76 151.64 98.95999 158.5 85.09 C 121.39 96.53 118.35 132.33 122.73 147.27 C 128.42 166.67 148.65 183 166.6 186.20999 Z"/>
    <g transform="matrix(0.82776666 -0.56107247 0.56107247 0.82776666 -104.16999 106.74)">
        <path fill="#ffffff" stroke="none" d="M 161.51001 223.04999 C 161.51001 235.58687 143.72675 245.75 121.79 245.75 C 99.853264 245.75 82.07 235.58687 82.07 223.04999 C 82.07 210.51314 99.853264 200.35 121.79 200.35 C 143.72675 200.35 161.51001 210.51314 161.51001 223.04999 Z"/>
    </g>
    <g transform="matrix(0.56107247 -0.82776666 0.82776666 0.56107247 -18.61 410.99)">
        <path fill="#ffffff" stroke="none" d="M 400.93002 223.04999 C 400.93002 233.58441 398.53842 243.68735 394.28134 251.1363 C 390.02426 258.58527 384.25043 262.77002 378.23 262.77002 C 372.2096 262.77002 366.4358 258.58527 362.17868 251.1363 C 357.9216 243.68735 355.53003 233.58441 355.53003 223.04999 C 355.53003 212.5156 357.9216 202.41267 362.17868 194.96373 C 366.4358 187.51477 372.2096 183.33 378.23 183.33 C 384.25043 183.33 390.02426 187.51477 394.28134 194.96373 C 398.53842 202.41267 400.93002 212.5156 400.93002 223.04999 Z"/>
    </g>
    <path fill="#ffffff" stroke="none" d="M 350.38 363.29 C 361.29996 355.39 368.52 344.75998 368.52 330.46 L 368.52 293.92 C 368.52 278.59 359.9 266.22 352.46 260.86 C 343.89 254.68001 338.14 251.49998 335.46 240.68 C 333.29 232.06001 331.01 227.41 327.67 210.68 C 324.59 195.29 330.37 188.86 340.2 184.6 C 349.26 180.68 369.43 170.1 376.71 149.13 C 381.82004 134.43 379.64 96.4 341.55 85.06 C 346.66 95.23 352.54996 114.81 343.75 130.93 C 334.55 147.71 304.21 151.7 284.75 155.26 C 265.86 158.75 250 172.36 250 198.05 L 250 238.58 C 250 248.33 242.09001 251.81 232.33998 251.81 L 173.6 251.81 C 150.35634 251.83757 131.52205 270.67633 131.5 293.92 L 131.5 330.46 C 131.5 345.13004 139.09 355.93 150.5 363.89005 C 138.48239 372.34766 127.476814 382.15872 117.7 393.13004 L 127.55 403.48 C 139.707 391.45938 153.57753 381.3059 168.71 373.34998 C 198.89 385.11 238.31 386.05002 250.03 386.05002 C 261.75 386.05002 301.2 385.11 331.39 373.33002 C 350.325 384.04874 367.07053 398.23972 380.75 415.16 L 394.22 403 C 381.7442 387.5796 366.95566 374.18423 350.38 363.29 Z M 295.75 200 C 305.05 200 312.58 208.4 312.58 218.75 C 312.58 229.1 305.05 237.5 295.75 237.5 C 286.45 237.5 278.92 229.11 278.92 218.75 C 278.92 208.39 286.45 200 295.75 200 Z M 150.18 330.46 L 150.18 293.92 C 150.19653 280.99234 160.67235 270.51654 173.6 270.5 L 326.41 270.5 C 339.34155 270.51102 349.82346 280.98843 349.84003 293.92 L 349.84003 330.46 C 349.84003 359.64996 284.54 367.37 250.01 367.37 C 215.48 367.37 150.18 359.64996 150.18 330.46 Z"/>
    <path fill="#ffffff" stroke="none" d="M 178.14 206.21 C 177.17186 210.59673 179.93597 214.93968 184.32 215.92 C 186.5 216.41 188.83 217.05 191.23 217.82002 C 187.697 218.98259 184.23161 220.34135 180.85 221.89001 C 176.795 223.80292 175.05032 228.63475 176.94788 232.69698 C 178.84541 236.7592 183.67062 238.52214 187.73999 236.63998 C 192.39276 234.53127 197.20848 232.80228 202.14 231.47 C 207.12875 230.0664 212.2216 229.06323 217.37 228.47 L 217.37 228.47 C 217.85085 228.40952 218.32579 228.30913 218.79 228.17 L 219.09999 228.07 C 219.54288 227.92282 219.97134 227.73537 220.37999 227.50998 L 220.51001 227.44 C 220.8629 227.22093 221.19733 226.97343 221.51 226.7 L 221.74 226.52 C 222.10078 226.2153 222.4353 225.88078 222.74 225.52 L 222.85 225.37 C 223.01 225.16 223.17001 224.94002 223.32 224.71 C 223.37 224.63 223.4 224.54 223.44998 224.45001 C 223.59267 224.1981 223.71959 223.93759 223.83 223.67 C 223.93933 223.44553 224.03615 223.21518 224.12 222.98 C 224.19998 222.73 224.26 222.47 224.32 222.21 C 224.38 221.95 224.43999 221.67998 224.48 221.41 C 224.4952 221.1669 224.4952 220.92311 224.48 220.68 C 224.5 220.38367 224.5 220.08633 224.48 219.79 C 224.48 219.7 224.48 219.61002 224.48 219.50998 C 224.48 219.41 224.41 219.22002 224.38 219.08 C 224.33875 218.7938 224.28198 218.51006 224.21 218.23001 C 224.14 217.97998 224.05002 217.74 223.96 217.49 C 223.86934 217.24802 223.76587 217.011 223.65 216.78 C 223.53029 216.5359 223.39674 216.29886 223.25 216.07 C 223.12 215.86 222.98 215.66002 222.83 215.46 C 222.68001 215.26 222.47 215.02 222.28001 214.80998 C 222.09 214.6 221.95 214.47 221.76 214.31 C 221.57 214.15 221.28998 213.92998 221.03998 213.75 C 220.93428 213.66115 220.82417 213.57771 220.71 213.5 C 215.668 210.38614 210.36864 207.7097 204.87 205.5 C 199.3587 203.20795 193.66989 201.36853 187.86002 200 C 185.7472 199.53009 183.53423 199.92099 181.71028 201.0863 C 179.88632 202.25162 178.60155 204.09535 178.14 206.21 Z"/>
</svg>
