<svg width="256" height="256" xmlns="http://www.w3.org/2000/svg">
    <path fill="#fffdfd" stroke="none" d="M 148 257 C 98.66667 257 49.83334 257 1.000006 257 C 1.000004 171.66667 1.000004 86.33335 1.000002 1.000018 C 86.33332 1.000012 171.66664 1.000012 257 1.000006 C 257 86.33332 257 171.66663 257 256.99997 C 220.83333 257 184.66667 257 148 257 M 144.04968 253.72806 C 144.86996 253.58136 145.68658 253.40884 146.51105 253.29164 C 207.22498 244.66054 253.12439 193.42769 254.80272 132.41139 C 256.94806 54.418175 189.14735 -6.538193 111.755974 3.8048089 C 27.929035 15.007892 -21.29657 105.35146 14.529209 181.84253 C 35.633953 226.90295 84.80229 260.20166 144.04968 253.72806 Z"/>
    <path fill="#dd3045" stroke="none" d="M 143.60104 253.7788 C 84.80229 260.20166 35.633953 226.90295 14.529209 181.84253 C -21.29657 105.35146 27.929035 15.007892 111.755974 3.8048089 C 189.14735 -6.538193 256.94806 54.418175 254.80272 132.41139 C 253.12439 193.42769 207.22498 244.66054 146.51105 253.29164 C 145.68658 253.40884 144.86996 253.58136 143.60104 253.7788 M 59.120605 81.677246 C 47.064075 99.995125 42.54302 120.0003 45.877422 141.69005 C 53.167522 189.111 98.78808 220.50514 146.25055 210.82509 C 192.18208 201.45723 222.04172 154.50934 210.27019 108.82158 C 201.48523 74.72528 179.16833 52.98386 144.65831 46.399494 C 109.53395 39.69792 80.855484 52.20459 59.120605 81.677246 Z"/>
    <path fill="#fffefe" stroke="none" d="M 59.324852 81.37851 C 80.855484 52.20459 109.53395 39.69792 144.65831 46.399494 C 179.16833 52.98386 201.48523 74.72528 210.27019 108.82158 C 222.04172 154.50934 192.18208 201.45723 146.25055 210.82509 C 98.78808 220.50514 53.167522 189.111 45.877422 141.69005 C 42.54302 120.0003 47.064075 99.995125 59.324852 81.37851 Z"/>
</svg>
