<svg width="294.98" height="294.98" xmlns="http://www.w3.org/2000/svg">
    <g transform="matrix(3.7795277 0 0 3.7795277 0 0)">
        <g id="layer3">
            <path id="path835" fill="#ffffff" fill-opacity="0.959799" stroke="none" d="M 75.637276 39.55998 C 75.637276 59.634785 59.303596 75.90863 39.154987 75.90863 C 19.006378 75.90863 2.6727011 59.634785 2.672699 39.55998 C 2.672699 19.48517 19.006376 3.2113228 39.154987 3.2113228 C 59.303596 3.2113228 75.637276 19.48517 75.637276 39.55998 Z"/>
        </g>
        <g id="layer1" transform="matrix(1 0 0 1 -66.80994 -106.78613)">
            <path id="path57" fill="#192b3a" stroke="none" d="M 105.833336 106.78613 C 84.28037 106.78613 66.80994 124.25656 66.80994 145.80952 C 66.80994 167.36247 84.28037 184.83292 105.833336 184.83292 C 127.3863 184.83292 144.85674 167.36247 144.85674 145.80952 C 144.85674 124.25656 127.3863 106.78613 105.833336 106.78613 Z M 103.76165 179.21053 C 101.06555 178.87715 98.551994 177.668 96.607315 175.7683 L 75.639084 155.29219 C 73.80552 153.50096 72.770996 151.04826 72.770996 148.48447 L 72.770996 143.75371 C 72.770996 143.46532 73.11761 143.3198 73.323975 143.52087 L 103.76165 173.23889 Z M 103.76165 168.22238 L 77.67638 142.75623 C 74.7448 139.89343 73.834625 135.51193 75.4724 131.75487 C 75.49889 131.69666 75.5227 131.63844 75.549095 131.58023 C 75.60999 131.44 75.79516 131.40561 75.90363 131.51143 L 103.76162 158.70795 Z M 103.76165 153.0009 L 82.50767 132.24963 C 79.607834 129.4186 79.546974 124.73282 82.438866 121.89648 C 82.45737 121.87798 82.47327 121.86208 82.49177 121.84358 L 103.76162 142.60808 Z M 107.90767 142.60806 L 129.17752 121.84357 C 129.19601 121.862076 129.21191 121.87797 129.23042 121.89647 C 132.12231 124.7328 132.06146 129.41856 129.16162 132.2496 L 107.90764 153.00089 Z M 107.90767 158.70796 L 135.76566 131.51144 C 135.87413 131.40561 136.05934 131.44003 136.1202 131.58025 C 136.14668 131.63844 136.17049 131.69666 136.19688 131.75487 C 137.83466 135.51195 136.9245 139.89345 133.9929 142.75624 L 107.90764 168.2224 Z M 136.03023 155.29219 L 115.062 175.7683 C 113.11732 177.668 110.60377 178.87715 107.90767 179.21053 L 107.90767 173.23889 L 138.34534 143.52087 C 138.55171 143.3198 138.89832 143.46529 138.89832 143.75371 L 138.89832 148.48447 C 138.89832 151.04826 137.8638 153.50096 136.03023 155.29219 Z"/>
        </g>
    </g>
</svg>
