<svg width="318" height="318" xmlns="http://www.w3.org/2000/svg">
    <defs>
        <linearGradient id="paint0_linear_259_1243" x1="63.7279" y1="140.788" x2="234.593" y2="176.87" gradientUnits="userSpaceOnUse">
            <stop offset="0.4" stop-color="#3d67ff"/>
            <stop offset="1" stop-color="#2241a9"/>
        </linearGradient>
        <linearGradient id="paint1_linear_259_1243" x1="135.225" y1="83.6643" x2="317.796" y2="217.494" gradientUnits="userSpaceOnUse">
            <stop offset="0.264898" stop-color="#3d67ff"/>
            <stop offset="1" stop-color="#86c0fb"/>
        </linearGradient>
        <mask id="mask0_259_1243" mask-type="alpha" maskUnits="userSpaceOnUse" x="0" y="0" width="318" height="318">
            <path fill="#86c0fb" stroke="none" d="M 318 159 C 318 246.8133 246.8133 318 159 318 C 71.18672 318 0 246.8133 0 159 C -0 71.18672 71.18672 0 159 0 C 246.8133 0 318 71.18672 318 159 Z"/>
        </mask>
    </defs>
    <path fill="#add6ff" stroke="none" d="M 318 159 C 318 246.8133 246.8133 318 159 318 C 71.18672 318 0 246.8133 0 159 C -0 71.18672 71.18672 0 159 0 C 246.8133 0 318 71.18672 318 159 Z"/>
    <g mask="url(#mask0_259_1243)">
        <path fill="url(#paint0_linear_259_1243)" stroke="none" d="M 224.413 191.93402 C 221.92401 186.654 219.638 181.261 216.761 176.174 C 213.928 171.161 209.646 167.115 207.161 161.942 C 204.73 156.882 203.491 151.301 200.518 146.503 C 197.395 141.459 192.855 137.483 189.388 132.68 C 185.911 127.861 183.65198 122.403 181.26402 116.994 C 178.93498 111.714 176.22 107.38799 172.41 103.058 C 163.99 93.4844 157.427 82.6713 152.013 71.1499 C 127.446 71.8851 106.244 80.4389 88.9491 96.623695 C 71.0689 113.361 62 134.193 62 158.545 C 62 182.897 71.0528 203.788 88.9061 220.714 L 89.0027 220.805 C 107.098 237.521 129.469 246 155.485 246 C 181.5 246 203.86598 237.526 221.966 220.805 L 222.015 220.75702 C 226.65099 216.421 230.692 211.816 234.153 206.965 C 230.348 202.30199 226.968 197.33798 224.413 191.929 L 224.413 191.93402 Z M 178.286 180.52 C 172.179 186.235 164.72 189.015 155.485 189.015 C 146.249 189.015 138.833 186.25099 132.732 180.563 C 126.792 174.832 123.899 167.63 123.899 158.545 C 123.899 149.46 126.78601 142.253 132.727 136.527 C 138.828 130.839 146.271 128.075 155.479 128.075 C 164.688 128.075 172.173 130.855 178.28 136.57 C 184.398 142.296 187.376 149.487 187.376 158.545 C 187.376 167.604 184.403 174.79402 178.28 180.52 L 178.286 180.52 Z"/>
        <path fill="url(#paint1_linear_259_1243)" stroke="none" d="M 317.919 214.001 C 317.925 206.703 317.882 199.41002 318 192.112 C 318.011 191.484 318.011 190.813 317.673 190.276 C 317.19 189.509 316.192 189.278 315.301 189.101 C 296.825 185.42 280.007 174.26898 269.221 158.846 C 256.691 140.923 246.41998 121.228004 232.13501 104.539 C 219.997 90.3561 204.55801 79.2532 186.297 74.6597 C 175.69402 71.9926 164.902 71.0213 153.993 71.0106 C 117.111 70.4149 93.71959 92.0572 88.9544 96.6239 C 88.97591 102.071 90.5643 106.35801 92.80201 110.158 C 95.0397 113.957 97.9267 117.273 100.556 120.77801 C 102.949 123.96999 105.128 127.324 106.4 131.349 C 107.13 133.667 107.55899 136.206 107.55899 139.066 C 107.55899 140.681 146.41 127.201 153.429 128.076 C 168.863 128.076 177.304 133.378 186.324 142.753 C 199.729 156.678 208.277 173.99 219.112 189.83098 C 234.931 212.954 255.71399 236.30798 284.139 242.93602 C 294.523 245.35602 305.019 246.118 315.639 245.984 C 317.598 245.957 317.952 245.10901 317.946 243.40799 C 317.893 233.609 317.919 223.794 317.93 213.995 L 317.919 214.001 Z"/>
    </g>
</svg>
