<svg width="1000" height="1000" xmlns="http://www.w3.org/2000/svg">
    <defs>
        <clipPath id="clip0_5_70">
            <path fill="#000000" stroke="none" d="M 0 0 L 1000 0 L 1000 1000 L 0 1000 Z"/>
        </clipPath>
    </defs>
    <g clip-path="url(#clip0_5_70)">
        <path fill="#20a928" stroke="none" d="M 1000 500 C 1000 632.6082 947.3216 759.7852 853.5534 853.5534 C 759.7852 947.3216 632.6082 1000 500 1000 C 367.39175 1000 240.2148 947.3216 146.44661 853.5534 C 52.67842 759.7852 0 632.6082 0 500 C 0 367.39175 52.67842 240.2148 146.44661 146.44661 C 240.2148 52.67842 367.39175 0 500 0 C 632.6082 0 759.7852 52.67842 853.5534 146.44661 C 947.3216 240.2148 1000 367.39175 1000 500 Z"/>
        <path fill="#ffffff" stroke="none" d="M 282.105 586.278 C 284.183 572.782 286.188 559.235 288.212 545.71 C 288.455 544.087 291.561 545.434 292.681 545.751 C 310.69 550.854 328.668 556.108 346.672 561.225 C 361.91595 565.558 377.203 569.738 392.411 574.192 C 393.699 574.569 395.553 576.654 395.402 577.692 C 394.60797 583.151 393.57904 588.625 392.02798 593.916 C 388.615 605.552 388.724 617.326 390.49 629.084 C 392.714 643.891 397.435 657.814 409.17 667.977 C 415.52 673.478 422.269 678.777 429.568 682.86 C 440.094 688.747 451.716 692.279 463.756 693.509 C 480.534 695.2219 496.273 691.96704 511.228 683.619 C 521.909 677.657 530.807 669.975 537.125 659.857 C 545.709 646.111 551.051 630.918 553.291 614.762 C 554.95 602.791 554.193 591.257 550.467 579.451 C 545.081 562.382 533.557 551.008 519.275 541.97 C 511.96497 537.345 503.724 534.094 495.687 530.743 C 487.53098 527.342 479.11398 524.566 470.8 521.548 C 464.593 519.296 458.369 517.092 452.30704 514.922 C 458.803 491.01196 465.102 467.905 471.347 444.784 C 472.999 438.665 474.515 437.581 481.408 439.388 C 487.45502 440.973 493.43597 442.957 499.577 444.001 C 509.45297 445.682 519.489 446.43304 529.362 448.13104 C 543.396 450.54404 556.954 448.269 569.061 441.787 C 587.014 432.174 596.111 415.18 601.59 396.24396 C 605.642 382.23596 606.567 368.056 602.772 353.684 C 599.346 340.711 592.88 329.868 582.195 321.692 C 568.431 311.16 552.618 305.706 535.567 304.133 C 524.429 303.106 513.138 303.439 503.066 309.267 C 497.22202 312.649 491.578 316.528 486.366 320.818 C 474.912 330.247 467.897 342.755 462.884 356.52496 C 460.67902 362.584 458.274 368.57 455.96603 374.574 C 422.171 365.102 388.942 355.789 355.203 346.333 C 358.841 336.512 361.966 326.79 366.031 317.478 C 369.78 308.891 374.507 300.727 378.85904 292.406 C 391.769 267.719 410.38998 251.80902 432.354 235.38701 C 438.37296 230.88602 444.75 226.459 451.631 223.60098 C 465.608 217.79602 479.98404 212.90399 495.111 210.765 C 515.41 207.895 538.842 209.736 559.054 213.76302 C 583.932 218.72002 609.782 227.875 632.008 239.823 C 646.425 247.573 659.766 256.674 671.822 267.977 C 682.453 277.945 691.778 288.759 699.354 301.067 C 727.132 346.192 726.535 404.66898 699.643 450.221 C 691.29 464.37 680.775 476.141 668.025 486.134 C 663.924 489.34796 659.602 492.403 655.013 494.83704 C 649.194 497.923 643.075 500.487 636.946 502.926 C 631.991 504.897 626.83 506.349 621.419 508.144 C 623.318 509.59 624.709 510.602 626.051 511.675 C 634.096 518.108 640.018 526.288 645.965 534.624 C 655.105 547.434 662.325 561.137 666.06 576.31 C 668.641 586.794 670.257 597.688 670.752 608.471 C 671.379 622.106 669.847 635.742 666.114 649.007 C 665.245 652.094 664.477 655.21 663.659 658.312 C 659.836 672.805 654.962 686.922 646.924 699.655 C 641.199 708.725 635.228 717.699 628.621 726.133 C 623.195 733.058 617.197 739.743 610.505 745.4161 C 601.819 752.779 592.472 759.465 582.888 765.634 C 574.489 771.04 565.783 776.481 556.464 779.814 C 480.28403 807.05505 396.16998 777.736 333.261 733.011 C 321.531 724.672 312.846 713.3839 305.204 701.507 C 299.64 692.8591 295.314 683.335 291.139 673.891 C 279.683 647.98 277.836 614.007 282.105 586.278 Z"/>
        <path fill="#ffffff" stroke="none" d="M 547.153 159.982 C 547.531 158.559 548.991 157.712 550.415 158.09 L 636.588 180.95 C 638.012 181.32799 638.859 182.78702 638.482 184.209 L 612.229 283.04 C 611.851 284.463 610.391 285.31 608.967 284.932 L 522.794 262.072 C 521.37 261.694 520.523 260.235 520.901 258.812 L 547.153 159.982 Z"/>
        <path fill="#ffffff" stroke="none" d="M 404.598 696.648 C 404.976 695.225 406.436 694.378 407.859 694.756 L 494.033 717.616 C 495.457 717.99396 496.30402 719.453 495.926 720.87604 L 464.01297 841.018 C 463.635 842.441 462.175 843.288 460.751 842.9099 L 374.577 820.05 C 373.154 819.672 372.306 818.213 372.684 816.79 L 404.598 696.648 Z"/>
    </g>
</svg>
