<svg width="50" height="50" xmlns="http://www.w3.org/2000/svg">
    <g transform="matrix(1 0 0 1 -139 -31)">
        <g transform="matrix(1 0 0 1 134 26.317)">
            <g transform="matrix(1 0 0 1 5 4.683)">
                <path fill="#596aec" stroke="none" d="M 50 25 C 50 38.807117 38.807117 50 25 50 C 11.192882 50 0 38.807117 0 25 C -0 11.192882 11.192882 0 25 0 C 38.807117 0 50 11.192882 50 25 Z"/>
            </g>
            <g transform="matrix(1 0 0 1 -82.494 -105.14)">
                <path fill="#ffffff" stroke="none" d="M 125.14399 132.995 L 126.187 129.775 L 121.975 129.775 L 123.558 125.30999 L 118.106 125.30999 L 112.892 141.188 L 107.68 125.30999 L 102.227 125.30999 L 103.811 129.775 L 99.6 129.775 L 100.643 132.995 L 104.953 132.995 L 105.533 134.627 L 101.172 134.627 L 102.215 137.847 L 106.675 137.847 L 109.688 146.341 L 116.09999 146.341 L 119.113 137.847 L 123.574 137.847 L 124.617004 134.627 L 120.256 134.627 L 120.834 132.995 Z"/>
            </g>
        </g>
    </g>
</svg>
