<svg width="283.5" height="283.5" xmlns="http://www.w3.org/2000/svg">
    <path fill="#ffe505" stroke="none" d="M 254.1 228.2 C 272.5 204.3 283.5 174.3 283.5 141.8 C 283.5 63.5 220 0 141.7 0 C 63.4 0 0 63.5 0 141.7 C 0 219.89998 63.5 283.4 141.7 283.4 C 172.90001 283.4 201.8 273.3 225.20001 256.2 L 283.4 282.3 L 254.1 228.2 Z"/>
    <g>
        <path fill="#020203" stroke="none" d="M 102.9 124.9 L 84.2 124.9 L 84.2 176 L 63.2 176 L 63.2 124.9 L 44.5 124.9 L 44.5 109.2 L 102.9 109.2 L 102.9 124.9 Z"/>
        <path fill="#020203" stroke="none" d="M 167.8 109.2 L 167.8 176 L 146.8 176 L 146.8 147.9 L 130 147.9 L 130 176 L 109 176 L 109 109.2 L 130 109.2 L 130 133.2 L 146.8 133.2 L 146.8 109.2 L 167.8 109.2 Z"/>
        <path fill="#020203" stroke="none" d="M 218.2 176 L 205.8 147.9 L 193.3 176 L 172.50002 176 L 189.1 141.9 L 173.9 109.2 L 194.59999 109.2 L 205.8 135.6 L 216.9 109.2 L 237.6 109.2 L 222.4 141.9 L 239 176 L 218.2 176 Z"/>
    </g>
</svg>
