<svg width="250" height="250" xmlns="http://www.w3.org/2000/svg">
    <g transform="matrix(1 0 0 1 118 20)">
        <path fill="#f2efec" stroke="none" d="M 0 0 C 0 5.61 0 11.22 0 17 C -2.701875 17.556875 -5.40375 18.11375 -8.1875 18.6875 C -31.522259 23.757982 -52.66597 35.557774 -66.078125 55.821045 C -70.73241 63.192368 -74.4598 70.62561 -77 79 C -77.31711 80.014496 -77.63422 81.028984 -77.96094 82.07422 C -83.85639 104.49318 -80.48237 129.68304 -68.92578 149.70703 C -56.4956 170.20375 -38.11199 183.75696 -15.128906 190.25781 C -10.115523 191.447 -5.0990615 192.26277 0 193 C 0 198.61 0 204.22 0 210 C -27.171097 208.65823 -51.86824 196.2305 -70.59766 176.7422 C -90.43887 154.09416 -99.41482 126.76988 -98.19531 96.79541 C -96.28157 69.40502 -82.94876 44.96588 -63.250004 26.3125 C -47.48442 12.78141 -30.191828 5.326821 -10 1 C -9.128593 0.8014844 -8.257188 0.60296875 -7.3593745 0.39843753 C -5 0 -5 0 0 0 Z"/>
    </g>
    <g transform="matrix(1 0 0 1 132 20)">
        <path fill="#f2efec" stroke="none" d="M 0 0 C 29.438238 1.8690946 53.80876 15.425719 73.6875 36.8125 C 93.14908 60.156933 99.752655 88.060425 98 118 C 94.77546 145.62256 79.57215 170.66162 58.42187 188.31738 C 42.3226 201.03215 20.562227 210 0 210 C 0 204.38998 0 198.78 0 193 C 1.258125 192.79248 2.51625 192.58492 3.8124998 192.3711 C 29.007372 187.9456 50.801647 176.5638 65.90234 155.35156 C 74.442154 141.70694 80.264854 126.20518 81 110 C 81.03996 109.336136 81.079926 108.672264 81.12109 107.98829 C 81.81438 85.92547 74.16283 64.77699 60 48 C 59.530785 47.398006 59.06156 46.796017 58.578125 46.17578 C 44.04401 28.00814 21.992878 20.979664 0 17 C 0 11.39 0 5.78 0 0 Z"/>
    </g>
    <g transform="matrix(1 0 0 1 175.8125 74.3125)">
        <path fill="#f2efec" stroke="none" d="M 0 0 C 10.159893 10.613068 19.1875 25.601446 19.1875 40.6875 C 10.2775 40.6875 1.3675 40.6875 -7.8125 40.6875 C -8.616875 38.58375 -9.42125 36.48 -10.25 34.3125 C -14.873713 23.111797 -22.926823 14.798542 -33.95703 9.6953125 C -45.831963 5.202095 -58.280357 6.112641 -69.89844 10.980469 C -83.10407 17.728006 -88.367645 27.075369 -93.8125 40.6875 C -102.722496 40.6875 -111.6325 40.6875 -120.8125 40.6875 C -117.566574 21.211939 -109.43588 4.702306 -93.1875 -7.2421875 C -62.893288 -27.294893 -26.501049 -25.276814 0 0 Z"/>
    </g>
    <g transform="matrix(1 0 0 1 55 135)">
        <path fill="#f2efec" stroke="none" d="M 0 0 C 13.86 0.495 13.86 0.495 28 1 C 29.010626 3.145 30.02125 5.29 31.0625 7.5 C 36.78229 19.100103 44.25713 26.40594 56.625 30.875 C 68.841705 34.082844 81.38561 32.563732 92.49219 26.679688 C 102.315475 20.626953 108.37781 11.866576 112 1 C 121.240005 0.67 130.48 0.34 140 0 C 136.5872 18.770355 128.51466 34.846333 112.84374 46.308594 C 95.88843 57.95971 76.30356 63.091736 55.859375 59.347656 C 36.011738 54.510315 19.804506 43.37452 9 26 C 4.820609 18.24746 0 9.007048 0 0 Z"/>
    </g>
</svg>
