<svg width="1200" height="1200" xmlns="http://www.w3.org/2000/svg">
    <g>
        <path fill="#4138ac" stroke="none" d="M 600 1 C 269.2 1 1 269.2 1 600 C 1 930.80005 269.2 1199 600 1199 C 930.7 1198.6 1198.6 930.6 1199 600 C 1199 269.2 930.80005 1 600 1 Z"/>
        <path id="Ellipse_16_22_" fill="#4138ac" stroke="none" d="M 1199 600 C 1199 758.8647 1135.8912 911.2226 1023.557 1023.557 C 911.2226 1135.8912 758.8647 1199 600 1199 C 441.1353 1199 288.77734 1135.8912 176.44304 1023.557 C 64.10875 911.2226 1 758.8647 1 600 C 1 441.1353 64.10875 288.77734 176.44304 176.44304 C 288.77734 64.10875 441.1353 1 600 1 C 758.8647 1 911.2226 64.10875 1023.557 176.44304 C 1135.8912 288.77734 1199 441.1353 1199 600 Z"/>
        <path id="Path_12_27_" fill="#ffffff" stroke="none" d="M 782.7001 336.5 L 642 771.0999 L 501.19998 336.5 L 234.59999 336.5 L 276.1 454.1 L 399.7 454.1 L 578.1 959.2001 L 705.9 959.2001 L 925.7999 336.5 L 782.7001 336.5 Z"/>
    </g>
</svg>
