<svg width="200" height="70.46" xmlns="http://www.w3.org/2000/svg">
    <path fill="#190232" stroke="none" d="M 48.88 0.74 L 58.749996 4.54 L 67.09 23.8 L 61.34 54.23 L 36.06 70.45 L 23.230001 65.45 L 0 43.62 L 5.49 12.73 L 25.709997 0 L 48.88 0.74 Z M 30.390001 22.24 L 25.9 32 L 33.32 37 L 41.32 34.09 L 41 24.609999 L 30.390001 22.24 Z"/>
    <path fill="#2b2063" stroke="none" d="M 5.49 12.73 L 12.909999 17.2 L 20.9 12.750001 L 32.48 2.82 L 25.709997 0.01 L 5.49 12.73 L 5.49 12.73 Z"/>
    <path fill="#3c17b8" stroke="none" d="M 59.23 5.15 L 77.93 28.819998 L 71.82 61.11 L 36.06 70.45 L 8.21 45.58 L 12.909999 17.2 L 33.81 4.05 L 34.81 3.78 L 58.809998 4.54 L 59.29 5.15 Z M 74.23 29.769999 L 57 7.93 L 35.16 7.24 L 16.06 19.24 L 11.93 44.24 L 37 66.65 L 68.82 58.34 L 74.22 29.769999 Z M 40.35 29.72 L 37.06 36.83 L 42.56 40.55 L 48.56 38.38 L 48.360004 31.500002 L 40.36 29.72 Z M 33.35 36.72 L 38.44 25.72 L 51.71 28.72 L 52.06 40.72 L 42.06 44.360004 L 32.72 38.05 L 33.34 36.73 Z"/>
    <path fill="#aa5eff" stroke="none" d="M 57.87 6.24 L 76.08 29.3 L 70.33 59.72 L 36.54 68.55 L 10.07 44.91 L 14.49 18.23 L 34.71 5.51 L 57.87 6.24 Z M 39.39 27.739998 L 34.89 37.46 L 42.31 42.46 L 50.31 39.55 L 50 30.11 L 39.39 27.739998 Z"/>
    <path fill="#ef9bc8" fill-rule="evenodd" stroke="none" d="M 34.85 37.46 L 42.37 44.269997 L 50.44 39.49 L 50.28 39.47 L 50.28 39.56 L 42.31 42.47 L 34.91 37.47 L 34.85 37.46 L 34.85 37.46 Z"/>
    <path fill="#ef9bc8" fill-rule="evenodd" stroke="none" d="M 28.180002 9.62 L 37.86 7.48 L 56.09 9.36 L 74.24 29.849998 L 73.71 41.86 L 76.08 29.3 L 57.87 6.24 L 34.71 5.5 L 28.180002 9.62 L 28.180002 9.62 Z"/>
    <path fill="#190232" fill-rule="evenodd" stroke="none" d="M 20 21.18 C 20.679344 21.963829 21.561687 22.545141 22.549997 22.86 C 24.549997 23.56 26.67 22.81 26.92 21.99 C 27.07 21.48 28.1 19.36 25.73 18.55 C 24.150002 18.01 19.95 18.9 19.73 19.72 C 19.51 20.54 19.73 20.72 20.03 21.18 Z"/>
    <path fill="#ef9bc8" fill-rule="evenodd" stroke="none" d="M 20 21.72 C 20.681387 22.506153 21.56762 23.087742 22.56 23.4 C 24.609999 24.1 26.67 23.4 26.92 22.530003 C 27.08 22.01 28.1 19.9 25.739998 19.09 C 24.16 18.55 19.95 19.43 19.74 20.25 C 19.53 21.07 19.74 21.25 20.04 21.72 Z"/>
    <path fill="#3c17b8" fill-rule="evenodd" stroke="none" d="M 19.89 21.46 C 20.573452 22.24379 21.458965 22.824905 22.450003 23.14 C 24.499998 23.84 26.56 23.09 26.81 22.27 C 26.97 21.76 27.99 19.64 25.629997 18.83 C 24.05 18.29 19.84 19.18 19.63 20 C 19.42 20.82 19.63 21 19.93 21.46 Z"/>
    <path fill="#190232" fill-rule="evenodd" stroke="none" d="M 61.49 35.72 C 62.207138 36.53891 63.133553 37.1473 64.17 37.48 C 66.33 38.22 68.5 37.48 68.76 36.57 C 68.93 36 70 33.81 67.51 33 C 65.86 32.43 61.44 33.37 61.17 34.23 C 60.900005 35.09 61.17 35.23 61.49 35.77 Z"/>
    <path fill="#ef9bc8" fill-rule="evenodd" stroke="none" d="M 61.55 36.29 C 62.26989 37.11042 63.19994 37.71893 64.24 38.05 C 66.4 38.78 68.57 38.05 68.83 37.13 C 68.99 36.6 70.07 34.37 67.58 33.52 C 65.93 32.95 61.5 33.88 61.24 34.75 C 60.98 35.62 61.24 35.75 61.55 36.29 Z"/>
    <path fill="#3c17b8" fill-rule="evenodd" stroke="none" d="M 61.419994 36 C 62.134144 36.829216 63.065872 37.442284 64.11 37.77 C 66.26 38.5 68.43 37.72 68.69 36.85 C 68.86 36.31 69.93 34.09 67.45 33.24 C 65.79 32.67 61.37 33.6 61.099995 34.46 C 60.83 35.32 61.099995 35.46 61.419994 36 Z"/>
    <path fill="#190232" fill-rule="evenodd" stroke="none" d="M 44.780003 63.77 C 43.369434 64.464516 41.811825 64.8076 40.24 64.77 C 36.9 64.77 34.24 62.96 34.24 61.83 C 34.24 61.12 33.75 58.049995 37.6 58.04 C 40.17 58.04 45.93 60.939995 45.91 62.04 C 45.890003 63.14 45.49 63.259995 44.780003 63.74 Z"/>
    <path fill="#ef9bc8" fill-rule="evenodd" stroke="none" d="M 44.429996 64.41 C 43.021034 65.10909 41.462288 65.45242 39.89 65.41 C 36.55 65.41 33.89 63.6 33.89 62.47 C 33.89 61.77 33.4 58.69 37.25 58.69 C 39.82 58.69 45.58 61.58 45.56 62.69 C 45.539997 63.8 45.14 63.91 44.429996 64.39 Z"/>
    <path fill="#3c17b8" fill-rule="evenodd" stroke="none" d="M 44.749996 64.15 C 43.335503 64.84347 41.77492 65.186455 40.2 65.15 C 36.86 65.15 34.2 63.34 34.2 62.209995 C 34.2 61.5 33.71 58.429996 37.56 58.42 C 40.14 58.42 45.890003 61.31 45.88 62.42 C 45.87 63.53 45.45 63.639996 44.749996 64.13 Z"/>
    <path fill="#190232" fill-rule="evenodd" stroke="none" d="M 42.77 53 C 42.113495 53.515396 41.357758 53.889862 40.55 54.1 C 38.92 54.56 37.62 54.1 37.63 53.5 C 37.455307 52.415882 38.187366 51.393673 39.27 51.21 C 40.52 50.86 43.33 51.470005 43.27 52.02 C 43.21 52.57 43.060005 52.67 42.72 53.02 Z"/>
    <path fill="#ef9bc8" fill-rule="evenodd" stroke="none" d="M 42.6 53.4 C 41.942284 53.91347 41.18696 54.287727 40.38 54.5 C 38.75 54.96 37.45 54.5 37.45 53.9 C 37.275692 52.812576 38.01331 51.788853 39.1 51.61 C 40.35 51.250004 43.159996 51.87 43.099995 52.42 C 43.04 52.97 42.89 53.07 42.55 53.419994 Z"/>
    <path fill="#3c17b8" fill-rule="evenodd" stroke="none" d="M 42.75 53.23 C 42.091106 53.7416 41.33618 54.115654 40.53 54.329998 C 38.91 54.79 37.6 54.269997 37.61 53.72 C 37.435307 52.635883 38.16737 51.613674 39.25 51.43 C 40.5 51.08 43.31 51.699997 43.250004 52.25 C 43.190002 52.8 43.05 52.900005 42.7 53.250004 Z"/>
    <path fill="#190232" fill-rule="evenodd" stroke="none" d="M 51.49 57.3 C 50.888687 57.692852 50.203735 57.939434 49.49 58.02 C 48.14 58.2 47.259995 57.46 47.39 56.91 C 47.449795 55.908535 48.19127 55.08007 49.18 54.91 C 50.18 54.780003 52.18 55.91 52.09 56.429996 C 52.02005 56.810116 51.780807 57.137695 51.44 57.319996 Z"/>
    <path fill="#ef9bc8" fill-rule="evenodd" stroke="none" d="M 51.28 57.630005 C 50.678688 58.022854 49.99374 58.269436 49.28 58.35 C 47.93 58.529995 47.05 57.790005 47.18 57.24 C 47.23153 56.23866 47.9714 55.40735 48.96 55.24 C 49.96 55.11 52.01 56.24 51.88 56.77 C 51.80332 57.144665 51.56556 57.466553 51.23 57.65 Z"/>
    <path fill="#3c17b8" fill-rule="evenodd" stroke="none" d="M 51.44 57.479996 C 50.854176 57.868855 50.18717 58.118557 49.49 58.209995 C 48.13 58.38 47.250004 57.639996 47.39 57.09 C 47.43782 56.08714 48.179462 55.253838 49.17 55.09 C 50.17 54.95 52.17 56.09 52.08 56.61 C 51.99 57.13 51.77 57.219997 51.44 57.49 Z"/>
    <path fill="#3c17b8" stroke="none" d="M 72.87 46.24 C 71.32 47.82 70.87 49.17 68.5 50.360004 C 66.920715 51.17558 65.105774 51.412617 63.37 51.03 L 60.17 52.18 C 60.17 52.18 60.56 52.04 66.47 52.5 C 67.78 52.589996 70.47 52.4 71.54 52.73 C 71.95 52.86 71.23 54.529995 71.48 54.429996 C 72.33 54.08 72.27 52.54 72.48 51.91 C 72.80199 50.903103 72.93423 49.845173 72.87 48.79 L 72.87 46.24 Z"/>
    <path fill="#ef9bc8" fill-rule="evenodd" stroke="none" d="M 70.44 55.630005 C 70.69085 54.825943 70.87809 54.00341 71 53.17 L 59.94 52.77 L 70.16 53.9 L 70.44 55.630005 Z"/>
    <path fill="#3c17b8" stroke="none" d="M 14.12 19.22 C 13.54 20.3 13.78 23.02 16.88 24.99 C 20.22 27.12 25.530003 27.28 26.659998 27.17 L 31.150002 29.12 C 31.150002 29.12 30.609999 28.88 20.73 29.38 C 18.53 29.469997 14.34 29.07 12.35 29.56 C 11.61 29.739998 11.76 32.42 11.42 32.24 C 10.25 31.65 11.28 29.24 11.28 28.24 C 11.511034 25.495405 11.925291 22.76933 12.52 20.08 L 14.12 19.25 Z"/>
    <path fill="#ef9bc8" fill-rule="evenodd" stroke="none" d="M 12.39 34.19 C 12.39 34.19 12.8 30.3 13.03 30.27 C 13.26 30.24 31.24 30.07 31.24 30.07 L 13.869999 31.46 L 12.39 34.19 Z"/>
    <path fill="#190232" stroke="none" d="M 128.37 30.49 L 128.47 30.41 L 128.47 26.579998 L 128.41 26.11 C 128.00812 25.718836 127.67062 25.266582 127.41 24.769999 C 126.96705 24.005693 126.57292 23.214108 126.23 22.4 C 125.87142 21.582088 125.57069 20.740017 125.33 19.88 C 125.13279 19.250483 125.01521 18.598743 124.979996 17.94 C 124.979996 17.84 124.979996 17.66 124.979996 17.41 C 124.979996 17.16 124.979996 16.99 124.979996 16.9 C 124.979996 16.81 125.21 17.2 125.36001 17.66 C 125.51 18.12 125.66 18.66 125.83 19.24 C 126 19.82 126.17 20.39 126.34 20.94 C 126.44621 21.331194 126.59371 21.709988 126.78 22.07 L 128.2 24.340002 L 126.700005 12 L 126.53 10.54 L 125.82 4.63 L 120.3 4.63 L 120.13 7.12 L 120.4 6.98 L 120.73999 6.79 L 121.53 6.73 C 121.53 6.92 121.36001 7.13 121.01 7.37 C 120.70741 7.580235 120.393616 7.7738543 120.07 7.95 L 120 9.65 L 120.94 9.65 L 121.01 10.52 L 121.79 20.83 L 121.9 22.35 L 118.95999 22.35 L 118.95999 26.81 L 122.21 26.81 L 122.21 31.500002 L 125.64 31.500002 L 125.9 31.4 C 125.9659 31.367731 126.037 31.347416 126.11 31.340002 L 126.29 31.4 L 126.57001 31.500002 L 128.57 31.500002 L 128.57 30.549997 L 128.3 30.68 C 128.31326 30.6134 128.33688 30.54929 128.37 30.49 Z M 126.43 23.43 C 126.6 23.43 126.68 23.54 126.68 23.769999 C 126.68 24 126.6 24.150002 126.43 24.150002 C 126.26 24.150002 126.12001 24.03 126.12001 23.769999 C 126.12001 23.51 126.22 23.43 126.43 23.43 Z M 123.19 27.59 C 123.37 27.59 123.47 27.689999 123.47 27.9 C 123.47 28.11 123.37 28.25 123.19 28.25 C 123.01001 28.25 122.9 28.13 122.9 27.9 C 122.9 27.67 123 27.59 123.19 27.59 Z M 123.56 28.98 L 123.56 29.290003 C 123.56 29.35 123.46001 29.469997 123.37 29.65 C 123.32226 29.769405 123.26191 29.88338 123.19 29.99 C 123.19365 29.93673 123.19365 29.883268 123.19 29.83 C 123.18397 29.76681 123.18397 29.703192 123.19 29.64 C 123.17473 29.517141 123.17473 29.39286 123.19 29.27 C 123.2 29.16 123.329994 29.06 123.56 29 Z M 124.56 28.6 C 124.37 28.6 124.28 28.48 124.28 28.25 L 124.19 28.25 C 124.02 28.25 123.93 28.13 123.93 27.9 C 123.93 27.67 124.02 27.59 124.19 27.59 C 124.27482 27.580297 124.359436 27.609827 124.4198 27.670198 C 124.48017 27.730566 124.5097 27.815178 124.5 27.9 L 124.56 27.9 C 124.64195 27.891474 124.72368 27.91822 124.784744 27.973558 C 124.84582 28.028894 124.88043 28.107594 124.88 28.19 L 124.88 28.25 C 124.88 28.469997 124.79001 28.59 124.59 28.59 Z M 126.31 27.79 C 126.3292 27.729277 126.36786 27.676565 126.42 27.64 L 126.55 27.549997 L 126.61 27.549997 C 126.63483 27.536848 126.66435 27.536036 126.68985 27.547806 C 126.71536 27.559578 126.73391 27.582582 126.74 27.609999 C 126.79809 27.701563 126.79809 27.818434 126.74 27.91 C 126.65232 27.980202 126.52768 27.980202 126.439995 27.91 C 126.439995 27.91 126.380005 27.91 126.37001 27.91 C 126.36 27.91 126.35 27.819998 126.35 27.79 Z M 126.74 28.25 C 126.87 28.25 126.93 28.35 126.93 28.44 C 126.93 28.530003 126.87 28.579998 126.74 28.609999 C 126.61 28.64 126.55 28.609999 126.55 28.44 C 126.55 28.27 126.65 28.230001 126.78 28.25 Z M 125 21.689999 C 125.21 21.689999 125.32 21.819998 125.32 22.07 C 125.329636 22.157469 125.29903 22.24458 125.2368 22.306803 C 125.174576 22.369026 125.08747 22.399632 125 22.390001 C 124.81 22.390001 124.72001 22.28 124.72001 22.07 C 124.72001 21.86 124.79001 21.689999 125 21.689999 Z M 122.31999 5.75 L 122.65 5.45 L 122.98 5.15 L 123.2 4.94 L 123.27999 4.94 L 123.39 4.94 L 123.49 4.94 L 123.55 4.94 L 123.35 5.16 C 123.25 5.27 123.14001 5.38 123.03 5.48 L 122.700005 5.78 C 122.62576 5.8490095 122.541466 5.906331 122.450005 5.95 L 122.29 6.01 L 122.21 6.01 C 122.17406 5.999718 122.13595 5.999718 122.1 6.01 Z M 125 31.340002 C 124.81 31.340002 124.72001 31.24 124.72001 31.02 C 124.72001 30.8 124.81 30.68 125 30.68 C 125.19 30.68 125.32 30.79 125.32 31.02 C 125.33386 31.108398 125.304634 31.198097 125.24137 31.261372 C 125.1781 31.324642 125.0884 31.353863 125 31.340002 Z M 125.549995 29.84 L 125.240005 30.16 C 125.172745 30.2328 125.09099 30.290707 125 30.33 L 126.06 29 C 126.056015 29.029867 126.056015 29.060131 126.06 29.09 C 126.06265 29.119942 126.06265 29.150059 126.06 29.180002 C 126.064476 29.20648 126.064476 29.23352 126.06 29.260002 L 126.06 29.310001 C 126.06 29.310001 125.94999 29.43 125.85 29.530003 C 125.74999 29.629997 125.65 29.73 125.53 29.84 Z M 126.8 31.340002 C 126.61 31.340002 126.509995 31.24 126.509995 31.02 C 126.509995 30.8 126.61 30.68 126.8 30.68 L 126 30.68 C 126.00628 30.617588 126.023186 30.556711 126.05001 30.499998 C 126.05951 30.443733 126.05951 30.386265 126.05001 30.33 L 126.19999 29.99 C 126.24484 29.857681 126.32021 29.737782 126.42 29.64 C 126.370316 29.847061 126.370316 30.062937 126.42 30.27 C 126.449974 30.475504 126.60625 30.639793 126.81 30.68 C 127 30.68 127.08999 30.79 127.08999 31.02 C 127.08999 31.25 127 31.340002 126.78 31.340002 Z M 127.49 29.99 C 127.49 29.99 127.42 29.99 127.399994 29.92 C 127.38907 29.826988 127.38907 29.733013 127.399994 29.64 C 127.399994 29.38 127.399994 29.27 127.52 29.290003 C 127.649994 29.355753 127.72568 29.495161 127.71001 29.64 C 127.66 29.849998 127.6 30 127.47 30 Z M 127.49 27.59 C 127.329994 27.59 127.24 27.469997 127.24 27.24 C 127.24 27.01 127.329994 26.9 127.49 26.9 C 127.649994 26.9 127.78001 27.01 127.78001 27.24 C 127.78001 27.469997 127.66 27.59 127.47 27.59 Z M 113.96 28.689999 L 114.1 28.769999 C 114.0604 28.721876 114.00226 28.6928 113.94 28.689999 Z M 113.96 28.689999 L 114.1 28.769999 C 114.0604 28.721876 114.00226 28.6928 113.94 28.689999 Z M 113.96 28.689999 L 114.1 28.769999 C 114.0604 28.721876 114.00226 28.6928 113.94 28.689999 Z M 113.96 28.689999 L 114.1 28.769999 C 114.0604 28.721876 114.00226 28.6928 113.94 28.689999 Z M 113.96 28.689999 L 114.1 28.769999 C 114.0604 28.721876 114.00226 28.6928 113.94 28.689999 Z M 113.96 28.689999 L 114.1 28.769999 C 114.0604 28.721876 114.00226 28.6928 113.94 28.689999 Z M 113.96 28.689999 L 114.1 28.769999 C 114.0604 28.721876 114.00226 28.6928 113.94 28.689999 Z M 113.96 28.689999 L 114.1 28.769999 C 114.0604 28.721876 114.00226 28.6928 113.94 28.689999 Z M 113.96 28.689999 L 114.1 28.769999 C 114.0604 28.721876 114.00226 28.6928 113.94 28.689999 Z M 113.96 28.689999 L 114.1 28.769999 C 114.0604 28.721876 114.00226 28.6928 113.94 28.689999 Z M 113.96 28.689999 L 114.1 28.769999 C 114.0604 28.721876 114.00226 28.6928 113.94 28.689999 Z M 113.96 28.689999 L 114.1 28.769999 C 114.0604 28.721876 114.00226 28.6928 113.94 28.689999 Z M 113.96 28.689999 L 114.1 28.769999 C 114.0604 28.721876 114.00226 28.6928 113.94 28.689999 Z M 113.96 28.689999 L 114.1 28.769999 C 114.0604 28.721876 114.00226 28.6928 113.94 28.689999 Z M 113.96 28.689999 L 114.1 28.769999 C 114.0604 28.721876 114.00226 28.6928 113.94 28.689999 Z M 113.96 28.689999 L 114.1 28.769999 C 114.0604 28.721876 114.00226 28.6928 113.94 28.689999 Z M 113.96 28.689999 L 114.1 28.769999 C 114.0604 28.721876 114.00226 28.6928 113.94 28.689999 Z M 113.96 28.689999 L 114.1 28.769999 C 114.0604 28.721876 114.00226 28.6928 113.94 28.689999 Z M 113.96 28.689999 L 114.1 28.769999 C 114.0604 28.721876 114.00226 28.6928 113.94 28.689999 Z M 113.96 28.689999 L 114.1 28.769999 C 114.0604 28.721876 114.00226 28.6928 113.94 28.689999 Z M 113.96 28.689999 L 114.1 28.769999 C 114.0604 28.721876 114.00226 28.6928 113.94 28.689999 Z M 113.96 28.689999 L 114.1 28.769999 C 114.0604 28.721876 114.00226 28.6928 113.94 28.689999 Z M 113.96 28.689999 L 114.1 28.769999 C 114.0604 28.721876 114.00226 28.6928 113.94 28.689999 Z M 113.96 28.689999 L 114.1 28.769999 C 114.0604 28.721876 114.00226 28.6928 113.94 28.689999 Z M 113.96 28.689999 L 114.1 28.769999 C 114.0604 28.721876 114.00226 28.6928 113.94 28.689999 Z M 113.96 28.689999 L 114.1 28.769999 C 114.0604 28.721876 114.00226 28.6928 113.94 28.689999 Z M 113.96 28.689999 L 114.1 28.769999 C 114.0604 28.721876 114.00226 28.6928 113.94 28.689999 Z M 113.96 28.689999 L 114.1 28.769999 C 114.0604 28.721876 114.00226 28.6928 113.94 28.689999 Z M 113.96 28.689999 L 114.1 28.769999 C 114.0604 28.721876 114.00226 28.6928 113.94 28.689999 Z M 113.96 28.689999 L 114.1 28.769999 C 114.0604 28.721876 114.00226 28.6928 113.94 28.689999 Z M 113.96 28.689999 L 114.1 28.769999 C 114.0604 28.721876 114.00226 28.6928 113.94 28.689999 Z M 113.96 28.689999 L 114.1 28.769999 C 114.0604 28.721876 114.00226 28.6928 113.94 28.689999 Z M 117.9 8.47 C 118.13125 8.275702 118.37884 8.101724 118.63999 7.95 C 118.93 7.77 119.23 7.6 119.52 7.44 L 119.76 4.58 L 114.759995 4.58 L 114.29 8 C 114.55486 8.086871 114.81519 8.186997 115.07 8.3 C 115.41154 8.44232 115.74533 8.602542 116.07 8.78 C 116.36 8.94 116.61 9.08 116.83 9.18 C 116.61596 9.392539 116.38149 9.583462 116.13 9.75 C 115.909874 9.870145 115.660286 9.9256115 115.41 9.91 L 115.2 9.91 L 115.06 9.91 L 115.41 9.21 C 115.26057 9.170149 115.11628 9.113101 114.98 9.04 L 114.31999 8.74 L 114.26 8.74 L 114.06 10.43 L 113.87999 11.88 L 112.68 21.78 C 112.89888 21.83141 113.10374 21.930422 113.28 22.07 C 113.56036 22.31124 113.788376 22.607317 113.94999 22.94 C 114.12001 23.28 114.28 23.629997 114.43 24.01 C 114.56122 24.380054 114.76524 24.720078 115.03 25.01 C 115.32836 25.391726 115.66328 25.743397 116.03001 26.06 C 116.38816 26.367554 116.72244 26.701847 117.03 27.06 C 117.3301 27.380316 117.579636 27.744497 117.77 28.14 C 117.97168 28.578606 118.070854 29.057373 118.06 29.54 L 117.27 29.54 C 117.273926 29.661863 117.30466 29.78136 117.36001 29.89 C 117.41945 30.007065 117.46315 30.131477 117.490005 30.260002 C 117.51357 30.36135 117.469154 30.466343 117.38 30.52 C 117.17855 30.585684 116.96144 30.585684 116.76 30.52 C 116.94946 30.09009 117.07738 29.635618 117.14 29.17 L 117.14 29.01 C 117.10709 28.632845 116.97609 28.270859 116.76 27.96 C 116.45913 27.467798 116.12502 26.996706 115.76 26.549997 C 115.37 26.05 114.95999 25.549997 114.51999 24.99 C 114.08 24.43 113.66 23.99 113.27 23.51 L 112.49 22.59 L 111.99 26.709997 L 111.99 31.500002 L 118.23 31.500002 L 118.23 30.390001 L 117.79 30.390001 C 117.87695 30.237967 117.947365 30.077045 118 29.91 C 118.06746 29.736975 118.12423 29.559977 118.17 29.38 C 118.17 29.25 118.17 29.06 118.23 28.81 L 118.23 22 L 118.95999 13.28 L 119.19 10.46 L 119.38 8.18 C 119.110054 8.314929 118.83298 8.435105 118.55 8.54 C 118.3199 8.647097 118.07834 8.727616 117.83 8.78 C 117.756966 8.789418 117.68303 8.789418 117.61001 8.78 L 117.48001 8.78 C 117.48001 8.78 117.48001 8.68 117.61001 8.61 C 117.68472 8.538429 117.77844 8.489835 117.87999 8.47 Z M 116.73999 31 C 116.764496 30.933786 116.810196 30.877533 116.87 30.84 C 116.92095 30.795174 116.97824 30.758108 117.04001 30.73 C 117.04001 30.73 117.13 30.73 117.15 30.79 C 117.21862 30.874489 117.21862 30.99551 117.15 31.08 C 117.04449 31.152159 116.90551 31.152159 116.8 31.08 C 116.8 31.08 116.72001 31 116.73999 31 Z M 116.39 29.72 C 116.600006 29.72 116.71 29.849998 116.71 30.1 C 116.72035 30.186798 116.689575 30.273449 116.62679 30.334269 C 116.56401 30.395092 116.476425 30.423103 116.39 30.41 C 116.21 30.41 116.11 30.310001 116.11 30.1 C 116.11 29.89 116.21 29.7 116.39 29.7 Z M 116.21 31 C 116.21 31 116.15001 31.09 116.03001 31.13 C 115.91 31.17 115.86 31.13 115.86 31 C 115.86 30.87 115.86 30.769999 116.02 30.81 C 116.18 30.849998 116.21 30.88 116.21 31 Z M 115.35 26.3 C 115.54 26.3 115.64 26.420002 115.64 26.65 C 115.64 26.88 115.54 27 115.35 27 C 115.16 27 115.04 26.88 115.04 26.65 C 115.04 26.420002 115.14001 26.260002 115.35 26.260002 Z M 115.35 27.3 C 115.54 27.3 115.64 27.420002 115.64 27.65 C 115.64 27.88 115.54 28 115.35 28 C 115.16 28 115.04 27.88 115.04 27.65 C 115.04 27.420002 115.14001 27.3 115.35 27.3 Z M 114.25001 25.57 C 114.439995 25.57 114.53 25.7 114.53 25.95 C 114.53 26.2 114.439995 26.260002 114.25001 26.260002 C 114.06 26.260002 113.97 26.16 113.97 25.95 C 113.97 25.739998 114.06 25.57 114.25001 25.57 Z M 113.54 28 L 114.41 28 C 114.64943 28.009424 114.88729 28.042927 115.12 28.1 C 115.33988 28.14117 115.552284 28.215345 115.75 28.32 C 115.91183 28.381872 116.01904 28.536758 116.02 28.709997 L 116.02 29.180002 C 115.75894 29.17767 115.498344 29.157625 115.24 29.12 C 114.957924 29.078224 114.680145 29.01129 114.41 28.92 L 114.08 28.79 C 114.14026 28.866434 114.16889 28.963074 114.16 29.06 C 114.16 29.290003 114.06999 29.4 113.9 29.4 C 113.73 29.4 113.59 29.290003 113.59 29.06 C 113.59 28.83 113.7 28.709997 113.9 28.709997 L 113.9 28.709997 C 113.80459 28.666388 113.71407 28.612755 113.62999 28.549997 C 113.41992 28.423126 113.25003 28.239378 113.14 28.02 Z M 114.88 29.4 C 114.88 29.609999 114.8 29.72 114.63 29.72 C 114.542534 29.729631 114.45542 29.699028 114.3932 29.636803 C 114.33097 29.57458 114.30036 29.487467 114.31 29.4 C 114.31 29.17 114.42 29.06 114.63 29.06 C 114.83999 29.06 114.88 29.150002 114.88 29.38 Z M 113.87999 31.11 C 113.87999 31.340002 113.79 31.450003 113.6 31.450003 C 113.41 31.450003 113.30999 31.340002 113.30999 31.11 C 113.30999 30.88 113.41 30.79 113.6 30.79 C 113.79 30.79 113.84 30.88 113.84 31.09 Z M 114.12001 28.79 C 114.085144 28.746576 114.03511 28.717987 113.98 28.709997 Z M 113.98 28.709997 L 114.12001 28.79 C 114.08027 28.72891 114.012856 28.691463 113.94 28.689999 Z M 113.98 28.709997 L 114.12001 28.79 C 114.08027 28.72891 114.012856 28.691463 113.94 28.689999 Z M 113.98 28.709997 L 114.12001 28.79 C 114.08027 28.72891 114.012856 28.691463 113.94 28.689999 Z M 113.98 28.709997 L 114.12001 28.79 C 114.08027 28.72891 114.012856 28.691463 113.94 28.689999 Z M 113.98 28.709997 L 114.12001 28.79 C 114.08027 28.72891 114.012856 28.691463 113.94 28.689999 Z M 113.98 28.709997 L 114.12001 28.79 C 114.08027 28.72891 114.012856 28.691463 113.94 28.689999 Z M 113.98 28.709997 L 114.12001 28.79 C 114.08027 28.72891 114.012856 28.691463 113.94 28.689999 Z M 113.98 28.709997 L 114.12001 28.79 C 114.08027 28.72891 114.012856 28.691463 113.94 28.689999 Z M 113.98 28.709997 L 114.12001 28.79 C 114.08027 28.72891 114.012856 28.691463 113.94 28.689999 Z M 113.98 28.709997 L 114.12001 28.79 C 114.08027 28.72891 114.012856 28.691463 113.94 28.689999 Z M 113.98 28.709997 L 114.12001 28.79 C 114.08027 28.72891 114.012856 28.691463 113.94 28.689999 Z M 113.98 28.709997 L 114.12001 28.79 C 114.08027 28.72891 114.012856 28.691463 113.94 28.689999 Z M 113.98 28.709997 L 114.12001 28.79 C 114.08027 28.72891 114.012856 28.691463 113.94 28.689999 Z M 113.98 28.709997 L 114.12001 28.79 C 114.08027 28.72891 114.012856 28.691463 113.94 28.689999 Z M 113.98 28.709997 L 114.12001 28.79 C 114.08027 28.72891 114.012856 28.691463 113.94 28.689999 Z M 113.98 28.709997 L 114.12001 28.79 C 114.08027 28.72891 114.012856 28.691463 113.94 28.689999 Z M 113.98 28.709997 L 114.12001 28.79 C 114.08027 28.72891 114.012856 28.691463 113.94 28.689999 Z M 113.98 28.709997 L 114.12001 28.79 C 114.08027 28.72891 114.012856 28.691463 113.94 28.689999 Z M 113.98 28.709997 L 114.12001 28.79 C 114.08027 28.72891 114.012856 28.691463 113.94 28.689999 Z M 113.98 28.709997 L 114.12001 28.79 C 114.08027 28.72891 114.012856 28.691463 113.94 28.689999 Z M 113.98 28.709997 L 114.12001 28.79 C 114.08027 28.72891 114.012856 28.691463 113.94 28.689999 Z M 113.98 28.709997 L 114.12001 28.79 C 114.08027 28.72891 114.012856 28.691463 113.94 28.689999 Z M 113.98 28.709997 L 114.12001 28.79 C 114.08027 28.72891 114.012856 28.691463 113.94 28.689999 Z M 113.98 28.709997 L 114.12001 28.79 C 114.08027 28.72891 114.012856 28.691463 113.94 28.689999 Z M 113.98 28.709997 L 114.12001 28.79 C 114.08027 28.72891 114.012856 28.691463 113.94 28.689999 Z M 113.98 28.709997 L 114.12001 28.79 C 114.08027 28.72891 114.012856 28.691463 113.94 28.689999 Z M 113.98 28.709997 L 114.12001 28.79 C 114.08027 28.72891 114.012856 28.691463 113.94 28.689999 Z M 113.98 28.709997 L 114.12001 28.79 C 114.08027 28.72891 114.012856 28.691463 113.94 28.689999 Z M 113.98 28.709997 L 114.12001 28.79 C 114.08027 28.72891 114.012856 28.691463 113.94 28.689999 Z M 113.98 28.709997 L 114.12001 28.79 C 114.08027 28.72891 114.012856 28.691463 113.94 28.689999 Z"/>
    <path fill="#190232" stroke="none" d="M 136.41 23.62 L 136.88 23.94 L 137.35 24.59 L 137.35 4.59 L 130.74 4.59 L 130.74 4.72 L 130.82 4.72 C 130.87 4.72 130.94 4.72 131.04 4.87 C 131.14 5.02 131.25 5.1 131.36 5.23 C 131.46243 5.3671927 131.55597 5.510822 131.64 5.66 C 131.70822 5.751036 131.75288 5.8575296 131.77 5.97 C 131.77 5.97 131.77 5.97 131.64 5.97 L 131.36 5.77 L 131 5.5 C 130.94003 5.441137 130.86307 5.4026494 130.78 5.39 L 130.7 5.39 L 130.7 14.86 C 130.71089 14.919506 130.71089 14.9804945 130.7 15.04 C 130.70612 15.093159 130.70612 15.146842 130.7 15.2 L 130.7 31.500002 L 133.83 31.500002 C 134.52 31.500002 135.17 31.500002 135.76 31.420002 C 136.35 31.340002 136.76 31.310001 137.31 31.21 L 137.31 25.52 C 137.24907 25.422697 137.18228 25.329191 137.11 25.24 L 136.51 24.49 C 136.36946 24.299662 136.20851 24.125288 136.03 23.97 L 136.03 23.62 Z M 134.34 6.62 L 134.78 6.62 C 134.80028 6.9215403 134.62195 7.20118 134.34 7.31 Z M 134.41 16.76 C 134.49483 16.7503 134.57944 16.779829 134.6398 16.840197 C 134.70016 16.900566 134.7297 16.985178 134.72 17.07 C 134.72 17.3 134.61 17.41 134.41 17.41 C 134.21 17.41 134.12 17.3 134.12 17.07 C 134.12 16.84 134.22 16.72 134.41 16.72 Z M 133.23 17.26 C 133.19456 17.209425 133.15057 17.16543 133.1 17.13 C 133.03824 17.073023 132.98741 17.005243 132.95 16.93 C 132.89 16.83 132.83 16.69 132.74 16.5 C 132.6637 16.347647 132.6066 16.186415 132.57 16.02 C 132.5 15.76 132.45 15.57 132.43 15.47 L 132.51 15.47 L 132.62 15.47 C 132.7 15.47 132.88 15.68 133.17 16.1 C 133.46 16.52 133.75 16.99 134.06 17.54 C 134.37 18.09 134.65 18.61 134.89 19.13 C 135.0714 19.455845 135.19331 19.8114 135.25 20.18 L 134.78 20.18 L 134.61 19.87 L 134.2 19.13 C 134.05 18.84 133.88 18.55 133.72 18.23 C 133.56 17.91 133.41 17.66 133.31 17.44 C 133.30006 17.36162 133.27274 17.286453 133.23 17.22 Z M 135.77 29.310001 C 135.709 29.43624 135.63167 29.553915 135.54 29.659998 L 135.46 29.659998 L 135.35 29.659998 C 135.24 29.659998 135.11 29.549997 134.95 29.33 C 134.79 29.11 134.63 28.87 134.45 28.59 C 134.27 28.310001 134.11 28.06 133.97 27.81 C 133.88213 27.633818 133.76361 27.474672 133.62 27.340002 L 133.76 27.340002 L 134 27.340002 C 134.15208 27.372372 134.29123 27.4489 134.4 27.56 C 134.60214 27.712292 134.79266 27.879421 134.97 28.06 L 135.52 28.609999 C 135.65332 28.747007 135.7935 28.877176 135.94 29 C 135.89714 29.09799 135.83984 29.189003 135.77 29.27 Z M 135.94 7.31 Q 135.63 7.31 135.46 6.89 C 135.36963 6.649666 135.23383 6.4289813 135.06 6.24 L 135.21 6.24 L 135.38 6.24 C 135.56851 6.2350054 135.75684 6.255184 135.94 6.3 C 136.13744 6.3740277 136.32025 6.48236 136.48 6.62 C 136.45439 6.745679 136.4106 6.8669534 136.35 6.98 C 136.30478 7.106345 136.22923 7.219659 136.13 7.31 L 136.07 7.31 Z"/>
    <path fill="#190232" stroke="none" d="M 144.45 28 C 143.85959 28.303066 143.28548 28.636856 142.73 29 C 142.28496 29.27937 141.87819 29.615534 141.52 30 L 142.9 30 L 142.9 30.370003 L 140.43 31.43 L 140.43 31.43 L 146.38 31.43 C 146.51839 31.348179 146.63234 31.230774 146.71 31.09 C 146.78996 30.946314 146.8473 30.791159 146.88 30.629997 C 146.90672 30.483288 146.94688 30.339348 147 30.2 C 147 30.13 147 30.04 147 29.92 L 147 26.83 L 146.22 27.14 C 145.61604 27.397003 145.0253 27.684027 144.45 28 Z M 143.75 31.09 L 143.75 31.09 L 143.75 31.09 L 143.75 31.09 C 143.70778 31.062899 143.67877 31.019402 143.67 30.97 C 143.67 30.88 143.67 30.83 143.83 30.83 C 143.99 30.83 144.04 30.83 144.02 30.96 C 144.00443 31.015152 143.96593 31.060976 143.91429 31.08584 C 143.86266 31.110703 143.80283 31.112217 143.75 31.09 Z M 145.31 29.09 C 145.3648 29.050064 145.43263 29.032215 145.5 29.04 C 145.58046 29.025654 145.66286 29.051546 145.72066 29.109343 C 145.77846 29.167137 145.80435 29.249533 145.79 29.33 C 145.79 29.530003 145.69 29.64 145.5 29.64 L 145.38 29.64 C 145.26515 29.591887 145.19588 29.473713 145.21 29.35 C 145.17516 29.2389 145.21547 29.117977 145.31 29.05 Z M 144.79 29.84 C 144.84004 29.704653 144.97685 29.621735 145.12 29.64 C 145.20905 29.635252 145.29604 29.667871 145.36 29.73 L 145.36 29.73 C 145.41623 29.804659 145.44453 29.896648 145.44 29.99 C 145.44963 30.077469 145.41902 30.16458 145.3568 30.226803 C 145.29459 30.289026 145.20747 30.319632 145.12 30.310001 C 145.21469 30.30028 145.30814 30.337656 145.37 30.41 C 145.40619 30.463331 145.42696 30.52562 145.43 30.59 C 145.43486 30.613081 145.43486 30.636917 145.43 30.659998 C 145.43964 30.747469 145.40903 30.834581 145.3468 30.896803 C 145.28458 30.959026 145.19746 30.989632 145.11 30.98 C 144.88 30.98 144.76 30.87 144.76 30.67 L 144.76 30.67 C 144.7528 30.5716 144.7852 30.474401 144.85 30.4 C 144.92383 30.342161 145.01643 30.31367 145.11 30.32 C 144.87 30.32 144.76 30.21 144.76 30 C 144.75511 29.950119 144.75511 29.899881 144.76 29.849998 Z M 141.43 26 C 141.10341 25.995476 140.78067 26.071009 140.49 26.22 L 140.43 26.22 L 140.43 29.73 C 141.03668 29.53803 141.62555 29.293781 142.19 29 Q 143.12 28.52 144.02 28 C 144.61 27.629997 145.18 27.260002 145.72 26.9 L 147.04 26.02 L 141.43 26.02 Z"/>
    <path fill="#190232" stroke="none" d="M 99.75 41.09 L 102.6 41.09 L 103.41 37.09 L 98 37.09 L 96 38.39 L 93.68001 40 L 93.68001 42 C 93.80871 42.092075 93.90636 42.22112 93.96 42.37 C 94.03944 42.589706 94.03944 42.83029 93.96 43.05 L 93.73 43.05 L 93.73 43.6 L 92.52 43.6 L 92.14 47.91 L 99.14001 47.91 L 99.5 47.71 C 99.68574 47.57518 99.910545 47.50493 100.14 47.510002 C 100.28 47.510002 100.46 47.65 100.68 47.91 L 102.17 47.91 L 102.53 43.91 L 101.67 43.69 L 101.23001 43.62 L 99.75 43.62 Z M 97.810005 39.49 C 97.810005 39.71 97.69 39.82 97.44 39.82 C 97.34895 39.83373 97.256805 39.80341 97.1917 39.738304 C 97.126595 39.6732 97.09626 39.581043 97.10999 39.49 Q 97.10999 39.13 97.44 39.13 C 97.54056 39.11308 97.64316 39.1451 97.716255 39.21621 C 97.789345 39.287323 97.82415 39.38901 97.810005 39.49 Z M 99.72 63.74 L 99.72 63.74 L 99.72 49 C 99.33586 48.83882 98.93253 48.7279 98.51999 48.67 C 98.13902 48.615074 97.75488 48.58502 97.37 48.580006 C 96.91001 48.580006 96.68 48.580006 96.68 48.5 L 93.68001 48.5 L 93.68001 65.9 L 99.75 65.9 L 99.75 63.9 L 99.32 64.11 C 99.36164 64.03476 99.41573 63.967136 99.48 63.91 C 99.54546 63.835194 99.6277 63.776936 99.72 63.74 Z M 97.29 63.630005 C 97.40303 63.61844 97.51696 63.61844 97.62999 63.630005 C 97.89 63.630005 98.02 63.630005 97.99 63.78 C 97.96 63.93 97.869995 63.96 97.62999 63.96 C 97.39 63.96 97.23001 63.9 97.17999 63.78 C 97.13 63.66 97.2 63.65 97.29 63.630005 Z M 93.869995 56.780003 L 94.68 56.780003 C 95.16494 56.781055 95.64814 56.838097 96.12 56.95 C 96.50736 57.013306 96.85125 57.234108 97.07 57.56 L 96.63 57.56 L 96.23 57.56 L 95.57 57.56 C 95.192635 57.552 94.81854 57.48797 94.46 57.37 C 94.06999 57.29 93.869995 57.08 93.869995 56.780003 Z M 96.670006 62.34 C 96.670006 62.589996 96.56 62.71 96.34 62.71 C 96.12 62.71 96.01 62.589996 96.01 62.34 C 96.01 62.09 96.12 61.97 96.34 61.97 C 96.56 61.97 96.670006 62.1 96.670006 62.34 Z M 95.12 60.8 C 95.12 60.55 95.22 60.429996 95.42 60.429996 C 95.62 60.429996 95.75 60.55 95.75 60.8 C 95.763725 60.891045 95.7334 60.9832 95.668304 61.048298 C 95.6032 61.113407 95.51105 61.14373 95.42 61.13 Q 95.12 61.13 95.12 60.8 Z M 97.99 64.8 C 97.84611 64.87161 97.690094 64.9157 97.53 64.93 C 97.266945 64.94718 97.00305 64.94718 96.73999 64.93 C 96.49026 64.946236 96.23974 64.946236 95.99 64.93 C 95.83019 64.91416 95.674446 64.870155 95.52999 64.8 C 95.43 64.8 95.52999 64.71 95.8 64.69 C 96.11313 64.67395 96.42687 64.67395 96.73999 64.69 C 97.0731 64.67228 97.40689 64.67228 97.74 64.69 C 98 64.72 98.09 64.76 98 64.81 Z M 98.99 63.36 C 98.99 63.17 99.11 63.07 99.36 63.07 C 99.44047 63.055653 99.522865 63.08155 99.58066 63.139343 C 99.63844 63.19714 99.664345 63.279533 99.649994 63.36 C 99.649994 63.61 99.56 63.730003 99.36 63.730003 C 99.26102 63.743385 99.16147 63.70979 99.09083 63.639156 C 99.0202 63.56853 98.98661 63.46898 99 63.37 Z M 99.55 48.529995 L 99.79 48.529995 L 99.79 48.529995 Z"/>
    <path fill="#190232" stroke="none" d="M 110.48 59.33 L 110.71 59.470005 L 110.71 43.59 L 105.37 43.59 L 105.58 43.82 L 105.86 44.17 C 105.91629 44.237 105.95725 44.3155 105.98 44.4 Q 105.98 44.489998 105.86 44.4 C 105.761635 44.355995 105.66785 44.302402 105.58 44.24 C 105.48474 44.166496 105.38449 44.09967 105.28 44.04 C 105.21292 43.99434 105.13851 43.960518 105.05999 43.94 C 104.88 43.94 104.79001 43.85 104.79001 43.639996 L 104.79001 43.56 L 104.64 43.56 L 104.64 51.78 L 104.7 51.78 C 104.9 51.78 105 51.87 105 52.03 C 105.00977 52.112175 104.98132 52.194294 104.922806 52.252804 C 104.864296 52.311325 104.78217 52.339775 104.7 52.329998 L 104.64 52.329998 L 104.64 65.94 L 109.64 65.94 L 109.86 65.94 L 110.68 65.86 L 110.68 60.16 L 110.59 60.06 C 110.44803 59.90139 110.29059 59.757343 110.12001 59.630005 L 110.12001 59.33 Z M 108.48 44.98 L 108.9 44.98 C 108.903366 45.244843 108.73267 45.48056 108.48 45.56 Z M 108.48 53.510002 C 108.69 53.510002 108.79001 53.61 108.79001 53.81 C 108.79001 54.01 108.69 54.09 108.48 54.09 C 108.27 54.09 108.21 54 108.21 53.81 C 108.21 53.62 108.350006 53.510002 108.53 53.510002 Z M 107.24 53.86 C 107.08025 53.700123 106.95441 53.50965 106.87 53.3 C 106.79195 53.176807 106.73452 53.041695 106.700005 52.900005 C 106.63 52.680004 106.59 52.520004 106.57001 52.44 L 106.63999 52.44 L 106.75 52.44 C 106.83 52.44 107.01001 52.620003 107.27999 52.98 C 107.55 53.34 107.84999 53.74 108.15001 54.2 C 108.45 54.66 108.729996 55.099995 108.96 55.53 C 109.13227 55.805298 109.25101 56.11064 109.30999 56.429996 L 108.85 56.429996 L 108.68 56.18 L 108.28999 55.55 C 108.13 55.31 107.98 55.05 107.82 54.79 C 107.66 54.529995 107.52 54.300003 107.42 54.12 C 107.40523 54.021774 107.35971 53.93075 107.29 53.86 Z M 109.810005 64.11 C 109.754196 64.22729 109.67607 64.33259 109.58 64.42 L 109.4 64.42 C 109.299995 64.42 109.17 64.34 109.02 64.15 C 108.87 63.96 108.7 63.76 108.53 63.53 C 108.36 63.3 108.2 63.07 108.06 62.86 C 107.970215 62.705402 107.85531 62.56684 107.72 62.45 L 107.86 62.45 L 108.06 62.45 C 108.2003 62.475506 108.33139 62.5376 108.44 62.63 L 109 63 L 109.549995 63.46 C 109.68025 63.574642 109.81715 63.681488 109.96 63.78 C 109.9449 63.894722 109.911125 64.006195 109.86 64.11 Z M 110 45.59 C 109.77935 45.57654 109.58918 45.42996 109.52 45.219997 C 109.436516 45.01571 109.31037 44.831604 109.15 44.680004 L 109.28 44.680004 L 109.45 44.680004 C 109.635925 44.67326 109.82169 44.696903 110 44.749996 C 110.185646 44.813984 110.36086 44.90496 110.51999 45.02 C 110.49599 45.124218 110.45183 45.222736 110.38999 45.31 C 110.341385 45.42048 110.2698 45.51934 110.18 45.6 L 110.12001 45.6 C 110.07979 45.6065 110.03859 45.60306 110 45.59 Z M 107.68 37.09 L 104.61 37.16 L 104.61 40.93 C 104.61 40.93 104.61 41.03 104.729996 41.11 C 104.778305 41.172573 104.839745 41.223778 104.91001 41.26 L 105.42 41.26 C 105.67 41.26 105.94999 41.26 106.26 41.26 L 107.12 41.26 L 110.65 41.26 L 110.65 37.09 Z"/>
    <path fill="#190232" stroke="none" d="M 113.79 43.630005 L 113.79 48.25 L 122.33 48.25 L 122.33 43.630005 Z M 119.79 52.13 C 119.787796 52.366356 119.81808 52.60189 119.88 52.83 L 119.88 51.53 C 119.81628 51.72373 119.78255 51.92607 119.78001 52.13 Z M 119.43 50.51 C 119.51889 50.235104 119.62923 49.96762 119.76 49.71 C 119.79063 49.641205 119.83104 49.57721 119.88 49.52 L 119.88 48.89 L 113.80001 48.89 L 113.80001 63.5 L 114.189995 63.39 L 114.89001 63.39 C 114.73506 63.468456 114.57024 63.52564 114.4 63.56 L 113.85 63.699997 L 113.85 63.699997 L 113.85 65.94 L 118.26 65.94 L 118.26 65.86 Q 118.26 65.59 118.56 65.59 C 118.72 65.59 118.81 65.68 118.81 65.86 C 118.81568 65.88637 118.81568 65.913635 118.81 65.94 L 119.94 65.94 L 119.94 54.24 C 119.80357 54.228405 119.66642 54.228405 119.52999 54.24 C 119.333855 54.277134 119.149 54.359295 118.99 54.48 C 118.80033 54.41608 118.62406 54.317772 118.47 54.19 C 118.25783 54.02761 118.05734 53.85051 117.869995 53.66 C 117.91643 53.666702 117.963585 53.666702 118.01 53.66 L 118.42 53.66 L 118.57001 53.66 L 118.87 53.83 C 118.965256 53.890514 119.07007 53.934467 119.18 53.96 C 119.24677 53.93124 119.30776 53.890575 119.36 53.84 C 119.43246 53.790424 119.49658 53.729668 119.55 53.66 L 119.55 53.510002 C 119.54884 53.243805 119.48003 52.98228 119.35 52.749996 C 119.2183 52.503937 119.14959 52.229088 119.15 51.950005 C 119.16379 51.751205 119.19389 51.553867 119.24 51.36 C 119.28068 51.072918 119.34081 50.78893 119.42 50.51 Z M 119.14001 65.86 C 119.020004 65.86 118.97 65.86 118.97 65.71 C 118.97 65.56 119.020004 65.55 119.12 65.59 C 119.22 65.63 119.3 65.67 119.3 65.71 C 119.3 65.75 119.24 65.84 119.13 65.86 Z M 119.49 55.14 C 119.67 55.14 119.76 55.24 119.76 55.45 C 119.76 55.66 119.67 55.75 119.49 55.75 C 119.31 55.75 119.20999 55.65 119.20999 55.45 C 119.20999 55.250004 119.29 55.14 119.48 55.14 Z M 118.83 65 C 118.86717 65.002556 118.90178 65.01983 118.926186 65.04798 C 118.95058 65.07613 118.962746 65.11285 118.95999 65.15 C 118.95999 65.21 118.95999 65.27 118.8 65.3 C 118.63999 65.33 118.65 65.3 118.65 65.15 C 118.65 65 118.71 65 118.83 65 Z M 118.17 62.08 C 118.17 62.08 118.26 62.17 118.31999 62.360004 C 118.380005 62.55 118.439995 62.780003 118.50001 63.02 C 118.56 63.259995 118.62 63.5 118.67 63.72 C 118.70427 63.8517 118.73098 63.985256 118.75 64.12 C 118.75 64.32 118.66 64.42 118.50001 64.42 C 118.41783 64.42977 118.33572 64.40132 118.27719 64.34281 C 118.21867 64.284294 118.19022 64.20217 118.19999 64.12 C 118.19999 64.12 118.19999 63.99 118.19999 63.86 C 118.19999 63.730003 118.19999 63.570004 118.19999 63.4 L 118.19999 62.87 C 118.19999 62.680004 118.19999 62.520004 118.19999 62.38 C 118.19999 62.24 118.12001 62.09 118.17 62.09 Z M 114.36 65.33 C 114.18 65.33 114.08 65.23 114.08 65.03 C 114.08 64.83 114.18 64.73 114.36 64.73 C 114.52569 64.73 114.66 64.86431 114.66 65.03 C 114.66 65.19569 114.52569 65.33 114.36 65.33 Z M 114.88 64.24 C 114.71 64.24 114.63 64.14 114.63 63.93 C 114.63 63.72 114.71 63.69 114.88 63.69 C 115.05 63.69 115.18 63.77 115.18 63.93 C 115.18 64.09 115.079994 64.25 114.88 64.25 Z M 115.78001 64.54 C 115.68981 64.55534 115.62794 64.63931 115.64 64.73 C 115.64 64.93 115.56 65.03 115.39 65.03 C 115.22 65.03 115.12 64.93 115.12 64.73 C 115.12 64.53 115.20999 64.57 115.38 64.54 L 115.79 64.54 C 115.87 64.52 115.87 64.53 115.78001 64.55 Z M 116.78 65.21 C 116.49476 64.86892 116.2341 64.50801 116 64.13 C 115.77833 63.783226 115.60031 63.410408 115.47 63.02 C 115.36 62.680004 115.47 62.48 115.64 62.44 C 115.712944 62.642433 115.799805 62.839573 115.90001 63.03 L 116.46 64.25 L 117.02 65.46 L 117.02 65.52 Z M 126.4 45 L 126.33 47 L 125.73 44.460003 L 124.43 43.59 L 122.71 43.59 L 122.71 60.900005 L 122.91 61.259995 C 122.91 61.39 122.91 61.53 122.91 61.66 C 122.91 62.429996 122.91 63.159996 122.83 63.84 C 122.83 64.24 122.759995 64.67 122.700005 65.14 L 122.700005 65.94 L 124 65.94 L 124 65.86 C 124 65.76 124 65.71 124.13 65.71 C 124.26 65.71 124.36 65.76 124.32 65.86 C 124.30561 65.88802 124.288895 65.91479 124.27 65.94 L 128.85 65.94 L 128.85 46.55 Z M 124.81 64.79 C 124.600006 64.79 124.5 64.69 124.5 64.51 C 124.49234 64.39624 124.46529 64.28464 124.41999 64.18 C 124.41999 64.04 124.34 63.9 124.28999 63.76 L 124.28999 63.66 C 124.21999 63.470005 124.18 63.319996 124.14 63.190002 C 124.09999 63.060005 124.14 62.99 124.14 62.99 C 124.14 62.99 124.24 63.060005 124.350006 63.190002 C 124.46 63.319996 124.55 63.470005 124.670006 63.66 C 124.77592 63.82801 124.87273 64.001595 124.96 64.18 C 125.02038 64.28149 125.06108 64.39344 125.08 64.51 C 125.08 64.67 125.02 64.76 124.89 64.78 Z M 124.5 59.94 C 124.5 59.74 124.600006 59.639996 124.81 59.639996 C 125.02 59.639996 125.05 59.74 125.05 59.94 C 125.05 60.14 124.97 60.22 124.81 60.22 C 124.65 60.22 124.5 60.07 124.5 59.890003 Z M 125.71 59.639996 L 125.4 59.510002 L 125.09 59.37 L 124.5 59.07 C 124.4019 59.01511 124.297905 58.9715 124.19 58.939995 L 123.52 58.939995 C 123.67665 58.874283 123.83691 58.81752 124 58.77 L 124.5 58.63 L 124.87 58.63 L 125.37 59.09 L 126.06 59.730003 C 126.06 59.730003 125.9 59.670002 125.71 59.59 Z M 127.46001 62.47 C 127.46001 62.63 127.46001 62.809998 127.38 63 C 127.3 63.190002 127.31 63.39 127.270004 63.570004 C 127.23964 63.68804 127.21957 63.80849 127.20999 63.93 C 127.20999 64.12 127.12 64.21 126.94001 64.21 C 126.759995 64.21 126.63 64.12 126.63 63.93 C 126.65005 63.80554 126.687065 63.684414 126.74 63.570004 Q 126.85 63.3 126.98 63 L 127.24 62.47 C 127.32 62.31 127.38 62.23 127.43 62.23 C 127.48 62.23 127.48 62.26 127.46001 62.42 Z"/>
    <path fill="#190232" stroke="none" d="M 137.86 52.72 L 131.79 54.48 L 131.79 58.48 L 137.93 56.64 L 140.4 55.9 L 140.4 65.9 L 142.14 65.9 L 142.25 65.83 L 144.07 64.6 L 144.16 64.54 L 146 63.350002 L 146.49 63.02 L 146.49 50.209995 Z M 141.7 63.72 C 141.7 63.55 141.78 63.46 141.93 63.46 C 142.00159 63.449852 142.07378 63.47396 142.12491 63.52509 C 142.17604 63.576218 142.20015 63.64841 142.19 63.72 C 142.19 63.87 142.1 63.950005 141.93 63.950005 C 141.86108 63.95875 141.79228 63.93285 141.74626 63.88081 C 141.70023 63.828777 141.6829 63.75734 141.7 63.69 Z M 140.88 65.28 C 141.04 65.28 141.09 65.28 141.04 65.41 C 140.99 65.54 140.97 65.51 140.88 65.51 C 140.79 65.51 140.79 65.51 140.76 65.4 C 140.73 65.29 140.78 65.25 140.88 65.25 Z M 142.74 56.109997 C 142.58905 56.01082 142.45699 55.88553 142.35 55.74 C 142.24377 55.603912 142.15942 55.452087 142.1 55.29 C 142.04585 55.16327 142.01535 55.027706 142.01 54.89 L 142.01 54.749996 C 142.13 54.86 142.26 54.96 142.41 55.08 C 142.54684 55.188816 142.67706 55.305687 142.8 55.43 C 142.91258 55.555897 143.01617 55.68956 143.11 55.83 C 143.19193 55.962387 143.23682 56.11434 143.24 56.269997 C 143.0563 56.26673 142.8795 56.199547 142.74 56.08 Z M 143.11 56.93 C 143.12015 57.00159 143.09604 57.07378 143.0449 57.12491 C 142.99379 57.176037 142.92159 57.20014 142.85 57.190002 C 142.7 57.190002 142.62 57.099995 142.62 56.93 C 142.62 56.76 142.7 56.680004 142.85 56.680004 C 143 56.680004 143.11 56.73 143.11 56.900005 Z M 143.47 56.680004 C 143.31 56.680004 143.24 56.61 143.24 56.47 C 143.24 56.329998 143.31 56.22 143.47 56.22 C 143.63 56.22 143.7 56.300003 143.7 56.47 C 143.7 56.64 143.62 56.649998 143.47 56.649998 Z M 143.41 64.92 C 143.31 64.92 143.26 64.92 143.26 64.79 C 143.26 64.66 143.31 64.67 143.41 64.69 C 143.51 64.71 143.57 64.69 143.57 64.79 C 143.57 64.89 143.52 64.86 143.41 64.89 Z M 145.41 63.21 C 145.27 63.21 145.2 63.13 145.2 62.98 C 145.2 62.83 145.27 62.749996 145.41 62.749996 C 145.55 62.749996 145.61 62.82 145.61 62.98 C 145.61 63.14 145.57 63.18 145.44 63.18 Z M 145.75 62.049995 C 145.55899 62.2238 145.30815 62.31697 145.05 62.31 C 145.05049 62.07351 145.1569 61.849678 145.34 61.699997 C 145.54585 61.52451 145.80962 61.43184 146.08 61.44 C 146.0679 61.661892 145.95802 61.866997 145.78 62 Z M 139.34 65.56 L 139.7 65.56 C 139.79637 65.54935 139.89363 65.54935 139.99 65.56 L 139.99 61.479996 L 137.53 61.479996 L 137.53 57.479996 L 131.76 59.21 L 131.76 63 L 131.82 63 L 133.2 63.93 L 133.28 63.81 C 133.37016 63.691418 133.45363 63.567894 133.53 63.44 C 133.58842 63.36382 133.63557 63.27962 133.67 63.190002 C 133.67 63.190002 133.67 63.190002 133.67 63.33 C 133.65308 63.442135 133.62631 63.552563 133.59 63.66 C 133.54243 63.78075 133.50237 63.904316 133.47 64.03 C 133.47592 64.052956 133.47592 64.07704 133.47 64.1 L 134.41 64.72 L 136.13 65.88 L 140 65.88 L 140 65.63 C 139.90457 65.65184 139.80544 65.65184 139.71 65.63 C 139.5537 65.63115 139.40057 65.58591 139.27 65.5 C 139.27 65.5 139.27 65.55 139.37 65.53 Z M 138.08 64.69 C 138.0836 64.62672 138.0836 64.56328 138.08 64.5 C 138.0764 64.43672 138.0764 64.37328 138.08 64.31 C 138.08 64.19 138.08 64.07 138.08 63.950005 C 138.08 63.83 138.2 63.75 138.39 63.72 L 138.39 63.950005 C 138.39 63.950005 138.33 64.12 138.27 64.32 C 138.23714 64.44189 138.18297 64.55699 138.11 64.66 Z M 138.39 62.98 C 138.56 62.98 138.65 63.05 138.65 63.21 C 138.65 63.37 138.56 63.46 138.39 63.46 C 138.22 63.46 138.16 63.379997 138.16 63.21 C 138.15343 63.142998 138.18102 63.07719 138.23338 63.034897 C 138.28575 62.9926 138.35588 62.97949 138.42 63 Z M 138.83 64.18 C 138.8143 64.121025 138.8143 64.058975 138.83 64 C 138.83 64 138.9 63.93 138.93 64 C 139.03014 64.02883 139.094 64.12673 139.08 64.23 C 139.08 64.38 139.08 64.47 138.93 64.49 C 138.78 64.51 138.86 64.49 138.83 64.42 C 138.80902 64.32921 138.81961 64.23398 138.86 64.15 Z M 137.26 62.460003 C 137.43 62.460003 137.52 62.529995 137.52 62.69 C 137.52 62.85 137.43 62.92 137.26 62.92 C 137.09 62.92 137.06 62.840004 137.06 62.69 C 137.06 62.54 137.16 62.429996 137.29 62.429996 Z M 137 63.890003 C 137.06366 63.879456 137.1285 63.90026 137.17412 63.94589 C 137.21974 63.991512 137.24054 64.05634 137.23 64.12 C 137.23 64.247025 137.12703 64.35 137 64.35 C 136.87297 64.35 136.77 64.247025 136.77 64.12 C 136.75946 64.05634 136.78026 63.991512 136.82588 63.94589 C 136.8715 63.90026 136.93634 63.879456 137 63.890003 Z M 136.69 63.630005 L 136.69 63.890003 L 136.41 63.890003 Z M 136.1 62.89 C 136.2 62.89 136.26 62.96 136.26 63.02 C 136.26 63.08 136.2 63.11 136.1 63.14 C 136 63.17 135.95 63.14 135.95 63.02 C 135.95 62.900005 136 62.85 136.11 62.89 Z M 135.17 60.51 C 135.17 60.22 135.17 59.91 135.26 59.570004 C 135.35 59.23 135.33 58.939995 135.37 58.680004 C 135.41 58.42 135.45 58.28 135.49 58.28 C 135.53 58.28 135.57 58.41 135.59 58.680004 C 135.61 58.95 135.59 59.24 135.59 59.59 L 135.59 61 C 135.59 61.18 135.51 61.259995 135.35 61.259995 C 135.19 61.259995 135.1 61.18 135.1 61 C 135.1 60.82 135.15 60.8 135.18 60.51 Z M 134.85 63.790005 C 135.01822 63.793648 135.18568 63.813744 135.35 63.85 L 135.72 63.91 C 135.79861 63.9088 135.87514 63.884445 135.94 63.84 C 136.01 63.790005 136.05 63.84 136.05 63.84 C 136.05 63.84 135.97 64.07 135.8 64.07 C 135.72684 64.077156 135.65315 64.077156 135.58 64.07 C 135.46037 64.08329 135.33963 64.08329 135.22 64.07 L 134.87 64 Q 134.72 64 134.72 63.88 C 134.72 63.88 134.77 63.790005 134.86 63.790005 Z M 139 65.38 C 138.92 65.38 138.93 65.28 139 65.19 C 139.07 65.1 139.19 65.08 139.24 65.19 C 139.29 65.3 139.29 65.34 139.24 65.39 C 139.19 65.44 139.13 65.41 139 65.38 Z M 142.13 43.59 L 136.32 43.59 L 133.57 45.419994 L 133.12 45.730003 C 133.14293 45.78191 133.16966 45.832043 133.2 45.88 C 133.2659 46.009834 133.2969 46.154568 133.29 46.300003 C 133.28714 46.427303 133.25998 46.552883 133.21 46.67 C 133.16937 46.74465 133.14229 46.82591 133.13 46.91 C 133.13 46.91 133.13 46.91 133.02 46.83 C 132.97119 46.76854 132.90497 46.723232 132.83 46.7 C 132.76924 46.577103 132.76924 46.4329 132.83 46.31 C 132.83 46.16 132.91 46.03 132.93 45.92 L 132.93 45.86 L 131.93 46.520004 L 131.93 50.520004 L 137.55 50.520004 L 137.33 49.71 L 137.55 49.71 L 137.55 48.06 L 140.39 48.06 L 140.39 51.31 L 145.39 49.85 L 146.16 49.62 L 146.16 49.62 L 146.34 49.62 L 146.44 49.62 L 146.44 46.620003 Z"/>
    <path fill="#190232" stroke="none" d="M 163.51 45.85 L 161.95 46.28 L 161.82 46.28 L 161.62 46.28 L 161.41 46.28 L 161.26 46.28 C 161.37491 46.041183 161.57993 45.85775 161.83 45.77 C 162.15253 45.63458 162.48743 45.53076 162.83 45.46 L 162.94 45.46 L 160.24 43.65 L 158.52 43.65 L 158.52 46.300003 L 159.25 46.300003 L 159.25 46.57 L 158.52 46.57 L 158.52 57.87 L 159.52 57.87 L 159.52 59.65 C 159.5543 59.897537 159.40059 60.132393 159.16 60.2 C 158.94818 60.26283 158.7303 60.30305 158.51 60.32 L 158.51 65.93 L 159.18 65.93 L 162.94 65.63 L 163.3 65.63 L 164.59 65.91 L 164.59 65.44 C 164.56952 65.56356 164.45395 65.648026 164.33 65.63 C 164.18088 65.63 164.06 65.50912 164.06 65.36 C 164.06 65.210884 164.18088 65.09 164.33 65.09 C 164.45395 65.071976 164.56952 65.15644 164.59 65.28 L 164.59 64 L 164.54 64 Q 164.24 64 164.24 63.730003 C 164.24 63.539997 164.34 63.46 164.54 63.46 L 164.59 63.46 L 164.59 46.55 Z M 159.15 65.37 C 159.15 65.45 159.07 65.49 158.97 65.49 C 158.87 65.49 158.87 65.49 158.84 65.35 C 158.81 65.21 158.84 65.22 158.97 65.22 C 159.1 65.22 159.21 65.27 159.15 65.37 Z M 159.88 46.28 Q 160.06 46.34 160.06 46.4 Q 160.06 46.460003 159.88 46.55 Q 159.7 46.61 159.7 46.4 Q 159.7 46.19 159.88 46.28 Z M 160.54 65.37 Q 160.54 65.49 160.39 65.49 C 160.30556 65.488525 160.23221 65.43149 160.21 65.35 C 160.21 65.27 160.21 65.22 160.39 65.22 C 160.57 65.22 160.58 65.27 160.54 65.37 Z M 161.74 59.87 C 161.74 59.87 161.64 59.81 161.56 59.69 C 161.47144 59.555073 161.39128 59.414806 161.32 59.27 L 161.08 58.77 C 161.01465 58.639446 160.96432 58.5019 160.93 58.360004 L 161.56 56.360004 C 161.59686 56.497066 161.617 56.638092 161.62 56.780003 L 161.62 58.14 C 161.62 58.31 161.62 58.4 161.62 58.4 C 161.62 58.4 161.74 58.47 161.85 58.6 C 161.96 58.73 162.07 58.88 162.19 59.05 L 162.52 59.53 C 162.58105 59.609806 162.63147 59.697205 162.67 59.790005 C 162.67 59.790005 162.51 59.85 162.19 59.85 L 161.88 59.85 Z M 163.63 65.1 C 163.63 65.18 163.55 65.22 163.46 65.22 C 163.37463 65.224335 163.29688 65.171135 163.27 65.09 C 163.27 64.99 163.27 64.95 163.46 64.95 C 163.65 64.95 163.67 65 163.63 65.1 Z M 163.49 63.72 C 163.3 63.72 163.21 63.630005 163.21 63.45 C 163.16878 63.307274 163.09325 63.17681 162.99 63.07 L 162.52 62.45 L 162.1 61.87 C 161.98 61.699997 161.94 61.61 161.98 61.61 C 162.11423 61.67503 162.23607 61.76302 162.34 61.87 C 162.55667 62.052345 162.76363 62.24595 162.96 62.45 L 163.53 63.07 C 163.7 63.259995 163.78 63.39 163.78 63.45 C 163.78 63.510002 163.69 63.72 163.49 63.72 Z M 149.56 48.89 L 149.56 60.83 Q 149.62 60.71 149.83 60.71 C 149.89699 60.700428 149.96466 60.722218 150.01349 60.76908 C 150.0623 60.81595 150.08684 60.88267 150.08 60.95 C 150.08 61.15 149.99 61.250004 149.83 61.250004 C 149.71683 61.264664 149.60733 61.203835 149.56 61.099995 L 149.56 65.94 L 154.73 65.94 C 154.73 65.94 154.8 65.94 154.87 65.82 C 154.92789 65.75451 154.99147 65.694275 155.06 65.64 C 155.33286 65.27993 155.52086 64.86289 155.61 64.42 L 155.61 64.26 L 155.61 56.4 C 155.5363 56.06248 155.4462 55.72875 155.34 55.4 L 153.34 57.11 L 151.93 57.11 L 151.93 56.69 C 152.43697 56.685993 152.93633 56.56628 153.39 56.34 C 153.84793 56.12021 154.26413 55.822433 154.62 55.46 C 154.96394 55.1088 155.24773 54.703377 155.46 54.26 C 155.52522 54.12362 155.58199 53.98335 155.63 53.84 L 155.63 48.89 Z M 150.65 56.29 C 150.12 56.29 149.86 56.06 149.86 55.6 C 150.38 55.6 150.65 55.83 150.65 56.29 Z M 149.92 57.37 L 150.59 57.37 L 150.59 57.730003 C 150.31416 57.757797 150.04907 57.61536 149.92 57.37 Z M 150.56 61.55 Q 150.56 61.250004 150.83 61.250004 C 150.91217 61.240227 150.9943 61.268673 151.05281 61.32719 C 151.11133 61.385708 151.13977 61.467827 151.13 61.55 Q 151.13 61.82 150.83 61.82 C 150.75577 61.83004 150.6811 61.80484 150.62813 61.75187 C 150.57516 61.698902 150.54996 61.624237 150.56 61.55 Z M 152.3 64.23 Q 152.03 64.23 152.03 63.93 C 152.03 63.780884 152.15088 63.66 152.3 63.66 C 152.44911 63.66 152.57 63.780884 152.57 63.93 Q 152.57 64.23 152.3 64.23 Z M 154.01 64.23 C 154.2 64.23 154.28 64.33 154.28 64.53 C 154.29475 64.60518 154.27112 64.68277 154.21695 64.736946 C 154.16277 64.791115 154.08517 64.81476 154.01 64.8 Q 153.71 64.8 153.71 64.53 C 153.70076 64.44974 153.72795 64.36955 153.7841 64.31146 C 153.84026 64.25337 153.91946 64.22349 154 64.23 Z M 153.01 62.23 C 153.21 62.23 153.31 62.32 153.31 62.51 C 153.31 62.7 153.21 62.780003 153.01 62.780003 C 152.93576 62.790043 152.8611 62.76484 152.80814 62.711876 C 152.75516 62.6589 152.72997 62.58424 152.74 62.51 C 152.72 62.329998 152.81 62.24 153 62.24 Z M 152.85 63.23 L 153.39 63.470005 C 153.54 63.53 153.63 63.470005 153.67 63.470005 L 153.67 63.8 C 153.35847 63.795685 153.04768 63.768955 152.74 63.72 C 152.3987 63.672577 152.06346 63.588768 151.74 63.470005 C 151.81525 63.522396 151.86008 63.60831 151.86 63.699997 C 151.86 63.890003 151.78 63.98 151.62 63.98 C 151.46 63.98 151.35 63.890003 151.35 63.699997 C 151.3433 63.627396 151.37 63.555687 151.42252 63.50511 C 151.47504 63.454536 151.5477 63.43058 151.62 63.44 L 151.68 63.44 C 151.36209 63.343994 151.09344 63.12908 150.93 62.840004 L 151.26 62.840004 L 151.62 62.840004 C 151.80914 62.84778 151.99394 62.899113 152.16 62.99 Z M 151.96 57.93 C 151.96 58.03 151.86 58.09 151.78 58.09 C 151.7 58.09 151.67 58.09 151.64 57.96 C 151.61 57.83 151.64 57.84 151.78 57.84 C 151.92 57.84 152 57.85 151.94 57.91 Z M 153.67 55.68 Q 153.46 55.68 153.46 55.379997 Q 153.46 55.08 153.67 55.08 Q 153.94 55.08 153.94 55.379997 Q 153.94 55.68 153.65 55.66 Z M 155.08 54.54 C 154.91 54.54 154.82 54.44 154.82 54.24 C 154.82 54.04 154.91 53.97 155.08 53.97 C 155.25 53.97 155.32 54.049995 155.32 54.24 C 155.32 54.429996 155.23 54.520004 155.06 54.520004 Z M 149.58 43.65 L 149.58 48.269997 L 157.86 48.269997 L 157.86 43.630005 Z M 155.45 46.57 L 152.68 46.57 C 152.99834 46.431595 153.33527 46.340622 153.68 46.300003 C 153.97 46.300003 154.32 46.300003 154.75 46.300003 L 155.26 46.300003 L 155.77 46.300003 Z"/>
    <path fill="#190232" stroke="none" d="M 178 43.59 L 172 43.59 L 167.65 46.520004 L 167.65 48.44 L 176.57999 48.44 L 176.57999 51.44 L 182.31 51.44 L 182.31 46.44 Z M 172.74002 44.809998 C 172.88612 44.659737 173.05078 44.528683 173.23 44.42 C 173.4236 44.301754 173.62395 44.194904 173.83 44.1 C 173.99927 44.023212 174.1729 43.956432 174.35 43.9 L 174.35 44.2 L 172.6 45.379997 C 172.60677 45.353764 172.60677 45.32624 172.6 45.3 C 172.59323 45.273766 172.59323 45.246235 172.6 45.219997 C 172.59845 45.06781 172.65578 44.920914 172.76001 44.809998 Z M 175.54999 65.21 L 173.06 65.21 L 173.43 65.52 C 173.35 65.68 173.25 65.77 173.14001 65.78 L 172.73 65.78 C 172.32346 65.788246 171.91826 65.73084 171.53 65.61 L 172 65.93 L 175.33 65.93 L 175.83 65.51 Z M 175.85 61.09 L 173.73 61.09 L 173.73 49.09 L 167.65 49.09 L 167.65 58.300003 C 167.6739 58.35969 167.70407 58.41667 167.74 58.47 C 167.83205 58.599274 167.93582 58.71979 168.05 58.83 L 168.4 59.14 L 168.66 59.34 C 168.66 59.34 168.66 59.43 168.54 59.5 C 168.4953 59.557247 168.43134 59.596333 168.36 59.61 C 168.22086 59.599277 168.08507 59.56194 167.96 59.5 C 167.85114 59.46669 167.74696 59.419647 167.65 59.36 L 167.65 63 L 168.72 63.72 L 168.91 63.85 L 169.33 64.13 L 170.04 64.6 L 170.76 65.08 C 171.04 65 171.34 64.93 171.66 64.86 L 172.74002 64.68 C 172.96834 64.640526 173.19868 64.613815 173.43 64.6 L 173.62 64.6 L 173.94 64.69 L 174.26 64.78 L 174.48 64.83 L 174.82 64.83 C 174.71338 64.713715 174.58838 64.615746 174.45 64.54 C 174.28001 64.45 174.11 64.36 173.94 64.29 L 173.43 64.09 L 173.06 63.97 C 173.0643 63.943504 173.0643 63.916492 173.06 63.890003 L 173.06 63.890003 C 173.0571 63.856728 173.0571 63.823273 173.06 63.790005 L 173.06 63.730003 C 173.10843 63.665653 173.16565 63.60843 173.23 63.56 C 173.2923 63.51029 173.35928 63.46675 173.43 63.43 L 173.49 63.43 L 173.58 63.43 C 173.7038 63.45281 173.8246 63.48972 173.94 63.539997 L 174.57 63.790005 C 174.78523 63.87486 174.99556 63.971672 175.2 64.08 C 175.33237 64.13879 175.45146 64.22384 175.54999 64.33 C 175.76001 64.13036 175.87311 63.849457 175.86 63.56 L 175.86 62.7 C 175.88 62.22 175.88 61.69 175.87 61.09 Z M 167.99 61.09 C 167.79 61.09 167.68 60.99 167.68 60.809998 C 167.6703 60.725178 167.69983 60.640564 167.7602 60.5802 C 167.82057 60.51983 167.90518 60.490303 167.99 60.5 C 168.17 60.5 168.27 60.61 168.27 60.809998 C 168.27936 60.884956 168.25432 60.96012 168.20189 61.014496 C 168.14946 61.06887 168.07524 61.096626 168 61.09 Z M 168.6 57.28 C 168.6 57.28 168.52 57.09 168.47 56.72 C 168.42 56.35 168.36 55.94 168.31 55.479996 C 168.26 55.02 168.21 54.589996 168.17 54.2 C 168.13 53.81 168.11 53.58 168.11 53.52 C 168.11 53.46 168.11 53.3 168.11 53.17 C 168.11 53.04 168.17 52.97 168.28 52.97 C 168.39 52.97 168.58 53.060005 168.58 53.24 C 168.58 53.419994 168.58 53.44 168.58 53.71 C 168.58 53.98 168.58 54.28 168.58 54.63 C 168.58 54.98 168.58 55.34 168.58 55.71 C 168.58 56.08 168.58 56.4 168.58 56.71 C 168.58 57.02 168.66 57.28 168.62 57.28 Z M 170.1 61.02 C 170.09671 61.043217 170.09671 61.066784 170.1 61.09 C 169.82956 60.994064 169.56847 60.873558 169.32 60.73 C 169.08498 60.610718 168.94345 60.363045 168.96 60.1 C 169.21346 60.08959 169.46211 60.171295 169.66 60.329998 C 169.81999 60.47725 169.9672 60.637833 170.1 60.809998 L 170.1 60.87 C 170.10347 60.899895 170.10347 60.9301 170.1 60.96 C 170.10893 60.972076 170.11569 60.98561 170.12 61 Z M 170.79 63.730003 C 170.70424 63.74401 170.61699 63.715893 170.55554 63.65445 C 170.49411 63.59301 170.46599 63.505753 170.48 63.419994 C 170.48 63.219997 170.58 63.12 170.79 63.12 C 171 63.12 171.06 63.219997 171.06 63.419994 C 171.06 63.62 171 63.730003 170.81 63.730003 Z M 171.79 63.52 C 171.71632 63.626064 171.60582 63.700924 171.48 63.730003 C 171.62103 63.548332 171.6623 63.308334 171.59 63.09 C 171.5169 62.913456 171.39987 62.758545 171.25 62.64 C 171.096 62.504375 170.94913 62.36085 170.81 62.209995 C 170.66472 62.04822 170.5861 61.837402 170.59 61.62 C 170.53685 61.6554 170.47379 61.672913 170.41 61.670002 C 170.22 61.670002 170.13 61.570004 170.13 61.36 C 170.13 61.15 170.22 61.09 170.41 61.09 C 170.48495 61.080643 170.56012 61.105686 170.6145 61.15811 C 170.66887 61.21055 170.69662 61.284756 170.69 61.36 C 170.70055 61.4528 170.66728 61.54522 170.6 61.61 C 170.90892 61.56984 171.22128 61.652412 171.47 61.84 C 171.62302 62.069874 171.69353 62.344856 171.67 62.620003 C 171.66788 62.736145 171.68825 62.8516 171.73 62.96 C 171.76912 63.05704 171.79924 63.15746 171.82 63.259995 C 171.84975 63.344116 171.84975 63.43589 171.82 63.52 Z M 175.17001 63.76 C 175.08781 63.769775 175.00572 63.74133 174.94719 63.682804 C 174.88867 63.624294 174.86023 63.542175 174.87 63.46 C 174.87 63.250004 174.97 63.15 175.17001 63.15 C 175.37 63.15 175.44998 63.250004 175.44998 63.46 C 175.44998 63.670002 175.39 63.76 175.2 63.76 Z M 176.6 57 L 176.6 61.53 L 176.68 61.77 C 176.72455 61.936203 176.74475 62.107998 176.74 62.28 L 176.74 65.9 L 177.06999 65.96 L 177.87 65.96 C 177.8585 65.91066 177.8585 65.85934 177.87 65.81 C 177.86337 65.73476 177.89113 65.660545 177.9455 65.608116 C 177.99988 65.55568 178.07503 65.53065 178.15 65.54 C 178.27307 65.52085 178.39035 65.59903 178.42 65.72 L 180.87999 64 L 179.44 64 C 179.42276 63.809914 179.51105 63.62566 179.67 63.52 C 179.8447 63.424812 180.04109 63.37658 180.24002 63.379997 C 180.42625 63.37639 180.60982 63.424877 180.77 63.52 C 180.93648 63.61895 181.02719 63.80825 181 64 L 182.42998 63.05 L 182.42998 57 Z M 178.41 65.09 C 178.34 65.2 178.13 65.25 177.78 65.23 C 177.63737 65.06307 177.54695 64.8579 177.52 64.64 C 177.46971 64.449974 177.43625 64.25589 177.42 64.06 C 177.49219 63.93348 177.59119 63.824272 177.70999 63.74 C 177.82323 63.62097 177.96405 63.531673 178.11998 63.479996 C 178.04713 63.592365 178.01863 63.727795 178.04 63.86 C 178.07397 63.954247 178.12865 64.03968 178.2 64.11 L 178.41 64.34 C 178.49043 64.43022 178.53023 64.54956 178.52 64.67 C 178.52524 64.81146 178.48683 64.9511 178.41 65.07 Z M 177.6 63 C 177.6 62.89 177.66 62.85 177.78 62.87 C 177.9 62.89 177.94 62.95 177.94 63 C 177.94 63.05 177.88 63.13 177.77 63.15 C 177.66 63.17 177.6 63.12 177.6 63 Z"/>
    <path fill="#190232" stroke="none" d="M 198.82 45.76 L 196.29 46.45 L 196.14998 46.45 L 195.96 46.45 L 195.74998 46.45 L 195.60002 46.45 C 195.7149 46.211185 195.9199 46.027752 196.17 45.94 C 196.49292 45.808113 196.8278 45.70765 197.17 45.639996 C 197.52998 45.55 197.9 45.479996 198.29001 45.410004 L 198.29001 45.410004 L 195.64 43.630005 L 195.64 43.630005 L 194.2 43.630005 L 194.2 46.47 L 194.2 46.47 C 194.32002 46.47 194.39 46.55 194.39 46.589996 C 194.39 46.63 194.32002 46.7 194.2 46.740005 L 194.2 46.740005 L 194.2 52.6 L 185.29 52.6 L 185.29 55.2 L 199.96 55.2 L 199.96 46.51 Z M 191.25 54.39 C 191.23996 54.315765 191.26515 54.2411 191.31815 54.18813 C 191.3711 54.13516 191.44577 54.10996 191.52 54.12 Q 191.76 54.12 191.76 54.39 Q 191.76 54.66 191.52 54.69 Q 191.25 54.69 191.25 54.39 Z M 189.58 43.6 L 185.26 46.51 L 185.26 52 L 191.30998 52 L 191.30998 48.049995 L 193.78 48.049995 L 193.78 43.6 Z M 188 46.45 C 188.3 46.45 188.64998 46.45 189.07 46.45 L 189.58 46.45 L 190.1 46.45 L 189.74 46.72 L 187 46.72 C 187.31812 46.5809 187.65512 46.489906 188 46.45 Z M 193.53 46.72 L 192.14 46.72 L 192.14 46.45 L 193.53 46.45 Z"/>
    <path fill="#190232" stroke="none" d="M 196 58.08 L 196 58.360004 Q 196 58.63 196 58.63 C 196 58.63 196.12 58.69 196.23 58.82 C 196.34 58.95 196.45 59.11 196.57 59.27 L 196.90001 59.76 C 196.94167 59.836273 196.97516 59.916718 197 60 C 197 60 196.84 60.06 196.52 60.06 L 196.2 60.06 L 196.04 60.06 C 196.04 60.06 195.94 60 195.86002 59.88 C 195.77144 59.745075 195.69127 59.60481 195.62001 59.46 C 195.54 59.3 195.46 59.14 195.38 58.96 C 195.31348 58.833466 195.26308 58.69908 195.23 58.56 L 195.38 58.1 L 194.13 58.1 L 194.13 61.5 L 191.27 61.5 L 191.27 56 L 189.76 57.28 L 188.35 57.28 L 188.35 56.86 C 188.85635 56.860527 189.35599 56.744175 189.81 56.520004 C 190.16925 56.350178 190.50531 56.135098 190.80998 55.88 L 186.71002 55.88 C 186.96411 55.974762 187.12088 56.23056 187.09 56.5 C 186.59 56.5 186.33002 56.300003 186.31 55.88 L 185.25 55.88 L 185.25 63 L 189.57 65.92 L 195.57 65.92 L 198.52002 63.92 C 198.51515 63.890198 198.51515 63.859806 198.52002 63.83 Q 198.52002 63.56 198.82 63.56 C 198.88219 63.542984 198.94781 63.542984 199.01 63.56 L 200.01 62.92 L 200.01 58.08 Z M 189.48 62.42 Q 189.78001 62.42 189.78001 62.69 Q 189.78001 62.96 189.48 62.96 C 189.33089 62.96 189.21 62.839115 189.21 62.69 C 189.21 62.540882 189.33089 62.42 189.48 62.42 Z M 188.21 58 Q 188.48 58 188.38998 58.09 Q 188.3 58.18 188.21 58.24 C 188.14368 58.235916 188.08937 58.18578 188.08 58.12 C 188 58 188.09 58 188.21 58 Z M 187 57.55 L 187 57.91 C 186.72646 57.93927 186.46347 57.79582 186.34 57.55 Z M 186.24 61.43 C 186.15585 61.44046 186.07166 61.410767 186.01266 61.349823 C 185.9537 61.288883 185.92677 61.20377 185.94 61.12 C 185.94 60.97 186.04 60.88 186.24 60.88 C 186.30537 60.87373 186.37013 60.89699 186.41656 60.94343 C 186.46301 60.989872 186.48627 61.054626 186.48001 61.12 C 186.52 61.319996 186.44 61.43 186.28 61.43 Z M 186.97002 61.730003 Q 186.97002 61.43 187.23999 61.43 C 187.32219 61.420227 187.40428 61.448677 187.46281 61.50719 C 187.52133 61.565704 187.54977 61.647827 187.54 61.730003 Q 187.54 62 187.23999 62 C 187.17079 62.00054 187.10472 61.971184 187.05873 61.919456 C 187.01276 61.867725 186.99135 61.798668 187 61.730003 Z M 188.71 64.4 Q 188.44 64.4 188.44 64.1 C 188.44 63.950882 188.56088 63.83 188.71 63.83 C 188.85913 63.83 188.98 63.950882 188.98 64.1 Q 189 64.4 188.75002 64.4 Z M 190.06 63.92 C 189.74869 63.919384 189.4379 63.895992 189.13002 63.85 C 188.78731 63.80443 188.45149 63.71711 188.12999 63.59 C 188.20683 63.645573 188.25165 63.735195 188.25002 63.83 Q 188.25002 64.1 188.01001 64.1 C 187.86089 64.1 187.73999 63.979122 187.73999 63.83 C 187.73999 63.68088 187.86089 63.56 188.01001 63.56 L 188.07 63.56 C 187.75008 63.46786 187.48013 63.2519 187.32 62.96 L 187.65 62.96 L 188.01001 62.96 C 188.19836 62.972538 188.38214 63.02359 188.55 63.11 L 189.2 63.410004 L 189.74 63.65 C 189.89001 63.71 189.98 63.699997 190.02002 63.65 Z M 190.42998 64.98 C 190.23 64.98 190.12 64.88 190.12 64.71 C 190.1103 64.625175 190.13982 64.540565 190.2002 64.480194 C 190.26056 64.41983 190.34517 64.3903 190.42998 64.4 C 190.6 64.4 190.7 64.5 190.7 64.71 C 190.71144 64.77955 190.693 64.850685 190.64919 64.90591 C 190.6054 64.96113 190.54033 64.99529 190.47 65 Z M 192.1 65.82 Q 191.80002 65.82 191.80002 65.55 C 191.79262 65.42014 191.88232 65.3048 192.01 65.28 L 192.1 65.28 C 192.17517 65.26524 192.25276 65.28889 192.30696 65.343056 C 192.36113 65.39723 192.38475 65.47482 192.37 65.55 C 192.37846 65.61696 192.35835 65.68439 192.31459 65.73577 C 192.27083 65.78715 192.20746 65.81772 192.14 65.82 Z M 197.78001 63.890003 C 197.6 63.890003 197.51999 63.8 197.51999 63.62 C 197.51999 63.44 197.44 63.44 197.28998 63.250004 L 196.82 62.63 L 196.39998 62.04 C 196.28 61.87 196.24002 61.790005 196.28 61.790005 C 196.41516 61.84904 196.53746 61.93397 196.63998 62.04 C 196.85667 62.2259 197.0636 62.42283 197.26 62.63 C 197.47 62.85 197.66 63.05 197.83 63.250004 C 198 63.45 198.09 63.56 198.09 63.62 C 198.09 63.68 198 63.890003 197.82 63.890003 Z"/>
    <path fill="#190232" stroke="none" d="M 107.12 30.72 L 107.8 30.48 C 107.92373 30.433882 108.05076 30.397112 108.18 30.370003 L 109.27 30.370003 L 109.49999 30.370003 L 109.94 30.3 L 110.28 30.24 L 110.28 25.93 L 109 21.62 L 107.73 17.43 L 109.80001 15.81 L 109.80001 15.27 L 100.97 15.27 L 100.97 20.35 L 102.46 20.35 L 102.88 22.44 L 103 23.04 L 103.46001 25.310001 L 103.46001 29 L 103.64 28.95 L 103.95 28.86 C 103.983154 28.86493 104.016846 28.86493 104.05 28.86 L 104.12 28.79 C 104.10527 28.820583 104.08058 28.84526 104.05 28.86 L 103.78001 29.09 C 103.667694 29.180246 103.56084 29.277086 103.46001 29.38 L 103.46001 31.500002 L 110.31 31.500002 L 110.31 31.08 L 110.17 31.08 C 109.74987 31.144962 109.32509 31.175062 108.9 31.17 L 108.48 31.22 C 108.256935 31.235224 108.03307 31.235224 107.81 31.22 C 107.61224 31.212742 107.41518 31.192696 107.22 31.16 L 106.53 31.05 L 106.17 31.05 C 106.271126 30.991577 106.378456 30.944616 106.49 30.91 C 106.66 30.87 106.88 30.8 107.12 30.72 Z M 110.19999 29.469997 C 110.210686 29.564024 110.18169 29.65824 110.12001 29.73 C 110.06058 29.79278 109.97625 29.825777 109.89 29.819998 L 109.89 29.819998 C 109.7 29.819998 109.61001 29.709997 109.61001 29.48 C 109.61001 29.25 109.71 29.14 109.89 29.14 C 110.06999 29.14 110.19999 29.25 110.19999 29.469997 Z M 109.58 28.11 C 109.74999 28.11 109.83 28.22 109.83 28.450003 C 109.83 28.68 109.74999 28.819998 109.58 28.819998 C 109.41 28.819998 109.27 28.7 109.27 28.450003 C 109.27 28.2 109.37 28.11 109.58 28.11 Z M 108.87 29.11 C 108.727974 29.326962 108.51069 29.483688 108.26 29.549997 C 107.99 29.629997 107.69 29.7 107.399994 29.769999 C 107.11 29.84 107.07 29.849998 106.9 29.89 L 107.52 29.500002 C 107.93998 29.285713 108.399445 29.159788 108.87 29.13 Z M 105.17999 28.769999 C 105.264824 28.7603 105.349434 28.789827 105.409805 28.850197 C 105.47017 28.910566 105.4997 28.995176 105.490005 29.08 C 105.490005 29.310001 105.39 29.420002 105.17999 29.420002 C 104.97 29.420002 104.87 29.310001 104.87 29.08 C 104.86661 28.998516 104.89892 28.919601 104.95847 28.863884 C 105.01803 28.808172 105.09892 28.78119 105.17999 28.79 Z M 104.28 29.609999 C 104.2 29.609999 104.14 29.549997 104.11 29.420002 C 104.08 29.290003 104.11 29.24 104.28 29.24 C 104.45 29.24 104.49 29.3 104.47001 29.420002 C 104.45 29.54 104.36 29.629997 104.28 29.629997 Z M 104.98999 29.769999 L 104.81 29.769999 L 105.17999 29.56 L 105.71 29.27 L 106.23 28.97 L 106.61 28.769999 L 106.67 28.769999 L 106.79 28.769999 L 106.85 28.769999 L 106.91 28.769999 L 106.53 29.03 C 106.37118 29.151436 106.2041 29.261703 106.03 29.36 C 105.855286 29.463188 105.67501 29.556664 105.490005 29.64 C 105.3399 29.725903 105.17247 29.777151 105 29.79 Z"/>
    <path fill="#190232" stroke="none" d="M 93.7 10.68 L 93.7 31.500002 L 100.32 31.500002 L 100.32 10.68 Z M 98.08 27.6 C 98.08 27.49 98.16 27.44 98.19999 27.46 C 98.24 27.48 98.38999 27.689999 98.38999 27.96 C 98.38999 28.230001 98.33 28.390001 98.19999 28.450003 C 98.06999 28.51 98.12001 28.450003 98.08 28.340002 C 98.03827 28.230745 98.01137 28.116396 98 28 C 97.9989 27.862587 98.02613 27.726421 98.08 27.6 Z M 96.47001 15.22 Q 96.71 15.22 96.71 15.52 C 96.71 15.750001 96.63 15.86 96.47001 15.86 C 96.31 15.86 96.16 15.750001 96.16 15.52 C 96.16 15.289999 96.26 15.22 96.47001 15.22 Z M 94.34 21.1 L 95 19.86 C 95.26001 19.39 95.55 18.86 95.87 18.35 C 96.19 17.84 96.49 17.35 96.77 16.86 C 97.05 16.37 97.29 16.02 97.49999 15.710001 C 97.60423 15.53308 97.72837 15.368676 97.869995 15.22 L 97.869995 15.52 C 97.86747 16.099932 97.74133 16.67266 97.49999 17.2 C 97.245186 17.767086 96.944176 18.312256 96.600006 18.83 C 96.25 19.35 95.88 19.83 95.5 20.34 C 95.12 20.85 94.78 21.29 94.50001 21.72 L 94.1 21.72 C 94.15805 21.505493 94.23849 21.297684 94.34 21.1 Z M 96.93 20.05 C 96.79001 20.05 96.71 19.94 96.71 19.71 C 96.71 19.48 96.79001 19.34 96.93 19.34 C 97.07 19.34 97.240005 19.46 97.240005 19.71 C 97.240005 19.96 97.14 20.05 96.93 20.05 Z M 97.299995 29.310001 C 97.3677 29.25477 97.43119 29.194607 97.490005 29.13 L 97.12 29.819998 C 97.12346 29.793446 97.12346 29.766554 97.12 29.739998 C 97.11571 29.713509 97.11571 29.686493 97.12 29.659998 C 97.11625 29.623428 97.11625 29.58657 97.12 29.549997 L 97.12 29.469997 Z M 97.490005 30.16 C 97.48407 30.189707 97.48407 30.220293 97.490005 30.25 C 97.49593 30.279709 97.49593 30.310293 97.490005 30.340002 C 97.49508 30.37314 97.49508 30.40686 97.490005 30.44 L 97.490005 30.499998 C 97.45773 30.578293 97.40613 30.64711 97.34 30.7 C 97.27431 30.757704 97.200096 30.804928 97.12 30.84 L 97.05999 30.84 L 96.93 30.84 L 96.87 30.84 L 96.81 30.84 Z M 96.09999 30.16 L 96.47001 30.499998 L 95.72 30.499998 Z M 96 20.36 C 95.9903 20.275179 96.01982 20.190565 96.0802 20.130198 C 96.140564 20.069828 96.225174 20.0403 96.31 20.05 C 96.5 20.05 96.59 20.15 96.59 20.36 C 96.59 20.57 96.5 20.7 96.31 20.7 C 96.12 20.7 96 20.59 96 20.36 Z M 96.19 29.13 C 96.1803 29.04518 96.20983 28.960566 96.270195 28.900196 C 96.33057 28.839828 96.415184 28.8103 96.5 28.819998 C 96.659996 28.819998 96.73999 28.93 96.73999 29.13 C 96.73999 29.33 96.659996 29.469997 96.5 29.469997 C 96.34 29.469997 96.16 29.36 96.16 29.13 Z"/>
    <path fill="#190232" stroke="none" d="M 104.47001 29.44 C 104.47001 29.57 104.36 29.629997 104.28 29.629997 C 104.2 29.629997 104.14 29.57 104.11 29.44 C 104.08 29.310001 104.11 29.260002 104.28 29.260002 C 104.45 29.260002 104.49 29.32 104.47001 29.44 Z"/>
    <path fill="#190232" stroke="none" d="M 108.89 7.14 L 106.38999 5.47 L 106.38999 6.37 L 106.05001 6.71 C 105.82258 6.234981 105.66431 5.7298603 105.58 5.21 C 105.58 5.1 105.58 5 105.58 4.9 L 105 4.58 L 93.7 4.58 L 93.7 10 L 103.39 10 L 103.39 14.590001 L 109.77 14.590001 L 109.77 7.73 Z M 109.17999 9.51 C 109.17999 9.74 109.08 9.85 108.9 9.85 C 108.83031 9.850253 108.76286 9.825404 108.71 9.78 C 108.64616 9.705056 108.61389 9.60826 108.62 9.51 C 108.62 9.3 108.71 9.2 108.9 9.2 C 109.0226 9.187163 109.134995 9.269294 109.16001 9.39 C 109.17232 9.42885 109.179054 9.4692545 109.17999 9.51 Z"/>
    <path fill="#190232" stroke="none" d="M 104.09 28.79 C 104.075264 28.820583 104.05058 28.84526 104.02 28.86 Z"/>
    <path fill="#190232" stroke="none" d="M 127.76 27.24 C 127.76 27.469997 127.66 27.59 127.47 27.59 C 127.27999 27.59 127.22 27.469997 127.22 27.24 C 127.22 27.01 127.31 26.9 127.47 26.9 C 127.63 26.9 127.76 27 127.76 27.24 Z"/>
    <path fill="#190232" stroke="none" d="M 127.66 29.64 C 127.66 29.849998 127.6 29.96 127.47 29.99 C 127.340004 30.02 127.399994 29.99 127.38 29.92 C 127.36907 29.826988 127.36907 29.733013 127.38 29.64 C 127.38 29.38 127.38 29.27 127.5 29.290003 C 127.61845 29.364246 127.68135 29.50185 127.66 29.64 Z"/>
    <path fill="#190232" stroke="none" d="M 128.47 30.41 L 128.47 30.549997 L 128.2 30.68 C 128.24358 30.606064 128.30135 30.54149 128.37 30.49 Z"/>
</svg>
