<svg width="256" height="256" xmlns="http://www.w3.org/2000/svg">
    <path fill="#4e7f23" stroke="none" d="M 0 0 L 256 0 L 256 256 L 0 256 Z"/>
    <g>
        <path fill="#e8e8e8" stroke="none" d="M 124.979996 110.3 C 125.82 110.28 126.61 110.69001 127.08999 111.38 C 128.35 113.23001 128.53 115.63 127.75 117.66 C 126.78 120.16 124.91001 122.21 122.78 123.84999 C 116.979996 128.31 109.74999 130.5 102.56 131.88 C 100.7 132.24 98.83 132.55 97.04001 133.17 C 95.6 133.67 94.24 134.37 92.8 134.88 C 88.16 136.52 83.06 136.07 78.2 135.32 C 68.93 133.89 59.82 131.44 51.09 128.03 C 49.04 127.23 46.66 125.84 46.780003 123.649994 C 46.76 123.19 50.29 122.56 52.18 121.61001 C 56.77 119.31 61.72 116.38 66.45 113.47 C 68.42 112.25 70.46 111.13 72.54 110.1 C 78 107.41 83.83 105.38 89.869995 104.62 C 95.91 103.84999 102.17 104.38 107.83001 106.61 C 110.06999 107.49 112.21 108.64 114.49 109.41 C 117.23001 110.35 122.63999 110.35 124.98999 110.29 Z"/>
        <path fill="#e8e8e8" stroke="none" d="M 131.08 115.25 C 131.55 116.85999 132.45 118.33 133.64 119.52 C 139.47 125.36001 148.48 126.81 156.69 125.98 C 164.88 125.16001 172.75002 122.42 180.87 121.09 C 183.13 120.72001 185.44002 120.45 187.56 119.590004 C 189.76 118.700005 191.64 117.2 193.65 115.94 C 196.94 113.869995 200.61 112.409996 204.42 111.63 C 206.41998 111.22 208.53 110.98 210.28 109.94 C 213.89001 107.79 214.85 103.08999 215.47 98.93 C 215.69998 97.39 215.99 96.28 215.13 94.18 C 214.84 93.47 214.24 92.94 213.5 92.77 C 210.94 92.16 204.69 90.09 202.84 89.33 C 199.46 87.94 195.91 87.07 192.25 87.01001 C 187.24998 86.93 182.61 89.34 177.86 90.92 C 172.12 92.83 165.89 93.64 160.82 96.94 C 159.17 98.02 157.68 99.340004 156.01 100.39 C 153.8 101.78 151.32 102.66 148.87 103.52999 C 144.73 105 140.4 106.09 136.43 107.86 C 136.43 107.86 129.87 111.07 131.09 115.26001 Z"/>
        <path fill="#000000" stroke="none" d="M 114.29 109.619995 C 117.69 112 119.17 117.07 117.65 121.09 C 116.91001 123.04 115.57 124.69 113.99 125.93001 C 112.07 127.43 109.82 128.35 107.58001 129.21 C 104.97 130.21 101.67 131.24 101.67 131.24 C 95.62 133.53 94.76999 132.82 91.27999 131.83 C 89.52 131.33 87.72 130.81 86.28 129.62 C 85.45 128.93 84.77 128.04 83.96 127.32 C 82.81 126.3 81.41 125.64 80.26 124.61 C 77.75 122.36 76.78 118.47 77.53 115.06 C 78.28 111.649994 80.21 109.23001 83.42 107.01001 L 91.79 105.05 C 95.61 104.46 99.5 104.71 103.22 105.77 L 114.29 109.6 Z"/>
        <path fill="#000000" stroke="none" d="M 178.82 121.23001 C 181.98 120.61 183.07 120.04 183.05998 118.380005 C 183.05998 117.74 182.79 117.15 182.41998 116.64 C 182.05 116.13 181.63002 115.63 181.48 115.01001 C 181.19 113.82 181.98 112.64 182.06 111.42 C 182.11 110.62 181.86 109.83 181.8 109.02 C 181.72 107.92 182.02002 106.83 182.15999 105.74 C 182.4 103.92 182.22 102.04 181.64001 100.3 C 181.40001 99.590004 181.09 98.89001 180.63998 98.3 C 179.87001 97.29 178.74 96.659996 177.62 96.12 C 175.03 94.88 171.38 93.25 169.44 93.64 L 158.76 99.79 C 157.27 100.62 146.27 105.45 144.78 106.28 C 144.09 106.67 143.37 107.07 142.89 107.72 C 142.39 108.4 142.2 109.27 142.04 110.11 C 141.43 113.34 141.06 116.9 142.64 119.74 C 144.32 122.76999 147.05 125.49999 150.9 125.78 L 164.79 124.33 L 178.83 121.23001 Z"/>
        <path fill="#000000" stroke="none" d="M 127.79 107.7 C 124.32 108.95 120.89 108.920006 117.35 107.95 C 113.810005 106.98 110.380005 105.549995 106.86 104.47001 C 99.47 102.189995 92.06 101.49999 84.45 103.12 C 76.84 104.73999 70.22 108.07 63.790005 111.90001 C 60.77 113.7 57.84 115.66 54.85 117.51 C 51.86 119.36 48.939995 120.75 45.43 120.41999 C 43.69 120.26 42.12 119.49 40.43 119.20999 C 40.31 119.19 40.04 118.95 40.01 119.01001 C 40.24 118.65 40.25 119.79 40.31 119.87 C 40.13 119.63 40.4 119.06 40.53 118.55 C 41.16 116.16999 42.39 113.86 43.55 111.71001 C 45.060005 108.9 46.86 106.29 49.28 104.2 C 51.88 101.94999 55.14 100.44 58.24 99 C 61.53 97.47 64.96 96.21999 68.56 95.67 C 72.16 95.12 75.73 95.20999 79.3 95.29 C 86.53 95.45 93.83 95.63 100.52 98.700005 C 103.69 100.15001 106.67 102 109.54 103.98 C 112.409996 105.96 115.07 108.24 117.98 110.14 C 120.89 112.04 124.16999 112.98999 127.62 112.28 C 130.58 111.68 133.15 109.84 135.41 107.92 C 137.67 106 139.59 103.88 141.79 101.97 C 144.39 99.7 147.34 97.869995 150.36 96.2 C 156.67 92.71 163.28 89.62999 169.84 86.63999 C 176.4 83.65 183.2 80.93 190.22 79.07 C 196.36 77.44 204.01001 75.47 210.14 78.06 C 212.46 79.04 214.88 80.98 215.58 83.33 C 216.12 85.12 215.79 87.43 214.61 88.76 C 213.98 89.46 213.55 89.74 212.52 89.80001 C 210.74 89.91 208.86 88.94 207.24 88.32 C 203.81 87.020004 200.38 85.6 196.76001 84.92 C 193.14 84.24 189.37 84.28 185.83002 85.6 C 182.6 86.8 179.65 88.48 176.29 89.33 C 172.93 90.18 169.6 90.58 166.36 91.63 C 162.93 92.75 160.11 94.68 157.18 96.71 C 152.75 99.79 147.73 101.65 142.65 103.37 C 138.43 104.79001 134.16 106.05001 129.86 107.19 C 129.18 107.37 128.49 107.55 127.81 107.72 C 124.69 108.49 126.01 113.32 129.14 112.53999 C 137.32 110.509995 145.54 108.05 153.26 104.63 C 156.08 103.38 158.6 101.80001 161.12 100.03001 C 162.58 99 164.07 97.98 165.69 97.22 C 167.31 96.46 168.94 96.04 170.61 95.649994 C 174.21 94.81 177.9 94.34 181.35 92.96 C 184.8 91.58001 187.82 89.62999 191.46 89.46 C 195.09999 89.29 198.79 90.47 202.24 91.74 C 205.69 93.01 209.66 95.22 213.53998 94.700005 C 219.58 93.89 222.17998 86.48 220.16 81.29 C 217.49 74.43 209.7 71.73 202.88 71.91 C 195.25998 72.11 187.54 74.35 180.41 76.91 C 173.27998 79.47 166.15 82.78 159.22 86.15 C 152.29 89.52 145.67 92.53999 139.78 97.17 C 137.17 99.23 134.93 101.69 132.45 103.89 C 130.57 105.560005 128.24 107.39 125.62999 107.54 C 122.29 107.73 119.52999 105.15 117.04001 103.270004 C 114.130005 101.07 111.18 98.92 108.05 97.03 C 104.920006 95.14001 101.54 93.49999 98.02 92.4 C 94.26 91.23 90.29 90.75 86.37001 90.51999 C 78.59 90.06 70.26 89.560005 62.73 91.89 C 59.060005 93.02 55.52 94.67 52.12 96.44 C 48.900005 98.12001 45.86 100.18 43.479996 102.94001 C 41.1 105.7 39.44 108.59 37.96 111.74 C 36.85 114.1 35.64 116.51 35.37 119.14001 C 34.98 122.99 39.01 124.15001 42.04 124.85999 C 46.04 125.79 49.83 125.52 53.58 123.87 C 57.04 122.34 60.15 120.03001 63.350002 118.03 C 66.55 116.03001 69.99 114.01 73.48 112.3 C 80.31 108.96 87.86 106.69001 95.52999 107.2 C 99.329994 107.45 103.05 108.47001 106.67 109.62999 C 110.29 110.79 113.85 112.33 117.58 113.14 C 121.30999 113.94999 125.41 113.86 129.14 112.51 C 130.41 112.05 131.26 110.81 130.89 109.42999 C 130.55 108.2 129.09 107.22 127.81 107.68 Z"/>
        <path fill="#000000" stroke="none" d="M 124.979996 112.8 C 125.4 112.82 125.66 114.33 125.7 114.63999 C 125.84 115.93 125.36001 117.1 124.7 118.189995 C 123.32 120.47001 121.1 122.14 118.86 123.52 C 113.83 126.63 108.07 128.26 102.31 129.39 C 100.78 129.69 99.23 129.94 97.72 130.35 C 96.12 130.78 94.63 131.47 93.1 132.1 C 90.31999 133.24 87.44 133.59 84.45 133.48 C 78.25 133.26 71.98 131.81 66 130.25 C 62.520004 129.34 59.08 128.29 55.69 127.08999 C 54.15 126.55 52.54 126.06 51.08 125.32 C 50.57 125.05999 50.02 124.78 49.62 124.37 C 49.31 124.06 49.350002 123.67 49.190002 124.25 L 48.55 125.35 C 48.25 125.69 48.23 125.6 48.22 125.59 L 48.1 125.64 C 48.25 125.58 48.41 125.53 48.57 125.48001 C 49.01 125.34 49.45 125.21 49.890003 125.08 C 51.05 124.729996 52.2 124.350006 53.3 123.83001 C 55.91 122.6 58.429996 121.13 60.93 119.69 C 66.14 116.670006 71.15 113.32 76.69 110.91 C 81.84 108.670006 87.42 107.11 93.05 106.83999 C 98.68 106.57001 104.34 107.72 109.67 110.12001 C 112.4 111.35 114.92 112.26 117.9 112.57 C 120.25 112.82 122.62 112.84 124.979996 112.8 C 128.19 112.73999 128.2 107.74 124.979996 107.8 C 122.509995 107.84999 120 107.84999 117.549995 107.52999 C 114.82001 107.17 112.41999 105.86 109.92 104.79001 C 103.590004 102.09 96.670006 101.27 89.86 102.12001 C 83.05 102.97 76.54 105.25 70.44 108.36 C 64.34 111.47 58.369995 115.62 52.1 118.85 C 51.07 119.38 50.15 119.77 49.04 120.12 C 47.93 120.47001 46.67 120.7 45.68 121.299995 C 42.59 123.18 45.01 127.2 47.099995 128.74 C 49.55 130.55 52.840004 131.4 55.69 132.38 C 59.02 133.51 62.39 134.51 65.81 135.37 C 69.23 136.23 72.67 136.94 76.14 137.52 C 79.61 138.1 82.86 138.58 86.25001 138.5 C 89.64 138.42 92.94 137.56 96.18 136.19 C 99.25 134.89 102.53 134.49 105.76 133.78 C 112.81 132.22 119.95 129.65 125.48001 124.87 C 128.13 122.58 130.4 119.39 130.68 115.81 C 130.96 112.23 129.03 108.01 124.979996 107.81 C 121.76 107.649994 121.77 112.65 124.979996 112.81 Z"/>
        <path fill="#000000" stroke="none" d="M 128.67 115.91 C 130.78 122.63999 138.04 126.48 144.54 127.87 C 151.94 129.44 159.4 128.41 166.69 126.78 C 170.71 125.87999 174.69 124.82 178.73001 124.01 C 182.77002 123.2 186.64 122.99 190.22 121.08 C 193.52 119.31 196.37 116.920006 199.91 115.56 C 201.66 114.89001 203.45 114.37001 205.28998 114.01 C 207.13 113.65 208.92 113.33 210.64 112.56 C 213.78001 111.16 215.66002 108.18 216.71 105.02 C 217.20001 103.54 217.5 102.01 217.75 100.47001 C 218 98.93 218.33002 97.36001 218.13 95.78001 C 217.89 93.91 217.18 91.95 215.5 90.93 C 214.41998 90.27 213.03998 90.06999 211.83 89.71 C 209.3 88.96 206.77002 88.15001 204.29 87.22 C 200.86 85.94 197.52998 84.88 193.85 84.58 C 189.89001 84.27 186.10999 85.23 182.41998 86.59 C 178.73001 87.95 175.36 89.10999 171.71 90.09 C 168.06 91.07 164.64 92.02 161.39 93.72 C 157.97 95.5 155.27 98.3 151.69 99.82 C 148.11 101.34 144.47 102.31999 140.86 103.52 C 136.49 104.97 131.12 106.87 129.09 111.47 C 128.46 112.91001 128.31 114.38999 128.7 115.92 C 129.49 119.04 134.31 117.72 133.52 114.59 C 133.44 114.27 133.44 114.130005 133.5 113.87999 C 133.55 113.68001 133.69 113.34 134.01 112.88 C 134.45 112.24 133.74 113.15 134.26 112.57 C 134.38 112.44 134.5 112.32 134.62 112.19 C 134.8 112.01 134.99 111.84 135.18 111.67 C 135.31 111.56 135.43 111.45 135.56 111.35 C 135.37 111.49 135.39 111.48 135.62 111.3 C 137 110.29 138.42 109.68001 140.03 109.09 C 146.66 106.67 153.77 105.29 159.51 100.97 C 162.15 98.99 164.8 97.42 167.95 96.38 C 171.1 95.340004 174.5 94.61 177.72998 93.59 C 180.96 92.57 184.32 91.020004 187.73999 90.12001 C 190.96 89.27 194.20999 89.4 197.43 90.18 C 200.07 90.82001 202.54 91.92 205.1 92.8 C 207.37 93.58 209.66 94.31999 211.97 94.95 C 212.96 95.22 213.07 95.20999 213.2 96.44 C 213.33 97.67 213 98.76999 212.77998 100.02 C 212.35 102.439995 211.79 105.21 209.99 107.020004 C 207.93 109.08 204.32 109 201.65 109.73 C 198.25 110.66 194.97002 112.13 192.01 114.03 C 190.64 114.91 189.32 115.88 187.88998 116.670006 C 186.33002 117.52 184.66 117.94 182.92001 118.25001 C 179.2 118.91 175.51 119.56 171.83 120.44 C 164.33 122.22 156.77 124.27 149 123.55 C 145.93 123.270004 142.81 122.50001 140.06 121.1 C 137.31 119.7 134.45 117.67 133.49 114.61 C 132.53 111.55 127.7 112.85999 128.67 115.94 Z"/>
        <path fill="#000000" stroke="none" d="M 113.03 111.78001 C 115.71001 113.74 116.5 118.01 115.020004 120.89 C 113.01 124.8 108.49 126.28 104.61 127.63 C 103.12 128.15 101.619995 128.62 100.13 129.15 C 99.19 129.49 98.24 129.81 97.26 130.04 C 96.46 130.23 96.350006 130.28 95.42 130.26 C 95.24 130.26 94.46 130.14 95.06 130.25 C 94.79 130.2 94.51999 130.14 94.26 130.08 C 93.619995 129.92 92.98999 129.72 92.36 129.53 C 90.22 128.91 88.48 128.37 86.91 126.72 C 86.09 125.86 85.24 125.09 84.27 124.4 C 83.3 123.71001 82.32 123.2 81.55 122.35 C 80.33 120.98999 79.81 119.11 79.82 117.32 C 79.83 115.52999 80.4 113.87999 81.36 112.41999 C 81.81 111.73 82.38 111.13 82.99 110.57001 C 83.32 110.26 83.69 109.99 84.02 109.69 C 84.13 109.59 84.55 109.23001 84.26 109.42999 C 84.16 109.49999 84.1 109.47 84.23 109.42 C 85.03 109.09 86.04 109 86.88 108.8 L 90.8 107.88 C 94.01 107.13 97.30999 107.05 100.55 107.71001 C 102.94001 108.2 105.22 109.12 107.52 109.92 L 113.62999 112.04 C 114.91 112.48 116.36 111.54 116.71 110.29 C 117.09 108.920006 116.24 107.66 114.95999 107.20999 C 112.920006 106.50001 110.89001 105.80001 108.85 105.09 C 106.48 104.27 104.13 103.32 101.65 102.83999 C 97.490005 102.03 93.37 102.14 89.26 103.1 L 84.88 104.12 C 83.83 104.37 82.77 104.5 81.86 105.09 C 77.73 107.77 74.85 112.32 74.82 117.30999 C 74.8 119.82 75.5 122.46 76.94 124.53 C 78.5 126.79 80.94 127.77 82.81 129.66 C 83.8 130.65 84.71 131.65 85.91 132.4 C 87.11 133.15 88.48 133.61 89.82 134.01 C 91.45 134.5 93.09 135.05 94.8 135.22 C 98.43 135.57 102.18 133.75 105.560005 132.59 C 111.329994 130.6 117.47 128.2 119.92 122.12001 C 122.03 116.89 120.03001 110.74 115.56 107.46001 C 114.47 106.66 112.77 107.27999 112.14 108.36 C 111.399994 109.62999 111.94 110.98 113.04001 111.78001 Z"/>
        <path fill="#000000" stroke="none" d="M 179.54 123.58001 C 182.28001 123.020004 185.31 122 185.54 118.75 C 185.59001 118 185.47998 117.27 185.22 116.57 C 184.93 115.79 184.18 115.14001 183.94998 114.38999 C 183.89 114.189995 183.74 114.86 184.01 114.04 C 184.14 113.65 184.26 113.240005 184.35 112.84 C 184.62 111.68 184.56999 110.67 184.4 109.49999 C 184.15 107.76 184.75 106.06 184.78 104.31 C 184.81999 102.25001 184.41 100.16 183.56001 98.28 C 182.09 95.01001 178.66 93.66 175.56001 92.38 C 173.38002 91.48 170.42 90.31999 168.16 91.54 C 166.87 92.24 165.62 93.02 164.35 93.76 C 161.96 95.15 159.61 96.7 157.13 97.92 C 153.46 99.74 149.68 101.35 145.97 103.08999 C 144.1 103.96999 142.09 104.87 141.02 106.75 C 140.12 108.33 139.96 110.33 139.73 112.09999 C 139.5 113.97 139.47 115.84 139.83 117.7 C 140.81 122.83 146.09 128.56 151.67 128.18 C 155.13 127.95 158.59 127.45 162.04 127.08999 C 167.96 126.46 173.74 124.89 179.54 123.590004 C 182.68001 122.89001 181.35 118.06999 178.20999 118.76999 C 175.69998 119.329994 173.19 119.89 170.68 120.46 L 165.92 121.52 C 165.49 121.619995 165.04 121.7 164.61 121.810005 C 163.87 122.01 165.47 121.74 164.81 121.810005 C 161.82 122.06 158.83 122.439995 155.85 122.759995 L 151.86 123.18 C 150.42 123.329994 149.02 122.66 147.93 121.76 C 145.97 120.14 144.64 117.79 144.55 115.23 C 144.51 113.85 144.65 112.49 144.9 111.14001 C 145.01 110.54 145.04 109.64 145.42 109.14 C 145.71 108.76 146.26 108.53 146.67 108.32 C 149.75 106.67 153.02 105.35 156.19 103.89 C 161.12 101.619995 165.82 98.85 170.45 96.02 C 170.56 95.95 170.77 95.88 170.86 95.78001 C 170.91 95.72 170.15 96.08 170.13 96.05 C 170.14 96.07 170.93 96.12 170.99 96.13 C 172.53 96.44 174.02002 97.10999 175.43001 97.77 C 176.56 98.3 177.96999 98.79 178.73001 99.83001 C 179.69 101.16001 179.85002 103.20999 179.75998 104.79001 C 179.71 105.73 179.48999 106.63999 179.38 107.58001 C 179.24998 108.72001 179.49998 109.72 179.57 110.85 C 179.61002 111.52 179.33 112.09 179.18 112.729996 C 178.95 113.69 178.83 114.68 179.08 115.64 C 179.33 116.600006 179.93 117.19 180.36 118.02 C 180.42 118.130005 180.50002 118.23 180.55 118.34 C 180.53 118.65 180.55 118.63 180.58 118.3 C 180.50002 118.57001 180.52 118.55 180.63998 118.22 L 180.82 118.01 C 180.62999 118.189995 180.63998 118.189995 180.87 118.01 C 180.84 118.01 180.21 118.34 180.59 118.18 C 179.84 118.49 178.99 118.63 178.2 118.79 C 176.88 119.06 176.11 120.63 176.45001 121.869995 C 176.82999 123.25 178.2 123.89 179.53 123.62 Z"/>
        <path fill="#834a2c" stroke="none" d="M 43.83 157.96 C 43.96 157.74 44.12 157.54 44.32 157.36 C 48.740005 153.41 54.41 151.93 60.35 152.36 C 64.5 152.66 68.47 154.11 72.48 155.24 C 80.86 157.6 90.27 158.47 97.93001 154.32 C 101.78 152.24 104.97 149 109.02 147.36 C 112.64 145.89 116.729996 145.79 120.26 144.14 C 122.66 143.02 124.7 141.22 127.1 140.1 C 129.89 138.8 133.03 138.47 136.1 138.24 C 145.01 137.59 153.97 137.64 162.87 138.39 C 168.62 138.88 174.55 139.64 180.06 137.9 C 187.2 135.64 192.5 129.5 199.44998 126.700005 C 202.98001 125.27 207.41002 124.91001 210.28 127.42 C 211.57 128.54 212.38998 130.13 212.85 131.78 C 214.77002 138.72 210.51 145.95 205.17 150.77 C 202.68 153.02 199.92 154.98 196.87 156.37 C 187.91 160.47 177.57002 159.35 167.75 158.51 C 154.74 157.4 141.07 157.05 129.28 162.64 C 121.30999 166.42 114.79 172.63998 107.3 177.29 C 91.079994 187.36002 70.18 189.51 52.26 182.94 C 49.49 181.91998 46.7 180.64998 44.76 178.42 C 41.92 175.16002 41.43 170.53 41.08 166.22 C 40.84 163.34 43.15 159.16 43.86 157.95 Z"/>
        <path fill="#000000" stroke="none" d="M 45.99 159.22 C 46.66 158.25 48.18 157.52 49.2 156.96 C 50.520004 156.24 51.92 155.73 53.379997 155.37 C 56.16 154.68 59.15 154.6 61.97 155.05 C 65.47 155.61 68.81 156.83 72.21 157.77 C 75.3 158.62 78.46 159.23 81.66 159.54 C 88.05 160.16 94.69001 159.25 100.25 155.88 C 102.82001 154.32 105.12 152.34 107.72 150.81 C 110.55 149.14 113.67 148.66 116.81 147.91 C 120.12 147.12 122.83 145.63 125.67 143.8 C 128.51 141.97 131.28 141.18 134.55 140.88 C 141.8 140.21 149.15 140.14 156.42 140.48 C 163.69 140.82 170.61 142.2 177.63 141.05 C 183.87 140.03 188.77 136.21 193.84001 132.74 C 196.11002 131.19 198.51 129.6 201.15 128.74 C 203.41 128 206.4 127.56 208.43 129.14 C 210.46002 130.72 210.91 133.67 210.78 136.04 C 210.63 138.9 209.34001 141.63 207.78 143.99 C 204.48 148.96 199.18001 153.09 193.54 155.02 C 187.38 157.12 180.78998 157.01 174.38 156.57 C 161.13 155.66 147.67 153.98 134.71 157.9 C 128.32 159.83 122.72 163.21 117.36001 167.11 C 112 171.01 107.14001 174.85 101.39 177.75 C 90.69001 183.15 78.41 185.15 66.53 183.81001 C 63.510002 183.47 60.51 182.85 57.58 182.04001 C 54.809998 181.26999 51.96 180.41 49.44 178.99 C 46.92 177.57002 45.31 175.44998 44.529995 172.62999 C 44.2 171.44 43.97 170.22 43.82 169 C 43.66 167.7 43.4 166.23 43.61 164.98 C 43.950005 162.94 44.96 160.99 45.99 159.23 C 47.61 156.44 43.29 153.93 41.67 156.71 C 40.43 158.84 39.26 161.22 38.78 163.66 C 38.19 166.71 38.78 170.22 39.5 173.21 C 40.22 176.19998 41.68 179.25998 44.1 181.34 C 46.7 183.57 49.9 184.83998 53.11 185.92 C 65.41 190.05 79 190.26 91.49 186.85999 C 97.74999 185.16 103.79 182.52002 109.26 179.02 C 114.73 175.52 120.15001 170.86 125.96 167.31 C 138.06 159.91 152.25 159.81 165.97 160.9 C 172.87999 161.44 179.84 162.31 186.77 161.55 C 193.7 160.79 200.37 158.13 205.91998 153.43 C 210.88 149.23 215.02 143.44 215.71 136.83 C 216.04 133.62 215.4 130 213.48 127.340004 C 211.56 124.68 208.46 123.19 205.1 123.11 C 198.61 122.95999 193.12 127.19 188.07 130.71 C 185.69 132.37 183.23 134.08 180.50002 135.13 C 177.18 136.4 173.7 136.61 170.18 136.47 C 166.66 136.33 163 135.89 159.4 135.65 C 155.44 135.39 151.47 135.28 147.5 135.3 C 143.53 135.32 139.6 135.48 135.66 135.79 C 132.13 136.07 128.64 136.55 125.44 138.15 C 123.92 138.91 122.55 139.92 121.10999 140.82 C 119.590004 141.77 118.06 142.43 116.33 142.89 C 113.05 143.76 109.72 144.22 106.63 145.73 C 103.54 147.24 101.17999 149.37 98.42 151.14 C 95.66 152.91 92.78 153.99 89.6 154.47 C 82.96 155.48 76.35 153.82 70.03 151.94 C 63.71 150.06 56.460003 148.78 49.790005 151.27 C 46.85 152.37 43.5 154.08 41.68 156.72 C 40.91 157.83 41.48 159.5 42.58 160.14 C 43.82 160.87 45.23 160.36 46 159.24 Z"/>
        <path fill="#000000" stroke="none" d="M 49.33 163.4 C 51.43 168.49 56.8 170.26 61.52 172.21 C 66.79 174.39 72.41 176.23 78.2 175.99 C 83.99 175.75 89.49999 173.5 94.83 171.26 C 100.16 169.02 105.869995 166.44 111.14001 163.52 C 115.99 160.82 120.68 157.81 125.71 155.44 C 130.74 153.07 136.05 151.72 141.53 151.19 C 153.01 150.08 164.52 151.8 176.02 151.38 C 182.57 151.14 189.08 150.09 194.78 146.67 C 199.78 143.67 203.87001 139.19 206.39 133.93 C 206.98 132.71 206.72 131.23 205.49 130.51 C 204.39998 129.87 202.66 130.19 202.07002 131.41 C 200.06001 135.59 197.05 139.23 193.15 141.79 C 188.62999 144.75 183.46 145.94 178.11998 146.28 C 167.13 146.97 156.14 145.4 145.14 145.93 C 139.72 146.19 134.26 146.95 129.11 148.69 C 123.96 150.43 119.37 152.97 114.78 155.64 C 110.189995 158.31 105.17 161.14 100.13 163.49 C 95.08999 165.84 90.11 168.13 84.88 169.72 C 82.02 170.59 79.13 171.11 76.13 170.98 C 73.13 170.85 70.22 170.08 67.4 169.12 C 64.58 168.16 61.890003 167.03 59.21 165.83 C 57.46 165.04 54.939995 164 54.15 162.07 C 53.639996 160.82 52.489998 159.93 51.07 160.32 C 49.890003 160.64 48.809998 162.14 49.319996 163.4 L 49.319996 163.4 Z"/>
        <path fill="#e8e8e8" stroke="none" d="M 113.59 117.33 C 113.89 117.17 114.23 117.01 114.56 117.1 C 114.92 117.19 115.15 117.549995 115.3 117.9 C 116.01 119.63 115.45 121.67 114.33 123.16 C 113.21 124.65 111.6 125.69 109.99 126.63999 C 109.74 126.79 109.48001 126.94001 109.19 126.97 C 108.34 127.05 107.8 126.1 107.49 125.299995 C 106.95 123.91 106.439995 122.24 107.3 121.02 C 108.05 119.95 109.25 119.43 110.25001 118.98 C 110.25001 118.98 112.56 117.869995 113.59 117.34 Z"/>
        <path fill="#000000" stroke="none" d="M 45.99 159.22 C 46.66 158.25 48.18 157.52 49.2 156.96 C 50.520004 156.24 51.92 155.73 53.379997 155.37 C 56.16 154.68 59.15 154.6 61.97 155.05 C 65.47 155.61 68.81 156.83 72.21 157.77 C 75.3 158.62 78.46 159.23 81.66 159.54 C 88.05 160.16 94.69001 159.25 100.25 155.88 C 102.82001 154.32 105.12 152.34 107.72 150.81 C 110.55 149.14 113.67 148.66 116.81 147.91 C 120.12 147.12 122.83 145.63 125.67 143.8 C 128.51 141.97 131.28 141.18 134.55 140.88 C 141.8 140.21 149.15 140.14 156.42 140.48 C 163.69 140.82 170.61 142.2 177.63 141.05 C 183.87 140.03 188.77 136.21 193.84001 132.74 C 196.11002 131.19 198.51 129.6 201.15 128.74 C 203.41 128 206.4 127.56 208.43 129.14 C 210.46002 130.72 210.91 133.67 210.78 136.04 C 210.63 138.9 209.34001 141.63 207.78 143.99 C 204.48 148.96 199.18001 153.09 193.54 155.02 C 187.38 157.12 180.78998 157.01 174.38 156.57 C 161.13 155.66 147.67 153.98 134.71 157.9 C 128.32 159.83 122.72 163.21 117.36001 167.11 C 112 171.01 107.14001 174.85 101.39 177.75 C 90.69001 183.15 78.41 185.15 66.53 183.81001 C 63.510002 183.47 60.51 182.85 57.58 182.04001 C 54.809998 181.26999 51.96 180.41 49.44 178.99 C 46.92 177.57002 45.31 175.44998 44.529995 172.62999 C 44.2 171.44 43.97 170.22 43.82 169 C 43.66 167.7 43.4 166.23 43.61 164.98 C 43.950005 162.94 44.96 160.99 45.99 159.23 C 47.61 156.44 43.29 153.93 41.67 156.71 C 40.43 158.84 39.26 161.22 38.78 163.66 C 38.19 166.71 38.78 170.22 39.5 173.21 C 40.22 176.19998 41.68 179.25998 44.1 181.34 C 46.7 183.57 49.9 184.83998 53.11 185.92 C 65.41 190.05 79 190.26 91.49 186.85999 C 97.74999 185.16 103.79 182.52002 109.26 179.02 C 114.73 175.52 120.15001 170.86 125.96 167.31 C 138.06 159.91 152.25 159.81 165.97 160.9 C 172.87999 161.44 179.84 162.31 186.77 161.55 C 193.7 160.79 200.37 158.13 205.91998 153.43 C 210.88 149.23 215.02 143.44 215.71 136.83 C 216.04 133.62 215.4 130 213.48 127.340004 C 211.56 124.68 208.46 123.19 205.1 123.11 C 198.61 122.95999 193.12 127.19 188.07 130.71 C 185.69 132.37 183.23 134.08 180.50002 135.13 C 177.18 136.4 173.7 136.61 170.18 136.47 C 166.66 136.33 163 135.89 159.4 135.65 C 155.44 135.39 151.47 135.28 147.5 135.3 C 143.53 135.32 139.6 135.48 135.66 135.79 C 132.13 136.07 128.64 136.55 125.44 138.15 C 123.92 138.91 122.55 139.92 121.10999 140.82 C 119.590004 141.77 118.06 142.43 116.33 142.89 C 113.05 143.76 109.72 144.22 106.63 145.73 C 103.54 147.24 101.17999 149.37 98.42 151.14 C 95.66 152.91 92.78 153.99 89.6 154.47 C 82.96 155.48 76.35 153.82 70.03 151.94 C 63.71 150.06 56.460003 148.78 49.790005 151.27 C 46.85 152.37 43.5 154.08 41.68 156.72 C 40.91 157.83 41.48 159.5 42.58 160.14 C 43.82 160.87 45.23 160.36 46 159.24 Z"/>
        <path fill="#000000" stroke="none" d="M 114.53 118.95 C 114.94001 118.74 114.58 118.94001 114.56 118.93 L 114.06 118.9 C 113.82 118.85 113.64 118.73 113.53 118.54 L 113.47 118.46 C 113.51 118.51999 113.549995 118.58 113.58 118.65 C 113.72 118.85 113.51 118.36 113.560005 118.61 C 113.61001 118.81 113.74999 119.06 113.73 119.27999 C 113.73 119.23 113.71 118.86 113.72 119.24 C 113.72 119.37 113.73 119.49 113.72 119.62 C 113.72 119.72 113.7 119.83001 113.71 119.93 C 113.71 120.21999 113.810005 119.5 113.71 119.96999 C 113.66 120.16999 113.619995 120.38 113.57 120.58 C 113.54 120.69 113.33 121.240005 113.490005 120.87 C 113.39 121.10999 113.27 121.34 113.13 121.57 C 113.02 121.74999 112.91001 121.92 112.79001 122.09 C 112.59 122.37001 112.73999 122.15 112.79001 122.09 C 112.72001 122.17 112.65 122.26 112.58 122.34 C 112.25 122.71 111.90001 123.05 111.52 123.36 C 111.44 123.43 111.35 123.5 111.270004 123.57 C 111.52999 123.35 111.31 123.54 111.26001 123.57 C 111.06 123.72 110.86 123.86 110.65 124 C 110.24 124.28 109.82 124.53999 109.39 124.8 C 109.2 124.920006 109 125.03 108.81 125.14 C 108.62 125.25 109 125.09 109.05999 125.08 C 109.23001 125.08 109.4 125.14 109.549995 125.22 C 109.299995 125.09 109.66 125.29 109.62999 125.30999 C 109.61001 125.32 109.46 125.1 109.45 125.13 C 109.45 125.12 109.7 125.53 109.51 125.19 C 109.44 125.07 109.37 124.96 109.30999 124.84 C 109.28 124.77 109.240005 124.65 109.2 124.600006 C 109.240005 124.65 109.36001 125.02 109.23001 124.659996 C 109.16001 124.46 109.08 124.26 109.02 124.06 C 108.96 123.86 108.89 123.649994 108.84 123.45 C 108.81 123.35 108.79001 123.24 108.77 123.14001 C 108.729996 122.95999 108.71 122.69001 108.73999 123.020004 C 108.729996 122.82001 108.72001 122.62 108.72001 122.41 C 108.72001 122.01 108.7 122.450005 108.71 122.47 C 108.68 122.38999 108.79001 122.19999 108.81 122.12001 C 108.87 121.87999 108.64 122.35 108.81 122.16 C 108.84 122.12001 109.02 121.84 108.88 122.03 C 108.73999 122.22 108.94 121.97 108.979996 121.92 C 109.08 121.810005 109.2 121.72 109.30999 121.61001 C 109.490005 121.41 109.05999 121.77 109.28 121.62999 C 109.36001 121.58 109.44 121.52 109.52 121.46 C 109.7 121.34 109.89 121.23001 110.08 121.13 C 110.450005 120.93 110.83 120.77 111.20999 120.600006 C 112.33 120.08 113.45 119.52999 114.55 118.95999 C 115.43 118.509995 115.75 117.21 115.22 116.39 C 114.63999 115.5 113.59 115.24 112.65 115.72 C 111.340004 116.39 110.02 117.01 108.69 117.64 C 107.51 118.189995 106.42 118.97 105.69 120.07 C 104.85999 121.32 104.85999 122.88 105.2 124.28999 C 105.490005 125.52 105.98 126.83 106.82001 127.79 C 107.36 128.4 108.13 128.79 108.95 128.84 C 109.77 128.89 110.53 128.52 111.23 128.1 C 113.42 126.79 115.67 125.17 116.73999 122.76999 C 117.41 121.27 117.7 119.63 117.299995 118 C 117.10999 117.22 116.75 116.44 116.14 115.90001 C 115.08999 114.98 113.82 115.14001 112.65 115.72 C 111.77 116.16 111.45 117.47 111.98 118.29 C 112.56 119.19 113.6 119.43 114.55 118.95999 Z"/>
        <path fill="#e8e8e8" stroke="none" d="M 95.079994 119.55 C 95.22 120.62 96.01 121.51 96.96 122 C 97.91 122.49 98.98 122.68 100.01 122.95999 C 101.05 123.24 102.1 123.61 103.17 123.55 C 104.25 123.49 105.39 122.86 105.62999 121.80001 C 105.93001 120.53 104.88 119.37 103.90001 118.509995 C 102.55 117.33 101.32 115.72 99.35 115.8 C 96.93 115.96999 94.85 117.84 95.079994 119.55 Z"/>
        <path fill="#000000" stroke="none" d="M 93.28 120.01 C 93.49999 121.35 94.41 122.47 95.5 123.24 C 96.59 124.01 97.9 124.28999 99.15 124.61 C 100.49 124.94 101.85 125.47 103.25 125.35 C 104.65 125.23001 105.93001 124.75 106.8 123.62 C 107.76 122.37001 107.7 120.71 107.03 119.340004 C 106.509995 118.27 105.59 117.51 104.73999 116.71 C 103.95 115.96999 103.15 115.18 102.19999 114.65 C 100.94 113.94999 99.6 113.79 98.19999 114.06999 C 95.78001 114.54 92.920006 116.76 93.21 119.5 C 93.30999 120.47001 94 121.42 95.08999 121.38 C 96.02 121.34 97.08 120.55 96.97 119.5 C 96.97 119.43 96.98999 119.079994 96.97 119.04 C 97.01 119.1 96.85 119.49 96.97 119.19 C 96.98999 119.15 97.02 119.06 97.02 119.020004 C 97.04001 118.8 96.84 119.31 96.979996 119.13 C 97.03 119.07 97.07 118.98 97.10999 118.91 C 97.12 118.88 97.19 118.75 97.22 118.75 C 97.07 118.93 97.04001 118.97 97.13 118.86 C 97.16001 118.82001 97.19 118.79 97.22 118.759995 C 97.35 118.63 97.490005 118.50001 97.62999 118.37001 C 97.77 118.23 97.560005 118.42 97.54 118.439995 C 97.619995 118.380005 97.7 118.31999 97.79 118.27 C 97.96 118.16 98.14 118.06999 98.31999 117.97 C 98.4 117.93001 98.63999 117.85 98.3 117.97 C 98.4 117.94 98.50001 117.9 98.6 117.86 C 98.81 117.79 99.020004 117.74999 99.22 117.7 C 99.32 117.68001 99.56 117.68001 99.20999 117.7 C 99.32 117.7 99.42 117.68001 99.52999 117.68001 C 99.61 117.68001 99.69 117.69 99.76 117.68001 C 100.03001 117.68001 99.46001 117.59 99.71001 117.68001 C 99.83001 117.72 100.43 117.94 100.02 117.74 C 100.32 117.89 100.61 118.06 100.89 118.25001 C 101.17 118.439995 100.91001 118.27 100.85999 118.22 C 100.93 118.28 101.01 118.35 101.09 118.41 C 101.26 118.56 101.42 118.71 101.59 118.86 C 102.17 119.399994 102.8 119.91 103.329994 120.49 C 103.399994 120.57 103.47 120.659996 103.55 120.73999 C 103.52999 120.71 103.399994 120.51 103.51 120.68 C 103.57 120.77 103.63 120.85999 103.69 120.95 C 103.72 121 103.88 121.29 103.77 121.08 C 103.67 120.89 103.77 121.10999 103.79 121.15 C 103.82 121.25 103.84 121.35 103.87 121.45 C 103.77 121.01 103.82 121.37 103.84 121.42 L 103.84 121.58 C 103.86 121.36001 103.86 121.32 103.83001 121.45 C 103.78001 121.7 104 121.16001 103.86 121.37 C 103.75 121.549995 103.96999 121.25 103.96999 121.26 C 103.96999 121.32 103.82 121.4 103.79 121.45 C 103.96999 121.21 103.99 121.33 103.84 121.4 C 103.76 121.44 103.67 121.490005 103.590004 121.53 C 103.66 121.490005 103.95 121.42 103.63 121.49999 C 103.49 121.54 102.98 121.619995 103.38 121.58 C 103.14001 121.6 102.9 121.6 102.66 121.59 C 102.66 121.59 102.35 121.549995 102.53 121.59 C 102.74 121.619995 102.36 121.549995 102.31 121.54 C 101.810005 121.44 101.32 121.29 100.83 121.15 C 100.28 121 99.73 120.88 99.18 120.729996 C 98.91 120.659996 98.63999 120.58 98.37001 120.49 C 98.28 120.46 98.189995 120.43 98.11 120.39 C 97.99 120.34 97.99 120.34 98.130005 120.39 L 97.96 120.31 C 97.869995 120.26 97.78 120.21 97.69 120.16 C 97.65 120.13 97.30999 119.88 97.49999 120.04 C 97.67 120.18 97.48001 120.01 97.45 119.99 C 97.34 119.88 97.240005 119.77 97.13 119.66 C 97.16001 119.69 97.29 119.91 97.2 119.74 C 97.15 119.63 97.08 119.51 97.01 119.42 C 97.19 119.68 97.05999 119.590004 97.03 119.45 C 97 119.3 96.96 119.16 96.93 119.01001 C 96.77 118.04 95.52 117.41 94.62 117.7 C 93.57 118.04 93.14 118.97 93.30999 120.01 Z"/>
        <path fill="#e8e8e8" stroke="none" d="M 112.21999 110.439995 C 112.37 110.43 112.53999 110.42 112.670006 110.50001 C 112.95 110.68 112.87 111.1 112.75 111.41 C 111.64 114.25001 110.31 117.01 108.8 119.66 C 108.72001 119.8 108.62 119.96 108.46 119.98 C 108.32 120 108.19 119.91 108.08 119.82 C 106.55 118.65 105.02 117.490005 103.5 116.32 C 102.12001 115.26001 100 113.65 99.90001 112.24 C 99.83001 111.32 100.75 111.36 101.64 111.270004 C 101.64 111.270004 108.73999 110.72 112.23 110.43 Z"/>
        <path fill="#000000" stroke="none" d="M 112.21999 112.32 C 112.44 112.32 112.43 112.31 112.16999 112.32 L 111.340004 111.84 L 111.22 111.71001 L 110.95999 110.759995 C 111.01001 111.19 111.04 110.62 110.95999 110.85 C 110.9 111.03 110.82001 111.2 110.75 111.38 C 110.63 111.67 110.50001 111.99 110.38999 112.27 C 110.06 113.05 109.71 113.810005 109.35 114.58 C 108.98999 115.35 108.64 116.02 108.27 116.729996 C 108.08 117.09 107.89 117.44 107.7 117.79 C 107.6 117.97 107.51 118.14 107.41 118.31999 L 107.29 118.53 C 107.079994 118.87 107.15 118.82001 107.5 118.38999 L 108.94 118.19999 C 109.09 118.23 108.61 117.93001 108.51 117.85 C 108.28 117.67 108.05 117.490005 107.81 117.32 C 107.31 116.94 106.81 116.56 106.31999 116.18 C 105.86 115.82 105.39 115.47 104.93 115.11 C 104.72001 114.95 104.51 114.79 104.3 114.63 C 104.3 114.63 104.07 114.450005 104.21 114.56 C 104.37 114.69001 104 114.4 103.96999 114.37001 C 103.27999 113.82 102.61 113.240005 102.02 112.57 C 101.77 112.28 101.94999 112.47001 102 112.53999 C 101.94 112.45 101.87999 112.36 101.82 112.27 C 101.72 112.09999 101.69 111.87 101.76 112.16999 C 101.68001 111.82 101.76 112.21999 101.74999 112.27 C 101.79 112.14 101.810005 112.11 101.72 112.27 C 101.57 112.53999 101.57 112.68 101.32 112.920006 C 101.23001 113.08 101.1 113.17 100.93 113.22 C 100.77 113.28 100.73999 113.29 100.84 113.26 C 101.23001 113.12 100.53999 113.26 100.91001 113.240005 C 101.10999 113.23001 101.30999 113.21 101.51 113.19 C 101.59 113.19 101.67 113.17999 101.74999 113.17 C 102.12001 113.14 102.48 113.10999 102.85 113.08 C 104.23 112.97 105.61001 112.85999 107 112.76 C 108.73999 112.62 110.47 112.49 112.21 112.34 C 113.22 112.26 114.09 111.54 114.09 110.46 C 114.09 109.51 113.23001 108.5 112.21 108.58 C 109.77 108.78 107.340004 108.97 104.9 109.16001 C 104.02 109.23001 103.13 109.299995 102.25001 109.37 C 101.51 109.42999 100.729996 109.42 100.01 109.6 C 98.04 110.06999 97.64 112.09 98.380005 113.74999 C 98.95 115.03 100.09 116.04 101.17 116.91001 C 102.59 118.06 104.07 119.14001 105.52 120.25 C 106.25001 120.8 107.04 121.61001 107.94 121.810005 C 109.490005 122.15 110.24 120.94 110.87 119.79 C 111.84 118.03 112.729996 116.23 113.52 114.380005 C 113.94999 113.39 114.65 112.19 114.700005 111.08999 C 114.76999 109.65 113.67 108.5 112.2 108.58 C 111.19 108.63 110.31999 109.4 110.31999 110.46 C 110.31999 111.43 111.18 112.39 112.2 112.34 Z"/>
        <path fill="#e8e8e8" stroke="none" d="M 163.35 107.66 C 164.97 107.79 166.73 107.75 167.97 108.81 C 168.96 109.66 169.46 110.94001 169.91 112.16999 C 170.32 113.28 170.73 114.380005 171.14 115.49 C 171.25 115.8 171.37 116.13 171.28 116.44 C 171.16 116.85 170.74 117.09 170.35 117.26 C 168.19 118.17 165.79 118.24 163.45 118.29 C 162.57 118.31 161.66 118.31999 160.85 117.98 C 160 117.619995 159.34 116.91001 158.83 116.13 C 157.3 113.80001 156.7 110.36 157.93 108.11 C 158.69 107 161.82 107.54 163.35 107.66 Z"/>
        <path fill="#000000" stroke="none" d="M 163.35 109.53 C 163.93 109.57 164.51 109.6 165.1 109.66 C 165.44 109.69 164.88 109.619995 165.21 109.67 C 165.38 109.7 165.54 109.73 165.7 109.77 C 165.83 109.80001 165.96 109.84 166.08 109.869995 L 166.27 109.93001 C 166.16 109.869995 166.16 109.87999 166.27 109.93001 C 167.04 110.3 167.56 111.22 167.88 112.07 C 168.36 113.36001 168.78 114.71 169.34 115.96999 C 169.65 116.69 169.47 115.27999 169.75 115.46001 C 169.75 115.46001 169.22 115.68 169.07 115.73 C 168.43 115.94 167.72 116.09999 167.09 116.19 C 165.78 116.38 164.33 116.4 162.98 116.4 C 162.49 116.4 161.94 116.39 161.61 116.25 C 161.19 116.07 160.82 115.69 160.58 115.340004 C 159.87 114.35 159.57 113.58 159.3 112.37 C 159.27 112.24 159.25 112.09999 159.22 111.96999 C 159.16 111.64 159.24 112.2 159.2 111.87 C 159.17 111.57 159.15 111.27999 159.15 110.98 C 159.15 110.72 159.16 110.46 159.19 110.21 C 159.19 110.3 159.12 110.509995 159.2 110.15 C 159.24 109.97 159.28 109.79 159.33 109.61001 C 159.36 109.490005 159.4 109.38 159.44 109.26 L 159.39 109.37 C 159.5 109.19 159.5 109.16001 159.39 109.28 L 159.32 109.35 C 159.43 109.25 159.42 109.25 159.29 109.35 C 159.15 109.45 159.15 109.45 159.29 109.37 C 159.04 109.46 158.99 109.490005 159.13 109.44 C 159.26 109.42999 159.83 109.29 159.39 109.34 C 159.66 109.30999 159.92 109.299995 160.19 109.299995 C 161.25 109.299995 162.3 109.45 163.36 109.53 C 164.42 109.61001 165.24 108.61 165.24 107.649994 C 165.24 106.57001 164.38 105.86 163.36 105.77 C 161.05 105.58 157.4 104.83 156.16 107.47 C 154.76 110.439995 155.43 114.17 157.12 116.89 C 158.2 118.63 159.71 119.83001 161.78 120.08 C 163.51 120.28999 165.38 120.15001 167.11 119.94 C 168.84 119.73 171.18 119.41 172.46 118.06 C 174.06 116.38 172.57 113.9 171.91 112.12 C 171.2 110.21 170.49 108.27 168.77 107.04 C 167.2 105.92 165.21 105.9 163.36 105.76 C 162.35 105.69 161.48 106.68 161.48 107.64 C 161.48 108.72001 162.34 109.44 163.36 109.52 Z"/>
        <path fill="#e8e8e8" stroke="none" d="M 167.88 96.73999 C 168.89 96.79001 169.9 96.83 170.91 96.88 C 172.09 96.93 173.28998 96.98999 174.39 97.42 C 175.49 97.85 176.48 98.72 176.74 99.87 C 177.13 101.61001 175.79 103.23 174.46 104.409996 C 173.22 105.51 171.88998 106.51999 170.5 107.42 C 169.95 107.78001 169.32 108.13 168.67 108.04 C 168.33 107.99 168.02 107.82 167.71 107.649994 C 166.31 106.86 164.88 106.05001 163.83 104.83 C 163.52 104.47001 163.25 104.07 163.19 103.6 C 163.04 102.380005 164.36 101.53 164.85 100.409996 C 165.36 99.24 165.06 97.58 166.17 96.95 C 166.43 96.8 167.88 96.75 167.88 96.75 Z"/>
        <path fill="#000000" stroke="none" d="M 167.88 98.62 C 169.24 98.68 170.62 98.71 171.98 98.82001 C 172.54 98.86 172.98 98.93 173.56 99.12 C 173.66998 99.16 173.79001 99.19 173.89001 99.24 C 173.66 99.14001 173.96 99.29 173.98 99.3 C 174.29001 99.49 174.40999 99.57 174.55 99.71001 C 174.57 99.73 174.79 99.96999 174.64 99.77 C 174.72 99.87 174.79 99.99 174.85 100.09999 C 174.87 100.14 174.99 100.41999 174.89 100.19 C 174.89 100.21 174.97 100.53 174.93001 100.3 C 174.98 100.7 174.88 101.02 174.68001 101.33 C 174.09 102.27 173.22 103.06 172.28 103.84 C 171.34 104.62 170.27 105.45 169.17 106.06 C 169.19 106.06 168.87 106.23 169.02 106.15 C 169 106.16 168.67 106.23 168.88 106.19999 C 168.94 106.19999 168.97 106.22 169.02 106.24 C 168.9 106.18 168.77 106.11 168.65 106.04 C 168.11 105.74 167.58 105.44 167.06 105.10999 C 166.58 104.81 166.17 104.52 165.79 104.16999 C 165.57 103.96999 165.34 103.75 165.15 103.52 C 165.2 103.590004 165.28 103.74 165.08 103.41 C 164.95 103.2 165.08 103.24 165.04 103.37 C 165.02 103.44 165.05 103.72 165.04 103.5 C 165.03 103.27999 164.93 103.67 165.04 103.46001 C 165.11 103.329994 165.36 102.95 165.36 102.95999 C 165.25 103.11 165.48 102.8 165.51 102.76999 C 165.63 102.62 165.75 102.47 165.86 102.31 C 166.05 102.06 166.24 101.80001 166.38 101.52 C 166.68 100.96 166.84 100.37 166.95 99.74 C 166.99 99.48 167.03 99.22 167.08 98.97 C 167.1 98.86 167.13 98.75 167.16 98.63999 C 167.24 98.28 167.25 98.56 167.16 98.56 L 167.23 98.42 L 167.12 98.55 C 167.25 98.42 167.27 98.41 167.17 98.49 C 167.07 98.59 166.94 98.65 166.8 98.68 C 166.86 98.65 166.96 98.68 167.01 98.63999 C 166.87 98.73 166.64 98.68 166.98 98.65 C 167.28 98.63 167.58 98.61 167.88 98.59 C 168.89 98.55 169.76 97.76 169.76 96.71 C 169.76 95.66 168.9 94.8 167.88 94.83 C 166.75 94.87 165.61 94.9 164.71 95.66 C 163.55 96.65 163.57 98.03 163.21 99.38 C 163.19 99.44 162.99 99.90001 163.16 99.58001 C 163.1 99.69 163.04 99.8 162.97 99.90001 C 162.75 100.25 162.75 100.21999 162.43 100.63 C 161.95 101.26 161.53 101.9 161.39 102.69001 C 161.01 104.76 162.54 106.33 164.06 107.49 C 164.7 107.98 165.38 108.409996 166.08 108.81 C 166.89 109.28 167.72 109.79 168.68 109.86 C 170.5 109.98 172.12999 108.59 173.5 107.56 C 176.15 105.560005 179.88998 102.509995 178.35999 98.72 C 176.70001 94.61 171.54 94.98 167.9 94.82001 C 166.89 94.76999 166.02 95.71001 166.02 96.7 C 166.02 97.74999 166.88 98.53 167.9 98.58 Z"/>
        <path fill="#e8e8e8" stroke="none" d="M 174.82 106.37001 C 175.57 106.12001 176.39 105.94 177.14 106.19999 C 178.58 106.68 178.95 108.51 179.09 110.03 C 179.19 111.14001 179.29 112.28 179.06 113.37 C 178.83 114.46 178.19 115.52999 177.17 116 C 175.47 116.79001 173.51 115.7 172.08 114.48 C 171.73 114.18 171.38 113.86 171.2 113.42999 C 170.87 112.62 171.28 111.71001 171.79 111.01001 C 172.3 110.31 172.96 109.66 173.17 108.82 C 173.37 108 174.16998 106.65 174.80998 106.380005 Z"/>
        <path fill="#000000" stroke="none" d="M 175.32 108.16999 C 175.54 108.09999 175.76 108.03001 175.98 107.98 C 176.09 107.96 176.21 107.93 176.32 107.91 C 175.94998 107.95 176.25 107.93 176.32 107.93 C 176.66 107.93 176.41 107.92 176.32 107.90001 C 176.32 107.90001 176.62 107.95 176.64 107.98 C 176.61 107.94 176.31001 107.79 176.53 107.94 C 176.89 108.18 176.53 107.92 176.53 107.92 C 176.53 107.92 176.71 108.09999 176.70001 108.09 C 176.91 108.28999 176.56999 108.03001 176.63 107.99 C 176.65 107.98 176.85 108.38 176.88 108.41999 C 177.01 108.659996 176.88 108.34 176.83998 108.32 C 176.86 108.33 176.93 108.57 176.93 108.56 C 176.99 108.75 177.04 108.94 177.07999 109.13 C 177.12 109.299995 177.15 109.48001 177.18 109.65 C 177.26 110.130005 177.15 109.32 177.20001 109.80001 C 177.25 110.28 177.3 110.8 177.31999 111.3 C 177.32999 111.55 177.34001 111.8 177.32999 112.05 C 177.32999 112.16999 177.31999 112.3 177.31 112.41999 C 177.3 112.79001 177.31 112.57 177.31 112.47001 C 177.28 112.69 177.22998 112.91001 177.17 113.12 C 177.14 113.21 177.11 113.30999 177.07999 113.4 C 176.94002 113.83 177.26 113.1 177.04 113.490005 C 176.94002 113.66 176.83998 113.83 176.74 113.99 C 176.78 113.93001 176.99 113.72 176.76 113.94999 C 176.69002 114.02 176.62 114.09 176.56 114.15 C 176.46 114.25001 176.33 114.25001 176.6 114.12001 C 176.52 114.16 176.43 114.22 176.35 114.27 C 176.23 114.34 176.1 114.31 176.38 114.27 C 176.26 114.29 176.13 114.33 176.02 114.37001 C 175.77 114.439995 176.33998 114.380005 176.08 114.36 C 176.01 114.36 175.93 114.36 175.86 114.36 C 175.78 114.36 175.65 114.36 175.56001 114.34 C 175.97 114.450005 175.69998 114.35 175.61 114.34 C 175.41002 114.28 175.21 114.23 175.02 114.16 C 174.69 114.04 174.97 114.130005 175.03 114.16 C 174.89 114.09 174.74 114.02 174.6 113.94 C 174.22 113.73 173.86 113.490005 173.51999 113.23001 C 173.83 113.46 173.36 113.09 173.28998 113.02 C 173.21 112.95 173.14001 112.88 173.06 112.81 C 173.01999 112.77 172.77998 112.44 172.91 112.65 C 173.06 112.9 172.83 112.38 172.93 112.670006 C 173.01999 112.94 172.96 112.39 172.95 112.71 C 172.94 113.05999 172.99002 112.41999 172.95 112.76 C 172.92 113.02 172.97 112.7 172.99002 112.64 C 173.01 112.58 173.14001 112.28999 173.02998 112.5 C 172.92 112.71 173.08 112.41999 173.11 112.37 C 173.23 112.16999 173.36 111.98 173.5 111.79 C 173.28998 112.09 173.44 111.86 173.5 111.8 C 173.66 111.590004 173.83 111.39 173.99 111.18 C 174.13 111 174.27002 110.81 174.4 110.62 C 174.71 110.14 174.88 109.6 175.04999 109.05999 C 175.05998 109.01 175.11 108.85 175.13 108.83 C 175.02 108.91001 174.99 109.15 175.13 108.85 C 175.22 108.659996 175.33 108.48 175.44 108.3 C 175.46 108.26 175.54999 108.09999 175.6 108.07 C 175.44998 108.25 175.42001 108.28999 175.51 108.19 C 175.54999 108.14 175.59 108.09 175.64 108.05 C 175.66002 108.03001 175.81001 107.90001 175.81001 107.89 C 175.81001 107.99 175.41002 108.13 175.76 107.96999 C 176.65 107.55 176.95001 106.19999 176.43 105.4 C 175.84 104.49 174.82 104.28 173.86 104.729996 C 172.8 105.23001 172.09 106.46 171.65 107.49 C 171.55 107.73 171.45 107.98 171.37 108.23 C 171.34 108.350006 171.31 108.46 171.27 108.57 C 171.42 108.15001 171.23 108.59 171.19 108.659996 C 171.14 108.75 171.08 108.83 171.02 108.920006 C 170.98 108.97 170.67 109.38 170.94 109.03 C 170.7 109.34 170.45 109.64 170.22 109.96 C 169.29 111.22 168.88 112.88 169.58 114.34 C 170.13 115.48 171.36 116.37 172.42 117.01 C 173.48 117.65 174.84 118.17 176.14 118.1 C 177.68 118.01 178.98001 117.240005 179.88 116 C 181.43 113.87999 181.19 110.9 180.75002 108.45 C 180.53 107.25 180.03 105.99 179.09 105.17999 C 177.71999 104.01 175.96 104 174.31 104.53 C 173.38002 104.83 172.68 105.85 173 106.83999 C 173.3 107.78001 174.31 108.47001 175.30998 108.15001 Z"/>
    </g>
</svg>
