<svg width="32" height="32" xmlns="http://www.w3.org/2000/svg">
    <g id="Page-1">
        <g id="Artboard备份" transform="matrix(1 0 0 1 -1582 -4045)">
            <g id="USX" transform="matrix(1 0 0 1 1582 4045)">
                <path id="椭圆形" fill="#ffaa1d" fill-rule="evenodd" stroke="none" d="M 32 16 C 32 24.836554 24.836554 32 16 32 C 7.163444 32 0 24.836554 0 16 C 0 7.163444 7.163444 0 16 0 C 24.836554 0 32 7.163444 32 16 Z"/>
                <path id="椭圆形备份" fill="#242a47" fill-rule="evenodd" stroke="none" d="M 29.538464 16 C 29.538464 23.477085 23.477085 29.538464 16 29.538464 C 8.522914 29.538464 2.4615383 23.477085 2.4615383 16 C 2.4615383 8.522914 8.522914 2.4615383 16 2.4615383 C 23.477085 2.4615383 29.538464 8.522914 29.538464 16 Z"/>
                <path id="椭圆形备份-2" fill="#ffffff" fill-rule="evenodd" stroke="none" d="M 27.076923 16 C 27.076923 22.117617 22.117617 27.076923 16 27.076923 C 9.882384 27.076923 4.9230766 22.117617 4.9230766 16 C 4.9230766 9.882384 9.882384 4.9230766 16 4.9230766 C 22.117617 4.9230766 27.076923 9.882384 27.076923 16 Z"/>
                <path id="路径" fill="#242a47" stroke="none" d="M 16.931833 23.748907 L 15.390455 23.748907 L 15.390455 21.99734 C 14.325502 21.87123 13.134429 21.394804 12.307693 20.638128 L 13.316592 19.09675 C 14.171359 19.769352 14.9980955 20.161703 15.894906 20.161703 C 16.98788 20.161703 17.492332 19.671265 17.492332 18.788477 C 17.492332 16.6866 12.742086 16.868761 12.742086 13.603839 C 12.742086 11.908324 13.750987 10.731278 15.390457 10.422999 L 15.390457 8.615385 L 16.931835 8.615385 L 16.931835 10.394974 C 18.052837 10.549111 18.851551 11.109612 19.524155 11.810238 L 18.375128 13.127415 C 17.73055 12.538889 17.170052 12.202588 16.371338 12.202588 C 15.44651 12.202588 14.94206 12.636975 14.94206 13.49174 C 14.94206 15.425467 19.692308 15.131204 19.692308 18.620325 C 19.678295 20.329851 18.725445 21.60499 16.931831 21.941284 L 16.931833 23.748907 Z"/>
            </g>
        </g>
    </g>
</svg>
