<svg width="44" height="35" xmlns="http://www.w3.org/2000/svg">
    <path fill="#ff414d" stroke="none" d="M 35.201 0 L 35.201 9.49417 C 33.8245 9.0092 32.3435 8.74691 30.8027 8.74691 C 27.8233 8.74691 25.070301 9.72924 22.86 11.389501 C 25.1027 13.428401 26.6882 16.1775 27.2632 19.2729 C 28.0647 18.1965 29.3491 17.4988 30.8027 17.4988 C 33.2346 17.4988 35.201 19.4585 35.201 21.870998 C 35.201 24.283499 33.2321 26.2481 30.8027 26.2481 C 29.3491 26.2481 28.0647 25.5504 27.2632 24.474003 C 26.7231 23.7466 26.404497 22.8484 26.404497 21.8734 C 26.404497 17.9887 24.7069 14.4973 22.0012 12.0972 C 21.727402 11.8498 21.4387 11.614701 21.145 11.3945 C 18.9347 9.73418 16.1842 8.75185 13.2022 8.75185 C 5.9091396 8.75185 0 14.628501 0 21.875902 C 0 29.1234 5.90915 35 13.2022 35 C 16.1817 35 18.9347 34.0177 21.145 32.3623 C 18.9023 30.3185 17.3167 27.5719 16.7418 24.4765 C 15.9403 25.5528 14.6534 26.2531 13.2022 26.2531 C 10.7704 26.2531 8.79901 24.2934 8.79901 21.875902 C 8.79901 19.4585 10.7704 17.5037 13.2022 17.5037 C 14.650901 17.5037 15.9403 18.204 16.7418 19.2803 C 17.2819 20.0078 17.6005 20.9035 17.6005 21.875902 C 17.6005 25.760702 19.2981 29.2545 21.9988 31.6571 C 22.275 31.904598 22.5613 32.1396 22.8575 32.3598 C 25.067802 34.0177 27.818302 34.9975 30.8002 34.9975 C 32.3435 34.9975 33.8245 34.7352 35.1985 34.2503 C 40.3236 32.4514 44 27.5892 44 21.8734 L 44 0.00246942 L 35.1985 0.00246942 L 35.201 0 Z"/>
</svg>
