<svg width="327" height="327" xmlns="http://www.w3.org/2000/svg">
    <defs>
        <linearGradient id="SVGID_1_" x1="271.5728" y1="226.5394" x2="183.0728" y2="85.5394" gradientUnits="userSpaceOnUse" gradientTransform="matrix(1 0 0 -1 0 328)">
            <stop offset="0" stop-color="#fcc407"/>
            <stop offset="1" stop-color="#fe9605"/>
        </linearGradient>
        <linearGradient id="SVGID_00000086692860927398666020000005699835920544557244_" x1="173.8282" y1="292.9639" x2="75.8283" y2="135.9639" gradientUnits="userSpaceOnUse" gradientTransform="matrix(1 0 0 -1 0 328)">
            <stop offset="0" stop-color="#ff7001"/>
            <stop offset="1" stop-color="#fe9604"/>
        </linearGradient>
    </defs>
    <g>
        <path fill="url(#SVGID_1_)" stroke="none" d="M 225.5 62.2 C 238.79999 70.4 250.3 81.1 259.4 93.7 C 268.5 106.3 275.1 120.600006 278.7 135.8 C 282.3 151 282.9 166.7 280.4 182.1 C 277.9 197.5 272.5 212.2 264.3 225.5 C 256.1 238.79999 245.40001 250.3 232.8 259.4 C 220.2 268.5 205.9 275.1 190.7 278.7 C 175.5 282.3 159.8 282.9 144.4 280.4 C 129 277.9 114.3 272.4 101 264.3 L 163.2 163.2 L 225.5 62.2 Z"/>
        <path fill="url(#SVGID_00000086692860927398666020000005699835920544557244_)" stroke="none" d="M 101.1 264.4 C 87.8 256.2 76.3 245.5 67.2 232.9 C 58.1 220.3 51.5 206 47.9 190.79999 C 44.300003 175.6 43.699997 159.9 46.2 144.5 C 48.7 129.1 54.2 114.4 62.300003 101.1 C 70.5 87.8 81.2 76.3 93.80001 67.2 C 106.4 58.1 120.7 51.5 135.9 47.9 C 151.1 44.300003 166.8 43.699997 182.2 46.2 C 197.6 48.7 212.3 54.2 225.6 62.300003 L 163.4 163.4 L 101.1 264.4 Z"/>
        <path fill="#ffffff" stroke="none" d="M 233.9 186.8 C 232.30002 182.2 227.4 179.7 222.79999 181.40001 L 185.7 194.59999 L 175 160.3 L 210.7 103.7 C 212.7 100.5 212.50002 96.4 210.3 93.49999 C 208 90.50001 204.2 89.4 200.70001 90.6 L 157.8 105.1 L 151.3 84.2 C 149.8 79.5 144.9 77 140.3 78.5 C 135.7 80 133.2 85 134.6 89.7 L 141.2 110.8 L 113.1 120.3 C 108.5 121.9 106 126.9 107.5 131.5 C 109 136.1 113.9 138.7 118.50001 137.1 L 146.4 127.6 L 155.8 157.8 L 115.7 221.3 C 113.7 224.5 113.9 228.6 116.2 231.6 C 117.6 233.4 119.5 234.5 121.49999 234.8 C 122.9 235 124.4 234.9 125.9 234.4 L 174.3 217.20001 L 178.5 230.6 C 179.49998 233.9 182.2 236.10002 185.3 236.6 C 186.59999 236.8 188.10002 236.8 189.5 236.3 C 194.1 234.8 196.6 229.8 195.2 225.1 L 190.9 211.3 L 228.39998 198 C 233.1 196.50002 235.49998 191.4 233.9 186.8 Z M 163 122 L 182.7 115.3 L 168.2 138.4 L 163 122 Z M 144.1 209.3 L 162.7 179.8 L 169.1 200.4 L 144.1 209.3 Z"/>
    </g>
</svg>
