<svg width="192" height="192" xmlns="http://www.w3.org/2000/svg">
    <defs>
        <linearGradient id="paint2_linear_4653_8332" x1="119.527" y1="46.0987" x2="106.218" y2="65.5938" gradientUnits="userSpaceOnUse">
            <stop offset="0" stop-color="#ffffff"/>
            <stop offset="1" stop-color="#ffffff" stop-opacity="0"/>
        </linearGradient>
        <linearGradient id="paint3_linear_4653_8332" x1="119.527" y1="46.0987" x2="106.218" y2="65.5938" gradientUnits="userSpaceOnUse">
            <stop offset="0" stop-color="#ffffff"/>
            <stop offset="1" stop-color="#ffffff" stop-opacity="0"/>
        </linearGradient>
        <linearGradient id="paint4_linear_4653_8332" x1="119.527" y1="46.0987" x2="106.218" y2="65.5938" gradientUnits="userSpaceOnUse">
            <stop offset="0" stop-color="#ffffff"/>
            <stop offset="1" stop-color="#ffffff" stop-opacity="0"/>
        </linearGradient>
        <radialGradient id="paint0_radial_4653_8332" cx="0" cy="0" r="1" fx="0" fy="0" gradientUnits="userSpaceOnUse" gradientTransform="matrix(0 192 -166.441 0 96 0.00000926)">
            <stop offset="0" stop-color="#6873e9"/>
            <stop offset="1" stop-color="#3540b6"/>
        </radialGradient>
        <radialGradient id="paint1_radial_4653_8332" cx="0" cy="0" r="1" fx="0" fy="0" gradientUnits="userSpaceOnUse" gradientTransform="matrix(79.35272 73.89617 -73.89617 79.35272 57.6645 57.2197)">
            <stop offset="0" stop-color="#ffffff"/>
            <stop offset="1" stop-color="#cccbe4"/>
        </radialGradient>
        <filter id="filter0_di_4653_8332" x="31.5364" y="33.7706" width="128.92398" height="128.924" filterUnits="userSpaceOnUse">
            <feFlood color-interpolation-filters="sRGB" flood-color="#000000" flood-opacity="0" result="BackgroundImageFix"/>
            <feColorMatrix color-interpolation-filters="sRGB" in="SourceAlpha" result="hardAlpha" type="matrix" values="0 0 0 0 0 0 0 0 0 0 0 0 0 0 0 0 0 0 127 0"/>
            <feOffset color-interpolation-filters="sRGB" in="hardAlpha" dx="0" dy="2.13333" result="result3"/>
            <feGaussianBlur color-interpolation-filters="sRGB" in="result3" stdDeviation="4.17778 4.17778" result="result4"/>
            <feComposite color-interpolation-filters="sRGB" in="result4" in2="hardAlpha" operator="out" result="result5"/>
            <feColorMatrix color-interpolation-filters="sRGB" in="result5" result="result6" type="matrix" values="0 0 0 0 0.131516 0 0 0 0 0.148447 0 0 0 0 0.44111 0 0 0 0.6 0"/>
            <feBlend color-interpolation-filters="sRGB" in="result6" in2="BackgroundImageFix" mode="normal" result="effect1_dropShadow_4653_8332"/>
            <feBlend color-interpolation-filters="sRGB" in="SourceGraphic" in2="effect1_dropShadow_4653_8332" mode="normal" result="shape"/>
            <feColorMatrix color-interpolation-filters="sRGB" in="SourceAlpha" result="hardAlpha" type="matrix" values="0 0 0 0 0 0 0 0 0 0 0 0 0 0 0 0 0 0 127 0"/>
            <feOffset color-interpolation-filters="sRGB" in="hardAlpha" dx="-0.300511" dy="0.901533" result="result10"/>
            <feGaussianBlur color-interpolation-filters="sRGB" in="result10" stdDeviation="0.375639 0.375639" result="result11"/>
            <feComposite color-interpolation-filters="sRGB" in="result11" in2="hardAlpha" operator="arithmetic" k1="0" k2="-1" k3="1" k4="0" result="result12"/>
            <feColorMatrix color-interpolation-filters="sRGB" in="result12" result="result13" type="matrix" values="0 0 0 0 1 0 0 0 0 1 0 0 0 0 1 0 0 0 1 0"/>
            <feBlend color-interpolation-filters="sRGB" in="result13" in2="shape" mode="normal" result="effect2_innerShadow_4653_8332"/>
        </filter>
        <filter id="filter1_f_4653_8332" x="45.5967" y="37.0772" width="106.487" height="119.271" filterUnits="userSpaceOnUse">
            <feFlood color-interpolation-filters="sRGB" flood-color="#000000" flood-opacity="0" result="BackgroundImageFix"/>
            <feBlend color-interpolation-filters="sRGB" in="SourceGraphic" in2="BackgroundImageFix" mode="normal" result="shape"/>
            <feGaussianBlur color-interpolation-filters="sRGB" in="shape" stdDeviation="1.77778 1.77778" result="effect1_foregroundBlur_4653_8332"/>
        </filter>
        <filter id="filter2_df_4653_8332" x="43.8189" y="35.2994" width="112.70899" height="123.89399" filterUnits="userSpaceOnUse">
            <feFlood color-interpolation-filters="sRGB" flood-color="#000000" flood-opacity="0" result="BackgroundImageFix"/>
            <feColorMatrix color-interpolation-filters="sRGB" in="SourceAlpha" result="hardAlpha" type="matrix" values="0 0 0 0 0 0 0 0 0 0 0 0 0 0 0 0 0 0 127 0"/>
            <feOffset color-interpolation-filters="sRGB" in="hardAlpha" dx="2.31111" dy="0.711111" result="result3"/>
            <feGaussianBlur color-interpolation-filters="sRGB" in="result3" stdDeviation="2.84445 2.84445" result="result4"/>
            <feComposite color-interpolation-filters="sRGB" in="result4" in2="hardAlpha" operator="out" result="result5"/>
            <feColorMatrix color-interpolation-filters="sRGB" in="result5" result="result6" type="matrix" values="0 0 0 0 0.999429 0 0 0 0 0.999429 0 0 0 0 0.999429 0 0 0 1 0"/>
            <feBlend color-interpolation-filters="sRGB" in="result6" in2="BackgroundImageFix" mode="normal" result="effect1_dropShadow_4653_8332"/>
            <feBlend color-interpolation-filters="sRGB" in="SourceGraphic" in2="effect1_dropShadow_4653_8332" mode="normal" result="shape"/>
            <feGaussianBlur color-interpolation-filters="sRGB" in="shape" stdDeviation="2.66667 2.66667" result="effect2_foregroundBlur_4653_8332"/>
        </filter>
        <filter id="filter3_df_4653_8332" x="43.8189" y="35.2994" width="112.70899" height="123.89399" filterUnits="userSpaceOnUse">
            <feFlood color-interpolation-filters="sRGB" flood-color="#000000" flood-opacity="0" result="BackgroundImageFix"/>
            <feColorMatrix color-interpolation-filters="sRGB" in="SourceAlpha" result="hardAlpha" type="matrix" values="0 0 0 0 0 0 0 0 0 0 0 0 0 0 0 0 0 0 127 0"/>
            <feOffset color-interpolation-filters="sRGB" in="hardAlpha" dx="2.31111" dy="0.711111" result="result3"/>
            <feGaussianBlur color-interpolation-filters="sRGB" in="result3" stdDeviation="2.84445 2.84445" result="result4"/>
            <feComposite color-interpolation-filters="sRGB" in="result4" in2="hardAlpha" operator="out" result="result5"/>
            <feColorMatrix color-interpolation-filters="sRGB" in="result5" result="result6" type="matrix" values="0 0 0 0 0.999429 0 0 0 0 0.999429 0 0 0 0 0.999429 0 0 0 1 0"/>
            <feBlend color-interpolation-filters="sRGB" in="result6" in2="BackgroundImageFix" mode="normal" result="effect1_dropShadow_4653_8332"/>
            <feBlend color-interpolation-filters="sRGB" in="SourceGraphic" in2="effect1_dropShadow_4653_8332" mode="normal" result="shape"/>
            <feGaussianBlur color-interpolation-filters="sRGB" in="shape" stdDeviation="2.66667 2.66667" result="effect2_foregroundBlur_4653_8332"/>
        </filter>
        <filter id="filter4_f_4653_8332" x="72.3492" y="12.4941" width="96.643295" height="77.1812" filterUnits="userSpaceOnUse">
            <feFlood color-interpolation-filters="sRGB" flood-color="#000000" flood-opacity="0" result="BackgroundImageFix"/>
            <feBlend color-interpolation-filters="sRGB" in="SourceGraphic" in2="BackgroundImageFix" mode="normal" result="shape"/>
            <feGaussianBlur color-interpolation-filters="sRGB" in="shape" stdDeviation="11.0222 11.0222" result="effect1_foregroundBlur_4653_8332"/>
        </filter>
    </defs>
    <path fill="url(#paint0_radial_4653_8332)" stroke="none" d="M 0 0 L 192 0 L 192 192 L 0 192 Z"/>
    <g filter="url(#filter0_di_4653_8332)">
        <path fill="url(#paint1_radial_4653_8332)" fill-rule="evenodd" stroke="none" d="M 95.9982 39.9929 C 127.013 39.9929 152.104 65.0848 152.104 96.099106 C 152.104 127.113 127.013 152.205 95.9982 152.205 C 64.9839 152.205 39.892 127.113 39.892 96.099106 C 39.892 88.4066 41.426 81.0336 44.2624 74.3854 C 44.535103 73.7461 45.4752 73.8648 45.643 74.5393 C 45.9208 75.6558 46.2781 76.7497 46.749397 77.7867 C 47.9962 80.7478 49.7106 83.3194 51.9704 85.5792 C 54.152298 87.7611 56.801804 89.5534 59.7629 90.8002 C 62.568195 91.96911 65.6853 92.5925 68.8802 92.5925 L 73.7116 92.5925 L 74.2473 92.5925 C 74.64 92.5925 74.9584 92.2741 74.9584 91.8814 L 74.9584 91.3457 L 74.9584 81.9167 L 74.9584 81.381 C 74.9584 80.9883 74.64 80.6699 74.2473 80.6699 L 73.7116 80.6699 L 68.8802 80.6699 C 67.2438 80.6699 65.6853 80.3582 64.3605 79.7348 C 62.8799 79.1114 61.5552 78.2542 60.4643 77.1633 C 59.373295 76.0723 58.4382 74.7476 57.8148 73.267 C 57.2693 71.8643 56.8797 70.3837 56.8797 68.8252 L 56.8797 68.7473 L 56.8797 68.6694 C 56.8797 67.1109 57.1914 65.5524 57.8148 64.2276 C 58.4382 62.7471 59.295403 61.4223 60.3863 60.3314 C 61.4773 59.2404 62.802 58.3053 64.2826 57.7598 C 65.6853 57.2144 67.2438 56.8247 68.8023 56.8247 C 70.4387 56.8247 71.9193 57.1364 73.3219 57.7598 C 74.8025 58.3832 76.1273 59.2404 77.2182 60.3314 C 78.3092 61.4223 79.2443 62.7471 79.7897 64.2276 C 80.3352 65.6303 80.7249 67.1888 80.7249 68.7473 L 80.7249 86.67019 L 80.7249 104.592995 C 80.7249 107.788 81.3483 110.905 82.5171 113.71 C 83.7639 116.671 85.4783 119.243 87.7381 121.503 C 89.92 123.685 92.56951 125.477 95.5307 126.72401 C 98.336 127.893005 101.453 128.516 104.64801 128.516 C 107.843 128.516 110.95999 127.893005 113.765 126.72401 C 116.64801 125.477 119.298 123.76301 121.558 121.503 C 123.74 119.321 125.532 116.671 126.779 113.71 C 127.79199 111.295 128.415 108.645 128.571 105.84 L 128.649 104.592995 L 128.649 104.125 L 128.649 103.814 C 128.571 100.85299 127.948 98.1252 126.857 95.4757 C 125.61001 92.5925 123.896 89.943 121.636 87.6832 C 119.454 85.5013 116.804 83.709 113.843 82.4622 C 111.038 81.2933 107.921 80.6699 104.726 80.6699 L 99.8945 80.6699 L 99.3588 80.6699 C 98.966095 80.6699 98.6477 80.9883 98.6477 81.381 L 98.6477 81.9167 L 98.6477 91.3457 L 98.6477 91.8814 C 98.6477 92.2741 98.966095 92.5925 99.3588 92.5925 L 99.8945 92.5925 L 104.726 92.5925 C 106.362 92.5925 107.921 92.904205 109.246 93.5276 C 110.726 94.151 112.051 95.0082 113.142 96.177 C 114.23301 97.268 115.168 98.5927 115.791 100.073 C 116.337 101.47599 116.726 102.95701 116.726 104.515 L 116.726 104.592995 L 116.726 104.671 C 116.726 106.22899 116.41499 107.788 115.791 109.113 C 115.168 110.593 114.311 111.918 113.22 113.008995 C 112.12899 114.1 110.804 115.035 109.323 115.58001 C 107.921 116.126 106.362 116.51601 104.804 116.51601 C 103.245 116.51601 101.687 116.204 100.284 115.58001 C 98.8035 114.95701 97.4788 114.1 96.3879 113.008995 C 95.2969 111.918 94.3618 110.593 93.8163 109.113 C 93.2708 107.71001 92.8812 106.151 92.8812 104.592995 L 92.8812 86.67019 L 92.8812 68.7473 C 92.8812 65.5524 92.257805 62.4354 91.0889 59.630005 C 89.8421 56.668896 88.12779 54.0973 85.8679 51.8375 C 83.686 49.6556 81.0366 47.8633 78.0754 46.6165 C 77.1227 46.2082 76.1872 45.874195 75.2182 45.604996 C 74.5524 45.4199 74.4379 44.4763 75.0726 44.202805 C 81.4697 41.4467 88.4582 39.9929 95.9982 39.9929 Z"/>
    </g>
    <g filter="url(#filter1_f_4653_8332)">
        <path fill="none" stroke="url(#paint2_linear_4653_8332)" stroke-width="0.711111" d="M 148.026 100.05 C 145.939 130.811 122.192 154.176 95.066795 152.336 C 67.942 150.496 47.5679 124.13801 49.6548 93.3762 C 51.7416 62.6146 75.4887 39.2499 102.614 41.0901 C 129.738 42.9302 150.112 69.288 148.026 100.05 Z"/>
    </g>
    <g filter="url(#filter2_df_4653_8332)">
        <path fill="none" stroke="url(#paint3_linear_4653_8332)" stroke-width="0.711111" shape-rendering="crispEdges" d="M 148.026 100.05 C 145.939 130.811 122.192 154.176 95.066795 152.336 C 67.942 150.496 47.5679 124.13801 49.6548 93.3762 C 51.7416 62.6146 75.4887 39.2499 102.614 41.0901 C 129.738 42.9302 150.112 69.288 148.026 100.05 Z"/>
    </g>
    <g filter="url(#filter3_df_4653_8332)">
        <path fill="none" stroke="url(#paint4_linear_4653_8332)" stroke-width="0.711111" shape-rendering="crispEdges" d="M 148.026 100.05 C 145.939 130.811 122.192 154.176 95.066795 152.336 C 67.942 150.496 47.5679 124.13801 49.6548 93.3762 C 51.7416 62.6146 75.4887 39.2499 102.614 41.0901 C 129.738 42.9302 150.112 69.288 148.026 100.05 Z"/>
    </g>
    <g filter="url(#filter4_f_4653_8332)">
        <g transform="matrix(0.8487936 0.52872425 -0.52872425 0.8487936 45.25594 -56.077354)">
            <path fill="#ffffff" stroke="none" d="M 151.569 51.0847 C 151.569 52.78314 137.73549 54.15999 120.671 54.15999 C 103.6065 54.15999 89.77299 52.78314 89.772995 51.0847 C 89.77299 49.386265 103.6065 48.00941 120.671 48.00941 C 137.73549 48.00941 151.569 49.386265 151.569 51.0847 Z"/>
        </g>
    </g>
</svg>
