<svg width="290" height="290" xmlns="http://www.w3.org/2000/svg">
    <g transform="matrix(0.99026805 -0.1391731 0.1391731 0.99026805 -18.76897 21.59123)">
        <path fill="#5326ec" stroke="none" d="M 273 145 C 273 215.69246 215.69246 273 145 273 C 74.30755 273 17 215.69246 17 145 C 17 74.30755 74.30755 17 145 17 C 215.69246 17 273 74.30755 273 145 Z"/>
    </g>
    <path fill="#fcfcff" stroke="none" d="M 250.025 147.649 C 249.808 150.572 249.724 153.514 249.353 156.415 C 245.417 187.221 230.87901 211.876 205.45801 229.891 C 186.469 243.352 165.073 249.601 141.799 248.73799 C 114.884995 247.746 91.71909 237.713 72.3342 219.12001 C 72.1558 218.94899 72.1629 218.266 72.3384 218.084 C 96.7059 193.951 121.096 169.842 145.508 145.758 C 146.086 145.236 146.831 144.935 147.61 144.91 C 181.755 144.958 215.89899 145.035 250.04199 145.143 L 250.025 147.649 Z"/>
    <path fill="#fcfcff" stroke="none" d="M 148.503 40.8139 C 151.373 41.0384 154.249 41.1725 157.108 41.4876 C 173.851 43.3388 189.255 48.8833 203.321 58.121105 C 203.417 58.1929 203.508 58.2699 203.595 58.3518 L 194.64398 67.1837 C 192.696 69.106 190.76 71.0413 188.789 72.9392 C 188.66399 73.0188 188.522 73.0669 188.375 73.0793 C 188.228 73.0917 188.08 73.068 187.944 73.0103 C 173.778 64.8425 158.51 61.063 142.139 61.6715 C 105.513 63.0443 73.4839 88.7761 64.5612 124.15299 C 59.0381 146.072 61.9783 166.917 73.0918 186.613 C 73.1979 186.8 73.202 187.213 73.073 187.332 C 68.195 192.18999 63.300095 197.03699 58.3885 201.87 C 58.3406 201.918 58.2813 201.95601 58.1697 202.04498 C 57.7119 201.334 57.2512 200.646 56.817898 199.94298 C 44.8254 180.49002 39.5817 159.368 41.3972 136.588 C 45.181095 89.2335 80.7547 50.5233 127.91701 42.407 C 132.685 41.5873 137.559 41.3888 142.383 40.9027 L 143.368 40.8004 L 148.503 40.8139 Z"/>
    <path fill="#fcfcff" stroke="none" d="M 201.178 103.711 C 201.204 99.3853 202.735 95.20031 205.51 91.8682 C 208.285 88.536 212.13402 86.262596 216.4 85.4349 C 220.667 84.6072 225.08699 85.2764 228.91 87.3285 C 232.733 89.3806 235.721 92.6888 237.36601 96.6901 C 239.011 100.691 239.212 105.138 237.93399 109.274 C 236.656 113.41 233.978 116.979 230.356 119.374 C 226.734 121.769 222.391 122.841 218.068 122.409004 C 213.745 121.977 209.708 120.067 206.644 117.003 C 204.899 115.255 203.51802 113.18201 202.58 110.901 C 201.642 108.62 201.16602 106.176 201.178 103.711 Z"/>
</svg>
