<svg width="256" height="256" xmlns="http://www.w3.org/2000/svg">
    <path fill="#000000" stroke="none" d="M 0 0 L 256 0 L 256 256 L 0 256 Z"/>
    <path fill="#ffffff" stroke="none" d="M 200.6 128 C 200.6 94.9 178.4 67 148.1 58.2 L 148.1 81.6 C 166 89.4 178.5 107.2 178.5 127.90001 C 178.5 148.6 161.9 171.7 139.7 177 L 139.7 40.5 L 116.2 40.5 L 116.2 56.300003 C 81.7 61.9 55.3 91.8 55.3 127.90001 C 55.3 164 77.5 188.90001 107.8 197.7 L 107.8 174.3 C 89.9 166.5 77.4 148.7 77.4 128 C 77.4 107.3 94 84.2 116.2 78.9 L 116.2 215.5 L 139.7 215.5 L 139.7 199.69998 C 174.2 194.1 200.6 164.2 200.6 128.1 L 200.6 128.1 Z"/>
</svg>
