<svg width="850" height="850" xmlns="http://www.w3.org/2000/svg">
    <g style="mix-blend-mode:normal;isolation:isolate">
        <g id="Layer_1">
            <g>
                <path fill="#021f6a" stroke="none" d="M 850 425 C 850 542.36 802.43 648.61 725.5201 725.5201 C 648.61 802.43 542.36 850 425 850 C 307.64 850 201.39 802.43 124.48 725.5201 C 47.570004 648.61 0 542.36 0 425 C 0 307.64 47.570004 201.39 124.48 124.48 C 201.39 47.570004 307.64 0 425 0 C 542.36 0 648.61 47.570004 725.5201 124.48 C 802.43 201.39 850 307.64 850 425 Z"/>
                <g style="mix-blend-mode:lighten;isolation:auto">
                    <path fill="#ffffff" stroke="#ffffff" stroke-miterlimit="10" d="M 401.41 743.54 L 401.41 445.79 C 401.41 445.79 401.65 441.24 402.74 435.25 C 403.83002 429.26 405.78 421.83 409.21 416.08 C 411.81998 411.7 416.8 407.57 421.13 404.52 C 425.46 401.47 429.14 399.53 429.14 399.53 L 480.46 369.63 L 531.78 339.73 L 487.77 314.16 L 443.76004 288.59 C 443.76004 288.59 441.40997 287.18 437.9 285.76 C 434.39 284.34 429.69003 282.93 425.01 282.93 C 420.33002 282.93 415.74 284.34 412.26 285.76 C 408.77997 287.18 406.47 288.59 406.47 288.59 L 361.79 314.16 L 317.11 339.73 C 317.11 339.73 313.99 341.29 310.13 344.51 C 306.27 347.73 301.66 352.62003 298.69 359.29 C 295.76 365.85 294.64 373.65 294.24 379.81998 C 293.84 385.99 294.18 390.51 294.18 390.51 L 294.18 660.55 C 294.18 660.55 294.37 663.14 295.22 666.74 C 296.07 670.34 297.57 674.95 300.2 678.98 C 303.02 683.3 306.96 687.06 310.21 689.74005 C 313.46 692.42 315.99 694.02 315.99 694.02 L 358.72003 718.78 L 401.45 743.54 Z M 472.4 605.88 L 523.22 576.98 L 574.04 548.08 C 574.04 548.08 577.76 546.11 582.42 542.5 C 587.08 538.89 592.68 533.62 596.45 527.02 C 599.87 521.04 601.46 513.69 602.21 507.85 C 602.96 502.01 602.84 497.65 602.84 497.65 L 602.84 359.31 C 602.84 359.31 602.95 354.95996 602.21 349.11 C 601.47 343.26 599.87 335.92 596.45 329.94 C 592.68 323.34 587.08 318.08 582.42 314.46 C 577.76 310.84 574.04 308.88 574.04 308.88 L 508.89005 271.83 L 443.74 234.78 C 443.74 234.78 441.94 233.84001 438.69 232.9 C 435.43997 231.96 430.76 231.02 424.99 231.02 C 419.54 231.02 414.85 231.96 411.52 232.9 C 408.19 233.84001 406.23 234.78 406.23 234.78 L 341.08 271.83 L 275.93 308.88 C 275.93 308.88 272.21 310.85 267.55 314.46 C 262.89 318.07 257.29 323.34 253.51999 329.94 C 250.1 335.92 248.51 343.26 247.76 349.11 C 247.01 354.95996 247.13 359.31 247.13 359.31 L 247.23 507.18 L 247.33 655.05 L 208.88 632.97 L 170.43 610.89 C 170.43 610.89 166.25 608.85 161.11 605.1 C 155.97 601.35 149.86 595.9 145.99 589.08 C 142.55 583.02 141.14 575.87 140.59 570.24 C 140.04 564.61 140.35 560.5 140.35 560.5 L 140.35 296.48 C 140.35 296.48 140.04 292.37 140.59 286.74 C 141.14 281.11 142.55 273.96 145.99 267.9 C 149.86 261.08 155.97 255.62 161.11 251.88 C 166.25 248.14 170.43 246.09 170.43 246.09 L 288.3 178.39 L 406.17 110.69001 C 406.17 110.69001 408.52002 109.66 412.05 108.62 C 415.58 107.58001 420.27 106.55 424.97 106.55 C 429.67004 106.55 434.37 107.58001 437.89 108.62 C 441.40997 109.66 443.76004 110.69001 443.76004 110.69001 L 561.63 178.39 L 679.5 246.09 C 679.5 246.09 683.68 248.13 688.82 251.88 C 693.96 255.63 700.06995 261.08 703.94006 267.9 C 707.38 273.96 708.7899 281.11 709.34 286.74 C 709.8901 292.37 709.57996 296.48 709.57996 296.48 L 709.57996 560.5 C 709.57996 560.5 709.8901 564.61 709.34 570.24 C 708.7899 575.87 707.38 583.02 703.94006 589.08 C 700.06995 595.9 693.96 601.36 688.82 605.1 C 683.68 608.84 679.5 610.89 679.5 610.89 L 564.1 677.17 L 448.7 743.4501 L 448.67 696.35 L 448.64 649.25 C 448.64 649.25 448.46 645.77 448.8 641.02 C 449.13998 636.27 449.98 630.25 452.03 625.18 C 454.36 619.41 459.44 614.59 463.94 611.2 C 468.43997 607.81 472.36 605.87 472.36 605.87 Z"/>
                </g>
                <g style="mix-blend-mode:lighten;isolation:auto">
                    <path fill="#ffffff" stroke="none" d="M 448.76 565.39 L 490.65002 541.32 L 532.54 517.25 C 532.54 517.25 535.07 515.7 538.35 512.95 C 541.63 510.2 545.68 506.25 548.71 501.46002 C 551.5 497.06 553.29 491.79 554.38 487.62997 C 555.47 483.47 555.87 480.39996 555.87 480.39996 L 555.87 411.58002 C 555.87 411.58002 555.83 408.25998 554.91 404.3 C 553.99 400.34 552.2 395.73 548.7 393.15002 C 545.65 390.9 541.32 391.28 537.76 392.22003 C 534.2 393.16 531.4 394.66 531.4 394.66 L 498.12 414.22 L 464.84 433.78 C 464.84 433.78 462.88 434.91998 460.4 437.27 C 457.92 439.62 454.91 443.2 452.81003 448.07 C 450.93 452.41 449.91 458.05997 449.37 462.61 C 448.83 467.16003 448.75003 470.64 448.75003 470.64 L 448.75003 565.42 L 448.75003 565.42 Z"/>
                </g>
            </g>
        </g>
    </g>
</svg>
