<svg width="267.65" height="267.65" xmlns="http://www.w3.org/2000/svg">
    <path fill="#161e53" stroke="none" d="M 267.66 133.83 C 267.66 207.74226 207.74226 267.66 133.83 267.66 C 59.917732 267.66 0 207.74226 0 133.83 C 0 59.917732 59.917732 0 133.83 0 C 207.74226 0 267.66 59.917732 267.66 133.83 Z"/>
    <path fill="#ffbb51" stroke="none" d="M 179.67 88.16 L 189.05 63.2 L 173.64001 63.2 L 167.45 79.61 C 164.06 77.83 160.5 76.4 156.82 75.34 L 161.4 63.190002 L 145.99 63.190002 L 142.25 73.11 C 141.76 73.11 141.27 73.08 140.77 73.08 L 122.87 73.08 C 120.49 72.78 118.15 72.25 115.88 71.48 C 115.08999 71.22 114.31999 70.93 113.560005 70.62 L 108.48 84.1 L 108.48 84.1 L 69.11 188.57 L 98.759995 188.57 L 92.77 204.46 L 108.18 204.46 L 114.18 188.57 L 126.42 188.57 L 120.43 204.46 L 135.84 204.46 L 141.83 188.56 C 173.7 188.02 199.09 161.74 198.55 129.87 C 198.28001 113.96 191.44998 98.87 179.68 88.16 Z M 89.94 174.15 L 122.6 87.52 C 124.07 87.66 125.54 87.72 127.01001 87.72 C 128.48 87.72 130.02 87.649994 131.49 87.51 L 136.85 87.51 L 104.19 174.15 L 89.94 174.15 Z M 119.590004 174.15 L 151.75 88.9 C 155.46 89.87999 159.02 91.340004 162.35 93.25 L 131.83 174.14 L 119.590004 174.14 Z M 171.43 161.45 C 164.94 167.98 156.53 172.26001 147.43 173.64001 L 174.04001 103.07 C 188.43 120.27 187.29 145.6 171.43 161.45 L 171.43 161.45 Z"/>
</svg>
