<svg width="256" height="256" xmlns="http://www.w3.org/2000/svg">
    <defs>
        <radialGradient id="paint0_radial_4803_6433" cx="0" cy="0" r="1" fx="0" fy="0" gradientUnits="userSpaceOnUse" gradientTransform="matrix(26.7182 0 0 26.7355 1.95113 -0.147232)">
            <stop offset="0.475" stop-color="#4388dd"/>
            <stop offset="0.9988" stop-color="#ff4581"/>
        </radialGradient>
        <radialGradient id="paint1_radial_4803_6433" cx="0" cy="0" r="1" fx="0" fy="0" gradientUnits="userSpaceOnUse" gradientTransform="matrix(26.7182 0 0 26.7355 1.9516 -0.147187)">
            <stop offset="0.475" stop-color="#4388dd"/>
            <stop offset="0.9988" stop-color="#ff4581"/>
        </radialGradient>
    </defs>
    <g transform="matrix(10.666667 0 0 10.666667 0 0)">
        <path fill="url(#paint0_radial_4803_6433)" stroke="none" d="M 15.2407 14.7061 C 15.1232 14.941399 14.9468 15.1179 14.7705 15.176701 C 14.6529 15.2355 14.5353 15.2355 14.4765 15.2355 L 5.12988 15.2355 C 6.42313 17.9413 9.30354 19.7648 12.5367 19.5295 C 15.8873 19.2942 18.7678 16.7649 19.4144 13.412 C 19.5907 12.353199 19.5907 11.3533 19.4144 10.4121 L 11.7137 10.4121 L 15.0056 13.7061 C 15.0644 13.765001 15.1232 13.8826 15.181899 14.000199 C 15.2407 14.1179 15.2407 14.2355 15.2407 14.2943 C 15.2995 14.5296 15.2407 14.6473 15.2407 14.7061 Z"/>
        <path fill="url(#paint1_radial_4803_6433)" stroke="none" d="M 21.2372 10.471 C 21.2959 10.9416 21.3547 11.4709 21.3547 12.0003 C 21.3547 17.1767 17.1811 21.353 12.0081 21.353 C 7.7756405 21.353 4.18982 18.5296 3.01414 14.6473 C 3.01414 14.5885 3.01414 14.5885 2.9553502 14.5297 C 2.48508 12.8827 2.4263 11.0592 3.01414 9.1769 C 4.2486 5.58877 7.42293 3.0006 11.1851 2.64767 C 14.124299 2.41239 16.7696 3.53 18.6507 5.4123 C 19.1797 6.00052 18.827 6.94167 18.004 6.94167 C 17.7689 6.94167 17.5338 6.82402 17.3574 6.64756 C 15.8878 5.11819 13.7128 4.23586 11.302699 4.41233 C 8.01077 4.70644 5.18914 7.23578 4.54252 10.5298 C 4.36617 11.5886 4.36617 12.5886 4.54252 13.5297 L 12.2432 13.5297 L 8.95131 10.2357 C 8.89253 10.1769 8.83375 10.0592 8.77496 9.94158 C 8.71618 9.82394 8.71618 9.70629 8.71618 9.64747 C 8.71618 9.52983 8.71618 9.41218 8.77496 9.35336 C 8.89253 9.11808 9.0101 8.94161 9.24523 8.88279 C 9.3628 8.82397 9.48037 8.82397 9.53915 8.82397 L 18.827 8.82397 L 20.7669 8.82397 L 23.5297 8.82397 C 22.118898 3.64764 17.4162 -0.0581314 11.8905 0.00069042 C 5.60063 0.0595123 0.36886 5.11819 0.0161568 11.3533 C -0.336547 18.2943 5.13036 24 12.0081 24 C 18.6507 24 24 18.6472 24 12.0003 C 24 11.4709 23.9412 11.0004 23.8824 10.471 L 21.2372 10.471 Z"/>
    </g>
</svg>
