<svg width="32" height="32" xmlns="http://www.w3.org/2000/svg">
    <defs>
        <linearGradient id="paint0_linear_475_580" x1="16" y1="0.10688" x2="16" y2="32.0352" gradientUnits="userSpaceOnUse">
            <stop offset="0.24" stop-color="#57fcff"/>
            <stop offset="0.99" stop-color="#5aa7ff"/>
        </linearGradient>
        <clipPath id="clip0_475_580">
            <path fill="#000000" stroke="none" d="M 0 0 L 32 0 L 32 32 L 0 32 Z"/>
        </clipPath>
        <mask id="mask0_475_580" maskUnits="userSpaceOnUse" x="0" y="0" width="32" height="32">
            <path fill="#ffffff" stroke="none" d="M 32 0 L 0 0 L 0 32 L 32 32 L 32 0 Z"/>
        </mask>
    </defs>
    <g clip-path="url(#clip0_475_580)">
        <g mask="url(#mask0_475_580)">
            <path fill="url(#paint0_linear_475_580)" stroke="none" d="M 32 0 L 0 0 L 0 32 L 32 32 L 32 0 Z"/>
            <path fill="#ffffff" stroke="none" d="M 13.479 20.6471 L 13.4668 11.2487 C 13.4668 11.023399 13.5558 10.8071 13.7151 10.6477 L 17.0732 7.29028 C 17.6076 6.75588 18.5209 7.1341195 18.5215 7.88932 L 18.5318 24.1095 C 18.5318 24.8717 17.605 25.248 17.0745 24.7002 L 13.7177 21.2365 C 13.5647 21.0784 13.479 20.8672 13.4783 20.6471 L 13.479 20.6471 Z"/>
            <path fill="#ffffff" stroke="none" d="M 19.6737 19.0433 L 19.6699 16.0379 L 19.666 12.888401 C 19.666 12.740599 19.7243 12.5992 19.8286 12.4948 L 22.0276 10.2958 C 22.377699 9.94571 22.9755 10.1934 22.976099 10.6881 L 22.9831 21.3102 C 22.9831 21.8094 22.3764 22.0558 22.0289 21.697401 L 19.8311 19.4292 C 19.7307 19.3255 19.675 19.1873 19.6743 19.0433 L 19.6737 19.0433 Z"/>
            <path fill="#ffffff" stroke="none" d="M 12.326999 19.0433 L 12.3309 16.0379 L 12.3347 12.888401 C 12.3347 12.740599 12.276499 12.5992 12.1721 12.4948 L 9.9731 10.2958 C 9.62302 9.94571 9.02526 10.1934 9.02462 10.6881 L 9.01758 21.3102 C 9.01758 21.8094 9.6243 22.0558 9.97182 21.697401 L 12.1696 19.4292 C 12.2701 19.3255 12.3257 19.1873 12.3264 19.0433 L 12.326999 19.0433 Z"/>
        </g>
    </g>
</svg>
