<svg width="145" height="145" xmlns="http://www.w3.org/2000/svg">
    <g id="Group_4222" transform="matrix(1 0 0 1 -3653 9712)">
        <g transform="matrix(1 0 0 1 3653 -9712)">
            <path id="Ellipse_258" fill="#4efa74" stroke="none" d="M 145 72.5 C 145 112.54064 112.54064 145 72.5 145 C 32.459354 145 0 112.54064 0 72.5 C -0 32.459354 32.459354 0 72.5 0 C 112.54064 0 145 32.459354 145 72.5 Z"/>
        </g>
        <g id="Logo" transform="matrix(1 0 0 1 3690.21 -9686.409)">
            <g transform="matrix(1 0 0 1 -13 0)">
                <path id="logo-2" fill="#242424" stroke="none" d="M 13 61.679 L 22.468 61.679 L 22.468 86 L 13 86 Z M 74.111 46.04 L 83.579 46.04 L 83.579 70.364 L 74.111 70.364 Z M 28.493 38.225 L 37.961 38.225 L 37.961 93.818 L 28.493 93.818 Z M 43.986 39.964 L 53.454 39.964 L 53.454 82.526 L 43.986 82.526 Z M 58.618 0 L 68.086 0 L 68.086 70.364 L 58.618 70.364 Z"/>
            </g>
        </g>
    </g>
</svg>
