<svg width="128" height="128" xmlns="http://www.w3.org/2000/svg">
    <defs>
        <clipPath id="b">
            <path fill="#000000" stroke="none" d="M 0 0 L 128 0 L 128 128 L 0 128 Z"/>
        </clipPath>
    </defs>
    <g id="a" clip-path="url(#b)">
        <g transform="matrix(1 0 0 1 0 -0.007)">
            <g transform="matrix(1 0 0 1 23.721 0.614)">
                <path fill="#745ddf" stroke="none" d="M 101.714005 81.709 C 94.951904 105.02307 75.564804 122.493126 51.675 126.8 L 51.675 108.588005 C 55.993935 106.94289 59.88057 104.33401 63.039 100.96 C 64.7937 99.077675 66.29353 96.97301 67.5 94.700005 C 69.79667 90.36987 70.985374 85.53843 70.96 80.637 C 70.96 64.537 59.337 58.1 48.44 53.325996 L 42.922 50.886997 C 37.022 48.241005 32.509 45.887 32.509 41.858 C 32.509 36.289 37.369 33.296 41.953 33.296 C 46.831 33.296 49.598 35.096 52.521 40.163 L 54.787 44.089 L 69.368 34.732 L 67.468 31.204 C 64.12415 24.828074 58.47739 19.96511 51.675995 17.604 L 51.675995 0.9 C 53.094 1.142 54.494995 1.453 55.913998 1.817 C 56.052 1.852 56.208 1.886 56.363995 1.917 C 56.522144 1.9470813 56.678143 1.9875013 56.831 2.038 C 56.878353 2.0434668 56.924763 2.0552375 56.969 2.073 C 57.350002 2.173 57.747 2.263 58.144997 2.384 C 74.44221 7.1248507 88.18844 18.145937 96.35932 33.022472 C 104.53022 47.89901 106.45637 65.41223 101.714005 81.709 Z"/>
            </g>
            <g transform="matrix(1 0 0 1 0 0.162)">
                <path fill="#2eb6ea" stroke="none" d="M 76.779 81.972 C 76.779 89.306 70.154 93.837 64.031 93.837 C 56.680004 93.837 52.477 87.766 51.664 82.127 L 50.972 77.232 L 33.33 82.2 L 34.13 86.144 C 36.655 98.58 45.148003 107.523 56.685 110.22101 L 56.685 127.846 C 53.55523 127.47961 50.456577 126.884 47.414 126.064 C 46.982002 125.964005 46.566 125.839005 46.134 125.718 C 18.819368 117.764435 0.02687846 92.74404 0 64.295 L 0 2.805 C 0.0016531 1.4111662 1.1311663 0.2816531 2.525 0.28 L 56.681 0.28 L 56.681 17.888 C 50.34378 19.72293 44.944042 23.903976 41.581 29.579998 C 39.424152 33.35492 38.30234 37.63244 38.329 41.98 L 38.329 42.326 C 38.5 56.683994 49.053 62.686005 59.016 67.2 L 64 69.362 L 64.415 69.552 C 72.317 73.168 76.779 75.537 76.779 81.972 Z"/>
            </g>
            <g transform="matrix(1 0 0 1 33.33 0.392)">
                <g transform="matrix(1 0 0 1 -19.27 -0.392)">
                    <path fill="#ffffff" stroke="none" d="M 80.621 81.251 C 80.646515 86.15201 79.45816 90.983086 77.162 95.31301 C 75.95499 97.58647 74.454475 99.69148 72.699 101.574 C 69.54037 104.94729 65.65374 107.55546 61.335 109.2 L 61.342995 127.5 L 56.227997 127.952 C 56.227997 127.952 45.259 128.281 42.647 127.952 L 42.62 110.379 C 31.084 107.68 22.591 98.738 20.066 86.3 L 19.266 82.356 L 36.908 77.392 L 37.6 82.287 C 38.417 87.928 42.62 94 49.971 94 C 56.094 94 62.719 89.46801 62.719 82.135 C 62.719 75.701 58.256 73.335 50.352 69.716 L 49.937 69.526 L 44.956 67.364 C 34.993 62.848 24.442 56.846004 24.269 42.49 L 24.269 42.144 C 24.24234 37.796436 25.364153 33.51892 27.521002 29.744 C 30.88342 24.067421 36.28282 19.885647 42.62 18.05 L 42.62 0.424 C 54.155994 0.326 55.039 0.394 61.335 1.5 L 61.335 18.223 C 68.13639 20.58411 73.78315 25.447075 77.127 31.823 L 79.027 35.351 L 64.449 44.7 L 62.183 40.774 C 59.259995 35.706 56.492 33.907 51.615 33.907 C 47.031 33.907 42.171 36.899 42.171 42.469 C 42.171 46.499 46.685 48.851 52.583996 51.498 L 58.1 53.94 C 69 58.714 80.621 65.148 80.621 81.251 Z"/>
                </g>
            </g>
        </g>
    </g>
</svg>
