<svg width="256" height="256" xmlns="http://www.w3.org/2000/svg">
    <defs>
        <clipPath id="clip0_32_2">
            <path fill="#000000" stroke="none" d="M 0 0 L 256 0 L 256 256 L 0 256 Z"/>
        </clipPath>
    </defs>
    <g clip-path="url(#clip0_32_2)">
        <path fill="#24e5df" stroke="none" d="M 256 128 C 256 57.3076 198.692 0 128 0 C 57.3076 0 0 57.3076 0 128 C 0 198.692 57.3076 256 128 256 C 198.692 256 256 198.692 256 128 Z"/>
        <path fill="#133d38" stroke="none" d="M 127.919 20.48 C 68.5855 20.48 20.48 68.7979 20.48 128.393 C 20.48 187.987 68.5855 236.302 127.919 236.302 C 187.25401 236.302 235.354 187.988 235.354 128.393 C 235.354 68.7968 187.24998 20.48 127.919 20.48 Z M 164.275 164.919 C 127.768005 201.592 81.8885 214.967 61.8035 194.797 C 41.7194 174.62901 55.0424 128.544 91.5584 91.8715 C 128.068 55.1986 173.94398 41.819 194.033 61.985596 C 214.116 82.1524 200.794 128.238 164.275 164.919 Z"/>
    </g>
</svg>
