<svg width="200" height="200" xmlns="http://www.w3.org/2000/svg">
    <defs>
        <linearGradient id="paint0_linear_13_7398" x1="0.329313" y1="22.8238" x2="245.23" y2="141.405" gradientUnits="userSpaceOnUse">
            <stop offset="0.053951" stop-color="#6d5cff"/>
            <stop offset="0.559189" stop-color="#e86eff"/>
            <stop offset="0.923794" stop-color="#ffd66e"/>
        </linearGradient>
    </defs>
    <path fill="url(#paint0_linear_13_7398)" stroke="none" d="M 200 100 C 200 155.22847 155.22847 200 100 200 C 44.771526 200 0 155.22847 0 100 C -0 44.771526 44.771526 0 100 0 C 155.22847 0 200 44.771526 200 100 Z"/>
    <path fill="#ffffff" fill-rule="evenodd" stroke="none" d="M 93.0704 39.5973 L 106.929 39.5973 L 108.411 39.5973 L 108.411 39.6291 C 126.449 40.4046 140.835 55.2738 140.835 73.503 C 140.835 81.9702 137.731 89.7124 132.599 95.654106 C 142.849 101.703995 149.726 112.862 149.726 125.62499 C 149.726 144.803 134.202 160.356 115.035 160.403 L 115.035 160.403 L 63.087 160.403 L 63.087 160.054 L 63.0869 160.054 L 63.0869 57.029594 L 63.0869 39.5973 L 93.0704 39.5973 Z M 92.5478 61.8685 C 92.5478 59.9154 93.858894 58.268402 95.6489 57.7598 C 97.1134 57.2839 98.7862 57.6277 99.9497 58.7911 L 111.46001 70.3012 C 111.55601 70.3818 111.649994 70.4674 111.74 70.5579 C 113.392 72.2094 113.392 74.8869 111.74 76.5383 L 100.019 88.26 C 99.1665 89.11209 98.0411 89.52459 96.9245 89.49731 C 96.8894 89.49821 96.85411 89.4986 96.818695 89.4986 C 94.45991 89.4986 92.5478 87.5865 92.5478 85.2277 L 92.5478 61.8685 Z M 112.94401 137.26 C 112.94401 139.213 111.632 140.86 109.842 141.369 C 108.378 141.845 106.705 141.501 105.542 140.337 L 94.033 128.829 C 93.9361 128.748 93.841896 128.662 93.7508 128.571 C 92.0993 126.91899 92.0993 124.24199 93.7508 122.59 L 105.472 110.868 C 106.32499 110.016 107.45 109.604 108.56601 109.631 C 108.588005 109.631 108.609 109.62999 108.631 109.62999 C 108.645 109.62999 108.659 109.62999 108.673 109.62999 C 111.031 109.62999 112.94401 111.54199 112.94401 113.90101 L 112.94401 137.26 Z"/>
</svg>
