<svg width="256" height="256" xmlns="http://www.w3.org/2000/svg">
    <path fill="#15062d" stroke="none" d="M 256 128 C 256 198.69243 198.69243 256 128 256 C 57.307552 256 0 198.69243 0 128 C 0 57.307552 57.307552 0 128 0 C 198.69243 0 256 57.307552 256 128 Z"/>
    <path fill="#eba7da" stroke="none" d="M 171.446 165.186 L 62.8252 103.117 L 84.5493 90.70321 L 193.17 152.772 L 171.446 165.186 Z"/>
    <path fill="#ffffff" stroke="none" d="M 62.8213 177.59702 L 84.5485 190.014 L 84.5485 140.359 L 149.721 103.117 L 149.721 78.2898 L 84.5485 41.0484 L 62.8243 53.4622 L 62.8243 103.117 L 84.5485 90.7036 L 84.5485 65.876 L 127.997 90.7036 L 62.8213 127.945 L 62.8213 177.59702 Z"/>
    <path fill="#ffffff" stroke="none" d="M 193.174 78.2927 L 171.447 65.8759 L 171.447 115.531 L 106.27401 152.773 L 106.27401 177.6 L 171.447 214.842 L 193.171 202.42798 L 193.171 152.773 L 171.447 165.186 L 171.447 190.014 L 127.998 165.186 L 193.174 127.945 L 193.174 78.2927 Z"/>
</svg>
