<svg width="256" height="256" xmlns="http://www.w3.org/2000/svg">
    <path fill="#e9dc2b" stroke="none" d="M 128 256 C 198.692 256 256 198.692 256 128 C 256 57.307995 198.692 0 128 0 C 57.307995 0 0 57.307995 0 128 C 0 198.692 57.307995 256 128 256 Z"/>
    <path fill="#000000" stroke="none" d="M 66.003 49.778004 L 72.32 49.778004 C 74.8097 49.778004 76.828 51.7963 76.828 54.286 C 76.828 56.7757 74.8097 58.794 72.32 58.794 L 66.17 58.794 C 64.018 58.794 62.671 58.797997 61.66 58.88 C 60.7 58.957 60.441998 59.085 60.39 59.11 C 59.839 59.392 59.393005 59.84 59.113003 60.388 C 59.086 60.44 58.959003 60.697998 58.880997 61.658 C 58.799 62.671 58.795 64.015 58.795 66.168 L 58.795 72.318 C 58.743336 74.7707 56.740246 76.73204 54.286995 76.73204 C 51.833755 76.73204 49.830666 74.7707 49.779 72.318 L 49.779 66.003 C 49.779 64.065 49.779 62.349 49.894 60.924 C 50.019 59.406 50.298 57.83 51.081 56.294003 C 52.22527 54.048176 54.051174 52.22227 56.297 51.078 C 57.833 50.298 59.407 50.018 60.925 49.893 C 62.346996 49.778004 64.067 49.778004 66.005 49.778004 L 66.003 49.778004 Z M 141.522 129.129 C 141.48245 130.9258 140.38126 132.5281 138.718 133.209 C 137.34317 133.76979 135.7804 133.6178 134.5394 132.80258 C 133.2984 131.98738 132.5383 130.61346 132.507 129.129 C 132.507 124.61901 137.014 121.239 137.014 121.239 C 137.014 121.239 141.522 124.61901 141.522 129.129 Z M 155.049 117.856 C 155.06894 119.064926 154.60316 120.23133 153.756 121.094 C 152.90775 121.95534 151.74939 122.44034 150.5405 122.44034 C 149.3316 122.44034 148.17325 121.95534 147.325 121.094 C 146.47641 120.232185 146.01009 119.06529 146.031 117.856 C 146.031 113.349 150.541 109.967 150.541 109.967 C 150.541 109.967 155.049 113.349 155.049 117.856 Z"/>
    <path fill="#000000" fill-rule="evenodd" stroke="none" d="M 142.798 56.333 C 139.488 51.453 132.458 51.011997 128.563 55.443 L 113.946 72.078 L 88.186 74.574 C 83.89491 74.990326 80.498856 78.38596 80.082 82.677 L 76.399 120.534996 C 74.96525 121.3993 73.55921 122.308754 72.183 123.262 C 68.645 125.70899 64.073 129.285 60.338 133.645 C 59.099567 135.02159 58.83201 137.01675 59.664 138.671 C 60.348404 140.03624 61.67722 140.96237 63.19496 141.13196 C 64.7127 141.30154 66.21315 140.69151 67.182 139.511 C 70.209 135.978 74.088 132.906 77.311 130.677 C 78.756 129.677 80.239 128.73 81.755 127.84 L 79.772 158.727 C 79.362 165.077 87.154 168.423 91.479 163.758 L 96.368996 158.482 L 96.60299 159.169 L 96.759 159.632 C 97.101 160.641 97.385 161.481 97.590996 162.145 L 97.645 162.317 L 97.71 162.482 C 99.524 167.009 101.956 172.188 106.076 176.983 L 100.888 181.406 C 97.00199 184.722 98.056 190.983 102.81099 192.846 L 123.849 201.089 C 126.363716 202.07152 129.22182 201.46594 131.122 199.548 L 191.59799 138.401 C 193.79022 136.18506 194.18304 132.75745 192.54898 130.103 L 185.841 119.201 C 184.81688 117.54065 183.12662 116.4025 181.203 116.077995 C 179.2788 115.75295 177.308 116.27582 175.798 117.512 L 169.13 106.521 L 169.87 106.50299 C 171.118 106.476 172.36598 106.472 173.614 106.49 C 176.804 106.528 181.216 106.704 186.10402 107.24801 C 188.51433 107.411385 190.62566 105.64728 190.89336 103.24629 C 191.16106 100.84532 189.49011 98.659515 187.10301 98.288 C 181.65398 97.69114 176.17436 97.417984 170.693 97.47 L 142.798 56.334 L 142.798 56.333 Z M 168.849 123.44 L 158.945 107.118 C 154.195 107.528 147.904 108.225006 140.627 109.417 C 137.38011 109.948074 134.14413 110.54387 130.921 111.204 L 130.807 111.966 C 130.63562 113.19847 130.42819 114.425674 130.185 115.646 C 129.663 118.189 128.781 121.188 126.852 123.83001 C 124.829 126.595 121.883 128.673 117.807 129.68 C 107.863 132.135 99.091 127.831 94.573 121.964005 C 93.40165 122.43901 92.234924 122.92538 91.07299 123.423 L 89.17299 152.981 L 92.087 149.84 C 94.04 147.731 96.772 147.333 98.927 147.895 C 101.05999 148.452 103.158 150.069 103.954 152.656 C 104.161 153.33 104.38 154.011 104.60701 154.688 C 108.639 153.138 113.46399 151.986 118.556 153.006 C 120.97805 153.51187 122.53967 155.87543 122.05501 158.3018 C 121.57033 160.7282 119.22053 162.31042 116.79001 161.847 C 113.935005 161.276 110.979004 161.898 107.817 163.12 C 109.153 165.907 110.771 168.622 112.933 171.132 L 147.601 141.561 C 146.60205 140.70543 146.02795 139.45526 146.03 138.14 C 146.03 133.633 150.538 130.253 150.538 130.253 C 150.538 130.253 153.432 132.421 154.583 135.605 L 168.849 123.44 Z M 111.396 116.092 C 108.846 116.856 106.311 117.669 103.793 118.53199 C 106.585075 120.68623 110.103745 121.6738 113.609 121.287 C 112.14732 119.962135 111.338715 118.06393 111.396 116.092 Z"/>
    <path fill="#000000" stroke="none" d="M 60.924 206.107 C 62.346 206.22202 64.065 206.22202 66.004 206.22202 L 72.32 206.22202 C 74.808784 206.2198 76.8258 204.20279 76.828 201.71402 C 76.827446 199.22421 74.80979 197.20567 72.32 197.204 L 66.17 197.204 C 64.018 197.204 62.671 197.203 61.66 197.12 C 60.7 197.042 60.441998 196.915 60.39 196.888 C 59.840405 196.608 59.39343 196.16138 59.113003 195.612 C 59.086 195.55798 58.959003 195.30098 58.880997 194.341 C 58.799 193.32999 58.795 191.983 58.795 189.83 L 58.795 183.681 C 58.797375 181.85718 57.698673 180.21228 56.013 179.516 C 54.908333 179.0576 53.666668 179.0576 52.562 179.516 C 51.45625 179.97206 50.57804 180.85027 50.121998 181.956 C 49.895374 182.50285 49.778812 183.08904 49.779 183.681 L 49.779 189.997 C 49.779 191.93298 49.779 193.651 49.894 195.07602 C 50.019 196.594 50.298 198.168 51.081 199.70401 C 52.22403 201.95071 54.050274 203.77698 56.297 204.92 C 57.833 205.702 59.407 205.981 60.924 206.107 Z M 189.997 49.776997 L 183.681 49.776997 C 182.48491 49.77594 181.33752 50.25068 180.49184 51.09654 C 179.64616 51.9424 179.17168 53.089905 179.173 54.286 C 179.17215 55.4818 179.64706 56.628815 180.49301 57.473995 C 181.33804 58.320118 182.48515 58.795074 183.681 58.794 L 189.832 58.794 C 191.983 58.794 193.32999 58.797997 194.341 58.88 C 195.30098 58.957 195.56 59.085 195.612 59.11 C 196.16101 59.392 196.608 59.84 196.888 60.388 C 196.915 60.44 197.042 60.697998 197.12 61.658 C 197.203 62.671 197.206 64.015 197.206 66.168 L 197.206 72.318 C 197.20685 74.14121 198.30536 75.78458 199.98975 76.482445 C 201.6741 77.180305 203.61296 76.79538 204.903 75.507 C 205.7498 74.66166 206.22453 73.51353 206.22202 72.317 L 206.22202 66.003 C 206.22202 64.065 206.22202 62.349 206.107 60.924 C 205.983 59.406 205.704 57.83 204.92 56.294003 C 203.77686 54.047356 201.95064 52.22114 199.70401 51.078 C 198.168 50.298 196.594 50.018 195.07602 49.893 C 193.651 49.778004 191.935 49.778004 189.997 49.778004 Z M 195.07602 206.107 C 193.651 206.22202 191.935 206.22202 189.997 206.22202 L 183.681 206.22202 C 181.85735 206.22285 180.21306 205.12416 179.516 203.439 C 178.81705 201.75404 179.2032 199.81393 180.494 198.525 C 181.33946 197.67998 182.48564 197.2049 183.681 197.204 L 189.832 197.204 C 191.983 197.204 193.32999 197.203 194.341 197.12 C 195.30098 197.042 195.56 196.915 195.612 196.888 C 196.16101 196.608 196.608 196.16101 196.888 195.612 C 196.915 195.55798 197.042 195.30098 197.12 194.341 C 197.203 193.32999 197.206 191.983 197.206 189.83 L 197.206 183.681 C 197.23817 182.5074 197.72765 181.3928 198.57 180.57501 C 200.31897 178.86926 203.10902 178.86926 204.858 180.57501 C 205.69972 181.39325 206.1891 182.50757 206.22202 183.681 L 206.22202 189.997 C 206.22202 191.93298 206.22202 193.651 206.107 195.07602 C 205.983 196.594 205.704 198.168 204.92 199.70401 C 203.77827 201.95168 201.95168 203.77827 199.70401 204.92 C 198.168 205.702 196.594 205.981 195.07602 206.107 Z"/>
</svg>
