<svg width="1183" height="1183" xmlns="http://www.w3.org/2000/svg">
    <defs>
        <linearGradient id="paint0_linear_47_20" x1="-0.000000488185" y1="591.497" x2="1183" y2="591.497" gradientUnits="userSpaceOnUse">
            <stop offset="0.0520833" stop-color="#60ddbf"/>
            <stop offset="1" stop-color="#56e4c2"/>
        </linearGradient>
        <filter id="filter0_f_47_20" x="-341.802" y="-71.7202" width="1799.39" height="1589.62" filterUnits="userSpaceOnUse">
            <feFlood color-interpolation-filters="sRGB" flood-color="#000000" flood-opacity="0" result="BackgroundImageFix"/>
            <feBlend color-interpolation-filters="sRGB" in="SourceGraphic" in2="BackgroundImageFix" mode="normal" result="shape"/>
            <feGaussianBlur color-interpolation-filters="sRGB" in="shape" stdDeviation="200 200" result="effect1_foregroundBlur_47_20"/>
        </filter>
        <mask id="mask0_47_20" mask-type="alpha" maskUnits="userSpaceOnUse" x="0" y="0" width="1183" height="1183">
            <path fill="#1a212b" stroke="none" d="M 1183 591.5 C 1183 748.37555 1120.6814 898.8258 1009.7537 1009.7537 C 898.8258 1120.6814 748.37555 1183 591.5 1183 C 434.62448 1183 284.1741 1120.6814 173.24634 1009.7537 C 62.318573 898.8258 0 748.37555 0 591.5 C 0 434.62448 62.318573 284.1741 173.24634 173.24634 C 284.1741 62.318573 434.62448 0 591.5 0 C 748.37555 0 898.8258 62.318573 1009.7537 173.24634 C 1120.6814 284.1741 1183 434.62448 1183 591.5 Z"/>
        </mask>
    </defs>
    <g mask="url(#mask0_47_20)">
        <path fill="#1a212b" stroke="none" d="M 1183 591.5 C 1183 748.37555 1120.6814 898.8258 1009.7537 1009.7537 C 898.8258 1120.6814 748.37555 1183 591.5 1183 C 434.62448 1183 284.1741 1120.6814 173.24634 1009.7537 C 62.318573 898.8258 0 748.37555 0 591.5 C 0 434.62448 62.318573 284.1741 173.24634 173.24634 C 284.1741 62.318573 434.62448 0 591.5 0 C 748.37555 0 898.8258 62.318573 1009.7537 173.24634 C 1120.6814 284.1741 1183 434.62448 1183 591.5 Z"/>
        <g opacity="0.09">
            <g filter="url(#filter0_f_47_20)">
                <path fill="#3dffff" fill-rule="evenodd" stroke="none" d="M 877.619 362.60498 C 658.39 283.081 288.571 350.225 151.724 476.94 C 81.9148 541.58 54.575497 615.405 58.5785 692.533 L 452.445 1117.9 L 1057.59 557.558 C 1057.54 557.305 1057.49 557.053 1057.43 556.8 L 877.619 362.60498 Z"/>
            </g>
        </g>
        <path fill="#60ddbf" fill-rule="evenodd" stroke="none" d="M 279 598.969 C 286.917 611.534 301.935 623.92 342.858 623.861 L 740.966 623.861 C 756.393 623.861 773.798 635.418 779.9099 649.76 L 845.922 806.042 C 851.976 820.384 844.35004 832 828.924 832 L 420.92004 832 C 396.64502 830.459 374.11804 824.05804 363.698 799.40405 L 279 598.969 Z M 621.342 275.678 L 688.11 433.916 C 694.164 448.31802 690.381 469.06 679.612 480.321 L 582.806 583.501 L 362.708 583.501 C 327.839 583.916 307.174 570.463 336.804 537.689 L 590.955 270.048 C 601.666 258.788 615.288 261.277 621.342 275.678 Z"/>
        <g opacity="0.94">
            <path fill="none" stroke="url(#paint0_linear_47_20)" stroke-width="120" d="M 1123 591.497 C 1123 732.4596 1067.0028 867.64874 967.3273 967.3243 C 867.6517 1066.9999 732.4626 1122.9971 591.5 1122.9971 C 450.53745 1122.9971 315.3483 1066.9999 215.67273 967.3243 C 115.99715 867.64874 59.999985 732.4596 60 591.497 C 60 450.53445 115.99716 315.34534 215.67274 215.66975 C 315.34833 115.99417 450.53745 59.99701 591.5 59.99701 C 732.4626 59.99701 867.6517 115.99417 967.3273 215.66975 C 1067.0028 315.34534 1123 450.53445 1123 591.497 Z"/>
        </g>
    </g>
</svg>
