<svg width="134.43" height="134.43" xmlns="http://www.w3.org/2000/svg">
    <g id="Layer_2">
        <g id="Layer_1-2">
            <path fill="#ffffff" stroke="none" d="M 134.42 67.21 C 134.42 104.329056 104.329056 134.42 67.21 134.42 C 30.090942 134.42 0 104.329056 0 67.21 C 0 30.090942 30.090942 0 67.21 0 C 104.329056 0 134.42 30.090942 134.42 67.21 Z"/>
            <path fill="#000000" fill-rule="evenodd" stroke="none" d="M 109.47 56.24 C 106.74831 56.583523 104.42379 58.36896 103.39 60.91 C 102.87111 62.207882 102.735756 63.62744 103 65 L 93.1 67.77 L 93.59 69.48 L 103.52 66.7 C 105.07118 70.25135 109.06454 72.045425 112.749794 70.846634 C 116.43506 69.647835 118.60864 65.84769 117.773575 62.06339 C 116.938515 58.27909 113.36753 55.74657 109.52 56.209995 Z"/>
            <path fill="#000000" fill-rule="evenodd" stroke="none" d="M 109.12 76.27 C 106.16802 75.924324 103.354164 77.61264 102.27 80.38 L 94 79.08 L 93.73 80.84 L 101.84 82.12 C 101.66708 83.9357 102.32946 85.731476 103.64 87 C 104.76134 88.31523 106.365616 89.12277 108.09 89.240005 C 111.67985 89.51614 114.81386 86.82984 115.08999 83.24 C 115.36614 79.65015 112.67984 76.51614 109.09 76.24 Z"/>
            <path fill="#000000" fill-rule="evenodd" stroke="none" d="M 100.09999 92.4 C 98.06604 92.86493 96.47488 94.44836 96 96.48 C 95.714676 97.65474 95.819984 98.89047 96.3 100 L 91.52 103.90001 C 90.30925 102.260704 88.39787 101.28649 86.36 101.27 L 84 92.38 L 82.28 92.84 L 84.59 101.53 C 82.20078 102.168625 80.37976 104.10589 79.89 106.53 L 73.73 106.29 C 73.50786 101.58317 70.44872 97.483215 66 95.93 L 69 90.42 L 67.42 89.58 L 64.26 95.47 C 62.15832 95.08154 59.98933 95.30365 58.01 96.11 C 52.76224 98.182724 49.787994 103.75129 50.983513 109.26544 C 52.179028 114.779594 57.19242 118.61638 62.827396 118.32963 C 68.46237 118.0429 73.0604 113.717026 73.69 108.11 L 79.81 108.350006 C 80.03077 110.87863 81.69896 113.049286 84.08558 113.91343 C 86.4722 114.77756 89.1434 114.17808 90.93186 112.376945 C 92.72033 110.57582 93.30095 107.90047 92.41999 105.52 L 97.30999 101.52 C 99.13034 103.48714 102.10068 103.86245 104.353096 102.40991 C 106.605515 100.95738 107.48908 98.09676 106.44815 95.627 C 105.40722 93.157234 102.74261 91.79207 100.13 92.39 Z"/>
            <path fill="#000000" fill-rule="evenodd" stroke="none" d="M 48.57 87.72 C 49.879128 88.28221 51.335197 88.405014 52.72 88.07 C 55.440372 87.40137 57.427975 85.067406 57.65479 82.27526 C 57.88161 79.483116 56.296787 76.85895 53.72 75.76 L 54.38 67.18 C 54.63 67.18 54.89 67.18 55.15 67.18 C 57.76287 67.210815 60.244717 66.03812 61.88 64 L 68.32 68 L 69.26 66.48 L 62.83 62.48 C 63.409145 61.31479 63.710365 60.031208 63.71 58.73 C 63.703873 54.652298 60.812565 51.149204 56.809998 50.369995 L 60 41.86 C 63.775505 42.67612 67.71841 41.77101 70.76 39.39 L 75.58 42.39 C 73.75698 44.68713 73.243484 47.760357 74.22068 50.52537 C 75.19788 53.290382 77.52841 55.358486 80.39 56 L 79.39 64.5 L 81.16 64.7 L 82.16 56.209995 L 82.26 56.209995 C 86.24271 56.223145 89.704414 53.478493 90.5998 49.597725 C 91.49518 45.71695 89.58587 41.73309 86 40 L 87.84999 34.66 C 89.771255 35.4381 91.94703 35.26389 93.72 34.19 L 98.11 37.96 C 94.60307 40.754364 93.889534 45.801422 96.484375 49.45844 C 99.079216 53.11546 104.078735 54.108807 107.87451 51.721523 C 111.670296 49.33424 112.940346 44.397766 110.76804 40.475002 C 108.595726 36.55224 103.73759 35.009384 99.7 36.96 L 95.1 33 C 96.29126 31.710476 96.90832 29.992796 96.81 28.24 C 96.65558 25.187998 94.40213 22.65273 91.38932 22.141388 C 88.37648 21.630053 85.41274 23.279848 84.26 26.11 L 75.43 26.27 C 74.05423 20.234335 68.61327 16.006027 62.424797 16.163319 C 56.23632 16.320608 51.01719 20.819857 49.94981 26.91762 C 48.882423 33.01538 52.262913 39.01995 58.03 41.27 L 54.72 50.16 C 50.1956 50.40405 46.649338 54.139027 46.64 58.67 C 46.624825 58.95313 46.624825 59.23687 46.64 59.52 L 39.6 61.87 C 37.1276 58.901672 33.463123 57.18669 29.6 57.190002 L 29.340002 57.190002 L 28.769999 52 C 31.31316 51.313663 33.192078 49.162376 33.53 46.55 L 37.66 46.460003 C 38.055428 49.338696 40.614838 51.417957 43.513493 51.215374 C 46.41215 51.01279 48.657455 48.597733 48.64862 45.69202 C 48.639786 42.78631 46.379833 40.384953 43.479996 40.2 L 43 35.79 C 45.68585 34.816143 47.187744 31.956682 46.465195 29.192606 C 45.74264 26.428534 43.033535 24.669859 40.214695 25.134972 C 37.395855 25.600079 35.39533 28.13584 35.59905 30.985521 C 35.80277 33.8352 38.14366 36.0606 41 36.12 L 41.46 40.38 C 39.594334 40.959156 38.172653 42.47967 37.72 44.38 L 33.45 44.47 C 32.8446 41.11137 29.751644 38.787857 26.357288 39.141758 C 22.96293 39.495655 20.415792 42.407215 20.516232 45.81849 C 20.61667 49.229774 23.3307 51.986423 26.739998 52.14 L 27.3 57.350002 C 21.705738 58.346233 17.406727 62.860355 16.684603 68.49656 C 15.962481 74.13277 18.984596 79.584885 24.147005 81.95928 C 29.309418 84.33369 35.415752 83.08012 39.225166 78.86388 C 43.034576 74.647644 43.66425 68.44585 40.78 63.55 L 47.08 61.470005 C 47.953186 63.942657 49.909195 65.88024 52.39 66.73 L 51.730003 75.23 C 49.950005 75.07 47.99 75.52 45.65 78.6 C 45.057304 79.38528 44.709454 80.32796 44.649998 81.31 C 44.508133 83.39942 45.38323 85.428894 47 86.759995 L 43.29 90.26 C 39.55472 87.24991 34.115005 87.69865 30.923489 91.28015 C 27.731974 94.861664 27.910568 100.316925 31.329506 103.682014 C 34.74844 107.04712 40.205856 107.1391 43.73626 103.89115 C 47.26666 100.64318 47.628998 95.19703 44.56 91.51 Z M 83.81 27.92 C 83.81 28.14 83.81 28.370003 83.81 28.609999 C 83.81174 30.605217 84.72971 32.489105 86.3 33.72 L 84.3 39.38 C 81.66717 38.726883 78.88073 39.36962 76.8 41.11 L 72.09 38.11 C 74.423676 35.69419 75.73171 32.468884 75.74 29.11 C 75.74 28.75 75.74 28.41 75.74 28.06 Z"/>
            <path fill="#ffdd33" fill-rule="evenodd" stroke="none" d="M 79.76 60.2 C 87.06418 60.204075 93.64593 64.60981 96.43361 71.36109 C 99.221306 78.11237 97.665375 85.87826 92.49195 91.03449 C 87.318535 96.19073 79.54751 97.72081 72.80554 94.91067 C 66.063576 92.100525 61.67977 85.50415 61.699997 78.2 C 61.73306 68.249176 69.80912 60.19994 79.76 60.2 Z"/>
        </g>
    </g>
</svg>
