<svg width="200" height="200" xmlns="http://www.w3.org/2000/svg">
    <defs>
        <linearGradient id="paint0_linear_423_2516" x1="100.23" y1="28" x2="100.23" y2="173" gradientUnits="userSpaceOnUse">
            <stop offset="0" stop-color="#ffffff"/>
            <stop offset="1" stop-color="#ffffff"/>
        </linearGradient>
    </defs>
    <path fill="#1b1b1b" stroke="none" d="M 0 0 L 200 0 L 200 200 L 0 200 Z"/>
    <path fill="url(#paint0_linear_423_2516)" stroke="none" d="M 133 112.85 C 146.631 105.37701 161.268 99.90731 176.46 96.61 L 165.21 62 C 160.39 64.1067 155.43 65.9933 150.33 67.66 C 140.601 70.8223 130.597 73.0688 120.45 74.37 C 117.552 59.0907 116.871994 43.473396 118.43 28 L 82 28 C 82.51 33.23 82.78 38.54 82.78 43.9 C 82.8061 54.1278 81.8754 64.3356 80 74.39 C 64.5645 72.4367 49.4921 68.2636 35.25 62 L 24 96.61 C 29.14 97.7367 34.26 99.1267 39.36 100.78 C 49.0943 103.933 58.5094 107.998 67.48 112.920006 C 60.8475 126.978 52.221996 140.005 41.87 151.6 L 71.31 173 C 73.9767 168.46 76.8833 164.02 80.03 159.68 C 86.0403 151.398 92.8132 143.698 100.26 136.68 C 111.583 147.335 121.309 159.568 129.14 173 L 158.59 151.61 C 155.1 147.67 151.76 143.54 148.59 139.2 C 142.58 130.924 137.361 122.102 133 112.85 Z"/>
</svg>
