<svg width="96" height="96" xmlns="http://www.w3.org/2000/svg">
    <defs>
        <linearGradient id="paint0_linear" x1="48.0745" y1="4.34131" x2="48.0745" y2="91.7325" gradientUnits="userSpaceOnUse">
            <stop offset="0" stop-color="#141e27"/>
            <stop offset="1" stop-color="#141e27"/>
        </linearGradient>
        <filter id="filter0_i" x="0.859375" y="0.515744" width="94.4298" height="94.7361" filterUnits="userSpaceOnUse">
            <feFlood color-interpolation-filters="sRGB" flood-color="#000000" flood-opacity="0" result="BackgroundImageFix"/>
            <feBlend color-interpolation-filters="sRGB" in="SourceGraphic" in2="BackgroundImageFix" mode="normal" result="shape"/>
            <feColorMatrix color-interpolation-filters="sRGB" in="SourceAlpha" result="hardAlpha" type="matrix" values="0 0 0 0 0 0 0 0 0 0 0 0 0 0 0 0 0 0 127 0"/>
            <feOffset color-interpolation-filters="sRGB" in="hardAlpha" dx="0" dy="-0.918833" result="result4"/>
            <feGaussianBlur color-interpolation-filters="sRGB" in="result4" stdDeviation="0.153139 0.153139" result="result5"/>
            <feComposite color-interpolation-filters="sRGB" in="result5" in2="hardAlpha" operator="arithmetic" k1="0" k2="-1" k3="1" k4="0" result="result6"/>
            <feColorMatrix color-interpolation-filters="sRGB" in="result6" result="result7" type="matrix" values="0 0 0 0 0.0699479 0 0 0 0 0.9875 0 0 0 0 0.717887 0 0 0 1 0"/>
            <feBlend color-interpolation-filters="sRGB" in="result7" in2="shape" mode="normal" result="effect1_innerShadow"/>
        </filter>
    </defs>
    <g filter="url(#filter0_i)">
        <path fill="#00d395" stroke="none" d="M 48.074295 95.2518 C 74.1504 95.2518 95.2892 74.113 95.2892 48.0369 C 95.2892 21.9609 74.1504 0.82202107 48.074295 0.82202107 C 21.9982 0.82202107 0.85937506 21.9609 0.85937506 48.0369 C 0.85937506 74.113 21.9982 95.2518 48.074295 95.2518 Z"/>
    </g>
    <path fill="url(#paint0_linear)" stroke="none" d="M 48.0745 91.7325 C 72.2069 91.7325 91.7701 72.1693 91.7701 48.0369 C 91.7701 23.9045 72.2069 4.34131 48.0745 4.34131 C 23.9421 4.34131 4.37891 23.9045 4.37891 48.0369 C 4.37891 72.1693 23.9421 91.7325 48.0745 91.7325 Z"/>
    <path fill="#f9fafb" fill-rule="evenodd" stroke="none" d="M 28.154398 63.8801 C 26.7422 63.016403 25.8784 61.4781 25.8784 59.826195 L 25.8784 50.6025 C 25.8784 50.249504 25.973 49.909 26.149498 49.6064 C 26.698 48.6607 27.9149 48.339096 28.8606 48.894005 L 49.678898 61.0304 C 50.8957 61.7429 51.646 63.0416 51.646 64.4539 L 51.646 74.0117 C 51.646 74.4467 51.5262 74.8818 51.2992 75.2537 C 50.612 76.376 49.149303 76.729 48.0271 76.0418 L 28.154398 63.8801 Z M 59.186497 46.3658 C 60.4033 47.0782 61.1536 48.377003 61.1536 49.7892 L 61.1536 69.1824 C 61.1536 69.7561 60.8446 70.2857 60.3466 70.5631 L 55.7882 73.1291 C 55.7315 73.1606 55.6684 73.1858 55.6054 73.2047 L 55.6054 62.4364 C 55.6054 61.043 54.874 59.7506 53.676105 59.0318 L 35.3923 48.0933 L 35.3923 35.9379 C 35.3923 35.5848 35.4869 35.2444 35.6634 34.9417 C 36.2119 33.996 37.4287 33.6745 38.3745 34.2293 L 59.186497 46.3658 Z M 68.2969 32.0416 C 69.52 32.7477 70.2703 34.0591 70.2703 35.4713 L 70.2703 63.7982 C 70.2703 64.3782 69.9487 64.9141 69.438 65.1915 L 65.1193 67.5242 L 65.1193 47.803196 C 65.1193 46.4099 64.3879 45.1238 63.196297 44.405 L 44.509 33.1953 L 44.509 21.6641 C 44.509 21.3111 44.603603 20.9706 44.7738 20.668 C 45.3223 19.7223 46.5391 19.4007 47.4848 19.9493 L 68.2969 32.0416 Z"/>
    <path fill="#070a0e" stroke="none" d="M 48.037098 96 C 74.5263 96 96 74.5263 96 48.037098 C 96 21.5479 74.5263 0.0742188 48.037098 0.0742188 C 21.5479 0.0742188 0.0742188 21.5479 0.0742188 48.037098 C 0.0742188 74.5263 21.5479 96 48.037098 96 Z"/>
    <path fill="#070a0e" stroke="none" d="M 48.0373 92.4251 C 72.552 92.4251 92.4251 72.552 92.4251 48.0373 C 92.4251 23.5225 72.552 3.64941 48.0373 3.64941 C 23.5225 3.64941 3.64941 23.5225 3.64941 48.0373 C 3.64941 72.552 23.5225 92.4251 48.0373 92.4251 Z"/>
    <path fill="#00d395" fill-rule="evenodd" stroke="none" d="M 27.8013 64.1309 C 26.3667 63.253395 25.4893 61.6907 25.4893 60.0127 L 25.4893 50.6429 C 25.4893 50.284203 25.5853 49.9384 25.7647 49.631 C 26.3219 48.6703 27.558 48.3437 28.5187 48.9073 L 49.6668 61.236 C 50.9029 61.9597 51.664997 63.2791 51.664997 64.7137 L 51.664997 74.4229 C 51.664997 74.8649 51.5434 75.3068 51.312805 75.6846 C 50.6147 76.8247 49.1288 77.1833 47.988804 76.4852 L 27.8013 64.1309 Z M 59.325 46.339 C 60.5611 47.062798 61.3233 48.3821 61.3233 49.8167 L 61.3233 69.5171 C 61.3233 70.0999 61.0094 70.6379 60.5035 70.9197 L 55.872894 73.5263 C 55.8153 73.5583 55.751205 73.584 55.6872 73.6032 L 55.6872 62.664204 C 55.6872 61.2488 54.9442 59.9359 53.7273 59.2058 L 35.1539 48.093903 L 35.1539 35.7459 C 35.1539 35.3873 35.2499 35.0414 35.4293 34.734 C 35.9865 33.7733 37.2226 33.4467 38.1833 34.0103 L 59.325 46.339 Z M 68.5797 31.7879 C 69.8222 32.5052 70.5844 33.8374 70.5844 35.272 L 70.5844 64.0476 C 70.5844 64.6368 70.2577 65.1812 69.739 65.463 L 65.3518 67.8327 L 65.3518 47.7993 C 65.3518 46.383896 64.6088 45.0774 63.3984 44.3472 L 44.415 32.96 L 44.415 21.2461 C 44.415 20.8874 44.5111 20.5416 44.683994 20.2341 C 45.2412 19.2735 46.477295 18.9468 47.438 19.504 L 68.5797 31.7879 Z"/>
</svg>
