<svg width="256" height="256" xmlns="http://www.w3.org/2000/svg">
    <g id="Artboard">
        <g id="HairDAO-Icon---Black-+-Teal">
            <path id="Shape" fill="#000000" stroke="none" d="M 128 256 C 57.421394 256 0 198.5823 0 128 C 0 57.417675 57.421394 0 128 0 C 198.57861 0 256 57.421394 256 128 C 256 198.57861 198.57861 256 128 256 Z M 128 9.741469 C 62.790695 9.741469 9.737749 62.790695 9.737749 128 C 9.737749 193.2093 62.790695 246.26233 128 246.26233 C 193.2093 246.26233 246.2586 193.21303 246.2586 128 C 246.2586 62.786976 193.2093 9.741469 128 9.741469 L 128 9.741469 Z"/>
            <path id="Path" fill="#000000" stroke="none" d="M 111.237206 127.53488 L 111.237206 122.05766 L 111.237206 82.88744 L 118.2214 75.352554 L 118.2214 74.530235 L 89.87163 74.530235 L 89.87163 75.352554 L 96.721855 82.88744 L 96.721855 169.03442 L 89.87163 176.43161 L 89.87163 177.25395 L 118.2214 177.25395 L 118.2214 176.43161 L 111.237206 169.03442 Z"/>
            <path id="Path" fill="#36cccc" stroke="none" d="M 51.333954 150.94698 C 51.13191 150.93544 50.937675 150.864 50.775814 150.74232 C 50.60502 150.58307 50.47032 150.3892 50.38028 150.1734 C 50.290607 149.95795 50.247814 149.72539 50.254883 149.4921 C 50.18791 148.26791 50.626976 147.08093 50.898605 145.8865 C 51.17023 144.6921 51.248367 143.33768 50.548832 142.3293 C 50.31814 141.99442 50.009304 141.71535 49.778606 141.37674 C 47.61675 138.18419 55.255814 132.73674 57.179535 130.90233 C 60.617676 127.61302 64.16372 124.431625 67.83628 121.4065 C 73.25395 116.94139 79.09582 112.31257 85.63721 109.61116 C 91.27442 107.28558 97.39534 108.45023 101.23163 112.56558 C 105.06791 116.68093 105.655815 122.67535 102.85767 128.30884 C 101.19814 131.65767 100.18605 134.10605 99.84744 135.63162 C 99.78456 135.82921 99.786415 136.04205 99.85339 136.23814 C 99.92037 136.4346 100.048744 136.60391 100.219536 136.72186 C 100.45768 136.84093 101.1907 136.55814 102.08 135.56093 C 102.63814 134.93582 103.22604 134.26605 103.83256 133.57396 C 106.90977 130.05396 110.73861 125.67814 115.09582 122.705124 C 119.45303 119.73209 124.26047 119.25954 127.97768 121.43628 C 130.54512 122.92466 133.43256 126.13581 133.44 132.91162 C 147.95163 120 164.02977 120.89302 178.27348 121.67814 C 184.99721 122.05023 191.80652 122.45953 198.49303 121.4065 C 200.4279 121.101395 202.35907 120.751625 204.26047 120.29023 C 205.16093 120.07442 206.24371 119.918144 206.89488 120.56558 C 207.63905 121.30977 207.26698 122.62325 206.60837 123.45673 C 205.94977 124.29023 205.0493 124.98605 204.72931 125.99814 C 204.4093 127.01023 204.72931 128.05954 204.59534 129.0828 C 204.49413 129.6625 204.272 130.21432 203.94382 130.70288 C 203.61562 131.19144 203.18884 131.60521 202.69023 131.91814 C 199.71349 133.86046 194.35162 133.40651 190.9544 133.49582 C 186.51535 133.59256 182.07257 133.36931 177.64095 133.12372 C 163.50139 132.33488 151.29674 131.66139 140.03722 142.42604 C 136.49861 145.80466 131.81767 146.70511 127.81395 144.78511 C 125.88167 143.8333 124.28279 142.31851 123.22865 140.44019 C 122.174515 138.5615 121.71424 136.40744 121.90884 134.26233 C 121.98139 133.49246 121.98139 132.71777 121.90884 131.9479 C 121.79349 132.01488 121.6707 132.0893 121.53675 132.1786 C 118.385124 134.3293 115.21116 137.9386 112.43907 141.10884 C 111.79907 141.85303 111.1814 142.54512 110.578606 143.20372 C 106.19907 148.08559 100.063255 149.5293 94.9507 146.90605 C 92.52391 145.632 90.587166 143.59033 89.44298 141.09991 C 88.298416 138.60912 88.01116 135.80986 88.625114 133.13861 C 89.3693 129.8493 91.22977 125.88279 92.56186 123.18512 C 93.186966 121.92371 93.283714 120.8707 92.81488 120.37209 C 92.346054 119.87348 91.326515 119.653946 89.97954 120.20093 C 84.34977 122.51907 79.29302 126.84279 74.65302 130.67535 C 67.15535 136.8707 60.699535 144.18977 53.071625 150.1693 C 52.59535 150.58604 51.92558 150.9879 51.333954 150.94698 Z"/>
            <path id="Path" fill="#000000" stroke="none" d="M 164.65488 75.352554 L 164.65488 74.530235 L 136.30139 74.530235 L 136.30139 75.352554 L 143.15163 82.88744 L 143.15163 122.05766 L 143.15163 127.53488 L 143.15163 169.03442 L 136.30139 176.43161 L 136.30139 177.25395 L 164.65488 177.25395 L 164.65488 176.43161 L 157.80466 169.03442 L 157.80466 82.88744 Z"/>
        </g>
    </g>
</svg>
