<svg width="512" height="512" xmlns="http://www.w3.org/2000/svg">
    <path fill="#00a3ff" stroke="none" d="M 0 0 L 512 0 L 512 512 L 0 512 Z"/>
    <path fill="#ffffff" stroke="none" d="M 150.988 237.834 L 148.122 242.231 C 115.796 291.819 123.016 356.763 165.48 398.37 C 190.46098 422.847 223.202 435.087 255.944 435.091 C 255.944 435.091 255.944 435.091 150.988 237.834 Z"/>
    <g opacity="0.6">
        <path fill="#ffffff" stroke="none" d="M 255.935 297.785 L 150.979 237.834 C 255.935 435.091 255.935 435.091 255.935 435.091 C 255.935 392.12997 255.935 342.902 255.935 297.785 Z"/>
    </g>
    <g opacity="0.6">
        <path fill="#ffffff" stroke="none" d="M 361.012 237.834 L 363.878 242.231 C 396.20398 291.819 388.984 356.763 346.52 398.37 C 321.539 422.847 288.798 435.087 256.056 435.091 C 256.056 435.091 256.056 435.091 361.012 237.834 Z"/>
    </g>
    <g opacity="0.2">
        <path fill="#ffffff" stroke="none" d="M 256.044 297.785 L 361 237.834 C 256.045 435.091 256.044 435.091 256.044 435.091 C 256.044 392.12997 256.044 342.902 256.044 297.785 Z"/>
    </g>
    <g opacity="0.2">
        <path fill="#ffffff" stroke="none" d="M 256.062 163.834 L 256.062 267.233 L 346.47 215.56699 L 256.062 163.834 Z"/>
    </g>
    <g opacity="0.6">
        <path fill="#ffffff" stroke="none" d="M 256.077 163.834 L 165.604 215.566 L 256.077 267.233 L 256.077 163.834 Z"/>
    </g>
    <path fill="#ffffff" stroke="none" d="M 256.077 76.875 L 165.604 215.599 L 256.077 163.722 L 256.077 76.875 Z"/>
    <g opacity="0.6">
        <path fill="#ffffff" stroke="none" d="M 256.062 163.707 L 346.539 215.586 L 256.062 76.793 L 256.062 163.707 Z"/>
    </g>
</svg>
